%TF.GenerationSoftware,KiCad,Pcbnew,(6.0.5-0)*%
%TF.CreationDate,2022-07-05T17:16:21+02:00*%
%TF.ProjectId,HWCorso,4857436f-7273-46f2-9e6b-696361645f70,rev?*%
%TF.SameCoordinates,Original*%
%TF.FileFunction,Copper,L4,Bot*%
%TF.FilePolarity,Positive*%
%FSLAX46Y46*%
G04 Gerber Fmt 4.6, Leading zero omitted, Abs format (unit mm)*
G04 Created by KiCad (PCBNEW (6.0.5-0)) date 2022-07-05 17:16:21*
%MOMM*%
%LPD*%
G01*
G04 APERTURE LIST*
G04 Aperture macros list*
%AMRoundRect*
0 Rectangle with rounded corners*
0 $1 Rounding radius*
0 $2 $3 $4 $5 $6 $7 $8 $9 X,Y pos of 4 corners*
0 Add a 4 corners polygon primitive as box body*
4,1,4,$2,$3,$4,$5,$6,$7,$8,$9,$2,$3,0*
0 Add four circle primitives for the rounded corners*
1,1,$1+$1,$2,$3*
1,1,$1+$1,$4,$5*
1,1,$1+$1,$6,$7*
1,1,$1+$1,$8,$9*
0 Add four rect primitives between the rounded corners*
20,1,$1+$1,$2,$3,$4,$5,0*
20,1,$1+$1,$4,$5,$6,$7,0*
20,1,$1+$1,$6,$7,$8,$9,0*
20,1,$1+$1,$8,$9,$2,$3,0*%
G04 Aperture macros list end*
%TA.AperFunction,ComponentPad*%
%ADD10C,8.600000*%
%TD*%
%TA.AperFunction,ComponentPad*%
%ADD11C,0.900000*%
%TD*%
%TA.AperFunction,ComponentPad*%
%ADD12RoundRect,0.200000X-0.200000X-0.450000X0.200000X-0.450000X0.200000X0.450000X-0.200000X0.450000X0*%
%TD*%
%TA.AperFunction,ComponentPad*%
%ADD13O,0.800000X1.300000*%
%TD*%
%TA.AperFunction,ComponentPad*%
%ADD14R,2.400000X2.400000*%
%TD*%
%TA.AperFunction,ComponentPad*%
%ADD15C,2.400000*%
%TD*%
%TA.AperFunction,ComponentPad*%
%ADD16RoundRect,0.200000X0.200000X0.450000X-0.200000X0.450000X-0.200000X-0.450000X0.200000X-0.450000X0*%
%TD*%
%TA.AperFunction,ViaPad*%
%ADD17C,0.800000*%
%TD*%
%TA.AperFunction,Conductor*%
%ADD18C,0.300000*%
%TD*%
G04 APERTURE END LIST*
D10*
%TO.P,H3,1,1*%
%TO.N,GND*%
X95500000Y-115000000D03*
D11*
X95500000Y-118225000D03*
X93219581Y-117280419D03*
X95500000Y-111775000D03*
X92275000Y-115000000D03*
X93219581Y-112719581D03*
X97780419Y-117280419D03*
X98725000Y-115000000D03*
X97780419Y-112719581D03*
%TD*%
%TO.P,H2,1,1*%
%TO.N,GND*%
X57219581Y-112719581D03*
D10*
X59500000Y-115000000D03*
D11*
X56275000Y-115000000D03*
X62725000Y-115000000D03*
X61780419Y-117280419D03*
X59500000Y-111775000D03*
X61780419Y-112719581D03*
X57219581Y-117280419D03*
X59500000Y-118225000D03*
%TD*%
%TO.P,H1,1,1*%
%TO.N,GND*%
X92275000Y-79750000D03*
X95500000Y-82975000D03*
X93219581Y-77469581D03*
X95500000Y-76525000D03*
X98725000Y-79750000D03*
X93219581Y-82030419D03*
X97780419Y-77469581D03*
D10*
X95500000Y-79750000D03*
D11*
X97780419Y-82030419D03*
%TD*%
D12*
%TO.P,J5,1,Pin_1*%
%TO.N,BUCK_VOUT_3V3*%
X69375000Y-115050000D03*
D13*
%TO.P,J5,2,Pin_2*%
%TO.N,USART6_TX*%
X70625000Y-115050000D03*
%TO.P,J5,3,Pin_3*%
%TO.N,USART6_RX*%
X71875000Y-115050000D03*
%TO.P,J5,4,Pin_4*%
%TO.N,GND*%
X73125000Y-115050000D03*
%TD*%
D14*
%TO.P,J2,1,Pin_1*%
%TO.N,+12V*%
X95300000Y-103250000D03*
D15*
%TO.P,J2,2,Pin_2*%
%TO.N,GND*%
X95300000Y-99750000D03*
%TD*%
D16*
%TO.P,J3,1,Pin_1*%
%TO.N,BUCK_VOUT_3V3*%
X73125000Y-79200000D03*
D13*
%TO.P,J3,2,Pin_2*%
%TO.N,I2C1_SCL*%
X71875000Y-79200000D03*
%TO.P,J3,3,Pin_3*%
%TO.N,I2C1_SDA*%
X70625000Y-79200000D03*
%TO.P,J3,4,Pin_4*%
%TO.N,GND*%
X69375000Y-79200000D03*
%TD*%
D10*
%TO.P,H4,1,1*%
%TO.N,GND*%
X59250000Y-79500000D03*
D11*
X56969581Y-81780419D03*
X61530419Y-77219581D03*
X56025000Y-79500000D03*
X59250000Y-82725000D03*
X56969581Y-77219581D03*
X61530419Y-81780419D03*
X62475000Y-79500000D03*
X59250000Y-76275000D03*
%TD*%
D17*
%TO.N,GND*%
X80750000Y-74250000D03*
X84500000Y-74250000D03*
X83250000Y-74250000D03*
%TO.N,BUCK_VOUT_3V3*%
X86750000Y-76000000D03*
%TO.N,NRST*%
X81750000Y-88250000D03*
X80710000Y-83710000D03*
%TO.N,USART6_TX*%
X70500000Y-106500000D03*
%TO.N,GND*%
X87500000Y-88750000D03*
X61500000Y-96500000D03*
X57000000Y-99250000D03*
%TO.N,USART6_TX*%
X74500000Y-102000000D03*
%TO.N,USART6_RX*%
X72000000Y-106500000D03*
X72000000Y-103000000D03*
%TO.N,GND*%
X89250000Y-89000000D03*
X89250000Y-88000000D03*
X90250000Y-88000000D03*
X90250000Y-89000000D03*
X86500000Y-113000000D03*
X62000000Y-99750000D03*
X63250000Y-99750000D03*
X67750000Y-90500000D03*
X78250000Y-105750000D03*
X75750000Y-108250000D03*
X67500000Y-108000000D03*
X62500000Y-104000000D03*
X81750000Y-117250000D03*
X81750000Y-116250000D03*
X90250000Y-113250000D03*
X89250000Y-113250000D03*
X90500000Y-101250000D03*
X89750000Y-100000000D03*
X92500000Y-108000000D03*
X91500000Y-107000000D03*
X89500000Y-106000000D03*
X89500000Y-105000000D03*
X84000000Y-104250000D03*
X83000000Y-105500000D03*
X80500000Y-102500000D03*
X80500000Y-101500000D03*
X80500000Y-94500000D03*
X61250000Y-93750000D03*
X59250000Y-91250000D03*
X62750000Y-91250000D03*
X63750000Y-92250000D03*
X64000000Y-94250000D03*
X60250000Y-93500000D03*
%TO.N,BUCK_VOUT_3V3*%
X80500000Y-100250000D03*
X80500000Y-99000000D03*
X84750000Y-115750000D03*
X86000000Y-116750000D03*
X76500000Y-116750000D03*
X77750000Y-118250000D03*
X81250000Y-112500000D03*
X81250000Y-113750000D03*
X77500000Y-112500000D03*
X77500000Y-113750000D03*
X79250000Y-94250000D03*
X60000000Y-86750000D03*
X76500000Y-105000000D03*
X68500000Y-107750000D03*
X59250000Y-103500000D03*
X58500000Y-102750000D03*
X62250000Y-95250000D03*
X66500000Y-90500000D03*
X65000000Y-92250000D03*
X66000000Y-92250000D03*
X68000000Y-86250000D03*
X75000000Y-86250000D03*
%TO.N,NRST*%
X74500000Y-98250000D03*
X81750000Y-93000000D03*
%TD*%
D18*
%TO.N,NRST*%
X80710000Y-83710000D02*
X80710000Y-87210000D01*
X80710000Y-87210000D02*
X81750000Y-88250000D01*
%TO.N,USART6_TX*%
X70500000Y-103000000D02*
X71500000Y-102000000D01*
X71500000Y-102000000D02*
X74500000Y-102000000D01*
X70500000Y-106500000D02*
X70500000Y-103000000D01*
%TO.N,USART6_RX*%
X72000000Y-103000000D02*
X72000000Y-106500000D01*
%TO.N,NRST*%
X74500000Y-98250000D02*
X79750000Y-98250000D01*
X81750000Y-93250000D02*
X81750000Y-93000000D01*
X81750000Y-96250000D02*
X81750000Y-93250000D01*
X79750000Y-98250000D02*
X81750000Y-96250000D01*
%TD*%
M02*
