M48
; DRILL file {KiCad (6.0.5-0)} date 2022 July 05, Tuesday 17:16:16
; FORMAT={-:-/ absolute / inch / decimal}
; #@! TF.CreationDate,2022-07-05T17:16:16+02:00
; #@! TF.GenerationSoftware,Kicad,Pcbnew,(6.0.5-0)
; #@! TF.FileFunction,Plated,1,4,PTH
FMAT,2
INCH
; #@! TA.AperFunction,Plated,PTH,ViaDrill
T1C0.0157
; #@! TA.AperFunction,Plated,PTH,ComponentDrill
T2C0.0197
; #@! TA.AperFunction,Plated,PTH,ComponentDrill
T3C0.0236
; #@! TA.AperFunction,Plated,PTH,ComponentDrill
T4C0.0472
; #@! TA.AperFunction,Plated,PTH,ComponentDrill
T5C0.1693
%
G90
G05
T1
X2.2441Y-3.9075
X2.3031Y-4.0453
X2.3327Y-3.5925
X2.3327Y-4.0748
X2.3622Y-3.4154
X2.372Y-3.6811
X2.4114Y-3.6909
X2.4213Y-3.7992
X2.4409Y-3.9272
X2.4508Y-3.75
X2.4606Y-4.0945
X2.4705Y-3.5925
X2.4902Y-3.9272
X2.5098Y-3.6319
X2.5197Y-3.7106
X2.5591Y-3.6319
X2.5984Y-3.6319
X2.6181Y-3.563
X2.6575Y-4.252
X2.6673Y-3.563
X2.6772Y-3.3957
X2.6969Y-4.2421
X2.7756Y-4.1929
X2.8346Y-4.0551
X2.8346Y-4.1929
X2.9331Y-3.8681
X2.9331Y-4.0157
X2.9528Y-3.3957
X2.9823Y-4.2618
X3.0118Y-4.1339
X3.0118Y-4.5965
X3.0512Y-4.4291
X3.0512Y-4.4783
X3.061Y-4.6555
X3.0807Y-4.1634
X3.1201Y-3.7106
X3.1693Y-3.7205
X3.1693Y-3.8976
X3.1693Y-3.9469
X3.1693Y-3.9961
X3.1693Y-4.0354
X3.1776Y-3.2957
X3.1791Y-2.9232
X3.1988Y-4.4291
X3.1988Y-4.4783
X3.2185Y-3.4744
X3.2185Y-3.6614
X3.2185Y-4.5768
X3.2185Y-4.6161
X3.2677Y-4.1535
X3.2776Y-2.9232
X3.3071Y-4.1043
X3.3268Y-2.9232
X3.3366Y-4.5571
X3.3858Y-4.5965
X3.4055Y-4.4488
X3.4154Y-2.9921
X3.4449Y-3.4941
X3.5138Y-3.4646
X3.5138Y-3.5039
X3.5138Y-4.4587
X3.5236Y-4.1339
X3.5236Y-4.1732
X3.5335Y-3.937
X3.5531Y-3.4646
X3.5531Y-3.5039
X3.5531Y-4.4587
X3.563Y-3.9862
X3.6024Y-4.2126
X3.6417Y-4.252
T2
X2.7313Y-3.1181
X2.7313Y-4.5295
X2.7805Y-3.1181
X2.7805Y-4.5295
X2.8297Y-3.1181
X2.8297Y-4.5295
X2.8789Y-3.1181
X2.8789Y-4.5295
T3
X2.2057Y-3.1299
X2.2156Y-4.5276
X2.2429Y-3.0401
X2.2429Y-3.2197
X2.2527Y-4.4378
X2.2527Y-4.6173
X2.3327Y-3.003
X2.3327Y-3.2569
X2.3425Y-4.4006
X2.3425Y-4.6545
X2.4225Y-3.0401
X2.4225Y-3.2197
X2.4323Y-4.4378
X2.4323Y-4.6173
X2.4596Y-3.1299
X2.4695Y-4.5276
X3.6329Y-3.1398
X3.6329Y-4.5276
X3.6701Y-3.05
X3.6701Y-3.2295
X3.6701Y-4.4378
X3.6701Y-4.6173
X3.7598Y-3.0128
X3.7598Y-3.2667
X3.7598Y-4.4006
X3.7598Y-4.6545
X3.8496Y-3.05
X3.8496Y-3.2295
X3.8496Y-4.4378
X3.8496Y-4.6173
X3.8868Y-3.1398
X3.8868Y-4.5276
T4
X3.752Y-3.9272
X3.752Y-4.065
T5
X2.3327Y-3.1299
X2.3425Y-4.5276
X3.7598Y-3.1398
X3.7598Y-4.5276
T0
M30
