M48
; DRILL file {KiCad (6.0.5)} date Tue Jul 12 20:21:48 2022
; FORMAT={-:-/ absolute / inch / decimal}
; #@! TF.CreationDate,2022-07-12T20:21:48+02:00
; #@! TF.GenerationSoftware,Kicad,Pcbnew,(6.0.5)
; #@! TF.FileFunction,Plated,1,4,PTH
FMAT,2
INCH
; #@! TA.AperFunction,Plated,PTH,ViaDrill
T1C0.0079
; #@! TA.AperFunction,Plated,PTH,ViaDrill
T2C0.0157
; #@! TA.AperFunction,Plated,PTH,ComponentDrill
T3C0.0197
; #@! TA.AperFunction,Plated,PTH,ComponentDrill
T4C0.0236
; #@! TA.AperFunction,Plated,PTH,ComponentDrill
T5C0.0335
; #@! TA.AperFunction,Plated,PTH,ComponentDrill
T6C0.1260
%
G90
G05
T1
X5.0764Y-4.2827
X5.0764Y-4.3823
X5.0768Y-4.2331
X5.0783Y-4.1827
X5.19Y-3.76
X5.21Y-3.73
X5.23Y-3.7
X5.25Y-3.66
X5.3024Y-3.8157
X5.3626Y-3.7598
X5.4413Y-4.1827
X5.4426Y-3.9532
X5.4484Y-3.4933
X5.4756Y-3.6685
X5.4929Y-4.1213
X5.4945Y-3.7303
X5.5307Y-4.1189
X5.535Y-3.9957
X5.548Y-3.774
X5.5685Y-3.9665
X5.5878Y-4.5594
X5.59Y-4.09
X5.6012Y-3.5976
X5.6055Y-4.439
X5.62Y-4.21
X5.6252Y-4.5307
X5.6256Y-4.5543
X5.661Y-4.1783
X5.6614Y-3.6374
X5.6654Y-3.5272
X5.6657Y-4.6272
X5.7169Y-4.2189
X5.726Y-3.5272
X5.7291Y-3.6079
X5.7429Y-4.626
X5.7449Y-4.061
X5.7807Y-3.8215
X5.7807Y-3.847
X5.785Y-4.3874
X5.785Y-4.6083
X5.7937Y-4.2453
X5.8153Y-4.201
X5.8189Y-4.3862
X5.8389Y-4.1995
X5.8398Y-3.748
X5.8689Y-4.5866
X5.88Y-4.25
X5.9016Y-4.23
X5.9484Y-3.7319
X5.9679Y-3.847
X5.99Y-4.2925
X6.0123Y-3.8604
X6.0326Y-4.1284
X6.0696Y-4.1296
X6.0811Y-4.6295
X6.1165Y-3.6177
X6.1563Y-3.7685
X6.1701Y-3.6909
X6.3638Y-4.3276
T2
X5.1646Y-3.5736
X6.0362Y-3.3929
X6.0748Y-4.3496
X6.1827Y-3.315
X6.2622Y-3.9311
X6.2988Y-4.1772
X6.3614Y-3.9268
X6.389Y-4.1815
T3
X5.9685Y-4.5913
X6.0079Y-4.5913
T5
X5.4276Y-3.4355
X5.6244Y-3.4355
T6
X5.1406Y-4.5835
X5.1413Y-3.3736
X6.3535Y-4.5835
X6.3539Y-3.3768
T4
G00X5.3882Y-3.343
M15
G01X5.3882Y-3.3155
M16
G05
G00X5.6638Y-3.3155
M15
G01X5.6638Y-3.343
M16
G05
T0
M30
