%TF.GenerationSoftware,KiCad,Pcbnew,(6.0.5-0)*%
%TF.CreationDate,2022-07-05T17:16:21+02:00*%
%TF.ProjectId,HWCorso,4857436f-7273-46f2-9e6b-696361645f70,rev?*%
%TF.SameCoordinates,Original*%
%TF.FileFunction,Soldermask,Bot*%
%TF.FilePolarity,Negative*%
%FSLAX46Y46*%
G04 Gerber Fmt 4.6, Leading zero omitted, Abs format (unit mm)*
G04 Created by KiCad (PCBNEW (6.0.5-0)) date 2022-07-05 17:16:21*
%MOMM*%
%LPD*%
G01*
G04 APERTURE LIST*
G04 Aperture macros list*
%AMRoundRect*
0 Rectangle with rounded corners*
0 $1 Rounding radius*
0 $2 $3 $4 $5 $6 $7 $8 $9 X,Y pos of 4 corners*
0 Add a 4 corners polygon primitive as box body*
4,1,4,$2,$3,$4,$5,$6,$7,$8,$9,$2,$3,0*
0 Add four circle primitives for the rounded corners*
1,1,$1+$1,$2,$3*
1,1,$1+$1,$4,$5*
1,1,$1+$1,$6,$7*
1,1,$1+$1,$8,$9*
0 Add four rect primitives between the rounded corners*
20,1,$1+$1,$2,$3,$4,$5,0*
20,1,$1+$1,$4,$5,$6,$7,0*
20,1,$1+$1,$6,$7,$8,$9,0*
20,1,$1+$1,$8,$9,$2,$3,0*%
G04 Aperture macros list end*
%ADD10C,8.600000*%
%ADD11C,0.900000*%
%ADD12RoundRect,0.200000X-0.200000X-0.450000X0.200000X-0.450000X0.200000X0.450000X-0.200000X0.450000X0*%
%ADD13O,0.800000X1.300000*%
%ADD14R,2.400000X2.400000*%
%ADD15C,2.400000*%
%ADD16RoundRect,0.200000X0.200000X0.450000X-0.200000X0.450000X-0.200000X-0.450000X0.200000X-0.450000X0*%
G04 APERTURE END LIST*
D10*
%TO.C,H3*%
X95500000Y-115000000D03*
D11*
X95500000Y-118225000D03*
X93219581Y-117280419D03*
X95500000Y-111775000D03*
X92275000Y-115000000D03*
X93219581Y-112719581D03*
X97780419Y-117280419D03*
X98725000Y-115000000D03*
X97780419Y-112719581D03*
%TD*%
%TO.C,H2*%
X57219581Y-112719581D03*
D10*
X59500000Y-115000000D03*
D11*
X56275000Y-115000000D03*
X62725000Y-115000000D03*
X61780419Y-117280419D03*
X59500000Y-111775000D03*
X61780419Y-112719581D03*
X57219581Y-117280419D03*
X59500000Y-118225000D03*
%TD*%
%TO.C,H1*%
X92275000Y-79750000D03*
X95500000Y-82975000D03*
X93219581Y-77469581D03*
X95500000Y-76525000D03*
X98725000Y-79750000D03*
X93219581Y-82030419D03*
X97780419Y-77469581D03*
D10*
X95500000Y-79750000D03*
D11*
X97780419Y-82030419D03*
%TD*%
D12*
%TO.C,J5*%
X69375000Y-115050000D03*
D13*
X70625000Y-115050000D03*
X71875000Y-115050000D03*
X73125000Y-115050000D03*
%TD*%
D11*
%TO.C,J1*%
X94725000Y-88550000D03*
X94725000Y-92950000D03*
%TD*%
D14*
%TO.C,J2*%
X95300000Y-103250000D03*
D15*
X95300000Y-99750000D03*
%TD*%
D16*
%TO.C,J3*%
X73125000Y-79200000D03*
D13*
X71875000Y-79200000D03*
X70625000Y-79200000D03*
X69375000Y-79200000D03*
%TD*%
D10*
%TO.C,H4*%
X59250000Y-79500000D03*
D11*
X56969581Y-81780419D03*
X61530419Y-77219581D03*
X56025000Y-79500000D03*
X59250000Y-82725000D03*
X56969581Y-77219581D03*
X61530419Y-81780419D03*
X62475000Y-79500000D03*
X59250000Y-76275000D03*
%TD*%
%TO.C,SW1*%
X56670000Y-87500000D03*
X56670000Y-90500000D03*
%TD*%
M02*
