%TF.GenerationSoftware,KiCad,Pcbnew,(6.0.5-0)*%
%TF.CreationDate,2022-07-05T17:16:21+02:00*%
%TF.ProjectId,HWCorso,4857436f-7273-46f2-9e6b-696361645f70,rev?*%
%TF.SameCoordinates,Original*%
%TF.FileFunction,Copper,L3,Inr*%
%TF.FilePolarity,Positive*%
%FSLAX46Y46*%
G04 Gerber Fmt 4.6, Leading zero omitted, Abs format (unit mm)*
G04 Created by KiCad (PCBNEW (6.0.5-0)) date 2022-07-05 17:16:21*
%MOMM*%
%LPD*%
G01*
G04 APERTURE LIST*
G04 Aperture macros list*
%AMRoundRect*
0 Rectangle with rounded corners*
0 $1 Rounding radius*
0 $2 $3 $4 $5 $6 $7 $8 $9 X,Y pos of 4 corners*
0 Add a 4 corners polygon primitive as box body*
4,1,4,$2,$3,$4,$5,$6,$7,$8,$9,$2,$3,0*
0 Add four circle primitives for the rounded corners*
1,1,$1+$1,$2,$3*
1,1,$1+$1,$4,$5*
1,1,$1+$1,$6,$7*
1,1,$1+$1,$8,$9*
0 Add four rect primitives between the rounded corners*
20,1,$1+$1,$2,$3,$4,$5,0*
20,1,$1+$1,$4,$5,$6,$7,0*
20,1,$1+$1,$6,$7,$8,$9,0*
20,1,$1+$1,$8,$9,$2,$3,0*%
G04 Aperture macros list end*
%TA.AperFunction,ComponentPad*%
%ADD10C,8.600000*%
%TD*%
%TA.AperFunction,ComponentPad*%
%ADD11C,0.900000*%
%TD*%
%TA.AperFunction,ComponentPad*%
%ADD12RoundRect,0.200000X-0.200000X-0.450000X0.200000X-0.450000X0.200000X0.450000X-0.200000X0.450000X0*%
%TD*%
%TA.AperFunction,ComponentPad*%
%ADD13O,0.800000X1.300000*%
%TD*%
%TA.AperFunction,ComponentPad*%
%ADD14R,2.400000X2.400000*%
%TD*%
%TA.AperFunction,ComponentPad*%
%ADD15C,2.400000*%
%TD*%
%TA.AperFunction,ComponentPad*%
%ADD16RoundRect,0.200000X0.200000X0.450000X-0.200000X0.450000X-0.200000X-0.450000X0.200000X-0.450000X0*%
%TD*%
%TA.AperFunction,ViaPad*%
%ADD17C,0.800000*%
%TD*%
G04 APERTURE END LIST*
D10*
%TO.N,GND*%
%TO.C,H3*%
X95500000Y-115000000D03*
D11*
X95500000Y-118225000D03*
X93219581Y-117280419D03*
X95500000Y-111775000D03*
X92275000Y-115000000D03*
X93219581Y-112719581D03*
X97780419Y-117280419D03*
X98725000Y-115000000D03*
X97780419Y-112719581D03*
%TD*%
%TO.N,GND*%
%TO.C,H2*%
X57219581Y-112719581D03*
D10*
X59500000Y-115000000D03*
D11*
X56275000Y-115000000D03*
X62725000Y-115000000D03*
X61780419Y-117280419D03*
X59500000Y-111775000D03*
X61780419Y-112719581D03*
X57219581Y-117280419D03*
X59500000Y-118225000D03*
%TD*%
%TO.N,GND*%
%TO.C,H1*%
X92275000Y-79750000D03*
X95500000Y-82975000D03*
X93219581Y-77469581D03*
X95500000Y-76525000D03*
X98725000Y-79750000D03*
X93219581Y-82030419D03*
X97780419Y-77469581D03*
D10*
X95500000Y-79750000D03*
D11*
X97780419Y-82030419D03*
%TD*%
D12*
%TO.N,BUCK_VOUT_3V3*%
%TO.C,J5*%
X69375000Y-115050000D03*
D13*
%TO.N,USART6_TX*%
X70625000Y-115050000D03*
%TO.N,USART6_RX*%
X71875000Y-115050000D03*
%TO.N,GND*%
X73125000Y-115050000D03*
%TD*%
D14*
%TO.N,+12V*%
%TO.C,J2*%
X95300000Y-103250000D03*
D15*
%TO.N,GND*%
X95300000Y-99750000D03*
%TD*%
D16*
%TO.N,BUCK_VOUT_3V3*%
%TO.C,J3*%
X73125000Y-79200000D03*
D13*
%TO.N,I2C1_SCL*%
X71875000Y-79200000D03*
%TO.N,I2C1_SDA*%
X70625000Y-79200000D03*
%TO.N,GND*%
X69375000Y-79200000D03*
%TD*%
D10*
%TO.N,GND*%
%TO.C,H4*%
X59250000Y-79500000D03*
D11*
X56969581Y-81780419D03*
X61530419Y-77219581D03*
X56025000Y-79500000D03*
X59250000Y-82725000D03*
X56969581Y-77219581D03*
X61530419Y-81780419D03*
X62475000Y-79500000D03*
X59250000Y-76275000D03*
%TD*%
D17*
%TO.N,GND*%
X80750000Y-74250000D03*
X84500000Y-74250000D03*
X83250000Y-74250000D03*
%TO.N,BUCK_VOUT_3V3*%
X86750000Y-76000000D03*
%TO.N,NRST*%
X81750000Y-88250000D03*
X80710000Y-83710000D03*
%TO.N,USART6_TX*%
X70500000Y-106500000D03*
%TO.N,GND*%
X87500000Y-88750000D03*
X61500000Y-96500000D03*
X57000000Y-99250000D03*
%TO.N,USART6_TX*%
X74500000Y-102000000D03*
%TO.N,USART6_RX*%
X72000000Y-106500000D03*
X72000000Y-103000000D03*
%TO.N,GND*%
X89250000Y-89000000D03*
X89250000Y-88000000D03*
X90250000Y-88000000D03*
X90250000Y-89000000D03*
X86500000Y-113000000D03*
X62000000Y-99750000D03*
X63250000Y-99750000D03*
X67750000Y-90500000D03*
X78250000Y-105750000D03*
X75750000Y-108250000D03*
X67500000Y-108000000D03*
X62500000Y-104000000D03*
X81750000Y-117250000D03*
X81750000Y-116250000D03*
X90250000Y-113250000D03*
X89250000Y-113250000D03*
X90500000Y-101250000D03*
X89750000Y-100000000D03*
X92500000Y-108000000D03*
X91500000Y-107000000D03*
X89500000Y-106000000D03*
X89500000Y-105000000D03*
X84000000Y-104250000D03*
X83000000Y-105500000D03*
X80500000Y-102500000D03*
X80500000Y-101500000D03*
X80500000Y-94500000D03*
X61250000Y-93750000D03*
X59250000Y-91250000D03*
X62750000Y-91250000D03*
X63750000Y-92250000D03*
X64000000Y-94250000D03*
X60250000Y-93500000D03*
%TO.N,BUCK_VOUT_3V3*%
X80500000Y-100250000D03*
X80500000Y-99000000D03*
X84750000Y-115750000D03*
X86000000Y-116750000D03*
X76500000Y-116750000D03*
X77750000Y-118250000D03*
X81250000Y-112500000D03*
X81250000Y-113750000D03*
X77500000Y-112500000D03*
X77500000Y-113750000D03*
X79250000Y-94250000D03*
X60000000Y-86750000D03*
X76500000Y-105000000D03*
X68500000Y-107750000D03*
X59250000Y-103500000D03*
X58500000Y-102750000D03*
X62250000Y-95250000D03*
X66500000Y-90500000D03*
X65000000Y-92250000D03*
X66000000Y-92250000D03*
X68000000Y-86250000D03*
X75000000Y-86250000D03*
%TO.N,NRST*%
X74500000Y-98250000D03*
X81750000Y-93000000D03*
%TD*%
%TA.AperFunction,Conductor*%
%TO.N,BUCK_VOUT_3V3*%
G36*
X79791166Y-74270002D02*
G01*
X79837659Y-74323658D01*
X79848355Y-74362829D01*
X79856458Y-74439928D01*
X79915473Y-74621556D01*
X80010960Y-74786944D01*
X80015378Y-74791851D01*
X80015379Y-74791852D01*
X80134325Y-74923955D01*
X80138747Y-74928866D01*
X80293248Y-75041118D01*
X80299276Y-75043802D01*
X80299278Y-75043803D01*
X80461681Y-75116109D01*
X80467712Y-75118794D01*
X80561113Y-75138647D01*
X80648056Y-75157128D01*
X80648061Y-75157128D01*
X80654513Y-75158500D01*
X80845487Y-75158500D01*
X80851939Y-75157128D01*
X80851944Y-75157128D01*
X80938887Y-75138647D01*
X81032288Y-75118794D01*
X81038319Y-75116109D01*
X81200722Y-75043803D01*
X81200724Y-75043802D01*
X81206752Y-75041118D01*
X81361253Y-74928866D01*
X81365675Y-74923955D01*
X81484621Y-74791852D01*
X81484622Y-74791851D01*
X81489040Y-74786944D01*
X81584527Y-74621556D01*
X81643542Y-74439928D01*
X81651645Y-74362829D01*
X81678658Y-74297173D01*
X81736879Y-74256543D01*
X81776955Y-74250000D01*
X82223045Y-74250000D01*
X82291166Y-74270002D01*
X82337659Y-74323658D01*
X82348355Y-74362829D01*
X82356458Y-74439928D01*
X82415473Y-74621556D01*
X82510960Y-74786944D01*
X82515378Y-74791851D01*
X82515379Y-74791852D01*
X82634325Y-74923955D01*
X82638747Y-74928866D01*
X82793248Y-75041118D01*
X82799276Y-75043802D01*
X82799278Y-75043803D01*
X82961681Y-75116109D01*
X82967712Y-75118794D01*
X83061113Y-75138647D01*
X83148056Y-75157128D01*
X83148061Y-75157128D01*
X83154513Y-75158500D01*
X83345487Y-75158500D01*
X83351939Y-75157128D01*
X83351944Y-75157128D01*
X83438887Y-75138647D01*
X83532288Y-75118794D01*
X83538319Y-75116109D01*
X83700722Y-75043803D01*
X83700724Y-75043802D01*
X83706752Y-75041118D01*
X83800939Y-74972687D01*
X83867807Y-74948828D01*
X83936958Y-74964909D01*
X83949061Y-74972687D01*
X84043248Y-75041118D01*
X84049276Y-75043802D01*
X84049278Y-75043803D01*
X84211681Y-75116109D01*
X84217712Y-75118794D01*
X84311113Y-75138647D01*
X84398056Y-75157128D01*
X84398061Y-75157128D01*
X84404513Y-75158500D01*
X84595487Y-75158500D01*
X84601939Y-75157128D01*
X84601944Y-75157128D01*
X84688887Y-75138647D01*
X84782288Y-75118794D01*
X84788319Y-75116109D01*
X84950722Y-75043803D01*
X84950724Y-75043802D01*
X84956752Y-75041118D01*
X85111253Y-74928866D01*
X85115675Y-74923955D01*
X85234621Y-74791852D01*
X85234622Y-74791851D01*
X85239040Y-74786944D01*
X85334527Y-74621556D01*
X85393542Y-74439928D01*
X85401645Y-74362829D01*
X85428658Y-74297173D01*
X85486879Y-74256543D01*
X85526955Y-74250000D01*
X94265283Y-74250000D01*
X94266152Y-74250003D01*
X95449317Y-74258163D01*
X95467832Y-74259660D01*
X95484849Y-74262310D01*
X95484855Y-74262310D01*
X95493724Y-74263691D01*
X95514664Y-74260953D01*
X95536202Y-74259997D01*
X95724026Y-74267766D01*
X95948278Y-74277041D01*
X95958656Y-74277901D01*
X96199660Y-74307942D01*
X96398702Y-74332753D01*
X96408967Y-74334465D01*
X96572054Y-74368661D01*
X96842976Y-74425467D01*
X96853072Y-74428023D01*
X97278101Y-74554561D01*
X97287938Y-74557938D01*
X97701081Y-74719147D01*
X97710581Y-74723314D01*
X98083710Y-74905726D01*
X98108983Y-74918081D01*
X98118139Y-74923036D01*
X98206341Y-74975593D01*
X98499085Y-75150030D01*
X98507804Y-75155726D01*
X98868705Y-75413405D01*
X98876923Y-75419801D01*
X99215326Y-75706413D01*
X99222987Y-75713467D01*
X99536533Y-76027013D01*
X99543587Y-76034674D01*
X99830199Y-76373077D01*
X99836595Y-76381295D01*
X100094274Y-76742196D01*
X100099970Y-76750915D01*
X100326963Y-77131859D01*
X100331918Y-77141015D01*
X100470907Y-77425321D01*
X100526682Y-77539411D01*
X100530853Y-77548919D01*
X100692062Y-77962062D01*
X100695439Y-77971899D01*
X100821977Y-78396928D01*
X100824533Y-78407024D01*
X100874983Y-78647630D01*
X100915534Y-78841030D01*
X100917247Y-78851298D01*
X100928803Y-78944001D01*
X100972099Y-79291344D01*
X100972959Y-79301722D01*
X100976065Y-79376811D01*
X100989585Y-79703691D01*
X100989694Y-79706335D01*
X100988302Y-79730920D01*
X100986309Y-79743724D01*
X100987473Y-79752626D01*
X100987473Y-79752628D01*
X100990436Y-79775283D01*
X100991500Y-79791621D01*
X100991500Y-114950633D01*
X100990000Y-114970018D01*
X100987690Y-114984851D01*
X100987690Y-114984855D01*
X100986309Y-114993724D01*
X100989047Y-115014659D01*
X100990003Y-115036205D01*
X100972959Y-115448278D01*
X100972099Y-115458656D01*
X100946345Y-115665271D01*
X100919773Y-115878444D01*
X100917248Y-115898698D01*
X100915535Y-115908967D01*
X100845404Y-116243435D01*
X100824533Y-116342976D01*
X100821977Y-116353072D01*
X100695439Y-116778101D01*
X100692062Y-116787938D01*
X100530853Y-117201081D01*
X100526686Y-117210581D01*
X100483391Y-117299142D01*
X100331919Y-117608983D01*
X100326963Y-117618141D01*
X100099970Y-117999085D01*
X100094274Y-118007804D01*
X99836595Y-118368705D01*
X99830199Y-118376923D01*
X99543587Y-118715326D01*
X99536533Y-118722987D01*
X99222987Y-119036533D01*
X99215326Y-119043587D01*
X98876923Y-119330199D01*
X98868705Y-119336595D01*
X98507804Y-119594274D01*
X98499085Y-119599970D01*
X98416238Y-119649336D01*
X98260676Y-119742031D01*
X98118141Y-119826963D01*
X98108985Y-119831918D01*
X97710581Y-120026686D01*
X97701081Y-120030853D01*
X97287938Y-120192062D01*
X97278101Y-120195439D01*
X96853072Y-120321977D01*
X96842975Y-120324533D01*
X96408967Y-120415535D01*
X96398702Y-120417247D01*
X96234674Y-120437693D01*
X95958656Y-120472099D01*
X95948278Y-120472959D01*
X95770676Y-120480305D01*
X95543661Y-120489694D01*
X95519080Y-120488302D01*
X95506276Y-120486309D01*
X95497374Y-120487473D01*
X95497372Y-120487473D01*
X95482323Y-120489441D01*
X95474714Y-120490436D01*
X95458379Y-120491500D01*
X68965516Y-120491500D01*
X68963516Y-120491484D01*
X58156513Y-120319944D01*
X58122560Y-120314722D01*
X57721899Y-120195439D01*
X57712062Y-120192062D01*
X57298919Y-120030853D01*
X57289419Y-120026686D01*
X56891015Y-119831918D01*
X56881859Y-119826963D01*
X56739325Y-119742031D01*
X56583762Y-119649336D01*
X56500915Y-119599970D01*
X56492196Y-119594274D01*
X56131295Y-119336595D01*
X56123077Y-119330199D01*
X55784674Y-119043587D01*
X55777013Y-119036533D01*
X55463467Y-118722987D01*
X55456413Y-118715326D01*
X55169801Y-118376923D01*
X55163405Y-118368705D01*
X54905726Y-118007804D01*
X54900030Y-117999085D01*
X54673037Y-117618141D01*
X54668081Y-117608983D01*
X54516609Y-117299142D01*
X54473314Y-117210581D01*
X54469147Y-117201081D01*
X54307938Y-116787938D01*
X54304561Y-116778101D01*
X54178023Y-116353072D01*
X54175467Y-116342976D01*
X54154596Y-116243435D01*
X54084465Y-115908967D01*
X54082752Y-115898698D01*
X54080228Y-115878444D01*
X54053655Y-115665271D01*
X54027901Y-115458656D01*
X54027041Y-115448278D01*
X54010462Y-115047439D01*
X54012100Y-115021329D01*
X54012769Y-115017351D01*
X54012770Y-115017345D01*
X54013576Y-115012552D01*
X54013729Y-115000000D01*
X54012831Y-114993724D01*
X54009452Y-114970137D01*
X54008182Y-114953160D01*
X54007625Y-114874001D01*
X54688302Y-114874001D01*
X54696151Y-115302233D01*
X54742036Y-115728071D01*
X54742582Y-115730817D01*
X54742583Y-115730822D01*
X54770809Y-115872721D01*
X54825594Y-116148144D01*
X54946163Y-116559127D01*
X54947190Y-116561740D01*
X54947190Y-116561741D01*
X55087856Y-116919757D01*
X55102789Y-116957765D01*
X55104044Y-116960276D01*
X55272161Y-117296731D01*
X55294231Y-117340901D01*
X55518974Y-117705502D01*
X55775239Y-118048682D01*
X55777100Y-118050760D01*
X55777101Y-118050761D01*
X56059127Y-118365637D01*
X56059133Y-118365643D01*
X56060995Y-118367722D01*
X56063046Y-118369638D01*
X56063047Y-118369639D01*
X56112306Y-118415654D01*
X56373981Y-118660098D01*
X56711719Y-118923493D01*
X57071533Y-119155822D01*
X57074012Y-119157126D01*
X57074015Y-119157128D01*
X57448077Y-119353932D01*
X57448083Y-119353935D01*
X57450577Y-119355247D01*
X57453175Y-119356331D01*
X57453179Y-119356333D01*
X57843263Y-119519109D01*
X57843268Y-119519111D01*
X57845847Y-119520187D01*
X57848512Y-119521030D01*
X57848518Y-119521032D01*
X58070561Y-119591254D01*
X58254214Y-119649336D01*
X58672446Y-119741673D01*
X58675220Y-119742031D01*
X58675221Y-119742031D01*
X59094460Y-119796109D01*
X59094467Y-119796110D01*
X59097230Y-119796466D01*
X59100017Y-119796576D01*
X59100023Y-119796576D01*
X59348238Y-119806328D01*
X59525203Y-119813281D01*
X59527995Y-119813142D01*
X59528000Y-119813142D01*
X59950172Y-119792125D01*
X59950181Y-119792124D01*
X59952976Y-119791985D01*
X59955753Y-119791597D01*
X59955755Y-119791597D01*
X60078847Y-119774407D01*
X60377163Y-119732747D01*
X60794404Y-119636036D01*
X61008307Y-119565915D01*
X61198744Y-119503487D01*
X61198750Y-119503485D01*
X61201397Y-119502617D01*
X61594918Y-119333547D01*
X61971852Y-119130164D01*
X62329214Y-118894080D01*
X62664175Y-118627162D01*
X62974082Y-118331525D01*
X62975919Y-118329431D01*
X62975927Y-118329422D01*
X63254635Y-118011616D01*
X63256482Y-118009510D01*
X63260825Y-118003566D01*
X63507490Y-117665923D01*
X63509139Y-117663666D01*
X63531046Y-117627279D01*
X63728601Y-117299142D01*
X63728606Y-117299133D01*
X63730052Y-117296731D01*
X63752794Y-117250000D01*
X80836496Y-117250000D01*
X80856458Y-117439928D01*
X80915473Y-117621556D01*
X81010960Y-117786944D01*
X81138747Y-117928866D01*
X81293248Y-118041118D01*
X81299276Y-118043802D01*
X81299278Y-118043803D01*
X81461681Y-118116109D01*
X81467712Y-118118794D01*
X81561112Y-118138647D01*
X81648056Y-118157128D01*
X81648061Y-118157128D01*
X81654513Y-118158500D01*
X81845487Y-118158500D01*
X81851939Y-118157128D01*
X81851944Y-118157128D01*
X81938888Y-118138647D01*
X82032288Y-118118794D01*
X82038319Y-118116109D01*
X82200722Y-118043803D01*
X82200724Y-118043802D01*
X82206752Y-118041118D01*
X82361253Y-117928866D01*
X82489040Y-117786944D01*
X82584527Y-117621556D01*
X82643542Y-117439928D01*
X82663504Y-117250000D01*
X82643542Y-117060072D01*
X82584527Y-116878444D01*
X82546743Y-116813000D01*
X82530005Y-116744005D01*
X82546743Y-116687000D01*
X82581223Y-116627279D01*
X82581224Y-116627278D01*
X82584527Y-116621556D01*
X82643542Y-116439928D01*
X82663504Y-116250000D01*
X82652509Y-116145388D01*
X82644232Y-116066635D01*
X82644232Y-116066633D01*
X82643542Y-116060072D01*
X82584527Y-115878444D01*
X82489040Y-115713056D01*
X82361253Y-115571134D01*
X82206752Y-115458882D01*
X82200724Y-115456198D01*
X82200722Y-115456197D01*
X82038319Y-115383891D01*
X82038318Y-115383891D01*
X82032288Y-115381206D01*
X81938887Y-115361353D01*
X81851944Y-115342872D01*
X81851939Y-115342872D01*
X81845487Y-115341500D01*
X81654513Y-115341500D01*
X81648061Y-115342872D01*
X81648056Y-115342872D01*
X81561113Y-115361353D01*
X81467712Y-115381206D01*
X81461682Y-115383891D01*
X81461681Y-115383891D01*
X81299278Y-115456197D01*
X81299276Y-115456198D01*
X81293248Y-115458882D01*
X81138747Y-115571134D01*
X81010960Y-115713056D01*
X80915473Y-115878444D01*
X80856458Y-116060072D01*
X80855768Y-116066633D01*
X80855768Y-116066635D01*
X80847491Y-116145388D01*
X80836496Y-116250000D01*
X80856458Y-116439928D01*
X80915473Y-116621556D01*
X80918776Y-116627278D01*
X80918777Y-116627279D01*
X80953257Y-116687000D01*
X80969995Y-116755995D01*
X80953257Y-116813000D01*
X80915473Y-116878444D01*
X80856458Y-117060072D01*
X80836496Y-117250000D01*
X63752794Y-117250000D01*
X63917471Y-116911611D01*
X64025763Y-116627279D01*
X64068918Y-116513971D01*
X64068920Y-116513964D01*
X64069914Y-116511355D01*
X64186173Y-116099132D01*
X64192284Y-116066635D01*
X64264811Y-115680954D01*
X64264813Y-115680942D01*
X64265327Y-115678207D01*
X64277425Y-115553705D01*
X68467001Y-115553705D01*
X68467264Y-115559454D01*
X68473132Y-115623315D01*
X68475743Y-115636351D01*
X68522715Y-115786243D01*
X68528921Y-115799988D01*
X68609824Y-115933574D01*
X68619131Y-115945443D01*
X68729557Y-116055869D01*
X68741426Y-116065176D01*
X68875012Y-116146079D01*
X68888757Y-116152285D01*
X69038644Y-116199256D01*
X69051694Y-116201869D01*
X69106586Y-116206913D01*
X69118124Y-116203525D01*
X69119329Y-116202135D01*
X69121000Y-116194452D01*
X69121000Y-116189884D01*
X69629000Y-116189884D01*
X69633475Y-116205123D01*
X69634865Y-116206328D01*
X69639294Y-116207291D01*
X69698315Y-116201868D01*
X69711351Y-116199257D01*
X69861243Y-116152285D01*
X69874988Y-116146079D01*
X70004578Y-116067596D01*
X70073208Y-116049417D01*
X70143911Y-116073436D01*
X70168248Y-116091118D01*
X70174276Y-116093802D01*
X70174278Y-116093803D01*
X70192296Y-116101825D01*
X70342712Y-116168794D01*
X70436112Y-116188647D01*
X70523056Y-116207128D01*
X70523061Y-116207128D01*
X70529513Y-116208500D01*
X70720487Y-116208500D01*
X70726939Y-116207128D01*
X70726944Y-116207128D01*
X70813888Y-116188647D01*
X70907288Y-116168794D01*
X71057704Y-116101825D01*
X71075722Y-116093803D01*
X71075724Y-116093802D01*
X71081752Y-116091118D01*
X71175939Y-116022687D01*
X71242807Y-115998828D01*
X71311958Y-116014909D01*
X71324061Y-116022687D01*
X71418248Y-116091118D01*
X71424276Y-116093802D01*
X71424278Y-116093803D01*
X71442296Y-116101825D01*
X71592712Y-116168794D01*
X71686112Y-116188647D01*
X71773056Y-116207128D01*
X71773061Y-116207128D01*
X71779513Y-116208500D01*
X71970487Y-116208500D01*
X71976939Y-116207128D01*
X71976944Y-116207128D01*
X72063888Y-116188647D01*
X72157288Y-116168794D01*
X72307704Y-116101825D01*
X72325722Y-116093803D01*
X72325724Y-116093802D01*
X72331752Y-116091118D01*
X72425939Y-116022687D01*
X72492807Y-115998828D01*
X72561958Y-116014909D01*
X72574061Y-116022687D01*
X72668248Y-116091118D01*
X72674276Y-116093802D01*
X72674278Y-116093803D01*
X72692296Y-116101825D01*
X72842712Y-116168794D01*
X72936112Y-116188647D01*
X73023056Y-116207128D01*
X73023061Y-116207128D01*
X73029513Y-116208500D01*
X73220487Y-116208500D01*
X73226939Y-116207128D01*
X73226944Y-116207128D01*
X73313888Y-116188647D01*
X73407288Y-116168794D01*
X73557704Y-116101825D01*
X73575722Y-116093803D01*
X73575724Y-116093802D01*
X73581752Y-116091118D01*
X73736253Y-115978866D01*
X73864040Y-115836944D01*
X73959527Y-115671556D01*
X74018542Y-115489928D01*
X74033500Y-115347610D01*
X74033500Y-114752390D01*
X74018542Y-114610072D01*
X73959527Y-114428444D01*
X73864040Y-114263056D01*
X73769898Y-114158500D01*
X73740675Y-114126045D01*
X73740674Y-114126044D01*
X73736253Y-114121134D01*
X73581752Y-114008882D01*
X73575724Y-114006198D01*
X73575722Y-114006197D01*
X73413319Y-113933891D01*
X73413318Y-113933891D01*
X73407288Y-113931206D01*
X73308068Y-113910116D01*
X73226944Y-113892872D01*
X73226939Y-113892872D01*
X73220487Y-113891500D01*
X73029513Y-113891500D01*
X73023061Y-113892872D01*
X73023056Y-113892872D01*
X72941932Y-113910116D01*
X72842712Y-113931206D01*
X72836682Y-113933891D01*
X72836681Y-113933891D01*
X72674278Y-114006197D01*
X72674276Y-114006198D01*
X72668248Y-114008882D01*
X72662907Y-114012762D01*
X72662906Y-114012763D01*
X72574061Y-114077313D01*
X72507193Y-114101172D01*
X72438042Y-114085091D01*
X72425939Y-114077313D01*
X72337094Y-114012763D01*
X72337093Y-114012762D01*
X72331752Y-114008882D01*
X72325724Y-114006198D01*
X72325722Y-114006197D01*
X72163319Y-113933891D01*
X72163318Y-113933891D01*
X72157288Y-113931206D01*
X72058068Y-113910116D01*
X71976944Y-113892872D01*
X71976939Y-113892872D01*
X71970487Y-113891500D01*
X71779513Y-113891500D01*
X71773061Y-113892872D01*
X71773056Y-113892872D01*
X71691932Y-113910116D01*
X71592712Y-113931206D01*
X71586682Y-113933891D01*
X71586681Y-113933891D01*
X71424278Y-114006197D01*
X71424276Y-114006198D01*
X71418248Y-114008882D01*
X71412907Y-114012762D01*
X71412906Y-114012763D01*
X71324061Y-114077313D01*
X71257193Y-114101172D01*
X71188042Y-114085091D01*
X71175939Y-114077313D01*
X71087094Y-114012763D01*
X71087093Y-114012762D01*
X71081752Y-114008882D01*
X71075724Y-114006198D01*
X71075722Y-114006197D01*
X70913319Y-113933891D01*
X70913318Y-113933891D01*
X70907288Y-113931206D01*
X70808068Y-113910116D01*
X70726944Y-113892872D01*
X70726939Y-113892872D01*
X70720487Y-113891500D01*
X70529513Y-113891500D01*
X70523061Y-113892872D01*
X70523056Y-113892872D01*
X70441932Y-113910116D01*
X70342712Y-113931206D01*
X70336682Y-113933891D01*
X70336681Y-113933891D01*
X70174278Y-114006197D01*
X70174276Y-114006198D01*
X70168248Y-114008882D01*
X70162907Y-114012762D01*
X70162906Y-114012763D01*
X70143911Y-114026564D01*
X70077044Y-114050422D01*
X70004578Y-114032404D01*
X69874988Y-113953921D01*
X69861243Y-113947715D01*
X69711356Y-113900744D01*
X69698306Y-113898131D01*
X69643414Y-113893087D01*
X69631876Y-113896475D01*
X69630671Y-113897865D01*
X69629000Y-113905548D01*
X69629000Y-116189884D01*
X69121000Y-116189884D01*
X69121000Y-115322115D01*
X69116525Y-115306876D01*
X69115135Y-115305671D01*
X69107452Y-115304000D01*
X68485116Y-115304000D01*
X68469877Y-115308475D01*
X68468672Y-115309865D01*
X68467001Y-115317548D01*
X68467001Y-115553705D01*
X64277425Y-115553705D01*
X64306750Y-115251911D01*
X64312449Y-115034293D01*
X64313289Y-115002234D01*
X64313289Y-115002220D01*
X64313347Y-115000000D01*
X64303455Y-114777885D01*
X68467000Y-114777885D01*
X68471475Y-114793124D01*
X68472865Y-114794329D01*
X68480548Y-114796000D01*
X69102885Y-114796000D01*
X69118124Y-114791525D01*
X69119329Y-114790135D01*
X69121000Y-114782452D01*
X69121000Y-113910116D01*
X69116525Y-113894877D01*
X69115135Y-113893672D01*
X69110706Y-113892709D01*
X69051685Y-113898132D01*
X69038649Y-113900743D01*
X68888757Y-113947715D01*
X68875012Y-113953921D01*
X68741426Y-114034824D01*
X68729557Y-114044131D01*
X68619131Y-114154557D01*
X68609824Y-114166426D01*
X68528921Y-114300012D01*
X68522715Y-114313757D01*
X68475744Y-114463644D01*
X68473131Y-114476694D01*
X68467266Y-114540521D01*
X68467000Y-114546309D01*
X68467000Y-114777885D01*
X64303455Y-114777885D01*
X64294291Y-114572121D01*
X64237275Y-114147630D01*
X64234735Y-114136402D01*
X64143368Y-113732618D01*
X64143368Y-113732617D01*
X64142750Y-113729887D01*
X64082197Y-113541852D01*
X64012318Y-113324856D01*
X64012316Y-113324849D01*
X64011463Y-113322202D01*
X63875028Y-113000000D01*
X85586496Y-113000000D01*
X85587186Y-113006565D01*
X85593500Y-113066635D01*
X85606458Y-113189928D01*
X85665473Y-113371556D01*
X85760960Y-113536944D01*
X85888747Y-113678866D01*
X86043248Y-113791118D01*
X86049276Y-113793802D01*
X86049278Y-113793803D01*
X86211681Y-113866109D01*
X86217712Y-113868794D01*
X86311112Y-113888647D01*
X86398056Y-113907128D01*
X86398061Y-113907128D01*
X86404513Y-113908500D01*
X86595487Y-113908500D01*
X86601939Y-113907128D01*
X86601944Y-113907128D01*
X86688888Y-113888647D01*
X86782288Y-113868794D01*
X86788319Y-113866109D01*
X86950722Y-113793803D01*
X86950724Y-113793802D01*
X86956752Y-113791118D01*
X87111253Y-113678866D01*
X87239040Y-113536944D01*
X87334527Y-113371556D01*
X87374023Y-113250000D01*
X88336496Y-113250000D01*
X88356458Y-113439928D01*
X88415473Y-113621556D01*
X88510960Y-113786944D01*
X88515378Y-113791851D01*
X88515379Y-113791852D01*
X88611073Y-113898131D01*
X88638747Y-113928866D01*
X88737843Y-114000864D01*
X88750000Y-114009696D01*
X88793248Y-114041118D01*
X88799276Y-114043802D01*
X88799278Y-114043803D01*
X88928132Y-114101172D01*
X88967712Y-114118794D01*
X89050551Y-114136402D01*
X89148056Y-114157128D01*
X89148061Y-114157128D01*
X89154513Y-114158500D01*
X89345487Y-114158500D01*
X89351939Y-114157128D01*
X89351944Y-114157128D01*
X89449449Y-114136402D01*
X89532288Y-114118794D01*
X89698752Y-114044680D01*
X89769118Y-114035246D01*
X89801247Y-114044680D01*
X89967712Y-114118794D01*
X90050551Y-114136402D01*
X90148056Y-114157128D01*
X90148061Y-114157128D01*
X90154513Y-114158500D01*
X90345487Y-114158500D01*
X90351939Y-114157128D01*
X90351944Y-114157128D01*
X90449449Y-114136402D01*
X90532288Y-114118794D01*
X90538315Y-114116111D01*
X90538323Y-114116108D01*
X90577186Y-114098805D01*
X90647553Y-114089371D01*
X90711850Y-114119478D01*
X90749663Y-114179567D01*
X90752831Y-114233948D01*
X90718552Y-114446768D01*
X90688302Y-114874001D01*
X90696151Y-115302233D01*
X90742036Y-115728071D01*
X90742582Y-115730817D01*
X90742583Y-115730822D01*
X90770809Y-115872721D01*
X90825594Y-116148144D01*
X90946163Y-116559127D01*
X90947190Y-116561740D01*
X90947190Y-116561741D01*
X91087856Y-116919757D01*
X91102789Y-116957765D01*
X91104044Y-116960276D01*
X91272161Y-117296731D01*
X91294231Y-117340901D01*
X91518974Y-117705502D01*
X91775239Y-118048682D01*
X91777100Y-118050760D01*
X91777101Y-118050761D01*
X92059127Y-118365637D01*
X92059133Y-118365643D01*
X92060995Y-118367722D01*
X92063046Y-118369638D01*
X92063047Y-118369639D01*
X92112306Y-118415654D01*
X92373981Y-118660098D01*
X92711719Y-118923493D01*
X93071533Y-119155822D01*
X93074012Y-119157126D01*
X93074015Y-119157128D01*
X93448077Y-119353932D01*
X93448083Y-119353935D01*
X93450577Y-119355247D01*
X93453175Y-119356331D01*
X93453179Y-119356333D01*
X93843263Y-119519109D01*
X93843268Y-119519111D01*
X93845847Y-119520187D01*
X93848512Y-119521030D01*
X93848518Y-119521032D01*
X94070561Y-119591254D01*
X94254214Y-119649336D01*
X94672446Y-119741673D01*
X94675220Y-119742031D01*
X94675221Y-119742031D01*
X95094460Y-119796109D01*
X95094467Y-119796110D01*
X95097230Y-119796466D01*
X95100017Y-119796576D01*
X95100023Y-119796576D01*
X95348238Y-119806328D01*
X95525203Y-119813281D01*
X95527995Y-119813142D01*
X95528000Y-119813142D01*
X95950172Y-119792125D01*
X95950181Y-119792124D01*
X95952976Y-119791985D01*
X95955753Y-119791597D01*
X95955755Y-119791597D01*
X96078847Y-119774407D01*
X96377163Y-119732747D01*
X96794404Y-119636036D01*
X97008307Y-119565915D01*
X97198744Y-119503487D01*
X97198750Y-119503485D01*
X97201397Y-119502617D01*
X97594918Y-119333547D01*
X97971852Y-119130164D01*
X98329214Y-118894080D01*
X98664175Y-118627162D01*
X98974082Y-118331525D01*
X98975919Y-118329431D01*
X98975927Y-118329422D01*
X99254635Y-118011616D01*
X99256482Y-118009510D01*
X99260825Y-118003566D01*
X99507490Y-117665923D01*
X99509139Y-117663666D01*
X99531046Y-117627279D01*
X99728601Y-117299142D01*
X99728606Y-117299133D01*
X99730052Y-117296731D01*
X99917471Y-116911611D01*
X100025763Y-116627279D01*
X100068918Y-116513971D01*
X100068920Y-116513964D01*
X100069914Y-116511355D01*
X100186173Y-116099132D01*
X100192284Y-116066635D01*
X100264811Y-115680954D01*
X100264813Y-115680942D01*
X100265327Y-115678207D01*
X100306750Y-115251911D01*
X100312449Y-115034293D01*
X100313289Y-115002234D01*
X100313289Y-115002220D01*
X100313347Y-115000000D01*
X100294291Y-114572121D01*
X100237275Y-114147630D01*
X100234735Y-114136402D01*
X100143368Y-113732618D01*
X100143368Y-113732617D01*
X100142750Y-113729887D01*
X100082197Y-113541852D01*
X100012318Y-113324856D01*
X100012316Y-113324849D01*
X100011463Y-113322202D01*
X99844456Y-112927801D01*
X99643050Y-112549807D01*
X99641516Y-112547458D01*
X99410381Y-112193573D01*
X99410378Y-112193569D01*
X99408840Y-112191214D01*
X99143680Y-111854860D01*
X98849670Y-111543409D01*
X98847579Y-111541556D01*
X98847571Y-111541548D01*
X98531237Y-111261188D01*
X98531235Y-111261186D01*
X98529137Y-111259327D01*
X98184621Y-111004863D01*
X97991733Y-110887355D01*
X97821237Y-110783487D01*
X97821230Y-110783483D01*
X97818848Y-110782032D01*
X97701514Y-110724169D01*
X97437228Y-110593838D01*
X97434714Y-110592598D01*
X97035262Y-110438062D01*
X96788678Y-110367122D01*
X96626335Y-110320417D01*
X96626329Y-110320415D01*
X96623654Y-110319646D01*
X96620917Y-110319117D01*
X96620911Y-110319115D01*
X96475828Y-110291046D01*
X96203148Y-110238289D01*
X96200374Y-110238005D01*
X96200362Y-110238003D01*
X95917111Y-110208982D01*
X95777076Y-110194634D01*
X95774286Y-110194597D01*
X95774278Y-110194597D01*
X95506825Y-110191096D01*
X95348809Y-110189028D01*
X95346009Y-110189241D01*
X95346008Y-110189241D01*
X95271364Y-110194919D01*
X94921740Y-110221514D01*
X94499249Y-110291836D01*
X94413671Y-110314048D01*
X94087400Y-110398731D01*
X94087389Y-110398734D01*
X94084682Y-110399437D01*
X93826575Y-110491599D01*
X93683964Y-110542520D01*
X93683959Y-110542522D01*
X93681321Y-110543464D01*
X93678781Y-110544635D01*
X93678776Y-110544637D01*
X93576930Y-110591589D01*
X93292361Y-110722777D01*
X92920880Y-110935957D01*
X92918577Y-110937566D01*
X92918570Y-110937571D01*
X92572129Y-111179701D01*
X92569820Y-111181315D01*
X92241961Y-111456909D01*
X91939899Y-111760557D01*
X91666025Y-112089855D01*
X91664431Y-112092162D01*
X91664429Y-112092164D01*
X91508862Y-112317251D01*
X91422508Y-112442194D01*
X91320163Y-112622721D01*
X91238884Y-112766088D01*
X91187887Y-112815483D01*
X91118281Y-112829467D01*
X91052165Y-112803598D01*
X91020154Y-112766947D01*
X90992341Y-112718774D01*
X90989040Y-112713056D01*
X90861253Y-112571134D01*
X90762157Y-112499136D01*
X90712094Y-112462763D01*
X90712093Y-112462762D01*
X90706752Y-112458882D01*
X90700724Y-112456198D01*
X90700722Y-112456197D01*
X90538319Y-112383891D01*
X90538318Y-112383891D01*
X90532288Y-112381206D01*
X90438887Y-112361353D01*
X90351944Y-112342872D01*
X90351939Y-112342872D01*
X90345487Y-112341500D01*
X90154513Y-112341500D01*
X90148061Y-112342872D01*
X90148056Y-112342872D01*
X90061113Y-112361353D01*
X89967712Y-112381206D01*
X89801248Y-112455320D01*
X89730882Y-112464754D01*
X89698753Y-112455320D01*
X89532288Y-112381206D01*
X89438887Y-112361353D01*
X89351944Y-112342872D01*
X89351939Y-112342872D01*
X89345487Y-112341500D01*
X89154513Y-112341500D01*
X89148061Y-112342872D01*
X89148056Y-112342872D01*
X89061113Y-112361353D01*
X88967712Y-112381206D01*
X88961682Y-112383891D01*
X88961681Y-112383891D01*
X88799278Y-112456197D01*
X88799276Y-112456198D01*
X88793248Y-112458882D01*
X88787907Y-112462762D01*
X88787906Y-112462763D01*
X88737843Y-112499136D01*
X88638747Y-112571134D01*
X88510960Y-112713056D01*
X88415473Y-112878444D01*
X88356458Y-113060072D01*
X88355768Y-113066633D01*
X88355768Y-113066635D01*
X88342810Y-113189928D01*
X88336496Y-113250000D01*
X87374023Y-113250000D01*
X87393542Y-113189928D01*
X87406501Y-113066635D01*
X87412814Y-113006565D01*
X87413504Y-113000000D01*
X87400127Y-112872721D01*
X87394232Y-112816635D01*
X87394232Y-112816633D01*
X87393542Y-112810072D01*
X87334527Y-112628444D01*
X87239040Y-112463056D01*
X87232075Y-112455320D01*
X87115675Y-112326045D01*
X87115674Y-112326044D01*
X87111253Y-112321134D01*
X86956752Y-112208882D01*
X86950724Y-112206198D01*
X86950722Y-112206197D01*
X86788319Y-112133891D01*
X86788318Y-112133891D01*
X86782288Y-112131206D01*
X86688888Y-112111353D01*
X86601944Y-112092872D01*
X86601939Y-112092872D01*
X86595487Y-112091500D01*
X86404513Y-112091500D01*
X86398061Y-112092872D01*
X86398056Y-112092872D01*
X86311113Y-112111353D01*
X86217712Y-112131206D01*
X86211682Y-112133891D01*
X86211681Y-112133891D01*
X86049278Y-112206197D01*
X86049276Y-112206198D01*
X86043248Y-112208882D01*
X85888747Y-112321134D01*
X85884326Y-112326044D01*
X85884325Y-112326045D01*
X85767926Y-112455320D01*
X85760960Y-112463056D01*
X85665473Y-112628444D01*
X85606458Y-112810072D01*
X85605768Y-112816633D01*
X85605768Y-112816635D01*
X85599873Y-112872721D01*
X85586496Y-113000000D01*
X63875028Y-113000000D01*
X63844456Y-112927801D01*
X63643050Y-112549807D01*
X63641516Y-112547458D01*
X63410381Y-112193573D01*
X63410378Y-112193569D01*
X63408840Y-112191214D01*
X63143680Y-111854860D01*
X62849670Y-111543409D01*
X62847579Y-111541556D01*
X62847571Y-111541548D01*
X62531237Y-111261188D01*
X62531235Y-111261186D01*
X62529137Y-111259327D01*
X62184621Y-111004863D01*
X61991733Y-110887355D01*
X61821237Y-110783487D01*
X61821230Y-110783483D01*
X61818848Y-110782032D01*
X61701514Y-110724169D01*
X61437228Y-110593838D01*
X61434714Y-110592598D01*
X61035262Y-110438062D01*
X60788678Y-110367122D01*
X60626335Y-110320417D01*
X60626329Y-110320415D01*
X60623654Y-110319646D01*
X60620917Y-110319117D01*
X60620911Y-110319115D01*
X60475828Y-110291046D01*
X60203148Y-110238289D01*
X60200374Y-110238005D01*
X60200362Y-110238003D01*
X59917111Y-110208982D01*
X59777076Y-110194634D01*
X59774286Y-110194597D01*
X59774278Y-110194597D01*
X59506825Y-110191096D01*
X59348809Y-110189028D01*
X59346009Y-110189241D01*
X59346008Y-110189241D01*
X59271364Y-110194919D01*
X58921740Y-110221514D01*
X58499249Y-110291836D01*
X58413671Y-110314048D01*
X58087400Y-110398731D01*
X58087389Y-110398734D01*
X58084682Y-110399437D01*
X57826575Y-110491599D01*
X57683964Y-110542520D01*
X57683959Y-110542522D01*
X57681321Y-110543464D01*
X57678781Y-110544635D01*
X57678776Y-110544637D01*
X57576930Y-110591589D01*
X57292361Y-110722777D01*
X56920880Y-110935957D01*
X56918577Y-110937566D01*
X56918570Y-110937571D01*
X56572129Y-111179701D01*
X56569820Y-111181315D01*
X56241961Y-111456909D01*
X55939899Y-111760557D01*
X55666025Y-112089855D01*
X55664431Y-112092162D01*
X55664429Y-112092164D01*
X55508862Y-112317251D01*
X55422508Y-112442194D01*
X55211276Y-112814786D01*
X55210117Y-112817335D01*
X55210115Y-112817339D01*
X55182332Y-112878444D01*
X55034002Y-113204680D01*
X55033080Y-113207306D01*
X55033075Y-113207318D01*
X54975399Y-113371556D01*
X54892089Y-113608790D01*
X54891398Y-113611510D01*
X54891397Y-113611514D01*
X54790479Y-114008882D01*
X54786661Y-114023914D01*
X54718552Y-114446768D01*
X54688302Y-114874001D01*
X54007625Y-114874001D01*
X53959216Y-108000000D01*
X66586496Y-108000000D01*
X66587186Y-108006565D01*
X66593500Y-108066635D01*
X66606458Y-108189928D01*
X66665473Y-108371556D01*
X66760960Y-108536944D01*
X66888747Y-108678866D01*
X67043248Y-108791118D01*
X67049276Y-108793802D01*
X67049278Y-108793803D01*
X67211681Y-108866109D01*
X67217712Y-108868794D01*
X67311113Y-108888647D01*
X67398056Y-108907128D01*
X67398061Y-108907128D01*
X67404513Y-108908500D01*
X67595487Y-108908500D01*
X67601939Y-108907128D01*
X67601944Y-108907128D01*
X67688887Y-108888647D01*
X67782288Y-108868794D01*
X67788319Y-108866109D01*
X67950722Y-108793803D01*
X67950724Y-108793802D01*
X67956752Y-108791118D01*
X68111253Y-108678866D01*
X68239040Y-108536944D01*
X68334527Y-108371556D01*
X68374023Y-108250000D01*
X74836496Y-108250000D01*
X74856458Y-108439928D01*
X74915473Y-108621556D01*
X75010960Y-108786944D01*
X75138747Y-108928866D01*
X75293248Y-109041118D01*
X75299276Y-109043802D01*
X75299278Y-109043803D01*
X75461681Y-109116109D01*
X75467712Y-109118794D01*
X75561112Y-109138647D01*
X75648056Y-109157128D01*
X75648061Y-109157128D01*
X75654513Y-109158500D01*
X75845487Y-109158500D01*
X75851939Y-109157128D01*
X75851944Y-109157128D01*
X75938888Y-109138647D01*
X76032288Y-109118794D01*
X76038319Y-109116109D01*
X76200722Y-109043803D01*
X76200724Y-109043802D01*
X76206752Y-109041118D01*
X76361253Y-108928866D01*
X76489040Y-108786944D01*
X76584527Y-108621556D01*
X76643542Y-108439928D01*
X76663504Y-108250000D01*
X76657190Y-108189928D01*
X76644232Y-108066635D01*
X76644232Y-108066633D01*
X76643542Y-108060072D01*
X76584527Y-107878444D01*
X76577406Y-107866109D01*
X76534109Y-107791118D01*
X76489040Y-107713056D01*
X76461752Y-107682749D01*
X76365675Y-107576045D01*
X76365674Y-107576044D01*
X76361253Y-107571134D01*
X76206752Y-107458882D01*
X76200724Y-107456198D01*
X76200722Y-107456197D01*
X76038319Y-107383891D01*
X76038318Y-107383891D01*
X76032288Y-107381206D01*
X75938888Y-107361353D01*
X75851944Y-107342872D01*
X75851939Y-107342872D01*
X75845487Y-107341500D01*
X75654513Y-107341500D01*
X75648061Y-107342872D01*
X75648056Y-107342872D01*
X75561113Y-107361353D01*
X75467712Y-107381206D01*
X75461682Y-107383891D01*
X75461681Y-107383891D01*
X75299278Y-107456197D01*
X75299276Y-107456198D01*
X75293248Y-107458882D01*
X75138747Y-107571134D01*
X75134326Y-107576044D01*
X75134325Y-107576045D01*
X75038249Y-107682749D01*
X75010960Y-107713056D01*
X74965891Y-107791118D01*
X74922595Y-107866109D01*
X74915473Y-107878444D01*
X74856458Y-108060072D01*
X74855768Y-108066633D01*
X74855768Y-108066635D01*
X74842810Y-108189928D01*
X74836496Y-108250000D01*
X68374023Y-108250000D01*
X68393542Y-108189928D01*
X68406501Y-108066635D01*
X68412814Y-108006565D01*
X68413504Y-108000000D01*
X68393542Y-107810072D01*
X68334527Y-107628444D01*
X68239040Y-107463056D01*
X68111253Y-107321134D01*
X67956752Y-107208882D01*
X67950724Y-107206198D01*
X67950722Y-107206197D01*
X67788319Y-107133891D01*
X67788318Y-107133891D01*
X67782288Y-107131206D01*
X67688888Y-107111353D01*
X67601944Y-107092872D01*
X67601939Y-107092872D01*
X67595487Y-107091500D01*
X67404513Y-107091500D01*
X67398061Y-107092872D01*
X67398056Y-107092872D01*
X67311112Y-107111353D01*
X67217712Y-107131206D01*
X67211682Y-107133891D01*
X67211681Y-107133891D01*
X67049278Y-107206197D01*
X67049276Y-107206198D01*
X67043248Y-107208882D01*
X66888747Y-107321134D01*
X66760960Y-107463056D01*
X66665473Y-107628444D01*
X66606458Y-107810072D01*
X66586496Y-108000000D01*
X53959216Y-108000000D01*
X53948653Y-106500000D01*
X69586496Y-106500000D01*
X69587186Y-106506565D01*
X69603011Y-106657128D01*
X69606458Y-106689928D01*
X69665473Y-106871556D01*
X69668776Y-106877278D01*
X69668777Y-106877279D01*
X69686803Y-106908500D01*
X69760960Y-107036944D01*
X69765378Y-107041851D01*
X69765379Y-107041852D01*
X69810082Y-107091500D01*
X69888747Y-107178866D01*
X70043248Y-107291118D01*
X70049276Y-107293802D01*
X70049278Y-107293803D01*
X70156408Y-107341500D01*
X70217712Y-107368794D01*
X70311113Y-107388647D01*
X70398056Y-107407128D01*
X70398061Y-107407128D01*
X70404513Y-107408500D01*
X70595487Y-107408500D01*
X70601939Y-107407128D01*
X70601944Y-107407128D01*
X70688887Y-107388647D01*
X70782288Y-107368794D01*
X70843592Y-107341500D01*
X70950722Y-107293803D01*
X70950724Y-107293802D01*
X70956752Y-107291118D01*
X71111253Y-107178866D01*
X71156364Y-107128765D01*
X71216810Y-107091525D01*
X71287793Y-107092877D01*
X71343636Y-107128765D01*
X71388747Y-107178866D01*
X71543248Y-107291118D01*
X71549276Y-107293802D01*
X71549278Y-107293803D01*
X71656408Y-107341500D01*
X71717712Y-107368794D01*
X71811113Y-107388647D01*
X71898056Y-107407128D01*
X71898061Y-107407128D01*
X71904513Y-107408500D01*
X72095487Y-107408500D01*
X72101939Y-107407128D01*
X72101944Y-107407128D01*
X72188887Y-107388647D01*
X72282288Y-107368794D01*
X72343592Y-107341500D01*
X72450722Y-107293803D01*
X72450724Y-107293802D01*
X72456752Y-107291118D01*
X72611253Y-107178866D01*
X72689918Y-107091500D01*
X72734621Y-107041852D01*
X72734622Y-107041851D01*
X72739040Y-107036944D01*
X72760370Y-107000000D01*
X90586496Y-107000000D01*
X90587186Y-107006565D01*
X90600030Y-107128765D01*
X90606458Y-107189928D01*
X90665473Y-107371556D01*
X90668776Y-107377278D01*
X90668777Y-107377279D01*
X90686803Y-107408500D01*
X90760960Y-107536944D01*
X90765378Y-107541851D01*
X90765379Y-107541852D01*
X90838194Y-107622721D01*
X90888747Y-107678866D01*
X91043248Y-107791118D01*
X91049276Y-107793802D01*
X91049278Y-107793803D01*
X91100560Y-107816635D01*
X91217712Y-107868794D01*
X91292680Y-107884729D01*
X91398056Y-107907128D01*
X91398061Y-107907128D01*
X91404513Y-107908500D01*
X91463428Y-107908500D01*
X91531549Y-107928502D01*
X91578042Y-107982158D01*
X91588738Y-108021329D01*
X91606458Y-108189928D01*
X91665473Y-108371556D01*
X91760960Y-108536944D01*
X91888747Y-108678866D01*
X92043248Y-108791118D01*
X92049276Y-108793802D01*
X92049278Y-108793803D01*
X92211681Y-108866109D01*
X92217712Y-108868794D01*
X92311113Y-108888647D01*
X92398056Y-108907128D01*
X92398061Y-108907128D01*
X92404513Y-108908500D01*
X92595487Y-108908500D01*
X92601939Y-108907128D01*
X92601944Y-108907128D01*
X92688887Y-108888647D01*
X92782288Y-108868794D01*
X92788319Y-108866109D01*
X92950722Y-108793803D01*
X92950724Y-108793802D01*
X92956752Y-108791118D01*
X93111253Y-108678866D01*
X93239040Y-108536944D01*
X93334527Y-108371556D01*
X93393542Y-108189928D01*
X93406501Y-108066635D01*
X93412814Y-108006565D01*
X93413504Y-108000000D01*
X93393542Y-107810072D01*
X93334527Y-107628444D01*
X93239040Y-107463056D01*
X93111253Y-107321134D01*
X92956752Y-107208882D01*
X92950724Y-107206198D01*
X92950722Y-107206197D01*
X92788319Y-107133891D01*
X92788318Y-107133891D01*
X92782288Y-107131206D01*
X92688888Y-107111353D01*
X92601944Y-107092872D01*
X92601939Y-107092872D01*
X92595487Y-107091500D01*
X92536572Y-107091500D01*
X92468451Y-107071498D01*
X92421958Y-107017842D01*
X92411262Y-106978670D01*
X92394232Y-106816635D01*
X92394232Y-106816633D01*
X92393542Y-106810072D01*
X92334527Y-106628444D01*
X92327406Y-106616109D01*
X92284109Y-106541118D01*
X92239040Y-106463056D01*
X92211752Y-106432749D01*
X92115675Y-106326045D01*
X92115674Y-106326044D01*
X92111253Y-106321134D01*
X91956752Y-106208882D01*
X91950724Y-106206198D01*
X91950722Y-106206197D01*
X91788319Y-106133891D01*
X91788318Y-106133891D01*
X91782288Y-106131206D01*
X91688888Y-106111353D01*
X91601944Y-106092872D01*
X91601939Y-106092872D01*
X91595487Y-106091500D01*
X91404513Y-106091500D01*
X91398061Y-106092872D01*
X91398056Y-106092872D01*
X91311113Y-106111353D01*
X91217712Y-106131206D01*
X91211682Y-106133891D01*
X91211681Y-106133891D01*
X91049278Y-106206197D01*
X91049276Y-106206198D01*
X91043248Y-106208882D01*
X90888747Y-106321134D01*
X90884326Y-106326044D01*
X90884325Y-106326045D01*
X90788249Y-106432749D01*
X90760960Y-106463056D01*
X90715891Y-106541118D01*
X90672595Y-106616109D01*
X90665473Y-106628444D01*
X90606458Y-106810072D01*
X90586496Y-107000000D01*
X72760370Y-107000000D01*
X72813197Y-106908500D01*
X72831223Y-106877279D01*
X72831224Y-106877278D01*
X72834527Y-106871556D01*
X72893542Y-106689928D01*
X72896990Y-106657128D01*
X72912814Y-106506565D01*
X72913504Y-106500000D01*
X72906028Y-106428866D01*
X72894232Y-106316635D01*
X72894232Y-106316633D01*
X72893542Y-106310072D01*
X72834527Y-106128444D01*
X72813990Y-106092872D01*
X72764160Y-106006565D01*
X72739040Y-105963056D01*
X72718216Y-105939928D01*
X72615675Y-105826045D01*
X72615674Y-105826044D01*
X72611253Y-105821134D01*
X72513346Y-105750000D01*
X77336496Y-105750000D01*
X77337186Y-105756565D01*
X77344489Y-105826045D01*
X77356458Y-105939928D01*
X77415473Y-106121556D01*
X77418776Y-106127278D01*
X77418777Y-106127279D01*
X77423078Y-106134729D01*
X77510960Y-106286944D01*
X77515378Y-106291851D01*
X77515379Y-106291852D01*
X77581486Y-106365271D01*
X77638747Y-106428866D01*
X77793248Y-106541118D01*
X77799276Y-106543802D01*
X77799278Y-106543803D01*
X77961681Y-106616109D01*
X77967712Y-106618794D01*
X78042680Y-106634729D01*
X78148056Y-106657128D01*
X78148061Y-106657128D01*
X78154513Y-106658500D01*
X78345487Y-106658500D01*
X78351939Y-106657128D01*
X78351944Y-106657128D01*
X78457320Y-106634729D01*
X78532288Y-106618794D01*
X78538319Y-106616109D01*
X78700722Y-106543803D01*
X78700724Y-106543802D01*
X78706752Y-106541118D01*
X78861253Y-106428866D01*
X78918514Y-106365271D01*
X78984621Y-106291852D01*
X78984622Y-106291851D01*
X78989040Y-106286944D01*
X79076922Y-106134729D01*
X79081223Y-106127279D01*
X79081224Y-106127278D01*
X79084527Y-106121556D01*
X79143542Y-105939928D01*
X79155512Y-105826045D01*
X79162814Y-105756565D01*
X79163504Y-105750000D01*
X79157190Y-105689928D01*
X79144232Y-105566635D01*
X79144232Y-105566633D01*
X79143542Y-105560072D01*
X79124023Y-105500000D01*
X82086496Y-105500000D01*
X82087186Y-105506565D01*
X82093500Y-105566635D01*
X82106458Y-105689928D01*
X82165473Y-105871556D01*
X82260960Y-106036944D01*
X82388747Y-106178866D01*
X82543248Y-106291118D01*
X82549276Y-106293802D01*
X82549278Y-106293803D01*
X82709799Y-106365271D01*
X82717712Y-106368794D01*
X82811113Y-106388647D01*
X82898056Y-106407128D01*
X82898061Y-106407128D01*
X82904513Y-106408500D01*
X83095487Y-106408500D01*
X83101939Y-106407128D01*
X83101944Y-106407128D01*
X83188887Y-106388647D01*
X83282288Y-106368794D01*
X83290201Y-106365271D01*
X83450722Y-106293803D01*
X83450724Y-106293802D01*
X83456752Y-106291118D01*
X83611253Y-106178866D01*
X83739040Y-106036944D01*
X83760370Y-106000000D01*
X88586496Y-106000000D01*
X88606458Y-106189928D01*
X88665473Y-106371556D01*
X88668776Y-106377278D01*
X88668777Y-106377279D01*
X88686803Y-106408500D01*
X88760960Y-106536944D01*
X88888747Y-106678866D01*
X89043248Y-106791118D01*
X89049276Y-106793802D01*
X89049278Y-106793803D01*
X89100560Y-106816635D01*
X89217712Y-106868794D01*
X89311113Y-106888647D01*
X89398056Y-106907128D01*
X89398061Y-106907128D01*
X89404513Y-106908500D01*
X89595487Y-106908500D01*
X89601939Y-106907128D01*
X89601944Y-106907128D01*
X89688887Y-106888647D01*
X89782288Y-106868794D01*
X89899440Y-106816635D01*
X89950722Y-106793803D01*
X89950724Y-106793802D01*
X89956752Y-106791118D01*
X90111253Y-106678866D01*
X90239040Y-106536944D01*
X90313197Y-106408500D01*
X90331223Y-106377279D01*
X90331224Y-106377278D01*
X90334527Y-106371556D01*
X90393542Y-106189928D01*
X90413504Y-106000000D01*
X90407190Y-105939928D01*
X90394232Y-105816635D01*
X90394232Y-105816633D01*
X90393542Y-105810072D01*
X90334527Y-105628444D01*
X90313198Y-105591500D01*
X90296743Y-105563000D01*
X90280005Y-105494005D01*
X90296743Y-105437000D01*
X90331223Y-105377279D01*
X90331224Y-105377278D01*
X90334527Y-105371556D01*
X90393542Y-105189928D01*
X90394242Y-105183273D01*
X90412814Y-105006565D01*
X90413504Y-105000000D01*
X90406028Y-104928866D01*
X90394232Y-104816635D01*
X90394232Y-104816633D01*
X90393542Y-104810072D01*
X90334527Y-104628444D01*
X90313990Y-104592872D01*
X90295193Y-104560316D01*
X90239040Y-104463056D01*
X90218216Y-104439928D01*
X90115675Y-104326045D01*
X90115674Y-104326044D01*
X90111253Y-104321134D01*
X89956752Y-104208882D01*
X89950724Y-104206198D01*
X89950722Y-104206197D01*
X89788319Y-104133891D01*
X89788318Y-104133891D01*
X89782288Y-104131206D01*
X89688887Y-104111353D01*
X89601944Y-104092872D01*
X89601939Y-104092872D01*
X89595487Y-104091500D01*
X89404513Y-104091500D01*
X89398061Y-104092872D01*
X89398056Y-104092872D01*
X89311113Y-104111353D01*
X89217712Y-104131206D01*
X89211682Y-104133891D01*
X89211681Y-104133891D01*
X89049278Y-104206197D01*
X89049276Y-104206198D01*
X89043248Y-104208882D01*
X88888747Y-104321134D01*
X88884326Y-104326044D01*
X88884325Y-104326045D01*
X88781785Y-104439928D01*
X88760960Y-104463056D01*
X88704807Y-104560316D01*
X88686011Y-104592872D01*
X88665473Y-104628444D01*
X88606458Y-104810072D01*
X88605768Y-104816633D01*
X88605768Y-104816635D01*
X88593972Y-104928866D01*
X88586496Y-105000000D01*
X88587186Y-105006565D01*
X88605759Y-105183273D01*
X88606458Y-105189928D01*
X88665473Y-105371556D01*
X88668776Y-105377278D01*
X88668777Y-105377279D01*
X88703257Y-105437000D01*
X88719995Y-105505995D01*
X88703257Y-105563000D01*
X88686803Y-105591500D01*
X88665473Y-105628444D01*
X88606458Y-105810072D01*
X88605768Y-105816633D01*
X88605768Y-105816635D01*
X88592810Y-105939928D01*
X88586496Y-106000000D01*
X83760370Y-106000000D01*
X83834527Y-105871556D01*
X83893542Y-105689928D01*
X83906501Y-105566635D01*
X83912814Y-105506565D01*
X83913504Y-105500000D01*
X83893542Y-105310072D01*
X83893117Y-105308763D01*
X83898372Y-105239905D01*
X83941189Y-105183273D01*
X84007827Y-105158780D01*
X84016216Y-105158500D01*
X84095487Y-105158500D01*
X84101939Y-105157128D01*
X84101944Y-105157128D01*
X84207320Y-105134729D01*
X84282288Y-105118794D01*
X84288319Y-105116109D01*
X84450722Y-105043803D01*
X84450724Y-105043802D01*
X84456752Y-105041118D01*
X84611253Y-104928866D01*
X84689918Y-104841500D01*
X84734621Y-104791852D01*
X84734622Y-104791851D01*
X84739040Y-104786944D01*
X84826922Y-104634729D01*
X84831223Y-104627279D01*
X84831224Y-104627278D01*
X84834527Y-104621556D01*
X84893542Y-104439928D01*
X84905512Y-104326045D01*
X84912814Y-104256565D01*
X84913504Y-104250000D01*
X84907190Y-104189928D01*
X84894232Y-104066635D01*
X84894232Y-104066633D01*
X84893542Y-104060072D01*
X84834527Y-103878444D01*
X84827406Y-103866109D01*
X84784109Y-103791118D01*
X84739040Y-103713056D01*
X84711752Y-103682749D01*
X84615675Y-103576045D01*
X84615674Y-103576044D01*
X84611253Y-103571134D01*
X84456752Y-103458882D01*
X84450724Y-103456198D01*
X84450722Y-103456197D01*
X84288319Y-103383891D01*
X84288318Y-103383891D01*
X84282288Y-103381206D01*
X84188888Y-103361353D01*
X84101944Y-103342872D01*
X84101939Y-103342872D01*
X84095487Y-103341500D01*
X83904513Y-103341500D01*
X83898061Y-103342872D01*
X83898056Y-103342872D01*
X83811112Y-103361353D01*
X83717712Y-103381206D01*
X83711682Y-103383891D01*
X83711681Y-103383891D01*
X83549278Y-103456197D01*
X83549276Y-103456198D01*
X83543248Y-103458882D01*
X83388747Y-103571134D01*
X83384326Y-103576044D01*
X83384325Y-103576045D01*
X83288249Y-103682749D01*
X83260960Y-103713056D01*
X83215891Y-103791118D01*
X83172595Y-103866109D01*
X83165473Y-103878444D01*
X83106458Y-104060072D01*
X83105768Y-104066633D01*
X83105768Y-104066635D01*
X83092810Y-104189928D01*
X83086496Y-104250000D01*
X83106458Y-104439928D01*
X83106883Y-104441237D01*
X83101628Y-104510095D01*
X83058811Y-104566727D01*
X82992173Y-104591220D01*
X82983784Y-104591500D01*
X82904513Y-104591500D01*
X82898061Y-104592872D01*
X82898056Y-104592872D01*
X82811112Y-104611353D01*
X82717712Y-104631206D01*
X82711682Y-104633891D01*
X82711681Y-104633891D01*
X82549278Y-104706197D01*
X82549276Y-104706198D01*
X82543248Y-104708882D01*
X82388747Y-104821134D01*
X82384326Y-104826044D01*
X82384325Y-104826045D01*
X82288249Y-104932749D01*
X82260960Y-104963056D01*
X82215891Y-105041118D01*
X82172595Y-105116109D01*
X82165473Y-105128444D01*
X82106458Y-105310072D01*
X82086496Y-105500000D01*
X79124023Y-105500000D01*
X79084527Y-105378444D01*
X78989040Y-105213056D01*
X78968216Y-105189928D01*
X78865675Y-105076045D01*
X78865674Y-105076044D01*
X78861253Y-105071134D01*
X78706752Y-104958882D01*
X78700724Y-104956198D01*
X78700722Y-104956197D01*
X78538319Y-104883891D01*
X78538318Y-104883891D01*
X78532288Y-104881206D01*
X78438887Y-104861353D01*
X78351944Y-104842872D01*
X78351939Y-104842872D01*
X78345487Y-104841500D01*
X78154513Y-104841500D01*
X78148061Y-104842872D01*
X78148056Y-104842872D01*
X78061113Y-104861353D01*
X77967712Y-104881206D01*
X77961682Y-104883891D01*
X77961681Y-104883891D01*
X77799278Y-104956197D01*
X77799276Y-104956198D01*
X77793248Y-104958882D01*
X77638747Y-105071134D01*
X77634326Y-105076044D01*
X77634325Y-105076045D01*
X77531785Y-105189928D01*
X77510960Y-105213056D01*
X77415473Y-105378444D01*
X77356458Y-105560072D01*
X77355768Y-105566633D01*
X77355768Y-105566635D01*
X77342810Y-105689928D01*
X77336496Y-105750000D01*
X72513346Y-105750000D01*
X72456752Y-105708882D01*
X72450724Y-105706198D01*
X72450722Y-105706197D01*
X72288319Y-105633891D01*
X72288318Y-105633891D01*
X72282288Y-105631206D01*
X72188887Y-105611353D01*
X72101944Y-105592872D01*
X72101939Y-105592872D01*
X72095487Y-105591500D01*
X71904513Y-105591500D01*
X71898061Y-105592872D01*
X71898056Y-105592872D01*
X71811112Y-105611353D01*
X71717712Y-105631206D01*
X71711682Y-105633891D01*
X71711681Y-105633891D01*
X71549278Y-105706197D01*
X71549276Y-105706198D01*
X71543248Y-105708882D01*
X71388747Y-105821134D01*
X71384326Y-105826044D01*
X71384325Y-105826045D01*
X71343636Y-105871235D01*
X71283190Y-105908475D01*
X71212207Y-105907123D01*
X71156364Y-105871235D01*
X71115675Y-105826045D01*
X71115674Y-105826044D01*
X71111253Y-105821134D01*
X70956752Y-105708882D01*
X70950724Y-105706198D01*
X70950722Y-105706197D01*
X70788319Y-105633891D01*
X70788318Y-105633891D01*
X70782288Y-105631206D01*
X70688887Y-105611353D01*
X70601944Y-105592872D01*
X70601939Y-105592872D01*
X70595487Y-105591500D01*
X70404513Y-105591500D01*
X70398061Y-105592872D01*
X70398056Y-105592872D01*
X70311112Y-105611353D01*
X70217712Y-105631206D01*
X70211682Y-105633891D01*
X70211681Y-105633891D01*
X70049278Y-105706197D01*
X70049276Y-105706198D01*
X70043248Y-105708882D01*
X69888747Y-105821134D01*
X69884326Y-105826044D01*
X69884325Y-105826045D01*
X69781785Y-105939928D01*
X69760960Y-105963056D01*
X69735840Y-106006565D01*
X69686011Y-106092872D01*
X69665473Y-106128444D01*
X69606458Y-106310072D01*
X69605768Y-106316633D01*
X69605768Y-106316635D01*
X69593972Y-106428866D01*
X69586496Y-106500000D01*
X53948653Y-106500000D01*
X53945988Y-106121556D01*
X53931048Y-104000000D01*
X61586496Y-104000000D01*
X61587186Y-104006565D01*
X61593500Y-104066635D01*
X61606458Y-104189928D01*
X61665473Y-104371556D01*
X61760960Y-104536944D01*
X61765378Y-104541851D01*
X61765379Y-104541852D01*
X61782004Y-104560316D01*
X61888747Y-104678866D01*
X62043248Y-104791118D01*
X62049276Y-104793802D01*
X62049278Y-104793803D01*
X62156408Y-104841500D01*
X62217712Y-104868794D01*
X62311112Y-104888647D01*
X62398056Y-104907128D01*
X62398061Y-104907128D01*
X62404513Y-104908500D01*
X62595487Y-104908500D01*
X62601939Y-104907128D01*
X62601944Y-104907128D01*
X62688888Y-104888647D01*
X62782288Y-104868794D01*
X62843592Y-104841500D01*
X62950722Y-104793803D01*
X62950724Y-104793802D01*
X62956752Y-104791118D01*
X63111253Y-104678866D01*
X63217996Y-104560316D01*
X63234621Y-104541852D01*
X63234622Y-104541851D01*
X63239040Y-104536944D01*
X63334527Y-104371556D01*
X63393542Y-104189928D01*
X63406501Y-104066635D01*
X63412814Y-104006565D01*
X63413504Y-104000000D01*
X63393542Y-103810072D01*
X63334527Y-103628444D01*
X63239040Y-103463056D01*
X63111253Y-103321134D01*
X62956752Y-103208882D01*
X62950724Y-103206198D01*
X62950722Y-103206197D01*
X62788319Y-103133891D01*
X62788318Y-103133891D01*
X62782288Y-103131206D01*
X62688888Y-103111353D01*
X62601944Y-103092872D01*
X62601939Y-103092872D01*
X62595487Y-103091500D01*
X62404513Y-103091500D01*
X62398061Y-103092872D01*
X62398056Y-103092872D01*
X62311112Y-103111353D01*
X62217712Y-103131206D01*
X62211682Y-103133891D01*
X62211681Y-103133891D01*
X62049278Y-103206197D01*
X62049276Y-103206198D01*
X62043248Y-103208882D01*
X61888747Y-103321134D01*
X61760960Y-103463056D01*
X61665473Y-103628444D01*
X61606458Y-103810072D01*
X61586496Y-104000000D01*
X53931048Y-104000000D01*
X53924006Y-103000000D01*
X71086496Y-103000000D01*
X71106458Y-103189928D01*
X71165473Y-103371556D01*
X71168776Y-103377278D01*
X71168777Y-103377279D01*
X71186803Y-103408500D01*
X71260960Y-103536944D01*
X71265378Y-103541851D01*
X71265379Y-103541852D01*
X71338194Y-103622721D01*
X71388747Y-103678866D01*
X71543248Y-103791118D01*
X71549276Y-103793802D01*
X71549278Y-103793803D01*
X71600560Y-103816635D01*
X71717712Y-103868794D01*
X71792680Y-103884729D01*
X71898056Y-103907128D01*
X71898061Y-103907128D01*
X71904513Y-103908500D01*
X72095487Y-103908500D01*
X72101939Y-103907128D01*
X72101944Y-103907128D01*
X72207320Y-103884729D01*
X72282288Y-103868794D01*
X72399440Y-103816635D01*
X72450722Y-103793803D01*
X72450724Y-103793802D01*
X72456752Y-103791118D01*
X72611253Y-103678866D01*
X72661806Y-103622721D01*
X72734621Y-103541852D01*
X72734622Y-103541851D01*
X72739040Y-103536944D01*
X72813197Y-103408500D01*
X72831223Y-103377279D01*
X72831224Y-103377278D01*
X72834527Y-103371556D01*
X72893542Y-103189928D01*
X72913504Y-103000000D01*
X72893542Y-102810072D01*
X72834527Y-102628444D01*
X72739040Y-102463056D01*
X72611253Y-102321134D01*
X72456752Y-102208882D01*
X72450724Y-102206198D01*
X72450722Y-102206197D01*
X72288319Y-102133891D01*
X72288318Y-102133891D01*
X72282288Y-102131206D01*
X72188887Y-102111353D01*
X72101944Y-102092872D01*
X72101939Y-102092872D01*
X72095487Y-102091500D01*
X71904513Y-102091500D01*
X71898061Y-102092872D01*
X71898056Y-102092872D01*
X71811112Y-102111353D01*
X71717712Y-102131206D01*
X71711682Y-102133891D01*
X71711681Y-102133891D01*
X71549278Y-102206197D01*
X71549276Y-102206198D01*
X71543248Y-102208882D01*
X71388747Y-102321134D01*
X71260960Y-102463056D01*
X71165473Y-102628444D01*
X71106458Y-102810072D01*
X71086496Y-103000000D01*
X53924006Y-103000000D01*
X53916964Y-102000000D01*
X73586496Y-102000000D01*
X73587186Y-102006565D01*
X73603011Y-102157128D01*
X73606458Y-102189928D01*
X73665473Y-102371556D01*
X73760960Y-102536944D01*
X73888747Y-102678866D01*
X74043248Y-102791118D01*
X74049276Y-102793802D01*
X74049278Y-102793803D01*
X74100560Y-102816635D01*
X74217712Y-102868794D01*
X74311112Y-102888647D01*
X74398056Y-102907128D01*
X74398061Y-102907128D01*
X74404513Y-102908500D01*
X74595487Y-102908500D01*
X74601939Y-102907128D01*
X74601944Y-102907128D01*
X74688887Y-102888647D01*
X74782288Y-102868794D01*
X74899440Y-102816635D01*
X74950722Y-102793803D01*
X74950724Y-102793802D01*
X74956752Y-102791118D01*
X75111253Y-102678866D01*
X75239040Y-102536944D01*
X75260370Y-102500000D01*
X79586496Y-102500000D01*
X79606458Y-102689928D01*
X79665473Y-102871556D01*
X79668776Y-102877278D01*
X79668777Y-102877279D01*
X79686803Y-102908500D01*
X79760960Y-103036944D01*
X79888747Y-103178866D01*
X80043248Y-103291118D01*
X80049276Y-103293802D01*
X80049278Y-103293803D01*
X80156408Y-103341500D01*
X80217712Y-103368794D01*
X80311113Y-103388647D01*
X80398056Y-103407128D01*
X80398061Y-103407128D01*
X80404513Y-103408500D01*
X80595487Y-103408500D01*
X80601939Y-103407128D01*
X80601944Y-103407128D01*
X80688888Y-103388647D01*
X80782288Y-103368794D01*
X80843592Y-103341500D01*
X80950722Y-103293803D01*
X80950724Y-103293802D01*
X80956752Y-103291118D01*
X81111253Y-103178866D01*
X81239040Y-103036944D01*
X81313197Y-102908500D01*
X81331223Y-102877279D01*
X81331224Y-102877278D01*
X81334527Y-102871556D01*
X81393542Y-102689928D01*
X81413504Y-102500000D01*
X81393542Y-102310072D01*
X81334527Y-102128444D01*
X81327406Y-102116109D01*
X81296743Y-102063000D01*
X81280005Y-101994005D01*
X81296743Y-101937000D01*
X81331223Y-101877279D01*
X81331224Y-101877278D01*
X81334527Y-101871556D01*
X81393542Y-101689928D01*
X81411245Y-101521498D01*
X81412814Y-101506565D01*
X81413504Y-101500000D01*
X81407190Y-101439928D01*
X81394232Y-101316635D01*
X81394232Y-101316633D01*
X81393542Y-101310072D01*
X81334527Y-101128444D01*
X81313990Y-101092872D01*
X81242341Y-100968774D01*
X81239040Y-100963056D01*
X81194305Y-100913372D01*
X81115675Y-100826045D01*
X81115674Y-100826044D01*
X81111253Y-100821134D01*
X80956752Y-100708882D01*
X80950724Y-100706198D01*
X80950722Y-100706197D01*
X80788319Y-100633891D01*
X80788318Y-100633891D01*
X80782288Y-100631206D01*
X80688888Y-100611353D01*
X80601944Y-100592872D01*
X80601939Y-100592872D01*
X80595487Y-100591500D01*
X80404513Y-100591500D01*
X80398061Y-100592872D01*
X80398056Y-100592872D01*
X80311113Y-100611353D01*
X80217712Y-100631206D01*
X80211682Y-100633891D01*
X80211681Y-100633891D01*
X80049278Y-100706197D01*
X80049276Y-100706198D01*
X80043248Y-100708882D01*
X79888747Y-100821134D01*
X79884326Y-100826044D01*
X79884325Y-100826045D01*
X79805696Y-100913372D01*
X79760960Y-100963056D01*
X79757659Y-100968774D01*
X79686011Y-101092872D01*
X79665473Y-101128444D01*
X79606458Y-101310072D01*
X79605768Y-101316633D01*
X79605768Y-101316635D01*
X79592810Y-101439928D01*
X79586496Y-101500000D01*
X79587186Y-101506565D01*
X79588756Y-101521498D01*
X79606458Y-101689928D01*
X79665473Y-101871556D01*
X79668776Y-101877278D01*
X79668777Y-101877279D01*
X79703257Y-101937000D01*
X79719995Y-102005995D01*
X79703257Y-102063000D01*
X79672595Y-102116109D01*
X79665473Y-102128444D01*
X79606458Y-102310072D01*
X79586496Y-102500000D01*
X75260370Y-102500000D01*
X75334527Y-102371556D01*
X75393542Y-102189928D01*
X75396990Y-102157128D01*
X75412814Y-102006565D01*
X75413504Y-102000000D01*
X75406028Y-101928866D01*
X75394232Y-101816635D01*
X75394232Y-101816633D01*
X75393542Y-101810072D01*
X75334527Y-101628444D01*
X75239040Y-101463056D01*
X75229336Y-101452278D01*
X75115675Y-101326045D01*
X75115674Y-101326044D01*
X75111253Y-101321134D01*
X74956752Y-101208882D01*
X74950724Y-101206198D01*
X74950722Y-101206197D01*
X74788319Y-101133891D01*
X74788318Y-101133891D01*
X74782288Y-101131206D01*
X74688888Y-101111353D01*
X74601944Y-101092872D01*
X74601939Y-101092872D01*
X74595487Y-101091500D01*
X74404513Y-101091500D01*
X74398061Y-101092872D01*
X74398056Y-101092872D01*
X74311112Y-101111353D01*
X74217712Y-101131206D01*
X74211682Y-101133891D01*
X74211681Y-101133891D01*
X74049278Y-101206197D01*
X74049276Y-101206198D01*
X74043248Y-101208882D01*
X73888747Y-101321134D01*
X73884326Y-101326044D01*
X73884325Y-101326045D01*
X73770665Y-101452278D01*
X73760960Y-101463056D01*
X73665473Y-101628444D01*
X73606458Y-101810072D01*
X73605768Y-101816633D01*
X73605768Y-101816635D01*
X73593972Y-101928866D01*
X73586496Y-102000000D01*
X53916964Y-102000000D01*
X53897597Y-99250000D01*
X56086496Y-99250000D01*
X56087186Y-99256565D01*
X56094489Y-99326045D01*
X56106458Y-99439928D01*
X56165473Y-99621556D01*
X56260960Y-99786944D01*
X56265378Y-99791851D01*
X56265379Y-99791852D01*
X56287694Y-99816635D01*
X56388747Y-99928866D01*
X56543248Y-100041118D01*
X56549276Y-100043802D01*
X56549278Y-100043803D01*
X56709799Y-100115271D01*
X56717712Y-100118794D01*
X56811113Y-100138647D01*
X56898056Y-100157128D01*
X56898061Y-100157128D01*
X56904513Y-100158500D01*
X57095487Y-100158500D01*
X57101939Y-100157128D01*
X57101944Y-100157128D01*
X57188887Y-100138647D01*
X57282288Y-100118794D01*
X57290201Y-100115271D01*
X57450722Y-100043803D01*
X57450724Y-100043802D01*
X57456752Y-100041118D01*
X57611253Y-99928866D01*
X57712306Y-99816635D01*
X57734621Y-99791852D01*
X57734622Y-99791851D01*
X57739040Y-99786944D01*
X57760370Y-99750000D01*
X61086496Y-99750000D01*
X61087186Y-99756565D01*
X61093500Y-99816635D01*
X61106458Y-99939928D01*
X61165473Y-100121556D01*
X61168776Y-100127278D01*
X61168777Y-100127279D01*
X61186803Y-100158500D01*
X61260960Y-100286944D01*
X61265378Y-100291851D01*
X61265379Y-100291852D01*
X61308955Y-100340248D01*
X61388747Y-100428866D01*
X61543248Y-100541118D01*
X61549276Y-100543802D01*
X61549278Y-100543803D01*
X61656408Y-100591500D01*
X61717712Y-100618794D01*
X61811113Y-100638647D01*
X61898056Y-100657128D01*
X61898061Y-100657128D01*
X61904513Y-100658500D01*
X62095487Y-100658500D01*
X62101939Y-100657128D01*
X62101944Y-100657128D01*
X62188887Y-100638647D01*
X62282288Y-100618794D01*
X62343592Y-100591500D01*
X62450722Y-100543803D01*
X62450724Y-100543802D01*
X62456752Y-100541118D01*
X62550939Y-100472687D01*
X62617807Y-100448828D01*
X62686958Y-100464909D01*
X62699061Y-100472687D01*
X62793248Y-100541118D01*
X62799276Y-100543802D01*
X62799278Y-100543803D01*
X62906408Y-100591500D01*
X62967712Y-100618794D01*
X63061113Y-100638647D01*
X63148056Y-100657128D01*
X63148061Y-100657128D01*
X63154513Y-100658500D01*
X63345487Y-100658500D01*
X63351939Y-100657128D01*
X63351944Y-100657128D01*
X63438887Y-100638647D01*
X63532288Y-100618794D01*
X63593592Y-100591500D01*
X63700722Y-100543803D01*
X63700724Y-100543802D01*
X63706752Y-100541118D01*
X63861253Y-100428866D01*
X63941045Y-100340248D01*
X63984621Y-100291852D01*
X63984622Y-100291851D01*
X63989040Y-100286944D01*
X64063197Y-100158500D01*
X64081223Y-100127279D01*
X64081224Y-100127278D01*
X64084527Y-100121556D01*
X64124023Y-100000000D01*
X88836496Y-100000000D01*
X88837186Y-100006565D01*
X88853011Y-100157128D01*
X88856458Y-100189928D01*
X88915473Y-100371556D01*
X88918776Y-100377278D01*
X88918777Y-100377279D01*
X88939746Y-100413598D01*
X89010960Y-100536944D01*
X89015378Y-100541851D01*
X89015379Y-100541852D01*
X89060082Y-100591500D01*
X89138747Y-100678866D01*
X89237843Y-100750864D01*
X89284273Y-100784597D01*
X89293248Y-100791118D01*
X89299276Y-100793802D01*
X89299278Y-100793803D01*
X89461681Y-100866109D01*
X89467712Y-100868794D01*
X89474167Y-100870166D01*
X89474176Y-100870169D01*
X89518752Y-100879644D01*
X89581225Y-100913372D01*
X89615546Y-100975522D01*
X89612386Y-101041827D01*
X89606458Y-101060072D01*
X89605768Y-101066633D01*
X89605768Y-101066635D01*
X89598787Y-101133054D01*
X89586496Y-101250000D01*
X89587186Y-101256565D01*
X89594489Y-101326045D01*
X89606458Y-101439928D01*
X89665473Y-101621556D01*
X89760960Y-101786944D01*
X89765378Y-101791851D01*
X89765379Y-101791852D01*
X89783253Y-101811703D01*
X89888747Y-101928866D01*
X89977618Y-101993435D01*
X89994906Y-102005995D01*
X90043248Y-102041118D01*
X90049276Y-102043802D01*
X90049278Y-102043803D01*
X90156408Y-102091500D01*
X90217712Y-102118794D01*
X90292680Y-102134729D01*
X90398056Y-102157128D01*
X90398061Y-102157128D01*
X90404513Y-102158500D01*
X90595487Y-102158500D01*
X90601939Y-102157128D01*
X90601944Y-102157128D01*
X90707320Y-102134729D01*
X90782288Y-102118794D01*
X90843592Y-102091500D01*
X90950722Y-102043803D01*
X90950724Y-102043802D01*
X90956752Y-102041118D01*
X91005095Y-102005995D01*
X91022382Y-101993435D01*
X91111253Y-101928866D01*
X91216747Y-101811703D01*
X91234621Y-101791852D01*
X91234622Y-101791851D01*
X91239040Y-101786944D01*
X91334527Y-101621556D01*
X91393542Y-101439928D01*
X91405512Y-101326045D01*
X91412814Y-101256565D01*
X91413504Y-101250000D01*
X91401213Y-101133054D01*
X91394232Y-101066635D01*
X91394232Y-101066633D01*
X91393542Y-101060072D01*
X91334527Y-100878444D01*
X91329750Y-100870169D01*
X91284109Y-100791118D01*
X91239040Y-100713056D01*
X91211752Y-100682749D01*
X91115675Y-100576045D01*
X91115674Y-100576044D01*
X91111253Y-100571134D01*
X90975753Y-100472687D01*
X90962094Y-100462763D01*
X90962093Y-100462762D01*
X90956752Y-100458882D01*
X90950724Y-100456198D01*
X90950722Y-100456197D01*
X90788319Y-100383891D01*
X90788318Y-100383891D01*
X90782288Y-100381206D01*
X90775833Y-100379834D01*
X90775824Y-100379831D01*
X90731248Y-100370356D01*
X90668775Y-100336628D01*
X90634454Y-100274478D01*
X90637614Y-100208171D01*
X90641503Y-100196204D01*
X90641503Y-100196202D01*
X90643542Y-100189928D01*
X90646990Y-100157128D01*
X90662814Y-100006565D01*
X90663504Y-100000000D01*
X90657190Y-99939928D01*
X90644232Y-99816635D01*
X90644232Y-99816633D01*
X90643542Y-99810072D01*
X90609451Y-99705151D01*
X93587296Y-99705151D01*
X93587520Y-99709817D01*
X93587520Y-99709822D01*
X93590950Y-99781226D01*
X93599480Y-99958798D01*
X93616389Y-100043803D01*
X93645455Y-100189928D01*
X93649021Y-100207857D01*
X93650600Y-100212255D01*
X93650602Y-100212262D01*
X93722889Y-100413598D01*
X93734831Y-100446858D01*
X93737048Y-100450984D01*
X93847813Y-100657128D01*
X93855025Y-100670551D01*
X93857820Y-100674294D01*
X93857822Y-100674297D01*
X94004171Y-100870282D01*
X94004176Y-100870288D01*
X94006963Y-100874020D01*
X94010272Y-100877300D01*
X94010277Y-100877306D01*
X94176243Y-101041829D01*
X94187307Y-101052797D01*
X94191069Y-101055555D01*
X94191072Y-101055558D01*
X94292372Y-101129834D01*
X94392094Y-101202953D01*
X94396229Y-101205129D01*
X94396233Y-101205131D01*
X94584137Y-101303992D01*
X94635109Y-101353411D01*
X94651272Y-101422544D01*
X94627493Y-101489440D01*
X94571322Y-101532860D01*
X94525469Y-101541500D01*
X94051866Y-101541500D01*
X93989684Y-101548255D01*
X93853295Y-101599385D01*
X93736739Y-101686739D01*
X93649385Y-101803295D01*
X93598255Y-101939684D01*
X93591500Y-102001866D01*
X93591500Y-104498134D01*
X93598255Y-104560316D01*
X93649385Y-104696705D01*
X93736739Y-104813261D01*
X93853295Y-104900615D01*
X93989684Y-104951745D01*
X94051866Y-104958500D01*
X96548134Y-104958500D01*
X96610316Y-104951745D01*
X96746705Y-104900615D01*
X96863261Y-104813261D01*
X96950615Y-104696705D01*
X97001745Y-104560316D01*
X97008500Y-104498134D01*
X97008500Y-102001866D01*
X97001745Y-101939684D01*
X96950615Y-101803295D01*
X96863261Y-101686739D01*
X96746705Y-101599385D01*
X96610316Y-101548255D01*
X96548134Y-101541500D01*
X96070964Y-101541500D01*
X96002843Y-101521498D01*
X95956350Y-101467842D01*
X95946246Y-101397568D01*
X95975740Y-101332988D01*
X96021225Y-101299733D01*
X96091110Y-101269708D01*
X96095090Y-101267245D01*
X96095094Y-101267243D01*
X96303064Y-101138547D01*
X96303066Y-101138545D01*
X96307047Y-101136082D01*
X96312807Y-101131206D01*
X96497289Y-100975031D01*
X96497291Y-100975029D01*
X96500862Y-100972006D01*
X96668295Y-100781084D01*
X96805669Y-100567512D01*
X96909967Y-100335980D01*
X96978896Y-100091575D01*
X96996382Y-99954126D01*
X97010545Y-99842798D01*
X97010545Y-99842792D01*
X97010943Y-99839667D01*
X97013291Y-99750000D01*
X96999177Y-99560072D01*
X96994818Y-99501411D01*
X96994817Y-99501407D01*
X96994472Y-99496759D01*
X96985736Y-99458148D01*
X96939459Y-99253639D01*
X96938428Y-99249082D01*
X96924418Y-99213056D01*
X96848084Y-99016762D01*
X96848083Y-99016760D01*
X96846391Y-99012409D01*
X96825866Y-98976498D01*
X96722702Y-98795997D01*
X96722700Y-98795995D01*
X96720383Y-98791940D01*
X96563171Y-98592517D01*
X96407637Y-98446206D01*
X96381610Y-98421722D01*
X96381608Y-98421720D01*
X96378209Y-98418523D01*
X96322439Y-98379834D01*
X96173393Y-98276437D01*
X96173390Y-98276435D01*
X96169561Y-98273779D01*
X96165384Y-98271719D01*
X96165377Y-98271715D01*
X95945996Y-98163528D01*
X95945992Y-98163527D01*
X95941810Y-98161464D01*
X95699960Y-98084047D01*
X95695355Y-98083297D01*
X95453935Y-98043980D01*
X95453934Y-98043980D01*
X95449323Y-98043229D01*
X95322364Y-98041567D01*
X95200083Y-98039966D01*
X95200080Y-98039966D01*
X95195406Y-98039905D01*
X94943787Y-98074149D01*
X94699993Y-98145208D01*
X94469380Y-98251522D01*
X94465471Y-98254085D01*
X94260928Y-98388189D01*
X94260923Y-98388193D01*
X94257015Y-98390755D01*
X94067562Y-98559848D01*
X93905183Y-98755087D01*
X93773447Y-98972182D01*
X93771638Y-98976496D01*
X93771637Y-98976498D01*
X93695893Y-99157128D01*
X93675246Y-99206365D01*
X93674095Y-99210897D01*
X93674094Y-99210900D01*
X93665831Y-99243435D01*
X93612738Y-99452490D01*
X93587296Y-99705151D01*
X90609451Y-99705151D01*
X90584527Y-99628444D01*
X90489040Y-99463056D01*
X90483721Y-99457148D01*
X90365675Y-99326045D01*
X90365674Y-99326044D01*
X90361253Y-99321134D01*
X90206752Y-99208882D01*
X90200724Y-99206198D01*
X90200722Y-99206197D01*
X90038319Y-99133891D01*
X90038318Y-99133891D01*
X90032288Y-99131206D01*
X89938888Y-99111353D01*
X89851944Y-99092872D01*
X89851939Y-99092872D01*
X89845487Y-99091500D01*
X89654513Y-99091500D01*
X89648061Y-99092872D01*
X89648056Y-99092872D01*
X89561112Y-99111353D01*
X89467712Y-99131206D01*
X89461682Y-99133891D01*
X89461681Y-99133891D01*
X89299278Y-99206197D01*
X89299276Y-99206198D01*
X89293248Y-99208882D01*
X89138747Y-99321134D01*
X89134326Y-99326044D01*
X89134325Y-99326045D01*
X89016280Y-99457148D01*
X89010960Y-99463056D01*
X88915473Y-99628444D01*
X88856458Y-99810072D01*
X88855768Y-99816633D01*
X88855768Y-99816635D01*
X88842810Y-99939928D01*
X88836496Y-100000000D01*
X64124023Y-100000000D01*
X64143542Y-99939928D01*
X64156501Y-99816635D01*
X64162814Y-99756565D01*
X64163504Y-99750000D01*
X64143542Y-99560072D01*
X64084527Y-99378444D01*
X63989040Y-99213056D01*
X63983016Y-99206365D01*
X63865675Y-99076045D01*
X63865674Y-99076044D01*
X63861253Y-99071134D01*
X63706752Y-98958882D01*
X63700724Y-98956198D01*
X63700722Y-98956197D01*
X63538319Y-98883891D01*
X63538318Y-98883891D01*
X63532288Y-98881206D01*
X63438887Y-98861353D01*
X63351944Y-98842872D01*
X63351939Y-98842872D01*
X63345487Y-98841500D01*
X63154513Y-98841500D01*
X63148061Y-98842872D01*
X63148056Y-98842872D01*
X63061113Y-98861353D01*
X62967712Y-98881206D01*
X62961682Y-98883891D01*
X62961681Y-98883891D01*
X62799278Y-98956197D01*
X62799276Y-98956198D01*
X62793248Y-98958882D01*
X62787907Y-98962762D01*
X62787906Y-98962763D01*
X62699061Y-99027313D01*
X62632193Y-99051172D01*
X62563042Y-99035091D01*
X62550939Y-99027313D01*
X62462094Y-98962763D01*
X62462093Y-98962762D01*
X62456752Y-98958882D01*
X62450724Y-98956198D01*
X62450722Y-98956197D01*
X62288319Y-98883891D01*
X62288318Y-98883891D01*
X62282288Y-98881206D01*
X62188887Y-98861353D01*
X62101944Y-98842872D01*
X62101939Y-98842872D01*
X62095487Y-98841500D01*
X61904513Y-98841500D01*
X61898061Y-98842872D01*
X61898056Y-98842872D01*
X61811113Y-98861353D01*
X61717712Y-98881206D01*
X61711682Y-98883891D01*
X61711681Y-98883891D01*
X61549278Y-98956197D01*
X61549276Y-98956198D01*
X61543248Y-98958882D01*
X61388747Y-99071134D01*
X61384326Y-99076044D01*
X61384325Y-99076045D01*
X61266985Y-99206365D01*
X61260960Y-99213056D01*
X61165473Y-99378444D01*
X61106458Y-99560072D01*
X61086496Y-99750000D01*
X57760370Y-99750000D01*
X57834527Y-99621556D01*
X57893542Y-99439928D01*
X57905512Y-99326045D01*
X57912814Y-99256565D01*
X57913504Y-99250000D01*
X57909590Y-99212763D01*
X57894232Y-99066635D01*
X57894232Y-99066633D01*
X57893542Y-99060072D01*
X57834527Y-98878444D01*
X57813990Y-98842872D01*
X57765614Y-98759084D01*
X57739040Y-98713056D01*
X57611253Y-98571134D01*
X57456752Y-98458882D01*
X57450724Y-98456198D01*
X57450722Y-98456197D01*
X57288319Y-98383891D01*
X57288318Y-98383891D01*
X57282288Y-98381206D01*
X57188888Y-98361353D01*
X57101944Y-98342872D01*
X57101939Y-98342872D01*
X57095487Y-98341500D01*
X56904513Y-98341500D01*
X56898061Y-98342872D01*
X56898056Y-98342872D01*
X56811112Y-98361353D01*
X56717712Y-98381206D01*
X56711682Y-98383891D01*
X56711681Y-98383891D01*
X56549278Y-98456197D01*
X56549276Y-98456198D01*
X56543248Y-98458882D01*
X56388747Y-98571134D01*
X56260960Y-98713056D01*
X56234386Y-98759084D01*
X56186011Y-98842872D01*
X56165473Y-98878444D01*
X56106458Y-99060072D01*
X56105768Y-99066633D01*
X56105768Y-99066635D01*
X56090410Y-99212763D01*
X56086496Y-99250000D01*
X53897597Y-99250000D01*
X53890555Y-98250000D01*
X73586496Y-98250000D01*
X73606458Y-98439928D01*
X73665473Y-98621556D01*
X73760960Y-98786944D01*
X73888747Y-98928866D01*
X73935402Y-98962763D01*
X74034953Y-99035091D01*
X74043248Y-99041118D01*
X74049276Y-99043802D01*
X74049278Y-99043803D01*
X74144958Y-99086402D01*
X74217712Y-99118794D01*
X74311112Y-99138647D01*
X74398056Y-99157128D01*
X74398061Y-99157128D01*
X74404513Y-99158500D01*
X74595487Y-99158500D01*
X74601939Y-99157128D01*
X74601944Y-99157128D01*
X74688887Y-99138647D01*
X74782288Y-99118794D01*
X74855042Y-99086402D01*
X74950722Y-99043803D01*
X74950724Y-99043802D01*
X74956752Y-99041118D01*
X74965048Y-99035091D01*
X75064598Y-98962763D01*
X75111253Y-98928866D01*
X75239040Y-98786944D01*
X75334527Y-98621556D01*
X75393542Y-98439928D01*
X75413504Y-98250000D01*
X75402352Y-98143897D01*
X75394232Y-98066635D01*
X75394232Y-98066633D01*
X75393542Y-98060072D01*
X75334527Y-97878444D01*
X75239040Y-97713056D01*
X75111253Y-97571134D01*
X74956752Y-97458882D01*
X74950724Y-97456198D01*
X74950722Y-97456197D01*
X74788319Y-97383891D01*
X74788318Y-97383891D01*
X74782288Y-97381206D01*
X74688888Y-97361353D01*
X74601944Y-97342872D01*
X74601939Y-97342872D01*
X74595487Y-97341500D01*
X74404513Y-97341500D01*
X74398061Y-97342872D01*
X74398056Y-97342872D01*
X74311112Y-97361353D01*
X74217712Y-97381206D01*
X74211682Y-97383891D01*
X74211681Y-97383891D01*
X74049278Y-97456197D01*
X74049276Y-97456198D01*
X74043248Y-97458882D01*
X73888747Y-97571134D01*
X73760960Y-97713056D01*
X73665473Y-97878444D01*
X73606458Y-98060072D01*
X73605768Y-98066633D01*
X73605768Y-98066635D01*
X73597648Y-98143897D01*
X73586496Y-98250000D01*
X53890555Y-98250000D01*
X53878231Y-96500000D01*
X60586496Y-96500000D01*
X60606458Y-96689928D01*
X60665473Y-96871556D01*
X60760960Y-97036944D01*
X60888747Y-97178866D01*
X61043248Y-97291118D01*
X61049276Y-97293802D01*
X61049278Y-97293803D01*
X61156408Y-97341500D01*
X61217712Y-97368794D01*
X61311113Y-97388647D01*
X61398056Y-97407128D01*
X61398061Y-97407128D01*
X61404513Y-97408500D01*
X61595487Y-97408500D01*
X61601939Y-97407128D01*
X61601944Y-97407128D01*
X61688887Y-97388647D01*
X61782288Y-97368794D01*
X61843592Y-97341500D01*
X61950722Y-97293803D01*
X61950724Y-97293802D01*
X61956752Y-97291118D01*
X62111253Y-97178866D01*
X62239040Y-97036944D01*
X62334527Y-96871556D01*
X62393542Y-96689928D01*
X62413504Y-96500000D01*
X62393542Y-96310072D01*
X62334527Y-96128444D01*
X62239040Y-95963056D01*
X62111253Y-95821134D01*
X61956752Y-95708882D01*
X61950724Y-95706198D01*
X61950722Y-95706197D01*
X61788319Y-95633891D01*
X61788318Y-95633891D01*
X61782288Y-95631206D01*
X61688887Y-95611353D01*
X61601944Y-95592872D01*
X61601939Y-95592872D01*
X61595487Y-95591500D01*
X61404513Y-95591500D01*
X61398061Y-95592872D01*
X61398056Y-95592872D01*
X61311113Y-95611353D01*
X61217712Y-95631206D01*
X61211682Y-95633891D01*
X61211681Y-95633891D01*
X61049278Y-95706197D01*
X61049276Y-95706198D01*
X61043248Y-95708882D01*
X60888747Y-95821134D01*
X60760960Y-95963056D01*
X60665473Y-96128444D01*
X60606458Y-96310072D01*
X60586496Y-96500000D01*
X53878231Y-96500000D01*
X53857104Y-93500000D01*
X59336496Y-93500000D01*
X59337186Y-93506565D01*
X59351736Y-93644996D01*
X59356458Y-93689928D01*
X59415473Y-93871556D01*
X59418776Y-93877278D01*
X59418777Y-93877279D01*
X59436038Y-93907176D01*
X59510960Y-94036944D01*
X59515378Y-94041851D01*
X59515379Y-94041852D01*
X59537694Y-94066635D01*
X59638747Y-94178866D01*
X59793248Y-94291118D01*
X59799276Y-94293802D01*
X59799278Y-94293803D01*
X59961681Y-94366109D01*
X59967712Y-94368794D01*
X60061113Y-94388647D01*
X60148056Y-94407128D01*
X60148061Y-94407128D01*
X60154513Y-94408500D01*
X60345487Y-94408500D01*
X60351939Y-94407128D01*
X60351944Y-94407128D01*
X60479676Y-94379977D01*
X60505091Y-94374575D01*
X60575881Y-94379977D01*
X60624921Y-94413511D01*
X60638747Y-94428866D01*
X60793248Y-94541118D01*
X60799276Y-94543802D01*
X60799278Y-94543803D01*
X60959799Y-94615271D01*
X60967712Y-94618794D01*
X61061113Y-94638647D01*
X61148056Y-94657128D01*
X61148061Y-94657128D01*
X61154513Y-94658500D01*
X61345487Y-94658500D01*
X61351939Y-94657128D01*
X61351944Y-94657128D01*
X61438887Y-94638647D01*
X61532288Y-94618794D01*
X61540201Y-94615271D01*
X61700722Y-94543803D01*
X61700724Y-94543802D01*
X61706752Y-94541118D01*
X61861253Y-94428866D01*
X61962306Y-94316635D01*
X61984621Y-94291852D01*
X61984622Y-94291851D01*
X61989040Y-94286944D01*
X62084527Y-94121556D01*
X62143542Y-93939928D01*
X62146881Y-93908165D01*
X62162814Y-93756565D01*
X62163504Y-93750000D01*
X62157190Y-93689928D01*
X62144232Y-93566635D01*
X62144232Y-93566633D01*
X62143542Y-93560072D01*
X62084527Y-93378444D01*
X61989040Y-93213056D01*
X61973315Y-93195591D01*
X61865675Y-93076045D01*
X61865674Y-93076044D01*
X61861253Y-93071134D01*
X61706752Y-92958882D01*
X61700724Y-92956198D01*
X61700722Y-92956197D01*
X61538319Y-92883891D01*
X61538318Y-92883891D01*
X61532288Y-92881206D01*
X61438887Y-92861353D01*
X61351944Y-92842872D01*
X61351939Y-92842872D01*
X61345487Y-92841500D01*
X61154513Y-92841500D01*
X61148061Y-92842872D01*
X61148056Y-92842872D01*
X61030257Y-92867911D01*
X60994909Y-92875425D01*
X60924119Y-92870023D01*
X60875079Y-92836489D01*
X60861253Y-92821134D01*
X60706752Y-92708882D01*
X60700724Y-92706198D01*
X60700722Y-92706197D01*
X60538319Y-92633891D01*
X60538318Y-92633891D01*
X60532288Y-92631206D01*
X60425202Y-92608444D01*
X60351944Y-92592872D01*
X60351939Y-92592872D01*
X60345487Y-92591500D01*
X60154513Y-92591500D01*
X60148061Y-92592872D01*
X60148056Y-92592872D01*
X60074798Y-92608444D01*
X59967712Y-92631206D01*
X59961682Y-92633891D01*
X59961681Y-92633891D01*
X59799278Y-92706197D01*
X59799276Y-92706198D01*
X59793248Y-92708882D01*
X59638747Y-92821134D01*
X59634326Y-92826044D01*
X59634325Y-92826045D01*
X59538249Y-92932749D01*
X59510960Y-92963056D01*
X59465891Y-93041118D01*
X59422595Y-93116109D01*
X59415473Y-93128444D01*
X59356458Y-93310072D01*
X59355768Y-93316633D01*
X59355768Y-93316635D01*
X59348699Y-93383891D01*
X59336496Y-93500000D01*
X53857104Y-93500000D01*
X53836309Y-90547064D01*
X55707707Y-90547064D01*
X55729313Y-90689928D01*
X55733676Y-90718774D01*
X55736825Y-90739599D01*
X55739028Y-90745585D01*
X55739029Y-90745591D01*
X55801860Y-90916360D01*
X55801862Y-90916365D01*
X55804063Y-90922346D01*
X55807425Y-90927768D01*
X55885565Y-91053794D01*
X55906674Y-91087840D01*
X56040466Y-91229322D01*
X56045696Y-91232984D01*
X56045697Y-91232985D01*
X56069997Y-91250000D01*
X56199975Y-91341011D01*
X56205838Y-91343548D01*
X56372825Y-91415810D01*
X56372829Y-91415811D01*
X56378684Y-91418345D01*
X56384931Y-91419650D01*
X56384934Y-91419651D01*
X56564557Y-91457176D01*
X56564562Y-91457177D01*
X56569293Y-91458165D01*
X56575685Y-91458500D01*
X56718663Y-91458500D01*
X56839696Y-91446206D01*
X56857378Y-91444410D01*
X56857379Y-91444410D01*
X56863727Y-91443765D01*
X56944843Y-91418345D01*
X57043451Y-91387444D01*
X57043456Y-91387442D01*
X57049541Y-91385535D01*
X57136475Y-91337346D01*
X57214271Y-91294223D01*
X57214274Y-91294221D01*
X57219850Y-91291130D01*
X57224691Y-91286981D01*
X57224695Y-91286978D01*
X57267838Y-91250000D01*
X58336496Y-91250000D01*
X58337186Y-91256565D01*
X58354190Y-91418345D01*
X58356458Y-91439928D01*
X58415473Y-91621556D01*
X58510960Y-91786944D01*
X58638747Y-91928866D01*
X58793248Y-92041118D01*
X58799276Y-92043802D01*
X58799278Y-92043803D01*
X58953921Y-92112654D01*
X58967712Y-92118794D01*
X59061112Y-92138647D01*
X59148056Y-92157128D01*
X59148061Y-92157128D01*
X59154513Y-92158500D01*
X59345487Y-92158500D01*
X59351939Y-92157128D01*
X59351944Y-92157128D01*
X59438888Y-92138647D01*
X59532288Y-92118794D01*
X59546079Y-92112654D01*
X59700722Y-92043803D01*
X59700724Y-92043802D01*
X59706752Y-92041118D01*
X59861253Y-91928866D01*
X59989040Y-91786944D01*
X60084527Y-91621556D01*
X60143542Y-91439928D01*
X60145811Y-91418345D01*
X60162814Y-91256565D01*
X60163504Y-91250000D01*
X61836496Y-91250000D01*
X61837186Y-91256565D01*
X61854190Y-91418345D01*
X61856458Y-91439928D01*
X61915473Y-91621556D01*
X62010960Y-91786944D01*
X62138747Y-91928866D01*
X62293248Y-92041118D01*
X62299276Y-92043802D01*
X62299278Y-92043803D01*
X62453921Y-92112654D01*
X62467712Y-92118794D01*
X62561112Y-92138647D01*
X62648056Y-92157128D01*
X62648061Y-92157128D01*
X62654513Y-92158500D01*
X62713428Y-92158500D01*
X62781549Y-92178502D01*
X62828042Y-92232158D01*
X62838738Y-92271329D01*
X62856458Y-92439928D01*
X62915473Y-92621556D01*
X62918776Y-92627278D01*
X62918777Y-92627279D01*
X62923078Y-92634729D01*
X63010960Y-92786944D01*
X63015378Y-92791851D01*
X63015379Y-92791852D01*
X63121145Y-92909317D01*
X63138747Y-92928866D01*
X63293248Y-93041118D01*
X63299276Y-93043802D01*
X63299278Y-93043803D01*
X63419644Y-93097393D01*
X63467712Y-93118794D01*
X63654513Y-93158500D01*
X63654014Y-93160849D01*
X63709564Y-93183699D01*
X63750198Y-93241917D01*
X63752906Y-93312862D01*
X63716829Y-93374009D01*
X63681993Y-93397109D01*
X63549278Y-93456197D01*
X63549276Y-93456198D01*
X63543248Y-93458882D01*
X63388747Y-93571134D01*
X63384326Y-93576044D01*
X63384325Y-93576045D01*
X63281785Y-93689928D01*
X63260960Y-93713056D01*
X63218069Y-93787346D01*
X63170550Y-93869651D01*
X63165473Y-93878444D01*
X63106458Y-94060072D01*
X63105768Y-94066633D01*
X63105768Y-94066635D01*
X63093972Y-94178866D01*
X63086496Y-94250000D01*
X63087186Y-94256565D01*
X63103011Y-94407128D01*
X63106458Y-94439928D01*
X63165473Y-94621556D01*
X63168776Y-94627278D01*
X63168777Y-94627279D01*
X63186803Y-94658500D01*
X63260960Y-94786944D01*
X63388747Y-94928866D01*
X63543248Y-95041118D01*
X63549276Y-95043802D01*
X63549278Y-95043803D01*
X63711681Y-95116109D01*
X63717712Y-95118794D01*
X63811112Y-95138647D01*
X63898056Y-95157128D01*
X63898061Y-95157128D01*
X63904513Y-95158500D01*
X64095487Y-95158500D01*
X64101939Y-95157128D01*
X64101944Y-95157128D01*
X64188888Y-95138647D01*
X64282288Y-95118794D01*
X64288319Y-95116109D01*
X64450722Y-95043803D01*
X64450724Y-95043802D01*
X64456752Y-95041118D01*
X64611253Y-94928866D01*
X64739040Y-94786944D01*
X64813197Y-94658500D01*
X64831223Y-94627279D01*
X64831224Y-94627278D01*
X64834527Y-94621556D01*
X64874023Y-94500000D01*
X79586496Y-94500000D01*
X79587186Y-94506565D01*
X79603011Y-94657128D01*
X79606458Y-94689928D01*
X79665473Y-94871556D01*
X79760960Y-95036944D01*
X79888747Y-95178866D01*
X80043248Y-95291118D01*
X80049276Y-95293802D01*
X80049278Y-95293803D01*
X80211681Y-95366109D01*
X80217712Y-95368794D01*
X80311113Y-95388647D01*
X80398056Y-95407128D01*
X80398061Y-95407128D01*
X80404513Y-95408500D01*
X80595487Y-95408500D01*
X80601939Y-95407128D01*
X80601944Y-95407128D01*
X80688887Y-95388647D01*
X80782288Y-95368794D01*
X80788319Y-95366109D01*
X80950722Y-95293803D01*
X80950724Y-95293802D01*
X80956752Y-95291118D01*
X81111253Y-95178866D01*
X81239040Y-95036944D01*
X81334527Y-94871556D01*
X81393542Y-94689928D01*
X81396990Y-94657128D01*
X81412814Y-94506565D01*
X81413504Y-94500000D01*
X81407190Y-94439928D01*
X81394232Y-94316635D01*
X81394232Y-94316633D01*
X81393542Y-94310072D01*
X81334527Y-94128444D01*
X81280564Y-94034977D01*
X81263826Y-93965983D01*
X81287046Y-93898891D01*
X81342853Y-93855004D01*
X81413528Y-93848255D01*
X81440931Y-93856871D01*
X81461677Y-93866108D01*
X81461685Y-93866111D01*
X81467712Y-93868794D01*
X81542680Y-93884729D01*
X81648056Y-93907128D01*
X81648061Y-93907128D01*
X81654513Y-93908500D01*
X81845487Y-93908500D01*
X81851939Y-93907128D01*
X81851944Y-93907128D01*
X81957320Y-93884729D01*
X82032288Y-93868794D01*
X82038321Y-93866108D01*
X82200722Y-93793803D01*
X82200724Y-93793802D01*
X82206752Y-93791118D01*
X82361253Y-93678866D01*
X82439918Y-93591500D01*
X82484621Y-93541852D01*
X82484622Y-93541851D01*
X82489040Y-93536944D01*
X82576922Y-93384729D01*
X82581223Y-93377279D01*
X82581224Y-93377278D01*
X82584527Y-93371556D01*
X82643542Y-93189928D01*
X82651019Y-93118794D01*
X82662814Y-93006565D01*
X82663504Y-93000000D01*
X82663195Y-92997064D01*
X93762707Y-92997064D01*
X93791825Y-93189599D01*
X93794028Y-93195585D01*
X93794029Y-93195591D01*
X93856860Y-93366360D01*
X93856862Y-93366365D01*
X93859063Y-93372346D01*
X93866221Y-93383891D01*
X93942283Y-93506565D01*
X93961674Y-93537840D01*
X94095466Y-93679322D01*
X94100696Y-93682984D01*
X94100697Y-93682985D01*
X94136634Y-93708148D01*
X94254975Y-93791011D01*
X94260838Y-93793548D01*
X94427825Y-93865810D01*
X94427829Y-93865811D01*
X94433684Y-93868345D01*
X94439931Y-93869650D01*
X94439934Y-93869651D01*
X94619557Y-93907176D01*
X94619562Y-93907177D01*
X94624293Y-93908165D01*
X94630685Y-93908500D01*
X94773663Y-93908500D01*
X94842951Y-93901462D01*
X94912378Y-93894410D01*
X94912379Y-93894410D01*
X94918727Y-93893765D01*
X94989597Y-93871556D01*
X95098451Y-93837444D01*
X95098456Y-93837442D01*
X95104541Y-93835535D01*
X95247005Y-93756565D01*
X95269271Y-93744223D01*
X95269274Y-93744221D01*
X95274850Y-93741130D01*
X95279691Y-93736981D01*
X95279695Y-93736978D01*
X95417855Y-93618560D01*
X95422698Y-93614409D01*
X95459756Y-93566635D01*
X95538131Y-93465594D01*
X95542046Y-93460547D01*
X95573262Y-93397109D01*
X95625200Y-93291556D01*
X95628018Y-93285829D01*
X95629628Y-93279649D01*
X95675492Y-93103575D01*
X95675492Y-93103572D01*
X95677102Y-93097393D01*
X95684361Y-92958882D01*
X95686959Y-92909317D01*
X95686959Y-92909313D01*
X95687293Y-92902936D01*
X95658175Y-92710401D01*
X95655972Y-92704415D01*
X95655971Y-92704409D01*
X95593140Y-92533640D01*
X95593138Y-92533635D01*
X95590937Y-92527654D01*
X95488326Y-92362160D01*
X95354534Y-92220678D01*
X95195025Y-92108989D01*
X95147013Y-92088212D01*
X95022175Y-92034190D01*
X95022171Y-92034189D01*
X95016316Y-92031655D01*
X95010069Y-92030350D01*
X95010066Y-92030349D01*
X94830443Y-91992824D01*
X94830438Y-91992823D01*
X94825707Y-91991835D01*
X94819315Y-91991500D01*
X94676337Y-91991500D01*
X94607049Y-91998538D01*
X94537622Y-92005590D01*
X94537621Y-92005590D01*
X94531273Y-92006235D01*
X94474939Y-92023889D01*
X94351549Y-92062556D01*
X94351544Y-92062558D01*
X94345459Y-92064465D01*
X94294212Y-92092872D01*
X94180729Y-92155777D01*
X94180726Y-92155779D01*
X94175150Y-92158870D01*
X94170309Y-92163019D01*
X94170305Y-92163022D01*
X94032145Y-92281440D01*
X94027302Y-92285591D01*
X94023391Y-92290633D01*
X94023390Y-92290634D01*
X93971503Y-92357526D01*
X93907954Y-92439453D01*
X93905138Y-92445176D01*
X93905136Y-92445179D01*
X93832462Y-92592872D01*
X93821982Y-92614171D01*
X93820373Y-92620349D01*
X93820372Y-92620351D01*
X93796301Y-92712763D01*
X93772898Y-92802607D01*
X93770860Y-92841500D01*
X93764190Y-92968774D01*
X93762707Y-92997064D01*
X82663195Y-92997064D01*
X82656028Y-92928866D01*
X82644232Y-92816635D01*
X82644232Y-92816633D01*
X82643542Y-92810072D01*
X82584527Y-92628444D01*
X82579855Y-92620351D01*
X82492341Y-92468774D01*
X82489040Y-92463056D01*
X82472944Y-92445179D01*
X82365675Y-92326045D01*
X82365674Y-92326044D01*
X82361253Y-92321134D01*
X82206752Y-92208882D01*
X82200724Y-92206198D01*
X82200722Y-92206197D01*
X82038319Y-92133891D01*
X82038318Y-92133891D01*
X82032288Y-92131206D01*
X81927766Y-92108989D01*
X81851944Y-92092872D01*
X81851939Y-92092872D01*
X81845487Y-92091500D01*
X81654513Y-92091500D01*
X81648061Y-92092872D01*
X81648056Y-92092872D01*
X81572234Y-92108989D01*
X81467712Y-92131206D01*
X81461682Y-92133891D01*
X81461681Y-92133891D01*
X81299278Y-92206197D01*
X81299276Y-92206198D01*
X81293248Y-92208882D01*
X81138747Y-92321134D01*
X81134326Y-92326044D01*
X81134325Y-92326045D01*
X81027057Y-92445179D01*
X81010960Y-92463056D01*
X81007659Y-92468774D01*
X80920146Y-92620351D01*
X80915473Y-92628444D01*
X80856458Y-92810072D01*
X80855768Y-92816633D01*
X80855768Y-92816635D01*
X80843972Y-92928866D01*
X80836496Y-93000000D01*
X80837186Y-93006565D01*
X80848982Y-93118794D01*
X80856458Y-93189928D01*
X80915473Y-93371556D01*
X80918776Y-93377278D01*
X80918777Y-93377279D01*
X80923078Y-93384729D01*
X80968132Y-93462763D01*
X80969436Y-93465022D01*
X80986174Y-93534017D01*
X80962954Y-93601109D01*
X80907147Y-93644996D01*
X80836472Y-93651745D01*
X80809069Y-93643129D01*
X80788323Y-93633892D01*
X80788315Y-93633889D01*
X80782288Y-93631206D01*
X80688887Y-93611353D01*
X80601944Y-93592872D01*
X80601939Y-93592872D01*
X80595487Y-93591500D01*
X80404513Y-93591500D01*
X80398061Y-93592872D01*
X80398056Y-93592872D01*
X80311113Y-93611353D01*
X80217712Y-93631206D01*
X80211682Y-93633891D01*
X80211681Y-93633891D01*
X80049278Y-93706197D01*
X80049276Y-93706198D01*
X80043248Y-93708882D01*
X79888747Y-93821134D01*
X79884326Y-93826044D01*
X79884325Y-93826045D01*
X79781785Y-93939928D01*
X79760960Y-93963056D01*
X79665473Y-94128444D01*
X79606458Y-94310072D01*
X79605768Y-94316633D01*
X79605768Y-94316635D01*
X79592810Y-94439928D01*
X79586496Y-94500000D01*
X64874023Y-94500000D01*
X64893542Y-94439928D01*
X64896990Y-94407128D01*
X64912814Y-94256565D01*
X64913504Y-94250000D01*
X64906028Y-94178866D01*
X64894232Y-94066635D01*
X64894232Y-94066633D01*
X64893542Y-94060072D01*
X64834527Y-93878444D01*
X64829451Y-93869651D01*
X64781931Y-93787346D01*
X64739040Y-93713056D01*
X64718216Y-93689928D01*
X64615675Y-93576045D01*
X64615674Y-93576044D01*
X64611253Y-93571134D01*
X64456752Y-93458882D01*
X64450724Y-93456198D01*
X64450722Y-93456197D01*
X64288319Y-93383891D01*
X64288318Y-93383891D01*
X64282288Y-93381206D01*
X64095487Y-93341500D01*
X64095986Y-93339151D01*
X64040436Y-93316301D01*
X63999802Y-93258083D01*
X63997094Y-93187138D01*
X64033171Y-93125991D01*
X64068007Y-93102891D01*
X64200722Y-93043803D01*
X64200724Y-93043802D01*
X64206752Y-93041118D01*
X64361253Y-92928866D01*
X64378855Y-92909317D01*
X64484621Y-92791852D01*
X64484622Y-92791851D01*
X64489040Y-92786944D01*
X64576922Y-92634729D01*
X64581223Y-92627279D01*
X64581224Y-92627278D01*
X64584527Y-92621556D01*
X64643542Y-92439928D01*
X64655512Y-92326045D01*
X64662814Y-92256565D01*
X64663504Y-92250000D01*
X64651301Y-92133891D01*
X64644232Y-92066635D01*
X64644232Y-92066633D01*
X64643542Y-92060072D01*
X64584527Y-91878444D01*
X64489040Y-91713056D01*
X64361253Y-91571134D01*
X64206752Y-91458882D01*
X64200724Y-91456198D01*
X64200722Y-91456197D01*
X64038319Y-91383891D01*
X64038318Y-91383891D01*
X64032288Y-91381206D01*
X63938887Y-91361353D01*
X63851944Y-91342872D01*
X63851939Y-91342872D01*
X63845487Y-91341500D01*
X63786572Y-91341500D01*
X63718451Y-91321498D01*
X63671958Y-91267842D01*
X63661262Y-91228670D01*
X63644232Y-91066635D01*
X63644232Y-91066633D01*
X63643542Y-91060072D01*
X63584527Y-90878444D01*
X63489040Y-90713056D01*
X63468216Y-90689928D01*
X63365675Y-90576045D01*
X63365674Y-90576044D01*
X63361253Y-90571134D01*
X63263346Y-90500000D01*
X66836496Y-90500000D01*
X66837186Y-90506565D01*
X66844489Y-90576045D01*
X66856458Y-90689928D01*
X66915473Y-90871556D01*
X67010960Y-91036944D01*
X67015378Y-91041851D01*
X67015379Y-91041852D01*
X67037694Y-91066635D01*
X67138747Y-91178866D01*
X67293248Y-91291118D01*
X67299276Y-91293802D01*
X67299278Y-91293803D01*
X67409490Y-91342872D01*
X67467712Y-91368794D01*
X67546472Y-91385535D01*
X67648056Y-91407128D01*
X67648061Y-91407128D01*
X67654513Y-91408500D01*
X67845487Y-91408500D01*
X67851939Y-91407128D01*
X67851944Y-91407128D01*
X67953528Y-91385535D01*
X68032288Y-91368794D01*
X68090510Y-91342872D01*
X68200722Y-91293803D01*
X68200724Y-91293802D01*
X68206752Y-91291118D01*
X68361253Y-91178866D01*
X68462306Y-91066635D01*
X68484621Y-91041852D01*
X68484622Y-91041851D01*
X68489040Y-91036944D01*
X68584527Y-90871556D01*
X68643542Y-90689928D01*
X68655512Y-90576045D01*
X68662814Y-90506565D01*
X68663504Y-90500000D01*
X68651301Y-90383891D01*
X68644232Y-90316635D01*
X68644232Y-90316633D01*
X68643542Y-90310072D01*
X68584527Y-90128444D01*
X68489040Y-89963056D01*
X68361253Y-89821134D01*
X68206752Y-89708882D01*
X68200724Y-89706198D01*
X68200722Y-89706197D01*
X68038319Y-89633891D01*
X68038318Y-89633891D01*
X68032288Y-89631206D01*
X67938887Y-89611353D01*
X67851944Y-89592872D01*
X67851939Y-89592872D01*
X67845487Y-89591500D01*
X67654513Y-89591500D01*
X67648061Y-89592872D01*
X67648056Y-89592872D01*
X67561113Y-89611353D01*
X67467712Y-89631206D01*
X67461682Y-89633891D01*
X67461681Y-89633891D01*
X67299278Y-89706197D01*
X67299276Y-89706198D01*
X67293248Y-89708882D01*
X67138747Y-89821134D01*
X67010960Y-89963056D01*
X66915473Y-90128444D01*
X66856458Y-90310072D01*
X66855768Y-90316633D01*
X66855768Y-90316635D01*
X66848699Y-90383891D01*
X66836496Y-90500000D01*
X63263346Y-90500000D01*
X63206752Y-90458882D01*
X63200724Y-90456198D01*
X63200722Y-90456197D01*
X63038319Y-90383891D01*
X63038318Y-90383891D01*
X63032288Y-90381206D01*
X62927752Y-90358986D01*
X62851944Y-90342872D01*
X62851939Y-90342872D01*
X62845487Y-90341500D01*
X62654513Y-90341500D01*
X62648061Y-90342872D01*
X62648056Y-90342872D01*
X62572248Y-90358986D01*
X62467712Y-90381206D01*
X62461682Y-90383891D01*
X62461681Y-90383891D01*
X62299278Y-90456197D01*
X62299276Y-90456198D01*
X62293248Y-90458882D01*
X62138747Y-90571134D01*
X62134326Y-90576044D01*
X62134325Y-90576045D01*
X62031785Y-90689928D01*
X62010960Y-90713056D01*
X61915473Y-90878444D01*
X61856458Y-91060072D01*
X61855768Y-91066633D01*
X61855768Y-91066635D01*
X61843972Y-91178866D01*
X61836496Y-91250000D01*
X60163504Y-91250000D01*
X60156028Y-91178866D01*
X60144232Y-91066635D01*
X60144232Y-91066633D01*
X60143542Y-91060072D01*
X60084527Y-90878444D01*
X59989040Y-90713056D01*
X59968216Y-90689928D01*
X59865675Y-90576045D01*
X59865674Y-90576044D01*
X59861253Y-90571134D01*
X59706752Y-90458882D01*
X59700724Y-90456198D01*
X59700722Y-90456197D01*
X59538319Y-90383891D01*
X59538318Y-90383891D01*
X59532288Y-90381206D01*
X59427752Y-90358986D01*
X59351944Y-90342872D01*
X59351939Y-90342872D01*
X59345487Y-90341500D01*
X59154513Y-90341500D01*
X59148061Y-90342872D01*
X59148056Y-90342872D01*
X59072248Y-90358986D01*
X58967712Y-90381206D01*
X58961682Y-90383891D01*
X58961681Y-90383891D01*
X58799278Y-90456197D01*
X58799276Y-90456198D01*
X58793248Y-90458882D01*
X58638747Y-90571134D01*
X58634326Y-90576044D01*
X58634325Y-90576045D01*
X58531785Y-90689928D01*
X58510960Y-90713056D01*
X58415473Y-90878444D01*
X58356458Y-91060072D01*
X58355768Y-91066633D01*
X58355768Y-91066635D01*
X58343972Y-91178866D01*
X58336496Y-91250000D01*
X57267838Y-91250000D01*
X57362855Y-91168560D01*
X57367698Y-91164409D01*
X57487046Y-91010547D01*
X57527779Y-90927768D01*
X57570200Y-90841556D01*
X57573018Y-90835829D01*
X57574628Y-90829649D01*
X57620492Y-90653575D01*
X57620492Y-90653572D01*
X57622102Y-90647393D01*
X57627694Y-90540683D01*
X57631959Y-90459317D01*
X57631959Y-90459313D01*
X57632293Y-90452936D01*
X57603175Y-90260401D01*
X57600972Y-90254415D01*
X57600971Y-90254409D01*
X57538140Y-90083640D01*
X57538138Y-90083635D01*
X57535937Y-90077654D01*
X57433326Y-89912160D01*
X57299534Y-89770678D01*
X57140025Y-89658989D01*
X57050310Y-89620166D01*
X56967175Y-89584190D01*
X56967171Y-89584189D01*
X56961316Y-89581655D01*
X56955069Y-89580350D01*
X56955066Y-89580349D01*
X56775443Y-89542824D01*
X56775438Y-89542823D01*
X56770707Y-89541835D01*
X56764315Y-89541500D01*
X56621337Y-89541500D01*
X56552049Y-89548538D01*
X56482622Y-89555590D01*
X56482621Y-89555590D01*
X56476273Y-89556235D01*
X56419939Y-89573889D01*
X56296549Y-89612556D01*
X56296544Y-89612558D01*
X56290459Y-89614465D01*
X56214713Y-89656452D01*
X56125729Y-89705777D01*
X56125726Y-89705779D01*
X56120150Y-89708870D01*
X56115309Y-89713019D01*
X56115305Y-89713022D01*
X55977145Y-89831440D01*
X55972302Y-89835591D01*
X55852954Y-89989453D01*
X55850138Y-89995176D01*
X55850136Y-89995179D01*
X55806608Y-90083640D01*
X55766982Y-90164171D01*
X55765373Y-90170349D01*
X55765372Y-90170351D01*
X55720434Y-90342872D01*
X55717898Y-90352607D01*
X55713496Y-90436597D01*
X55710174Y-90500000D01*
X55707707Y-90547064D01*
X53836309Y-90547064D01*
X53815182Y-87547064D01*
X55707707Y-87547064D01*
X55725462Y-87664465D01*
X55733676Y-87718774D01*
X55736825Y-87739599D01*
X55739028Y-87745585D01*
X55739029Y-87745591D01*
X55801860Y-87916360D01*
X55801862Y-87916365D01*
X55804063Y-87922346D01*
X55807425Y-87927768D01*
X55890615Y-88061939D01*
X55906674Y-88087840D01*
X55911055Y-88092473D01*
X55911056Y-88092474D01*
X56030491Y-88218774D01*
X56040466Y-88229322D01*
X56045696Y-88232984D01*
X56045697Y-88232985D01*
X56069997Y-88250000D01*
X56199975Y-88341011D01*
X56205838Y-88343548D01*
X56372825Y-88415810D01*
X56372829Y-88415811D01*
X56378684Y-88418345D01*
X56384931Y-88419650D01*
X56384934Y-88419651D01*
X56564557Y-88457176D01*
X56564562Y-88457177D01*
X56569293Y-88458165D01*
X56575685Y-88458500D01*
X56718663Y-88458500D01*
X56839696Y-88446206D01*
X56857378Y-88444410D01*
X56857379Y-88444410D01*
X56863727Y-88443765D01*
X56944843Y-88418345D01*
X57043451Y-88387444D01*
X57043456Y-88387442D01*
X57049541Y-88385535D01*
X57185085Y-88310401D01*
X57214271Y-88294223D01*
X57214274Y-88294221D01*
X57219850Y-88291130D01*
X57224691Y-88286981D01*
X57224695Y-88286978D01*
X57267838Y-88250000D01*
X80836496Y-88250000D01*
X80837186Y-88256565D01*
X80854190Y-88418345D01*
X80856458Y-88439928D01*
X80915473Y-88621556D01*
X81010960Y-88786944D01*
X81015378Y-88791851D01*
X81015379Y-88791852D01*
X81037694Y-88816635D01*
X81138747Y-88928866D01*
X81293248Y-89041118D01*
X81299276Y-89043802D01*
X81299278Y-89043803D01*
X81336886Y-89060547D01*
X81467712Y-89118794D01*
X81531808Y-89132418D01*
X81648056Y-89157128D01*
X81648061Y-89157128D01*
X81654513Y-89158500D01*
X81845487Y-89158500D01*
X81851939Y-89157128D01*
X81851944Y-89157128D01*
X81968192Y-89132418D01*
X82032288Y-89118794D01*
X82163114Y-89060547D01*
X82200722Y-89043803D01*
X82200724Y-89043802D01*
X82206752Y-89041118D01*
X82361253Y-88928866D01*
X82462306Y-88816635D01*
X82484621Y-88791852D01*
X82484622Y-88791851D01*
X82489040Y-88786944D01*
X82510370Y-88750000D01*
X86586496Y-88750000D01*
X86587186Y-88756565D01*
X86593500Y-88816635D01*
X86606458Y-88939928D01*
X86665473Y-89121556D01*
X86668776Y-89127278D01*
X86668777Y-89127279D01*
X86686803Y-89158500D01*
X86760960Y-89286944D01*
X86765378Y-89291851D01*
X86765379Y-89291852D01*
X86884325Y-89423955D01*
X86888747Y-89428866D01*
X87043248Y-89541118D01*
X87049276Y-89543802D01*
X87049278Y-89543803D01*
X87211681Y-89616109D01*
X87217712Y-89618794D01*
X87311113Y-89638647D01*
X87398056Y-89657128D01*
X87398061Y-89657128D01*
X87404513Y-89658500D01*
X87595487Y-89658500D01*
X87601939Y-89657128D01*
X87601944Y-89657128D01*
X87688887Y-89638647D01*
X87782288Y-89618794D01*
X87788319Y-89616109D01*
X87950722Y-89543803D01*
X87950724Y-89543802D01*
X87956752Y-89541118D01*
X88111253Y-89428866D01*
X88202569Y-89327450D01*
X88263014Y-89290210D01*
X88333997Y-89291562D01*
X88392982Y-89331075D01*
X88411310Y-89360509D01*
X88413432Y-89365276D01*
X88415473Y-89371556D01*
X88510960Y-89536944D01*
X88515378Y-89541851D01*
X88515379Y-89541852D01*
X88550042Y-89580349D01*
X88638747Y-89678866D01*
X88685402Y-89712763D01*
X88750000Y-89759696D01*
X88793248Y-89791118D01*
X88799276Y-89793802D01*
X88799278Y-89793803D01*
X88883813Y-89831440D01*
X88967712Y-89868794D01*
X89061113Y-89888647D01*
X89148056Y-89907128D01*
X89148061Y-89907128D01*
X89154513Y-89908500D01*
X89345487Y-89908500D01*
X89351939Y-89907128D01*
X89351944Y-89907128D01*
X89438887Y-89888647D01*
X89532288Y-89868794D01*
X89698752Y-89794680D01*
X89769118Y-89785246D01*
X89801247Y-89794680D01*
X89967712Y-89868794D01*
X90061113Y-89888647D01*
X90148056Y-89907128D01*
X90148061Y-89907128D01*
X90154513Y-89908500D01*
X90345487Y-89908500D01*
X90351939Y-89907128D01*
X90351944Y-89907128D01*
X90438887Y-89888647D01*
X90532288Y-89868794D01*
X90616187Y-89831440D01*
X90700722Y-89793803D01*
X90700724Y-89793802D01*
X90706752Y-89791118D01*
X90750001Y-89759696D01*
X90814598Y-89712763D01*
X90861253Y-89678866D01*
X90949958Y-89580349D01*
X90984621Y-89541852D01*
X90984622Y-89541851D01*
X90989040Y-89536944D01*
X91084527Y-89371556D01*
X91143542Y-89189928D01*
X91146990Y-89157128D01*
X91162814Y-89006565D01*
X91163504Y-89000000D01*
X91161167Y-88977768D01*
X91144232Y-88816635D01*
X91144232Y-88816633D01*
X91143542Y-88810072D01*
X91084527Y-88628444D01*
X91070058Y-88603382D01*
X91066410Y-88597064D01*
X93762707Y-88597064D01*
X93791825Y-88789599D01*
X93794028Y-88795585D01*
X93794029Y-88795591D01*
X93856860Y-88966360D01*
X93856862Y-88966365D01*
X93859063Y-88972346D01*
X93862425Y-88977768D01*
X93950716Y-89120166D01*
X93961674Y-89137840D01*
X93966055Y-89142473D01*
X93966056Y-89142474D01*
X94010931Y-89189928D01*
X94095466Y-89279322D01*
X94100696Y-89282984D01*
X94100697Y-89282985D01*
X94164200Y-89327450D01*
X94254975Y-89391011D01*
X94260838Y-89393548D01*
X94427825Y-89465810D01*
X94427829Y-89465811D01*
X94433684Y-89468345D01*
X94439931Y-89469650D01*
X94439934Y-89469651D01*
X94619557Y-89507176D01*
X94619562Y-89507177D01*
X94624293Y-89508165D01*
X94630685Y-89508500D01*
X94773663Y-89508500D01*
X94842951Y-89501462D01*
X94912378Y-89494410D01*
X94912379Y-89494410D01*
X94918727Y-89493765D01*
X94999843Y-89468345D01*
X95098451Y-89437444D01*
X95098456Y-89437442D01*
X95104541Y-89435535D01*
X95191475Y-89387346D01*
X95269271Y-89344223D01*
X95269274Y-89344221D01*
X95274850Y-89341130D01*
X95279691Y-89336981D01*
X95279695Y-89336978D01*
X95417855Y-89218560D01*
X95422698Y-89214409D01*
X95441688Y-89189928D01*
X95538131Y-89065594D01*
X95542046Y-89060547D01*
X95550286Y-89043803D01*
X95625200Y-88891556D01*
X95628018Y-88885829D01*
X95646042Y-88816635D01*
X95675492Y-88703575D01*
X95675492Y-88703572D01*
X95677102Y-88697393D01*
X95687293Y-88502936D01*
X95658175Y-88310401D01*
X95655972Y-88304415D01*
X95655971Y-88304409D01*
X95593140Y-88133640D01*
X95593138Y-88133635D01*
X95590937Y-88127654D01*
X95507955Y-87993818D01*
X95491688Y-87967582D01*
X95491687Y-87967581D01*
X95488326Y-87962160D01*
X95368862Y-87835829D01*
X95358919Y-87825315D01*
X95354534Y-87820678D01*
X95195025Y-87708989D01*
X95147013Y-87688212D01*
X95022175Y-87634190D01*
X95022171Y-87634189D01*
X95016316Y-87631655D01*
X95010069Y-87630350D01*
X95010066Y-87630349D01*
X94830443Y-87592824D01*
X94830438Y-87592823D01*
X94825707Y-87591835D01*
X94819315Y-87591500D01*
X94676337Y-87591500D01*
X94607049Y-87598538D01*
X94537622Y-87605590D01*
X94537621Y-87605590D01*
X94531273Y-87606235D01*
X94478666Y-87622721D01*
X94351549Y-87662556D01*
X94351544Y-87662558D01*
X94345459Y-87664465D01*
X94269713Y-87706452D01*
X94180729Y-87755777D01*
X94180726Y-87755779D01*
X94175150Y-87758870D01*
X94170309Y-87763019D01*
X94170305Y-87763022D01*
X94034019Y-87879834D01*
X94027302Y-87885591D01*
X93907954Y-88039453D01*
X93905138Y-88045176D01*
X93905136Y-88045179D01*
X93861608Y-88133640D01*
X93821982Y-88214171D01*
X93820373Y-88220349D01*
X93820372Y-88220351D01*
X93776848Y-88387444D01*
X93772898Y-88402607D01*
X93772564Y-88408986D01*
X93764302Y-88566635D01*
X93762707Y-88597064D01*
X91066410Y-88597064D01*
X91046743Y-88563000D01*
X91030005Y-88494005D01*
X91046743Y-88437000D01*
X91081223Y-88377279D01*
X91081224Y-88377278D01*
X91084527Y-88371556D01*
X91143542Y-88189928D01*
X91152108Y-88108432D01*
X91162814Y-88006565D01*
X91163504Y-88000000D01*
X91151043Y-87881440D01*
X91144232Y-87816635D01*
X91144232Y-87816633D01*
X91143542Y-87810072D01*
X91084527Y-87628444D01*
X90989040Y-87463056D01*
X90889592Y-87352607D01*
X90865675Y-87326045D01*
X90865674Y-87326044D01*
X90861253Y-87321134D01*
X90762157Y-87249136D01*
X90712094Y-87212763D01*
X90712093Y-87212762D01*
X90706752Y-87208882D01*
X90700724Y-87206198D01*
X90700722Y-87206197D01*
X90538319Y-87133891D01*
X90538318Y-87133891D01*
X90532288Y-87131206D01*
X90438888Y-87111353D01*
X90351944Y-87092872D01*
X90351939Y-87092872D01*
X90345487Y-87091500D01*
X90154513Y-87091500D01*
X90148061Y-87092872D01*
X90148056Y-87092872D01*
X90061112Y-87111353D01*
X89967712Y-87131206D01*
X89801248Y-87205320D01*
X89730882Y-87214754D01*
X89698753Y-87205320D01*
X89532288Y-87131206D01*
X89438888Y-87111353D01*
X89351944Y-87092872D01*
X89351939Y-87092872D01*
X89345487Y-87091500D01*
X89154513Y-87091500D01*
X89148061Y-87092872D01*
X89148056Y-87092872D01*
X89061112Y-87111353D01*
X88967712Y-87131206D01*
X88961682Y-87133891D01*
X88961681Y-87133891D01*
X88799278Y-87206197D01*
X88799276Y-87206198D01*
X88793248Y-87208882D01*
X88787907Y-87212762D01*
X88787906Y-87212763D01*
X88737843Y-87249136D01*
X88638747Y-87321134D01*
X88634326Y-87326044D01*
X88634325Y-87326045D01*
X88610409Y-87352607D01*
X88510960Y-87463056D01*
X88415473Y-87628444D01*
X88356458Y-87810072D01*
X88355768Y-87816633D01*
X88355768Y-87816635D01*
X88348957Y-87881440D01*
X88336496Y-88000000D01*
X88335404Y-87999885D01*
X88317184Y-88061939D01*
X88263528Y-88108432D01*
X88193254Y-88118536D01*
X88128674Y-88089042D01*
X88117553Y-88078131D01*
X88111253Y-88071134D01*
X88004310Y-87993435D01*
X87962094Y-87962763D01*
X87962093Y-87962762D01*
X87956752Y-87958882D01*
X87950724Y-87956198D01*
X87950722Y-87956197D01*
X87788319Y-87883891D01*
X87788318Y-87883891D01*
X87782288Y-87881206D01*
X87688888Y-87861353D01*
X87601944Y-87842872D01*
X87601939Y-87842872D01*
X87595487Y-87841500D01*
X87404513Y-87841500D01*
X87398061Y-87842872D01*
X87398056Y-87842872D01*
X87311112Y-87861353D01*
X87217712Y-87881206D01*
X87211682Y-87883891D01*
X87211681Y-87883891D01*
X87049278Y-87956197D01*
X87049276Y-87956198D01*
X87043248Y-87958882D01*
X87037907Y-87962762D01*
X87037906Y-87962763D01*
X86995690Y-87993435D01*
X86888747Y-88071134D01*
X86884328Y-88076042D01*
X86884325Y-88076045D01*
X86781785Y-88189928D01*
X86760960Y-88213056D01*
X86665473Y-88378444D01*
X86606458Y-88560072D01*
X86586496Y-88750000D01*
X82510370Y-88750000D01*
X82584527Y-88621556D01*
X82643542Y-88439928D01*
X82645811Y-88418345D01*
X82662814Y-88256565D01*
X82663504Y-88250000D01*
X82657190Y-88189928D01*
X82644232Y-88066635D01*
X82644232Y-88066633D01*
X82643542Y-88060072D01*
X82584527Y-87878444D01*
X82563990Y-87842872D01*
X82507824Y-87745591D01*
X82489040Y-87713056D01*
X82448074Y-87667558D01*
X82365675Y-87576045D01*
X82365674Y-87576044D01*
X82361253Y-87571134D01*
X82206752Y-87458882D01*
X82200724Y-87456198D01*
X82200722Y-87456197D01*
X82038319Y-87383891D01*
X82038318Y-87383891D01*
X82032288Y-87381206D01*
X81927752Y-87358986D01*
X81851944Y-87342872D01*
X81851939Y-87342872D01*
X81845487Y-87341500D01*
X81654513Y-87341500D01*
X81648061Y-87342872D01*
X81648056Y-87342872D01*
X81572248Y-87358986D01*
X81467712Y-87381206D01*
X81461682Y-87383891D01*
X81461681Y-87383891D01*
X81299278Y-87456197D01*
X81299276Y-87456198D01*
X81293248Y-87458882D01*
X81138747Y-87571134D01*
X81134326Y-87576044D01*
X81134325Y-87576045D01*
X81051927Y-87667558D01*
X81010960Y-87713056D01*
X80992176Y-87745591D01*
X80936011Y-87842872D01*
X80915473Y-87878444D01*
X80856458Y-88060072D01*
X80855768Y-88066633D01*
X80855768Y-88066635D01*
X80842810Y-88189928D01*
X80836496Y-88250000D01*
X57267838Y-88250000D01*
X57362855Y-88168560D01*
X57367698Y-88164409D01*
X57487046Y-88010547D01*
X57492293Y-87999885D01*
X57570200Y-87841556D01*
X57573018Y-87835829D01*
X57591983Y-87763022D01*
X57620492Y-87653575D01*
X57620492Y-87653572D01*
X57622102Y-87647393D01*
X57632293Y-87452936D01*
X57603175Y-87260401D01*
X57600972Y-87254415D01*
X57600971Y-87254409D01*
X57538140Y-87083640D01*
X57538138Y-87083635D01*
X57535937Y-87077654D01*
X57433326Y-86912160D01*
X57299534Y-86770678D01*
X57140025Y-86658989D01*
X57092013Y-86638212D01*
X56967175Y-86584190D01*
X56967171Y-86584189D01*
X56961316Y-86581655D01*
X56955069Y-86580350D01*
X56955066Y-86580349D01*
X56775443Y-86542824D01*
X56775438Y-86542823D01*
X56770707Y-86541835D01*
X56764315Y-86541500D01*
X56621337Y-86541500D01*
X56552049Y-86548538D01*
X56482622Y-86555590D01*
X56482621Y-86555590D01*
X56476273Y-86556235D01*
X56419939Y-86573889D01*
X56296549Y-86612556D01*
X56296544Y-86612558D01*
X56290459Y-86614465D01*
X56214713Y-86656452D01*
X56125729Y-86705777D01*
X56125726Y-86705779D01*
X56120150Y-86708870D01*
X56115309Y-86713019D01*
X56115305Y-86713022D01*
X56052311Y-86767015D01*
X55972302Y-86835591D01*
X55852954Y-86989453D01*
X55850138Y-86995176D01*
X55850136Y-86995179D01*
X55802065Y-87092872D01*
X55766982Y-87164171D01*
X55765373Y-87170349D01*
X55765372Y-87170351D01*
X55720434Y-87342872D01*
X55717898Y-87352607D01*
X55707707Y-87547064D01*
X53815182Y-87547064D01*
X53758878Y-79551903D01*
X53760620Y-79530120D01*
X53763576Y-79512552D01*
X53763729Y-79500000D01*
X53763039Y-79495185D01*
X53763039Y-79495178D01*
X53761316Y-79483148D01*
X53760151Y-79460077D01*
X53760218Y-79458475D01*
X53763712Y-79374001D01*
X54438302Y-79374001D01*
X54446151Y-79802233D01*
X54492036Y-80228071D01*
X54492582Y-80230817D01*
X54492583Y-80230822D01*
X54517980Y-80358500D01*
X54575594Y-80648144D01*
X54696163Y-81059127D01*
X54697190Y-81061740D01*
X54697190Y-81061741D01*
X54835651Y-81414145D01*
X54852789Y-81457765D01*
X54854044Y-81460276D01*
X55022161Y-81796731D01*
X55044231Y-81840901D01*
X55268974Y-82205502D01*
X55525239Y-82548682D01*
X55527100Y-82550760D01*
X55527101Y-82550761D01*
X55809127Y-82865637D01*
X55809133Y-82865643D01*
X55810995Y-82867722D01*
X56123981Y-83160098D01*
X56461719Y-83423493D01*
X56821533Y-83655822D01*
X56824012Y-83657126D01*
X56824015Y-83657128D01*
X57198077Y-83853932D01*
X57198083Y-83853935D01*
X57200577Y-83855247D01*
X57203175Y-83856331D01*
X57203179Y-83856333D01*
X57593263Y-84019109D01*
X57593268Y-84019111D01*
X57595847Y-84020187D01*
X57598512Y-84021030D01*
X57598518Y-84021032D01*
X57796190Y-84083547D01*
X58004214Y-84149336D01*
X58422446Y-84241673D01*
X58425220Y-84242031D01*
X58425221Y-84242031D01*
X58844460Y-84296109D01*
X58844467Y-84296110D01*
X58847230Y-84296466D01*
X58850017Y-84296576D01*
X58850023Y-84296576D01*
X59098238Y-84306328D01*
X59275203Y-84313281D01*
X59277995Y-84313142D01*
X59278000Y-84313142D01*
X59700172Y-84292125D01*
X59700181Y-84292124D01*
X59702976Y-84291985D01*
X59705753Y-84291597D01*
X59705755Y-84291597D01*
X59780066Y-84281219D01*
X60127163Y-84232747D01*
X60544404Y-84136036D01*
X60758307Y-84065915D01*
X60948744Y-84003487D01*
X60948750Y-84003485D01*
X60951397Y-84002617D01*
X61344918Y-83833547D01*
X61573890Y-83710000D01*
X79796496Y-83710000D01*
X79816458Y-83899928D01*
X79875473Y-84081556D01*
X79970960Y-84246944D01*
X80098747Y-84388866D01*
X80111996Y-84398492D01*
X80227963Y-84482747D01*
X80253248Y-84501118D01*
X80259276Y-84503802D01*
X80259278Y-84503803D01*
X80392622Y-84563171D01*
X80427712Y-84578794D01*
X80521112Y-84598647D01*
X80608056Y-84617128D01*
X80608061Y-84617128D01*
X80614513Y-84618500D01*
X80805487Y-84618500D01*
X80811939Y-84617128D01*
X80811944Y-84617128D01*
X80898888Y-84598647D01*
X80992288Y-84578794D01*
X81027378Y-84563171D01*
X81160722Y-84503803D01*
X81160724Y-84503802D01*
X81166752Y-84501118D01*
X81192038Y-84482747D01*
X81308004Y-84398492D01*
X81321253Y-84388866D01*
X81449040Y-84246944D01*
X81544527Y-84081556D01*
X81603542Y-83899928D01*
X81623504Y-83710000D01*
X81603542Y-83520072D01*
X81544527Y-83338444D01*
X81449040Y-83173056D01*
X81438930Y-83161827D01*
X81325675Y-83036045D01*
X81325674Y-83036044D01*
X81321253Y-83031134D01*
X81166752Y-82918882D01*
X81160724Y-82916198D01*
X81160722Y-82916197D01*
X80998319Y-82843891D01*
X80998318Y-82843891D01*
X80992288Y-82841206D01*
X80898887Y-82821353D01*
X80811944Y-82802872D01*
X80811939Y-82802872D01*
X80805487Y-82801500D01*
X80614513Y-82801500D01*
X80608061Y-82802872D01*
X80608056Y-82802872D01*
X80521113Y-82821353D01*
X80427712Y-82841206D01*
X80421682Y-82843891D01*
X80421681Y-82843891D01*
X80259278Y-82916197D01*
X80259276Y-82916198D01*
X80253248Y-82918882D01*
X80098747Y-83031134D01*
X80094326Y-83036044D01*
X80094325Y-83036045D01*
X79981071Y-83161827D01*
X79970960Y-83173056D01*
X79875473Y-83338444D01*
X79816458Y-83520072D01*
X79796496Y-83710000D01*
X61573890Y-83710000D01*
X61721852Y-83630164D01*
X62079214Y-83394080D01*
X62414175Y-83127162D01*
X62724082Y-82831525D01*
X62725919Y-82829431D01*
X62725927Y-82829422D01*
X63004635Y-82511616D01*
X63006482Y-82509510D01*
X63044296Y-82457750D01*
X63257490Y-82165923D01*
X63259139Y-82163666D01*
X63301511Y-82093287D01*
X63478601Y-81799142D01*
X63478606Y-81799133D01*
X63480052Y-81796731D01*
X63667471Y-81411611D01*
X63800724Y-81061741D01*
X63818918Y-81013971D01*
X63818920Y-81013964D01*
X63819914Y-81011355D01*
X63936173Y-80599132D01*
X63958421Y-80480822D01*
X64014811Y-80180954D01*
X64014813Y-80180942D01*
X64015327Y-80178207D01*
X64056750Y-79751911D01*
X64059683Y-79639928D01*
X64063289Y-79502234D01*
X64063289Y-79502220D01*
X64063347Y-79500000D01*
X64063241Y-79497610D01*
X68466500Y-79497610D01*
X68481458Y-79639928D01*
X68540473Y-79821556D01*
X68635960Y-79986944D01*
X68763747Y-80128866D01*
X68918248Y-80241118D01*
X68924276Y-80243802D01*
X68924278Y-80243803D01*
X69041693Y-80296079D01*
X69092712Y-80318794D01*
X69186112Y-80338647D01*
X69273056Y-80357128D01*
X69273061Y-80357128D01*
X69279513Y-80358500D01*
X69470487Y-80358500D01*
X69476939Y-80357128D01*
X69476944Y-80357128D01*
X69563888Y-80338647D01*
X69657288Y-80318794D01*
X69708307Y-80296079D01*
X69825722Y-80243803D01*
X69825724Y-80243802D01*
X69831752Y-80241118D01*
X69914561Y-80180954D01*
X69925939Y-80172687D01*
X69992807Y-80148828D01*
X70061958Y-80164909D01*
X70074061Y-80172687D01*
X70085440Y-80180954D01*
X70168248Y-80241118D01*
X70174276Y-80243802D01*
X70174278Y-80243803D01*
X70291693Y-80296079D01*
X70342712Y-80318794D01*
X70436112Y-80338647D01*
X70523056Y-80357128D01*
X70523061Y-80357128D01*
X70529513Y-80358500D01*
X70720487Y-80358500D01*
X70726939Y-80357128D01*
X70726944Y-80357128D01*
X70813888Y-80338647D01*
X70907288Y-80318794D01*
X70958307Y-80296079D01*
X71075722Y-80243803D01*
X71075724Y-80243802D01*
X71081752Y-80241118D01*
X71164561Y-80180954D01*
X71175939Y-80172687D01*
X71242807Y-80148828D01*
X71311958Y-80164909D01*
X71324061Y-80172687D01*
X71335440Y-80180954D01*
X71418248Y-80241118D01*
X71424276Y-80243802D01*
X71424278Y-80243803D01*
X71541693Y-80296079D01*
X71592712Y-80318794D01*
X71686112Y-80338647D01*
X71773056Y-80357128D01*
X71773061Y-80357128D01*
X71779513Y-80358500D01*
X71970487Y-80358500D01*
X71976939Y-80357128D01*
X71976944Y-80357128D01*
X72063888Y-80338647D01*
X72157288Y-80318794D01*
X72208307Y-80296079D01*
X72325722Y-80243803D01*
X72325724Y-80243802D01*
X72331752Y-80241118D01*
X72356089Y-80223436D01*
X72422956Y-80199578D01*
X72495422Y-80217596D01*
X72625012Y-80296079D01*
X72638757Y-80302285D01*
X72788644Y-80349256D01*
X72801694Y-80351869D01*
X72856586Y-80356913D01*
X72868124Y-80353525D01*
X72869329Y-80352135D01*
X72871000Y-80344452D01*
X72871000Y-80339884D01*
X73379000Y-80339884D01*
X73383475Y-80355123D01*
X73384865Y-80356328D01*
X73389294Y-80357291D01*
X73448315Y-80351868D01*
X73461351Y-80349257D01*
X73611243Y-80302285D01*
X73624988Y-80296079D01*
X73758574Y-80215176D01*
X73770443Y-80205869D01*
X73880869Y-80095443D01*
X73890176Y-80083574D01*
X73971079Y-79949988D01*
X73977285Y-79936243D01*
X74024256Y-79786356D01*
X74026869Y-79773306D01*
X74032734Y-79709479D01*
X74033000Y-79703691D01*
X74033000Y-79624001D01*
X90688302Y-79624001D01*
X90696151Y-80052233D01*
X90742036Y-80478071D01*
X90742582Y-80480817D01*
X90742583Y-80480822D01*
X90775866Y-80648144D01*
X90825594Y-80898144D01*
X90946163Y-81309127D01*
X90947190Y-81311740D01*
X90947190Y-81311741D01*
X91085651Y-81664145D01*
X91102789Y-81707765D01*
X91198702Y-81899717D01*
X91272161Y-82046731D01*
X91294231Y-82090901D01*
X91518974Y-82455502D01*
X91775239Y-82798682D01*
X91777100Y-82800760D01*
X91777101Y-82800761D01*
X92059127Y-83115637D01*
X92059133Y-83115643D01*
X92060995Y-83117722D01*
X92373981Y-83410098D01*
X92711719Y-83673493D01*
X93071533Y-83905822D01*
X93074012Y-83907126D01*
X93074015Y-83907128D01*
X93448077Y-84103932D01*
X93448083Y-84103935D01*
X93450577Y-84105247D01*
X93453175Y-84106331D01*
X93453179Y-84106333D01*
X93843263Y-84269109D01*
X93843268Y-84269111D01*
X93845847Y-84270187D01*
X93848512Y-84271030D01*
X93848518Y-84271032D01*
X94070561Y-84341254D01*
X94254214Y-84399336D01*
X94672446Y-84491673D01*
X94675220Y-84492031D01*
X94675221Y-84492031D01*
X95094460Y-84546109D01*
X95094467Y-84546110D01*
X95097230Y-84546466D01*
X95100017Y-84546576D01*
X95100023Y-84546576D01*
X95348238Y-84556328D01*
X95525203Y-84563281D01*
X95527995Y-84563142D01*
X95528000Y-84563142D01*
X95950172Y-84542125D01*
X95950181Y-84542124D01*
X95952976Y-84541985D01*
X95955753Y-84541597D01*
X95955755Y-84541597D01*
X96030066Y-84531219D01*
X96377163Y-84482747D01*
X96794404Y-84386036D01*
X97068725Y-84296109D01*
X97198744Y-84253487D01*
X97198750Y-84253485D01*
X97201397Y-84252617D01*
X97594918Y-84083547D01*
X97971852Y-83880164D01*
X98329214Y-83644080D01*
X98664175Y-83377162D01*
X98974082Y-83081525D01*
X98975919Y-83079431D01*
X98975927Y-83079422D01*
X99254635Y-82761616D01*
X99256482Y-82759510D01*
X99440773Y-82507248D01*
X99507490Y-82415923D01*
X99509139Y-82413666D01*
X99633111Y-82207750D01*
X99728601Y-82049142D01*
X99728606Y-82049133D01*
X99730052Y-82046731D01*
X99917471Y-81661611D01*
X100050724Y-81311741D01*
X100068918Y-81263971D01*
X100068920Y-81263964D01*
X100069914Y-81261355D01*
X100186173Y-80849132D01*
X100223462Y-80650836D01*
X100264811Y-80430954D01*
X100264813Y-80430942D01*
X100265327Y-80428207D01*
X100306750Y-80001911D01*
X100308470Y-79936243D01*
X100313289Y-79752234D01*
X100313289Y-79752220D01*
X100313347Y-79750000D01*
X100294291Y-79322121D01*
X100237275Y-78897630D01*
X100226793Y-78851302D01*
X100143368Y-78482618D01*
X100143368Y-78482617D01*
X100142750Y-78479887D01*
X100090111Y-78316426D01*
X100012318Y-78074856D01*
X100012316Y-78074849D01*
X100011463Y-78072202D01*
X99844456Y-77677801D01*
X99643050Y-77299807D01*
X99533357Y-77131859D01*
X99410381Y-76943573D01*
X99410378Y-76943569D01*
X99408840Y-76941214D01*
X99143680Y-76604860D01*
X98849670Y-76293409D01*
X98847579Y-76291556D01*
X98847571Y-76291548D01*
X98531237Y-76011188D01*
X98531235Y-76011186D01*
X98529137Y-76009327D01*
X98455731Y-75955108D01*
X98287790Y-75831065D01*
X98184621Y-75754863D01*
X97991733Y-75637355D01*
X97821237Y-75533487D01*
X97821230Y-75533483D01*
X97818848Y-75532032D01*
X97760799Y-75503405D01*
X97591266Y-75419801D01*
X97434714Y-75342598D01*
X97035262Y-75188062D01*
X96785157Y-75116109D01*
X96626335Y-75070417D01*
X96626329Y-75070415D01*
X96623654Y-75069646D01*
X96620917Y-75069117D01*
X96620911Y-75069115D01*
X96456143Y-75037237D01*
X96203148Y-74988289D01*
X96200374Y-74988005D01*
X96200362Y-74988003D01*
X95917111Y-74958982D01*
X95777076Y-74944634D01*
X95774286Y-74944597D01*
X95774278Y-74944597D01*
X95506825Y-74941096D01*
X95348809Y-74939028D01*
X95346009Y-74939241D01*
X95346008Y-74939241D01*
X95008571Y-74964909D01*
X94921740Y-74971514D01*
X94499249Y-75041836D01*
X94413671Y-75064048D01*
X94087400Y-75148731D01*
X94087389Y-75148734D01*
X94084682Y-75149437D01*
X93882569Y-75221605D01*
X93683964Y-75292520D01*
X93683959Y-75292522D01*
X93681321Y-75293464D01*
X93678781Y-75294635D01*
X93678776Y-75294637D01*
X93623764Y-75319998D01*
X93292361Y-75472777D01*
X93289938Y-75474167D01*
X93289935Y-75474169D01*
X93205422Y-75522668D01*
X92920880Y-75685957D01*
X92918577Y-75687566D01*
X92918570Y-75687571D01*
X92713258Y-75831065D01*
X92569820Y-75931315D01*
X92241961Y-76206909D01*
X91939899Y-76510557D01*
X91666025Y-76839855D01*
X91664431Y-76842162D01*
X91664429Y-76842164D01*
X91461115Y-77136335D01*
X91422508Y-77192194D01*
X91211276Y-77564786D01*
X91034002Y-77954680D01*
X91033080Y-77957306D01*
X91033075Y-77957318D01*
X90960929Y-78162763D01*
X90892089Y-78358790D01*
X90891398Y-78361510D01*
X90891397Y-78361514D01*
X90831813Y-78596129D01*
X90786661Y-78773914D01*
X90718552Y-79196768D01*
X90688302Y-79624001D01*
X74033000Y-79624001D01*
X74033000Y-79472115D01*
X74028525Y-79456876D01*
X74027135Y-79455671D01*
X74019452Y-79454000D01*
X73397115Y-79454000D01*
X73381876Y-79458475D01*
X73380671Y-79459865D01*
X73379000Y-79467548D01*
X73379000Y-80339884D01*
X72871000Y-80339884D01*
X72871000Y-78927885D01*
X73379000Y-78927885D01*
X73383475Y-78943124D01*
X73384865Y-78944329D01*
X73392548Y-78946000D01*
X74014884Y-78946000D01*
X74030123Y-78941525D01*
X74031328Y-78940135D01*
X74032999Y-78932452D01*
X74032999Y-78696295D01*
X74032736Y-78690546D01*
X74026868Y-78626685D01*
X74024257Y-78613649D01*
X73977285Y-78463757D01*
X73971079Y-78450012D01*
X73890176Y-78316426D01*
X73880869Y-78304557D01*
X73770443Y-78194131D01*
X73758574Y-78184824D01*
X73624988Y-78103921D01*
X73611243Y-78097715D01*
X73461356Y-78050744D01*
X73448306Y-78048131D01*
X73393414Y-78043087D01*
X73381876Y-78046475D01*
X73380671Y-78047865D01*
X73379000Y-78055548D01*
X73379000Y-78927885D01*
X72871000Y-78927885D01*
X72871000Y-78060116D01*
X72866525Y-78044877D01*
X72865135Y-78043672D01*
X72860706Y-78042709D01*
X72801685Y-78048132D01*
X72788649Y-78050743D01*
X72638757Y-78097715D01*
X72625012Y-78103921D01*
X72495422Y-78182404D01*
X72426792Y-78200583D01*
X72356089Y-78176564D01*
X72337094Y-78162763D01*
X72337093Y-78162762D01*
X72331752Y-78158882D01*
X72325724Y-78156198D01*
X72325722Y-78156197D01*
X72163319Y-78083891D01*
X72163318Y-78083891D01*
X72157288Y-78081206D01*
X72058068Y-78060116D01*
X71976944Y-78042872D01*
X71976939Y-78042872D01*
X71970487Y-78041500D01*
X71779513Y-78041500D01*
X71773061Y-78042872D01*
X71773056Y-78042872D01*
X71691932Y-78060116D01*
X71592712Y-78081206D01*
X71586682Y-78083891D01*
X71586681Y-78083891D01*
X71424278Y-78156197D01*
X71424276Y-78156198D01*
X71418248Y-78158882D01*
X71412907Y-78162762D01*
X71412906Y-78162763D01*
X71324061Y-78227313D01*
X71257193Y-78251172D01*
X71188042Y-78235091D01*
X71175939Y-78227313D01*
X71087094Y-78162763D01*
X71087093Y-78162762D01*
X71081752Y-78158882D01*
X71075724Y-78156198D01*
X71075722Y-78156197D01*
X70913319Y-78083891D01*
X70913318Y-78083891D01*
X70907288Y-78081206D01*
X70808068Y-78060116D01*
X70726944Y-78042872D01*
X70726939Y-78042872D01*
X70720487Y-78041500D01*
X70529513Y-78041500D01*
X70523061Y-78042872D01*
X70523056Y-78042872D01*
X70441932Y-78060116D01*
X70342712Y-78081206D01*
X70336682Y-78083891D01*
X70336681Y-78083891D01*
X70174278Y-78156197D01*
X70174276Y-78156198D01*
X70168248Y-78158882D01*
X70162907Y-78162762D01*
X70162906Y-78162763D01*
X70074061Y-78227313D01*
X70007193Y-78251172D01*
X69938042Y-78235091D01*
X69925939Y-78227313D01*
X69837094Y-78162763D01*
X69837093Y-78162762D01*
X69831752Y-78158882D01*
X69825724Y-78156198D01*
X69825722Y-78156197D01*
X69663319Y-78083891D01*
X69663318Y-78083891D01*
X69657288Y-78081206D01*
X69558068Y-78060116D01*
X69476944Y-78042872D01*
X69476939Y-78042872D01*
X69470487Y-78041500D01*
X69279513Y-78041500D01*
X69273061Y-78042872D01*
X69273056Y-78042872D01*
X69191932Y-78060116D01*
X69092712Y-78081206D01*
X69086682Y-78083891D01*
X69086681Y-78083891D01*
X68924278Y-78156197D01*
X68924276Y-78156198D01*
X68918248Y-78158882D01*
X68763747Y-78271134D01*
X68759326Y-78276044D01*
X68759325Y-78276045D01*
X68682369Y-78361514D01*
X68635960Y-78413056D01*
X68540473Y-78578444D01*
X68481458Y-78760072D01*
X68466500Y-78902390D01*
X68466500Y-79497610D01*
X64063241Y-79497610D01*
X64044291Y-79072121D01*
X63987275Y-78647630D01*
X63976793Y-78601302D01*
X63893368Y-78232618D01*
X63893368Y-78232617D01*
X63892750Y-78229887D01*
X63836608Y-78055548D01*
X63762318Y-77824856D01*
X63762316Y-77824849D01*
X63761463Y-77822202D01*
X63594456Y-77427801D01*
X63393050Y-77049807D01*
X63320682Y-76939006D01*
X63160381Y-76693573D01*
X63160378Y-76693569D01*
X63158840Y-76691214D01*
X62893680Y-76354860D01*
X62599670Y-76043409D01*
X62597579Y-76041556D01*
X62597571Y-76041548D01*
X62281237Y-75761188D01*
X62281235Y-75761186D01*
X62279137Y-75759327D01*
X62273094Y-75754863D01*
X62157101Y-75669190D01*
X61934621Y-75504863D01*
X61741733Y-75387355D01*
X61571237Y-75283487D01*
X61571230Y-75283483D01*
X61568848Y-75282032D01*
X61451514Y-75224169D01*
X61341266Y-75169801D01*
X61184714Y-75092598D01*
X60785262Y-74938062D01*
X60538678Y-74867122D01*
X60376335Y-74820417D01*
X60376329Y-74820415D01*
X60373654Y-74819646D01*
X60370917Y-74819117D01*
X60370911Y-74819115D01*
X60175074Y-74781226D01*
X59953148Y-74738289D01*
X59950374Y-74738005D01*
X59950362Y-74738003D01*
X59667111Y-74708982D01*
X59527076Y-74694634D01*
X59524286Y-74694597D01*
X59524278Y-74694597D01*
X59256825Y-74691096D01*
X59098809Y-74689028D01*
X59096009Y-74689241D01*
X59096008Y-74689241D01*
X59021364Y-74694919D01*
X58671740Y-74721514D01*
X58249249Y-74791836D01*
X58163671Y-74814048D01*
X57837400Y-74898731D01*
X57837389Y-74898734D01*
X57834682Y-74899437D01*
X57632824Y-74971514D01*
X57433964Y-75042520D01*
X57433959Y-75042522D01*
X57431321Y-75043464D01*
X57428781Y-75044635D01*
X57428776Y-75044637D01*
X57373764Y-75069998D01*
X57042361Y-75222777D01*
X56670880Y-75435957D01*
X56668577Y-75437566D01*
X56668570Y-75437571D01*
X56533415Y-75532032D01*
X56319820Y-75681315D01*
X55991961Y-75956909D01*
X55689899Y-76260557D01*
X55416025Y-76589855D01*
X55414431Y-76592162D01*
X55414429Y-76592164D01*
X55211115Y-76886335D01*
X55172508Y-76942194D01*
X54961276Y-77314786D01*
X54784002Y-77704680D01*
X54783080Y-77707306D01*
X54783075Y-77707318D01*
X54702281Y-77937388D01*
X54642089Y-78108790D01*
X54641398Y-78111510D01*
X54641397Y-78111514D01*
X54566347Y-78407024D01*
X54536661Y-78523914D01*
X54468552Y-78946768D01*
X54438302Y-79374001D01*
X53763712Y-79374001D01*
X53777041Y-79051722D01*
X53777901Y-79041344D01*
X53832752Y-78601302D01*
X53834466Y-78591030D01*
X53857198Y-78482618D01*
X53925467Y-78157024D01*
X53928023Y-78146928D01*
X54054561Y-77721899D01*
X54057938Y-77712062D01*
X54219147Y-77298919D01*
X54223318Y-77289411D01*
X54295864Y-77141017D01*
X54418082Y-76891015D01*
X54423037Y-76881859D01*
X54650030Y-76500915D01*
X54655726Y-76492196D01*
X54913405Y-76131295D01*
X54919801Y-76123077D01*
X55206413Y-75784674D01*
X55213467Y-75777013D01*
X55527013Y-75463467D01*
X55534674Y-75456413D01*
X55873077Y-75169801D01*
X55881295Y-75163405D01*
X56242196Y-74905726D01*
X56250915Y-74900030D01*
X56543659Y-74725593D01*
X56631861Y-74673036D01*
X56641017Y-74668081D01*
X56724479Y-74627279D01*
X57039419Y-74473314D01*
X57048919Y-74469147D01*
X57462062Y-74307938D01*
X57471899Y-74304561D01*
X57609176Y-74263691D01*
X57637570Y-74255238D01*
X57673522Y-74250000D01*
X79723045Y-74250000D01*
X79791166Y-74270002D01*
G37*
%TD.AperFunction*%
%TD*%
M02*
