%TF.GenerationSoftware,KiCad,Pcbnew,(6.0.5-0)*%
%TF.CreationDate,2022-07-05T17:16:20+02:00*%
%TF.ProjectId,HWCorso,4857436f-7273-46f2-9e6b-696361645f70,rev?*%
%TF.SameCoordinates,Original*%
%TF.FileFunction,Copper,L1,Top*%
%TF.FilePolarity,Positive*%
%FSLAX46Y46*%
G04 Gerber Fmt 4.6, Leading zero omitted, Abs format (unit mm)*
G04 Created by KiCad (PCBNEW (6.0.5-0)) date 2022-07-05 17:16:20*
%MOMM*%
%LPD*%
G01*
G04 APERTURE LIST*
G04 Aperture macros list*
%AMRoundRect*
0 Rectangle with rounded corners*
0 $1 Rounding radius*
0 $2 $3 $4 $5 $6 $7 $8 $9 X,Y pos of 4 corners*
0 Add a 4 corners polygon primitive as box body*
4,1,4,$2,$3,$4,$5,$6,$7,$8,$9,$2,$3,0*
0 Add four circle primitives for the rounded corners*
1,1,$1+$1,$2,$3*
1,1,$1+$1,$4,$5*
1,1,$1+$1,$6,$7*
1,1,$1+$1,$8,$9*
0 Add four rect primitives between the rounded corners*
20,1,$1+$1,$2,$3,$4,$5,0*
20,1,$1+$1,$4,$5,$6,$7,0*
20,1,$1+$1,$6,$7,$8,$9,0*
20,1,$1+$1,$8,$9,$2,$3,0*%
G04 Aperture macros list end*
%TA.AperFunction,SMDPad,CuDef*%
%ADD10R,0.740000X2.400000*%
%TD*%
%TA.AperFunction,SMDPad,CuDef*%
%ADD11RoundRect,0.075000X-0.700000X-0.075000X0.700000X-0.075000X0.700000X0.075000X-0.700000X0.075000X0*%
%TD*%
%TA.AperFunction,SMDPad,CuDef*%
%ADD12RoundRect,0.075000X-0.075000X-0.700000X0.075000X-0.700000X0.075000X0.700000X-0.075000X0.700000X0*%
%TD*%
%TA.AperFunction,SMDPad,CuDef*%
%ADD13RoundRect,0.150000X0.150000X-0.512500X0.150000X0.512500X-0.150000X0.512500X-0.150000X-0.512500X0*%
%TD*%
%TA.AperFunction,SMDPad,CuDef*%
%ADD14RoundRect,0.140000X0.140000X0.170000X-0.140000X0.170000X-0.140000X-0.170000X0.140000X-0.170000X0*%
%TD*%
%TA.AperFunction,ComponentPad*%
%ADD15C,8.600000*%
%TD*%
%TA.AperFunction,ComponentPad*%
%ADD16C,0.900000*%
%TD*%
%TA.AperFunction,SMDPad,CuDef*%
%ADD17RoundRect,0.200000X-0.200000X-0.275000X0.200000X-0.275000X0.200000X0.275000X-0.200000X0.275000X0*%
%TD*%
%TA.AperFunction,SMDPad,CuDef*%
%ADD18RoundRect,0.200000X0.275000X-0.200000X0.275000X0.200000X-0.275000X0.200000X-0.275000X-0.200000X0*%
%TD*%
%TA.AperFunction,SMDPad,CuDef*%
%ADD19R,0.900000X1.200000*%
%TD*%
%TA.AperFunction,SMDPad,CuDef*%
%ADD20RoundRect,0.200000X-0.275000X0.200000X-0.275000X-0.200000X0.275000X-0.200000X0.275000X0.200000X0*%
%TD*%
%TA.AperFunction,SMDPad,CuDef*%
%ADD21RoundRect,0.147500X-0.147500X-0.172500X0.147500X-0.172500X0.147500X0.172500X-0.147500X0.172500X0*%
%TD*%
%TA.AperFunction,SMDPad,CuDef*%
%ADD22RoundRect,0.140000X-0.140000X-0.170000X0.140000X-0.170000X0.140000X0.170000X-0.140000X0.170000X0*%
%TD*%
%TA.AperFunction,SMDPad,CuDef*%
%ADD23RoundRect,0.140000X0.170000X-0.140000X0.170000X0.140000X-0.170000X0.140000X-0.170000X-0.140000X0*%
%TD*%
%TA.AperFunction,SMDPad,CuDef*%
%ADD24RoundRect,0.225000X0.225000X0.250000X-0.225000X0.250000X-0.225000X-0.250000X0.225000X-0.250000X0*%
%TD*%
%TA.AperFunction,SMDPad,CuDef*%
%ADD25RoundRect,0.225000X-0.225000X-0.250000X0.225000X-0.250000X0.225000X0.250000X-0.225000X0.250000X0*%
%TD*%
%TA.AperFunction,SMDPad,CuDef*%
%ADD26RoundRect,0.150000X0.512500X0.150000X-0.512500X0.150000X-0.512500X-0.150000X0.512500X-0.150000X0*%
%TD*%
%TA.AperFunction,SMDPad,CuDef*%
%ADD27RoundRect,0.218750X0.218750X0.256250X-0.218750X0.256250X-0.218750X-0.256250X0.218750X-0.256250X0*%
%TD*%
%TA.AperFunction,SMDPad,CuDef*%
%ADD28RoundRect,0.250000X0.325000X0.650000X-0.325000X0.650000X-0.325000X-0.650000X0.325000X-0.650000X0*%
%TD*%
%TA.AperFunction,SMDPad,CuDef*%
%ADD29RoundRect,0.135000X0.135000X0.185000X-0.135000X0.185000X-0.135000X-0.185000X0.135000X-0.185000X0*%
%TD*%
%TA.AperFunction,SMDPad,CuDef*%
%ADD30R,2.500000X1.900000*%
%TD*%
%TA.AperFunction,SMDPad,CuDef*%
%ADD31RoundRect,0.150000X-0.150000X0.587500X-0.150000X-0.587500X0.150000X-0.587500X0.150000X0.587500X0*%
%TD*%
%TA.AperFunction,SMDPad,CuDef*%
%ADD32RoundRect,0.140000X-0.170000X0.140000X-0.170000X-0.140000X0.170000X-0.140000X0.170000X0.140000X0*%
%TD*%
%TA.AperFunction,ComponentPad*%
%ADD33RoundRect,0.200000X-0.200000X-0.450000X0.200000X-0.450000X0.200000X0.450000X-0.200000X0.450000X0*%
%TD*%
%TA.AperFunction,ComponentPad*%
%ADD34O,0.800000X1.300000*%
%TD*%
%TA.AperFunction,SMDPad,CuDef*%
%ADD35R,2.500000X0.500000*%
%TD*%
%TA.AperFunction,SMDPad,CuDef*%
%ADD36R,2.500000X2.000000*%
%TD*%
%TA.AperFunction,SMDPad,CuDef*%
%ADD37RoundRect,0.218750X0.256250X-0.218750X0.256250X0.218750X-0.256250X0.218750X-0.256250X-0.218750X0*%
%TD*%
%TA.AperFunction,SMDPad,CuDef*%
%ADD38R,1.200000X1.400000*%
%TD*%
%TA.AperFunction,SMDPad,CuDef*%
%ADD39RoundRect,0.200000X0.200000X0.275000X-0.200000X0.275000X-0.200000X-0.275000X0.200000X-0.275000X0*%
%TD*%
%TA.AperFunction,SMDPad,CuDef*%
%ADD40RoundRect,0.218750X-0.381250X0.218750X-0.381250X-0.218750X0.381250X-0.218750X0.381250X0.218750X0*%
%TD*%
%TA.AperFunction,SMDPad,CuDef*%
%ADD41RoundRect,0.225000X0.250000X-0.225000X0.250000X0.225000X-0.250000X0.225000X-0.250000X-0.225000X0*%
%TD*%
%TA.AperFunction,ComponentPad*%
%ADD42R,2.400000X2.400000*%
%TD*%
%TA.AperFunction,ComponentPad*%
%ADD43C,2.400000*%
%TD*%
%TA.AperFunction,SMDPad,CuDef*%
%ADD44RoundRect,0.250000X-0.325000X-0.650000X0.325000X-0.650000X0.325000X0.650000X-0.325000X0.650000X0*%
%TD*%
%TA.AperFunction,ComponentPad*%
%ADD45RoundRect,0.200000X0.200000X0.450000X-0.200000X0.450000X-0.200000X-0.450000X0.200000X-0.450000X0*%
%TD*%
%TA.AperFunction,SMDPad,CuDef*%
%ADD46R,0.800000X1.000000*%
%TD*%
%TA.AperFunction,SMDPad,CuDef*%
%ADD47R,1.500000X0.700000*%
%TD*%
%TA.AperFunction,ViaPad*%
%ADD48C,0.800000*%
%TD*%
%TA.AperFunction,Conductor*%
%ADD49C,0.300000*%
%TD*%
%TA.AperFunction,Conductor*%
%ADD50C,0.750000*%
%TD*%
%TA.AperFunction,Conductor*%
%ADD51C,0.400000*%
%TD*%
%TA.AperFunction,Conductor*%
%ADD52C,0.500000*%
%TD*%
%TA.AperFunction,Conductor*%
%ADD53C,1.000000*%
%TD*%
%TA.AperFunction,Conductor*%
%ADD54C,0.250000*%
%TD*%
%TA.AperFunction,Conductor*%
%ADD55C,0.261112*%
%TD*%
G04 APERTURE END LIST*
D10*
%TO.P,J4,1,Pin_1*%
%TO.N,BUCK_VOUT_3V3*%
X85790000Y-76050000D03*
%TO.P,J4,2,Pin_2*%
%TO.N,SWDIO*%
X85790000Y-79950000D03*
%TO.P,J4,3,Pin_3*%
%TO.N,GND*%
X84520000Y-76050000D03*
%TO.P,J4,4,Pin_4*%
%TO.N,SWCLK*%
X84520000Y-79950000D03*
%TO.P,J4,5,Pin_5*%
%TO.N,GND*%
X83250000Y-76050000D03*
%TO.P,J4,6,Pin_6*%
%TO.N,SWO*%
X83250000Y-79950000D03*
%TO.P,J4,7,Pin_7*%
%TO.N,unconnected-(J4-Pad7)*%
X81980000Y-76050000D03*
%TO.P,J4,8,Pin_8*%
%TO.N,unconnected-(J4-Pad8)*%
X81980000Y-79950000D03*
%TO.P,J4,9,Pin_9*%
%TO.N,GND*%
X80710000Y-76050000D03*
%TO.P,J4,10,Pin_10*%
%TO.N,NRST*%
X80710000Y-79950000D03*
%TD*%
D11*
%TO.P,U1,1,VBAT*%
%TO.N,BUCK_VOUT_3V3*%
X65445000Y-95310000D03*
%TO.P,U1,2,PC13*%
%TO.N,unconnected-(U1-Pad2)*%
X65445000Y-95810000D03*
%TO.P,U1,3,PC14*%
%TO.N,unconnected-(U1-Pad3)*%
X65445000Y-96310000D03*
%TO.P,U1,4,PC15*%
%TO.N,unconnected-(U1-Pad4)*%
X65445000Y-96810000D03*
%TO.P,U1,5,PH0*%
%TO.N,HSE_IN*%
X65445000Y-97310000D03*
%TO.P,U1,6,PH1*%
%TO.N,HSE_OUT*%
X65445000Y-97810000D03*
%TO.P,U1,7,NRST*%
%TO.N,NRST*%
X65445000Y-98310000D03*
%TO.P,U1,8,PC0*%
%TO.N,unconnected-(U1-Pad8)*%
X65445000Y-98810000D03*
%TO.P,U1,9,PC1*%
%TO.N,unconnected-(U1-Pad9)*%
X65445000Y-99310000D03*
%TO.P,U1,10,PC2*%
%TO.N,unconnected-(U1-Pad10)*%
X65445000Y-99810000D03*
%TO.P,U1,11,PC3*%
%TO.N,unconnected-(U1-Pad11)*%
X65445000Y-100310000D03*
%TO.P,U1,12,VSSA*%
%TO.N,GND*%
X65445000Y-100810000D03*
%TO.P,U1,13,VREF+*%
%TO.N,+3.3VA*%
X65445000Y-101310000D03*
%TO.P,U1,14,PA0*%
%TO.N,unconnected-(U1-Pad14)*%
X65445000Y-101810000D03*
%TO.P,U1,15,PA1*%
%TO.N,unconnected-(U1-Pad15)*%
X65445000Y-102310000D03*
%TO.P,U1,16,PA2*%
%TO.N,LED_STATUS*%
X65445000Y-102810000D03*
D12*
%TO.P,U1,17,PA3*%
%TO.N,unconnected-(U1-Pad17)*%
X67370000Y-104735000D03*
%TO.P,U1,18,VSS*%
%TO.N,GND*%
X67870000Y-104735000D03*
%TO.P,U1,19,VDD*%
%TO.N,BUCK_VOUT_3V3*%
X68370000Y-104735000D03*
%TO.P,U1,20,PA4*%
%TO.N,unconnected-(U1-Pad20)*%
X68870000Y-104735000D03*
%TO.P,U1,21,PA5*%
%TO.N,unconnected-(U1-Pad21)*%
X69370000Y-104735000D03*
%TO.P,U1,22,PA6*%
%TO.N,unconnected-(U1-Pad22)*%
X69870000Y-104735000D03*
%TO.P,U1,23,PA7*%
%TO.N,unconnected-(U1-Pad23)*%
X70370000Y-104735000D03*
%TO.P,U1,24,PC4*%
%TO.N,unconnected-(U1-Pad24)*%
X70870000Y-104735000D03*
%TO.P,U1,25,PC5*%
%TO.N,unconnected-(U1-Pad25)*%
X71370000Y-104735000D03*
%TO.P,U1,26,PB0*%
%TO.N,unconnected-(U1-Pad26)*%
X71870000Y-104735000D03*
%TO.P,U1,27,PB1*%
%TO.N,unconnected-(U1-Pad27)*%
X72370000Y-104735000D03*
%TO.P,U1,28,PB2*%
%TO.N,unconnected-(U1-Pad28)*%
X72870000Y-104735000D03*
%TO.P,U1,29,PB10*%
%TO.N,unconnected-(U1-Pad29)*%
X73370000Y-104735000D03*
%TO.P,U1,30,VCAP1*%
%TO.N,Net-(C2-Pad1)*%
X73870000Y-104735000D03*
%TO.P,U1,31,VSS*%
%TO.N,GND*%
X74370000Y-104735000D03*
%TO.P,U1,32,VDD*%
%TO.N,BUCK_VOUT_3V3*%
X74870000Y-104735000D03*
D11*
%TO.P,U1,33,PB12*%
%TO.N,unconnected-(U1-Pad33)*%
X76795000Y-102810000D03*
%TO.P,U1,34,PB13*%
%TO.N,unconnected-(U1-Pad34)*%
X76795000Y-102310000D03*
%TO.P,U1,35,PB14*%
%TO.N,unconnected-(U1-Pad35)*%
X76795000Y-101810000D03*
%TO.P,U1,36,PB15*%
%TO.N,unconnected-(U1-Pad36)*%
X76795000Y-101310000D03*
%TO.P,U1,37,PC6*%
%TO.N,USART6_TX*%
X76795000Y-100810000D03*
%TO.P,U1,38,PC7*%
%TO.N,USART6_RX*%
X76795000Y-100310000D03*
%TO.P,U1,39,PC8*%
%TO.N,unconnected-(U1-Pad39)*%
X76795000Y-99810000D03*
%TO.P,U1,40,PC9*%
%TO.N,unconnected-(U1-Pad40)*%
X76795000Y-99310000D03*
%TO.P,U1,41,PA8*%
%TO.N,unconnected-(U1-Pad41)*%
X76795000Y-98810000D03*
%TO.P,U1,42,PA9*%
%TO.N,unconnected-(U1-Pad42)*%
X76795000Y-98310000D03*
%TO.P,U1,43,PA10*%
%TO.N,unconnected-(U1-Pad43)*%
X76795000Y-97810000D03*
%TO.P,U1,44,PA11*%
%TO.N,USB_D-*%
X76795000Y-97310000D03*
%TO.P,U1,45,PA12*%
%TO.N,USB_D+*%
X76795000Y-96810000D03*
%TO.P,U1,46,PA13*%
%TO.N,SWDIO*%
X76795000Y-96310000D03*
%TO.P,U1,47,VSS*%
%TO.N,GND*%
X76795000Y-95810000D03*
%TO.P,U1,48,VDD*%
%TO.N,BUCK_VOUT_3V3*%
X76795000Y-95310000D03*
D12*
%TO.P,U1,49,PA14*%
%TO.N,SWCLK*%
X74870000Y-93385000D03*
%TO.P,U1,50,PA15*%
%TO.N,unconnected-(U1-Pad50)*%
X74370000Y-93385000D03*
%TO.P,U1,51,PC10*%
%TO.N,unconnected-(U1-Pad51)*%
X73870000Y-93385000D03*
%TO.P,U1,52,PC11*%
%TO.N,unconnected-(U1-Pad52)*%
X73370000Y-93385000D03*
%TO.P,U1,53,PC12*%
%TO.N,unconnected-(U1-Pad53)*%
X72870000Y-93385000D03*
%TO.P,U1,54,PD2*%
%TO.N,unconnected-(U1-Pad54)*%
X72370000Y-93385000D03*
%TO.P,U1,55,PB3*%
%TO.N,SWO*%
X71870000Y-93385000D03*
%TO.P,U1,56,PB4*%
%TO.N,unconnected-(U1-Pad56)*%
X71370000Y-93385000D03*
%TO.P,U1,57,PB5*%
%TO.N,unconnected-(U1-Pad57)*%
X70870000Y-93385000D03*
%TO.P,U1,58,PB6*%
%TO.N,I2C1_SCL*%
X70370000Y-93385000D03*
%TO.P,U1,59,PB7*%
%TO.N,I2C1_SDA*%
X69870000Y-93385000D03*
%TO.P,U1,60,BOOT0*%
%TO.N,BOOT0*%
X69370000Y-93385000D03*
%TO.P,U1,61,PB8*%
%TO.N,unconnected-(U1-Pad61)*%
X68870000Y-93385000D03*
%TO.P,U1,62,PB9*%
%TO.N,unconnected-(U1-Pad62)*%
X68370000Y-93385000D03*
%TO.P,U1,63,VSS*%
%TO.N,GND*%
X67870000Y-93385000D03*
%TO.P,U1,64,VDD*%
%TO.N,BUCK_VOUT_3V3*%
X67370000Y-93385000D03*
%TD*%
D13*
%TO.P,U2,1,BST*%
%TO.N,BUCK_BST*%
X85800000Y-111887500D03*
%TO.P,U2,2,GND*%
%TO.N,GND*%
X86750000Y-111887500D03*
%TO.P,U2,3,FB*%
%TO.N,BUCK_FB*%
X87700000Y-111887500D03*
%TO.P,U2,4,EN*%
%TO.N,BUCK_EN*%
X87700000Y-109612500D03*
%TO.P,U2,5,IN*%
%TO.N,BUCK_IN*%
X86750000Y-109612500D03*
%TO.P,U2,6,SW*%
%TO.N,BUCK_SW*%
X85800000Y-109612500D03*
%TD*%
D14*
%TO.P,C4,1*%
%TO.N,BUCK_VOUT_3V3*%
X68480000Y-107000000D03*
%TO.P,C4,2*%
%TO.N,GND*%
X67520000Y-107000000D03*
%TD*%
D15*
%TO.P,H3,1,1*%
%TO.N,GND*%
X95500000Y-115000000D03*
D16*
X95500000Y-118225000D03*
X93219581Y-117280419D03*
X95500000Y-111775000D03*
X92275000Y-115000000D03*
X93219581Y-112719581D03*
X97780419Y-117280419D03*
X98725000Y-115000000D03*
X97780419Y-112719581D03*
%TD*%
D17*
%TO.P,R7,1*%
%TO.N,BUCK_VOUT_3V3*%
X68925000Y-86250000D03*
%TO.P,R7,2*%
%TO.N,I2C1_SDA*%
X70575000Y-86250000D03*
%TD*%
D18*
%TO.P,R2,1*%
%TO.N,BUCK_EN*%
X89750000Y-109575000D03*
%TO.P,R2,2*%
%TO.N,BUCK_IN*%
X89750000Y-107925000D03*
%TD*%
D19*
%TO.P,D2,1,K*%
%TO.N,Net-(D2-Pad1)*%
X88200000Y-96000000D03*
%TO.P,D2,2,A*%
%TO.N,+5V*%
X84900000Y-96000000D03*
%TD*%
D20*
%TO.P,R8,1*%
%TO.N,BUCK_FB*%
X86000000Y-114175000D03*
%TO.P,R8,2*%
%TO.N,BUCK_VOUT_3V3*%
X86000000Y-115825000D03*
%TD*%
%TO.P,R1,1*%
%TO.N,GND*%
X62500000Y-105000000D03*
%TO.P,R1,2*%
%TO.N,Net-(D1-Pad1)*%
X62500000Y-106650000D03*
%TD*%
D21*
%TO.P,L1,1*%
%TO.N,BUCK_VOUT_3V3*%
X59265000Y-102750000D03*
%TO.P,L1,2*%
%TO.N,+3.3VA*%
X60235000Y-102750000D03*
%TD*%
D22*
%TO.P,C9,1*%
%TO.N,HSE_IN*%
X58790000Y-95000000D03*
%TO.P,C9,2*%
%TO.N,GND*%
X59750000Y-95000000D03*
%TD*%
D20*
%TO.P,R3,1*%
%TO.N,GND*%
X91500000Y-107925000D03*
%TO.P,R3,2*%
%TO.N,BUCK_EN*%
X91500000Y-109575000D03*
%TD*%
D23*
%TO.P,C3,1*%
%TO.N,BUCK_VOUT_3V3*%
X63250000Y-95230000D03*
%TO.P,C3,2*%
%TO.N,GND*%
X63250000Y-94270000D03*
%TD*%
D18*
%TO.P,R9,1*%
%TO.N,Net-(R10-Pad2)*%
X87750000Y-115825000D03*
%TO.P,R9,2*%
%TO.N,BUCK_FB*%
X87750000Y-114175000D03*
%TD*%
D24*
%TO.P,C1,1*%
%TO.N,BUCK_VOUT_3V3*%
X65275000Y-91250000D03*
%TO.P,C1,2*%
%TO.N,GND*%
X63725000Y-91250000D03*
%TD*%
D20*
%TO.P,R10,1*%
%TO.N,GND*%
X89500000Y-114175000D03*
%TO.P,R10,2*%
%TO.N,Net-(R10-Pad2)*%
X89500000Y-115825000D03*
%TD*%
D25*
%TO.P,C2,1*%
%TO.N,Net-(C2-Pad1)*%
X73975000Y-107250000D03*
%TO.P,C2,2*%
%TO.N,GND*%
X75525000Y-107250000D03*
%TD*%
D26*
%TO.P,U3,1,I/O1*%
%TO.N,USB_CONN_D-*%
X88637500Y-91950000D03*
%TO.P,U3,2,GND*%
%TO.N,GND*%
X88637500Y-91000000D03*
%TO.P,U3,3,I/O2*%
%TO.N,USB_CONN_D+*%
X88637500Y-90050000D03*
%TO.P,U3,4,I/O2*%
%TO.N,USB_D+*%
X86362500Y-90050000D03*
%TO.P,U3,5,VBUS*%
%TO.N,+5V*%
X86362500Y-91000000D03*
%TO.P,U3,6,I/O1*%
%TO.N,USB_D-*%
X86362500Y-91950000D03*
%TD*%
D27*
%TO.P,F1,1*%
%TO.N,Net-(D2-Pad1)*%
X86787500Y-98250000D03*
%TO.P,F1,2*%
%TO.N,Net-(F1-Pad2)*%
X85212500Y-98250000D03*
%TD*%
D28*
%TO.P,C13,1*%
%TO.N,GND*%
X80725000Y-116750000D03*
%TO.P,C13,2*%
%TO.N,BUCK_VOUT_3V3*%
X77775000Y-116750000D03*
%TD*%
D16*
%TO.P,H2,1,1*%
%TO.N,GND*%
X57219581Y-112719581D03*
D15*
X59500000Y-115000000D03*
D16*
X56275000Y-115000000D03*
X62725000Y-115000000D03*
X61780419Y-117280419D03*
X59500000Y-111775000D03*
X61780419Y-112719581D03*
X57219581Y-117280419D03*
X59500000Y-118225000D03*
%TD*%
D29*
%TO.P,R4,1*%
%TO.N,BOOT0*%
X68010000Y-89500000D03*
%TO.P,R4,2*%
%TO.N,Net-(R4-Pad2)*%
X66990000Y-89500000D03*
%TD*%
D23*
%TO.P,C10,1*%
%TO.N,+3.3VA*%
X63250000Y-101480000D03*
%TO.P,C10,2*%
%TO.N,GND*%
X63250000Y-100520000D03*
%TD*%
D30*
%TO.P,L2,1*%
%TO.N,BUCK_SW*%
X79500000Y-109450000D03*
%TO.P,L2,2*%
%TO.N,BUCK_VOUT_3V3*%
X79500000Y-113550000D03*
%TD*%
D19*
%TO.P,D3,1,K*%
%TO.N,BUCK_SW*%
X79850000Y-104250000D03*
%TO.P,D3,2,A*%
%TO.N,GND*%
X83150000Y-104250000D03*
%TD*%
D31*
%TO.P,Q1,1,G*%
%TO.N,GND*%
X89700000Y-101312500D03*
%TO.P,Q1,2,S*%
%TO.N,Net-(D2-Pad1)*%
X87800000Y-101312500D03*
%TO.P,Q1,3,D*%
%TO.N,+12V*%
X88750000Y-103187500D03*
%TD*%
D22*
%TO.P,C5,1*%
%TO.N,BUCK_VOUT_3V3*%
X76520000Y-105750000D03*
%TO.P,C5,2*%
%TO.N,GND*%
X77480000Y-105750000D03*
%TD*%
D17*
%TO.P,R11,1*%
%TO.N,GND*%
X81600000Y-101750000D03*
%TO.P,R11,2*%
%TO.N,Net-(D4-Pad1)*%
X83250000Y-101750000D03*
%TD*%
D16*
%TO.P,H1,1,1*%
%TO.N,GND*%
X92275000Y-79750000D03*
X95500000Y-82975000D03*
X93219581Y-77469581D03*
X95500000Y-76525000D03*
X98725000Y-79750000D03*
X93219581Y-82030419D03*
X97780419Y-77469581D03*
D15*
X95500000Y-79750000D03*
D16*
X97780419Y-82030419D03*
%TD*%
D32*
%TO.P,C7,1*%
%TO.N,BUCK_VOUT_3V3*%
X79250000Y-95270000D03*
%TO.P,C7,2*%
%TO.N,GND*%
X79250000Y-96230000D03*
%TD*%
D23*
%TO.P,C8,1*%
%TO.N,+3.3VA*%
X61750000Y-101460000D03*
%TO.P,C8,2*%
%TO.N,GND*%
X61750000Y-100500000D03*
%TD*%
D33*
%TO.P,J5,1,Pin_1*%
%TO.N,BUCK_VOUT_3V3*%
X69375000Y-115050000D03*
D34*
%TO.P,J5,2,Pin_2*%
%TO.N,USART6_TX*%
X70625000Y-115050000D03*
%TO.P,J5,3,Pin_3*%
%TO.N,USART6_RX*%
X71875000Y-115050000D03*
%TO.P,J5,4,Pin_4*%
%TO.N,GND*%
X73125000Y-115050000D03*
%TD*%
D35*
%TO.P,J1,1,VBUS*%
%TO.N,+5V*%
X92125000Y-92350000D03*
%TO.P,J1,2,D-*%
%TO.N,USB_CONN_D-*%
X92125000Y-91550000D03*
%TO.P,J1,3,D+*%
%TO.N,USB_CONN_D+*%
X92125000Y-90750000D03*
%TO.P,J1,4,ID*%
%TO.N,unconnected-(J1-Pad4)*%
X92125000Y-89950000D03*
%TO.P,J1,5,GND*%
%TO.N,GND*%
X92125000Y-89150000D03*
D36*
%TO.P,J1,6,Shield*%
%TO.N,unconnected-(J1-Pad6)*%
X97625000Y-86350000D03*
X97625000Y-95150000D03*
X92125000Y-95150000D03*
X92125000Y-86350000D03*
%TD*%
D37*
%TO.P,D1,1,K*%
%TO.N,Net-(D1-Pad1)*%
X64500000Y-106537500D03*
%TO.P,D1,2,A*%
%TO.N,LED_STATUS*%
X64500000Y-104962500D03*
%TD*%
D38*
%TO.P,Y1,1,1*%
%TO.N,HSE_IN*%
X58400000Y-96900000D03*
%TO.P,Y1,2,2*%
%TO.N,GND*%
X58400000Y-99100000D03*
%TO.P,Y1,3,3*%
%TO.N,Net-(C11-Pad1)*%
X60100000Y-99100000D03*
%TO.P,Y1,4,4*%
%TO.N,GND*%
X60100000Y-96900000D03*
%TD*%
D39*
%TO.P,R5,1*%
%TO.N,BUCK_VOUT_3V3*%
X74075000Y-86250000D03*
%TO.P,R5,2*%
%TO.N,I2C1_SCL*%
X72425000Y-86250000D03*
%TD*%
D40*
%TO.P,FB1,1*%
%TO.N,Net-(F1-Pad2)*%
X85500000Y-101187500D03*
%TO.P,FB1,2*%
%TO.N,BUCK_IN*%
X85500000Y-103312500D03*
%TD*%
D41*
%TO.P,C12,1*%
%TO.N,BUCK_BST*%
X83500000Y-111775000D03*
%TO.P,C12,2*%
%TO.N,BUCK_SW*%
X83500000Y-110225000D03*
%TD*%
D29*
%TO.P,R6,1*%
%TO.N,HSE_OUT*%
X63510000Y-98000000D03*
%TO.P,R6,2*%
%TO.N,Net-(C11-Pad1)*%
X62490000Y-98000000D03*
%TD*%
D42*
%TO.P,J2,1,Pin_1*%
%TO.N,+12V*%
X95300000Y-103250000D03*
D43*
%TO.P,J2,2,Pin_2*%
%TO.N,GND*%
X95300000Y-99750000D03*
%TD*%
D44*
%TO.P,C6,1*%
%TO.N,BUCK_IN*%
X85525000Y-105750000D03*
%TO.P,C6,2*%
%TO.N,GND*%
X88475000Y-105750000D03*
%TD*%
D45*
%TO.P,J3,1,Pin_1*%
%TO.N,BUCK_VOUT_3V3*%
X73125000Y-79200000D03*
D34*
%TO.P,J3,2,Pin_2*%
%TO.N,I2C1_SCL*%
X71875000Y-79200000D03*
%TO.P,J3,3,Pin_3*%
%TO.N,I2C1_SDA*%
X70625000Y-79200000D03*
%TO.P,J3,4,Pin_4*%
%TO.N,GND*%
X69375000Y-79200000D03*
%TD*%
D14*
%TO.P,C11,1*%
%TO.N,Net-(C11-Pad1)*%
X59730000Y-101250000D03*
%TO.P,C11,2*%
%TO.N,GND*%
X58770000Y-101250000D03*
%TD*%
D15*
%TO.P,H4,1,1*%
%TO.N,GND*%
X59250000Y-79500000D03*
D16*
X56969581Y-81780419D03*
X61530419Y-77219581D03*
X56025000Y-79500000D03*
X59250000Y-82725000D03*
X56969581Y-77219581D03*
X61530419Y-81780419D03*
X62475000Y-79500000D03*
X59250000Y-76275000D03*
%TD*%
D46*
%TO.P,SW1,*%
%TO.N,*%
X55570000Y-92650000D03*
X55570000Y-85350000D03*
X57780000Y-92650000D03*
X57780000Y-85350000D03*
D47*
%TO.P,SW1,1,A*%
%TO.N,BUCK_VOUT_3V3*%
X58430000Y-86750000D03*
%TO.P,SW1,2,B*%
%TO.N,Net-(R4-Pad2)*%
X58430000Y-89750000D03*
%TO.P,SW1,3,C*%
%TO.N,GND*%
X58430000Y-91250000D03*
%TD*%
D22*
%TO.P,C14,1*%
%TO.N,BUCK_VOUT_3V3*%
X67020000Y-91250000D03*
%TO.P,C14,2*%
%TO.N,GND*%
X67980000Y-91250000D03*
%TD*%
D27*
%TO.P,D4,1,K*%
%TO.N,Net-(D4-Pad1)*%
X83212500Y-99500000D03*
%TO.P,D4,2,A*%
%TO.N,BUCK_VOUT_3V3*%
X81637500Y-99500000D03*
%TD*%
D48*
%TO.N,GND*%
X80750000Y-74250000D03*
X84500000Y-74250000D03*
X83250000Y-74250000D03*
%TO.N,BUCK_VOUT_3V3*%
X86750000Y-76000000D03*
%TO.N,NRST*%
X81750000Y-88250000D03*
X80710000Y-83710000D03*
%TO.N,USART6_TX*%
X70500000Y-106500000D03*
%TO.N,GND*%
X87500000Y-88750000D03*
X61500000Y-96500000D03*
X57000000Y-99250000D03*
%TO.N,USART6_TX*%
X74500000Y-102000000D03*
%TO.N,USART6_RX*%
X72000000Y-106500000D03*
X72000000Y-103000000D03*
%TO.N,GND*%
X89250000Y-89000000D03*
X89250000Y-88000000D03*
X90250000Y-88000000D03*
X90250000Y-89000000D03*
X86500000Y-113000000D03*
X62000000Y-99750000D03*
X63250000Y-99750000D03*
X67750000Y-90500000D03*
X78250000Y-105750000D03*
X75750000Y-108250000D03*
X67500000Y-108000000D03*
X62500000Y-104000000D03*
X81750000Y-117250000D03*
X81750000Y-116250000D03*
X90250000Y-113250000D03*
X89250000Y-113250000D03*
X90500000Y-101250000D03*
X89750000Y-100000000D03*
X92500000Y-108000000D03*
X91500000Y-107000000D03*
X89500000Y-106000000D03*
X89500000Y-105000000D03*
X84000000Y-104250000D03*
X83000000Y-105500000D03*
X80500000Y-102500000D03*
X80500000Y-101500000D03*
X80500000Y-94500000D03*
X61250000Y-93750000D03*
X59250000Y-91250000D03*
X62750000Y-91250000D03*
X63750000Y-92250000D03*
X64000000Y-94250000D03*
X60250000Y-93500000D03*
%TO.N,BUCK_VOUT_3V3*%
X80500000Y-100250000D03*
X80500000Y-99000000D03*
X84750000Y-115750000D03*
X86000000Y-116750000D03*
X76500000Y-116750000D03*
X77750000Y-118250000D03*
X81250000Y-112500000D03*
X81250000Y-113750000D03*
X77500000Y-112500000D03*
X77500000Y-113750000D03*
X79250000Y-94250000D03*
X60000000Y-86750000D03*
X76500000Y-105000000D03*
X68500000Y-107750000D03*
X59250000Y-103500000D03*
X58500000Y-102750000D03*
X62250000Y-95250000D03*
X66500000Y-90500000D03*
X65000000Y-92250000D03*
X66000000Y-92250000D03*
X68000000Y-86250000D03*
X75000000Y-86250000D03*
%TO.N,NRST*%
X74500000Y-98250000D03*
X81750000Y-93000000D03*
%TD*%
D49*
%TO.N,GND*%
X74370000Y-104735000D02*
X74370000Y-106095000D01*
X74370000Y-106095000D02*
X75525000Y-107250000D01*
X75525000Y-107250000D02*
X75525000Y-108025000D01*
X75525000Y-108025000D02*
X75750000Y-108250000D01*
X80250000Y-95500000D02*
X80250000Y-94750000D01*
X80250000Y-94750000D02*
X80500000Y-94500000D01*
X79250000Y-96230000D02*
X79520000Y-96230000D01*
X79520000Y-96230000D02*
X80250000Y-95500000D01*
X67980000Y-91250000D02*
X67980000Y-90730000D01*
X67980000Y-90730000D02*
X67750000Y-90500000D01*
D50*
X86500000Y-113000000D02*
X86750000Y-112750000D01*
X86750000Y-112750000D02*
X86750000Y-111887500D01*
D49*
X80710000Y-76050000D02*
X80710000Y-74290000D01*
X80710000Y-74290000D02*
X80750000Y-74250000D01*
X83250000Y-76050000D02*
X83250000Y-74250000D01*
X84520000Y-76050000D02*
X84520000Y-74270000D01*
X84520000Y-74270000D02*
X84500000Y-74250000D01*
%TO.N,BUCK_VOUT_3V3*%
X85790000Y-76050000D02*
X86700000Y-76050000D01*
X86700000Y-76050000D02*
X86750000Y-76000000D01*
%TO.N,NRST*%
X80710000Y-79950000D02*
X80710000Y-83710000D01*
%TO.N,SWCLK*%
X74870000Y-93385000D02*
X74870000Y-91380000D01*
X74870000Y-91380000D02*
X84520000Y-81730000D01*
X84520000Y-81730000D02*
X84520000Y-79950000D01*
%TO.N,SWDIO*%
X76795000Y-96310000D02*
X75919639Y-96310000D01*
X75250000Y-96250000D02*
X75250000Y-94750000D01*
X75919639Y-96310000D02*
X75859639Y-96250000D01*
X76000000Y-91500000D02*
X85790000Y-81710000D01*
X85790000Y-81710000D02*
X85790000Y-79950000D01*
X75859639Y-96250000D02*
X75250000Y-96250000D01*
X75250000Y-94750000D02*
X76000000Y-94000000D01*
X76000000Y-94000000D02*
X76000000Y-91500000D01*
%TO.N,USART6_TX*%
X70500000Y-106500000D02*
X70500000Y-114925000D01*
D51*
%TO.N,GND*%
X88637500Y-91000000D02*
X87996902Y-91000000D01*
X87996902Y-91000000D02*
X87500000Y-90503098D01*
X87500000Y-90503098D02*
X87500000Y-88750000D01*
%TO.N,+5V*%
X86362500Y-91000000D02*
X86852138Y-91000000D01*
X86852138Y-91000000D02*
X87500000Y-91647862D01*
X87500000Y-91647862D02*
X87500000Y-92800489D01*
X87500000Y-92800489D02*
X88500000Y-93800489D01*
D49*
%TO.N,GND*%
X57000000Y-99250000D02*
X58250000Y-99250000D01*
X58250000Y-99250000D02*
X58400000Y-99100000D01*
X60100000Y-96900000D02*
X61100000Y-96900000D01*
X61100000Y-96900000D02*
X61500000Y-96500000D01*
%TO.N,BUCK_VOUT_3V3*%
X58430000Y-86750000D02*
X60000000Y-86750000D01*
%TO.N,USART6_TX*%
X70500000Y-114925000D02*
X70625000Y-115050000D01*
X75690000Y-100810000D02*
X74500000Y-102000000D01*
X76795000Y-100810000D02*
X75690000Y-100810000D01*
%TO.N,USART6_RX*%
X72000000Y-106500000D02*
X71875000Y-106625000D01*
X71875000Y-106625000D02*
X71875000Y-115050000D01*
X74690000Y-100310000D02*
X72000000Y-103000000D01*
X76795000Y-100310000D02*
X74690000Y-100310000D01*
D52*
%TO.N,unconnected-(J1-Pad6)*%
X97625000Y-86350000D02*
X97625000Y-95150000D01*
X92125000Y-86350000D02*
X97625000Y-86350000D01*
X92125000Y-95150000D02*
X97625000Y-95150000D01*
%TO.N,GND*%
X92125000Y-89150000D02*
X90400000Y-89150000D01*
X90400000Y-89150000D02*
X90250000Y-89000000D01*
D53*
X89250000Y-89000000D02*
X89250000Y-88000000D01*
X89250000Y-89000000D02*
X90250000Y-89000000D01*
X90250000Y-88000000D02*
X90250000Y-89000000D01*
X89250000Y-88000000D02*
X90250000Y-88000000D01*
D49*
X61750000Y-100500000D02*
X61750000Y-100000000D01*
X61750000Y-100000000D02*
X62000000Y-99750000D01*
X63250000Y-100520000D02*
X63250000Y-99750000D01*
X77480000Y-105750000D02*
X78250000Y-105750000D01*
X67520000Y-107000000D02*
X67520000Y-107980000D01*
X67520000Y-107980000D02*
X67500000Y-108000000D01*
X62500000Y-105000000D02*
X62500000Y-104000000D01*
X63250000Y-94270000D02*
X63980000Y-94270000D01*
X63980000Y-94270000D02*
X64000000Y-94250000D01*
D53*
X80725000Y-116750000D02*
X81250000Y-116750000D01*
X81250000Y-116750000D02*
X81750000Y-117250000D01*
X81250000Y-116750000D02*
X81750000Y-116250000D01*
X89500000Y-114175000D02*
X89500000Y-114000000D01*
X89500000Y-114000000D02*
X90250000Y-113250000D01*
X89500000Y-114175000D02*
X89500000Y-113500000D01*
X89500000Y-113500000D02*
X89250000Y-113250000D01*
X89700000Y-101312500D02*
X89700000Y-100050000D01*
X89700000Y-100050000D02*
X89750000Y-100000000D01*
X89700000Y-101312500D02*
X90437500Y-101312500D01*
X90437500Y-101312500D02*
X90500000Y-101250000D01*
X91500000Y-107925000D02*
X92425000Y-107925000D01*
X92425000Y-107925000D02*
X92500000Y-108000000D01*
X91500000Y-107925000D02*
X91500000Y-107000000D01*
X88475000Y-105750000D02*
X88750000Y-105750000D01*
X88750000Y-105750000D02*
X89500000Y-105000000D01*
X88475000Y-105750000D02*
X89250000Y-105750000D01*
X89250000Y-105750000D02*
X89500000Y-106000000D01*
X83150000Y-104250000D02*
X83150000Y-105350000D01*
X83150000Y-105350000D02*
X83000000Y-105500000D01*
X83150000Y-104250000D02*
X84000000Y-104250000D01*
X80500000Y-102500000D02*
X80850000Y-102500000D01*
X80850000Y-102500000D02*
X81600000Y-101750000D01*
X81600000Y-101750000D02*
X80750000Y-101750000D01*
X80750000Y-101750000D02*
X80500000Y-101500000D01*
D50*
X63750000Y-92250000D02*
X63750000Y-91275000D01*
X63750000Y-91275000D02*
X63725000Y-91250000D01*
X63725000Y-91250000D02*
X62750000Y-91250000D01*
X57930000Y-91250000D02*
X59250000Y-91250000D01*
D49*
X59750000Y-95000000D02*
X60000000Y-95000000D01*
X60000000Y-95000000D02*
X61250000Y-93750000D01*
X59750000Y-95000000D02*
X59750000Y-94000000D01*
X59750000Y-94000000D02*
X60250000Y-93500000D01*
D53*
%TO.N,BUCK_VOUT_3V3*%
X81637500Y-99500000D02*
X81250000Y-99500000D01*
X81250000Y-99500000D02*
X80500000Y-100250000D01*
X81637500Y-99500000D02*
X81000000Y-99500000D01*
X81000000Y-99500000D02*
X80500000Y-99000000D01*
X77775000Y-116750000D02*
X76500000Y-116750000D01*
X77775000Y-116750000D02*
X77775000Y-118225000D01*
X77775000Y-118225000D02*
X77750000Y-118250000D01*
X86000000Y-115825000D02*
X86000000Y-116750000D01*
X86000000Y-115825000D02*
X84825000Y-115825000D01*
X84825000Y-115825000D02*
X84750000Y-115750000D01*
X81250000Y-113750000D02*
X79700000Y-113750000D01*
X79700000Y-113750000D02*
X79500000Y-113550000D01*
X81250000Y-112500000D02*
X80550000Y-112500000D01*
X80550000Y-112500000D02*
X79500000Y-113550000D01*
X77500000Y-112500000D02*
X78450000Y-112500000D01*
X78450000Y-112500000D02*
X79500000Y-113550000D01*
X79500000Y-113550000D02*
X77700000Y-113550000D01*
X77700000Y-113550000D02*
X77500000Y-113750000D01*
D49*
%TO.N,GND*%
X79250000Y-96230000D02*
X78730000Y-96230000D01*
X78730000Y-96230000D02*
X78310000Y-95810000D01*
X78310000Y-95810000D02*
X76795000Y-95810000D01*
%TO.N,BUCK_VOUT_3V3*%
X79250000Y-95270000D02*
X79250000Y-94250000D01*
D52*
X68925000Y-86250000D02*
X68000000Y-86250000D01*
X74075000Y-86250000D02*
X75000000Y-86250000D01*
X65275000Y-91250000D02*
X65275000Y-91525000D01*
X65275000Y-91525000D02*
X66000000Y-92250000D01*
X65275000Y-91250000D02*
X65275000Y-91975000D01*
X65275000Y-91975000D02*
X65000000Y-92250000D01*
D49*
X67020000Y-91250000D02*
X67020000Y-91020000D01*
X67020000Y-91020000D02*
X66500000Y-90500000D01*
D54*
X63250000Y-95230000D02*
X62270000Y-95230000D01*
X62270000Y-95230000D02*
X62250000Y-95250000D01*
D49*
X76520000Y-105750000D02*
X76520000Y-105020000D01*
X76520000Y-105020000D02*
X76500000Y-105000000D01*
X68480000Y-107000000D02*
X68480000Y-107730000D01*
X68480000Y-107730000D02*
X68500000Y-107750000D01*
D52*
X59265000Y-102750000D02*
X59265000Y-103485000D01*
X59265000Y-103485000D02*
X59250000Y-103500000D01*
X59265000Y-102750000D02*
X58500000Y-102750000D01*
D49*
%TO.N,NRST*%
X81750000Y-88250000D02*
X81750000Y-93000000D01*
X74440000Y-98310000D02*
X74500000Y-98250000D01*
X65445000Y-98310000D02*
X74440000Y-98310000D01*
D53*
%TO.N,BUCK_VOUT_3V3*%
X77775000Y-116750000D02*
X77775000Y-115275000D01*
X77775000Y-115275000D02*
X79500000Y-113550000D01*
D55*
%TO.N,USB_CONN_D+*%
X88637500Y-90050000D02*
X90544933Y-90050000D01*
%TO.N,USB_CONN_D-*%
X88637500Y-91950000D02*
X88957424Y-91630076D01*
X90016916Y-91330067D02*
X91905067Y-91330067D01*
%TO.N,USB_CONN_D+*%
X90544933Y-90530067D02*
X91761704Y-90530067D01*
%TO.N,USB_CONN_D-*%
X91905067Y-91330067D02*
X92125000Y-91550000D01*
%TO.N,USB_CONN_D+*%
X91761704Y-90530067D02*
X91981637Y-90750000D01*
X90544933Y-90050000D02*
X90544933Y-90530067D01*
X91981637Y-90750000D02*
X92125000Y-90750000D01*
%TO.N,USB_CONN_D-*%
X88957424Y-91630076D02*
X89716907Y-91630076D01*
X89716907Y-91630076D02*
X90016916Y-91330067D01*
%TO.N,USB_D+*%
X76795000Y-96810000D02*
X76812843Y-96827843D01*
X76812843Y-96827843D02*
X78873056Y-96827843D01*
X85369924Y-90651147D02*
X85651147Y-90369924D01*
X78885289Y-96840076D02*
X79614711Y-96840076D01*
%TO.N,USB_D-*%
X78692969Y-97304379D02*
X79807032Y-97304379D01*
%TO.N,USB_D+*%
X85651147Y-90369924D02*
X86042576Y-90369924D01*
%TO.N,USB_D-*%
X76795000Y-97310000D02*
X76812843Y-97292157D01*
%TO.N,USB_D+*%
X79614711Y-96840076D02*
X85369924Y-91084863D01*
%TO.N,USB_D-*%
X76812843Y-97292157D02*
X78680746Y-97292157D01*
%TO.N,USB_D+*%
X85369924Y-91084863D02*
X85369924Y-90651147D01*
X78873056Y-96827843D02*
X78885289Y-96840076D01*
X86042576Y-90369924D02*
X86362500Y-90050000D01*
%TO.N,USB_D-*%
X78680746Y-97292157D02*
X78692969Y-97304379D01*
X79807032Y-97304379D02*
X85161411Y-91950000D01*
X85161411Y-91950000D02*
X86362500Y-91950000D01*
D53*
%TO.N,BUCK_SW*%
X79850000Y-104250000D02*
X79850000Y-109100000D01*
X79850000Y-109100000D02*
X79500000Y-109450000D01*
D52*
%TO.N,+5V*%
X92125000Y-92350000D02*
X89950489Y-92350000D01*
X89950489Y-92350000D02*
X88500000Y-93800489D01*
X88500000Y-93800489D02*
X88500000Y-94500000D01*
X85250000Y-94500000D02*
X84900000Y-94850000D01*
X88500000Y-94500000D02*
X85250000Y-94500000D01*
X84900000Y-94850000D02*
X84900000Y-96000000D01*
D53*
%TO.N,+12V*%
X95300000Y-103250000D02*
X88812500Y-103250000D01*
X88812500Y-103250000D02*
X88750000Y-103187500D01*
%TO.N,BUCK_IN*%
X85500000Y-103312500D02*
X85500000Y-105725000D01*
X85500000Y-105725000D02*
X85525000Y-105750000D01*
D50*
X86750000Y-106975000D02*
X86750000Y-108000000D01*
X86750000Y-108000000D02*
X86750000Y-109612500D01*
D53*
X89750000Y-107925000D02*
X86825000Y-107925000D01*
X86825000Y-107925000D02*
X86750000Y-108000000D01*
D50*
%TO.N,BUCK_SW*%
X83500000Y-110225000D02*
X85187500Y-110225000D01*
X85187500Y-110225000D02*
X85800000Y-109612500D01*
X79500000Y-109450000D02*
X82725000Y-109450000D01*
X82725000Y-109450000D02*
X83500000Y-110225000D01*
%TO.N,Net-(D4-Pad1)*%
X83212500Y-99500000D02*
X83212500Y-101712500D01*
X83212500Y-101712500D02*
X83250000Y-101750000D01*
%TO.N,Net-(D2-Pad1)*%
X88200000Y-96000000D02*
X88200000Y-96837500D01*
X88200000Y-96837500D02*
X86787500Y-98250000D01*
X87800000Y-101312500D02*
X87800000Y-99262500D01*
X87800000Y-99262500D02*
X86787500Y-98250000D01*
%TO.N,Net-(F1-Pad2)*%
X85212500Y-98250000D02*
X85212500Y-100900000D01*
X85212500Y-100900000D02*
X85500000Y-101187500D01*
%TO.N,BUCK_IN*%
X85525000Y-105750000D02*
X86750000Y-106975000D01*
%TO.N,BUCK_BST*%
X83500000Y-111775000D02*
X85687500Y-111775000D01*
X85687500Y-111775000D02*
X85800000Y-111887500D01*
%TO.N,Net-(R10-Pad2)*%
X89500000Y-115825000D02*
X87750000Y-115825000D01*
%TO.N,BUCK_FB*%
X87700000Y-111887500D02*
X87700000Y-114125000D01*
X87700000Y-114125000D02*
X87750000Y-114175000D01*
X86000000Y-114175000D02*
X87750000Y-114175000D01*
%TO.N,BUCK_EN*%
X87700000Y-109612500D02*
X89712500Y-109612500D01*
X89712500Y-109612500D02*
X89750000Y-109575000D01*
X91500000Y-109575000D02*
X89750000Y-109575000D01*
D49*
%TO.N,SWO*%
X71870000Y-93385000D02*
X71870000Y-92509639D01*
X71870000Y-92509639D02*
X79250000Y-85129639D01*
X79250000Y-85129639D02*
X79250000Y-78000000D01*
X79250000Y-78000000D02*
X83250000Y-78000000D01*
X83250000Y-78000000D02*
X83250000Y-79800000D01*
%TO.N,I2C1_SCL*%
X72425000Y-86250000D02*
X71875000Y-85700000D01*
X71875000Y-85700000D02*
X71875000Y-79200000D01*
%TO.N,I2C1_SDA*%
X70625000Y-79200000D02*
X70625000Y-86200000D01*
X70625000Y-86200000D02*
X70575000Y-86250000D01*
%TO.N,I2C1_SCL*%
X70370000Y-93385000D02*
X70370000Y-92130000D01*
X70370000Y-92130000D02*
X72425000Y-90075000D01*
X72425000Y-90075000D02*
X72425000Y-86250000D01*
%TO.N,I2C1_SDA*%
X69870000Y-93385000D02*
X69870000Y-92130000D01*
X69870000Y-92130000D02*
X69869520Y-92129520D01*
X69869520Y-92129520D02*
X69869520Y-89380480D01*
X69869520Y-89380480D02*
X70575000Y-88675000D01*
X70575000Y-88675000D02*
X70575000Y-86250000D01*
%TO.N,Net-(C11-Pad1)*%
X62490000Y-98000000D02*
X62490000Y-98010000D01*
X62490000Y-98010000D02*
X61400000Y-99100000D01*
X61400000Y-99100000D02*
X60100000Y-99100000D01*
%TO.N,+3.3VA*%
X61750000Y-102250000D02*
X61250000Y-102750000D01*
X61250000Y-102750000D02*
X60235000Y-102750000D01*
X61750000Y-101460000D02*
X61750000Y-102250000D01*
D52*
%TO.N,Net-(D1-Pad1)*%
X64500000Y-106537500D02*
X62612500Y-106537500D01*
X62612500Y-106537500D02*
X62500000Y-106650000D01*
D49*
%TO.N,Net-(R4-Pad2)*%
X57930000Y-89750000D02*
X66740000Y-89750000D01*
X66740000Y-89750000D02*
X66990000Y-89500000D01*
%TO.N,BOOT0*%
X68010000Y-89500000D02*
X69370000Y-90860000D01*
X69370000Y-90860000D02*
X69370000Y-93385000D01*
%TO.N,GND*%
X59750000Y-95000000D02*
X59750000Y-96550000D01*
X59750000Y-96550000D02*
X60100000Y-96900000D01*
%TO.N,HSE_IN*%
X58400000Y-96900000D02*
X58400000Y-95390000D01*
X58400000Y-95390000D02*
X58790000Y-95000000D01*
%TO.N,Net-(C11-Pad1)*%
X60100000Y-99100000D02*
X60100000Y-100880000D01*
X60100000Y-100880000D02*
X59730000Y-101250000D01*
%TO.N,GND*%
X58400000Y-99100000D02*
X58400000Y-100880000D01*
X58400000Y-100880000D02*
X58770000Y-101250000D01*
%TO.N,BUCK_VOUT_3V3*%
X79250000Y-95270000D02*
X76835000Y-95270000D01*
X76835000Y-95270000D02*
X76795000Y-95310000D01*
%TO.N,Net-(C2-Pad1)*%
X73870000Y-104735000D02*
X73870000Y-107145000D01*
X73870000Y-107145000D02*
X73975000Y-107250000D01*
%TO.N,BUCK_VOUT_3V3*%
X74870000Y-105370000D02*
X75250000Y-105750000D01*
X74870000Y-104735000D02*
X74870000Y-105370000D01*
X75250000Y-105750000D02*
X76520000Y-105750000D01*
X68480000Y-107000000D02*
X68370000Y-106890000D01*
X68370000Y-106890000D02*
X68370000Y-104735000D01*
%TO.N,GND*%
X67870000Y-104735000D02*
X67870000Y-106650000D01*
X67870000Y-106650000D02*
X67520000Y-107000000D01*
%TO.N,LED_STATUS*%
X65445000Y-102810000D02*
X65445000Y-104017500D01*
X65445000Y-104017500D02*
X64500000Y-104962500D01*
%TO.N,GND*%
X63250000Y-100520000D02*
X61770000Y-100520000D01*
X61770000Y-100520000D02*
X61750000Y-100500000D01*
%TO.N,+3.3VA*%
X63250000Y-101480000D02*
X61770000Y-101480000D01*
X61770000Y-101480000D02*
X61750000Y-101460000D01*
X63250000Y-101480000D02*
X63420000Y-101310000D01*
X63420000Y-101310000D02*
X65445000Y-101310000D01*
%TO.N,GND*%
X63250000Y-100520000D02*
X63540000Y-100810000D01*
X63540000Y-100810000D02*
X65445000Y-100810000D01*
%TO.N,HSE_IN*%
X58400000Y-96900000D02*
X58400000Y-97000000D01*
X58400000Y-97000000D02*
X59349511Y-97949511D01*
X59349511Y-97949511D02*
X61300489Y-97949511D01*
X61940000Y-97310000D02*
X65445000Y-97310000D01*
X61300489Y-97949511D02*
X61940000Y-97310000D01*
%TO.N,HSE_OUT*%
X65445000Y-97810000D02*
X63700000Y-97810000D01*
X63700000Y-97810000D02*
X63510000Y-98000000D01*
D54*
%TO.N,BUCK_VOUT_3V3*%
X65445000Y-95310000D02*
X63330000Y-95310000D01*
X63330000Y-95310000D02*
X63250000Y-95230000D01*
D49*
%TO.N,GND*%
X67870000Y-93385000D02*
X67870000Y-91360000D01*
X67870000Y-91360000D02*
X67980000Y-91250000D01*
%TO.N,BUCK_VOUT_3V3*%
X67370000Y-93385000D02*
X67370000Y-91600000D01*
X67370000Y-91600000D02*
X67020000Y-91250000D01*
%TD*%
M02*
