%TF.GenerationSoftware,KiCad,Pcbnew,(6.0.5-0)*%
%TF.CreationDate,2022-07-05T17:16:21+02:00*%
%TF.ProjectId,HWCorso,4857436f-7273-46f2-9e6b-696361645f70,rev?*%
%TF.SameCoordinates,Original*%
%TF.FileFunction,Legend,Bot*%
%TF.FilePolarity,Positive*%
%FSLAX46Y46*%
G04 Gerber Fmt 4.6, Leading zero omitted, Abs format (unit mm)*
G04 Created by KiCad (PCBNEW (6.0.5-0)) date 2022-07-05 17:16:21*
%MOMM*%
%LPD*%
G01*
G04 APERTURE LIST*
%ADD10C,0.150000*%
G04 APERTURE END LIST*
D10*
X90967857Y-118377380D02*
X91301190Y-117901190D01*
X91539285Y-118377380D02*
X91539285Y-117377380D01*
X91158333Y-117377380D01*
X91063095Y-117425000D01*
X91015476Y-117472619D01*
X90967857Y-117567857D01*
X90967857Y-117710714D01*
X91015476Y-117805952D01*
X91063095Y-117853571D01*
X91158333Y-117901190D01*
X91539285Y-117901190D01*
X90539285Y-117853571D02*
X90205952Y-117853571D01*
X90063095Y-118377380D02*
X90539285Y-118377380D01*
X90539285Y-117377380D01*
X90063095Y-117377380D01*
X89777380Y-117377380D02*
X89444047Y-118377380D01*
X89110714Y-117377380D01*
X87491666Y-118377380D02*
X88063095Y-118377380D01*
X87777380Y-118377380D02*
X87777380Y-117377380D01*
X87872619Y-117520238D01*
X87967857Y-117615476D01*
X88063095Y-117663095D01*
X87063095Y-118282142D02*
X87015476Y-118329761D01*
X87063095Y-118377380D01*
X87110714Y-118329761D01*
X87063095Y-118282142D01*
X87063095Y-118377380D01*
X86396428Y-117377380D02*
X86301190Y-117377380D01*
X86205952Y-117425000D01*
X86158333Y-117472619D01*
X86110714Y-117567857D01*
X86063095Y-117758333D01*
X86063095Y-117996428D01*
X86110714Y-118186904D01*
X86158333Y-118282142D01*
X86205952Y-118329761D01*
X86301190Y-118377380D01*
X86396428Y-118377380D01*
X86491666Y-118329761D01*
X86539285Y-118282142D01*
X86586904Y-118186904D01*
X86634523Y-117996428D01*
X86634523Y-117758333D01*
X86586904Y-117567857D01*
X86539285Y-117472619D01*
X86491666Y-117425000D01*
X86396428Y-117377380D01*
X91489285Y-120277380D02*
X91489285Y-119277380D01*
X91060714Y-120277380D02*
X91060714Y-119753571D01*
X91108333Y-119658333D01*
X91203571Y-119610714D01*
X91346428Y-119610714D01*
X91441666Y-119658333D01*
X91489285Y-119705952D01*
X90727380Y-119610714D02*
X90346428Y-119610714D01*
X90584523Y-119277380D02*
X90584523Y-120134523D01*
X90536904Y-120229761D01*
X90441666Y-120277380D01*
X90346428Y-120277380D01*
X90155952Y-119610714D02*
X89775000Y-119610714D01*
X90013095Y-119277380D02*
X90013095Y-120134523D01*
X89965476Y-120229761D01*
X89870238Y-120277380D01*
X89775000Y-120277380D01*
X89441666Y-119610714D02*
X89441666Y-120610714D01*
X89441666Y-119658333D02*
X89346428Y-119610714D01*
X89155952Y-119610714D01*
X89060714Y-119658333D01*
X89013095Y-119705952D01*
X88965476Y-119801190D01*
X88965476Y-120086904D01*
X89013095Y-120182142D01*
X89060714Y-120229761D01*
X89155952Y-120277380D01*
X89346428Y-120277380D01*
X89441666Y-120229761D01*
X88584523Y-120229761D02*
X88489285Y-120277380D01*
X88298809Y-120277380D01*
X88203571Y-120229761D01*
X88155952Y-120134523D01*
X88155952Y-120086904D01*
X88203571Y-119991666D01*
X88298809Y-119944047D01*
X88441666Y-119944047D01*
X88536904Y-119896428D01*
X88584523Y-119801190D01*
X88584523Y-119753571D01*
X88536904Y-119658333D01*
X88441666Y-119610714D01*
X88298809Y-119610714D01*
X88203571Y-119658333D01*
X87727380Y-120182142D02*
X87679761Y-120229761D01*
X87727380Y-120277380D01*
X87775000Y-120229761D01*
X87727380Y-120182142D01*
X87727380Y-120277380D01*
X87727380Y-119658333D02*
X87679761Y-119705952D01*
X87727380Y-119753571D01*
X87775000Y-119705952D01*
X87727380Y-119658333D01*
X87727380Y-119753571D01*
X86536904Y-119229761D02*
X87394047Y-120515476D01*
X85489285Y-119229761D02*
X86346428Y-120515476D01*
X84727380Y-119610714D02*
X84727380Y-120420238D01*
X84775000Y-120515476D01*
X84822619Y-120563095D01*
X84917857Y-120610714D01*
X85060714Y-120610714D01*
X85155952Y-120563095D01*
X84727380Y-120229761D02*
X84822619Y-120277380D01*
X85013095Y-120277380D01*
X85108333Y-120229761D01*
X85155952Y-120182142D01*
X85203571Y-120086904D01*
X85203571Y-119801190D01*
X85155952Y-119705952D01*
X85108333Y-119658333D01*
X85013095Y-119610714D01*
X84822619Y-119610714D01*
X84727380Y-119658333D01*
X84251190Y-120277380D02*
X84251190Y-119610714D01*
X84251190Y-119277380D02*
X84298809Y-119325000D01*
X84251190Y-119372619D01*
X84203571Y-119325000D01*
X84251190Y-119277380D01*
X84251190Y-119372619D01*
X83917857Y-119610714D02*
X83536904Y-119610714D01*
X83775000Y-119277380D02*
X83775000Y-120134523D01*
X83727380Y-120229761D01*
X83632142Y-120277380D01*
X83536904Y-120277380D01*
X83203571Y-120277380D02*
X83203571Y-119277380D01*
X82775000Y-120277380D02*
X82775000Y-119753571D01*
X82822619Y-119658333D01*
X82917857Y-119610714D01*
X83060714Y-119610714D01*
X83155952Y-119658333D01*
X83203571Y-119705952D01*
X81870238Y-119610714D02*
X81870238Y-120277380D01*
X82298809Y-119610714D02*
X82298809Y-120134523D01*
X82251190Y-120229761D01*
X82155952Y-120277380D01*
X82013095Y-120277380D01*
X81917857Y-120229761D01*
X81870238Y-120182142D01*
X81394047Y-120277380D02*
X81394047Y-119277380D01*
X81394047Y-119658333D02*
X81298809Y-119610714D01*
X81108333Y-119610714D01*
X81013095Y-119658333D01*
X80965476Y-119705952D01*
X80917857Y-119801190D01*
X80917857Y-120086904D01*
X80965476Y-120182142D01*
X81013095Y-120229761D01*
X81108333Y-120277380D01*
X81298809Y-120277380D01*
X81394047Y-120229761D01*
X80489285Y-120182142D02*
X80441666Y-120229761D01*
X80489285Y-120277380D01*
X80536904Y-120229761D01*
X80489285Y-120182142D01*
X80489285Y-120277380D01*
X79584523Y-120229761D02*
X79679761Y-120277380D01*
X79870238Y-120277380D01*
X79965476Y-120229761D01*
X80013095Y-120182142D01*
X80060714Y-120086904D01*
X80060714Y-119801190D01*
X80013095Y-119705952D01*
X79965476Y-119658333D01*
X79870238Y-119610714D01*
X79679761Y-119610714D01*
X79584523Y-119658333D01*
X79013095Y-120277380D02*
X79108333Y-120229761D01*
X79155952Y-120182142D01*
X79203571Y-120086904D01*
X79203571Y-119801190D01*
X79155952Y-119705952D01*
X79108333Y-119658333D01*
X79013095Y-119610714D01*
X78870238Y-119610714D01*
X78775000Y-119658333D01*
X78727380Y-119705952D01*
X78679761Y-119801190D01*
X78679761Y-120086904D01*
X78727380Y-120182142D01*
X78775000Y-120229761D01*
X78870238Y-120277380D01*
X79013095Y-120277380D01*
X78251190Y-120277380D02*
X78251190Y-119610714D01*
X78251190Y-119705952D02*
X78203571Y-119658333D01*
X78108333Y-119610714D01*
X77965476Y-119610714D01*
X77870238Y-119658333D01*
X77822619Y-119753571D01*
X77822619Y-120277380D01*
X77822619Y-119753571D02*
X77775000Y-119658333D01*
X77679761Y-119610714D01*
X77536904Y-119610714D01*
X77441666Y-119658333D01*
X77394047Y-119753571D01*
X77394047Y-120277380D01*
X76203571Y-119229761D02*
X77060714Y-120515476D01*
X75346428Y-119325000D02*
X75441666Y-119277380D01*
X75584523Y-119277380D01*
X75727380Y-119325000D01*
X75822619Y-119420238D01*
X75870238Y-119515476D01*
X75917857Y-119705952D01*
X75917857Y-119848809D01*
X75870238Y-120039285D01*
X75822619Y-120134523D01*
X75727380Y-120229761D01*
X75584523Y-120277380D01*
X75489285Y-120277380D01*
X75346428Y-120229761D01*
X75298809Y-120182142D01*
X75298809Y-119848809D01*
X75489285Y-119848809D01*
X74870238Y-120277380D02*
X74870238Y-119610714D01*
X74870238Y-119277380D02*
X74917857Y-119325000D01*
X74870238Y-119372619D01*
X74822619Y-119325000D01*
X74870238Y-119277380D01*
X74870238Y-119372619D01*
X74251190Y-120277380D02*
X74346428Y-120229761D01*
X74394047Y-120182142D01*
X74441666Y-120086904D01*
X74441666Y-119801190D01*
X74394047Y-119705952D01*
X74346428Y-119658333D01*
X74251190Y-119610714D01*
X74108333Y-119610714D01*
X74013095Y-119658333D01*
X73965476Y-119705952D01*
X73917857Y-119801190D01*
X73917857Y-120086904D01*
X73965476Y-120182142D01*
X74013095Y-120229761D01*
X74108333Y-120277380D01*
X74251190Y-120277380D01*
X73584523Y-119610714D02*
X73346428Y-120277380D01*
X73108333Y-119610714D01*
X72298809Y-120277380D02*
X72298809Y-119753571D01*
X72346428Y-119658333D01*
X72441666Y-119610714D01*
X72632142Y-119610714D01*
X72727380Y-119658333D01*
X72298809Y-120229761D02*
X72394047Y-120277380D01*
X72632142Y-120277380D01*
X72727380Y-120229761D01*
X72775000Y-120134523D01*
X72775000Y-120039285D01*
X72727380Y-119944047D01*
X72632142Y-119896428D01*
X72394047Y-119896428D01*
X72298809Y-119848809D01*
X71822619Y-119610714D02*
X71822619Y-120277380D01*
X71822619Y-119705952D02*
X71775000Y-119658333D01*
X71679761Y-119610714D01*
X71536904Y-119610714D01*
X71441666Y-119658333D01*
X71394047Y-119753571D01*
X71394047Y-120277380D01*
X70917857Y-119610714D02*
X70917857Y-120277380D01*
X70917857Y-119705952D02*
X70870238Y-119658333D01*
X70775000Y-119610714D01*
X70632142Y-119610714D01*
X70536904Y-119658333D01*
X70489285Y-119753571D01*
X70489285Y-120277380D01*
X70013095Y-120277380D02*
X70013095Y-119610714D01*
X70013095Y-119277380D02*
X70060714Y-119325000D01*
X70013095Y-119372619D01*
X69965476Y-119325000D01*
X70013095Y-119277380D01*
X70013095Y-119372619D01*
X68965476Y-120277380D02*
X69298809Y-119801190D01*
X69536904Y-120277380D02*
X69536904Y-119277380D01*
X69155952Y-119277380D01*
X69060714Y-119325000D01*
X69013095Y-119372619D01*
X68965476Y-119467857D01*
X68965476Y-119610714D01*
X69013095Y-119705952D01*
X69060714Y-119753571D01*
X69155952Y-119801190D01*
X69536904Y-119801190D01*
X68108333Y-120277380D02*
X68108333Y-119753571D01*
X68155952Y-119658333D01*
X68251190Y-119610714D01*
X68441666Y-119610714D01*
X68536904Y-119658333D01*
X68108333Y-120229761D02*
X68203571Y-120277380D01*
X68441666Y-120277380D01*
X68536904Y-120229761D01*
X68584523Y-120134523D01*
X68584523Y-120039285D01*
X68536904Y-119944047D01*
X68441666Y-119896428D01*
X68203571Y-119896428D01*
X68108333Y-119848809D01*
X67679761Y-120229761D02*
X67584523Y-120277380D01*
X67394047Y-120277380D01*
X67298809Y-120229761D01*
X67251190Y-120134523D01*
X67251190Y-120086904D01*
X67298809Y-119991666D01*
X67394047Y-119944047D01*
X67536904Y-119944047D01*
X67632142Y-119896428D01*
X67679761Y-119801190D01*
X67679761Y-119753571D01*
X67632142Y-119658333D01*
X67536904Y-119610714D01*
X67394047Y-119610714D01*
X67298809Y-119658333D01*
X66441666Y-120229761D02*
X66536904Y-120277380D01*
X66727380Y-120277380D01*
X66822619Y-120229761D01*
X66870238Y-120134523D01*
X66870238Y-119753571D01*
X66822619Y-119658333D01*
X66727380Y-119610714D01*
X66536904Y-119610714D01*
X66441666Y-119658333D01*
X66394047Y-119753571D01*
X66394047Y-119848809D01*
X66870238Y-119944047D01*
X65965476Y-120277380D02*
X65965476Y-119610714D01*
X65965476Y-119801190D02*
X65917857Y-119705952D01*
X65870238Y-119658333D01*
X65775000Y-119610714D01*
X65679761Y-119610714D01*
X64917857Y-120277380D02*
X64917857Y-119753571D01*
X64965476Y-119658333D01*
X65060714Y-119610714D01*
X65251190Y-119610714D01*
X65346428Y-119658333D01*
X64917857Y-120229761D02*
X65013095Y-120277380D01*
X65251190Y-120277380D01*
X65346428Y-120229761D01*
X65394047Y-120134523D01*
X65394047Y-120039285D01*
X65346428Y-119944047D01*
X65251190Y-119896428D01*
X65013095Y-119896428D01*
X64917857Y-119848809D01*
X64108333Y-119753571D02*
X64441666Y-119753571D01*
X64441666Y-120277380D02*
X64441666Y-119277380D01*
X63965476Y-119277380D01*
M02*
