M48
; DRILL file {KiCad 6.0.7-f9a2dced07~116~ubuntu22.04.1} date lun 22 ago 2022, 17:29:23
; FORMAT={-:-/ absolute / inch / decimal}
; #@! TF.CreationDate,2022-08-22T17:29:23+02:00
; #@! TF.GenerationSoftware,Kicad,Pcbnew,6.0.7-f9a2dced07~116~ubuntu22.04.1
; #@! TF.FileFunction,Plated,1,4,PTH
FMAT,2
INCH
; #@! TA.AperFunction,Plated,PTH,ViaDrill
T1C0.0157
; #@! TA.AperFunction,Plated,PTH,ComponentDrill
T2C0.0197
; #@! TA.AperFunction,Plated,PTH,ComponentDrill
T3C0.0236
; #@! TA.AperFunction,Plated,PTH,ComponentDrill
T4C0.0335
; #@! TA.AperFunction,Plated,PTH,ComponentDrill
T5C0.1260
%
G90
G05
T1
X5.063Y-4.2827
X5.063Y-4.3835
X5.0634Y-4.1823
X5.0634Y-4.2335
X5.102Y-3.6433
X5.1291Y-3.8461
X5.1646Y-3.5736
X5.2057Y-3.7608
X5.2667Y-3.7283
X5.3031Y-3.8159
X5.3179Y-3.6939
X5.3642Y-3.7608
X5.3809Y-3.6634
X5.4398Y-4.1831
X5.4498Y-3.4921
X5.4543Y-4.0992
X5.4748Y-3.7516
X5.4754Y-3.6683
X5.4929Y-3.8626
X5.5181Y-4.5039
X5.5189Y-3.9807
X5.5484Y-3.7878
X5.5783Y-4.4465
X5.5827Y-4.089
X5.5886Y-4.5465
X5.6012Y-3.5976
X5.6059Y-4.5843
X5.62Y-4.21
X5.6526Y-4.6398
X5.6543Y-4.2343
X5.6624Y-3.6388
X5.6663Y-3.5089
X5.6827Y-3.9638
X5.7224Y-4.248
X5.7264Y-3.5089
X5.7402Y-3.6063
X5.7476Y-4.0583
X5.7539Y-4.3789
X5.7549Y-4.6437
X5.7765Y-3.7865
X5.7765Y-3.8279
X5.7854Y-4.6171
X5.7963Y-4.3632
X5.802Y-4.2764
X5.8278Y-4.2254
X5.8413Y-3.7465
X5.8691Y-4.5974
X5.8927Y-4.2982
X5.9163Y-4.2618
X5.9331Y-4.2205
X5.9484Y-3.7319
X5.9559Y-3.9224
X5.9636Y-3.8688
X5.9913Y-3.965
X5.9928Y-3.8395
X6.0299Y-4.1862
X6.0299Y-4.2618
X6.0362Y-3.3929
X6.0709Y-4.1874
X6.0748Y-4.3496
X6.0819Y-4.6303
X6.1348Y-3.6171
X6.1827Y-3.315
X6.1921Y-3.6803
X6.1976Y-3.7272
X6.2622Y-3.9311
X6.2988Y-4.1772
X6.3614Y-3.9268
X6.389Y-4.1815
T2
X5.0744Y-3.8909
X5.0744Y-3.9516
X5.0744Y-4.0126
X5.0744Y-4.0732
X5.1138Y-3.8909
X5.1138Y-3.9516
X5.1138Y-4.0126
X5.1138Y-4.0732
X5.1531Y-3.8909
X5.1531Y-3.9516
X5.1531Y-4.0126
X5.1531Y-4.0732
X5.3429Y-4.6224
X5.3823Y-4.6224
X5.4217Y-4.6224
X5.461Y-4.6224
X5.9669Y-4.3874
X5.9685Y-4.5913
X6.0079Y-4.5913
X6.2685Y-3.5795
X6.2685Y-3.6189
X6.2685Y-3.6583
X6.4024Y-3.5752
X6.4024Y-3.6146
X6.4024Y-3.6539
X6.4063Y-3.7594
X6.4063Y-3.7988
X6.4063Y-3.8382
T4
X5.4276Y-3.4355
X5.6244Y-3.4355
T5
X5.1406Y-4.5835
X5.1413Y-3.3736
X6.3535Y-4.5835
X6.3539Y-3.3768
T3
G00X5.3882Y-3.343
M15
G01X5.3882Y-3.3155
M16
G05
G00X5.6638Y-3.3155
M15
G01X5.6638Y-3.343
M16
G05
T0
M30
