%TF.GenerationSoftware,KiCad,Pcbnew,6.0.7-f9a2dced07~116~ubuntu22.04.1*%
%TF.CreationDate,2022-08-22T17:29:25+02:00*%
%TF.ProjectId,DroneHardware,44726f6e-6548-4617-9264-776172652e6b,rev?*%
%TF.SameCoordinates,Original*%
%TF.FileFunction,Copper,L4,Bot*%
%TF.FilePolarity,Positive*%
%FSLAX46Y46*%
G04 Gerber Fmt 4.6, Leading zero omitted, Abs format (unit mm)*
G04 Created by KiCad (PCBNEW 6.0.7-f9a2dced07~116~ubuntu22.04.1) date 2022-08-22 17:29:25*
%MOMM*%
%LPD*%
G01*
G04 APERTURE LIST*
%TA.AperFunction,ComponentPad*%
%ADD10R,0.850000X0.850000*%
%TD*%
%TA.AperFunction,ComponentPad*%
%ADD11O,0.850000X0.850000*%
%TD*%
%TA.AperFunction,ComponentPad*%
%ADD12O,1.200000X1.900000*%
%TD*%
%TA.AperFunction,ComponentPad*%
%ADD13C,1.450000*%
%TD*%
%TA.AperFunction,ComponentPad*%
%ADD14C,3.200000*%
%TD*%
%TA.AperFunction,ViaPad*%
%ADD15C,0.800000*%
%TD*%
%TA.AperFunction,Conductor*%
%ADD16C,0.300000*%
%TD*%
%TA.AperFunction,Conductor*%
%ADD17C,0.200000*%
%TD*%
%TA.AperFunction,Conductor*%
%ADD18C,0.400000*%
%TD*%
%TA.AperFunction,Conductor*%
%ADD19C,0.600000*%
%TD*%
%TA.AperFunction,Conductor*%
%ADD20C,0.250000*%
%TD*%
G04 APERTURE END LIST*
D10*
%TO.P,J208,1,Pin_1*%
%TO.N,PWM4*%
X130890000Y-103460000D03*
D11*
%TO.P,J208,2,Pin_2*%
%TO.N,+5V*%
X129890000Y-103460000D03*
%TO.P,J208,3,Pin_3*%
%TO.N,GND*%
X128890000Y-103460000D03*
%TD*%
D10*
%TO.P,J210,1,Pin_1*%
%TO.N,USART1_TX*%
X162620000Y-92810000D03*
D11*
%TO.P,J210,2,Pin_2*%
%TO.N,USART1_RX*%
X162620000Y-91810000D03*
%TO.P,J210,3,Pin_3*%
%TO.N,unconnected-(J210-Pad3)*%
X162620000Y-90810000D03*
%TD*%
D10*
%TO.P,J202,1,Pin_1*%
%TO.N,+5V*%
X152600000Y-116620000D03*
D11*
%TO.P,J202,2,Pin_2*%
%TO.N,GND*%
X151600000Y-116620000D03*
%TD*%
D12*
%TO.P,J201,6,Shield*%
%TO.N,unconnected-(J201-Pad6)*%
X143860000Y-84562500D03*
D13*
X137860000Y-87262500D03*
X142860000Y-87262500D03*
D12*
X136860000Y-84562500D03*
%TD*%
D10*
%TO.P,J207,1,Pin_1*%
%TO.N,PWM3*%
X130890000Y-101920000D03*
D11*
%TO.P,J207,2,Pin_2*%
%TO.N,+5V*%
X129890000Y-101920000D03*
%TO.P,J207,3,Pin_3*%
%TO.N,GND*%
X128890000Y-101920000D03*
%TD*%
D10*
%TO.P,J209,1,Pin_1*%
%TO.N,USART6_TX*%
X162720000Y-97490000D03*
D11*
%TO.P,J209,2,Pin_2*%
%TO.N,USART6_RX*%
X162720000Y-96490000D03*
%TO.P,J209,3,Pin_3*%
%TO.N,USART6_CK*%
X162720000Y-95490000D03*
%TD*%
D14*
%TO.P,H201,*%
%TO.N,*%
X161380000Y-116420000D03*
%TD*%
D10*
%TO.P,J206,1,Pin_1*%
%TO.N,PWM2*%
X130890000Y-100370000D03*
D11*
%TO.P,J206,2,Pin_2*%
%TO.N,+5V*%
X129890000Y-100370000D03*
%TO.P,J206,3,Pin_3*%
%TO.N,GND*%
X128890000Y-100370000D03*
%TD*%
D14*
%TO.P,H203,*%
%TO.N,*%
X161390000Y-85770000D03*
%TD*%
%TO.P,H204,*%
%TO.N,*%
X130590000Y-85690000D03*
%TD*%
D10*
%TO.P,J211,1,Pin_1*%
%TO.N,USART3_TX*%
X159220000Y-90920000D03*
D11*
%TO.P,J211,2,Pin_2*%
%TO.N,USART3_RX*%
X159220000Y-91920000D03*
%TO.P,J211,3,Pin_3*%
%TO.N,unconnected-(J211-Pad3)*%
X159220000Y-92920000D03*
%TD*%
D14*
%TO.P,H202,*%
%TO.N,*%
X130570000Y-116420000D03*
%TD*%
D10*
%TO.P,J205,1,Pin_1*%
%TO.N,PWM1*%
X130890000Y-98830000D03*
D11*
%TO.P,J205,2,Pin_2*%
%TO.N,+5V*%
X129890000Y-98830000D03*
%TO.P,J205,3,Pin_3*%
%TO.N,GND*%
X128890000Y-98830000D03*
%TD*%
D10*
%TO.P,J101,1,Pin_1*%
%TO.N,BUCK_IN*%
X151560000Y-111440000D03*
%TD*%
%TO.P,J102,1,Pin_1*%
%TO.N,GND*%
X135710000Y-117410000D03*
D11*
%TO.P,J102,2,Pin_2*%
X136710000Y-117410000D03*
%TO.P,J102,3,Pin_3*%
X137710000Y-117410000D03*
%TO.P,J102,4,Pin_4*%
X138710000Y-117410000D03*
%TD*%
D15*
%TO.N,PWM1*%
X132225000Y-95525000D03*
%TO.N,PWM2*%
X133775000Y-94700000D03*
%TO.N,PWM3*%
X135075000Y-93825000D03*
%TO.N,PWM4*%
X136675000Y-93050000D03*
%TO.N,USB_D+*%
X151474498Y-98266962D03*
%TO.N,USB_D-*%
X152216962Y-97524498D03*
%TO.N,USB_D+*%
X146722929Y-97227596D03*
%TO.N,USB_D-*%
X146722929Y-96177596D03*
%TO.N,GND*%
X146150000Y-111225000D03*
%TO.N,BUCK_VOUT_3V3*%
X145350000Y-107900000D03*
%TO.N,GYRO_MOSI_PIN*%
X148025000Y-107325000D03*
%TO.N,GYRO_INT_EXTI*%
X149675000Y-109175000D03*
%TO.N,PWM1*%
X150275000Y-108250000D03*
%TO.N,PWM2*%
X150700000Y-107200000D03*
%TO.N,GYRO_MOSI_PIN*%
X147225000Y-110825000D03*
%TO.N,BUCK_VOUT_3V3*%
X128610000Y-106230000D03*
X140930000Y-96210000D03*
X143925000Y-89125000D03*
X153320000Y-86180000D03*
X143575000Y-117850000D03*
X162280000Y-106210000D03*
X140180000Y-101110000D03*
X153160000Y-106330000D03*
X157420000Y-94670000D03*
X143825000Y-92425000D03*
%TO.N,GND*%
X128600000Y-108780000D03*
X153160000Y-108250000D03*
X157280000Y-93480000D03*
X139520000Y-98110000D03*
X145800000Y-91600000D03*
X138540000Y-104120000D03*
X128610000Y-107530000D03*
X144340000Y-100680000D03*
X146175000Y-117950000D03*
X131180000Y-90770000D03*
X145450000Y-89125000D03*
X143620000Y-107550000D03*
X149075000Y-116775000D03*
X128600000Y-111340000D03*
X154300000Y-110480000D03*
X154200000Y-106360000D03*
X136250000Y-95525000D03*
X140160000Y-114400000D03*
X155825000Y-91875000D03*
X138425000Y-88700000D03*
X134700000Y-96925000D03*
X141950000Y-115480000D03*
X159060000Y-99850000D03*
X157040000Y-84200000D03*
X161580000Y-99740000D03*
X159990000Y-106100000D03*
X139060000Y-95290000D03*
X146950000Y-117275000D03*
%TO.N,+5V*%
X130280000Y-97690000D03*
X139075000Y-93175000D03*
X142270000Y-91380000D03*
X129590000Y-92540000D03*
X154480000Y-117610000D03*
%TO.N,SWDIO*%
X145990000Y-103080000D03*
X138170000Y-106250000D03*
%TO.N,SWCLK*%
X151090000Y-94790000D03*
X148370000Y-95160000D03*
%TO.N,PWM4*%
X141800000Y-103860000D03*
%TO.N,PWM3*%
X142748000Y-106934000D03*
%TO.N,GYRO_INT_EXTI*%
X142390000Y-116440000D03*
%TO.N,USART3_TX*%
X151280000Y-99630000D03*
%TO.N,GYRO_MISO_PIN*%
X147370000Y-108620000D03*
X141690000Y-112940000D03*
%TO.N,USART3_RX*%
X152180000Y-100710000D03*
%TD*%
D16*
%TO.N,PWM1*%
X150275000Y-108250000D02*
X149825000Y-107800000D01*
X149825000Y-107800000D02*
X149825000Y-106925000D01*
X149017443Y-106117443D02*
X147120557Y-106117443D01*
X147120557Y-106117443D02*
X147120557Y-107229443D01*
X149825000Y-106925000D02*
X149017443Y-106117443D01*
X147120557Y-107229443D02*
X145250000Y-109100000D01*
X145250000Y-109100000D02*
X144137999Y-109100000D01*
X137151519Y-115561519D02*
X131826000Y-110236000D01*
X131834000Y-95916000D02*
X132225000Y-95525000D01*
X144137999Y-109100000D02*
X137676480Y-115561519D01*
X137676480Y-115561519D02*
X137151519Y-115561519D01*
X131826000Y-110236000D02*
X131834000Y-110228000D01*
X131834000Y-110228000D02*
X131834000Y-95916000D01*
%TO.N,PWM2*%
X133250000Y-98300000D02*
X132950000Y-98000000D01*
X132342000Y-101008000D02*
X133250000Y-100100000D01*
X132342000Y-110029572D02*
X132342000Y-101008000D01*
X149567923Y-105617923D02*
X145974950Y-105617923D01*
X137358428Y-115062000D02*
X132334000Y-110037572D01*
X137469572Y-115062000D02*
X137358428Y-115062000D01*
X133250000Y-100100000D02*
X133250000Y-98300000D01*
X144500786Y-108030786D02*
X137469572Y-115062000D01*
X145974950Y-105617923D02*
X144500786Y-107092087D01*
X132334000Y-110037572D02*
X132342000Y-110029572D01*
X144500786Y-107092087D02*
X144500786Y-108030786D01*
X150700000Y-107200000D02*
X150700000Y-106750000D01*
X150700000Y-106750000D02*
X149567923Y-105617923D01*
X132950000Y-98000000D02*
X132950000Y-96160788D01*
X132950000Y-96160788D02*
X133775000Y-95335788D01*
X133775000Y-95335788D02*
X133775000Y-94700000D01*
%TO.N,PWM3*%
X142748000Y-106934000D02*
X142748000Y-109077144D01*
X133750000Y-98075000D02*
X133450000Y-97775000D01*
X142748000Y-109077144D02*
X137416572Y-114408572D01*
X132842000Y-102333000D02*
X133750000Y-101425000D01*
X137416572Y-114408572D02*
X137411428Y-114408572D01*
X137411428Y-114408572D02*
X132842000Y-109839144D01*
X132842000Y-109839144D02*
X132842000Y-102333000D01*
X133750000Y-101425000D02*
X133750000Y-98075000D01*
X133450000Y-96367894D02*
X135075000Y-94742894D01*
X135075000Y-94742894D02*
X135075000Y-93825000D01*
X133450000Y-97775000D02*
X133450000Y-96367894D01*
%TO.N,PWM4*%
X141800000Y-103860000D02*
X141800000Y-104077127D01*
X133950000Y-97500000D02*
X133950000Y-96575000D01*
X141800000Y-104077127D02*
X140467127Y-105410000D01*
X140467127Y-105410000D02*
X135585000Y-105410000D01*
X135585000Y-105410000D02*
X133450000Y-103275000D01*
X133450000Y-103275000D02*
X133450000Y-103225000D01*
X133450000Y-103225000D02*
X134250000Y-102425000D01*
X134250000Y-102425000D02*
X134250000Y-97800000D01*
X134250000Y-97800000D02*
X133950000Y-97500000D01*
X133950000Y-96575000D02*
X136675000Y-93850000D01*
X136675000Y-93850000D02*
X136675000Y-93050000D01*
D17*
%TO.N,USB_D+*%
X150559398Y-96927597D02*
X151474498Y-97842697D01*
X146722929Y-97227596D02*
X147022928Y-96927597D01*
%TO.N,USB_D-*%
X146722929Y-96177596D02*
X147022928Y-96477595D01*
X147022928Y-96477595D02*
X150745794Y-96477595D01*
%TO.N,USB_D+*%
X147022928Y-96927597D02*
X150559398Y-96927597D01*
X151474498Y-97842697D02*
X151474498Y-98266962D01*
%TO.N,USB_D-*%
X150745794Y-96477595D02*
X151792697Y-97524498D01*
X151792697Y-97524498D02*
X152216962Y-97524498D01*
D16*
%TO.N,GYRO_MOSI_PIN*%
X148025000Y-107325000D02*
X148120000Y-107420000D01*
X148120000Y-107420000D02*
X148120000Y-109930000D01*
X148120000Y-109930000D02*
X147225000Y-110825000D01*
%TO.N,GYRO_INT_EXTI*%
X148799520Y-111187607D02*
X148812393Y-111187607D01*
X148812393Y-111187607D02*
X149675000Y-110325000D01*
X149675000Y-110325000D02*
X149675000Y-109175000D01*
%TO.N,GYRO_MOSI_PIN*%
X147250000Y-110850000D02*
X147225000Y-110825000D01*
D18*
%TO.N,+5V*%
X145730000Y-98490000D02*
X140970000Y-93730000D01*
X140970000Y-93730000D02*
X140970000Y-92680000D01*
X155099511Y-104975673D02*
X148613838Y-98490000D01*
X148613838Y-98490000D02*
X145730000Y-98490000D01*
X155099511Y-116950489D02*
X155099511Y-104975673D01*
D19*
X130280000Y-97690000D02*
X130280000Y-93230000D01*
D18*
X154460000Y-117590000D02*
X155099511Y-116950489D01*
X140970000Y-92680000D02*
X139580000Y-92680000D01*
X139580000Y-92680000D02*
X139080000Y-93180000D01*
D19*
X130280000Y-93230000D02*
X129590000Y-92540000D01*
D18*
X140970000Y-92680000D02*
X142270000Y-91380000D01*
D20*
%TO.N,SWDIO*%
X141734614Y-106090000D02*
X144574614Y-103250000D01*
X145820000Y-103250000D02*
X145990000Y-103080000D01*
X138210000Y-106220000D02*
X139520000Y-106220000D01*
X144574614Y-103250000D02*
X145820000Y-103250000D01*
X139520000Y-106220000D02*
X139650000Y-106090000D01*
X139650000Y-106090000D02*
X141734614Y-106090000D01*
%TO.N,SWCLK*%
X148370000Y-95160000D02*
X148740000Y-94790000D01*
X148740000Y-94790000D02*
X151090000Y-94790000D01*
D16*
%TO.N,PWM4*%
X141986000Y-103886000D02*
X141986000Y-103891127D01*
%TO.N,GYRO_INT_EXTI*%
X148799520Y-111187607D02*
X144307723Y-115679404D01*
X143150596Y-115679404D02*
X142390000Y-116440000D01*
X144307723Y-115679404D02*
X143150596Y-115679404D01*
%TO.N,USART3_TX*%
X155820489Y-95723387D02*
X155820489Y-93872384D01*
X158772873Y-90920000D02*
X159220000Y-90920000D01*
X155820489Y-93872384D02*
X158772873Y-90920000D01*
X151913876Y-99630000D02*
X155820489Y-95723387D01*
X151280000Y-99630000D02*
X151913876Y-99630000D01*
%TO.N,GYRO_MISO_PIN*%
X143110000Y-111520000D02*
X141690000Y-112940000D01*
X147370000Y-108620000D02*
X147370000Y-108670000D01*
X147370000Y-108670000D02*
X144520000Y-111520000D01*
X144520000Y-111520000D02*
X143110000Y-111520000D01*
%TO.N,USART3_RX*%
X159220000Y-91920000D02*
X159010000Y-91920000D01*
X159010000Y-91920000D02*
X158445489Y-92484511D01*
X152439970Y-100710000D02*
X152180000Y-100710000D01*
X158445489Y-94704481D02*
X152439970Y-100710000D01*
X152180000Y-100710000D02*
X152180000Y-100687127D01*
X158445489Y-92484511D02*
X158445489Y-94704481D01*
%TD*%
M02*
