%TF.GenerationSoftware,KiCad,Pcbnew,6.0.7-f9a2dced07~116~ubuntu22.04.1*%
%TF.CreationDate,2022-08-22T17:29:25+02:00*%
%TF.ProjectId,DroneHardware,44726f6e-6548-4617-9264-776172652e6b,rev?*%
%TF.SameCoordinates,Original*%
%TF.FileFunction,Copper,L3,Inr*%
%TF.FilePolarity,Positive*%
%FSLAX46Y46*%
G04 Gerber Fmt 4.6, Leading zero omitted, Abs format (unit mm)*
G04 Created by KiCad (PCBNEW 6.0.7-f9a2dced07~116~ubuntu22.04.1) date 2022-08-22 17:29:25*
%MOMM*%
%LPD*%
G01*
G04 APERTURE LIST*
%TA.AperFunction,ComponentPad*%
%ADD10R,0.850000X0.850000*%
%TD*%
%TA.AperFunction,ComponentPad*%
%ADD11O,0.850000X0.850000*%
%TD*%
%TA.AperFunction,ComponentPad*%
%ADD12O,1.200000X1.900000*%
%TD*%
%TA.AperFunction,ComponentPad*%
%ADD13C,1.450000*%
%TD*%
%TA.AperFunction,ComponentPad*%
%ADD14C,3.200000*%
%TD*%
%TA.AperFunction,ViaPad*%
%ADD15C,0.800000*%
%TD*%
G04 APERTURE END LIST*
D10*
%TO.N,PWM4*%
%TO.C,J208*%
X130890000Y-103460000D03*
D11*
%TO.N,+5V*%
X129890000Y-103460000D03*
%TO.N,GND*%
X128890000Y-103460000D03*
%TD*%
D10*
%TO.N,USART1_TX*%
%TO.C,J210*%
X162620000Y-92810000D03*
D11*
%TO.N,USART1_RX*%
X162620000Y-91810000D03*
%TO.N,unconnected-(J210-Pad3)*%
X162620000Y-90810000D03*
%TD*%
D10*
%TO.N,+5V*%
%TO.C,J202*%
X152600000Y-116620000D03*
D11*
%TO.N,GND*%
X151600000Y-116620000D03*
%TD*%
D12*
%TO.N,unconnected-(J201-Pad6)*%
%TO.C,J201*%
X143860000Y-84562500D03*
D13*
X137860000Y-87262500D03*
X142860000Y-87262500D03*
D12*
X136860000Y-84562500D03*
%TD*%
D10*
%TO.N,PWM3*%
%TO.C,J207*%
X130890000Y-101920000D03*
D11*
%TO.N,+5V*%
X129890000Y-101920000D03*
%TO.N,GND*%
X128890000Y-101920000D03*
%TD*%
D10*
%TO.N,USART6_TX*%
%TO.C,J209*%
X162720000Y-97490000D03*
D11*
%TO.N,USART6_RX*%
X162720000Y-96490000D03*
%TO.N,USART6_CK*%
X162720000Y-95490000D03*
%TD*%
D14*
%TO.N,*%
%TO.C,H201*%
X161380000Y-116420000D03*
%TD*%
D10*
%TO.N,PWM2*%
%TO.C,J206*%
X130890000Y-100370000D03*
D11*
%TO.N,+5V*%
X129890000Y-100370000D03*
%TO.N,GND*%
X128890000Y-100370000D03*
%TD*%
D14*
%TO.N,*%
%TO.C,H203*%
X161390000Y-85770000D03*
%TD*%
%TO.N,*%
%TO.C,H204*%
X130590000Y-85690000D03*
%TD*%
D10*
%TO.N,USART3_TX*%
%TO.C,J211*%
X159220000Y-90920000D03*
D11*
%TO.N,USART3_RX*%
X159220000Y-91920000D03*
%TO.N,unconnected-(J211-Pad3)*%
X159220000Y-92920000D03*
%TD*%
D14*
%TO.N,*%
%TO.C,H202*%
X130570000Y-116420000D03*
%TD*%
D10*
%TO.N,PWM1*%
%TO.C,J205*%
X130890000Y-98830000D03*
D11*
%TO.N,+5V*%
X129890000Y-98830000D03*
%TO.N,GND*%
X128890000Y-98830000D03*
%TD*%
D10*
%TO.N,BUCK_IN*%
%TO.C,J101*%
X151560000Y-111440000D03*
%TD*%
%TO.N,GND*%
%TO.C,J102*%
X135710000Y-117410000D03*
D11*
X136710000Y-117410000D03*
X137710000Y-117410000D03*
X138710000Y-117410000D03*
%TD*%
D15*
%TO.N,PWM1*%
X132225000Y-95525000D03*
%TO.N,PWM2*%
X133775000Y-94700000D03*
%TO.N,PWM3*%
X135075000Y-93825000D03*
%TO.N,PWM4*%
X136675000Y-93050000D03*
%TO.N,USB_D+*%
X151474498Y-98266962D03*
%TO.N,USB_D-*%
X152216962Y-97524498D03*
%TO.N,USB_D+*%
X146722929Y-97227596D03*
%TO.N,USB_D-*%
X146722929Y-96177596D03*
%TO.N,GND*%
X146150000Y-111225000D03*
%TO.N,BUCK_VOUT_3V3*%
X145350000Y-107900000D03*
%TO.N,GYRO_MOSI_PIN*%
X148025000Y-107325000D03*
%TO.N,GYRO_INT_EXTI*%
X149675000Y-109175000D03*
%TO.N,PWM1*%
X150275000Y-108250000D03*
%TO.N,PWM2*%
X150700000Y-107200000D03*
%TO.N,GYRO_MOSI_PIN*%
X147225000Y-110825000D03*
%TO.N,BUCK_VOUT_3V3*%
X128610000Y-106230000D03*
X140930000Y-96210000D03*
X143925000Y-89125000D03*
X153320000Y-86180000D03*
X143575000Y-117850000D03*
X162280000Y-106210000D03*
X140180000Y-101110000D03*
X153160000Y-106330000D03*
X157420000Y-94670000D03*
X143825000Y-92425000D03*
%TO.N,GND*%
X128600000Y-108780000D03*
X153160000Y-108250000D03*
X157280000Y-93480000D03*
X139520000Y-98110000D03*
X145800000Y-91600000D03*
X138540000Y-104120000D03*
X128610000Y-107530000D03*
X144340000Y-100680000D03*
X146175000Y-117950000D03*
X131180000Y-90770000D03*
X145450000Y-89125000D03*
X143620000Y-107550000D03*
X149075000Y-116775000D03*
X128600000Y-111340000D03*
X154300000Y-110480000D03*
X154200000Y-106360000D03*
X136250000Y-95525000D03*
X140160000Y-114400000D03*
X155825000Y-91875000D03*
X138425000Y-88700000D03*
X134700000Y-96925000D03*
X141950000Y-115480000D03*
X159060000Y-99850000D03*
X157040000Y-84200000D03*
X161580000Y-99740000D03*
X159990000Y-106100000D03*
X139060000Y-95290000D03*
X146950000Y-117275000D03*
%TO.N,+5V*%
X130280000Y-97690000D03*
X139075000Y-93175000D03*
X142270000Y-91380000D03*
X129590000Y-92540000D03*
X154480000Y-117610000D03*
%TO.N,SWDIO*%
X145990000Y-103080000D03*
X138170000Y-106250000D03*
%TO.N,SWCLK*%
X151090000Y-94790000D03*
X148370000Y-95160000D03*
%TO.N,PWM4*%
X141800000Y-103860000D03*
%TO.N,PWM3*%
X142748000Y-106934000D03*
%TO.N,GYRO_INT_EXTI*%
X142390000Y-116440000D03*
%TO.N,USART3_TX*%
X151280000Y-99630000D03*
%TO.N,GYRO_MISO_PIN*%
X147370000Y-108620000D03*
X141690000Y-112940000D03*
%TO.N,USART3_RX*%
X152180000Y-100710000D03*
%TD*%
%TA.AperFunction,Conductor*%
%TO.N,BUCK_VOUT_3V3*%
G36*
X146488211Y-83579693D02*
G01*
X156128202Y-83584389D01*
X156196312Y-83604424D01*
X156242779Y-83658103D01*
X156252849Y-83728381D01*
X156237259Y-83773389D01*
X156219174Y-83804714D01*
X156205473Y-83828444D01*
X156146458Y-84010072D01*
X156145768Y-84016633D01*
X156145768Y-84016635D01*
X156131486Y-84152521D01*
X156126496Y-84200000D01*
X156146458Y-84389928D01*
X156205473Y-84571556D01*
X156300960Y-84736944D01*
X156305378Y-84741851D01*
X156305379Y-84741852D01*
X156406986Y-84854698D01*
X156428747Y-84878866D01*
X156466913Y-84906595D01*
X156543657Y-84962353D01*
X156583248Y-84991118D01*
X156589276Y-84993802D01*
X156589278Y-84993803D01*
X156660743Y-85025621D01*
X156757712Y-85068794D01*
X156851113Y-85088647D01*
X156938056Y-85107128D01*
X156938061Y-85107128D01*
X156944513Y-85108500D01*
X157135487Y-85108500D01*
X157141939Y-85107128D01*
X157141944Y-85107128D01*
X157228887Y-85088647D01*
X157322288Y-85068794D01*
X157419257Y-85025621D01*
X157490722Y-84993803D01*
X157490724Y-84993802D01*
X157496752Y-84991118D01*
X157536344Y-84962353D01*
X157613087Y-84906595D01*
X157651253Y-84878866D01*
X157673014Y-84854698D01*
X157774621Y-84741852D01*
X157774622Y-84741851D01*
X157779040Y-84736944D01*
X157874527Y-84571556D01*
X157933542Y-84389928D01*
X157953504Y-84200000D01*
X157948514Y-84152521D01*
X157934232Y-84016635D01*
X157934232Y-84016633D01*
X157933542Y-84010072D01*
X157874527Y-83828444D01*
X157867962Y-83817073D01*
X157843255Y-83774279D01*
X157826517Y-83705283D01*
X157849738Y-83638192D01*
X157905545Y-83594305D01*
X157952435Y-83585279D01*
X160518294Y-83586529D01*
X160586405Y-83606564D01*
X160632872Y-83660243D01*
X160642942Y-83730521D01*
X160613417Y-83795088D01*
X160567669Y-83828425D01*
X160527127Y-83845718D01*
X160434476Y-83885237D01*
X160434472Y-83885239D01*
X160430524Y-83886923D01*
X160413565Y-83897073D01*
X160187521Y-84032357D01*
X160187517Y-84032360D01*
X160183839Y-84034561D01*
X159959472Y-84214313D01*
X159761577Y-84422851D01*
X159593814Y-84656317D01*
X159459288Y-84910392D01*
X159360489Y-85180373D01*
X159299245Y-85461264D01*
X159298909Y-85465534D01*
X159278543Y-85724317D01*
X159276689Y-85747869D01*
X159293238Y-86034883D01*
X159294063Y-86039088D01*
X159294064Y-86039096D01*
X159319804Y-86170291D01*
X159348586Y-86316995D01*
X159349973Y-86321045D01*
X159349974Y-86321050D01*
X159436777Y-86574579D01*
X159441710Y-86588986D01*
X159444557Y-86594646D01*
X159559121Y-86822431D01*
X159570885Y-86845822D01*
X159733721Y-87082750D01*
X159927206Y-87295388D01*
X159930501Y-87298143D01*
X159930502Y-87298144D01*
X160097738Y-87437974D01*
X160147759Y-87479798D01*
X160391298Y-87632571D01*
X160653318Y-87750877D01*
X160657437Y-87752097D01*
X160924857Y-87831311D01*
X160924862Y-87831312D01*
X160928970Y-87832529D01*
X160933204Y-87833177D01*
X160933209Y-87833178D01*
X161131471Y-87863516D01*
X161213153Y-87876015D01*
X161359485Y-87878314D01*
X161496317Y-87880464D01*
X161496323Y-87880464D01*
X161500608Y-87880531D01*
X161504860Y-87880016D01*
X161504868Y-87880016D01*
X161781756Y-87846508D01*
X161781761Y-87846507D01*
X161786017Y-87845992D01*
X161961267Y-87800016D01*
X162059954Y-87774126D01*
X162059955Y-87774126D01*
X162064097Y-87773039D01*
X162329704Y-87663021D01*
X162463798Y-87584663D01*
X162574219Y-87520138D01*
X162574220Y-87520137D01*
X162577922Y-87517974D01*
X162804159Y-87340582D01*
X162845285Y-87298144D01*
X163001244Y-87137206D01*
X163004227Y-87134128D01*
X163006760Y-87130680D01*
X163006764Y-87130675D01*
X163171887Y-86905886D01*
X163174425Y-86902431D01*
X163311604Y-86649779D01*
X163312373Y-86647743D01*
X163358584Y-86594516D01*
X163426724Y-86574579D01*
X163494825Y-86594646D01*
X163541267Y-86648346D01*
X163552603Y-86700620D01*
X163551501Y-90121244D01*
X163531477Y-90189358D01*
X163477806Y-90235833D01*
X163407529Y-90245915D01*
X163342958Y-90216401D01*
X163331877Y-90205525D01*
X163248074Y-90112453D01*
X163225491Y-90096045D01*
X163094663Y-90000993D01*
X163094662Y-90000992D01*
X163089321Y-89997112D01*
X163083293Y-89994428D01*
X163083291Y-89994427D01*
X162916087Y-89919983D01*
X162916086Y-89919983D01*
X162910056Y-89917298D01*
X162814086Y-89896899D01*
X162724572Y-89877872D01*
X162724568Y-89877872D01*
X162718115Y-89876500D01*
X162521885Y-89876500D01*
X162515432Y-89877872D01*
X162515428Y-89877872D01*
X162425914Y-89896899D01*
X162329944Y-89917298D01*
X162323914Y-89919983D01*
X162323913Y-89919983D01*
X162156709Y-89994427D01*
X162156707Y-89994428D01*
X162150679Y-89997112D01*
X162145338Y-90000992D01*
X162145337Y-90000993D01*
X162014510Y-90096045D01*
X161991926Y-90112453D01*
X161987505Y-90117363D01*
X161987504Y-90117364D01*
X161869614Y-90248295D01*
X161860623Y-90258280D01*
X161857322Y-90263998D01*
X161776071Y-90404729D01*
X161762508Y-90428220D01*
X161701870Y-90614845D01*
X161701180Y-90621408D01*
X161701180Y-90621409D01*
X161688698Y-90740170D01*
X161681358Y-90810000D01*
X161682048Y-90816565D01*
X161696427Y-90953365D01*
X161701870Y-91005155D01*
X161762508Y-91191780D01*
X161765811Y-91197502D01*
X161765812Y-91197503D01*
X161794389Y-91247000D01*
X161811127Y-91315996D01*
X161794389Y-91373000D01*
X161769197Y-91416635D01*
X161762508Y-91428220D01*
X161756257Y-91447460D01*
X161708827Y-91593435D01*
X161701870Y-91614845D01*
X161701180Y-91621408D01*
X161701180Y-91621409D01*
X161683468Y-91789928D01*
X161681358Y-91810000D01*
X161682048Y-91816565D01*
X161701134Y-91998148D01*
X161701870Y-92005155D01*
X161703911Y-92011436D01*
X161703911Y-92011437D01*
X161731167Y-92095325D01*
X161733194Y-92166292D01*
X161729316Y-92178489D01*
X161696029Y-92267282D01*
X161696027Y-92267288D01*
X161693255Y-92274684D01*
X161686500Y-92336866D01*
X161686500Y-93283134D01*
X161693255Y-93345316D01*
X161744385Y-93481705D01*
X161831739Y-93598261D01*
X161948295Y-93685615D01*
X162084684Y-93736745D01*
X162146866Y-93743500D01*
X163093134Y-93743500D01*
X163155316Y-93736745D01*
X163291705Y-93685615D01*
X163348770Y-93642847D01*
X163415276Y-93617999D01*
X163484659Y-93633052D01*
X163534889Y-93683226D01*
X163550335Y-93743714D01*
X163550188Y-94202279D01*
X163550034Y-94680993D01*
X163550030Y-94692264D01*
X163530006Y-94760378D01*
X163476335Y-94806853D01*
X163406058Y-94816935D01*
X163349525Y-94790455D01*
X163348074Y-94792453D01*
X163194663Y-94680993D01*
X163194662Y-94680992D01*
X163189321Y-94677112D01*
X163183293Y-94674428D01*
X163183291Y-94674427D01*
X163016087Y-94599983D01*
X163016086Y-94599983D01*
X163010056Y-94597298D01*
X162914086Y-94576899D01*
X162824572Y-94557872D01*
X162824568Y-94557872D01*
X162818115Y-94556500D01*
X162621885Y-94556500D01*
X162615432Y-94557872D01*
X162615428Y-94557872D01*
X162525914Y-94576899D01*
X162429944Y-94597298D01*
X162423914Y-94599983D01*
X162423913Y-94599983D01*
X162256709Y-94674427D01*
X162256707Y-94674428D01*
X162250679Y-94677112D01*
X162245338Y-94680992D01*
X162245337Y-94680993D01*
X162097444Y-94788444D01*
X162091926Y-94792453D01*
X162087505Y-94797363D01*
X162087504Y-94797364D01*
X161998507Y-94896206D01*
X161960623Y-94938280D01*
X161862508Y-95108220D01*
X161860466Y-95114505D01*
X161809791Y-95270468D01*
X161801870Y-95294845D01*
X161781358Y-95490000D01*
X161782048Y-95496565D01*
X161799244Y-95660166D01*
X161801870Y-95685155D01*
X161862508Y-95871780D01*
X161865811Y-95877502D01*
X161865812Y-95877503D01*
X161894389Y-95927000D01*
X161911127Y-95995996D01*
X161894389Y-96053000D01*
X161892527Y-96056226D01*
X161862508Y-96108220D01*
X161801870Y-96294845D01*
X161801180Y-96301408D01*
X161801180Y-96301409D01*
X161782048Y-96483435D01*
X161781358Y-96490000D01*
X161782048Y-96496565D01*
X161798775Y-96655704D01*
X161801870Y-96685155D01*
X161803911Y-96691436D01*
X161803911Y-96691437D01*
X161831167Y-96775325D01*
X161833194Y-96846292D01*
X161829316Y-96858489D01*
X161796029Y-96947282D01*
X161796027Y-96947288D01*
X161793255Y-96954684D01*
X161786500Y-97016866D01*
X161786500Y-97963134D01*
X161793255Y-98025316D01*
X161844385Y-98161705D01*
X161931739Y-98278261D01*
X162048295Y-98365615D01*
X162184684Y-98416745D01*
X162246866Y-98423500D01*
X163193134Y-98423500D01*
X163255316Y-98416745D01*
X163378578Y-98370536D01*
X163449386Y-98365353D01*
X163511755Y-98399274D01*
X163545884Y-98461529D01*
X163548808Y-98488557D01*
X163543335Y-115486565D01*
X163543332Y-115495316D01*
X163523308Y-115563430D01*
X163469637Y-115609905D01*
X163399360Y-115619987D01*
X163334789Y-115590473D01*
X163305366Y-115553065D01*
X163189715Y-115328995D01*
X163189715Y-115328994D01*
X163187750Y-115325188D01*
X163176022Y-115308500D01*
X163035420Y-115108444D01*
X163022441Y-115089977D01*
X162891227Y-114948774D01*
X162829661Y-114882521D01*
X162829658Y-114882519D01*
X162826740Y-114879378D01*
X162604268Y-114697287D01*
X162359142Y-114547073D01*
X162341048Y-114539130D01*
X162099830Y-114433243D01*
X162095898Y-114431517D01*
X162069963Y-114424129D01*
X161823534Y-114353932D01*
X161823535Y-114353932D01*
X161819406Y-114352756D01*
X161606704Y-114322485D01*
X161539036Y-114312854D01*
X161539034Y-114312854D01*
X161534784Y-114312249D01*
X161530495Y-114312227D01*
X161530488Y-114312226D01*
X161251583Y-114310765D01*
X161251576Y-114310765D01*
X161247297Y-114310743D01*
X161243053Y-114311302D01*
X161243049Y-114311302D01*
X161117660Y-114327810D01*
X160962266Y-114348268D01*
X160958126Y-114349401D01*
X160958124Y-114349401D01*
X160881311Y-114370415D01*
X160684964Y-114424129D01*
X160681016Y-114425813D01*
X160424476Y-114535237D01*
X160424472Y-114535239D01*
X160420524Y-114536923D01*
X160298699Y-114609834D01*
X160177521Y-114682357D01*
X160177517Y-114682360D01*
X160173839Y-114684561D01*
X159949472Y-114864313D01*
X159751577Y-115072851D01*
X159583814Y-115306317D01*
X159449288Y-115560392D01*
X159447813Y-115564423D01*
X159387227Y-115729983D01*
X159350489Y-115830373D01*
X159289245Y-116111264D01*
X159266689Y-116397869D01*
X159283238Y-116684883D01*
X159284063Y-116689088D01*
X159284064Y-116689096D01*
X159299630Y-116768435D01*
X159338586Y-116966995D01*
X159339973Y-116971045D01*
X159339974Y-116971050D01*
X159425692Y-117221409D01*
X159431710Y-117238986D01*
X159438819Y-117253121D01*
X159529233Y-117432888D01*
X159560885Y-117495822D01*
X159723721Y-117732750D01*
X159726608Y-117735923D01*
X159726609Y-117735924D01*
X159790579Y-117806226D01*
X159917206Y-117945388D01*
X159920501Y-117948143D01*
X159920502Y-117948144D01*
X160088835Y-118088891D01*
X160137759Y-118129798D01*
X160381298Y-118282571D01*
X160385211Y-118284338D01*
X160385217Y-118284341D01*
X160426200Y-118302845D01*
X160480055Y-118349107D01*
X160500349Y-118417141D01*
X160480639Y-118485347D01*
X160427184Y-118532070D01*
X160374425Y-118543682D01*
X158161820Y-118545004D01*
X155124074Y-118546819D01*
X155055943Y-118526858D01*
X155009418Y-118473230D01*
X154999272Y-118402962D01*
X155028726Y-118338363D01*
X155049938Y-118318884D01*
X155085907Y-118292751D01*
X155085912Y-118292746D01*
X155091253Y-118288866D01*
X155179299Y-118191081D01*
X155214621Y-118151852D01*
X155214622Y-118151851D01*
X155219040Y-118146944D01*
X155309316Y-117990582D01*
X155311223Y-117987279D01*
X155311224Y-117987278D01*
X155314527Y-117981556D01*
X155373542Y-117799928D01*
X155374399Y-117791780D01*
X155392814Y-117616565D01*
X155393504Y-117610000D01*
X155388484Y-117562237D01*
X155374232Y-117426635D01*
X155374232Y-117426633D01*
X155373542Y-117420072D01*
X155314527Y-117238444D01*
X155310298Y-117231118D01*
X155276004Y-117171720D01*
X155219040Y-117073056D01*
X155132501Y-116976944D01*
X155095675Y-116936045D01*
X155095674Y-116936044D01*
X155091253Y-116931134D01*
X154936752Y-116818882D01*
X154930724Y-116816198D01*
X154930722Y-116816197D01*
X154768319Y-116743891D01*
X154768318Y-116743891D01*
X154762288Y-116741206D01*
X154650121Y-116717364D01*
X154581944Y-116702872D01*
X154581939Y-116702872D01*
X154575487Y-116701500D01*
X154384513Y-116701500D01*
X154378061Y-116702872D01*
X154378056Y-116702872D01*
X154309879Y-116717364D01*
X154197712Y-116741206D01*
X154191682Y-116743891D01*
X154191681Y-116743891D01*
X154029278Y-116816197D01*
X154029276Y-116816198D01*
X154023248Y-116818882D01*
X153868747Y-116931134D01*
X153864326Y-116936044D01*
X153864325Y-116936045D01*
X153753136Y-117059533D01*
X153692690Y-117096773D01*
X153621706Y-117095421D01*
X153562722Y-117055908D01*
X153534464Y-116990777D01*
X153533500Y-116975223D01*
X153533500Y-116146866D01*
X153526745Y-116084684D01*
X153475615Y-115948295D01*
X153388261Y-115831739D01*
X153271705Y-115744385D01*
X153135316Y-115693255D01*
X153073134Y-115686500D01*
X152126866Y-115686500D01*
X152064684Y-115693255D01*
X151975179Y-115726809D01*
X151904373Y-115731992D01*
X151894807Y-115729413D01*
X151890056Y-115727298D01*
X151788446Y-115705700D01*
X151704572Y-115687872D01*
X151704568Y-115687872D01*
X151698115Y-115686500D01*
X151501885Y-115686500D01*
X151495432Y-115687872D01*
X151495428Y-115687872D01*
X151405915Y-115706899D01*
X151309944Y-115727298D01*
X151303914Y-115729983D01*
X151303913Y-115729983D01*
X151136709Y-115804427D01*
X151136707Y-115804428D01*
X151130679Y-115807112D01*
X151125338Y-115810992D01*
X151125337Y-115810993D01*
X150998624Y-115903056D01*
X150971926Y-115922453D01*
X150967505Y-115927363D01*
X150967504Y-115927364D01*
X150891995Y-116011226D01*
X150840623Y-116068280D01*
X150742508Y-116238220D01*
X150740466Y-116244505D01*
X150688824Y-116403444D01*
X150681870Y-116424845D01*
X150681180Y-116431408D01*
X150681180Y-116431409D01*
X150676251Y-116478306D01*
X150661358Y-116620000D01*
X150662048Y-116626565D01*
X150674098Y-116741206D01*
X150681870Y-116815155D01*
X150742508Y-117001780D01*
X150745811Y-117007502D01*
X150745812Y-117007503D01*
X150773759Y-117055908D01*
X150840623Y-117171720D01*
X150845041Y-117176627D01*
X150845042Y-117176628D01*
X150964045Y-117308794D01*
X150971926Y-117317547D01*
X150977268Y-117321428D01*
X150977270Y-117321430D01*
X151121050Y-117425892D01*
X151130679Y-117432888D01*
X151136707Y-117435572D01*
X151136709Y-117435573D01*
X151303913Y-117510017D01*
X151309944Y-117512702D01*
X151405914Y-117533101D01*
X151495428Y-117552128D01*
X151495432Y-117552128D01*
X151501885Y-117553500D01*
X151698115Y-117553500D01*
X151704568Y-117552128D01*
X151704572Y-117552128D01*
X151793742Y-117533174D01*
X151890056Y-117512702D01*
X151893189Y-117511307D01*
X151962977Y-117509311D01*
X151975174Y-117513189D01*
X152064684Y-117546745D01*
X152126866Y-117553500D01*
X153073134Y-117553500D01*
X153135316Y-117546745D01*
X153271705Y-117495615D01*
X153373696Y-117419177D01*
X153440202Y-117394329D01*
X153509585Y-117409382D01*
X153559815Y-117459556D01*
X153574571Y-117533173D01*
X153566496Y-117610000D01*
X153567186Y-117616565D01*
X153585602Y-117791780D01*
X153586458Y-117799928D01*
X153645473Y-117981556D01*
X153648776Y-117987278D01*
X153648777Y-117987279D01*
X153650684Y-117990582D01*
X153740960Y-118146944D01*
X153745378Y-118151851D01*
X153745379Y-118151852D01*
X153780701Y-118191081D01*
X153868747Y-118288866D01*
X153874089Y-118292747D01*
X153874091Y-118292749D01*
X153887987Y-118302845D01*
X153909531Y-118318497D01*
X153911119Y-118319651D01*
X153954473Y-118375873D01*
X153960548Y-118446609D01*
X153927417Y-118509401D01*
X153865597Y-118544312D01*
X153837133Y-118547587D01*
X147095016Y-118551615D01*
X147026884Y-118531654D01*
X146980359Y-118478026D01*
X146970213Y-118407758D01*
X146985821Y-118362616D01*
X146994264Y-118347992D01*
X147009527Y-118321556D01*
X147012300Y-118313021D01*
X147032565Y-118250654D01*
X147072639Y-118192048D01*
X147126201Y-118166343D01*
X147162131Y-118158706D01*
X147225830Y-118145167D01*
X147225833Y-118145166D01*
X147232288Y-118143794D01*
X147238319Y-118141109D01*
X147400722Y-118068803D01*
X147400724Y-118068802D01*
X147406752Y-118066118D01*
X147561253Y-117953866D01*
X147568887Y-117945388D01*
X147684621Y-117816852D01*
X147684622Y-117816851D01*
X147689040Y-117811944D01*
X147763197Y-117683500D01*
X147781223Y-117652279D01*
X147781224Y-117652278D01*
X147784527Y-117646556D01*
X147843542Y-117464928D01*
X147846910Y-117432888D01*
X147862814Y-117281565D01*
X147863504Y-117275000D01*
X147860322Y-117244729D01*
X147844232Y-117091635D01*
X147844232Y-117091633D01*
X147843542Y-117085072D01*
X147784527Y-116903444D01*
X147758452Y-116858280D01*
X147735705Y-116818882D01*
X147710370Y-116775000D01*
X148161496Y-116775000D01*
X148162186Y-116781565D01*
X148178509Y-116936866D01*
X148181458Y-116964928D01*
X148240473Y-117146556D01*
X148243776Y-117152278D01*
X148243777Y-117152279D01*
X148246039Y-117156197D01*
X148335960Y-117311944D01*
X148340378Y-117316851D01*
X148340379Y-117316852D01*
X148427666Y-117413794D01*
X148463747Y-117453866D01*
X148545401Y-117513191D01*
X148599410Y-117552431D01*
X148618248Y-117566118D01*
X148624276Y-117568802D01*
X148624278Y-117568803D01*
X148731554Y-117616565D01*
X148792712Y-117643794D01*
X148886113Y-117663647D01*
X148973056Y-117682128D01*
X148973061Y-117682128D01*
X148979513Y-117683500D01*
X149170487Y-117683500D01*
X149176939Y-117682128D01*
X149176944Y-117682128D01*
X149263887Y-117663647D01*
X149357288Y-117643794D01*
X149418446Y-117616565D01*
X149525722Y-117568803D01*
X149525724Y-117568802D01*
X149531752Y-117566118D01*
X149550591Y-117552431D01*
X149604599Y-117513191D01*
X149686253Y-117453866D01*
X149722334Y-117413794D01*
X149809621Y-117316852D01*
X149809622Y-117316851D01*
X149814040Y-117311944D01*
X149903961Y-117156197D01*
X149906223Y-117152279D01*
X149906224Y-117152278D01*
X149909527Y-117146556D01*
X149968542Y-116964928D01*
X149971492Y-116936866D01*
X149987814Y-116781565D01*
X149988504Y-116775000D01*
X149979475Y-116689096D01*
X149969232Y-116591635D01*
X149969232Y-116591633D01*
X149968542Y-116585072D01*
X149909527Y-116403444D01*
X149903843Y-116393598D01*
X149833128Y-116271118D01*
X149814040Y-116238056D01*
X149686253Y-116096134D01*
X149531752Y-115983882D01*
X149525724Y-115981198D01*
X149525722Y-115981197D01*
X149363319Y-115908891D01*
X149363318Y-115908891D01*
X149357288Y-115906206D01*
X149263888Y-115886353D01*
X149176944Y-115867872D01*
X149176939Y-115867872D01*
X149170487Y-115866500D01*
X148979513Y-115866500D01*
X148973061Y-115867872D01*
X148973056Y-115867872D01*
X148886112Y-115886353D01*
X148792712Y-115906206D01*
X148786682Y-115908891D01*
X148786681Y-115908891D01*
X148624278Y-115981197D01*
X148624276Y-115981198D01*
X148618248Y-115983882D01*
X148463747Y-116096134D01*
X148335960Y-116238056D01*
X148316872Y-116271118D01*
X148246158Y-116393598D01*
X148240473Y-116403444D01*
X148181458Y-116585072D01*
X148180768Y-116591633D01*
X148180768Y-116591635D01*
X148170525Y-116689096D01*
X148161496Y-116775000D01*
X147710370Y-116775000D01*
X147689040Y-116738056D01*
X147561253Y-116596134D01*
X147406752Y-116483882D01*
X147400724Y-116481198D01*
X147400722Y-116481197D01*
X147238319Y-116408891D01*
X147238318Y-116408891D01*
X147232288Y-116406206D01*
X147138888Y-116386353D01*
X147051944Y-116367872D01*
X147051939Y-116367872D01*
X147045487Y-116366500D01*
X146854513Y-116366500D01*
X146848061Y-116367872D01*
X146848056Y-116367872D01*
X146761112Y-116386353D01*
X146667712Y-116406206D01*
X146661682Y-116408891D01*
X146661681Y-116408891D01*
X146499278Y-116481197D01*
X146499276Y-116481198D01*
X146493248Y-116483882D01*
X146338747Y-116596134D01*
X146210960Y-116738056D01*
X146115473Y-116903444D01*
X146113432Y-116909727D01*
X146113431Y-116909728D01*
X146092435Y-116974346D01*
X146052361Y-117032952D01*
X145998799Y-117058657D01*
X145962869Y-117066294D01*
X145899170Y-117079833D01*
X145899167Y-117079834D01*
X145892712Y-117081206D01*
X145886682Y-117083891D01*
X145886681Y-117083891D01*
X145724278Y-117156197D01*
X145724276Y-117156198D01*
X145718248Y-117158882D01*
X145563747Y-117271134D01*
X145559326Y-117276044D01*
X145559325Y-117276045D01*
X145521957Y-117317547D01*
X145435960Y-117413056D01*
X145380387Y-117509311D01*
X145355667Y-117552128D01*
X145340473Y-117578444D01*
X145281458Y-117760072D01*
X145280768Y-117766633D01*
X145280768Y-117766635D01*
X145278786Y-117785495D01*
X145261496Y-117950000D01*
X145262186Y-117956565D01*
X145278055Y-118107547D01*
X145281458Y-118139928D01*
X145340473Y-118321556D01*
X145343776Y-118327278D01*
X145343777Y-118327279D01*
X145364813Y-118363714D01*
X145381551Y-118432709D01*
X145358331Y-118499801D01*
X145302524Y-118543688D01*
X145255769Y-118552714D01*
X139005162Y-118556448D01*
X138937030Y-118536487D01*
X138890505Y-118482859D01*
X138880359Y-118412591D01*
X138909813Y-118347992D01*
X138969516Y-118309573D01*
X138978890Y-118307201D01*
X138980638Y-118306829D01*
X139000056Y-118302702D01*
X139006087Y-118300017D01*
X139173291Y-118225573D01*
X139173293Y-118225572D01*
X139179321Y-118222888D01*
X139254904Y-118167974D01*
X139332730Y-118111430D01*
X139332732Y-118111428D01*
X139338074Y-118107547D01*
X139378871Y-118062237D01*
X139464958Y-117966628D01*
X139464959Y-117966627D01*
X139469377Y-117961720D01*
X139567492Y-117791780D01*
X139615130Y-117645166D01*
X139626090Y-117611434D01*
X139626090Y-117611433D01*
X139628130Y-117605155D01*
X139630938Y-117578444D01*
X139647952Y-117416565D01*
X139648642Y-117410000D01*
X139636635Y-117295761D01*
X139628820Y-117221409D01*
X139628820Y-117221408D01*
X139628130Y-117214845D01*
X139603900Y-117140271D01*
X139577666Y-117059533D01*
X139567492Y-117028220D01*
X139469377Y-116858280D01*
X139437398Y-116822763D01*
X139342496Y-116717364D01*
X139342495Y-116717363D01*
X139338074Y-116712453D01*
X139300128Y-116684883D01*
X139184663Y-116600993D01*
X139184662Y-116600992D01*
X139179321Y-116597112D01*
X139173293Y-116594428D01*
X139173291Y-116594427D01*
X139006087Y-116519983D01*
X139006086Y-116519983D01*
X139000056Y-116517298D01*
X138904085Y-116496899D01*
X138814572Y-116477872D01*
X138814568Y-116477872D01*
X138808115Y-116476500D01*
X138611885Y-116476500D01*
X138605432Y-116477872D01*
X138605428Y-116477872D01*
X138515915Y-116496899D01*
X138419944Y-116517298D01*
X138413914Y-116519983D01*
X138413913Y-116519983D01*
X138381629Y-116534357D01*
X138261248Y-116587954D01*
X138190882Y-116597388D01*
X138158753Y-116587955D01*
X138038371Y-116534357D01*
X138006087Y-116519983D01*
X138006086Y-116519983D01*
X138000056Y-116517298D01*
X137904085Y-116496899D01*
X137814572Y-116477872D01*
X137814568Y-116477872D01*
X137808115Y-116476500D01*
X137611885Y-116476500D01*
X137605432Y-116477872D01*
X137605428Y-116477872D01*
X137515915Y-116496899D01*
X137419944Y-116517298D01*
X137413914Y-116519983D01*
X137413913Y-116519983D01*
X137381629Y-116534357D01*
X137261248Y-116587954D01*
X137190882Y-116597388D01*
X137158753Y-116587955D01*
X137038371Y-116534357D01*
X137006087Y-116519983D01*
X137006086Y-116519983D01*
X137000056Y-116517298D01*
X136904085Y-116496899D01*
X136814572Y-116477872D01*
X136814568Y-116477872D01*
X136808115Y-116476500D01*
X136611885Y-116476500D01*
X136605432Y-116477872D01*
X136605428Y-116477872D01*
X136539372Y-116491913D01*
X136419944Y-116517298D01*
X136416811Y-116518693D01*
X136347023Y-116520689D01*
X136334826Y-116516811D01*
X136245316Y-116483255D01*
X136183134Y-116476500D01*
X135236866Y-116476500D01*
X135174684Y-116483255D01*
X135038295Y-116534385D01*
X134921739Y-116621739D01*
X134834385Y-116738295D01*
X134783255Y-116874684D01*
X134776500Y-116936866D01*
X134776500Y-117883134D01*
X134783255Y-117945316D01*
X134834385Y-118081705D01*
X134921739Y-118198261D01*
X135038295Y-118285615D01*
X135046703Y-118288767D01*
X135116187Y-118314816D01*
X135172952Y-118357458D01*
X135197651Y-118424020D01*
X135182443Y-118493369D01*
X135132157Y-118543487D01*
X135072034Y-118558798D01*
X131544779Y-118560905D01*
X131476648Y-118540944D01*
X131430123Y-118487316D01*
X131419977Y-118417048D01*
X131449431Y-118352449D01*
X131496484Y-118318497D01*
X131497930Y-118317898D01*
X131509704Y-118313021D01*
X131757922Y-118167974D01*
X131984159Y-117990582D01*
X131998997Y-117975271D01*
X132157271Y-117811944D01*
X132184227Y-117784128D01*
X132186760Y-117780680D01*
X132186764Y-117780675D01*
X132351887Y-117555886D01*
X132354425Y-117552431D01*
X132357512Y-117546745D01*
X132489554Y-117303555D01*
X132489555Y-117303553D01*
X132491604Y-117299779D01*
X132569689Y-117093134D01*
X132591707Y-117034866D01*
X132591708Y-117034862D01*
X132593225Y-117030848D01*
X132641187Y-116821434D01*
X132656449Y-116754797D01*
X132656450Y-116754793D01*
X132657407Y-116750613D01*
X132658018Y-116743774D01*
X132682743Y-116466726D01*
X132682743Y-116466724D01*
X132682963Y-116464260D01*
X132683427Y-116420000D01*
X132672290Y-116256635D01*
X132664165Y-116137452D01*
X132664164Y-116137446D01*
X132663873Y-116133175D01*
X132659336Y-116111264D01*
X132616218Y-115903056D01*
X132605574Y-115851658D01*
X132509607Y-115580657D01*
X132457654Y-115480000D01*
X141036496Y-115480000D01*
X141056458Y-115669928D01*
X141064939Y-115696029D01*
X141107286Y-115826358D01*
X141115473Y-115851556D01*
X141210960Y-116016944D01*
X141215378Y-116021851D01*
X141215379Y-116021852D01*
X141262990Y-116074729D01*
X141338747Y-116158866D01*
X141344089Y-116162747D01*
X141344091Y-116162749D01*
X141435322Y-116229032D01*
X141478676Y-116285254D01*
X141486571Y-116344138D01*
X141480924Y-116397869D01*
X141476496Y-116440000D01*
X141477186Y-116446565D01*
X141495415Y-116620000D01*
X141496458Y-116629928D01*
X141555473Y-116811556D01*
X141558776Y-116817278D01*
X141558777Y-116817279D01*
X141582449Y-116858280D01*
X141650960Y-116976944D01*
X141655378Y-116981851D01*
X141655379Y-116981852D01*
X141774325Y-117113955D01*
X141778747Y-117118866D01*
X141933248Y-117231118D01*
X141939276Y-117233802D01*
X141939278Y-117233803D01*
X142095945Y-117303555D01*
X142107712Y-117308794D01*
X142201112Y-117328647D01*
X142288056Y-117347128D01*
X142288061Y-117347128D01*
X142294513Y-117348500D01*
X142485487Y-117348500D01*
X142491939Y-117347128D01*
X142491944Y-117347128D01*
X142578888Y-117328647D01*
X142672288Y-117308794D01*
X142684055Y-117303555D01*
X142840722Y-117233803D01*
X142840724Y-117233802D01*
X142846752Y-117231118D01*
X143001253Y-117118866D01*
X143005675Y-117113955D01*
X143124621Y-116981852D01*
X143124622Y-116981851D01*
X143129040Y-116976944D01*
X143197551Y-116858280D01*
X143221223Y-116817279D01*
X143221224Y-116817278D01*
X143224527Y-116811556D01*
X143283542Y-116629928D01*
X143284586Y-116620000D01*
X143302814Y-116446565D01*
X143303504Y-116440000D01*
X143283542Y-116250072D01*
X143224527Y-116068444D01*
X143129040Y-115903056D01*
X143077009Y-115845269D01*
X143005675Y-115766045D01*
X143005674Y-115766044D01*
X143001253Y-115761134D01*
X142985614Y-115749771D01*
X142904678Y-115690968D01*
X142861324Y-115634746D01*
X142853429Y-115575862D01*
X142862814Y-115486565D01*
X142863504Y-115480000D01*
X142847233Y-115325188D01*
X142844232Y-115296635D01*
X142844232Y-115296633D01*
X142843542Y-115290072D01*
X142784527Y-115108444D01*
X142689040Y-114943056D01*
X142561253Y-114801134D01*
X142422059Y-114700003D01*
X142412094Y-114692763D01*
X142412093Y-114692762D01*
X142406752Y-114688882D01*
X142400724Y-114686198D01*
X142400722Y-114686197D01*
X142238319Y-114613891D01*
X142238318Y-114613891D01*
X142232288Y-114611206D01*
X142138888Y-114591353D01*
X142051944Y-114572872D01*
X142051939Y-114572872D01*
X142045487Y-114571500D01*
X141854513Y-114571500D01*
X141848061Y-114572872D01*
X141848056Y-114572872D01*
X141761112Y-114591353D01*
X141667712Y-114611206D01*
X141661682Y-114613891D01*
X141661681Y-114613891D01*
X141499278Y-114686197D01*
X141499276Y-114686198D01*
X141493248Y-114688882D01*
X141487907Y-114692762D01*
X141487906Y-114692763D01*
X141477941Y-114700003D01*
X141338747Y-114801134D01*
X141210960Y-114943056D01*
X141115473Y-115108444D01*
X141056458Y-115290072D01*
X141055768Y-115296633D01*
X141055768Y-115296635D01*
X141052767Y-115325188D01*
X141036496Y-115480000D01*
X132457654Y-115480000D01*
X132377750Y-115325188D01*
X132366022Y-115308500D01*
X132225420Y-115108444D01*
X132212441Y-115089977D01*
X132081227Y-114948774D01*
X132019661Y-114882521D01*
X132019658Y-114882519D01*
X132016740Y-114879378D01*
X131794268Y-114697287D01*
X131549142Y-114547073D01*
X131531048Y-114539130D01*
X131289830Y-114433243D01*
X131285898Y-114431517D01*
X131259963Y-114424129D01*
X131175257Y-114400000D01*
X139246496Y-114400000D01*
X139266458Y-114589928D01*
X139325473Y-114771556D01*
X139420960Y-114936944D01*
X139548747Y-115078866D01*
X139703248Y-115191118D01*
X139709276Y-115193802D01*
X139709278Y-115193803D01*
X139871681Y-115266109D01*
X139877712Y-115268794D01*
X139971113Y-115288647D01*
X140058056Y-115307128D01*
X140058061Y-115307128D01*
X140064513Y-115308500D01*
X140255487Y-115308500D01*
X140261939Y-115307128D01*
X140261944Y-115307128D01*
X140348887Y-115288647D01*
X140442288Y-115268794D01*
X140448319Y-115266109D01*
X140610722Y-115193803D01*
X140610724Y-115193802D01*
X140616752Y-115191118D01*
X140771253Y-115078866D01*
X140899040Y-114936944D01*
X140994527Y-114771556D01*
X141053542Y-114589928D01*
X141073504Y-114400000D01*
X141053542Y-114210072D01*
X140994527Y-114028444D01*
X140899040Y-113863056D01*
X140884699Y-113847128D01*
X140775675Y-113726045D01*
X140775674Y-113726044D01*
X140771253Y-113721134D01*
X140630494Y-113618866D01*
X140622094Y-113612763D01*
X140622093Y-113612762D01*
X140616752Y-113608882D01*
X140610724Y-113606198D01*
X140610722Y-113606197D01*
X140448319Y-113533891D01*
X140448318Y-113533891D01*
X140442288Y-113531206D01*
X140348888Y-113511353D01*
X140261944Y-113492872D01*
X140261939Y-113492872D01*
X140255487Y-113491500D01*
X140064513Y-113491500D01*
X140058061Y-113492872D01*
X140058056Y-113492872D01*
X139971112Y-113511353D01*
X139877712Y-113531206D01*
X139871682Y-113533891D01*
X139871681Y-113533891D01*
X139709278Y-113606197D01*
X139709276Y-113606198D01*
X139703248Y-113608882D01*
X139697907Y-113612762D01*
X139697906Y-113612763D01*
X139689506Y-113618866D01*
X139548747Y-113721134D01*
X139544326Y-113726044D01*
X139544325Y-113726045D01*
X139435302Y-113847128D01*
X139420960Y-113863056D01*
X139325473Y-114028444D01*
X139266458Y-114210072D01*
X139246496Y-114400000D01*
X131175257Y-114400000D01*
X131013534Y-114353932D01*
X131013535Y-114353932D01*
X131009406Y-114352756D01*
X130796704Y-114322485D01*
X130729036Y-114312854D01*
X130729034Y-114312854D01*
X130724784Y-114312249D01*
X130720495Y-114312227D01*
X130720488Y-114312226D01*
X130441583Y-114310765D01*
X130441576Y-114310765D01*
X130437297Y-114310743D01*
X130433053Y-114311302D01*
X130433049Y-114311302D01*
X130307660Y-114327810D01*
X130152266Y-114348268D01*
X130148126Y-114349401D01*
X130148124Y-114349401D01*
X130071311Y-114370415D01*
X129874964Y-114424129D01*
X129871016Y-114425813D01*
X129614476Y-114535237D01*
X129614472Y-114535239D01*
X129610524Y-114536923D01*
X129488699Y-114609834D01*
X129367521Y-114682357D01*
X129367517Y-114682360D01*
X129363839Y-114684561D01*
X129139472Y-114864313D01*
X128941577Y-115072851D01*
X128773814Y-115306317D01*
X128771805Y-115310112D01*
X128771804Y-115310113D01*
X128685463Y-115473183D01*
X128635911Y-115524026D01*
X128566736Y-115540008D01*
X128499903Y-115516054D01*
X128456629Y-115459770D01*
X128448109Y-115414271D01*
X128448070Y-115308500D01*
X128447435Y-113613955D01*
X128447183Y-112940000D01*
X140776496Y-112940000D01*
X140796458Y-113129928D01*
X140855473Y-113311556D01*
X140950960Y-113476944D01*
X140955378Y-113481851D01*
X140955379Y-113481852D01*
X140998582Y-113529834D01*
X141078747Y-113618866D01*
X141177843Y-113690864D01*
X141226266Y-113726045D01*
X141233248Y-113731118D01*
X141239276Y-113733802D01*
X141239278Y-113733803D01*
X141401681Y-113806109D01*
X141407712Y-113808794D01*
X141501113Y-113828647D01*
X141588056Y-113847128D01*
X141588061Y-113847128D01*
X141594513Y-113848500D01*
X141785487Y-113848500D01*
X141791939Y-113847128D01*
X141791944Y-113847128D01*
X141878887Y-113828647D01*
X141972288Y-113808794D01*
X141978319Y-113806109D01*
X142140722Y-113733803D01*
X142140724Y-113733802D01*
X142146752Y-113731118D01*
X142153735Y-113726045D01*
X142202157Y-113690864D01*
X142301253Y-113618866D01*
X142381418Y-113529834D01*
X142424621Y-113481852D01*
X142424622Y-113481851D01*
X142429040Y-113476944D01*
X142524527Y-113311556D01*
X142583542Y-113129928D01*
X142603504Y-112940000D01*
X142583542Y-112750072D01*
X142524527Y-112568444D01*
X142429040Y-112403056D01*
X142403371Y-112374547D01*
X142305675Y-112266045D01*
X142305674Y-112266044D01*
X142301253Y-112261134D01*
X142146752Y-112148882D01*
X142140724Y-112146198D01*
X142140722Y-112146197D01*
X141978319Y-112073891D01*
X141978318Y-112073891D01*
X141972288Y-112071206D01*
X141878888Y-112051353D01*
X141791944Y-112032872D01*
X141791939Y-112032872D01*
X141785487Y-112031500D01*
X141594513Y-112031500D01*
X141588061Y-112032872D01*
X141588056Y-112032872D01*
X141501112Y-112051353D01*
X141407712Y-112071206D01*
X141401682Y-112073891D01*
X141401681Y-112073891D01*
X141239278Y-112146197D01*
X141239276Y-112146198D01*
X141233248Y-112148882D01*
X141078747Y-112261134D01*
X141074326Y-112266044D01*
X141074325Y-112266045D01*
X140976630Y-112374547D01*
X140950960Y-112403056D01*
X140855473Y-112568444D01*
X140796458Y-112750072D01*
X140776496Y-112940000D01*
X128447183Y-112940000D01*
X128446971Y-112374547D01*
X128466948Y-112306419D01*
X128520586Y-112259906D01*
X128572971Y-112248500D01*
X128695487Y-112248500D01*
X128701939Y-112247128D01*
X128701944Y-112247128D01*
X128790703Y-112228261D01*
X128882288Y-112208794D01*
X128888319Y-112206109D01*
X129050722Y-112133803D01*
X129050724Y-112133802D01*
X129056752Y-112131118D01*
X129106236Y-112095166D01*
X129191975Y-112032872D01*
X129211253Y-112018866D01*
X129217222Y-112012237D01*
X129334621Y-111881852D01*
X129334622Y-111881851D01*
X129339040Y-111876944D01*
X129405435Y-111761944D01*
X129431223Y-111717279D01*
X129431224Y-111717278D01*
X129434527Y-111711556D01*
X129493542Y-111529928D01*
X129496798Y-111498955D01*
X129512814Y-111346565D01*
X129513504Y-111340000D01*
X129512814Y-111333435D01*
X129501417Y-111225000D01*
X145236496Y-111225000D01*
X145256458Y-111414928D01*
X145315473Y-111596556D01*
X145410960Y-111761944D01*
X145415378Y-111766851D01*
X145415379Y-111766852D01*
X145534325Y-111898955D01*
X145538747Y-111903866D01*
X145693248Y-112016118D01*
X145699276Y-112018802D01*
X145699278Y-112018803D01*
X145861681Y-112091109D01*
X145867712Y-112093794D01*
X145951976Y-112111705D01*
X146048056Y-112132128D01*
X146048061Y-112132128D01*
X146054513Y-112133500D01*
X146245487Y-112133500D01*
X146251939Y-112132128D01*
X146251944Y-112132128D01*
X146348024Y-112111705D01*
X146432288Y-112093794D01*
X146438319Y-112091109D01*
X146600722Y-112018803D01*
X146600724Y-112018802D01*
X146606752Y-112016118D01*
X146748497Y-111913134D01*
X150626500Y-111913134D01*
X150633255Y-111975316D01*
X150684385Y-112111705D01*
X150771739Y-112228261D01*
X150888295Y-112315615D01*
X151024684Y-112366745D01*
X151086866Y-112373500D01*
X152033134Y-112373500D01*
X152095316Y-112366745D01*
X152231705Y-112315615D01*
X152348261Y-112228261D01*
X152435615Y-112111705D01*
X152486745Y-111975316D01*
X152493500Y-111913134D01*
X152493500Y-110966866D01*
X152486745Y-110904684D01*
X152435615Y-110768295D01*
X152348261Y-110651739D01*
X152231705Y-110564385D01*
X152095316Y-110513255D01*
X152033134Y-110506500D01*
X151086866Y-110506500D01*
X151024684Y-110513255D01*
X150888295Y-110564385D01*
X150771739Y-110651739D01*
X150684385Y-110768295D01*
X150633255Y-110904684D01*
X150626500Y-110966866D01*
X150626500Y-111913134D01*
X146748497Y-111913134D01*
X146761253Y-111903866D01*
X146781075Y-111881852D01*
X146884619Y-111766854D01*
X146889040Y-111761944D01*
X146891041Y-111758478D01*
X146946501Y-111715715D01*
X147018408Y-111709884D01*
X147123056Y-111732128D01*
X147123061Y-111732128D01*
X147129513Y-111733500D01*
X147320487Y-111733500D01*
X147326939Y-111732128D01*
X147326944Y-111732128D01*
X147423725Y-111711556D01*
X147507288Y-111693794D01*
X147513319Y-111691109D01*
X147675722Y-111618803D01*
X147675724Y-111618802D01*
X147681752Y-111616118D01*
X147836253Y-111503866D01*
X147916333Y-111414928D01*
X147959621Y-111366852D01*
X147959622Y-111366851D01*
X147964040Y-111361944D01*
X148059527Y-111196556D01*
X148118542Y-111014928D01*
X148123594Y-110966866D01*
X148137814Y-110831565D01*
X148138504Y-110825000D01*
X148122865Y-110676206D01*
X148119232Y-110641635D01*
X148119232Y-110641633D01*
X148118542Y-110635072D01*
X148068156Y-110480000D01*
X153386496Y-110480000D01*
X153387186Y-110486565D01*
X153405126Y-110657251D01*
X153406458Y-110669928D01*
X153465473Y-110851556D01*
X153468776Y-110857278D01*
X153468777Y-110857279D01*
X153500682Y-110912540D01*
X153560960Y-111016944D01*
X153565378Y-111021851D01*
X153565379Y-111021852D01*
X153583192Y-111041635D01*
X153688747Y-111158866D01*
X153843248Y-111271118D01*
X153849276Y-111273802D01*
X153849278Y-111273803D01*
X153983215Y-111333435D01*
X154017712Y-111348794D01*
X154079578Y-111361944D01*
X154198056Y-111387128D01*
X154198061Y-111387128D01*
X154204513Y-111388500D01*
X154395487Y-111388500D01*
X154401939Y-111387128D01*
X154401944Y-111387128D01*
X154520422Y-111361944D01*
X154582288Y-111348794D01*
X154616785Y-111333435D01*
X154750722Y-111273803D01*
X154750724Y-111273802D01*
X154756752Y-111271118D01*
X154911253Y-111158866D01*
X155016808Y-111041635D01*
X155034621Y-111021852D01*
X155034622Y-111021851D01*
X155039040Y-111016944D01*
X155099318Y-110912540D01*
X155131223Y-110857279D01*
X155131224Y-110857278D01*
X155134527Y-110851556D01*
X155193542Y-110669928D01*
X155194875Y-110657251D01*
X155212814Y-110486565D01*
X155213504Y-110480000D01*
X155196320Y-110316500D01*
X155194232Y-110296635D01*
X155194232Y-110296633D01*
X155193542Y-110290072D01*
X155134527Y-110108444D01*
X155119334Y-110082128D01*
X155093719Y-110037763D01*
X155039040Y-109943056D01*
X154911253Y-109801134D01*
X154756752Y-109688882D01*
X154750724Y-109686198D01*
X154750722Y-109686197D01*
X154588319Y-109613891D01*
X154588318Y-109613891D01*
X154582288Y-109611206D01*
X154488888Y-109591353D01*
X154401944Y-109572872D01*
X154401939Y-109572872D01*
X154395487Y-109571500D01*
X154204513Y-109571500D01*
X154198061Y-109572872D01*
X154198056Y-109572872D01*
X154111112Y-109591353D01*
X154017712Y-109611206D01*
X154011682Y-109613891D01*
X154011681Y-109613891D01*
X153849278Y-109686197D01*
X153849276Y-109686198D01*
X153843248Y-109688882D01*
X153688747Y-109801134D01*
X153560960Y-109943056D01*
X153506281Y-110037763D01*
X153480667Y-110082128D01*
X153465473Y-110108444D01*
X153406458Y-110290072D01*
X153405768Y-110296633D01*
X153405768Y-110296635D01*
X153403680Y-110316500D01*
X153386496Y-110480000D01*
X148068156Y-110480000D01*
X148059527Y-110453444D01*
X147964040Y-110288056D01*
X147836253Y-110146134D01*
X147681752Y-110033882D01*
X147675724Y-110031198D01*
X147675722Y-110031197D01*
X147513319Y-109958891D01*
X147513318Y-109958891D01*
X147507288Y-109956206D01*
X147413887Y-109936353D01*
X147326944Y-109917872D01*
X147326939Y-109917872D01*
X147320487Y-109916500D01*
X147129513Y-109916500D01*
X147123061Y-109917872D01*
X147123056Y-109917872D01*
X147036112Y-109936353D01*
X146942712Y-109956206D01*
X146936682Y-109958891D01*
X146936681Y-109958891D01*
X146774278Y-110031197D01*
X146774276Y-110031198D01*
X146768248Y-110033882D01*
X146613747Y-110146134D01*
X146485960Y-110288056D01*
X146483959Y-110291522D01*
X146428499Y-110334285D01*
X146356592Y-110340116D01*
X146251944Y-110317872D01*
X146251939Y-110317872D01*
X146245487Y-110316500D01*
X146054513Y-110316500D01*
X146048061Y-110317872D01*
X146048056Y-110317872D01*
X145961112Y-110336353D01*
X145867712Y-110356206D01*
X145861682Y-110358891D01*
X145861681Y-110358891D01*
X145699278Y-110431197D01*
X145699276Y-110431198D01*
X145693248Y-110433882D01*
X145687907Y-110437762D01*
X145687906Y-110437763D01*
X145641876Y-110471206D01*
X145538747Y-110546134D01*
X145534326Y-110551044D01*
X145534325Y-110551045D01*
X145427283Y-110669928D01*
X145410960Y-110688056D01*
X145315473Y-110853444D01*
X145256458Y-111035072D01*
X145236496Y-111225000D01*
X129501417Y-111225000D01*
X129494232Y-111156635D01*
X129494232Y-111156633D01*
X129493542Y-111150072D01*
X129434527Y-110968444D01*
X129339040Y-110803056D01*
X129231075Y-110683148D01*
X129215675Y-110666045D01*
X129215674Y-110666044D01*
X129211253Y-110661134D01*
X129056752Y-110548882D01*
X129050724Y-110546198D01*
X129050722Y-110546197D01*
X128888319Y-110473891D01*
X128888318Y-110473891D01*
X128882288Y-110471206D01*
X128788888Y-110451353D01*
X128701944Y-110432872D01*
X128701939Y-110432872D01*
X128695487Y-110431500D01*
X128572196Y-110431500D01*
X128504075Y-110411498D01*
X128457582Y-110357842D01*
X128446196Y-110305547D01*
X128446191Y-110290072D01*
X128446059Y-109938148D01*
X128446013Y-109814547D01*
X128465990Y-109746419D01*
X128519628Y-109699906D01*
X128572013Y-109688500D01*
X128695487Y-109688500D01*
X128701939Y-109687128D01*
X128701944Y-109687128D01*
X128788887Y-109668647D01*
X128882288Y-109648794D01*
X128960682Y-109613891D01*
X129050722Y-109573803D01*
X129050724Y-109573802D01*
X129056752Y-109571118D01*
X129211253Y-109458866D01*
X129251828Y-109413803D01*
X129334621Y-109321852D01*
X129334622Y-109321851D01*
X129339040Y-109316944D01*
X129434527Y-109151556D01*
X129493542Y-108969928D01*
X129510359Y-108809928D01*
X129512814Y-108786565D01*
X129513504Y-108780000D01*
X129498585Y-108638056D01*
X129496687Y-108620000D01*
X146456496Y-108620000D01*
X146476458Y-108809928D01*
X146535473Y-108991556D01*
X146630960Y-109156944D01*
X146635378Y-109161851D01*
X146635379Y-109161852D01*
X146647218Y-109175000D01*
X146758747Y-109298866D01*
X146913248Y-109411118D01*
X146919276Y-109413802D01*
X146919278Y-109413803D01*
X147081681Y-109486109D01*
X147087712Y-109488794D01*
X147181112Y-109508647D01*
X147268056Y-109527128D01*
X147268061Y-109527128D01*
X147274513Y-109528500D01*
X147465487Y-109528500D01*
X147471939Y-109527128D01*
X147471944Y-109527128D01*
X147558888Y-109508647D01*
X147652288Y-109488794D01*
X147658319Y-109486109D01*
X147820722Y-109413803D01*
X147820724Y-109413802D01*
X147826752Y-109411118D01*
X147981253Y-109298866D01*
X148092782Y-109175000D01*
X148761496Y-109175000D01*
X148762186Y-109181565D01*
X148776931Y-109321852D01*
X148781458Y-109364928D01*
X148840473Y-109546556D01*
X148843776Y-109552278D01*
X148843777Y-109552279D01*
X148856204Y-109573803D01*
X148935960Y-109711944D01*
X149063747Y-109853866D01*
X149218248Y-109966118D01*
X149224276Y-109968802D01*
X149224278Y-109968803D01*
X149370449Y-110033882D01*
X149392712Y-110043794D01*
X149486112Y-110063647D01*
X149573056Y-110082128D01*
X149573061Y-110082128D01*
X149579513Y-110083500D01*
X149770487Y-110083500D01*
X149776939Y-110082128D01*
X149776944Y-110082128D01*
X149863888Y-110063647D01*
X149957288Y-110043794D01*
X149979551Y-110033882D01*
X150125722Y-109968803D01*
X150125724Y-109968802D01*
X150131752Y-109966118D01*
X150286253Y-109853866D01*
X150414040Y-109711944D01*
X150493796Y-109573803D01*
X150506223Y-109552279D01*
X150506224Y-109552278D01*
X150509527Y-109546556D01*
X150568542Y-109364928D01*
X150573070Y-109321852D01*
X150588504Y-109175000D01*
X150591261Y-109175290D01*
X150607816Y-109118908D01*
X150662565Y-109071922D01*
X150725722Y-109043803D01*
X150725724Y-109043802D01*
X150731752Y-109041118D01*
X150886253Y-108928866D01*
X150890675Y-108923955D01*
X151009621Y-108791852D01*
X151009622Y-108791851D01*
X151014040Y-108786944D01*
X151072314Y-108686010D01*
X151106223Y-108627279D01*
X151106224Y-108627278D01*
X151109527Y-108621556D01*
X151168542Y-108439928D01*
X151171046Y-108416109D01*
X151187814Y-108256565D01*
X151188504Y-108250000D01*
X152246496Y-108250000D01*
X152247186Y-108256565D01*
X152263955Y-108416109D01*
X152266458Y-108439928D01*
X152325473Y-108621556D01*
X152328776Y-108627278D01*
X152328777Y-108627279D01*
X152362686Y-108686010D01*
X152420960Y-108786944D01*
X152425378Y-108791851D01*
X152425379Y-108791852D01*
X152544325Y-108923955D01*
X152548747Y-108928866D01*
X152703248Y-109041118D01*
X152709276Y-109043802D01*
X152709278Y-109043803D01*
X152871681Y-109116109D01*
X152877712Y-109118794D01*
X152971112Y-109138647D01*
X153058056Y-109157128D01*
X153058061Y-109157128D01*
X153064513Y-109158500D01*
X153255487Y-109158500D01*
X153261939Y-109157128D01*
X153261944Y-109157128D01*
X153348888Y-109138647D01*
X153442288Y-109118794D01*
X153448319Y-109116109D01*
X153610722Y-109043803D01*
X153610724Y-109043802D01*
X153616752Y-109041118D01*
X153771253Y-108928866D01*
X153775675Y-108923955D01*
X153894621Y-108791852D01*
X153894622Y-108791851D01*
X153899040Y-108786944D01*
X153957314Y-108686010D01*
X153991223Y-108627279D01*
X153991224Y-108627278D01*
X153994527Y-108621556D01*
X154053542Y-108439928D01*
X154056046Y-108416109D01*
X154072814Y-108256565D01*
X154073504Y-108250000D01*
X154056559Y-108088774D01*
X154054232Y-108066635D01*
X154054232Y-108066633D01*
X154053542Y-108060072D01*
X153994527Y-107878444D01*
X153987835Y-107866852D01*
X153915665Y-107741852D01*
X153899040Y-107713056D01*
X153889337Y-107702279D01*
X153775675Y-107576045D01*
X153775674Y-107576044D01*
X153771253Y-107571134D01*
X153616752Y-107458882D01*
X153610724Y-107456198D01*
X153610722Y-107456197D01*
X153448319Y-107383891D01*
X153448318Y-107383891D01*
X153442288Y-107381206D01*
X153342861Y-107360072D01*
X153261944Y-107342872D01*
X153261939Y-107342872D01*
X153255487Y-107341500D01*
X153064513Y-107341500D01*
X153058061Y-107342872D01*
X153058056Y-107342872D01*
X152977139Y-107360072D01*
X152877712Y-107381206D01*
X152871682Y-107383891D01*
X152871681Y-107383891D01*
X152709278Y-107456197D01*
X152709276Y-107456198D01*
X152703248Y-107458882D01*
X152548747Y-107571134D01*
X152544326Y-107576044D01*
X152544325Y-107576045D01*
X152430664Y-107702279D01*
X152420960Y-107713056D01*
X152404335Y-107741852D01*
X152332166Y-107866852D01*
X152325473Y-107878444D01*
X152266458Y-108060072D01*
X152265768Y-108066633D01*
X152265768Y-108066635D01*
X152263441Y-108088774D01*
X152246496Y-108250000D01*
X151188504Y-108250000D01*
X151168576Y-108060398D01*
X151181348Y-107990560D01*
X151219824Y-107945294D01*
X151288674Y-107895271D01*
X151305909Y-107882749D01*
X151305911Y-107882747D01*
X151311253Y-107878866D01*
X151316786Y-107872721D01*
X151434621Y-107741852D01*
X151434622Y-107741851D01*
X151439040Y-107736944D01*
X151534527Y-107571556D01*
X151593542Y-107389928D01*
X151606305Y-107268500D01*
X151612814Y-107206565D01*
X151612814Y-107206564D01*
X151613504Y-107200000D01*
X151608366Y-107151118D01*
X151594232Y-107016635D01*
X151594232Y-107016633D01*
X151593542Y-107010072D01*
X151534527Y-106828444D01*
X151439040Y-106663056D01*
X151423804Y-106646134D01*
X151315675Y-106526045D01*
X151315674Y-106526044D01*
X151311253Y-106521134D01*
X151156752Y-106408882D01*
X151150724Y-106406198D01*
X151150722Y-106406197D01*
X151046961Y-106360000D01*
X153286496Y-106360000D01*
X153287186Y-106366565D01*
X153304772Y-106533882D01*
X153306458Y-106549928D01*
X153365473Y-106731556D01*
X153368776Y-106737278D01*
X153368777Y-106737279D01*
X153381250Y-106758882D01*
X153460960Y-106896944D01*
X153465378Y-106901851D01*
X153465379Y-106901852D01*
X153568730Y-107016635D01*
X153588747Y-107038866D01*
X153687843Y-107110864D01*
X153721163Y-107135072D01*
X153743248Y-107151118D01*
X153749276Y-107153802D01*
X153749278Y-107153803D01*
X153911681Y-107226109D01*
X153917712Y-107228794D01*
X154011112Y-107248647D01*
X154098056Y-107267128D01*
X154098061Y-107267128D01*
X154104513Y-107268500D01*
X154295487Y-107268500D01*
X154301939Y-107267128D01*
X154301944Y-107267128D01*
X154388888Y-107248647D01*
X154482288Y-107228794D01*
X154488319Y-107226109D01*
X154650722Y-107153803D01*
X154650724Y-107153802D01*
X154656752Y-107151118D01*
X154678838Y-107135072D01*
X154712157Y-107110864D01*
X154811253Y-107038866D01*
X154831270Y-107016635D01*
X154934621Y-106901852D01*
X154934622Y-106901851D01*
X154939040Y-106896944D01*
X155018750Y-106758882D01*
X155031223Y-106737279D01*
X155031224Y-106737278D01*
X155034527Y-106731556D01*
X155093542Y-106549928D01*
X155095229Y-106533882D01*
X155112814Y-106366565D01*
X155113504Y-106360000D01*
X155106449Y-106292872D01*
X155094232Y-106176635D01*
X155094232Y-106176633D01*
X155093542Y-106170072D01*
X155070774Y-106100000D01*
X159076496Y-106100000D01*
X159077186Y-106106565D01*
X159084551Y-106176635D01*
X159096458Y-106289928D01*
X159155473Y-106471556D01*
X159250960Y-106636944D01*
X159255378Y-106641851D01*
X159255379Y-106641852D01*
X159293231Y-106683891D01*
X159378747Y-106778866D01*
X159533248Y-106891118D01*
X159539276Y-106893802D01*
X159539278Y-106893803D01*
X159701681Y-106966109D01*
X159707712Y-106968794D01*
X159798765Y-106988148D01*
X159888056Y-107007128D01*
X159888061Y-107007128D01*
X159894513Y-107008500D01*
X160085487Y-107008500D01*
X160091939Y-107007128D01*
X160091944Y-107007128D01*
X160181235Y-106988148D01*
X160272288Y-106968794D01*
X160278319Y-106966109D01*
X160440722Y-106893803D01*
X160440724Y-106893802D01*
X160446752Y-106891118D01*
X160601253Y-106778866D01*
X160686769Y-106683891D01*
X160724621Y-106641852D01*
X160724622Y-106641851D01*
X160729040Y-106636944D01*
X160824527Y-106471556D01*
X160883542Y-106289928D01*
X160895450Y-106176635D01*
X160902814Y-106106565D01*
X160903504Y-106100000D01*
X160883542Y-105910072D01*
X160824527Y-105728444D01*
X160729040Y-105563056D01*
X160635242Y-105458882D01*
X160605675Y-105426045D01*
X160605674Y-105426044D01*
X160601253Y-105421134D01*
X160446752Y-105308882D01*
X160440724Y-105306198D01*
X160440722Y-105306197D01*
X160278319Y-105233891D01*
X160278318Y-105233891D01*
X160272288Y-105231206D01*
X160178888Y-105211353D01*
X160091944Y-105192872D01*
X160091939Y-105192872D01*
X160085487Y-105191500D01*
X159894513Y-105191500D01*
X159888061Y-105192872D01*
X159888056Y-105192872D01*
X159801113Y-105211353D01*
X159707712Y-105231206D01*
X159701682Y-105233891D01*
X159701681Y-105233891D01*
X159539278Y-105306197D01*
X159539276Y-105306198D01*
X159533248Y-105308882D01*
X159378747Y-105421134D01*
X159374326Y-105426044D01*
X159374325Y-105426045D01*
X159344759Y-105458882D01*
X159250960Y-105563056D01*
X159155473Y-105728444D01*
X159096458Y-105910072D01*
X159076496Y-106100000D01*
X155070774Y-106100000D01*
X155034527Y-105988444D01*
X154939040Y-105823056D01*
X154835577Y-105708148D01*
X154815675Y-105686045D01*
X154815674Y-105686044D01*
X154811253Y-105681134D01*
X154656752Y-105568882D01*
X154650724Y-105566198D01*
X154650722Y-105566197D01*
X154488319Y-105493891D01*
X154488318Y-105493891D01*
X154482288Y-105491206D01*
X154388888Y-105471353D01*
X154301944Y-105452872D01*
X154301939Y-105452872D01*
X154295487Y-105451500D01*
X154104513Y-105451500D01*
X154098061Y-105452872D01*
X154098056Y-105452872D01*
X154011113Y-105471353D01*
X153917712Y-105491206D01*
X153911682Y-105493891D01*
X153911681Y-105493891D01*
X153749278Y-105566197D01*
X153749276Y-105566198D01*
X153743248Y-105568882D01*
X153588747Y-105681134D01*
X153584326Y-105686044D01*
X153584325Y-105686045D01*
X153564424Y-105708148D01*
X153460960Y-105823056D01*
X153365473Y-105988444D01*
X153306458Y-106170072D01*
X153305768Y-106176633D01*
X153305768Y-106176635D01*
X153293551Y-106292872D01*
X153286496Y-106360000D01*
X151046961Y-106360000D01*
X150988319Y-106333891D01*
X150988318Y-106333891D01*
X150982288Y-106331206D01*
X150888888Y-106311353D01*
X150801944Y-106292872D01*
X150801939Y-106292872D01*
X150795487Y-106291500D01*
X150604513Y-106291500D01*
X150598061Y-106292872D01*
X150598056Y-106292872D01*
X150511113Y-106311353D01*
X150417712Y-106331206D01*
X150411682Y-106333891D01*
X150411681Y-106333891D01*
X150249278Y-106406197D01*
X150249276Y-106406198D01*
X150243248Y-106408882D01*
X150088747Y-106521134D01*
X150084326Y-106526044D01*
X150084325Y-106526045D01*
X149976197Y-106646134D01*
X149960960Y-106663056D01*
X149865473Y-106828444D01*
X149806458Y-107010072D01*
X149805768Y-107016633D01*
X149805768Y-107016635D01*
X149791634Y-107151118D01*
X149786496Y-107200000D01*
X149805824Y-107383891D01*
X149806424Y-107389601D01*
X149793652Y-107459440D01*
X149755176Y-107504706D01*
X149741108Y-107514928D01*
X149671817Y-107565271D01*
X149663747Y-107571134D01*
X149659326Y-107576044D01*
X149659325Y-107576045D01*
X149545664Y-107702279D01*
X149535960Y-107713056D01*
X149519335Y-107741852D01*
X149447166Y-107866852D01*
X149440473Y-107878444D01*
X149381458Y-108060072D01*
X149380768Y-108066633D01*
X149380768Y-108066635D01*
X149378441Y-108088774D01*
X149361496Y-108250000D01*
X149358739Y-108249710D01*
X149342184Y-108306092D01*
X149287435Y-108353078D01*
X149224278Y-108381197D01*
X149224276Y-108381198D01*
X149218248Y-108383882D01*
X149212907Y-108387762D01*
X149212906Y-108387763D01*
X149170196Y-108418794D01*
X149063747Y-108496134D01*
X149059326Y-108501044D01*
X149059325Y-108501045D01*
X148945664Y-108627279D01*
X148935960Y-108638056D01*
X148932659Y-108643774D01*
X148847166Y-108791852D01*
X148840473Y-108803444D01*
X148781458Y-108985072D01*
X148761496Y-109175000D01*
X148092782Y-109175000D01*
X148104621Y-109161852D01*
X148104622Y-109161851D01*
X148109040Y-109156944D01*
X148204527Y-108991556D01*
X148263542Y-108809928D01*
X148283504Y-108620000D01*
X148281048Y-108596635D01*
X148264232Y-108436635D01*
X148264232Y-108436633D01*
X148263542Y-108430072D01*
X148248534Y-108383882D01*
X148237002Y-108348390D01*
X148234975Y-108277422D01*
X148271637Y-108216625D01*
X148308002Y-108195398D01*
X148307288Y-108193794D01*
X148475722Y-108118803D01*
X148475724Y-108118802D01*
X148481752Y-108116118D01*
X148636253Y-108003866D01*
X148745307Y-107882749D01*
X148759621Y-107866852D01*
X148759622Y-107866851D01*
X148764040Y-107861944D01*
X148841156Y-107728375D01*
X148856223Y-107702279D01*
X148856224Y-107702278D01*
X148859527Y-107696556D01*
X148918542Y-107514928D01*
X148938504Y-107325000D01*
X148932566Y-107268500D01*
X148919232Y-107141635D01*
X148919232Y-107141633D01*
X148918542Y-107135072D01*
X148859527Y-106953444D01*
X148842502Y-106923955D01*
X148809763Y-106867251D01*
X148764040Y-106788056D01*
X148751344Y-106773955D01*
X148640675Y-106651045D01*
X148640674Y-106651044D01*
X148636253Y-106646134D01*
X148512478Y-106556206D01*
X148487094Y-106537763D01*
X148487093Y-106537762D01*
X148481752Y-106533882D01*
X148475724Y-106531198D01*
X148475722Y-106531197D01*
X148313319Y-106458891D01*
X148313318Y-106458891D01*
X148307288Y-106456206D01*
X148213888Y-106436353D01*
X148126944Y-106417872D01*
X148126939Y-106417872D01*
X148120487Y-106416500D01*
X147929513Y-106416500D01*
X147923061Y-106417872D01*
X147923056Y-106417872D01*
X147836112Y-106436353D01*
X147742712Y-106456206D01*
X147736682Y-106458891D01*
X147736681Y-106458891D01*
X147574278Y-106531197D01*
X147574276Y-106531198D01*
X147568248Y-106533882D01*
X147562907Y-106537762D01*
X147562906Y-106537763D01*
X147537522Y-106556206D01*
X147413747Y-106646134D01*
X147409326Y-106651044D01*
X147409325Y-106651045D01*
X147298657Y-106773955D01*
X147285960Y-106788056D01*
X147240237Y-106867251D01*
X147207499Y-106923955D01*
X147190473Y-106953444D01*
X147131458Y-107135072D01*
X147130768Y-107141633D01*
X147130768Y-107141635D01*
X147117434Y-107268500D01*
X147111496Y-107325000D01*
X147131458Y-107514928D01*
X147133498Y-107521206D01*
X147157998Y-107596610D01*
X147160025Y-107667578D01*
X147123363Y-107728375D01*
X147086998Y-107749602D01*
X147087712Y-107751206D01*
X146919278Y-107826197D01*
X146919276Y-107826198D01*
X146913248Y-107828882D01*
X146907907Y-107832762D01*
X146907906Y-107832763D01*
X146875612Y-107856226D01*
X146758747Y-107941134D01*
X146754326Y-107946044D01*
X146754325Y-107946045D01*
X146645746Y-108066635D01*
X146630960Y-108083056D01*
X146586217Y-108160553D01*
X146544535Y-108232749D01*
X146535473Y-108248444D01*
X146476458Y-108430072D01*
X146475768Y-108436633D01*
X146475768Y-108436635D01*
X146458952Y-108596635D01*
X146456496Y-108620000D01*
X129496687Y-108620000D01*
X129494232Y-108596635D01*
X129494232Y-108596633D01*
X129493542Y-108590072D01*
X129434527Y-108408444D01*
X129339040Y-108243056D01*
X129334616Y-108238143D01*
X129332194Y-108234809D01*
X129308335Y-108167941D01*
X129324414Y-108098789D01*
X129340495Y-108076434D01*
X129344621Y-108071852D01*
X129344622Y-108071851D01*
X129349040Y-108066944D01*
X129421677Y-107941134D01*
X129441223Y-107907279D01*
X129441224Y-107907278D01*
X129444527Y-107901556D01*
X129503542Y-107719928D01*
X129505999Y-107696556D01*
X129522814Y-107536565D01*
X129523504Y-107530000D01*
X129503542Y-107340072D01*
X129444527Y-107158444D01*
X129440298Y-107151118D01*
X129358864Y-107010072D01*
X129349040Y-106993056D01*
X129327195Y-106968794D01*
X129225675Y-106856045D01*
X129225674Y-106856044D01*
X129221253Y-106851134D01*
X129082929Y-106750635D01*
X129072094Y-106742763D01*
X129072093Y-106742762D01*
X129066752Y-106738882D01*
X129060724Y-106736198D01*
X129060722Y-106736197D01*
X128898319Y-106663891D01*
X128898318Y-106663891D01*
X128892288Y-106661206D01*
X128778145Y-106636944D01*
X128711944Y-106622872D01*
X128711939Y-106622872D01*
X128705487Y-106621500D01*
X128570770Y-106621500D01*
X128502649Y-106601498D01*
X128456156Y-106547842D01*
X128444770Y-106495547D01*
X128444757Y-106458891D01*
X128444679Y-106250000D01*
X137256496Y-106250000D01*
X137257186Y-106256565D01*
X137273996Y-106416500D01*
X137276458Y-106439928D01*
X137335473Y-106621556D01*
X137338776Y-106627278D01*
X137338777Y-106627279D01*
X137356599Y-106658148D01*
X137430960Y-106786944D01*
X137435378Y-106791851D01*
X137435379Y-106791852D01*
X137554325Y-106923955D01*
X137558747Y-106928866D01*
X137713248Y-107041118D01*
X137719276Y-107043802D01*
X137719278Y-107043803D01*
X137881681Y-107116109D01*
X137887712Y-107118794D01*
X137964294Y-107135072D01*
X138068056Y-107157128D01*
X138068061Y-107157128D01*
X138074513Y-107158500D01*
X138265487Y-107158500D01*
X138271939Y-107157128D01*
X138271944Y-107157128D01*
X138375706Y-107135072D01*
X138452288Y-107118794D01*
X138458319Y-107116109D01*
X138620722Y-107043803D01*
X138620724Y-107043802D01*
X138626752Y-107041118D01*
X138774187Y-106934000D01*
X141834496Y-106934000D01*
X141835186Y-106940565D01*
X141845347Y-107037237D01*
X141854458Y-107123928D01*
X141913473Y-107305556D01*
X142008960Y-107470944D01*
X142136747Y-107612866D01*
X142212051Y-107667578D01*
X142284105Y-107719928D01*
X142291248Y-107725118D01*
X142297276Y-107727802D01*
X142297278Y-107727803D01*
X142459681Y-107800109D01*
X142465712Y-107802794D01*
X142559113Y-107822647D01*
X142646056Y-107841128D01*
X142646061Y-107841128D01*
X142652513Y-107842500D01*
X142669205Y-107842500D01*
X142737326Y-107862502D01*
X142783929Y-107916804D01*
X142785473Y-107921556D01*
X142880960Y-108086944D01*
X143008747Y-108228866D01*
X143163248Y-108341118D01*
X143169276Y-108343802D01*
X143169278Y-108343803D01*
X143331681Y-108416109D01*
X143337712Y-108418794D01*
X143406263Y-108433365D01*
X143518056Y-108457128D01*
X143518061Y-108457128D01*
X143524513Y-108458500D01*
X143715487Y-108458500D01*
X143721939Y-108457128D01*
X143721944Y-108457128D01*
X143833737Y-108433365D01*
X143902288Y-108418794D01*
X143908319Y-108416109D01*
X144070722Y-108343803D01*
X144070724Y-108343802D01*
X144076752Y-108341118D01*
X144231253Y-108228866D01*
X144359040Y-108086944D01*
X144443224Y-107941134D01*
X144451223Y-107927279D01*
X144451224Y-107927277D01*
X144454527Y-107921556D01*
X144513542Y-107739928D01*
X144514817Y-107727803D01*
X144532814Y-107556565D01*
X144533504Y-107550000D01*
X144516646Y-107389601D01*
X144514232Y-107366635D01*
X144514232Y-107366633D01*
X144513542Y-107360072D01*
X144454527Y-107178444D01*
X144440301Y-107153803D01*
X144376183Y-107042749D01*
X144359040Y-107013056D01*
X144353703Y-107007128D01*
X144235675Y-106876045D01*
X144235674Y-106876044D01*
X144231253Y-106871134D01*
X144076752Y-106758882D01*
X144070724Y-106756198D01*
X144070722Y-106756197D01*
X143908319Y-106683891D01*
X143908318Y-106683891D01*
X143902288Y-106681206D01*
X143801741Y-106659834D01*
X143721944Y-106642872D01*
X143721939Y-106642872D01*
X143715487Y-106641500D01*
X143698795Y-106641500D01*
X143630674Y-106621498D01*
X143584071Y-106567196D01*
X143582527Y-106562444D01*
X143578926Y-106556206D01*
X143526424Y-106465271D01*
X143487040Y-106397056D01*
X143427749Y-106331206D01*
X143363675Y-106260045D01*
X143363674Y-106260044D01*
X143359253Y-106255134D01*
X143204752Y-106142882D01*
X143198724Y-106140198D01*
X143198722Y-106140197D01*
X143036319Y-106067891D01*
X143036318Y-106067891D01*
X143030288Y-106065206D01*
X142936887Y-106045353D01*
X142849944Y-106026872D01*
X142849939Y-106026872D01*
X142843487Y-106025500D01*
X142652513Y-106025500D01*
X142646061Y-106026872D01*
X142646056Y-106026872D01*
X142559112Y-106045353D01*
X142465712Y-106065206D01*
X142459682Y-106067891D01*
X142459681Y-106067891D01*
X142297278Y-106140197D01*
X142297276Y-106140198D01*
X142291248Y-106142882D01*
X142136747Y-106255134D01*
X142132326Y-106260044D01*
X142132325Y-106260045D01*
X142068252Y-106331206D01*
X142008960Y-106397056D01*
X141969576Y-106465271D01*
X141917075Y-106556206D01*
X141913473Y-106562444D01*
X141854458Y-106744072D01*
X141853768Y-106750633D01*
X141853768Y-106750635D01*
X141841103Y-106871134D01*
X141834496Y-106934000D01*
X138774187Y-106934000D01*
X138781253Y-106928866D01*
X138785675Y-106923955D01*
X138904621Y-106791852D01*
X138904622Y-106791851D01*
X138909040Y-106786944D01*
X138983401Y-106658148D01*
X139001223Y-106627279D01*
X139001224Y-106627278D01*
X139004527Y-106621556D01*
X139063542Y-106439928D01*
X139066005Y-106416500D01*
X139082814Y-106256565D01*
X139083504Y-106250000D01*
X139075103Y-106170072D01*
X139064232Y-106066635D01*
X139064232Y-106066633D01*
X139063542Y-106060072D01*
X139004527Y-105878444D01*
X138909040Y-105713056D01*
X138880298Y-105681134D01*
X138785675Y-105576045D01*
X138785674Y-105576044D01*
X138781253Y-105571134D01*
X138626752Y-105458882D01*
X138620724Y-105456198D01*
X138620722Y-105456197D01*
X138458319Y-105383891D01*
X138458318Y-105383891D01*
X138452288Y-105381206D01*
X138358888Y-105361353D01*
X138271944Y-105342872D01*
X138271939Y-105342872D01*
X138265487Y-105341500D01*
X138074513Y-105341500D01*
X138068061Y-105342872D01*
X138068056Y-105342872D01*
X137981112Y-105361353D01*
X137887712Y-105381206D01*
X137881682Y-105383891D01*
X137881681Y-105383891D01*
X137719278Y-105456197D01*
X137719276Y-105456198D01*
X137713248Y-105458882D01*
X137558747Y-105571134D01*
X137554326Y-105576044D01*
X137554325Y-105576045D01*
X137459703Y-105681134D01*
X137430960Y-105713056D01*
X137335473Y-105878444D01*
X137276458Y-106060072D01*
X137275768Y-106066633D01*
X137275768Y-106066635D01*
X137264897Y-106170072D01*
X137256496Y-106250000D01*
X128444679Y-106250000D01*
X128444338Y-105341500D01*
X128444014Y-104474783D01*
X128463991Y-104406655D01*
X128517629Y-104360142D01*
X128587899Y-104350012D01*
X128599922Y-104352806D01*
X128599944Y-104352702D01*
X128785428Y-104392128D01*
X128785432Y-104392128D01*
X128791885Y-104393500D01*
X128988115Y-104393500D01*
X128994568Y-104392128D01*
X128994572Y-104392128D01*
X129084085Y-104373101D01*
X129180056Y-104352702D01*
X129187673Y-104349311D01*
X129276128Y-104309928D01*
X129338752Y-104282046D01*
X129409118Y-104272612D01*
X129441247Y-104282045D01*
X129503872Y-104309928D01*
X129592328Y-104349311D01*
X129599944Y-104352702D01*
X129695914Y-104373101D01*
X129785428Y-104392128D01*
X129785432Y-104392128D01*
X129791885Y-104393500D01*
X129988115Y-104393500D01*
X129994568Y-104392128D01*
X129994572Y-104392128D01*
X130078446Y-104374300D01*
X130180056Y-104352702D01*
X130183189Y-104351307D01*
X130252977Y-104349311D01*
X130265174Y-104353189D01*
X130354684Y-104386745D01*
X130416866Y-104393500D01*
X131363134Y-104393500D01*
X131425316Y-104386745D01*
X131561705Y-104335615D01*
X131678261Y-104248261D01*
X131765615Y-104131705D01*
X131770003Y-104120000D01*
X137626496Y-104120000D01*
X137627186Y-104126565D01*
X137643654Y-104283245D01*
X137646458Y-104309928D01*
X137705473Y-104491556D01*
X137800960Y-104656944D01*
X137928747Y-104798866D01*
X138083248Y-104911118D01*
X138089276Y-104913802D01*
X138089278Y-104913803D01*
X138251681Y-104986109D01*
X138257712Y-104988794D01*
X138351112Y-105008647D01*
X138438056Y-105027128D01*
X138438061Y-105027128D01*
X138444513Y-105028500D01*
X138635487Y-105028500D01*
X138641939Y-105027128D01*
X138641944Y-105027128D01*
X138728887Y-105008647D01*
X138822288Y-104988794D01*
X138828319Y-104986109D01*
X138990722Y-104913803D01*
X138990724Y-104913802D01*
X138996752Y-104911118D01*
X139151253Y-104798866D01*
X139279040Y-104656944D01*
X139374527Y-104491556D01*
X139433542Y-104309928D01*
X139436347Y-104283245D01*
X139452814Y-104126565D01*
X139453504Y-104120000D01*
X139446139Y-104049928D01*
X139434232Y-103936635D01*
X139434232Y-103936633D01*
X139433542Y-103930072D01*
X139410774Y-103860000D01*
X140886496Y-103860000D01*
X140887186Y-103866565D01*
X140899858Y-103987128D01*
X140906458Y-104049928D01*
X140965473Y-104231556D01*
X141060960Y-104396944D01*
X141188747Y-104538866D01*
X141343248Y-104651118D01*
X141349276Y-104653802D01*
X141349278Y-104653803D01*
X141511681Y-104726109D01*
X141517712Y-104728794D01*
X141611113Y-104748647D01*
X141698056Y-104767128D01*
X141698061Y-104767128D01*
X141704513Y-104768500D01*
X141895487Y-104768500D01*
X141901939Y-104767128D01*
X141901944Y-104767128D01*
X141988887Y-104748647D01*
X142082288Y-104728794D01*
X142088319Y-104726109D01*
X142250722Y-104653803D01*
X142250724Y-104653802D01*
X142256752Y-104651118D01*
X142411253Y-104538866D01*
X142539040Y-104396944D01*
X142634527Y-104231556D01*
X142693542Y-104049928D01*
X142700143Y-103987128D01*
X142712814Y-103866565D01*
X142713504Y-103860000D01*
X142693542Y-103670072D01*
X142634527Y-103488444D01*
X142539040Y-103323056D01*
X142491204Y-103269928D01*
X142415675Y-103186045D01*
X142415674Y-103186044D01*
X142411253Y-103181134D01*
X142312157Y-103109136D01*
X142272055Y-103080000D01*
X145076496Y-103080000D01*
X145096458Y-103269928D01*
X145155473Y-103451556D01*
X145250960Y-103616944D01*
X145255378Y-103621851D01*
X145255379Y-103621852D01*
X145304706Y-103676635D01*
X145378747Y-103758866D01*
X145477843Y-103830864D01*
X145508910Y-103853435D01*
X145533248Y-103871118D01*
X145539276Y-103873802D01*
X145539278Y-103873803D01*
X145680402Y-103936635D01*
X145707712Y-103948794D01*
X145801113Y-103968647D01*
X145888056Y-103987128D01*
X145888061Y-103987128D01*
X145894513Y-103988500D01*
X146085487Y-103988500D01*
X146091939Y-103987128D01*
X146091944Y-103987128D01*
X146178887Y-103968647D01*
X146272288Y-103948794D01*
X146299598Y-103936635D01*
X146440722Y-103873803D01*
X146440724Y-103873802D01*
X146446752Y-103871118D01*
X146471091Y-103853435D01*
X146502157Y-103830864D01*
X146601253Y-103758866D01*
X146675294Y-103676635D01*
X146724621Y-103621852D01*
X146724622Y-103621851D01*
X146729040Y-103616944D01*
X146824527Y-103451556D01*
X146883542Y-103269928D01*
X146903504Y-103080000D01*
X146894454Y-102993891D01*
X146884232Y-102896635D01*
X146884232Y-102896633D01*
X146883542Y-102890072D01*
X146824527Y-102708444D01*
X146729040Y-102543056D01*
X146601253Y-102401134D01*
X146446752Y-102288882D01*
X146440724Y-102286198D01*
X146440722Y-102286197D01*
X146278319Y-102213891D01*
X146278318Y-102213891D01*
X146272288Y-102211206D01*
X146178888Y-102191353D01*
X146091944Y-102172872D01*
X146091939Y-102172872D01*
X146085487Y-102171500D01*
X145894513Y-102171500D01*
X145888061Y-102172872D01*
X145888056Y-102172872D01*
X145801112Y-102191353D01*
X145707712Y-102211206D01*
X145701682Y-102213891D01*
X145701681Y-102213891D01*
X145539278Y-102286197D01*
X145539276Y-102286198D01*
X145533248Y-102288882D01*
X145378747Y-102401134D01*
X145250960Y-102543056D01*
X145155473Y-102708444D01*
X145096458Y-102890072D01*
X145095768Y-102896633D01*
X145095768Y-102896635D01*
X145085546Y-102993891D01*
X145076496Y-103080000D01*
X142272055Y-103080000D01*
X142262094Y-103072763D01*
X142262093Y-103072762D01*
X142256752Y-103068882D01*
X142250724Y-103066198D01*
X142250722Y-103066197D01*
X142088319Y-102993891D01*
X142088318Y-102993891D01*
X142082288Y-102991206D01*
X141988888Y-102971353D01*
X141901944Y-102952872D01*
X141901939Y-102952872D01*
X141895487Y-102951500D01*
X141704513Y-102951500D01*
X141698061Y-102952872D01*
X141698056Y-102952872D01*
X141611112Y-102971353D01*
X141517712Y-102991206D01*
X141511682Y-102993891D01*
X141511681Y-102993891D01*
X141349278Y-103066197D01*
X141349276Y-103066198D01*
X141343248Y-103068882D01*
X141337907Y-103072762D01*
X141337906Y-103072763D01*
X141287843Y-103109136D01*
X141188747Y-103181134D01*
X141184326Y-103186044D01*
X141184325Y-103186045D01*
X141108797Y-103269928D01*
X141060960Y-103323056D01*
X140965473Y-103488444D01*
X140906458Y-103670072D01*
X140886496Y-103860000D01*
X139410774Y-103860000D01*
X139374527Y-103748444D01*
X139279040Y-103583056D01*
X139151253Y-103441134D01*
X138996752Y-103328882D01*
X138990724Y-103326198D01*
X138990722Y-103326197D01*
X138828319Y-103253891D01*
X138828318Y-103253891D01*
X138822288Y-103251206D01*
X138728888Y-103231353D01*
X138641944Y-103212872D01*
X138641939Y-103212872D01*
X138635487Y-103211500D01*
X138444513Y-103211500D01*
X138438061Y-103212872D01*
X138438056Y-103212872D01*
X138351112Y-103231353D01*
X138257712Y-103251206D01*
X138251682Y-103253891D01*
X138251681Y-103253891D01*
X138089278Y-103326197D01*
X138089276Y-103326198D01*
X138083248Y-103328882D01*
X137928747Y-103441134D01*
X137800960Y-103583056D01*
X137705473Y-103748444D01*
X137646458Y-103930072D01*
X137645768Y-103936633D01*
X137645768Y-103936635D01*
X137633861Y-104049928D01*
X137626496Y-104120000D01*
X131770003Y-104120000D01*
X131816745Y-103995316D01*
X131823500Y-103933134D01*
X131823500Y-102986866D01*
X131816745Y-102924684D01*
X131765615Y-102788295D01*
X131748578Y-102765563D01*
X131723732Y-102699058D01*
X131738785Y-102629676D01*
X131748574Y-102614443D01*
X131765615Y-102591705D01*
X131816745Y-102455316D01*
X131823500Y-102393134D01*
X131823500Y-101446866D01*
X131816745Y-101384684D01*
X131765615Y-101248295D01*
X131744832Y-101220564D01*
X131719985Y-101154057D01*
X131735039Y-101084675D01*
X131744832Y-101069436D01*
X131760229Y-101048891D01*
X131765615Y-101041705D01*
X131816745Y-100905316D01*
X131823500Y-100843134D01*
X131823500Y-100680000D01*
X143426496Y-100680000D01*
X143427186Y-100686565D01*
X143434747Y-100758500D01*
X143446458Y-100869928D01*
X143505473Y-101051556D01*
X143508776Y-101057278D01*
X143508777Y-101057279D01*
X143524594Y-101084675D01*
X143600960Y-101216944D01*
X143605378Y-101221851D01*
X143605379Y-101221852D01*
X143632391Y-101251852D01*
X143728747Y-101358866D01*
X143775095Y-101392540D01*
X143845193Y-101443469D01*
X143883248Y-101471118D01*
X143889276Y-101473802D01*
X143889278Y-101473803D01*
X143950629Y-101501118D01*
X144057712Y-101548794D01*
X144151113Y-101568647D01*
X144238056Y-101587128D01*
X144238061Y-101587128D01*
X144244513Y-101588500D01*
X144435487Y-101588500D01*
X144441939Y-101587128D01*
X144441944Y-101587128D01*
X144528888Y-101568647D01*
X144622288Y-101548794D01*
X144729371Y-101501118D01*
X144790722Y-101473803D01*
X144790724Y-101473802D01*
X144796752Y-101471118D01*
X144834808Y-101443469D01*
X144904905Y-101392540D01*
X144951253Y-101358866D01*
X145047609Y-101251852D01*
X145074621Y-101221852D01*
X145074622Y-101221851D01*
X145079040Y-101216944D01*
X145155406Y-101084675D01*
X145171223Y-101057279D01*
X145171224Y-101057278D01*
X145174527Y-101051556D01*
X145233542Y-100869928D01*
X145245254Y-100758500D01*
X145252814Y-100686565D01*
X145253504Y-100680000D01*
X145249417Y-100641118D01*
X145234232Y-100496635D01*
X145234232Y-100496633D01*
X145233542Y-100490072D01*
X145174527Y-100308444D01*
X145156341Y-100276944D01*
X145099662Y-100178774D01*
X145079040Y-100143056D01*
X144951253Y-100001134D01*
X144807741Y-99896866D01*
X144802094Y-99892763D01*
X144802093Y-99892762D01*
X144796752Y-99888882D01*
X144790724Y-99886198D01*
X144790722Y-99886197D01*
X144628319Y-99813891D01*
X144628318Y-99813891D01*
X144622288Y-99811206D01*
X144528888Y-99791353D01*
X144441944Y-99772872D01*
X144441939Y-99772872D01*
X144435487Y-99771500D01*
X144244513Y-99771500D01*
X144238061Y-99772872D01*
X144238056Y-99772872D01*
X144151113Y-99791353D01*
X144057712Y-99811206D01*
X144051682Y-99813891D01*
X144051681Y-99813891D01*
X143889278Y-99886197D01*
X143889276Y-99886198D01*
X143883248Y-99888882D01*
X143877907Y-99892762D01*
X143877906Y-99892763D01*
X143872259Y-99896866D01*
X143728747Y-100001134D01*
X143600960Y-100143056D01*
X143580338Y-100178774D01*
X143523660Y-100276944D01*
X143505473Y-100308444D01*
X143446458Y-100490072D01*
X143445768Y-100496633D01*
X143445768Y-100496635D01*
X143430583Y-100641118D01*
X143426496Y-100680000D01*
X131823500Y-100680000D01*
X131823500Y-99896866D01*
X131816745Y-99834684D01*
X131765615Y-99698295D01*
X131748578Y-99675563D01*
X131731556Y-99630000D01*
X150366496Y-99630000D01*
X150386458Y-99819928D01*
X150445473Y-100001556D01*
X150540960Y-100166944D01*
X150545378Y-100171851D01*
X150545379Y-100171852D01*
X150663214Y-100302721D01*
X150668747Y-100308866D01*
X150823248Y-100421118D01*
X150829276Y-100423802D01*
X150829278Y-100423803D01*
X150964021Y-100483794D01*
X150997712Y-100498794D01*
X151171364Y-100535705D01*
X151233837Y-100569434D01*
X151268159Y-100631583D01*
X151270477Y-100672122D01*
X151266496Y-100710000D01*
X151267186Y-100716565D01*
X151280130Y-100839717D01*
X151286458Y-100899928D01*
X151345473Y-101081556D01*
X151440960Y-101246944D01*
X151568747Y-101388866D01*
X151723248Y-101501118D01*
X151729276Y-101503802D01*
X151729278Y-101503803D01*
X151833412Y-101550166D01*
X151897712Y-101578794D01*
X151991113Y-101598647D01*
X152078056Y-101617128D01*
X152078061Y-101617128D01*
X152084513Y-101618500D01*
X152275487Y-101618500D01*
X152281939Y-101617128D01*
X152281944Y-101617128D01*
X152368887Y-101598647D01*
X152462288Y-101578794D01*
X152526588Y-101550166D01*
X152630722Y-101503803D01*
X152630724Y-101503802D01*
X152636752Y-101501118D01*
X152791253Y-101388866D01*
X152919040Y-101246944D01*
X153014527Y-101081556D01*
X153073542Y-100899928D01*
X153079871Y-100839717D01*
X153092814Y-100716565D01*
X153093504Y-100710000D01*
X153086896Y-100647128D01*
X153074232Y-100526635D01*
X153074232Y-100526633D01*
X153073542Y-100520072D01*
X153014527Y-100338444D01*
X152997207Y-100308444D01*
X152950346Y-100227279D01*
X152919040Y-100173056D01*
X152897177Y-100148774D01*
X152795675Y-100036045D01*
X152795674Y-100036044D01*
X152791253Y-100031134D01*
X152692157Y-99959136D01*
X152642094Y-99922763D01*
X152642093Y-99922762D01*
X152636752Y-99918882D01*
X152630724Y-99916198D01*
X152630722Y-99916197D01*
X152482040Y-99850000D01*
X158146496Y-99850000D01*
X158147186Y-99856565D01*
X158165126Y-100027251D01*
X158166458Y-100039928D01*
X158225473Y-100221556D01*
X158320960Y-100386944D01*
X158325378Y-100391851D01*
X158325379Y-100391852D01*
X158351730Y-100421118D01*
X158448747Y-100528866D01*
X158603248Y-100641118D01*
X158609276Y-100643802D01*
X158609278Y-100643803D01*
X158705324Y-100686565D01*
X158777712Y-100718794D01*
X158871113Y-100738647D01*
X158958056Y-100757128D01*
X158958061Y-100757128D01*
X158964513Y-100758500D01*
X159155487Y-100758500D01*
X159161939Y-100757128D01*
X159161944Y-100757128D01*
X159248888Y-100738647D01*
X159342288Y-100718794D01*
X159414676Y-100686565D01*
X159510722Y-100643803D01*
X159510724Y-100643802D01*
X159516752Y-100641118D01*
X159671253Y-100528866D01*
X159768270Y-100421118D01*
X159794621Y-100391852D01*
X159794622Y-100391851D01*
X159799040Y-100386944D01*
X159894527Y-100221556D01*
X159953542Y-100039928D01*
X159954875Y-100027251D01*
X159972814Y-99856565D01*
X159973504Y-99850000D01*
X159965398Y-99772872D01*
X159961943Y-99740000D01*
X160666496Y-99740000D01*
X160667186Y-99746565D01*
X160676448Y-99834684D01*
X160686458Y-99929928D01*
X160745473Y-100111556D01*
X160748776Y-100117278D01*
X160748777Y-100117279D01*
X160766961Y-100148774D01*
X160840960Y-100276944D01*
X160845378Y-100281851D01*
X160845379Y-100281852D01*
X160964325Y-100413955D01*
X160968747Y-100418866D01*
X161058112Y-100483794D01*
X161117078Y-100526635D01*
X161123248Y-100531118D01*
X161129276Y-100533802D01*
X161129278Y-100533803D01*
X161291681Y-100606109D01*
X161297712Y-100608794D01*
X161391112Y-100628647D01*
X161478056Y-100647128D01*
X161478061Y-100647128D01*
X161484513Y-100648500D01*
X161675487Y-100648500D01*
X161681939Y-100647128D01*
X161681944Y-100647128D01*
X161768887Y-100628647D01*
X161862288Y-100608794D01*
X161868319Y-100606109D01*
X162030722Y-100533803D01*
X162030724Y-100533802D01*
X162036752Y-100531118D01*
X162042923Y-100526635D01*
X162101888Y-100483794D01*
X162191253Y-100418866D01*
X162195675Y-100413955D01*
X162314621Y-100281852D01*
X162314622Y-100281851D01*
X162319040Y-100276944D01*
X162393039Y-100148774D01*
X162411223Y-100117279D01*
X162411224Y-100117278D01*
X162414527Y-100111556D01*
X162473542Y-99929928D01*
X162483553Y-99834684D01*
X162492814Y-99746565D01*
X162493504Y-99740000D01*
X162485103Y-99660072D01*
X162474232Y-99556635D01*
X162474232Y-99556633D01*
X162473542Y-99550072D01*
X162414527Y-99368444D01*
X162408186Y-99357460D01*
X162322341Y-99208774D01*
X162319040Y-99203056D01*
X162290298Y-99171134D01*
X162195675Y-99066045D01*
X162195674Y-99066044D01*
X162191253Y-99061134D01*
X162036752Y-98948882D01*
X162030724Y-98946198D01*
X162030722Y-98946197D01*
X161868319Y-98873891D01*
X161868318Y-98873891D01*
X161862288Y-98871206D01*
X161768888Y-98851353D01*
X161681944Y-98832872D01*
X161681939Y-98832872D01*
X161675487Y-98831500D01*
X161484513Y-98831500D01*
X161478061Y-98832872D01*
X161478056Y-98832872D01*
X161391112Y-98851353D01*
X161297712Y-98871206D01*
X161291682Y-98873891D01*
X161291681Y-98873891D01*
X161129278Y-98946197D01*
X161129276Y-98946198D01*
X161123248Y-98948882D01*
X160968747Y-99061134D01*
X160964326Y-99066044D01*
X160964325Y-99066045D01*
X160869703Y-99171134D01*
X160840960Y-99203056D01*
X160837659Y-99208774D01*
X160751815Y-99357460D01*
X160745473Y-99368444D01*
X160686458Y-99550072D01*
X160685768Y-99556633D01*
X160685768Y-99556635D01*
X160674897Y-99660072D01*
X160666496Y-99740000D01*
X159961943Y-99740000D01*
X159954232Y-99666635D01*
X159954232Y-99666633D01*
X159953542Y-99660072D01*
X159894527Y-99478444D01*
X159799040Y-99313056D01*
X159695577Y-99198148D01*
X159675675Y-99176045D01*
X159675674Y-99176044D01*
X159671253Y-99171134D01*
X159516752Y-99058882D01*
X159510724Y-99056198D01*
X159510722Y-99056197D01*
X159348319Y-98983891D01*
X159348318Y-98983891D01*
X159342288Y-98981206D01*
X159248887Y-98961353D01*
X159161944Y-98942872D01*
X159161939Y-98942872D01*
X159155487Y-98941500D01*
X158964513Y-98941500D01*
X158958061Y-98942872D01*
X158958056Y-98942872D01*
X158871113Y-98961353D01*
X158777712Y-98981206D01*
X158771682Y-98983891D01*
X158771681Y-98983891D01*
X158609278Y-99056197D01*
X158609276Y-99056198D01*
X158603248Y-99058882D01*
X158448747Y-99171134D01*
X158444326Y-99176044D01*
X158444325Y-99176045D01*
X158424424Y-99198148D01*
X158320960Y-99313056D01*
X158225473Y-99478444D01*
X158166458Y-99660072D01*
X158165768Y-99666633D01*
X158165768Y-99666635D01*
X158154602Y-99772872D01*
X158146496Y-99850000D01*
X152482040Y-99850000D01*
X152468319Y-99843891D01*
X152468318Y-99843891D01*
X152462288Y-99841206D01*
X152288636Y-99804295D01*
X152226163Y-99770566D01*
X152191841Y-99708417D01*
X152189523Y-99667878D01*
X152192814Y-99636565D01*
X152193504Y-99630000D01*
X152185103Y-99550072D01*
X152174232Y-99446635D01*
X152174232Y-99446633D01*
X152173542Y-99440072D01*
X152114527Y-99258444D01*
X152035596Y-99121732D01*
X152018858Y-99052737D01*
X152042078Y-98985645D01*
X152070656Y-98956795D01*
X152085751Y-98945828D01*
X152116825Y-98911317D01*
X152209119Y-98808814D01*
X152209120Y-98808813D01*
X152213538Y-98803906D01*
X152309025Y-98638518D01*
X152358023Y-98487719D01*
X152398097Y-98429113D01*
X152451659Y-98403409D01*
X152492784Y-98394667D01*
X152492789Y-98394665D01*
X152499250Y-98393292D01*
X152550361Y-98370536D01*
X152667684Y-98318301D01*
X152667686Y-98318300D01*
X152673714Y-98315616D01*
X152691712Y-98302540D01*
X152749716Y-98260397D01*
X152828215Y-98203364D01*
X152868795Y-98158295D01*
X152951583Y-98066350D01*
X152951584Y-98066349D01*
X152956002Y-98061442D01*
X153045730Y-97906029D01*
X153048185Y-97901777D01*
X153048186Y-97901776D01*
X153051489Y-97896054D01*
X153110504Y-97714426D01*
X153112382Y-97696564D01*
X153129776Y-97531063D01*
X153130466Y-97524498D01*
X153114343Y-97371094D01*
X153111194Y-97341133D01*
X153111194Y-97341131D01*
X153110504Y-97334570D01*
X153051489Y-97152942D01*
X152956002Y-96987554D01*
X152876162Y-96898882D01*
X152832637Y-96850543D01*
X152832636Y-96850542D01*
X152828215Y-96845632D01*
X152673714Y-96733380D01*
X152667686Y-96730696D01*
X152667684Y-96730695D01*
X152505281Y-96658389D01*
X152505280Y-96658389D01*
X152499250Y-96655704D01*
X152405849Y-96635851D01*
X152318906Y-96617370D01*
X152318901Y-96617370D01*
X152312449Y-96615998D01*
X152121475Y-96615998D01*
X152115023Y-96617370D01*
X152115018Y-96617370D01*
X152028075Y-96635851D01*
X151934674Y-96655704D01*
X151928644Y-96658389D01*
X151928643Y-96658389D01*
X151766240Y-96730695D01*
X151766238Y-96730696D01*
X151760210Y-96733380D01*
X151605709Y-96845632D01*
X151601288Y-96850542D01*
X151601287Y-96850543D01*
X151557763Y-96898882D01*
X151477922Y-96987554D01*
X151382435Y-97152942D01*
X151366212Y-97202872D01*
X151333437Y-97303741D01*
X151293363Y-97362347D01*
X151239801Y-97388051D01*
X151198676Y-97396793D01*
X151198671Y-97396795D01*
X151192210Y-97398168D01*
X151186180Y-97400853D01*
X151186179Y-97400853D01*
X151023776Y-97473159D01*
X151023774Y-97473160D01*
X151017746Y-97475844D01*
X150863245Y-97588096D01*
X150858824Y-97593006D01*
X150858823Y-97593007D01*
X150747974Y-97716118D01*
X150735458Y-97730018D01*
X150726965Y-97744729D01*
X150650888Y-97876498D01*
X150639971Y-97895406D01*
X150580956Y-98077034D01*
X150580266Y-98083595D01*
X150580266Y-98083597D01*
X150567678Y-98203364D01*
X150560994Y-98266962D01*
X150561684Y-98273527D01*
X150578037Y-98429113D01*
X150580956Y-98456890D01*
X150639971Y-98638518D01*
X150643274Y-98644240D01*
X150643275Y-98644241D01*
X150718902Y-98775230D01*
X150735640Y-98844225D01*
X150712420Y-98911317D01*
X150683842Y-98940167D01*
X150668747Y-98951134D01*
X150664326Y-98956044D01*
X150664325Y-98956045D01*
X150569703Y-99061134D01*
X150540960Y-99093056D01*
X150445473Y-99258444D01*
X150386458Y-99440072D01*
X150385768Y-99446633D01*
X150385768Y-99446635D01*
X150374897Y-99550072D01*
X150366496Y-99630000D01*
X131731556Y-99630000D01*
X131723732Y-99609058D01*
X131738785Y-99539676D01*
X131748574Y-99524443D01*
X131765615Y-99501705D01*
X131816745Y-99365316D01*
X131823500Y-99303134D01*
X131823500Y-98356866D01*
X131816745Y-98294684D01*
X131765615Y-98158295D01*
X131729420Y-98110000D01*
X138606496Y-98110000D01*
X138607186Y-98116565D01*
X138618483Y-98224046D01*
X138626458Y-98299928D01*
X138685473Y-98481556D01*
X138780960Y-98646944D01*
X138908747Y-98788866D01*
X139063248Y-98901118D01*
X139069276Y-98903802D01*
X139069278Y-98903803D01*
X139188299Y-98956794D01*
X139237712Y-98978794D01*
X139331113Y-98998647D01*
X139418056Y-99017128D01*
X139418061Y-99017128D01*
X139424513Y-99018500D01*
X139615487Y-99018500D01*
X139621939Y-99017128D01*
X139621944Y-99017128D01*
X139708887Y-98998647D01*
X139802288Y-98978794D01*
X139851701Y-98956794D01*
X139970722Y-98903803D01*
X139970724Y-98903802D01*
X139976752Y-98901118D01*
X140131253Y-98788866D01*
X140259040Y-98646944D01*
X140354527Y-98481556D01*
X140413542Y-98299928D01*
X140421518Y-98224046D01*
X140432814Y-98116565D01*
X140433504Y-98110000D01*
X140425381Y-98032715D01*
X140414232Y-97926635D01*
X140414232Y-97926633D01*
X140413542Y-97920072D01*
X140354527Y-97738444D01*
X140322768Y-97683435D01*
X140276828Y-97603866D01*
X140259040Y-97573056D01*
X140221230Y-97531063D01*
X140135675Y-97436045D01*
X140135674Y-97436044D01*
X140131253Y-97431134D01*
X139976752Y-97318882D01*
X139970724Y-97316198D01*
X139970722Y-97316197D01*
X139808319Y-97243891D01*
X139808318Y-97243891D01*
X139802288Y-97241206D01*
X139738259Y-97227596D01*
X145809425Y-97227596D01*
X145810115Y-97234161D01*
X145827353Y-97398168D01*
X145829387Y-97417524D01*
X145888402Y-97599152D01*
X145983889Y-97764540D01*
X145988307Y-97769447D01*
X145988308Y-97769448D01*
X146107004Y-97901273D01*
X146111676Y-97906462D01*
X146139442Y-97926635D01*
X146251157Y-98007801D01*
X146266177Y-98018714D01*
X146272205Y-98021398D01*
X146272207Y-98021399D01*
X146411907Y-98083597D01*
X146440641Y-98096390D01*
X146504671Y-98110000D01*
X146620985Y-98134724D01*
X146620990Y-98134724D01*
X146627442Y-98136096D01*
X146818416Y-98136096D01*
X146824868Y-98134724D01*
X146824873Y-98134724D01*
X146941187Y-98110000D01*
X147005217Y-98096390D01*
X147033951Y-98083597D01*
X147173651Y-98021399D01*
X147173653Y-98021398D01*
X147179681Y-98018714D01*
X147194702Y-98007801D01*
X147306416Y-97926635D01*
X147334182Y-97906462D01*
X147338854Y-97901273D01*
X147457550Y-97769448D01*
X147457551Y-97769447D01*
X147461969Y-97764540D01*
X147557456Y-97599152D01*
X147616471Y-97417524D01*
X147618506Y-97398168D01*
X147635743Y-97234161D01*
X147636433Y-97227596D01*
X147624591Y-97114928D01*
X147617161Y-97044231D01*
X147617161Y-97044229D01*
X147616471Y-97037668D01*
X147557456Y-96856040D01*
X147536553Y-96819834D01*
X147505238Y-96765596D01*
X147488500Y-96696601D01*
X147505238Y-96639596D01*
X147554152Y-96554875D01*
X147554153Y-96554874D01*
X147557456Y-96549152D01*
X147616471Y-96367524D01*
X147629230Y-96246134D01*
X147635743Y-96184161D01*
X147636433Y-96177596D01*
X147617357Y-95996098D01*
X147630129Y-95926260D01*
X147678631Y-95874413D01*
X147747464Y-95857019D01*
X147816728Y-95880992D01*
X147880053Y-95927000D01*
X147913248Y-95951118D01*
X147919276Y-95953802D01*
X147919278Y-95953803D01*
X148081681Y-96026109D01*
X148087712Y-96028794D01*
X148181112Y-96048647D01*
X148268056Y-96067128D01*
X148268061Y-96067128D01*
X148274513Y-96068500D01*
X148465487Y-96068500D01*
X148471939Y-96067128D01*
X148471944Y-96067128D01*
X148558888Y-96048647D01*
X148652288Y-96028794D01*
X148658319Y-96026109D01*
X148820722Y-95953803D01*
X148820724Y-95953802D01*
X148826752Y-95951118D01*
X148859948Y-95927000D01*
X148944601Y-95865495D01*
X148981253Y-95838866D01*
X148985675Y-95833955D01*
X149104621Y-95701852D01*
X149104622Y-95701851D01*
X149109040Y-95696944D01*
X149178153Y-95577237D01*
X149201223Y-95537279D01*
X149201224Y-95537278D01*
X149204527Y-95531556D01*
X149263542Y-95349928D01*
X149265104Y-95335072D01*
X149282814Y-95166565D01*
X149283504Y-95160000D01*
X149265238Y-94986206D01*
X149264232Y-94976635D01*
X149264232Y-94976633D01*
X149263542Y-94970072D01*
X149205033Y-94790000D01*
X150176496Y-94790000D01*
X150177186Y-94796565D01*
X150192682Y-94943998D01*
X150196458Y-94979928D01*
X150255473Y-95161556D01*
X150350960Y-95326944D01*
X150355378Y-95331851D01*
X150355379Y-95331852D01*
X150408059Y-95390359D01*
X150478747Y-95468866D01*
X150546973Y-95518435D01*
X150616286Y-95568794D01*
X150633248Y-95581118D01*
X150639276Y-95583802D01*
X150639278Y-95583803D01*
X150766964Y-95640652D01*
X150807712Y-95658794D01*
X150900849Y-95678591D01*
X150988056Y-95697128D01*
X150988061Y-95697128D01*
X150994513Y-95698500D01*
X151185487Y-95698500D01*
X151191939Y-95697128D01*
X151191944Y-95697128D01*
X151279151Y-95678591D01*
X151372288Y-95658794D01*
X151413036Y-95640652D01*
X151540722Y-95583803D01*
X151540724Y-95583802D01*
X151546752Y-95581118D01*
X151563715Y-95568794D01*
X151633027Y-95518435D01*
X151701253Y-95468866D01*
X151771941Y-95390359D01*
X151824621Y-95331852D01*
X151824622Y-95331851D01*
X151829040Y-95326944D01*
X151924527Y-95161556D01*
X151983542Y-94979928D01*
X151987319Y-94943998D01*
X152002814Y-94796565D01*
X152003504Y-94790000D01*
X151997491Y-94732786D01*
X151984232Y-94606635D01*
X151984232Y-94606633D01*
X151983542Y-94600072D01*
X151924527Y-94418444D01*
X151903990Y-94382872D01*
X151832341Y-94258774D01*
X151829040Y-94253056D01*
X151701253Y-94111134D01*
X151571612Y-94016944D01*
X151552094Y-94002763D01*
X151552093Y-94002762D01*
X151546752Y-93998882D01*
X151540724Y-93996198D01*
X151540722Y-93996197D01*
X151378319Y-93923891D01*
X151378318Y-93923891D01*
X151372288Y-93921206D01*
X151278887Y-93901353D01*
X151191944Y-93882872D01*
X151191939Y-93882872D01*
X151185487Y-93881500D01*
X150994513Y-93881500D01*
X150988061Y-93882872D01*
X150988056Y-93882872D01*
X150901113Y-93901353D01*
X150807712Y-93921206D01*
X150801682Y-93923891D01*
X150801681Y-93923891D01*
X150639278Y-93996197D01*
X150639276Y-93996198D01*
X150633248Y-93998882D01*
X150627907Y-94002762D01*
X150627906Y-94002763D01*
X150608388Y-94016944D01*
X150478747Y-94111134D01*
X150350960Y-94253056D01*
X150347659Y-94258774D01*
X150276011Y-94382872D01*
X150255473Y-94418444D01*
X150196458Y-94600072D01*
X150195768Y-94606633D01*
X150195768Y-94606635D01*
X150182509Y-94732786D01*
X150176496Y-94790000D01*
X149205033Y-94790000D01*
X149204527Y-94788444D01*
X149178168Y-94742788D01*
X149127387Y-94654834D01*
X149109040Y-94623056D01*
X149103269Y-94616646D01*
X148985675Y-94486045D01*
X148985674Y-94486044D01*
X148981253Y-94481134D01*
X148853754Y-94388500D01*
X148832094Y-94372763D01*
X148832093Y-94372762D01*
X148826752Y-94368882D01*
X148820724Y-94366198D01*
X148820722Y-94366197D01*
X148658319Y-94293891D01*
X148658318Y-94293891D01*
X148652288Y-94291206D01*
X148557782Y-94271118D01*
X148471944Y-94252872D01*
X148471939Y-94252872D01*
X148465487Y-94251500D01*
X148274513Y-94251500D01*
X148268061Y-94252872D01*
X148268056Y-94252872D01*
X148182218Y-94271118D01*
X148087712Y-94291206D01*
X148081682Y-94293891D01*
X148081681Y-94293891D01*
X147919278Y-94366197D01*
X147919276Y-94366198D01*
X147913248Y-94368882D01*
X147907907Y-94372762D01*
X147907906Y-94372763D01*
X147886246Y-94388500D01*
X147758747Y-94481134D01*
X147754326Y-94486044D01*
X147754325Y-94486045D01*
X147636732Y-94616646D01*
X147630960Y-94623056D01*
X147612613Y-94654834D01*
X147561833Y-94742788D01*
X147535473Y-94788444D01*
X147476458Y-94970072D01*
X147475768Y-94976633D01*
X147475768Y-94976635D01*
X147474762Y-94986206D01*
X147456496Y-95160000D01*
X147457186Y-95166565D01*
X147475572Y-95341498D01*
X147462800Y-95411336D01*
X147414298Y-95463183D01*
X147345465Y-95480577D01*
X147276201Y-95456604D01*
X147185023Y-95390359D01*
X147185022Y-95390358D01*
X147179681Y-95386478D01*
X147173653Y-95383794D01*
X147173651Y-95383793D01*
X147011248Y-95311487D01*
X147011247Y-95311487D01*
X147005217Y-95308802D01*
X146910015Y-95288566D01*
X146824873Y-95270468D01*
X146824868Y-95270468D01*
X146818416Y-95269096D01*
X146627442Y-95269096D01*
X146620990Y-95270468D01*
X146620985Y-95270468D01*
X146535843Y-95288566D01*
X146440641Y-95308802D01*
X146434611Y-95311487D01*
X146434610Y-95311487D01*
X146272207Y-95383793D01*
X146272205Y-95383794D01*
X146266177Y-95386478D01*
X146111676Y-95498730D01*
X146107255Y-95503640D01*
X146107254Y-95503641D01*
X146037494Y-95581118D01*
X145983889Y-95640652D01*
X145888402Y-95806040D01*
X145829387Y-95987668D01*
X145828697Y-95994229D01*
X145828697Y-95994231D01*
X145820891Y-96068500D01*
X145809425Y-96177596D01*
X145810115Y-96184161D01*
X145816629Y-96246134D01*
X145829387Y-96367524D01*
X145888402Y-96549152D01*
X145891705Y-96554874D01*
X145891706Y-96554875D01*
X145940620Y-96639596D01*
X145957358Y-96708591D01*
X145940620Y-96765596D01*
X145909306Y-96819834D01*
X145888402Y-96856040D01*
X145829387Y-97037668D01*
X145828697Y-97044229D01*
X145828697Y-97044231D01*
X145821267Y-97114928D01*
X145809425Y-97227596D01*
X139738259Y-97227596D01*
X139707373Y-97221031D01*
X139621944Y-97202872D01*
X139621939Y-97202872D01*
X139615487Y-97201500D01*
X139424513Y-97201500D01*
X139418061Y-97202872D01*
X139418056Y-97202872D01*
X139332627Y-97221031D01*
X139237712Y-97241206D01*
X139231682Y-97243891D01*
X139231681Y-97243891D01*
X139069278Y-97316197D01*
X139069276Y-97316198D01*
X139063248Y-97318882D01*
X138908747Y-97431134D01*
X138904326Y-97436044D01*
X138904325Y-97436045D01*
X138818771Y-97531063D01*
X138780960Y-97573056D01*
X138763172Y-97603866D01*
X138717233Y-97683435D01*
X138685473Y-97738444D01*
X138626458Y-97920072D01*
X138625768Y-97926633D01*
X138625768Y-97926635D01*
X138614619Y-98032715D01*
X138606496Y-98110000D01*
X131729420Y-98110000D01*
X131678261Y-98041739D01*
X131561705Y-97954385D01*
X131425316Y-97903255D01*
X131363134Y-97896500D01*
X131311737Y-97896500D01*
X131243616Y-97876498D01*
X131197123Y-97822842D01*
X131186427Y-97757331D01*
X131193504Y-97690000D01*
X131182794Y-97588096D01*
X131174232Y-97506635D01*
X131174232Y-97506633D01*
X131173542Y-97500072D01*
X131114527Y-97318444D01*
X131019040Y-97153056D01*
X131013785Y-97147219D01*
X130895675Y-97016045D01*
X130895674Y-97016044D01*
X130891253Y-97011134D01*
X130772700Y-96925000D01*
X133786496Y-96925000D01*
X133787186Y-96931565D01*
X133799028Y-97044231D01*
X133806458Y-97114928D01*
X133865473Y-97296556D01*
X133960960Y-97461944D01*
X133965378Y-97466851D01*
X133965379Y-97466852D01*
X134084325Y-97598955D01*
X134088747Y-97603866D01*
X134243248Y-97716118D01*
X134249276Y-97718802D01*
X134249278Y-97718803D01*
X134411681Y-97791109D01*
X134417712Y-97793794D01*
X134511112Y-97813647D01*
X134598056Y-97832128D01*
X134598061Y-97832128D01*
X134604513Y-97833500D01*
X134795487Y-97833500D01*
X134801939Y-97832128D01*
X134801944Y-97832128D01*
X134888888Y-97813647D01*
X134982288Y-97793794D01*
X134988319Y-97791109D01*
X135150722Y-97718803D01*
X135150724Y-97718802D01*
X135156752Y-97716118D01*
X135311253Y-97603866D01*
X135315675Y-97598955D01*
X135434621Y-97466852D01*
X135434622Y-97466851D01*
X135439040Y-97461944D01*
X135534527Y-97296556D01*
X135593542Y-97114928D01*
X135600973Y-97044231D01*
X135612814Y-96931565D01*
X135613504Y-96925000D01*
X135606917Y-96862325D01*
X135594232Y-96741635D01*
X135594232Y-96741633D01*
X135593542Y-96735072D01*
X135534527Y-96553444D01*
X135528421Y-96542867D01*
X135442341Y-96393774D01*
X135439040Y-96388056D01*
X135376685Y-96318803D01*
X135315675Y-96251045D01*
X135315674Y-96251044D01*
X135311253Y-96246134D01*
X135156752Y-96133882D01*
X135150724Y-96131198D01*
X135150722Y-96131197D01*
X134988319Y-96058891D01*
X134988318Y-96058891D01*
X134982288Y-96056206D01*
X134888888Y-96036353D01*
X134801944Y-96017872D01*
X134801939Y-96017872D01*
X134795487Y-96016500D01*
X134604513Y-96016500D01*
X134598061Y-96017872D01*
X134598056Y-96017872D01*
X134511112Y-96036353D01*
X134417712Y-96056206D01*
X134411682Y-96058891D01*
X134411681Y-96058891D01*
X134249278Y-96131197D01*
X134249276Y-96131198D01*
X134243248Y-96133882D01*
X134088747Y-96246134D01*
X134084326Y-96251044D01*
X134084325Y-96251045D01*
X134023316Y-96318803D01*
X133960960Y-96388056D01*
X133957659Y-96393774D01*
X133871580Y-96542867D01*
X133865473Y-96553444D01*
X133806458Y-96735072D01*
X133805768Y-96741633D01*
X133805768Y-96741635D01*
X133793083Y-96862325D01*
X133786496Y-96925000D01*
X130772700Y-96925000D01*
X130736752Y-96898882D01*
X130730724Y-96896198D01*
X130730722Y-96896197D01*
X130568319Y-96823891D01*
X130568318Y-96823891D01*
X130562288Y-96821206D01*
X130468887Y-96801353D01*
X130381944Y-96782872D01*
X130381939Y-96782872D01*
X130375487Y-96781500D01*
X130184513Y-96781500D01*
X130178061Y-96782872D01*
X130178056Y-96782872D01*
X130091113Y-96801353D01*
X129997712Y-96821206D01*
X129991682Y-96823891D01*
X129991681Y-96823891D01*
X129829278Y-96896197D01*
X129829276Y-96896198D01*
X129823248Y-96898882D01*
X129668747Y-97011134D01*
X129664326Y-97016044D01*
X129664325Y-97016045D01*
X129546216Y-97147219D01*
X129540960Y-97153056D01*
X129445473Y-97318444D01*
X129386458Y-97500072D01*
X129385768Y-97506633D01*
X129385768Y-97506635D01*
X129377206Y-97588096D01*
X129366496Y-97690000D01*
X129377550Y-97795166D01*
X129380105Y-97819478D01*
X129367333Y-97889317D01*
X129318831Y-97941163D01*
X129249998Y-97958558D01*
X129203548Y-97947756D01*
X129186095Y-97939986D01*
X129186089Y-97939984D01*
X129180056Y-97937298D01*
X129069478Y-97913794D01*
X128994572Y-97897872D01*
X128994568Y-97897872D01*
X128988115Y-97896500D01*
X128791885Y-97896500D01*
X128785432Y-97897872D01*
X128785428Y-97897872D01*
X128599944Y-97937298D01*
X128599689Y-97936100D01*
X128535490Y-97937935D01*
X128474692Y-97901273D01*
X128443367Y-97837561D01*
X128441521Y-97816121D01*
X128441495Y-97744729D01*
X128440664Y-95525000D01*
X131311496Y-95525000D01*
X131312186Y-95531565D01*
X131330084Y-95701852D01*
X131331458Y-95714928D01*
X131390473Y-95896556D01*
X131485960Y-96061944D01*
X131490378Y-96066851D01*
X131490379Y-96066852D01*
X131607680Y-96197128D01*
X131613747Y-96203866D01*
X131768248Y-96316118D01*
X131774276Y-96318802D01*
X131774278Y-96318803D01*
X131929824Y-96388056D01*
X131942712Y-96393794D01*
X132036113Y-96413647D01*
X132123056Y-96432128D01*
X132123061Y-96432128D01*
X132129513Y-96433500D01*
X132320487Y-96433500D01*
X132326939Y-96432128D01*
X132326944Y-96432128D01*
X132413888Y-96413647D01*
X132507288Y-96393794D01*
X132520176Y-96388056D01*
X132675722Y-96318803D01*
X132675724Y-96318802D01*
X132681752Y-96316118D01*
X132836253Y-96203866D01*
X132842320Y-96197128D01*
X132959621Y-96066852D01*
X132959622Y-96066851D01*
X132964040Y-96061944D01*
X133059527Y-95896556D01*
X133118542Y-95714928D01*
X133119232Y-95708365D01*
X133131943Y-95587427D01*
X133158956Y-95521770D01*
X133217178Y-95481141D01*
X133288123Y-95478438D01*
X133316835Y-95490091D01*
X133318248Y-95491118D01*
X133324279Y-95493803D01*
X133324281Y-95493804D01*
X133394349Y-95525000D01*
X133492712Y-95568794D01*
X133580373Y-95587427D01*
X133673056Y-95607128D01*
X133673061Y-95607128D01*
X133679513Y-95608500D01*
X133870487Y-95608500D01*
X133876939Y-95607128D01*
X133876944Y-95607128D01*
X133969627Y-95587427D01*
X134057288Y-95568794D01*
X134063319Y-95566109D01*
X134155652Y-95525000D01*
X135336496Y-95525000D01*
X135337186Y-95531565D01*
X135355084Y-95701852D01*
X135356458Y-95714928D01*
X135415473Y-95896556D01*
X135510960Y-96061944D01*
X135515378Y-96066851D01*
X135515379Y-96066852D01*
X135632680Y-96197128D01*
X135638747Y-96203866D01*
X135793248Y-96316118D01*
X135799276Y-96318802D01*
X135799278Y-96318803D01*
X135954824Y-96388056D01*
X135967712Y-96393794D01*
X136061113Y-96413647D01*
X136148056Y-96432128D01*
X136148061Y-96432128D01*
X136154513Y-96433500D01*
X136345487Y-96433500D01*
X136351939Y-96432128D01*
X136351944Y-96432128D01*
X136438888Y-96413647D01*
X136532288Y-96393794D01*
X136545176Y-96388056D01*
X136700722Y-96318803D01*
X136700724Y-96318802D01*
X136706752Y-96316118D01*
X136861253Y-96203866D01*
X136867320Y-96197128D01*
X136984621Y-96066852D01*
X136984622Y-96066851D01*
X136989040Y-96061944D01*
X137084527Y-95896556D01*
X137143542Y-95714928D01*
X137144917Y-95701852D01*
X137162814Y-95531565D01*
X137163504Y-95525000D01*
X137145763Y-95356206D01*
X137144232Y-95341635D01*
X137144232Y-95341633D01*
X137143542Y-95335072D01*
X137128897Y-95290000D01*
X138146496Y-95290000D01*
X138147186Y-95296565D01*
X138164007Y-95456604D01*
X138166458Y-95479928D01*
X138225473Y-95661556D01*
X138228776Y-95667278D01*
X138228777Y-95667279D01*
X138246803Y-95698500D01*
X138320960Y-95826944D01*
X138325378Y-95831851D01*
X138325379Y-95831852D01*
X138355671Y-95865495D01*
X138448747Y-95968866D01*
X138533119Y-96030166D01*
X138583613Y-96066852D01*
X138603248Y-96081118D01*
X138609276Y-96083802D01*
X138609278Y-96083803D01*
X138721758Y-96133882D01*
X138777712Y-96158794D01*
X138866168Y-96177596D01*
X138958056Y-96197128D01*
X138958061Y-96197128D01*
X138964513Y-96198500D01*
X139155487Y-96198500D01*
X139161939Y-96197128D01*
X139161944Y-96197128D01*
X139253832Y-96177596D01*
X139342288Y-96158794D01*
X139398242Y-96133882D01*
X139510722Y-96083803D01*
X139510724Y-96083802D01*
X139516752Y-96081118D01*
X139536388Y-96066852D01*
X139586881Y-96030166D01*
X139671253Y-95968866D01*
X139764329Y-95865495D01*
X139794621Y-95831852D01*
X139794622Y-95831851D01*
X139799040Y-95826944D01*
X139873197Y-95698500D01*
X139891223Y-95667279D01*
X139891224Y-95667278D01*
X139894527Y-95661556D01*
X139953542Y-95479928D01*
X139955994Y-95456604D01*
X139972814Y-95296565D01*
X139973504Y-95290000D01*
X139955059Y-95114505D01*
X139954232Y-95106635D01*
X139954232Y-95106633D01*
X139953542Y-95100072D01*
X139894527Y-94918444D01*
X139799040Y-94753056D01*
X139780197Y-94732128D01*
X139675675Y-94616045D01*
X139675674Y-94616044D01*
X139671253Y-94611134D01*
X139532154Y-94510072D01*
X139522094Y-94502763D01*
X139522093Y-94502762D01*
X139516752Y-94498882D01*
X139510724Y-94496198D01*
X139510722Y-94496197D01*
X139348319Y-94423891D01*
X139348318Y-94423891D01*
X139342288Y-94421206D01*
X139248887Y-94401353D01*
X139161944Y-94382872D01*
X139161939Y-94382872D01*
X139155487Y-94381500D01*
X138964513Y-94381500D01*
X138958061Y-94382872D01*
X138958056Y-94382872D01*
X138871113Y-94401353D01*
X138777712Y-94421206D01*
X138771682Y-94423891D01*
X138771681Y-94423891D01*
X138609278Y-94496197D01*
X138609276Y-94496198D01*
X138603248Y-94498882D01*
X138597907Y-94502762D01*
X138597906Y-94502763D01*
X138587846Y-94510072D01*
X138448747Y-94611134D01*
X138444326Y-94616044D01*
X138444325Y-94616045D01*
X138339804Y-94732128D01*
X138320960Y-94753056D01*
X138225473Y-94918444D01*
X138166458Y-95100072D01*
X138165768Y-95106633D01*
X138165768Y-95106635D01*
X138164941Y-95114505D01*
X138146496Y-95290000D01*
X137128897Y-95290000D01*
X137084527Y-95153444D01*
X136989040Y-94988056D01*
X136978757Y-94976635D01*
X136865675Y-94851045D01*
X136865674Y-94851044D01*
X136861253Y-94846134D01*
X136754263Y-94768401D01*
X136712094Y-94737763D01*
X136712093Y-94737762D01*
X136706752Y-94733882D01*
X136700724Y-94731198D01*
X136700722Y-94731197D01*
X136538319Y-94658891D01*
X136538318Y-94658891D01*
X136532288Y-94656206D01*
X136438887Y-94636353D01*
X136351944Y-94617872D01*
X136351939Y-94617872D01*
X136345487Y-94616500D01*
X136154513Y-94616500D01*
X136148061Y-94617872D01*
X136148056Y-94617872D01*
X136061113Y-94636353D01*
X135967712Y-94656206D01*
X135961682Y-94658891D01*
X135961681Y-94658891D01*
X135794434Y-94733354D01*
X135724067Y-94742788D01*
X135702707Y-94732786D01*
X135702368Y-94768401D01*
X135663417Y-94827759D01*
X135655876Y-94833689D01*
X135638747Y-94846134D01*
X135634326Y-94851044D01*
X135634325Y-94851045D01*
X135521244Y-94976635D01*
X135510960Y-94988056D01*
X135415473Y-95153444D01*
X135356458Y-95335072D01*
X135355768Y-95341633D01*
X135355768Y-95341635D01*
X135354237Y-95356206D01*
X135336496Y-95525000D01*
X134155652Y-95525000D01*
X134225722Y-95493803D01*
X134225724Y-95493802D01*
X134231752Y-95491118D01*
X134246261Y-95480577D01*
X134375776Y-95386478D01*
X134386253Y-95378866D01*
X134466268Y-95290000D01*
X134509621Y-95241852D01*
X134509622Y-95241851D01*
X134514040Y-95236944D01*
X134609527Y-95071556D01*
X134668542Y-94889928D01*
X134676792Y-94811434D01*
X134703805Y-94745778D01*
X134762027Y-94705148D01*
X134828298Y-94701358D01*
X134882742Y-94712931D01*
X134973056Y-94732128D01*
X134973061Y-94732128D01*
X134979513Y-94733500D01*
X135170487Y-94733500D01*
X135176939Y-94732128D01*
X135176944Y-94732128D01*
X135263887Y-94713647D01*
X135357288Y-94693794D01*
X135441713Y-94656206D01*
X135516169Y-94623056D01*
X135530566Y-94616646D01*
X135600933Y-94607212D01*
X135622293Y-94617214D01*
X135622632Y-94581599D01*
X135661583Y-94522241D01*
X135669124Y-94516311D01*
X135677711Y-94510072D01*
X135686253Y-94503866D01*
X135791364Y-94387128D01*
X135809621Y-94366852D01*
X135809622Y-94366851D01*
X135814040Y-94361944D01*
X135909527Y-94196556D01*
X135968542Y-94014928D01*
X135970229Y-93998882D01*
X135978502Y-93920166D01*
X135980417Y-93901940D01*
X136007430Y-93836284D01*
X136065651Y-93795654D01*
X136136597Y-93792951D01*
X136179788Y-93813175D01*
X136211595Y-93836284D01*
X136218248Y-93841118D01*
X136224276Y-93843802D01*
X136224278Y-93843803D01*
X136370449Y-93908882D01*
X136392712Y-93918794D01*
X136486113Y-93938647D01*
X136573056Y-93957128D01*
X136573061Y-93957128D01*
X136579513Y-93958500D01*
X136770487Y-93958500D01*
X136776939Y-93957128D01*
X136776944Y-93957128D01*
X136863887Y-93938647D01*
X136957288Y-93918794D01*
X136979551Y-93908882D01*
X137125722Y-93843803D01*
X137125724Y-93843802D01*
X137131752Y-93841118D01*
X137138406Y-93836284D01*
X137216944Y-93779222D01*
X137286253Y-93728866D01*
X137290675Y-93723955D01*
X137409621Y-93591852D01*
X137409622Y-93591851D01*
X137414040Y-93586944D01*
X137487488Y-93459729D01*
X137506223Y-93427279D01*
X137506224Y-93427278D01*
X137509527Y-93421556D01*
X137568542Y-93239928D01*
X137575366Y-93175000D01*
X138161496Y-93175000D01*
X138162186Y-93181565D01*
X138178187Y-93333803D01*
X138181458Y-93364928D01*
X138240473Y-93546556D01*
X138335960Y-93711944D01*
X138340378Y-93716851D01*
X138340379Y-93716852D01*
X138443344Y-93831206D01*
X138463747Y-93853866D01*
X138618248Y-93966118D01*
X138624276Y-93968802D01*
X138624278Y-93968803D01*
X138786681Y-94041109D01*
X138792712Y-94043794D01*
X138886113Y-94063647D01*
X138973056Y-94082128D01*
X138973061Y-94082128D01*
X138979513Y-94083500D01*
X139170487Y-94083500D01*
X139176939Y-94082128D01*
X139176944Y-94082128D01*
X139263887Y-94063647D01*
X139357288Y-94043794D01*
X139363319Y-94041109D01*
X139525722Y-93968803D01*
X139525724Y-93968802D01*
X139531752Y-93966118D01*
X139686253Y-93853866D01*
X139706656Y-93831206D01*
X139809621Y-93716852D01*
X139809622Y-93716851D01*
X139814040Y-93711944D01*
X139909527Y-93546556D01*
X139931153Y-93480000D01*
X156366496Y-93480000D01*
X156367186Y-93486565D01*
X156382795Y-93635072D01*
X156386458Y-93669928D01*
X156445473Y-93851556D01*
X156448776Y-93857278D01*
X156448777Y-93857279D01*
X156462002Y-93880185D01*
X156540960Y-94016944D01*
X156545378Y-94021851D01*
X156545379Y-94021852D01*
X156562718Y-94041109D01*
X156668747Y-94158866D01*
X156711972Y-94190271D01*
X156798135Y-94252872D01*
X156823248Y-94271118D01*
X156829276Y-94273802D01*
X156829278Y-94273803D01*
X156952005Y-94328444D01*
X156997712Y-94348794D01*
X157082668Y-94366852D01*
X157178056Y-94387128D01*
X157178061Y-94387128D01*
X157184513Y-94388500D01*
X157375487Y-94388500D01*
X157381939Y-94387128D01*
X157381944Y-94387128D01*
X157477332Y-94366852D01*
X157562288Y-94348794D01*
X157607995Y-94328444D01*
X157730722Y-94273803D01*
X157730724Y-94273802D01*
X157736752Y-94271118D01*
X157761866Y-94252872D01*
X157848028Y-94190271D01*
X157891253Y-94158866D01*
X157997282Y-94041109D01*
X158014621Y-94021852D01*
X158014622Y-94021851D01*
X158019040Y-94016944D01*
X158097998Y-93880185D01*
X158111223Y-93857279D01*
X158111224Y-93857278D01*
X158114527Y-93851556D01*
X158173542Y-93669928D01*
X158177206Y-93635072D01*
X158192814Y-93486565D01*
X158193504Y-93480000D01*
X158193175Y-93476870D01*
X158212816Y-93409978D01*
X158266472Y-93363485D01*
X158336746Y-93353381D01*
X158401326Y-93382875D01*
X158427932Y-93415098D01*
X158460623Y-93471720D01*
X158465041Y-93476627D01*
X158465042Y-93476628D01*
X158559222Y-93581226D01*
X158591926Y-93617547D01*
X158597268Y-93621428D01*
X158597270Y-93621430D01*
X158728607Y-93716852D01*
X158750679Y-93732888D01*
X158756707Y-93735572D01*
X158756709Y-93735573D01*
X158923913Y-93810017D01*
X158929944Y-93812702D01*
X159016999Y-93831206D01*
X159115428Y-93852128D01*
X159115432Y-93852128D01*
X159121885Y-93853500D01*
X159318115Y-93853500D01*
X159324568Y-93852128D01*
X159324572Y-93852128D01*
X159423001Y-93831206D01*
X159510056Y-93812702D01*
X159516087Y-93810017D01*
X159683291Y-93735573D01*
X159683293Y-93735572D01*
X159689321Y-93732888D01*
X159711393Y-93716852D01*
X159842730Y-93621430D01*
X159842732Y-93621428D01*
X159848074Y-93617547D01*
X159880778Y-93581226D01*
X159974958Y-93476628D01*
X159974959Y-93476627D01*
X159979377Y-93471720D01*
X160048085Y-93352715D01*
X160074188Y-93307503D01*
X160074189Y-93307502D01*
X160077492Y-93301780D01*
X160138130Y-93115155D01*
X160158642Y-92920000D01*
X160157952Y-92913435D01*
X160138820Y-92731409D01*
X160138820Y-92731408D01*
X160138130Y-92724845D01*
X160123054Y-92678444D01*
X160079534Y-92544505D01*
X160077492Y-92538220D01*
X160045611Y-92483000D01*
X160028873Y-92414004D01*
X160045611Y-92357000D01*
X160074188Y-92307503D01*
X160074189Y-92307502D01*
X160077492Y-92301780D01*
X160129570Y-92141500D01*
X160136090Y-92121434D01*
X160136090Y-92121433D01*
X160138130Y-92115155D01*
X160144563Y-92053955D01*
X160157952Y-91926565D01*
X160158642Y-91920000D01*
X160146390Y-91803435D01*
X160138820Y-91731409D01*
X160138820Y-91731408D01*
X160138130Y-91724845D01*
X160125207Y-91685072D01*
X160108833Y-91634675D01*
X160106806Y-91563708D01*
X160110684Y-91551511D01*
X160143971Y-91462718D01*
X160143973Y-91462712D01*
X160146745Y-91455316D01*
X160153500Y-91393134D01*
X160153500Y-90446866D01*
X160146745Y-90384684D01*
X160095615Y-90248295D01*
X160008261Y-90131739D01*
X159891705Y-90044385D01*
X159755316Y-89993255D01*
X159693134Y-89986500D01*
X158746866Y-89986500D01*
X158684684Y-89993255D01*
X158548295Y-90044385D01*
X158431739Y-90131739D01*
X158344385Y-90248295D01*
X158293255Y-90384684D01*
X158286500Y-90446866D01*
X158286500Y-91393134D01*
X158293255Y-91455316D01*
X158296027Y-91462712D01*
X158296029Y-91462718D01*
X158329316Y-91551511D01*
X158334499Y-91622318D01*
X158331167Y-91634675D01*
X158314793Y-91685072D01*
X158301870Y-91724845D01*
X158301180Y-91731408D01*
X158301180Y-91731409D01*
X158293610Y-91803435D01*
X158281358Y-91920000D01*
X158282048Y-91926565D01*
X158295438Y-92053955D01*
X158301870Y-92115155D01*
X158303910Y-92121433D01*
X158303910Y-92121434D01*
X158310430Y-92141500D01*
X158362508Y-92301780D01*
X158365811Y-92307502D01*
X158365812Y-92307503D01*
X158394389Y-92357000D01*
X158411127Y-92425996D01*
X158394389Y-92483000D01*
X158362508Y-92538220D01*
X158360466Y-92544505D01*
X158316947Y-92678444D01*
X158301870Y-92724845D01*
X158301180Y-92731408D01*
X158301180Y-92731409D01*
X158282048Y-92913435D01*
X158281358Y-92920000D01*
X158282048Y-92926565D01*
X158282048Y-92928361D01*
X158262046Y-92996482D01*
X158208390Y-93042975D01*
X158138116Y-93053079D01*
X158073536Y-93023585D01*
X158046929Y-92991361D01*
X158022341Y-92948774D01*
X158019040Y-92943056D01*
X158004192Y-92926565D01*
X157895675Y-92806045D01*
X157895674Y-92806044D01*
X157891253Y-92801134D01*
X157736752Y-92688882D01*
X157730724Y-92686198D01*
X157730722Y-92686197D01*
X157568319Y-92613891D01*
X157568318Y-92613891D01*
X157562288Y-92611206D01*
X157468888Y-92591353D01*
X157381944Y-92572872D01*
X157381939Y-92572872D01*
X157375487Y-92571500D01*
X157184513Y-92571500D01*
X157178061Y-92572872D01*
X157178056Y-92572872D01*
X157091112Y-92591353D01*
X156997712Y-92611206D01*
X156991682Y-92613891D01*
X156991681Y-92613891D01*
X156829278Y-92686197D01*
X156829276Y-92686198D01*
X156823248Y-92688882D01*
X156668747Y-92801134D01*
X156664326Y-92806044D01*
X156664325Y-92806045D01*
X156555809Y-92926565D01*
X156540960Y-92943056D01*
X156486281Y-93037763D01*
X156463660Y-93076944D01*
X156445473Y-93108444D01*
X156386458Y-93290072D01*
X156385768Y-93296633D01*
X156385768Y-93296635D01*
X156373836Y-93410166D01*
X156366496Y-93480000D01*
X139931153Y-93480000D01*
X139968542Y-93364928D01*
X139971814Y-93333803D01*
X139987814Y-93181565D01*
X139988504Y-93175000D01*
X139978714Y-93081852D01*
X139969232Y-92991635D01*
X139969232Y-92991633D01*
X139968542Y-92985072D01*
X139909527Y-92803444D01*
X139905952Y-92797251D01*
X139831792Y-92668803D01*
X139814040Y-92638056D01*
X139729807Y-92544505D01*
X139690675Y-92501045D01*
X139690674Y-92501044D01*
X139686253Y-92496134D01*
X139545407Y-92393803D01*
X139537094Y-92387763D01*
X139537093Y-92387762D01*
X139531752Y-92383882D01*
X139525724Y-92381198D01*
X139525722Y-92381197D01*
X139363319Y-92308891D01*
X139363318Y-92308891D01*
X139357288Y-92306206D01*
X139263888Y-92286353D01*
X139176944Y-92267872D01*
X139176939Y-92267872D01*
X139170487Y-92266500D01*
X138979513Y-92266500D01*
X138973061Y-92267872D01*
X138973056Y-92267872D01*
X138886112Y-92286353D01*
X138792712Y-92306206D01*
X138786682Y-92308891D01*
X138786681Y-92308891D01*
X138624278Y-92381197D01*
X138624276Y-92381198D01*
X138618248Y-92383882D01*
X138612907Y-92387762D01*
X138612906Y-92387763D01*
X138604593Y-92393803D01*
X138463747Y-92496134D01*
X138459326Y-92501044D01*
X138459325Y-92501045D01*
X138420194Y-92544505D01*
X138335960Y-92638056D01*
X138318208Y-92668803D01*
X138244049Y-92797251D01*
X138240473Y-92803444D01*
X138181458Y-92985072D01*
X138180768Y-92991633D01*
X138180768Y-92991635D01*
X138171286Y-93081852D01*
X138161496Y-93175000D01*
X137575366Y-93175000D01*
X137588504Y-93050000D01*
X137576748Y-92938148D01*
X137569232Y-92866635D01*
X137569232Y-92866633D01*
X137568542Y-92860072D01*
X137509527Y-92678444D01*
X137414040Y-92513056D01*
X137408703Y-92507128D01*
X137290675Y-92376045D01*
X137290674Y-92376044D01*
X137286253Y-92371134D01*
X137159258Y-92278866D01*
X137137094Y-92262763D01*
X137137093Y-92262762D01*
X137131752Y-92258882D01*
X137125724Y-92256198D01*
X137125722Y-92256197D01*
X136963319Y-92183891D01*
X136963318Y-92183891D01*
X136957288Y-92181206D01*
X136863887Y-92161353D01*
X136776944Y-92142872D01*
X136776939Y-92142872D01*
X136770487Y-92141500D01*
X136579513Y-92141500D01*
X136573061Y-92142872D01*
X136573056Y-92142872D01*
X136486112Y-92161353D01*
X136392712Y-92181206D01*
X136386682Y-92183891D01*
X136386681Y-92183891D01*
X136224278Y-92256197D01*
X136224276Y-92256198D01*
X136218248Y-92258882D01*
X136212907Y-92262762D01*
X136212906Y-92262763D01*
X136190742Y-92278866D01*
X136063747Y-92371134D01*
X136059326Y-92376044D01*
X136059325Y-92376045D01*
X135941298Y-92507128D01*
X135935960Y-92513056D01*
X135840473Y-92678444D01*
X135781458Y-92860072D01*
X135780768Y-92866633D01*
X135780768Y-92866635D01*
X135769583Y-92973059D01*
X135742570Y-93038716D01*
X135684349Y-93079346D01*
X135613403Y-93082049D01*
X135570212Y-93061825D01*
X135537094Y-93037763D01*
X135537093Y-93037762D01*
X135531752Y-93033882D01*
X135525724Y-93031198D01*
X135525722Y-93031197D01*
X135363319Y-92958891D01*
X135363318Y-92958891D01*
X135357288Y-92956206D01*
X135263888Y-92936353D01*
X135176944Y-92917872D01*
X135176939Y-92917872D01*
X135170487Y-92916500D01*
X134979513Y-92916500D01*
X134973061Y-92917872D01*
X134973056Y-92917872D01*
X134886112Y-92936353D01*
X134792712Y-92956206D01*
X134786682Y-92958891D01*
X134786681Y-92958891D01*
X134624278Y-93031197D01*
X134624276Y-93031198D01*
X134618248Y-93033882D01*
X134612907Y-93037762D01*
X134612906Y-93037763D01*
X134591826Y-93053079D01*
X134463747Y-93146134D01*
X134459326Y-93151044D01*
X134459325Y-93151045D01*
X134362471Y-93258613D01*
X134335960Y-93288056D01*
X134324732Y-93307503D01*
X134244120Y-93447128D01*
X134240473Y-93453444D01*
X134181458Y-93635072D01*
X134180769Y-93641631D01*
X134180768Y-93641634D01*
X134173208Y-93713566D01*
X134146195Y-93779222D01*
X134087973Y-93819852D01*
X134021702Y-93823642D01*
X133957602Y-93810017D01*
X133876944Y-93792872D01*
X133876939Y-93792872D01*
X133870487Y-93791500D01*
X133679513Y-93791500D01*
X133673061Y-93792872D01*
X133673056Y-93792872D01*
X133592398Y-93810017D01*
X133492712Y-93831206D01*
X133486682Y-93833891D01*
X133486681Y-93833891D01*
X133324278Y-93906197D01*
X133324276Y-93906198D01*
X133318248Y-93908882D01*
X133312907Y-93912762D01*
X133312906Y-93912763D01*
X133297590Y-93923891D01*
X133163747Y-94021134D01*
X133159326Y-94026044D01*
X133159325Y-94026045D01*
X133044155Y-94153955D01*
X133035960Y-94163056D01*
X133016619Y-94196556D01*
X132962765Y-94289834D01*
X132940473Y-94328444D01*
X132881458Y-94510072D01*
X132880768Y-94516633D01*
X132880768Y-94516635D01*
X132868057Y-94637573D01*
X132841044Y-94703230D01*
X132782822Y-94743859D01*
X132711877Y-94746562D01*
X132683165Y-94734909D01*
X132681752Y-94733882D01*
X132608702Y-94701358D01*
X132513319Y-94658891D01*
X132513318Y-94658891D01*
X132507288Y-94656206D01*
X132413887Y-94636353D01*
X132326944Y-94617872D01*
X132326939Y-94617872D01*
X132320487Y-94616500D01*
X132129513Y-94616500D01*
X132123061Y-94617872D01*
X132123056Y-94617872D01*
X132036113Y-94636353D01*
X131942712Y-94656206D01*
X131936682Y-94658891D01*
X131936681Y-94658891D01*
X131774278Y-94731197D01*
X131774276Y-94731198D01*
X131768248Y-94733882D01*
X131762907Y-94737762D01*
X131762906Y-94737763D01*
X131720737Y-94768401D01*
X131613747Y-94846134D01*
X131609326Y-94851044D01*
X131609325Y-94851045D01*
X131496244Y-94976635D01*
X131485960Y-94988056D01*
X131390473Y-95153444D01*
X131331458Y-95335072D01*
X131330768Y-95341633D01*
X131330768Y-95341635D01*
X131329237Y-95356206D01*
X131311496Y-95525000D01*
X128440664Y-95525000D01*
X128439602Y-92690379D01*
X128459579Y-92622251D01*
X128513217Y-92575738D01*
X128583487Y-92565608D01*
X128648079Y-92595077D01*
X128686485Y-92654788D01*
X128690912Y-92677161D01*
X128696458Y-92729928D01*
X128755473Y-92911556D01*
X128758776Y-92917278D01*
X128758777Y-92917279D01*
X128776961Y-92948774D01*
X128850960Y-93076944D01*
X128855378Y-93081851D01*
X128855379Y-93081852D01*
X128913259Y-93146134D01*
X128978747Y-93218866D01*
X129133248Y-93331118D01*
X129139276Y-93333802D01*
X129139278Y-93333803D01*
X129301681Y-93406109D01*
X129307712Y-93408794D01*
X129394677Y-93427279D01*
X129488056Y-93447128D01*
X129488061Y-93447128D01*
X129494513Y-93448500D01*
X129685487Y-93448500D01*
X129691939Y-93447128D01*
X129691944Y-93447128D01*
X129785323Y-93427279D01*
X129872288Y-93408794D01*
X129878319Y-93406109D01*
X130040722Y-93333803D01*
X130040724Y-93333802D01*
X130046752Y-93331118D01*
X130201253Y-93218866D01*
X130266741Y-93146134D01*
X130324621Y-93081852D01*
X130324622Y-93081851D01*
X130329040Y-93076944D01*
X130403039Y-92948774D01*
X130421223Y-92917279D01*
X130421224Y-92917278D01*
X130424527Y-92911556D01*
X130483542Y-92729928D01*
X130489967Y-92668803D01*
X130502814Y-92546565D01*
X130503504Y-92540000D01*
X130490561Y-92416852D01*
X130484232Y-92356635D01*
X130484232Y-92356633D01*
X130483542Y-92350072D01*
X130424527Y-92168444D01*
X130407121Y-92138295D01*
X130382312Y-92095325D01*
X130329040Y-92003056D01*
X130251505Y-91916944D01*
X130205675Y-91866045D01*
X130205674Y-91866044D01*
X130201253Y-91861134D01*
X130094214Y-91783365D01*
X130052094Y-91752763D01*
X130052093Y-91752762D01*
X130046752Y-91748882D01*
X130040724Y-91746198D01*
X130040722Y-91746197D01*
X129878319Y-91673891D01*
X129878318Y-91673891D01*
X129872288Y-91671206D01*
X129778888Y-91651353D01*
X129691944Y-91632872D01*
X129691939Y-91632872D01*
X129685487Y-91631500D01*
X129494513Y-91631500D01*
X129488061Y-91632872D01*
X129488056Y-91632872D01*
X129401112Y-91651353D01*
X129307712Y-91671206D01*
X129301682Y-91673891D01*
X129301681Y-91673891D01*
X129139278Y-91746197D01*
X129139276Y-91746198D01*
X129133248Y-91748882D01*
X129127907Y-91752762D01*
X129127906Y-91752763D01*
X129085786Y-91783365D01*
X128978747Y-91861134D01*
X128974326Y-91866044D01*
X128974325Y-91866045D01*
X128928496Y-91916944D01*
X128850960Y-92003056D01*
X128797688Y-92095325D01*
X128772880Y-92138295D01*
X128755473Y-92168444D01*
X128696458Y-92350072D01*
X128695768Y-92356633D01*
X128695768Y-92356635D01*
X128690800Y-92403905D01*
X128663787Y-92469562D01*
X128605565Y-92510192D01*
X128534620Y-92512895D01*
X128473476Y-92476813D01*
X128441546Y-92413402D01*
X128439490Y-92390782D01*
X128439114Y-91386565D01*
X128438883Y-90770000D01*
X130266496Y-90770000D01*
X130267186Y-90776565D01*
X130282381Y-90921134D01*
X130286458Y-90959928D01*
X130345473Y-91141556D01*
X130440960Y-91306944D01*
X130568747Y-91448866D01*
X130723248Y-91561118D01*
X130729276Y-91563802D01*
X130729278Y-91563803D01*
X130891681Y-91636109D01*
X130897712Y-91638794D01*
X130991112Y-91658647D01*
X131078056Y-91677128D01*
X131078061Y-91677128D01*
X131084513Y-91678500D01*
X131275487Y-91678500D01*
X131281939Y-91677128D01*
X131281944Y-91677128D01*
X131368887Y-91658647D01*
X131462288Y-91638794D01*
X131468319Y-91636109D01*
X131630722Y-91563803D01*
X131630724Y-91563802D01*
X131636752Y-91561118D01*
X131791253Y-91448866D01*
X131853260Y-91380000D01*
X141356496Y-91380000D01*
X141376458Y-91569928D01*
X141435473Y-91751556D01*
X141530960Y-91916944D01*
X141535378Y-91921851D01*
X141535379Y-91921852D01*
X141610385Y-92005155D01*
X141658747Y-92058866D01*
X141727187Y-92108591D01*
X141806606Y-92166292D01*
X141813248Y-92171118D01*
X141819276Y-92173802D01*
X141819278Y-92173803D01*
X141968569Y-92240271D01*
X141987712Y-92248794D01*
X142081112Y-92268647D01*
X142168056Y-92287128D01*
X142168061Y-92287128D01*
X142174513Y-92288500D01*
X142365487Y-92288500D01*
X142371939Y-92287128D01*
X142371944Y-92287128D01*
X142458888Y-92268647D01*
X142552288Y-92248794D01*
X142571431Y-92240271D01*
X142720722Y-92173803D01*
X142720724Y-92173802D01*
X142726752Y-92171118D01*
X142733395Y-92166292D01*
X142812813Y-92108591D01*
X142881253Y-92058866D01*
X142929615Y-92005155D01*
X143004621Y-91921852D01*
X143004622Y-91921851D01*
X143009040Y-91916944D01*
X143104527Y-91751556D01*
X143153771Y-91600000D01*
X144886496Y-91600000D01*
X144887186Y-91606565D01*
X144899618Y-91724845D01*
X144906458Y-91789928D01*
X144965473Y-91971556D01*
X144968776Y-91977278D01*
X144968777Y-91977279D01*
X144984871Y-92005155D01*
X145060960Y-92136944D01*
X145065378Y-92141851D01*
X145065379Y-92141852D01*
X145178317Y-92267282D01*
X145188747Y-92278866D01*
X145230073Y-92308891D01*
X145333289Y-92383882D01*
X145343248Y-92391118D01*
X145349276Y-92393802D01*
X145349278Y-92393803D01*
X145511681Y-92466109D01*
X145517712Y-92468794D01*
X145584546Y-92483000D01*
X145698056Y-92507128D01*
X145698061Y-92507128D01*
X145704513Y-92508500D01*
X145895487Y-92508500D01*
X145901939Y-92507128D01*
X145901944Y-92507128D01*
X146015454Y-92483000D01*
X146082288Y-92468794D01*
X146088319Y-92466109D01*
X146250722Y-92393803D01*
X146250724Y-92393802D01*
X146256752Y-92391118D01*
X146266712Y-92383882D01*
X146369927Y-92308891D01*
X146411253Y-92278866D01*
X146421683Y-92267282D01*
X146534621Y-92141852D01*
X146534622Y-92141851D01*
X146539040Y-92136944D01*
X146615129Y-92005155D01*
X146631223Y-91977279D01*
X146631224Y-91977278D01*
X146634527Y-91971556D01*
X146665900Y-91875000D01*
X154911496Y-91875000D01*
X154931458Y-92064928D01*
X154990473Y-92246556D01*
X155085960Y-92411944D01*
X155090378Y-92416851D01*
X155090379Y-92416852D01*
X155182150Y-92518774D01*
X155213747Y-92553866D01*
X155312843Y-92625864D01*
X155352654Y-92654788D01*
X155368248Y-92666118D01*
X155374276Y-92668802D01*
X155374278Y-92668803D01*
X155525669Y-92736206D01*
X155542712Y-92743794D01*
X155636113Y-92763647D01*
X155723056Y-92782128D01*
X155723061Y-92782128D01*
X155729513Y-92783500D01*
X155920487Y-92783500D01*
X155926939Y-92782128D01*
X155926944Y-92782128D01*
X156013887Y-92763647D01*
X156107288Y-92743794D01*
X156124331Y-92736206D01*
X156275722Y-92668803D01*
X156275724Y-92668802D01*
X156281752Y-92666118D01*
X156297347Y-92654788D01*
X156337157Y-92625864D01*
X156436253Y-92553866D01*
X156467850Y-92518774D01*
X156559621Y-92416852D01*
X156559622Y-92416851D01*
X156564040Y-92411944D01*
X156659527Y-92246556D01*
X156718542Y-92064928D01*
X156738504Y-91875000D01*
X156725249Y-91748882D01*
X156719232Y-91691635D01*
X156719232Y-91691633D01*
X156718542Y-91685072D01*
X156659527Y-91503444D01*
X156564040Y-91338056D01*
X156436253Y-91196134D01*
X156281752Y-91083882D01*
X156275724Y-91081198D01*
X156275722Y-91081197D01*
X156113319Y-91008891D01*
X156113318Y-91008891D01*
X156107288Y-91006206D01*
X156013888Y-90986353D01*
X155926944Y-90967872D01*
X155926939Y-90967872D01*
X155920487Y-90966500D01*
X155729513Y-90966500D01*
X155723061Y-90967872D01*
X155723056Y-90967872D01*
X155636112Y-90986353D01*
X155542712Y-91006206D01*
X155536682Y-91008891D01*
X155536681Y-91008891D01*
X155374278Y-91081197D01*
X155374276Y-91081198D01*
X155368248Y-91083882D01*
X155213747Y-91196134D01*
X155085960Y-91338056D01*
X154990473Y-91503444D01*
X154931458Y-91685072D01*
X154930768Y-91691633D01*
X154930768Y-91691635D01*
X154924751Y-91748882D01*
X154911496Y-91875000D01*
X146665900Y-91875000D01*
X146693542Y-91789928D01*
X146700383Y-91724845D01*
X146712814Y-91606565D01*
X146713504Y-91600000D01*
X146709417Y-91561118D01*
X146694232Y-91416635D01*
X146694232Y-91416633D01*
X146693542Y-91410072D01*
X146634527Y-91228444D01*
X146539040Y-91063056D01*
X146492560Y-91011434D01*
X146415675Y-90926045D01*
X146415674Y-90926044D01*
X146411253Y-90921134D01*
X146256752Y-90808882D01*
X146250724Y-90806198D01*
X146250722Y-90806197D01*
X146088319Y-90733891D01*
X146088318Y-90733891D01*
X146082288Y-90731206D01*
X145988887Y-90711353D01*
X145901944Y-90692872D01*
X145901939Y-90692872D01*
X145895487Y-90691500D01*
X145704513Y-90691500D01*
X145698061Y-90692872D01*
X145698056Y-90692872D01*
X145611113Y-90711353D01*
X145517712Y-90731206D01*
X145511682Y-90733891D01*
X145511681Y-90733891D01*
X145349278Y-90806197D01*
X145349276Y-90806198D01*
X145343248Y-90808882D01*
X145188747Y-90921134D01*
X145184326Y-90926044D01*
X145184325Y-90926045D01*
X145107441Y-91011434D01*
X145060960Y-91063056D01*
X144965473Y-91228444D01*
X144906458Y-91410072D01*
X144905768Y-91416633D01*
X144905768Y-91416635D01*
X144890583Y-91561118D01*
X144886496Y-91600000D01*
X143153771Y-91600000D01*
X143163542Y-91569928D01*
X143183504Y-91380000D01*
X143176777Y-91315996D01*
X143164232Y-91196635D01*
X143164232Y-91196633D01*
X143163542Y-91190072D01*
X143104527Y-91008444D01*
X143098839Y-90998591D01*
X143012341Y-90848774D01*
X143009040Y-90843056D01*
X142985188Y-90816565D01*
X142885675Y-90706045D01*
X142885674Y-90706044D01*
X142881253Y-90701134D01*
X142726752Y-90588882D01*
X142720724Y-90586198D01*
X142720722Y-90586197D01*
X142558319Y-90513891D01*
X142558318Y-90513891D01*
X142552288Y-90511206D01*
X142458888Y-90491353D01*
X142371944Y-90472872D01*
X142371939Y-90472872D01*
X142365487Y-90471500D01*
X142174513Y-90471500D01*
X142168061Y-90472872D01*
X142168056Y-90472872D01*
X142081113Y-90491353D01*
X141987712Y-90511206D01*
X141981682Y-90513891D01*
X141981681Y-90513891D01*
X141819278Y-90586197D01*
X141819276Y-90586198D01*
X141813248Y-90588882D01*
X141658747Y-90701134D01*
X141654326Y-90706044D01*
X141654325Y-90706045D01*
X141554813Y-90816565D01*
X141530960Y-90843056D01*
X141527659Y-90848774D01*
X141441162Y-90998591D01*
X141435473Y-91008444D01*
X141376458Y-91190072D01*
X141375768Y-91196633D01*
X141375768Y-91196635D01*
X141363223Y-91315996D01*
X141356496Y-91380000D01*
X131853260Y-91380000D01*
X131919040Y-91306944D01*
X132014527Y-91141556D01*
X132073542Y-90959928D01*
X132077620Y-90921134D01*
X132092814Y-90776565D01*
X132093504Y-90770000D01*
X132085398Y-90692872D01*
X132074232Y-90586635D01*
X132074232Y-90586633D01*
X132073542Y-90580072D01*
X132014527Y-90398444D01*
X131919040Y-90233056D01*
X131806953Y-90108570D01*
X131795675Y-90096045D01*
X131795674Y-90096044D01*
X131791253Y-90091134D01*
X131667185Y-90000993D01*
X131642094Y-89982763D01*
X131642093Y-89982762D01*
X131636752Y-89978882D01*
X131630724Y-89976198D01*
X131630722Y-89976197D01*
X131468319Y-89903891D01*
X131468318Y-89903891D01*
X131462288Y-89901206D01*
X131352511Y-89877872D01*
X131281944Y-89862872D01*
X131281939Y-89862872D01*
X131275487Y-89861500D01*
X131084513Y-89861500D01*
X131078061Y-89862872D01*
X131078056Y-89862872D01*
X131007489Y-89877872D01*
X130897712Y-89901206D01*
X130891682Y-89903891D01*
X130891681Y-89903891D01*
X130729278Y-89976197D01*
X130729276Y-89976198D01*
X130723248Y-89978882D01*
X130717907Y-89982762D01*
X130717906Y-89982763D01*
X130692815Y-90000993D01*
X130568747Y-90091134D01*
X130564326Y-90096044D01*
X130564325Y-90096045D01*
X130553048Y-90108570D01*
X130440960Y-90233056D01*
X130345473Y-90398444D01*
X130286458Y-90580072D01*
X130285768Y-90586633D01*
X130285768Y-90586635D01*
X130274602Y-90692872D01*
X130266496Y-90770000D01*
X128438883Y-90770000D01*
X128437334Y-86633623D01*
X128457311Y-86565497D01*
X128510949Y-86518984D01*
X128581219Y-86508854D01*
X128645811Y-86538323D01*
X128675899Y-86576964D01*
X128738092Y-86700620D01*
X128770885Y-86765822D01*
X128933721Y-87002750D01*
X129127206Y-87215388D01*
X129130501Y-87218143D01*
X129130502Y-87218144D01*
X129280108Y-87343233D01*
X129347759Y-87399798D01*
X129591298Y-87552571D01*
X129853318Y-87670877D01*
X129904349Y-87685993D01*
X130124857Y-87751311D01*
X130124862Y-87751312D01*
X130128970Y-87752529D01*
X130133204Y-87753177D01*
X130133209Y-87753178D01*
X130381811Y-87791219D01*
X130413153Y-87796015D01*
X130559485Y-87798314D01*
X130696317Y-87800464D01*
X130696323Y-87800464D01*
X130700608Y-87800531D01*
X130704860Y-87800016D01*
X130704868Y-87800016D01*
X130981756Y-87766508D01*
X130981761Y-87766507D01*
X130986017Y-87765992D01*
X131264097Y-87693039D01*
X131529704Y-87583021D01*
X131710259Y-87477513D01*
X131774219Y-87440138D01*
X131774220Y-87440137D01*
X131777922Y-87437974D01*
X132004159Y-87260582D01*
X132045285Y-87218144D01*
X132134118Y-87126475D01*
X132204227Y-87054128D01*
X132206760Y-87050680D01*
X132206764Y-87050675D01*
X132371887Y-86825886D01*
X132374425Y-86822431D01*
X132466124Y-86653543D01*
X132509554Y-86573555D01*
X132509555Y-86573553D01*
X132511604Y-86569779D01*
X132562414Y-86435314D01*
X132611707Y-86304866D01*
X132611708Y-86304862D01*
X132613225Y-86300848D01*
X132677407Y-86020613D01*
X132677890Y-86015210D01*
X132702743Y-85736726D01*
X132702743Y-85736724D01*
X132702963Y-85734260D01*
X132703427Y-85690000D01*
X132697129Y-85597615D01*
X132684165Y-85407452D01*
X132684164Y-85407446D01*
X132683873Y-85403175D01*
X132679336Y-85381264D01*
X132654724Y-85262417D01*
X132625574Y-85121658D01*
X132529607Y-84850657D01*
X132397750Y-84595188D01*
X132385164Y-84577279D01*
X132279078Y-84426335D01*
X132232441Y-84359977D01*
X132097442Y-84214701D01*
X132039661Y-84152521D01*
X132039658Y-84152519D01*
X132036740Y-84149378D01*
X131814268Y-83967287D01*
X131573491Y-83819738D01*
X131525860Y-83767090D01*
X131514253Y-83697048D01*
X131542356Y-83631851D01*
X131601247Y-83592197D01*
X131639245Y-83586305D01*
X135731553Y-83583729D01*
X135799685Y-83603688D01*
X135846212Y-83657315D01*
X135856360Y-83727582D01*
X135848499Y-83756824D01*
X135792314Y-83896237D01*
X135751772Y-84103837D01*
X135751500Y-84109399D01*
X135751500Y-84965346D01*
X135766548Y-85123066D01*
X135826092Y-85326034D01*
X135828836Y-85331361D01*
X135828836Y-85331362D01*
X135868523Y-85408418D01*
X135922942Y-85514080D01*
X136053604Y-85680420D01*
X136058135Y-85684352D01*
X136058138Y-85684355D01*
X136194802Y-85802946D01*
X136213363Y-85819052D01*
X136218549Y-85822052D01*
X136218553Y-85822055D01*
X136314957Y-85877826D01*
X136396454Y-85924973D01*
X136596271Y-85994361D01*
X136602206Y-85995222D01*
X136602208Y-85995222D01*
X136799664Y-86023852D01*
X136799667Y-86023852D01*
X136805604Y-86024713D01*
X137016899Y-86014933D01*
X137093347Y-85996509D01*
X137164258Y-85999994D01*
X137222028Y-86041263D01*
X137248315Y-86107214D01*
X137234774Y-86176907D01*
X137195139Y-86222215D01*
X137077102Y-86304866D01*
X137064093Y-86313975D01*
X136911475Y-86466593D01*
X136787677Y-86643394D01*
X136785354Y-86648376D01*
X136785351Y-86648381D01*
X136702579Y-86825886D01*
X136696461Y-86839007D01*
X136695039Y-86844315D01*
X136695038Y-86844317D01*
X136678541Y-86905886D01*
X136640599Y-87047487D01*
X136621788Y-87262500D01*
X136640599Y-87477513D01*
X136642023Y-87482826D01*
X136642023Y-87482828D01*
X136692738Y-87672097D01*
X136696461Y-87685993D01*
X136698783Y-87690974D01*
X136698784Y-87690975D01*
X136785351Y-87876619D01*
X136785354Y-87876624D01*
X136787677Y-87881606D01*
X136911475Y-88058407D01*
X137064093Y-88211025D01*
X137240894Y-88334823D01*
X137245876Y-88337146D01*
X137245881Y-88337149D01*
X137371208Y-88395590D01*
X137436507Y-88426039D01*
X137441815Y-88427461D01*
X137444012Y-88428261D01*
X137501184Y-88470355D01*
X137526522Y-88536676D01*
X137526228Y-88559832D01*
X137511496Y-88700000D01*
X137531458Y-88889928D01*
X137590473Y-89071556D01*
X137685960Y-89236944D01*
X137813747Y-89378866D01*
X137968248Y-89491118D01*
X137974276Y-89493802D01*
X137974278Y-89493803D01*
X137993316Y-89502279D01*
X138142712Y-89568794D01*
X138236112Y-89588647D01*
X138323056Y-89607128D01*
X138323061Y-89607128D01*
X138329513Y-89608500D01*
X138520487Y-89608500D01*
X138526939Y-89607128D01*
X138526944Y-89607128D01*
X138613888Y-89588647D01*
X138707288Y-89568794D01*
X138856684Y-89502279D01*
X138875722Y-89493803D01*
X138875724Y-89493802D01*
X138881752Y-89491118D01*
X139036253Y-89378866D01*
X139164040Y-89236944D01*
X139228671Y-89125000D01*
X144536496Y-89125000D01*
X144556458Y-89314928D01*
X144615473Y-89496556D01*
X144710960Y-89661944D01*
X144838747Y-89803866D01*
X144993248Y-89916118D01*
X144999276Y-89918802D01*
X144999278Y-89918803D01*
X145151329Y-89986500D01*
X145167712Y-89993794D01*
X145261112Y-90013647D01*
X145348056Y-90032128D01*
X145348061Y-90032128D01*
X145354513Y-90033500D01*
X145545487Y-90033500D01*
X145551939Y-90032128D01*
X145551944Y-90032128D01*
X145638888Y-90013647D01*
X145732288Y-89993794D01*
X145748671Y-89986500D01*
X145900722Y-89918803D01*
X145900724Y-89918802D01*
X145906752Y-89916118D01*
X146061253Y-89803866D01*
X146189040Y-89661944D01*
X146284527Y-89496556D01*
X146343542Y-89314928D01*
X146363504Y-89125000D01*
X146343542Y-88935072D01*
X146284527Y-88753444D01*
X146189040Y-88588056D01*
X146061253Y-88446134D01*
X145906752Y-88333882D01*
X145900724Y-88331198D01*
X145900722Y-88331197D01*
X145738319Y-88258891D01*
X145738318Y-88258891D01*
X145732288Y-88256206D01*
X145638888Y-88236353D01*
X145551944Y-88217872D01*
X145551939Y-88217872D01*
X145545487Y-88216500D01*
X145354513Y-88216500D01*
X145348061Y-88217872D01*
X145348056Y-88217872D01*
X145261112Y-88236353D01*
X145167712Y-88256206D01*
X145161682Y-88258891D01*
X145161681Y-88258891D01*
X144999278Y-88331197D01*
X144999276Y-88331198D01*
X144993248Y-88333882D01*
X144838747Y-88446134D01*
X144710960Y-88588056D01*
X144615473Y-88753444D01*
X144556458Y-88935072D01*
X144536496Y-89125000D01*
X139228671Y-89125000D01*
X139259527Y-89071556D01*
X139318542Y-88889928D01*
X139338504Y-88700000D01*
X139318542Y-88510072D01*
X139259527Y-88328444D01*
X139164040Y-88163056D01*
X139036253Y-88021134D01*
X138994053Y-87990474D01*
X138950701Y-87934252D01*
X138944626Y-87863516D01*
X138953921Y-87835289D01*
X139021216Y-87690975D01*
X139021217Y-87690974D01*
X139023539Y-87685993D01*
X139027263Y-87672097D01*
X139077977Y-87482828D01*
X139077977Y-87482826D01*
X139079401Y-87477513D01*
X139098212Y-87262500D01*
X139079401Y-87047487D01*
X139041459Y-86905886D01*
X139024962Y-86844317D01*
X139024961Y-86844315D01*
X139023539Y-86839007D01*
X139017421Y-86825886D01*
X138934649Y-86648381D01*
X138934646Y-86648376D01*
X138932323Y-86643394D01*
X138808525Y-86466593D01*
X138655907Y-86313975D01*
X138642899Y-86304866D01*
X138578094Y-86259490D01*
X138479106Y-86190177D01*
X138474124Y-86187854D01*
X138474119Y-86187851D01*
X138288475Y-86101284D01*
X138288474Y-86101283D01*
X138283493Y-86098961D01*
X138278185Y-86097539D01*
X138278183Y-86097538D01*
X138080328Y-86044523D01*
X138080326Y-86044523D01*
X138075013Y-86043099D01*
X137860000Y-86024288D01*
X137644987Y-86043099D01*
X137639674Y-86044523D01*
X137639672Y-86044523D01*
X137579216Y-86060722D01*
X137508239Y-86059032D01*
X137449444Y-86019238D01*
X137421496Y-85953973D01*
X137433270Y-85883960D01*
X137473705Y-85836245D01*
X137493710Y-85822055D01*
X137587611Y-85755446D01*
X137733881Y-85602650D01*
X137848620Y-85424952D01*
X137927686Y-85228763D01*
X137968228Y-85021163D01*
X137968500Y-85015601D01*
X137968500Y-84159654D01*
X137953452Y-84001934D01*
X137893908Y-83798966D01*
X137876930Y-83766001D01*
X137863521Y-83696282D01*
X137889934Y-83630381D01*
X137947783Y-83589222D01*
X137988866Y-83582309D01*
X142733328Y-83579323D01*
X142801461Y-83599282D01*
X142847988Y-83652909D01*
X142858136Y-83723176D01*
X142850273Y-83752421D01*
X142796068Y-83886923D01*
X142792314Y-83896237D01*
X142751772Y-84103837D01*
X142751500Y-84109399D01*
X142751500Y-84965346D01*
X142766548Y-85123066D01*
X142826092Y-85326034D01*
X142828836Y-85331361D01*
X142828836Y-85331362D01*
X142868523Y-85408418D01*
X142922942Y-85514080D01*
X143053604Y-85680420D01*
X143058135Y-85684352D01*
X143058138Y-85684355D01*
X143194802Y-85802946D01*
X143213363Y-85819052D01*
X143224182Y-85825311D01*
X143228508Y-85827814D01*
X143277455Y-85879241D01*
X143290828Y-85948967D01*
X143264381Y-86014854D01*
X143206511Y-86055983D01*
X143132797Y-86058582D01*
X143080335Y-86044524D01*
X143080324Y-86044522D01*
X143075013Y-86043099D01*
X142860000Y-86024288D01*
X142644987Y-86043099D01*
X142639674Y-86044523D01*
X142639672Y-86044523D01*
X142441817Y-86097538D01*
X142441815Y-86097539D01*
X142436507Y-86098961D01*
X142431526Y-86101283D01*
X142431525Y-86101284D01*
X142245881Y-86187851D01*
X142245876Y-86187854D01*
X142240894Y-86190177D01*
X142141906Y-86259490D01*
X142077102Y-86304866D01*
X142064093Y-86313975D01*
X141911475Y-86466593D01*
X141787677Y-86643394D01*
X141785354Y-86648376D01*
X141785351Y-86648381D01*
X141702579Y-86825886D01*
X141696461Y-86839007D01*
X141695039Y-86844315D01*
X141695038Y-86844317D01*
X141678541Y-86905886D01*
X141640599Y-87047487D01*
X141621788Y-87262500D01*
X141640599Y-87477513D01*
X141642023Y-87482826D01*
X141642023Y-87482828D01*
X141692738Y-87672097D01*
X141696461Y-87685993D01*
X141698783Y-87690974D01*
X141698784Y-87690975D01*
X141785351Y-87876619D01*
X141785354Y-87876624D01*
X141787677Y-87881606D01*
X141911475Y-88058407D01*
X142064093Y-88211025D01*
X142240894Y-88334823D01*
X142245876Y-88337146D01*
X142245881Y-88337149D01*
X142431525Y-88423716D01*
X142436507Y-88426039D01*
X142441815Y-88427461D01*
X142441817Y-88427462D01*
X142639672Y-88480477D01*
X142639674Y-88480477D01*
X142644987Y-88481901D01*
X142860000Y-88500712D01*
X143075013Y-88481901D01*
X143080326Y-88480477D01*
X143080328Y-88480477D01*
X143278183Y-88427462D01*
X143278185Y-88427461D01*
X143283493Y-88426039D01*
X143288475Y-88423716D01*
X143474119Y-88337149D01*
X143474124Y-88337146D01*
X143479106Y-88334823D01*
X143655907Y-88211025D01*
X143808525Y-88058407D01*
X143932323Y-87881606D01*
X143934646Y-87876624D01*
X143934649Y-87876619D01*
X144021216Y-87690975D01*
X144021217Y-87690974D01*
X144023539Y-87685993D01*
X144027263Y-87672097D01*
X144077977Y-87482828D01*
X144077977Y-87482826D01*
X144079401Y-87477513D01*
X144098212Y-87262500D01*
X144079401Y-87047487D01*
X144041459Y-86905886D01*
X144024962Y-86844317D01*
X144024961Y-86844315D01*
X144023539Y-86839007D01*
X144017421Y-86825886D01*
X143934649Y-86648381D01*
X143934646Y-86648376D01*
X143932323Y-86643394D01*
X143808525Y-86466593D01*
X143655907Y-86313975D01*
X143529905Y-86225747D01*
X143485578Y-86170291D01*
X143478269Y-86099672D01*
X143510300Y-86036311D01*
X143571501Y-86000326D01*
X143620257Y-85997839D01*
X143799664Y-86023852D01*
X143799667Y-86023852D01*
X143805604Y-86024713D01*
X144016899Y-86014933D01*
X144148077Y-85983319D01*
X144216701Y-85966781D01*
X144216703Y-85966780D01*
X144222534Y-85965375D01*
X144227992Y-85962893D01*
X144227996Y-85962892D01*
X144401596Y-85883960D01*
X144415087Y-85877826D01*
X144587611Y-85755446D01*
X144733881Y-85602650D01*
X144848620Y-85424952D01*
X144927686Y-85228763D01*
X144968228Y-85021163D01*
X144968500Y-85015601D01*
X144968500Y-84159654D01*
X144953452Y-84001934D01*
X144893908Y-83798966D01*
X144875206Y-83762654D01*
X144861797Y-83692935D01*
X144888210Y-83627035D01*
X144946058Y-83585876D01*
X144987283Y-83578962D01*
X146488211Y-83579693D01*
G37*
%TD.AperFunction*%
%TD*%
M02*
