M48
; DRILL file {KiCad (6.0.5-0)} date 2022 June 28, Tuesday 17:28:16
; FORMAT={-:-/ absolute / inch / decimal}
; #@! TF.CreationDate,2022-06-28T17:28:16+02:00
; #@! TF.GenerationSoftware,Kicad,Pcbnew,(6.0.5-0)
; #@! TF.FileFunction,Plated,1,2,PTH
FMAT,2
INCH
; #@! TA.AperFunction,Plated,PTH,ViaDrill
T1C0.0157
; #@! TA.AperFunction,Plated,PTH,ComponentDrill
T2C0.0315
; #@! TA.AperFunction,Plated,PTH,ComponentDrill
T3C0.0394
; #@! TA.AperFunction,Plated,PTH,ComponentDrill
T4C0.0512
%
G90
G05
T1
X1.7264Y-1.748
X1.7283Y-1.872
X1.7283Y-2.002
X1.7323Y-2.9941
X1.7697Y-2.9941
X1.7717Y-1.748
X1.7717Y-1.872
X1.7717Y-2.002
X1.9134Y-1.8996
X1.9331Y-1.872
X1.9528Y-1.8996
X1.9744Y-1.874
X2.124Y-3.3563
X2.126Y-3.0866
X2.2244Y-2.1614
X2.2874Y-2.376
X2.3268Y-2.378
X2.3543Y-2.8012
X2.3858Y-2.8406
X2.4173Y-2.8031
X2.4488Y-2.8406
X2.4803Y-2.8012
X2.5118Y-2.8425
X2.5138Y-2.4469
X2.5138Y-2.4921
X2.6299Y-2.8406
X2.6535Y-3.0295
X2.6575Y-2.8681
X2.6988Y-3.1831
X2.7402Y-1.6929
X2.7835Y-1.6929
X2.7992Y-1.752
X2.8012Y-1.7894
X2.8248Y-1.6929
X2.8287Y-1.7677
X2.9409Y-3.0945
X2.9429Y-2.9193
X3.0098Y-2.7697
X3.0118Y-1.872
X3.0157Y-1.75
X3.0177Y-2.0039
X3.0551Y-1.7539
X3.0571Y-1.872
X3.0591Y-2.0039
T2
X2.7638Y-3.2953
X2.8425Y-3.2953
X2.9213Y-3.2953
T3
X2.0435Y-2.0644
X2.0935Y-1.8644
X2.1435Y-2.0644
X2.1935Y-1.8644
X2.2435Y-2.0644
X2.2935Y-1.8644
X2.3435Y-2.0644
X2.3935Y-1.8644
X2.4435Y-2.0644
X2.4935Y-1.8644
X2.5435Y-2.0644
X2.5935Y-1.8644
X2.6435Y-2.0644
X2.6935Y-1.8644
X2.7435Y-2.0644
T4
X1.6809Y-2.3014
X1.6809Y-2.5014
X1.7541Y-3.0809
X1.9541Y-3.0809
X3.1616Y-2.3018
X3.1616Y-2.5018
T0
M30
