%TF.GenerationSoftware,KiCad,Pcbnew,(6.0.5-0)*%
%TF.CreationDate,2022-06-28T13:52:29+02:00*%
%TF.ProjectId,JeepPCB,4a656570-5043-4422-9e6b-696361645f70,rev?*%
%TF.SameCoordinates,Original*%
%TF.FileFunction,Paste,Top*%
%TF.FilePolarity,Positive*%
%FSLAX46Y46*%
G04 Gerber Fmt 4.6, Leading zero omitted, Abs format (unit mm)*
G04 Created by KiCad (PCBNEW (6.0.5-0)) date 2022-06-28 13:52:29*
%MOMM*%
%LPD*%
G01*
G04 APERTURE LIST*
G04 Aperture macros list*
%AMRoundRect*
0 Rectangle with rounded corners*
0 $1 Rounding radius*
0 $2 $3 $4 $5 $6 $7 $8 $9 X,Y pos of 4 corners*
0 Add a 4 corners polygon primitive as box body*
4,1,4,$2,$3,$4,$5,$6,$7,$8,$9,$2,$3,0*
0 Add four circle primitives for the rounded corners*
1,1,$1+$1,$2,$3*
1,1,$1+$1,$4,$5*
1,1,$1+$1,$6,$7*
1,1,$1+$1,$8,$9*
0 Add four rect primitives between the rounded corners*
20,1,$1+$1,$2,$3,$4,$5,0*
20,1,$1+$1,$4,$5,$6,$7,0*
20,1,$1+$1,$6,$7,$8,$9,0*
20,1,$1+$1,$8,$9,$2,$3,0*%
G04 Aperture macros list end*
%ADD10R,3.050000X2.750000*%
%ADD11R,2.200000X1.200000*%
%ADD12RoundRect,0.250000X0.275000X-0.375000X0.275000X0.375000X-0.275000X0.375000X-0.275000X-0.375000X0*%
%ADD13R,2.200000X1.500000*%
%ADD14R,1.600000X0.550000*%
%ADD15R,0.550000X1.600000*%
%ADD16R,2.500000X1.900000*%
%ADD17RoundRect,0.250001X-1.999999X-0.799999X1.999999X-0.799999X1.999999X0.799999X-1.999999X0.799999X0*%
%ADD18RoundRect,0.135000X0.185000X-0.135000X0.185000X0.135000X-0.185000X0.135000X-0.185000X-0.135000X0*%
G04 APERTURE END LIST*
D10*
%TO.C,RL1*%
X71775000Y-60525000D03*
X71775000Y-57475000D03*
X68425000Y-60525000D03*
X68425000Y-57475000D03*
D11*
X63800000Y-56720000D03*
X63800000Y-61280000D03*
%TD*%
D12*
%TO.C,C3*%
X77000000Y-80400000D03*
X77000000Y-78800000D03*
%TD*%
D13*
%TO.C,D4*%
X74100000Y-43000000D03*
X77000000Y-43000000D03*
%TD*%
%TO.C,D6*%
X44550000Y-52400000D03*
X47450000Y-52400000D03*
%TD*%
D14*
%TO.C,U1*%
X65250000Y-80800000D03*
X65250000Y-80000000D03*
X65250000Y-79200000D03*
X65250000Y-78400000D03*
X65250000Y-77600000D03*
X65250000Y-76800000D03*
X65250000Y-76000000D03*
X65250000Y-75200000D03*
D15*
X63800000Y-73750000D03*
X63000000Y-73750000D03*
X62200000Y-73750000D03*
X61400000Y-73750000D03*
X60600000Y-73750000D03*
X59800000Y-73750000D03*
X59000000Y-73750000D03*
X58200000Y-73750000D03*
D14*
X56750000Y-75200000D03*
X56750000Y-76000000D03*
X56750000Y-76800000D03*
X56750000Y-77600000D03*
X56750000Y-78400000D03*
X56750000Y-79200000D03*
X56750000Y-80000000D03*
X56750000Y-80800000D03*
D15*
X58200000Y-82250000D03*
X59000000Y-82250000D03*
X59800000Y-82250000D03*
X60600000Y-82250000D03*
X61400000Y-82250000D03*
X62200000Y-82250000D03*
X63000000Y-82250000D03*
X63800000Y-82250000D03*
%TD*%
D13*
%TO.C,D1*%
X74100000Y-49450000D03*
X77000000Y-49450000D03*
%TD*%
%TO.C,D8*%
X44550000Y-42950000D03*
X47450000Y-42950000D03*
%TD*%
%TO.C,D2*%
X74150000Y-52350000D03*
X77050000Y-52350000D03*
%TD*%
%TO.C,D5*%
X44600000Y-49300000D03*
X47500000Y-49300000D03*
%TD*%
D16*
%TO.C,Y1*%
X71700000Y-74150000D03*
X71700000Y-78550000D03*
%TD*%
D17*
%TO.C,C2*%
X53550000Y-58850000D03*
X60750000Y-58850000D03*
%TD*%
D12*
%TO.C,C4*%
X77000000Y-75300000D03*
X77000000Y-73700000D03*
%TD*%
D18*
%TO.C,R1*%
X61450000Y-85160000D03*
X61450000Y-84140000D03*
%TD*%
D17*
%TO.C,C1*%
X65000000Y-67200000D03*
X72200000Y-67200000D03*
%TD*%
D13*
%TO.C,D7*%
X44550000Y-45950000D03*
X47450000Y-45950000D03*
%TD*%
%TO.C,D3*%
X74050000Y-46050000D03*
X76950000Y-46050000D03*
%TD*%
M02*
