%TF.GenerationSoftware,KiCad,Pcbnew,(6.0.5-0)*%
%TF.CreationDate,2022-06-28T13:52:29+02:00*%
%TF.ProjectId,JeepPCB,4a656570-5043-4422-9e6b-696361645f70,rev?*%
%TF.SameCoordinates,Original*%
%TF.FileFunction,Legend,Top*%
%TF.FilePolarity,Positive*%
%FSLAX46Y46*%
G04 Gerber Fmt 4.6, Leading zero omitted, Abs format (unit mm)*
G04 Created by KiCad (PCBNEW (6.0.5-0)) date 2022-06-28 13:52:29*
%MOMM*%
%LPD*%
G01*
G04 APERTURE LIST*
%ADD10C,0.150000*%
%ADD11C,0.120000*%
G04 APERTURE END LIST*
D10*
X43200000Y-53700000D02*
X78300000Y-53650000D01*
%TO.C,RL1*%
X71628571Y-55302380D02*
X71295238Y-54826190D01*
X71057142Y-55302380D02*
X71057142Y-54302380D01*
X71438095Y-54302380D01*
X71533333Y-54350000D01*
X71580952Y-54397619D01*
X71628571Y-54492857D01*
X71628571Y-54635714D01*
X71580952Y-54730952D01*
X71533333Y-54778571D01*
X71438095Y-54826190D01*
X71057142Y-54826190D01*
X72533333Y-55302380D02*
X72057142Y-55302380D01*
X72057142Y-54302380D01*
X73390476Y-55302380D02*
X72819047Y-55302380D01*
X73104761Y-55302380D02*
X73104761Y-54302380D01*
X73009523Y-54445238D01*
X72914285Y-54540476D01*
X72819047Y-54588095D01*
%TO.C,C3*%
X74983333Y-79957142D02*
X74935714Y-80004761D01*
X74792857Y-80052380D01*
X74697619Y-80052380D01*
X74554761Y-80004761D01*
X74459523Y-79909523D01*
X74411904Y-79814285D01*
X74364285Y-79623809D01*
X74364285Y-79480952D01*
X74411904Y-79290476D01*
X74459523Y-79195238D01*
X74554761Y-79100000D01*
X74697619Y-79052380D01*
X74792857Y-79052380D01*
X74935714Y-79100000D01*
X74983333Y-79147619D01*
X75316666Y-79052380D02*
X75935714Y-79052380D01*
X75602380Y-79433333D01*
X75745238Y-79433333D01*
X75840476Y-79480952D01*
X75888095Y-79528571D01*
X75935714Y-79623809D01*
X75935714Y-79861904D01*
X75888095Y-79957142D01*
X75840476Y-80004761D01*
X75745238Y-80052380D01*
X75459523Y-80052380D01*
X75364285Y-80004761D01*
X75316666Y-79957142D01*
%TO.C,D4*%
X78661904Y-43552380D02*
X78661904Y-42552380D01*
X78900000Y-42552380D01*
X79042857Y-42600000D01*
X79138095Y-42695238D01*
X79185714Y-42790476D01*
X79233333Y-42980952D01*
X79233333Y-43123809D01*
X79185714Y-43314285D01*
X79138095Y-43409523D01*
X79042857Y-43504761D01*
X78900000Y-43552380D01*
X78661904Y-43552380D01*
X80090476Y-42885714D02*
X80090476Y-43552380D01*
X79852380Y-42504761D02*
X79614285Y-43219047D01*
X80233333Y-43219047D01*
%TO.C,D6*%
X41411904Y-52852380D02*
X41411904Y-51852380D01*
X41650000Y-51852380D01*
X41792857Y-51900000D01*
X41888095Y-51995238D01*
X41935714Y-52090476D01*
X41983333Y-52280952D01*
X41983333Y-52423809D01*
X41935714Y-52614285D01*
X41888095Y-52709523D01*
X41792857Y-52804761D01*
X41650000Y-52852380D01*
X41411904Y-52852380D01*
X42840476Y-51852380D02*
X42650000Y-51852380D01*
X42554761Y-51900000D01*
X42507142Y-51947619D01*
X42411904Y-52090476D01*
X42364285Y-52280952D01*
X42364285Y-52661904D01*
X42411904Y-52757142D01*
X42459523Y-52804761D01*
X42554761Y-52852380D01*
X42745238Y-52852380D01*
X42840476Y-52804761D01*
X42888095Y-52757142D01*
X42935714Y-52661904D01*
X42935714Y-52423809D01*
X42888095Y-52328571D01*
X42840476Y-52280952D01*
X42745238Y-52233333D01*
X42554761Y-52233333D01*
X42459523Y-52280952D01*
X42411904Y-52328571D01*
X42364285Y-52423809D01*
%TO.C,U1*%
X60238095Y-79252380D02*
X60238095Y-80061904D01*
X60285714Y-80157142D01*
X60333333Y-80204761D01*
X60428571Y-80252380D01*
X60619047Y-80252380D01*
X60714285Y-80204761D01*
X60761904Y-80157142D01*
X60809523Y-80061904D01*
X60809523Y-79252380D01*
X61809523Y-80252380D02*
X61238095Y-80252380D01*
X61523809Y-80252380D02*
X61523809Y-79252380D01*
X61428571Y-79395238D01*
X61333333Y-79490476D01*
X61238095Y-79538095D01*
%TO.C,D1*%
X78611904Y-49702380D02*
X78611904Y-48702380D01*
X78850000Y-48702380D01*
X78992857Y-48750000D01*
X79088095Y-48845238D01*
X79135714Y-48940476D01*
X79183333Y-49130952D01*
X79183333Y-49273809D01*
X79135714Y-49464285D01*
X79088095Y-49559523D01*
X78992857Y-49654761D01*
X78850000Y-49702380D01*
X78611904Y-49702380D01*
X80135714Y-49702380D02*
X79564285Y-49702380D01*
X79850000Y-49702380D02*
X79850000Y-48702380D01*
X79754761Y-48845238D01*
X79659523Y-48940476D01*
X79564285Y-48988095D01*
%TO.C,J1*%
X76166666Y-83552380D02*
X76166666Y-84266666D01*
X76119047Y-84409523D01*
X76023809Y-84504761D01*
X75880952Y-84552380D01*
X75785714Y-84552380D01*
X77166666Y-84552380D02*
X76595238Y-84552380D01*
X76880952Y-84552380D02*
X76880952Y-83552380D01*
X76785714Y-83695238D01*
X76690476Y-83790476D01*
X76595238Y-83838095D01*
%TO.C,D8*%
X41461904Y-43452380D02*
X41461904Y-42452380D01*
X41700000Y-42452380D01*
X41842857Y-42500000D01*
X41938095Y-42595238D01*
X41985714Y-42690476D01*
X42033333Y-42880952D01*
X42033333Y-43023809D01*
X41985714Y-43214285D01*
X41938095Y-43309523D01*
X41842857Y-43404761D01*
X41700000Y-43452380D01*
X41461904Y-43452380D01*
X42604761Y-42880952D02*
X42509523Y-42833333D01*
X42461904Y-42785714D01*
X42414285Y-42690476D01*
X42414285Y-42642857D01*
X42461904Y-42547619D01*
X42509523Y-42500000D01*
X42604761Y-42452380D01*
X42795238Y-42452380D01*
X42890476Y-42500000D01*
X42938095Y-42547619D01*
X42985714Y-42642857D01*
X42985714Y-42690476D01*
X42938095Y-42785714D01*
X42890476Y-42833333D01*
X42795238Y-42880952D01*
X42604761Y-42880952D01*
X42509523Y-42928571D01*
X42461904Y-42976190D01*
X42414285Y-43071428D01*
X42414285Y-43261904D01*
X42461904Y-43357142D01*
X42509523Y-43404761D01*
X42604761Y-43452380D01*
X42795238Y-43452380D01*
X42890476Y-43404761D01*
X42938095Y-43357142D01*
X42985714Y-43261904D01*
X42985714Y-43071428D01*
X42938095Y-42976190D01*
X42890476Y-42928571D01*
X42795238Y-42880952D01*
%TO.C,D2*%
X78761904Y-52852380D02*
X78761904Y-51852380D01*
X79000000Y-51852380D01*
X79142857Y-51900000D01*
X79238095Y-51995238D01*
X79285714Y-52090476D01*
X79333333Y-52280952D01*
X79333333Y-52423809D01*
X79285714Y-52614285D01*
X79238095Y-52709523D01*
X79142857Y-52804761D01*
X79000000Y-52852380D01*
X78761904Y-52852380D01*
X79714285Y-51947619D02*
X79761904Y-51900000D01*
X79857142Y-51852380D01*
X80095238Y-51852380D01*
X80190476Y-51900000D01*
X80238095Y-51947619D01*
X80285714Y-52042857D01*
X80285714Y-52138095D01*
X80238095Y-52280952D01*
X79666666Y-52852380D01*
X80285714Y-52852380D01*
%TO.C,D5*%
X41461904Y-49702380D02*
X41461904Y-48702380D01*
X41700000Y-48702380D01*
X41842857Y-48750000D01*
X41938095Y-48845238D01*
X41985714Y-48940476D01*
X42033333Y-49130952D01*
X42033333Y-49273809D01*
X41985714Y-49464285D01*
X41938095Y-49559523D01*
X41842857Y-49654761D01*
X41700000Y-49702380D01*
X41461904Y-49702380D01*
X42938095Y-48702380D02*
X42461904Y-48702380D01*
X42414285Y-49178571D01*
X42461904Y-49130952D01*
X42557142Y-49083333D01*
X42795238Y-49083333D01*
X42890476Y-49130952D01*
X42938095Y-49178571D01*
X42985714Y-49273809D01*
X42985714Y-49511904D01*
X42938095Y-49607142D01*
X42890476Y-49654761D01*
X42795238Y-49702380D01*
X42557142Y-49702380D01*
X42461904Y-49654761D01*
X42414285Y-49607142D01*
%TO.C,J_FRONT1*%
X46452380Y-64066428D02*
X47166666Y-64066428D01*
X47309523Y-64114047D01*
X47404761Y-64209285D01*
X47452380Y-64352142D01*
X47452380Y-64447380D01*
X47547619Y-63828333D02*
X47547619Y-63066428D01*
X46928571Y-62495000D02*
X46928571Y-62828333D01*
X47452380Y-62828333D02*
X46452380Y-62828333D01*
X46452380Y-62352142D01*
X47452380Y-61399761D02*
X46976190Y-61733095D01*
X47452380Y-61971190D02*
X46452380Y-61971190D01*
X46452380Y-61590238D01*
X46500000Y-61495000D01*
X46547619Y-61447380D01*
X46642857Y-61399761D01*
X46785714Y-61399761D01*
X46880952Y-61447380D01*
X46928571Y-61495000D01*
X46976190Y-61590238D01*
X46976190Y-61971190D01*
X46452380Y-60780714D02*
X46452380Y-60590238D01*
X46500000Y-60495000D01*
X46595238Y-60399761D01*
X46785714Y-60352142D01*
X47119047Y-60352142D01*
X47309523Y-60399761D01*
X47404761Y-60495000D01*
X47452380Y-60590238D01*
X47452380Y-60780714D01*
X47404761Y-60875952D01*
X47309523Y-60971190D01*
X47119047Y-61018809D01*
X46785714Y-61018809D01*
X46595238Y-60971190D01*
X46500000Y-60875952D01*
X46452380Y-60780714D01*
X47452380Y-59923571D02*
X46452380Y-59923571D01*
X47452380Y-59352142D01*
X46452380Y-59352142D01*
X46452380Y-59018809D02*
X46452380Y-58447380D01*
X47452380Y-58733095D02*
X46452380Y-58733095D01*
X47452380Y-57590238D02*
X47452380Y-58161666D01*
X47452380Y-57875952D02*
X46452380Y-57875952D01*
X46595238Y-57971190D01*
X46690476Y-58066428D01*
X46738095Y-58161666D01*
%TO.C,Y1*%
X71523809Y-80526190D02*
X71523809Y-81002380D01*
X71190476Y-80002380D02*
X71523809Y-80526190D01*
X71857142Y-80002380D01*
X72714285Y-81002380D02*
X72142857Y-81002380D01*
X72428571Y-81002380D02*
X72428571Y-80002380D01*
X72333333Y-80145238D01*
X72238095Y-80240476D01*
X72142857Y-80288095D01*
%TO.C,C2*%
X56983333Y-54007142D02*
X56935714Y-54054761D01*
X56792857Y-54102380D01*
X56697619Y-54102380D01*
X56554761Y-54054761D01*
X56459523Y-53959523D01*
X56411904Y-53864285D01*
X56364285Y-53673809D01*
X56364285Y-53530952D01*
X56411904Y-53340476D01*
X56459523Y-53245238D01*
X56554761Y-53150000D01*
X56697619Y-53102380D01*
X56792857Y-53102380D01*
X56935714Y-53150000D01*
X56983333Y-53197619D01*
X57364285Y-53197619D02*
X57411904Y-53150000D01*
X57507142Y-53102380D01*
X57745238Y-53102380D01*
X57840476Y-53150000D01*
X57888095Y-53197619D01*
X57935714Y-53292857D01*
X57935714Y-53388095D01*
X57888095Y-53530952D01*
X57316666Y-54102380D01*
X57935714Y-54102380D01*
%TO.C,C4*%
X74883333Y-75607142D02*
X74835714Y-75654761D01*
X74692857Y-75702380D01*
X74597619Y-75702380D01*
X74454761Y-75654761D01*
X74359523Y-75559523D01*
X74311904Y-75464285D01*
X74264285Y-75273809D01*
X74264285Y-75130952D01*
X74311904Y-74940476D01*
X74359523Y-74845238D01*
X74454761Y-74750000D01*
X74597619Y-74702380D01*
X74692857Y-74702380D01*
X74835714Y-74750000D01*
X74883333Y-74797619D01*
X75740476Y-75035714D02*
X75740476Y-75702380D01*
X75502380Y-74654761D02*
X75264285Y-75369047D01*
X75883333Y-75369047D01*
%TO.C,R1*%
X61283333Y-86852380D02*
X60950000Y-86376190D01*
X60711904Y-86852380D02*
X60711904Y-85852380D01*
X61092857Y-85852380D01*
X61188095Y-85900000D01*
X61235714Y-85947619D01*
X61283333Y-86042857D01*
X61283333Y-86185714D01*
X61235714Y-86280952D01*
X61188095Y-86328571D01*
X61092857Y-86376190D01*
X60711904Y-86376190D01*
X62235714Y-86852380D02*
X61664285Y-86852380D01*
X61950000Y-86852380D02*
X61950000Y-85852380D01*
X61854761Y-85995238D01*
X61759523Y-86090476D01*
X61664285Y-86138095D01*
%TO.C,C1*%
X68433333Y-62357142D02*
X68385714Y-62404761D01*
X68242857Y-62452380D01*
X68147619Y-62452380D01*
X68004761Y-62404761D01*
X67909523Y-62309523D01*
X67861904Y-62214285D01*
X67814285Y-62023809D01*
X67814285Y-61880952D01*
X67861904Y-61690476D01*
X67909523Y-61595238D01*
X68004761Y-61500000D01*
X68147619Y-61452380D01*
X68242857Y-61452380D01*
X68385714Y-61500000D01*
X68433333Y-61547619D01*
X69385714Y-62452380D02*
X68814285Y-62452380D01*
X69100000Y-62452380D02*
X69100000Y-61452380D01*
X69004761Y-61595238D01*
X68909523Y-61690476D01*
X68814285Y-61738095D01*
%TO.C,J_MAIN_POWER1*%
X41690238Y-71447380D02*
X41690238Y-72161666D01*
X41642619Y-72304523D01*
X41547380Y-72399761D01*
X41404523Y-72447380D01*
X41309285Y-72447380D01*
X41928333Y-72542619D02*
X42690238Y-72542619D01*
X42928333Y-72447380D02*
X42928333Y-71447380D01*
X43261666Y-72161666D01*
X43594999Y-71447380D01*
X43594999Y-72447380D01*
X44023571Y-72161666D02*
X44499761Y-72161666D01*
X43928333Y-72447380D02*
X44261666Y-71447380D01*
X44594999Y-72447380D01*
X44928333Y-72447380D02*
X44928333Y-71447380D01*
X45404523Y-72447380D02*
X45404523Y-71447380D01*
X45975952Y-72447380D01*
X45975952Y-71447380D01*
X46214047Y-72542619D02*
X46975952Y-72542619D01*
X47214047Y-72447380D02*
X47214047Y-71447380D01*
X47594999Y-71447380D01*
X47690238Y-71495000D01*
X47737857Y-71542619D01*
X47785476Y-71637857D01*
X47785476Y-71780714D01*
X47737857Y-71875952D01*
X47690238Y-71923571D01*
X47594999Y-71971190D01*
X47214047Y-71971190D01*
X48404523Y-71447380D02*
X48594999Y-71447380D01*
X48690238Y-71495000D01*
X48785476Y-71590238D01*
X48833095Y-71780714D01*
X48833095Y-72114047D01*
X48785476Y-72304523D01*
X48690238Y-72399761D01*
X48594999Y-72447380D01*
X48404523Y-72447380D01*
X48309285Y-72399761D01*
X48214047Y-72304523D01*
X48166428Y-72114047D01*
X48166428Y-71780714D01*
X48214047Y-71590238D01*
X48309285Y-71495000D01*
X48404523Y-71447380D01*
X49166428Y-71447380D02*
X49404523Y-72447380D01*
X49594999Y-71733095D01*
X49785476Y-72447380D01*
X50023571Y-71447380D01*
X50404523Y-71923571D02*
X50737857Y-71923571D01*
X50880714Y-72447380D02*
X50404523Y-72447380D01*
X50404523Y-71447380D01*
X50880714Y-71447380D01*
X51880714Y-72447380D02*
X51547380Y-71971190D01*
X51309285Y-72447380D02*
X51309285Y-71447380D01*
X51690238Y-71447380D01*
X51785476Y-71495000D01*
X51833095Y-71542619D01*
X51880714Y-71637857D01*
X51880714Y-71780714D01*
X51833095Y-71875952D01*
X51785476Y-71923571D01*
X51690238Y-71971190D01*
X51309285Y-71971190D01*
X52833095Y-72447380D02*
X52261666Y-72447380D01*
X52547380Y-72447380D02*
X52547380Y-71447380D01*
X52452142Y-71590238D01*
X52356904Y-71685476D01*
X52261666Y-71733095D01*
%TO.C,D7*%
X41411904Y-46402380D02*
X41411904Y-45402380D01*
X41650000Y-45402380D01*
X41792857Y-45450000D01*
X41888095Y-45545238D01*
X41935714Y-45640476D01*
X41983333Y-45830952D01*
X41983333Y-45973809D01*
X41935714Y-46164285D01*
X41888095Y-46259523D01*
X41792857Y-46354761D01*
X41650000Y-46402380D01*
X41411904Y-46402380D01*
X42316666Y-45402380D02*
X42983333Y-45402380D01*
X42554761Y-46402380D01*
%TO.C,D3*%
X78661904Y-46502380D02*
X78661904Y-45502380D01*
X78900000Y-45502380D01*
X79042857Y-45550000D01*
X79138095Y-45645238D01*
X79185714Y-45740476D01*
X79233333Y-45930952D01*
X79233333Y-46073809D01*
X79185714Y-46264285D01*
X79138095Y-46359523D01*
X79042857Y-46454761D01*
X78900000Y-46502380D01*
X78661904Y-46502380D01*
X79566666Y-45502380D02*
X80185714Y-45502380D01*
X79852380Y-45883333D01*
X79995238Y-45883333D01*
X80090476Y-45930952D01*
X80138095Y-45978571D01*
X80185714Y-46073809D01*
X80185714Y-46311904D01*
X80138095Y-46407142D01*
X80090476Y-46454761D01*
X79995238Y-46502380D01*
X79709523Y-46502380D01*
X79614285Y-46454761D01*
X79566666Y-46407142D01*
%TO.C,MotorFET1*%
X57223571Y-42187380D02*
X57223571Y-41187380D01*
X57556904Y-41901666D01*
X57890238Y-41187380D01*
X57890238Y-42187380D01*
X58509285Y-42187380D02*
X58414047Y-42139761D01*
X58366428Y-42092142D01*
X58318809Y-41996904D01*
X58318809Y-41711190D01*
X58366428Y-41615952D01*
X58414047Y-41568333D01*
X58509285Y-41520714D01*
X58652142Y-41520714D01*
X58747380Y-41568333D01*
X58795000Y-41615952D01*
X58842619Y-41711190D01*
X58842619Y-41996904D01*
X58795000Y-42092142D01*
X58747380Y-42139761D01*
X58652142Y-42187380D01*
X58509285Y-42187380D01*
X59128333Y-41520714D02*
X59509285Y-41520714D01*
X59271190Y-41187380D02*
X59271190Y-42044523D01*
X59318809Y-42139761D01*
X59414047Y-42187380D01*
X59509285Y-42187380D01*
X59985476Y-42187380D02*
X59890238Y-42139761D01*
X59842619Y-42092142D01*
X59795000Y-41996904D01*
X59795000Y-41711190D01*
X59842619Y-41615952D01*
X59890238Y-41568333D01*
X59985476Y-41520714D01*
X60128333Y-41520714D01*
X60223571Y-41568333D01*
X60271190Y-41615952D01*
X60318809Y-41711190D01*
X60318809Y-41996904D01*
X60271190Y-42092142D01*
X60223571Y-42139761D01*
X60128333Y-42187380D01*
X59985476Y-42187380D01*
X60747380Y-42187380D02*
X60747380Y-41520714D01*
X60747380Y-41711190D02*
X60795000Y-41615952D01*
X60842619Y-41568333D01*
X60937857Y-41520714D01*
X61033095Y-41520714D01*
X61699761Y-41663571D02*
X61366428Y-41663571D01*
X61366428Y-42187380D02*
X61366428Y-41187380D01*
X61842619Y-41187380D01*
X62223571Y-41663571D02*
X62556904Y-41663571D01*
X62699761Y-42187380D02*
X62223571Y-42187380D01*
X62223571Y-41187380D01*
X62699761Y-41187380D01*
X62985476Y-41187380D02*
X63556904Y-41187380D01*
X63271190Y-42187380D02*
X63271190Y-41187380D01*
X64414047Y-42187380D02*
X63842619Y-42187380D01*
X64128333Y-42187380D02*
X64128333Y-41187380D01*
X64033095Y-41330238D01*
X63937857Y-41425476D01*
X63842619Y-41473095D01*
%TO.C,J_BACK1*%
X75757380Y-63647857D02*
X76471666Y-63647857D01*
X76614523Y-63695476D01*
X76709761Y-63790714D01*
X76757380Y-63933571D01*
X76757380Y-64028809D01*
X76852619Y-63409761D02*
X76852619Y-62647857D01*
X76233571Y-62076428D02*
X76281190Y-61933571D01*
X76328809Y-61885952D01*
X76424047Y-61838333D01*
X76566904Y-61838333D01*
X76662142Y-61885952D01*
X76709761Y-61933571D01*
X76757380Y-62028809D01*
X76757380Y-62409761D01*
X75757380Y-62409761D01*
X75757380Y-62076428D01*
X75805000Y-61981190D01*
X75852619Y-61933571D01*
X75947857Y-61885952D01*
X76043095Y-61885952D01*
X76138333Y-61933571D01*
X76185952Y-61981190D01*
X76233571Y-62076428D01*
X76233571Y-62409761D01*
X76471666Y-61457380D02*
X76471666Y-60981190D01*
X76757380Y-61552619D02*
X75757380Y-61219285D01*
X76757380Y-60885952D01*
X76662142Y-59981190D02*
X76709761Y-60028809D01*
X76757380Y-60171666D01*
X76757380Y-60266904D01*
X76709761Y-60409761D01*
X76614523Y-60505000D01*
X76519285Y-60552619D01*
X76328809Y-60600238D01*
X76185952Y-60600238D01*
X75995476Y-60552619D01*
X75900238Y-60505000D01*
X75805000Y-60409761D01*
X75757380Y-60266904D01*
X75757380Y-60171666D01*
X75805000Y-60028809D01*
X75852619Y-59981190D01*
X76757380Y-59552619D02*
X75757380Y-59552619D01*
X76757380Y-58981190D02*
X76185952Y-59409761D01*
X75757380Y-58981190D02*
X76328809Y-59552619D01*
X76757380Y-58028809D02*
X76757380Y-58600238D01*
X76757380Y-58314523D02*
X75757380Y-58314523D01*
X75900238Y-58409761D01*
X75995476Y-58505000D01*
X76043095Y-58600238D01*
D11*
%TO.C,RL1*%
X65530000Y-55550000D02*
X65530000Y-55820000D01*
X65530000Y-62450000D02*
X65530000Y-62180000D01*
X65530000Y-62180000D02*
X64430000Y-62180000D01*
X65530000Y-55820000D02*
X62700000Y-55820000D01*
X67030000Y-55550000D02*
X65530000Y-55550000D01*
X67030000Y-62450000D02*
X65530000Y-62450000D01*
%TO.C,C3*%
X76215000Y-78800000D02*
X76215000Y-81285000D01*
X77785000Y-81285000D02*
X77785000Y-78800000D01*
X76215000Y-81285000D02*
X77785000Y-81285000D01*
%TO.C,D4*%
X76650000Y-42070000D02*
X72820000Y-42070000D01*
X72820000Y-42070000D02*
X72820000Y-43930000D01*
X72820000Y-43930000D02*
X76650000Y-43930000D01*
%TO.C,D6*%
X47100000Y-51470000D02*
X43270000Y-51470000D01*
X43270000Y-51470000D02*
X43270000Y-53330000D01*
X43270000Y-53330000D02*
X47100000Y-53330000D01*
D10*
%TO.C,U1*%
X64625000Y-81625000D02*
X64625000Y-81400000D01*
X57375000Y-74375000D02*
X57375000Y-74700000D01*
X64625000Y-74375000D02*
X64300000Y-74375000D01*
X64625000Y-74375000D02*
X64625000Y-74700000D01*
X57375000Y-74375000D02*
X57700000Y-74375000D01*
X64625000Y-81625000D02*
X64300000Y-81625000D01*
X57375000Y-81625000D02*
X57700000Y-81625000D01*
X64625000Y-81400000D02*
X66050000Y-81400000D01*
X57375000Y-81625000D02*
X57375000Y-81300000D01*
D11*
%TO.C,D1*%
X72820000Y-50380000D02*
X76650000Y-50380000D01*
X72820000Y-48520000D02*
X72820000Y-50380000D01*
X76650000Y-48520000D02*
X72820000Y-48520000D01*
%TO.C,J1*%
X73200000Y-82640000D02*
X73200000Y-84760000D01*
X75260000Y-82640000D02*
X75260000Y-83700000D01*
X73200000Y-82640000D02*
X69140000Y-82640000D01*
X74200000Y-82640000D02*
X75260000Y-82640000D01*
X73200000Y-84760000D02*
X69140000Y-84760000D01*
X69140000Y-82640000D02*
X69140000Y-84760000D01*
%TO.C,D8*%
X43270000Y-43880000D02*
X47100000Y-43880000D01*
X47100000Y-42020000D02*
X43270000Y-42020000D01*
X43270000Y-42020000D02*
X43270000Y-43880000D01*
%TO.C,D2*%
X72870000Y-51420000D02*
X72870000Y-53280000D01*
X72870000Y-53280000D02*
X76700000Y-53280000D01*
X76700000Y-51420000D02*
X72870000Y-51420000D01*
%TO.C,D5*%
X43320000Y-50230000D02*
X47150000Y-50230000D01*
X47150000Y-48370000D02*
X43320000Y-48370000D01*
X43320000Y-48370000D02*
X43320000Y-50230000D01*
%TO.C,J_FRONT1*%
X38035000Y-55855000D02*
X38035000Y-66135000D01*
X38535000Y-55615000D02*
X37795000Y-55615000D01*
X44996000Y-55855000D02*
X44996000Y-66135000D01*
X41456000Y-62501000D02*
X41421000Y-62466000D01*
X40095000Y-55855000D02*
X40095000Y-66135000D01*
X47956000Y-66135000D02*
X38035000Y-66135000D01*
X47956000Y-55855000D02*
X47956000Y-66135000D01*
X47956000Y-55855000D02*
X38035000Y-55855000D01*
X38595000Y-55855000D02*
X38595000Y-66135000D01*
X41672000Y-62308000D02*
X41626000Y-62261000D01*
X43764000Y-64810000D02*
X43718000Y-64763000D01*
X43970000Y-64605000D02*
X43934000Y-64570000D01*
X37795000Y-55615000D02*
X37795000Y-56115000D01*
X41015000Y-58455000D02*
G75*
G03*
X41160244Y-59138318I1680000J0D01*
G01*
X43379000Y-56920000D02*
G75*
G03*
X42011958Y-56919573I-684001J-1534993D01*
G01*
X44230000Y-59139000D02*
G75*
G03*
X44230427Y-57771958I-1534993J684001D01*
G01*
X42011000Y-59990001D02*
G75*
G03*
X43378042Y-59990427I684000J1535001D01*
G01*
X41160000Y-57771000D02*
G75*
G03*
X41014747Y-58483805I1535001J-683999D01*
G01*
X44375000Y-63535000D02*
G75*
G03*
X44375000Y-63535000I-1680000J0D01*
G01*
%TO.C,Y1*%
X73650000Y-73000000D02*
X69750000Y-73000000D01*
X69750000Y-73000000D02*
X69750000Y-79550000D01*
X73650000Y-79550000D02*
X73650000Y-73000000D01*
%TO.C,C2*%
X53954437Y-63110000D02*
X61410000Y-63110000D01*
X53954437Y-54590000D02*
X61410000Y-54590000D01*
X52890000Y-62045563D02*
X53954437Y-63110000D01*
X52890000Y-55654437D02*
X53954437Y-54590000D01*
X52890000Y-62045563D02*
X52890000Y-60160000D01*
X61410000Y-54590000D02*
X61410000Y-57540000D01*
X52890000Y-55654437D02*
X52890000Y-57540000D01*
X61410000Y-63110000D02*
X61410000Y-60160000D01*
%TO.C,C4*%
X76215000Y-73700000D02*
X76215000Y-76185000D01*
X77785000Y-76185000D02*
X77785000Y-73700000D01*
X76215000Y-76185000D02*
X77785000Y-76185000D01*
%TO.C,R1*%
X61830000Y-84803641D02*
X61830000Y-84496359D01*
X61070000Y-84803641D02*
X61070000Y-84496359D01*
%TO.C,C1*%
X64340000Y-64004437D02*
X64340000Y-65890000D01*
X72860000Y-62940000D02*
X72860000Y-65890000D01*
X65404437Y-62940000D02*
X72860000Y-62940000D01*
X64340000Y-70395563D02*
X64340000Y-68510000D01*
X65404437Y-71460000D02*
X72860000Y-71460000D01*
X64340000Y-70395563D02*
X65404437Y-71460000D01*
X72860000Y-71460000D02*
X72860000Y-68510000D01*
X64340000Y-64004437D02*
X65404437Y-62940000D01*
%TO.C,J_MAIN_POWER1*%
X52235000Y-72994000D02*
X52235000Y-82915000D01*
X41955000Y-82915000D02*
X52235000Y-82915000D01*
X41955000Y-80855000D02*
X52235000Y-80855000D01*
X41955000Y-72994000D02*
X41955000Y-82915000D01*
X41715000Y-82415000D02*
X41715000Y-83155000D01*
X50705000Y-76980000D02*
X50670000Y-77016000D01*
X48601000Y-79494000D02*
X48566000Y-79529000D01*
X50910000Y-77186000D02*
X50863000Y-77232000D01*
X48408000Y-79278000D02*
X48361000Y-79324000D01*
X41955000Y-72994000D02*
X52235000Y-72994000D01*
X41715000Y-83155000D02*
X42215000Y-83155000D01*
X41955000Y-75954000D02*
X52235000Y-75954000D01*
X41955000Y-82355000D02*
X52235000Y-82355000D01*
X44555000Y-79935000D02*
G75*
G03*
X45238318Y-79789756I0J1680000D01*
G01*
X43020000Y-77571000D02*
G75*
G03*
X43019573Y-78938042I1534993J-684001D01*
G01*
X43871000Y-79790000D02*
G75*
G03*
X44583805Y-79935253I683999J1535001D01*
G01*
X45239000Y-76720000D02*
G75*
G03*
X43871958Y-76719573I-684001J-1534993D01*
G01*
X46090001Y-78939000D02*
G75*
G03*
X46090427Y-77571958I-1535001J684000D01*
G01*
X51315000Y-78255000D02*
G75*
G03*
X51315000Y-78255000I-1680000J0D01*
G01*
%TO.C,D7*%
X47100000Y-45020000D02*
X43270000Y-45020000D01*
X43270000Y-45020000D02*
X43270000Y-46880000D01*
X43270000Y-46880000D02*
X47100000Y-46880000D01*
%TO.C,D3*%
X72770000Y-46980000D02*
X76600000Y-46980000D01*
X72770000Y-45120000D02*
X72770000Y-46980000D01*
X76600000Y-45120000D02*
X72770000Y-45120000D01*
%TO.C,MotorFET1*%
X69340000Y-47976000D02*
X71015000Y-47976000D01*
X58946000Y-42735000D02*
X58946000Y-44575000D01*
X64605000Y-47976000D02*
X64605000Y-51370000D01*
X50575000Y-42735000D02*
X71015000Y-42735000D01*
X64260000Y-47976000D02*
X64951000Y-47976000D01*
X50575000Y-44575000D02*
X71015000Y-44575000D01*
X69685000Y-47976000D02*
X69685000Y-51370000D01*
X51905000Y-47976000D02*
X51905000Y-51385000D01*
X67145000Y-47976000D02*
X67145000Y-51370000D01*
X61720000Y-47976000D02*
X62411000Y-47976000D01*
X62065000Y-47976000D02*
X62065000Y-51370000D01*
X66800000Y-47976000D02*
X67491000Y-47976000D01*
X54100000Y-47976000D02*
X54791000Y-47976000D01*
X62645000Y-42735000D02*
X62645000Y-44575000D01*
X56640000Y-47976000D02*
X57331000Y-47976000D01*
X50575000Y-47976000D02*
X52251000Y-47976000D01*
X56985000Y-47976000D02*
X56985000Y-51370000D01*
X54445000Y-47976000D02*
X54445000Y-51370000D01*
X59525000Y-47976000D02*
X59525000Y-51370000D01*
X71015000Y-42735000D02*
X71015000Y-47976000D01*
X59180000Y-47976000D02*
X59871000Y-47976000D01*
X50575000Y-42735000D02*
X50575000Y-47976000D01*
%TO.C,J_BACK1*%
X78004000Y-66145000D02*
X78004000Y-55865000D01*
X85205000Y-66385000D02*
X85205000Y-65885000D01*
X75044000Y-66145000D02*
X84965000Y-66145000D01*
X84965000Y-66145000D02*
X84965000Y-55865000D01*
X84465000Y-66385000D02*
X85205000Y-66385000D01*
X75044000Y-66145000D02*
X75044000Y-55865000D01*
X82905000Y-66145000D02*
X82905000Y-55865000D01*
X79030000Y-57395000D02*
X79066000Y-57430000D01*
X75044000Y-55865000D02*
X84965000Y-55865000D01*
X84405000Y-66145000D02*
X84405000Y-55865000D01*
X81328000Y-59692000D02*
X81374000Y-59739000D01*
X81544000Y-59499000D02*
X81579000Y-59534000D01*
X79236000Y-57190000D02*
X79282000Y-57237000D01*
X81985000Y-63545000D02*
G75*
G03*
X81839756Y-62861682I-1680000J0D01*
G01*
X81840000Y-64229000D02*
G75*
G03*
X81985253Y-63516195I-1535001J683999D01*
G01*
X80989000Y-62009999D02*
G75*
G03*
X79621958Y-62009573I-684000J-1535001D01*
G01*
X78770000Y-62861000D02*
G75*
G03*
X78769573Y-64228042I1534993J-684001D01*
G01*
X79621000Y-65080000D02*
G75*
G03*
X80988042Y-65080427I684001J1534993D01*
G01*
X81985000Y-58465000D02*
G75*
G03*
X81985000Y-58465000I-1680000J0D01*
G01*
%TD*%
M02*
