%TF.GenerationSoftware,KiCad,Pcbnew,(6.0.5)*%
%TF.CreationDate,2022-07-23T17:35:02+02:00*%
%TF.ProjectId,DroneHardware,44726f6e-6548-4617-9264-776172652e6b,rev?*%
%TF.SameCoordinates,Original*%
%TF.FileFunction,Legend,Top*%
%TF.FilePolarity,Positive*%
%FSLAX46Y46*%
G04 Gerber Fmt 4.6, Leading zero omitted, Abs format (unit mm)*
G04 Created by KiCad (PCBNEW (6.0.5)) date 2022-07-23 17:35:02*
%MOMM*%
%LPD*%
G01*
G04 APERTURE LIST*
%ADD10C,0.100000*%
%ADD11C,0.120000*%
%ADD12C,0.150000*%
G04 APERTURE END LIST*
D10*
X147542857Y-85036190D02*
X147542857Y-84536190D01*
X147661904Y-84536190D01*
X147733333Y-84560000D01*
X147780952Y-84607619D01*
X147804761Y-84655238D01*
X147828571Y-84750476D01*
X147828571Y-84821904D01*
X147804761Y-84917142D01*
X147780952Y-84964761D01*
X147733333Y-85012380D01*
X147661904Y-85036190D01*
X147542857Y-85036190D01*
X148209523Y-84774285D02*
X148042857Y-84774285D01*
X148042857Y-85036190D02*
X148042857Y-84536190D01*
X148280952Y-84536190D01*
X148471428Y-84536190D02*
X148471428Y-84940952D01*
X148495238Y-84988571D01*
X148519047Y-85012380D01*
X148566666Y-85036190D01*
X148661904Y-85036190D01*
X148709523Y-85012380D01*
X148733333Y-84988571D01*
X148757142Y-84940952D01*
X148757142Y-84536190D01*
X132027619Y-98156190D02*
X132027619Y-97656190D01*
X132218095Y-97656190D01*
X132265714Y-97680000D01*
X132289523Y-97703809D01*
X132313333Y-97751428D01*
X132313333Y-97822857D01*
X132289523Y-97870476D01*
X132265714Y-97894285D01*
X132218095Y-97918095D01*
X132027619Y-97918095D01*
X132480000Y-97656190D02*
X132599047Y-98156190D01*
X132694285Y-97799047D01*
X132789523Y-98156190D01*
X132908571Y-97656190D01*
X133099047Y-98156190D02*
X133099047Y-97656190D01*
X133265714Y-98013333D01*
X133432380Y-97656190D01*
X133432380Y-98156190D01*
X160530952Y-92726190D02*
X160816666Y-92726190D01*
X160673809Y-93226190D02*
X160673809Y-92726190D01*
X160935714Y-92726190D02*
X161269047Y-93226190D01*
X161269047Y-92726190D02*
X160935714Y-93226190D01*
X161721428Y-93226190D02*
X161435714Y-93226190D01*
X161578571Y-93226190D02*
X161578571Y-92726190D01*
X161530952Y-92797619D01*
X161483333Y-92845238D01*
X161435714Y-92869047D01*
X160576666Y-95618571D02*
X160552857Y-95642380D01*
X160481428Y-95666190D01*
X160433809Y-95666190D01*
X160362380Y-95642380D01*
X160314761Y-95594761D01*
X160290952Y-95547142D01*
X160267142Y-95451904D01*
X160267142Y-95380476D01*
X160290952Y-95285238D01*
X160314761Y-95237619D01*
X160362380Y-95190000D01*
X160433809Y-95166190D01*
X160481428Y-95166190D01*
X160552857Y-95190000D01*
X160576666Y-95213809D01*
X160790952Y-95666190D02*
X160790952Y-95166190D01*
X161076666Y-95666190D02*
X160862380Y-95380476D01*
X161076666Y-95166190D02*
X160790952Y-95451904D01*
X161505238Y-95166190D02*
X161410000Y-95166190D01*
X161362380Y-95190000D01*
X161338571Y-95213809D01*
X161290952Y-95285238D01*
X161267142Y-95380476D01*
X161267142Y-95570952D01*
X161290952Y-95618571D01*
X161314761Y-95642380D01*
X161362380Y-95666190D01*
X161457619Y-95666190D01*
X161505238Y-95642380D01*
X161529047Y-95618571D01*
X161552857Y-95570952D01*
X161552857Y-95451904D01*
X161529047Y-95404285D01*
X161505238Y-95380476D01*
X161457619Y-95356666D01*
X161362380Y-95356666D01*
X161314761Y-95380476D01*
X161290952Y-95404285D01*
X161267142Y-95451904D01*
X135819047Y-107702380D02*
X135890476Y-107726190D01*
X136009523Y-107726190D01*
X136057142Y-107702380D01*
X136080952Y-107678571D01*
X136104761Y-107630952D01*
X136104761Y-107583333D01*
X136080952Y-107535714D01*
X136057142Y-107511904D01*
X136009523Y-107488095D01*
X135914285Y-107464285D01*
X135866666Y-107440476D01*
X135842857Y-107416666D01*
X135819047Y-107369047D01*
X135819047Y-107321428D01*
X135842857Y-107273809D01*
X135866666Y-107250000D01*
X135914285Y-107226190D01*
X136033333Y-107226190D01*
X136104761Y-107250000D01*
X136271428Y-107226190D02*
X136390476Y-107726190D01*
X136485714Y-107369047D01*
X136580952Y-107726190D01*
X136700000Y-107226190D01*
X137176190Y-107678571D02*
X137152380Y-107702380D01*
X137080952Y-107726190D01*
X137033333Y-107726190D01*
X136961904Y-107702380D01*
X136914285Y-107654761D01*
X136890476Y-107607142D01*
X136866666Y-107511904D01*
X136866666Y-107440476D01*
X136890476Y-107345238D01*
X136914285Y-107297619D01*
X136961904Y-107250000D01*
X137033333Y-107226190D01*
X137080952Y-107226190D01*
X137152380Y-107250000D01*
X137176190Y-107273809D01*
X137628571Y-107726190D02*
X137390476Y-107726190D01*
X137390476Y-107226190D01*
X137795238Y-107726190D02*
X137795238Y-107226190D01*
X138080952Y-107726190D02*
X137866666Y-107440476D01*
X138080952Y-107226190D02*
X137795238Y-107511904D01*
X152307142Y-117875714D02*
X152688095Y-117875714D01*
X152497619Y-118066190D02*
X152497619Y-117685238D01*
X153164285Y-117566190D02*
X152926190Y-117566190D01*
X152902380Y-117804285D01*
X152926190Y-117780476D01*
X152973809Y-117756666D01*
X153092857Y-117756666D01*
X153140476Y-117780476D01*
X153164285Y-117804285D01*
X153188095Y-117851904D01*
X153188095Y-117970952D01*
X153164285Y-118018571D01*
X153140476Y-118042380D01*
X153092857Y-118066190D01*
X152973809Y-118066190D01*
X152926190Y-118042380D01*
X152902380Y-118018571D01*
X153330952Y-117566190D02*
X153497619Y-118066190D01*
X153664285Y-117566190D01*
X135790476Y-106482380D02*
X135861904Y-106506190D01*
X135980952Y-106506190D01*
X136028571Y-106482380D01*
X136052380Y-106458571D01*
X136076190Y-106410952D01*
X136076190Y-106363333D01*
X136052380Y-106315714D01*
X136028571Y-106291904D01*
X135980952Y-106268095D01*
X135885714Y-106244285D01*
X135838095Y-106220476D01*
X135814285Y-106196666D01*
X135790476Y-106149047D01*
X135790476Y-106101428D01*
X135814285Y-106053809D01*
X135838095Y-106030000D01*
X135885714Y-106006190D01*
X136004761Y-106006190D01*
X136076190Y-106030000D01*
X136242857Y-106006190D02*
X136361904Y-106506190D01*
X136457142Y-106149047D01*
X136552380Y-106506190D01*
X136671428Y-106006190D01*
X136861904Y-106506190D02*
X136861904Y-106006190D01*
X136980952Y-106006190D01*
X137052380Y-106030000D01*
X137100000Y-106077619D01*
X137123809Y-106125238D01*
X137147619Y-106220476D01*
X137147619Y-106291904D01*
X137123809Y-106387142D01*
X137100000Y-106434761D01*
X137052380Y-106482380D01*
X136980952Y-106506190D01*
X136861904Y-106506190D01*
X137361904Y-106506190D02*
X137361904Y-106006190D01*
X137695238Y-106006190D02*
X137790476Y-106006190D01*
X137838095Y-106030000D01*
X137885714Y-106077619D01*
X137909523Y-106172857D01*
X137909523Y-106339523D01*
X137885714Y-106434761D01*
X137838095Y-106482380D01*
X137790476Y-106506190D01*
X137695238Y-106506190D01*
X137647619Y-106482380D01*
X137600000Y-106434761D01*
X137576190Y-106339523D01*
X137576190Y-106172857D01*
X137600000Y-106077619D01*
X137647619Y-106030000D01*
X137695238Y-106006190D01*
X150489047Y-117600000D02*
X150441428Y-117576190D01*
X150370000Y-117576190D01*
X150298571Y-117600000D01*
X150250952Y-117647619D01*
X150227142Y-117695238D01*
X150203333Y-117790476D01*
X150203333Y-117861904D01*
X150227142Y-117957142D01*
X150250952Y-118004761D01*
X150298571Y-118052380D01*
X150370000Y-118076190D01*
X150417619Y-118076190D01*
X150489047Y-118052380D01*
X150512857Y-118028571D01*
X150512857Y-117861904D01*
X150417619Y-117861904D01*
X150727142Y-118076190D02*
X150727142Y-117576190D01*
X151012857Y-118076190D01*
X151012857Y-117576190D01*
X151250952Y-118076190D02*
X151250952Y-117576190D01*
X151370000Y-117576190D01*
X151441428Y-117600000D01*
X151489047Y-117647619D01*
X151512857Y-117695238D01*
X151536666Y-117790476D01*
X151536666Y-117861904D01*
X151512857Y-117957142D01*
X151489047Y-118004761D01*
X151441428Y-118052380D01*
X151370000Y-118076190D01*
X151250952Y-118076190D01*
X157000952Y-90636190D02*
X157286666Y-90636190D01*
X157143809Y-91136190D02*
X157143809Y-90636190D01*
X157405714Y-90636190D02*
X157739047Y-91136190D01*
X157739047Y-90636190D02*
X157405714Y-91136190D01*
X157881904Y-90636190D02*
X158191428Y-90636190D01*
X158024761Y-90826666D01*
X158096190Y-90826666D01*
X158143809Y-90850476D01*
X158167619Y-90874285D01*
X158191428Y-90921904D01*
X158191428Y-91040952D01*
X158167619Y-91088571D01*
X158143809Y-91112380D01*
X158096190Y-91136190D01*
X157953333Y-91136190D01*
X157905714Y-91112380D01*
X157881904Y-91088571D01*
X160838571Y-92086190D02*
X160671904Y-91848095D01*
X160552857Y-92086190D02*
X160552857Y-91586190D01*
X160743333Y-91586190D01*
X160790952Y-91610000D01*
X160814761Y-91633809D01*
X160838571Y-91681428D01*
X160838571Y-91752857D01*
X160814761Y-91800476D01*
X160790952Y-91824285D01*
X160743333Y-91848095D01*
X160552857Y-91848095D01*
X161005238Y-91586190D02*
X161338571Y-92086190D01*
X161338571Y-91586190D02*
X161005238Y-92086190D01*
X161790952Y-92086190D02*
X161505238Y-92086190D01*
X161648095Y-92086190D02*
X161648095Y-91586190D01*
X161600476Y-91657619D01*
X161552857Y-91705238D01*
X161505238Y-91729047D01*
X132083333Y-101656190D02*
X132392857Y-101656190D01*
X132226190Y-101846666D01*
X132297619Y-101846666D01*
X132345238Y-101870476D01*
X132369047Y-101894285D01*
X132392857Y-101941904D01*
X132392857Y-102060952D01*
X132369047Y-102108571D01*
X132345238Y-102132380D01*
X132297619Y-102156190D01*
X132154761Y-102156190D01*
X132107142Y-102132380D01*
X132083333Y-102108571D01*
X150083809Y-115476190D02*
X150083809Y-114976190D01*
X150250476Y-115333333D01*
X150417142Y-114976190D01*
X150417142Y-115476190D01*
X150631428Y-115333333D02*
X150869523Y-115333333D01*
X150583809Y-115476190D02*
X150750476Y-114976190D01*
X150917142Y-115476190D01*
X151083809Y-115476190D02*
X151083809Y-114976190D01*
X151321904Y-115476190D02*
X151321904Y-114976190D01*
X151607619Y-115476190D01*
X151607619Y-114976190D01*
X152226666Y-115476190D02*
X152226666Y-114976190D01*
X152417142Y-114976190D01*
X152464761Y-115000000D01*
X152488571Y-115023809D01*
X152512380Y-115071428D01*
X152512380Y-115142857D01*
X152488571Y-115190476D01*
X152464761Y-115214285D01*
X152417142Y-115238095D01*
X152226666Y-115238095D01*
X152821904Y-114976190D02*
X152917142Y-114976190D01*
X152964761Y-115000000D01*
X153012380Y-115047619D01*
X153036190Y-115142857D01*
X153036190Y-115309523D01*
X153012380Y-115404761D01*
X152964761Y-115452380D01*
X152917142Y-115476190D01*
X152821904Y-115476190D01*
X152774285Y-115452380D01*
X152726666Y-115404761D01*
X152702857Y-115309523D01*
X152702857Y-115142857D01*
X152726666Y-115047619D01*
X152774285Y-115000000D01*
X152821904Y-114976190D01*
X153202857Y-114976190D02*
X153321904Y-115476190D01*
X153417142Y-115119047D01*
X153512380Y-115476190D01*
X153631428Y-114976190D01*
X153821904Y-115214285D02*
X153988571Y-115214285D01*
X154060000Y-115476190D02*
X153821904Y-115476190D01*
X153821904Y-114976190D01*
X154060000Y-114976190D01*
X154560000Y-115476190D02*
X154393333Y-115238095D01*
X154274285Y-115476190D02*
X154274285Y-114976190D01*
X154464761Y-114976190D01*
X154512380Y-115000000D01*
X154536190Y-115023809D01*
X154560000Y-115071428D01*
X154560000Y-115142857D01*
X154536190Y-115190476D01*
X154512380Y-115214285D01*
X154464761Y-115238095D01*
X154274285Y-115238095D01*
X132375238Y-103432857D02*
X132375238Y-103766190D01*
X132256190Y-103242380D02*
X132137142Y-103599523D01*
X132446666Y-103599523D01*
X128320000Y-104705714D02*
X128700952Y-104705714D01*
X129700952Y-104705714D02*
X130081904Y-104705714D01*
X129891428Y-104896190D02*
X129891428Y-104515238D01*
X131058095Y-104872380D02*
X131129523Y-104896190D01*
X131248571Y-104896190D01*
X131296190Y-104872380D01*
X131320000Y-104848571D01*
X131343809Y-104800952D01*
X131343809Y-104753333D01*
X131320000Y-104705714D01*
X131296190Y-104681904D01*
X131248571Y-104658095D01*
X131153333Y-104634285D01*
X131105714Y-104610476D01*
X131081904Y-104586666D01*
X131058095Y-104539047D01*
X131058095Y-104491428D01*
X131081904Y-104443809D01*
X131105714Y-104420000D01*
X131153333Y-104396190D01*
X131272380Y-104396190D01*
X131343809Y-104420000D01*
X144684761Y-110640000D02*
X144637142Y-110616190D01*
X144565714Y-110616190D01*
X144494285Y-110640000D01*
X144446666Y-110687619D01*
X144422857Y-110735238D01*
X144399047Y-110830476D01*
X144399047Y-110901904D01*
X144422857Y-110997142D01*
X144446666Y-111044761D01*
X144494285Y-111092380D01*
X144565714Y-111116190D01*
X144613333Y-111116190D01*
X144684761Y-111092380D01*
X144708571Y-111068571D01*
X144708571Y-110901904D01*
X144613333Y-110901904D01*
X145018095Y-110878095D02*
X145018095Y-111116190D01*
X144851428Y-110616190D02*
X145018095Y-110878095D01*
X145184761Y-110616190D01*
X145637142Y-111116190D02*
X145470476Y-110878095D01*
X145351428Y-111116190D02*
X145351428Y-110616190D01*
X145541904Y-110616190D01*
X145589523Y-110640000D01*
X145613333Y-110663809D01*
X145637142Y-110711428D01*
X145637142Y-110782857D01*
X145613333Y-110830476D01*
X145589523Y-110854285D01*
X145541904Y-110878095D01*
X145351428Y-110878095D01*
X145946666Y-110616190D02*
X146041904Y-110616190D01*
X146089523Y-110640000D01*
X146137142Y-110687619D01*
X146160952Y-110782857D01*
X146160952Y-110949523D01*
X146137142Y-111044761D01*
X146089523Y-111092380D01*
X146041904Y-111116190D01*
X145946666Y-111116190D01*
X145899047Y-111092380D01*
X145851428Y-111044761D01*
X145827619Y-110949523D01*
X145827619Y-110782857D01*
X145851428Y-110687619D01*
X145899047Y-110640000D01*
X145946666Y-110616190D01*
X157308571Y-92146190D02*
X157141904Y-91908095D01*
X157022857Y-92146190D02*
X157022857Y-91646190D01*
X157213333Y-91646190D01*
X157260952Y-91670000D01*
X157284761Y-91693809D01*
X157308571Y-91741428D01*
X157308571Y-91812857D01*
X157284761Y-91860476D01*
X157260952Y-91884285D01*
X157213333Y-91908095D01*
X157022857Y-91908095D01*
X157475238Y-91646190D02*
X157808571Y-92146190D01*
X157808571Y-91646190D02*
X157475238Y-92146190D01*
X157951428Y-91646190D02*
X158260952Y-91646190D01*
X158094285Y-91836666D01*
X158165714Y-91836666D01*
X158213333Y-91860476D01*
X158237142Y-91884285D01*
X158260952Y-91931904D01*
X158260952Y-92050952D01*
X158237142Y-92098571D01*
X158213333Y-92122380D01*
X158165714Y-92146190D01*
X158022857Y-92146190D01*
X157975238Y-92122380D01*
X157951428Y-92098571D01*
X160370952Y-97416190D02*
X160656666Y-97416190D01*
X160513809Y-97916190D02*
X160513809Y-97416190D01*
X160775714Y-97416190D02*
X161109047Y-97916190D01*
X161109047Y-97416190D02*
X160775714Y-97916190D01*
X161513809Y-97416190D02*
X161418571Y-97416190D01*
X161370952Y-97440000D01*
X161347142Y-97463809D01*
X161299523Y-97535238D01*
X161275714Y-97630476D01*
X161275714Y-97820952D01*
X161299523Y-97868571D01*
X161323333Y-97892380D01*
X161370952Y-97916190D01*
X161466190Y-97916190D01*
X161513809Y-97892380D01*
X161537619Y-97868571D01*
X161561428Y-97820952D01*
X161561428Y-97701904D01*
X161537619Y-97654285D01*
X161513809Y-97630476D01*
X161466190Y-97606666D01*
X161370952Y-97606666D01*
X161323333Y-97630476D01*
X161299523Y-97654285D01*
X161275714Y-97701904D01*
X132107142Y-100183809D02*
X132130952Y-100160000D01*
X132178571Y-100136190D01*
X132297619Y-100136190D01*
X132345238Y-100160000D01*
X132369047Y-100183809D01*
X132392857Y-100231428D01*
X132392857Y-100279047D01*
X132369047Y-100350476D01*
X132083333Y-100636190D01*
X132392857Y-100636190D01*
X135779523Y-109052380D02*
X135850952Y-109076190D01*
X135970000Y-109076190D01*
X136017619Y-109052380D01*
X136041428Y-109028571D01*
X136065238Y-108980952D01*
X136065238Y-108933333D01*
X136041428Y-108885714D01*
X136017619Y-108861904D01*
X135970000Y-108838095D01*
X135874761Y-108814285D01*
X135827142Y-108790476D01*
X135803333Y-108766666D01*
X135779523Y-108719047D01*
X135779523Y-108671428D01*
X135803333Y-108623809D01*
X135827142Y-108600000D01*
X135874761Y-108576190D01*
X135993809Y-108576190D01*
X136065238Y-108600000D01*
X136231904Y-108576190D02*
X136350952Y-109076190D01*
X136446190Y-108719047D01*
X136541428Y-109076190D01*
X136660476Y-108576190D01*
X136946190Y-108576190D02*
X137041428Y-108576190D01*
X137089047Y-108600000D01*
X137136666Y-108647619D01*
X137160476Y-108742857D01*
X137160476Y-108909523D01*
X137136666Y-109004761D01*
X137089047Y-109052380D01*
X137041428Y-109076190D01*
X136946190Y-109076190D01*
X136898571Y-109052380D01*
X136850952Y-109004761D01*
X136827142Y-108909523D01*
X136827142Y-108742857D01*
X136850952Y-108647619D01*
X136898571Y-108600000D01*
X136946190Y-108576190D01*
X159049047Y-96736190D02*
X158882380Y-96498095D01*
X158763333Y-96736190D02*
X158763333Y-96236190D01*
X158953809Y-96236190D01*
X159001428Y-96260000D01*
X159025238Y-96283809D01*
X159049047Y-96331428D01*
X159049047Y-96402857D01*
X159025238Y-96450476D01*
X159001428Y-96474285D01*
X158953809Y-96498095D01*
X158763333Y-96498095D01*
X159215714Y-96236190D02*
X159549047Y-96736190D01*
X159549047Y-96236190D02*
X159215714Y-96736190D01*
X159953809Y-96236190D02*
X159858571Y-96236190D01*
X159810952Y-96260000D01*
X159787142Y-96283809D01*
X159739523Y-96355238D01*
X159715714Y-96450476D01*
X159715714Y-96640952D01*
X159739523Y-96688571D01*
X159763333Y-96712380D01*
X159810952Y-96736190D01*
X159906190Y-96736190D01*
X159953809Y-96712380D01*
X159977619Y-96688571D01*
X160001428Y-96640952D01*
X160001428Y-96521904D01*
X159977619Y-96474285D01*
X159953809Y-96450476D01*
X159906190Y-96426666D01*
X159810952Y-96426666D01*
X159763333Y-96450476D01*
X159739523Y-96474285D01*
X159715714Y-96521904D01*
X160215714Y-96545714D02*
X160596666Y-96545714D01*
X161120476Y-96736190D02*
X160953809Y-96498095D01*
X160834761Y-96736190D02*
X160834761Y-96236190D01*
X161025238Y-96236190D01*
X161072857Y-96260000D01*
X161096666Y-96283809D01*
X161120476Y-96331428D01*
X161120476Y-96402857D01*
X161096666Y-96450476D01*
X161072857Y-96474285D01*
X161025238Y-96498095D01*
X160834761Y-96498095D01*
X161620476Y-96688571D02*
X161596666Y-96712380D01*
X161525238Y-96736190D01*
X161477619Y-96736190D01*
X161406190Y-96712380D01*
X161358571Y-96664761D01*
X161334761Y-96617142D01*
X161310952Y-96521904D01*
X161310952Y-96450476D01*
X161334761Y-96355238D01*
X161358571Y-96307619D01*
X161406190Y-96260000D01*
X161477619Y-96236190D01*
X161525238Y-96236190D01*
X161596666Y-96260000D01*
X161620476Y-96283809D01*
X135728571Y-111576190D02*
X135728571Y-111076190D01*
X136014285Y-111576190D01*
X136014285Y-111076190D01*
X136538095Y-111576190D02*
X136371428Y-111338095D01*
X136252380Y-111576190D02*
X136252380Y-111076190D01*
X136442857Y-111076190D01*
X136490476Y-111100000D01*
X136514285Y-111123809D01*
X136538095Y-111171428D01*
X136538095Y-111242857D01*
X136514285Y-111290476D01*
X136490476Y-111314285D01*
X136442857Y-111338095D01*
X136252380Y-111338095D01*
X136728571Y-111552380D02*
X136800000Y-111576190D01*
X136919047Y-111576190D01*
X136966666Y-111552380D01*
X136990476Y-111528571D01*
X137014285Y-111480952D01*
X137014285Y-111433333D01*
X136990476Y-111385714D01*
X136966666Y-111361904D01*
X136919047Y-111338095D01*
X136823809Y-111314285D01*
X136776190Y-111290476D01*
X136752380Y-111266666D01*
X136728571Y-111219047D01*
X136728571Y-111171428D01*
X136752380Y-111123809D01*
X136776190Y-111100000D01*
X136823809Y-111076190D01*
X136942857Y-111076190D01*
X137014285Y-111100000D01*
X137157142Y-111076190D02*
X137442857Y-111076190D01*
X137300000Y-111576190D02*
X137300000Y-111076190D01*
X132442857Y-99006190D02*
X132157142Y-99006190D01*
X132300000Y-99006190D02*
X132300000Y-98506190D01*
X132252380Y-98577619D01*
X132204761Y-98625238D01*
X132157142Y-98649047D01*
X152301904Y-88682380D02*
X152373333Y-88706190D01*
X152492380Y-88706190D01*
X152540000Y-88682380D01*
X152563809Y-88658571D01*
X152587619Y-88610952D01*
X152587619Y-88563333D01*
X152563809Y-88515714D01*
X152540000Y-88491904D01*
X152492380Y-88468095D01*
X152397142Y-88444285D01*
X152349523Y-88420476D01*
X152325714Y-88396666D01*
X152301904Y-88349047D01*
X152301904Y-88301428D01*
X152325714Y-88253809D01*
X152349523Y-88230000D01*
X152397142Y-88206190D01*
X152516190Y-88206190D01*
X152587619Y-88230000D01*
X152730476Y-88206190D02*
X153016190Y-88206190D01*
X152873333Y-88706190D02*
X152873333Y-88206190D01*
X153159047Y-88563333D02*
X153397142Y-88563333D01*
X153111428Y-88706190D02*
X153278095Y-88206190D01*
X153444761Y-88706190D01*
X153540000Y-88206190D02*
X153825714Y-88206190D01*
X153682857Y-88706190D02*
X153682857Y-88206190D01*
X153992380Y-88206190D02*
X153992380Y-88610952D01*
X154016190Y-88658571D01*
X154040000Y-88682380D01*
X154087619Y-88706190D01*
X154182857Y-88706190D01*
X154230476Y-88682380D01*
X154254285Y-88658571D01*
X154278095Y-88610952D01*
X154278095Y-88206190D01*
X154492380Y-88682380D02*
X154563809Y-88706190D01*
X154682857Y-88706190D01*
X154730476Y-88682380D01*
X154754285Y-88658571D01*
X154778095Y-88610952D01*
X154778095Y-88563333D01*
X154754285Y-88515714D01*
X154730476Y-88491904D01*
X154682857Y-88468095D01*
X154587619Y-88444285D01*
X154540000Y-88420476D01*
X154516190Y-88396666D01*
X154492380Y-88349047D01*
X154492380Y-88301428D01*
X154516190Y-88253809D01*
X154540000Y-88230000D01*
X154587619Y-88206190D01*
X154706666Y-88206190D01*
X154778095Y-88230000D01*
D11*
%TO.C,J208*%
X130205000Y-102765000D02*
X128330000Y-102765000D01*
X130890000Y-102765000D02*
X131575000Y-102765000D01*
X128330000Y-103854493D02*
X128330000Y-104155000D01*
X128330000Y-102765000D02*
X128330000Y-103065507D01*
X130205000Y-104068276D02*
X130205000Y-104155000D01*
X131575000Y-102765000D02*
X131575000Y-103460000D01*
X130205000Y-104155000D02*
X128330000Y-104155000D01*
X130205000Y-102765000D02*
X130205000Y-102851724D01*
%TO.C,C8*%
X144867836Y-106870000D02*
X144652164Y-106870000D01*
X144867836Y-106150000D02*
X144652164Y-106150000D01*
%TO.C,C5*%
X156740000Y-94877836D02*
X156740000Y-94662164D01*
X156020000Y-94877836D02*
X156020000Y-94662164D01*
%TO.C,R1*%
X148680000Y-89583641D02*
X148680000Y-89276359D01*
X149440000Y-89583641D02*
X149440000Y-89276359D01*
%TO.C,VR101*%
X163370000Y-102660000D02*
X162110000Y-102660000D01*
X156550000Y-102660000D02*
X157810000Y-102660000D01*
X163370000Y-106420000D02*
X163370000Y-102660000D01*
X156550000Y-108670000D02*
X156550000Y-102660000D01*
%TO.C,C6*%
X144412164Y-91960000D02*
X144627836Y-91960000D01*
X144412164Y-91240000D02*
X144627836Y-91240000D01*
%TO.C,C12*%
X136502164Y-100970000D02*
X136717836Y-100970000D01*
X136502164Y-101690000D02*
X136717836Y-101690000D01*
%TO.C,C4*%
X153590164Y-105762000D02*
X153805836Y-105762000D01*
X153590164Y-105042000D02*
X153805836Y-105042000D01*
%TO.C,C317*%
X148710000Y-115402164D02*
X148710000Y-115617836D01*
X149430000Y-115402164D02*
X149430000Y-115617836D01*
%TO.C,Y1*%
X138750000Y-97030000D02*
X134750000Y-97030000D01*
X138750000Y-100330000D02*
X138750000Y-97030000D01*
%TO.C,J210*%
X163315000Y-92125000D02*
X163315000Y-90250000D01*
X162011724Y-92125000D02*
X161925000Y-92125000D01*
X161925000Y-92125000D02*
X161925000Y-90250000D01*
X163315000Y-92810000D02*
X163315000Y-93495000D01*
X163315000Y-92125000D02*
X163228276Y-92125000D01*
X163315000Y-93495000D02*
X162620000Y-93495000D01*
X162225507Y-90250000D02*
X161925000Y-90250000D01*
X163315000Y-90250000D02*
X163014493Y-90250000D01*
%TO.C,J202*%
X151040000Y-117014493D02*
X151040000Y-117315000D01*
X152600000Y-115925000D02*
X153285000Y-115925000D01*
X151915000Y-115925000D02*
X151915000Y-116011724D01*
X151915000Y-115925000D02*
X151040000Y-115925000D01*
X153285000Y-115925000D02*
X153285000Y-116620000D01*
X151040000Y-115925000D02*
X151040000Y-116225507D01*
X151915000Y-117228276D02*
X151915000Y-117315000D01*
X151915000Y-117315000D02*
X151040000Y-117315000D01*
D12*
%TO.C,U303*%
X143550000Y-112120000D02*
X144075000Y-112120000D01*
X147850000Y-116420000D02*
X147850000Y-115895000D01*
X147850000Y-116420000D02*
X147325000Y-116420000D01*
X143550000Y-112120000D02*
X143550000Y-112645000D01*
X147850000Y-112120000D02*
X147850000Y-112645000D01*
X143550000Y-116420000D02*
X144075000Y-116420000D01*
X143550000Y-116420000D02*
X143550000Y-115895000D01*
D11*
%TO.C,J201*%
X144260000Y-83162500D02*
X144260000Y-83412500D01*
X136460000Y-85712500D02*
X136460000Y-87562500D01*
X144260000Y-85712500D02*
X144260000Y-87562500D01*
X142060000Y-88112500D02*
X142060000Y-87662500D01*
X142060000Y-88112500D02*
X141610000Y-88112500D01*
X136460000Y-87562500D02*
X136910000Y-87562500D01*
X144260000Y-87562500D02*
X143810000Y-87562500D01*
X136460000Y-83162500D02*
X136460000Y-83412500D01*
%TO.C,C316*%
X141580000Y-114712164D02*
X141580000Y-114927836D01*
X142300000Y-114712164D02*
X142300000Y-114927836D01*
%TO.C,C1*%
X151466500Y-107399420D02*
X151466500Y-107680580D01*
X152486500Y-107399420D02*
X152486500Y-107680580D01*
%TO.C,J204*%
X131100000Y-97060000D02*
X131100000Y-95960000D01*
X132193553Y-91200000D02*
X131840000Y-91450000D01*
X128110000Y-90910000D02*
X128110000Y-95990000D01*
X131100000Y-89840000D02*
X131100000Y-90940000D01*
X132193553Y-91700000D02*
X132193553Y-91200000D01*
X131100000Y-90940000D02*
X131340000Y-90940000D01*
X129980000Y-89840000D02*
X131100000Y-89840000D01*
X131840000Y-91450000D02*
X132193553Y-91700000D01*
X129980000Y-97060000D02*
X131100000Y-97060000D01*
%TO.C,C9*%
X139080000Y-103502164D02*
X139080000Y-103717836D01*
X139800000Y-103502164D02*
X139800000Y-103717836D01*
%TO.C,D102*%
X163210000Y-110845000D02*
X160925000Y-110845000D01*
X160925000Y-110845000D02*
X160925000Y-112315000D01*
X160925000Y-112315000D02*
X163210000Y-112315000D01*
%TO.C,J207*%
X130205000Y-101225000D02*
X128330000Y-101225000D01*
X128330000Y-102314493D02*
X128330000Y-102615000D01*
X131575000Y-101225000D02*
X131575000Y-101920000D01*
X130205000Y-102528276D02*
X130205000Y-102615000D01*
X128330000Y-101225000D02*
X128330000Y-101525507D01*
X130205000Y-101225000D02*
X130205000Y-101311724D01*
X130890000Y-101225000D02*
X131575000Y-101225000D01*
X130205000Y-102615000D02*
X128330000Y-102615000D01*
%TO.C,R3*%
X157542500Y-85652742D02*
X157542500Y-86127258D01*
X156497500Y-85652742D02*
X156497500Y-86127258D01*
%TO.C,R2*%
X140353641Y-98900000D02*
X140046359Y-98900000D01*
X140353641Y-99660000D02*
X140046359Y-99660000D01*
%TO.C,D1*%
X157875000Y-87645000D02*
X155590000Y-87645000D01*
X157875000Y-89115000D02*
X157875000Y-87645000D01*
X155590000Y-89115000D02*
X157875000Y-89115000D01*
%TO.C,F101*%
X154190000Y-113432779D02*
X154190000Y-113107221D01*
X155210000Y-113432779D02*
X155210000Y-113107221D01*
%TO.C,D101*%
X157700000Y-113710000D02*
X157700000Y-117610000D01*
X155700000Y-113710000D02*
X155700000Y-117610000D01*
X157700000Y-113710000D02*
X155700000Y-113710000D01*
%TO.C,J209*%
X162111724Y-96805000D02*
X162025000Y-96805000D01*
X163415000Y-96805000D02*
X163328276Y-96805000D01*
X162025000Y-96805000D02*
X162025000Y-94930000D01*
X163415000Y-98175000D02*
X162720000Y-98175000D01*
X163415000Y-96805000D02*
X163415000Y-94930000D01*
X162325507Y-94930000D02*
X162025000Y-94930000D01*
X163415000Y-97490000D02*
X163415000Y-98175000D01*
X163415000Y-94930000D02*
X163114493Y-94930000D01*
%TO.C,C10*%
X140140000Y-103482164D02*
X140140000Y-103697836D01*
X140860000Y-103482164D02*
X140860000Y-103697836D01*
%TO.C,FB101*%
X156900378Y-112080000D02*
X157699622Y-112080000D01*
X156900378Y-113200000D02*
X157699622Y-113200000D01*
%TO.C,C11*%
X136787836Y-96580000D02*
X136572164Y-96580000D01*
X136787836Y-95860000D02*
X136572164Y-95860000D01*
%TO.C,J203*%
X130595000Y-112025000D02*
X134125000Y-112025000D01*
X130595000Y-105555000D02*
X130595000Y-105620000D01*
X130595000Y-105555000D02*
X134125000Y-105555000D01*
X130595000Y-111960000D02*
X130595000Y-112025000D01*
X129270000Y-105620000D02*
X130595000Y-105620000D01*
X134125000Y-111960000D02*
X134125000Y-112025000D01*
X134125000Y-105555000D02*
X134125000Y-105620000D01*
%TO.C,J206*%
X130205000Y-101065000D02*
X128330000Y-101065000D01*
X130890000Y-99675000D02*
X131575000Y-99675000D01*
X128330000Y-99675000D02*
X128330000Y-99975507D01*
X130205000Y-99675000D02*
X130205000Y-99761724D01*
X130205000Y-99675000D02*
X128330000Y-99675000D01*
X128330000Y-100764493D02*
X128330000Y-101065000D01*
X130205000Y-100978276D02*
X130205000Y-101065000D01*
X131575000Y-99675000D02*
X131575000Y-100370000D01*
%TO.C,C3*%
X154150000Y-92870580D02*
X154150000Y-92589420D01*
X155170000Y-92870580D02*
X155170000Y-92589420D01*
%TO.C,C2*%
X144529420Y-90790000D02*
X144810580Y-90790000D01*
X144529420Y-89770000D02*
X144810580Y-89770000D01*
%TO.C,C7*%
X140537836Y-95650000D02*
X140322164Y-95650000D01*
X140537836Y-94930000D02*
X140322164Y-94930000D01*
%TO.C,C315*%
X144802164Y-117150000D02*
X145017836Y-117150000D01*
X144802164Y-117870000D02*
X145017836Y-117870000D01*
%TO.C,J211*%
X159614493Y-93480000D02*
X159915000Y-93480000D01*
X158525000Y-90235000D02*
X159220000Y-90235000D01*
X159915000Y-91605000D02*
X159915000Y-93480000D01*
X158525000Y-91605000D02*
X158611724Y-91605000D01*
X158525000Y-91605000D02*
X158525000Y-93480000D01*
X159828276Y-91605000D02*
X159915000Y-91605000D01*
X158525000Y-90920000D02*
X158525000Y-90235000D01*
X158525000Y-93480000D02*
X158825507Y-93480000D01*
%TO.C,J205*%
X130205000Y-98135000D02*
X130205000Y-98221724D01*
X130205000Y-99525000D02*
X128330000Y-99525000D01*
X128330000Y-98135000D02*
X128330000Y-98435507D01*
X130205000Y-98135000D02*
X128330000Y-98135000D01*
X131575000Y-98135000D02*
X131575000Y-98830000D01*
X130890000Y-98135000D02*
X131575000Y-98135000D01*
X128330000Y-99224493D02*
X128330000Y-99525000D01*
X130205000Y-99438276D02*
X130205000Y-99525000D01*
%TO.C,C101*%
X157511252Y-111390000D02*
X156088748Y-111390000D01*
X157511252Y-109570000D02*
X156088748Y-109570000D01*
%TO.C,U1*%
X143300000Y-104140000D02*
X143300000Y-103190000D01*
X153520000Y-93920000D02*
X153520000Y-94870000D01*
X144250000Y-93920000D02*
X143300000Y-93920000D01*
X143300000Y-93920000D02*
X143300000Y-94870000D01*
X143300000Y-94870000D02*
X141960000Y-94870000D01*
X152570000Y-93920000D02*
X153520000Y-93920000D01*
X144250000Y-104140000D02*
X143300000Y-104140000D01*
X153520000Y-104140000D02*
X153520000Y-103190000D01*
X152570000Y-104140000D02*
X153520000Y-104140000D01*
%TO.C,SW1*%
X149890000Y-86305000D02*
X149890000Y-86005000D01*
X149890000Y-83505000D02*
X149890000Y-83805000D01*
X153190000Y-86305000D02*
X149890000Y-86305000D01*
X153190000Y-86005000D02*
X153190000Y-86305000D01*
X153190000Y-83805000D02*
X153190000Y-83505000D01*
X153190000Y-83505000D02*
X149890000Y-83505000D01*
%TO.C,R101*%
X159547500Y-110602742D02*
X159547500Y-111077258D01*
X160592500Y-110602742D02*
X160592500Y-111077258D01*
%TD*%
M02*
