%TF.GenerationSoftware,KiCad,Pcbnew,(6.0.5)*%
%TF.CreationDate,2022-07-12T20:22:36+02:00*%
%TF.ProjectId,DroneHardware,44726f6e-6548-4617-9264-776172652e6b,rev?*%
%TF.SameCoordinates,Original*%
%TF.FileFunction,Legend,Top*%
%TF.FilePolarity,Positive*%
%FSLAX46Y46*%
G04 Gerber Fmt 4.6, Leading zero omitted, Abs format (unit mm)*
G04 Created by KiCad (PCBNEW (6.0.5)) date 2022-07-12 20:22:36*
%MOMM*%
%LPD*%
G01*
G04 APERTURE LIST*
%ADD10C,0.120000*%
%ADD11C,0.150000*%
G04 APERTURE END LIST*
D10*
%TO.C,J204*%
X131100000Y-90940000D02*
X131340000Y-90940000D01*
X129980000Y-97060000D02*
X131100000Y-97060000D01*
X132193553Y-91700000D02*
X132193553Y-91200000D01*
X131100000Y-97060000D02*
X131100000Y-95960000D01*
X131840000Y-91450000D02*
X132193553Y-91700000D01*
X129980000Y-89840000D02*
X131100000Y-89840000D01*
X132193553Y-91200000D02*
X131840000Y-91450000D01*
X128110000Y-90910000D02*
X128110000Y-95990000D01*
X131100000Y-89840000D02*
X131100000Y-90940000D01*
%TO.C,C8*%
X144867836Y-106870000D02*
X144652164Y-106870000D01*
X144867836Y-106150000D02*
X144652164Y-106150000D01*
%TO.C,C5*%
X156740000Y-94877836D02*
X156740000Y-94662164D01*
X156020000Y-94877836D02*
X156020000Y-94662164D01*
%TO.C,R1*%
X148680000Y-89583641D02*
X148680000Y-89276359D01*
X149440000Y-89583641D02*
X149440000Y-89276359D01*
%TO.C,VR101*%
X163370000Y-102660000D02*
X162110000Y-102660000D01*
X156550000Y-102660000D02*
X157810000Y-102660000D01*
X163370000Y-106420000D02*
X163370000Y-102660000D01*
X156550000Y-108670000D02*
X156550000Y-102660000D01*
%TO.C,C6*%
X144412164Y-91960000D02*
X144627836Y-91960000D01*
X144412164Y-91240000D02*
X144627836Y-91240000D01*
%TO.C,C12*%
X136502164Y-100970000D02*
X136717836Y-100970000D01*
X136502164Y-101690000D02*
X136717836Y-101690000D01*
%TO.C,C4*%
X153590164Y-105762000D02*
X153805836Y-105762000D01*
X153590164Y-105042000D02*
X153805836Y-105042000D01*
%TO.C,C317*%
X148710000Y-115402164D02*
X148710000Y-115617836D01*
X149430000Y-115402164D02*
X149430000Y-115617836D01*
%TO.C,Y1*%
X138750000Y-97030000D02*
X134750000Y-97030000D01*
X138750000Y-100330000D02*
X138750000Y-97030000D01*
%TO.C,J202*%
X151915000Y-117315000D02*
X151040000Y-117315000D01*
X151915000Y-117228276D02*
X151915000Y-117315000D01*
X151040000Y-115925000D02*
X151040000Y-116225507D01*
X153285000Y-115925000D02*
X153285000Y-116620000D01*
X151915000Y-115925000D02*
X151040000Y-115925000D01*
X151915000Y-115925000D02*
X151915000Y-116011724D01*
X152600000Y-115925000D02*
X153285000Y-115925000D01*
X151040000Y-117014493D02*
X151040000Y-117315000D01*
D11*
%TO.C,U303*%
X143550000Y-112120000D02*
X144075000Y-112120000D01*
X147850000Y-116420000D02*
X147850000Y-115895000D01*
X147850000Y-116420000D02*
X147325000Y-116420000D01*
X143550000Y-112120000D02*
X143550000Y-112645000D01*
X147850000Y-112120000D02*
X147850000Y-112645000D01*
X143550000Y-116420000D02*
X144075000Y-116420000D01*
X143550000Y-116420000D02*
X143550000Y-115895000D01*
D10*
%TO.C,J201*%
X136460000Y-83162500D02*
X136460000Y-83412500D01*
X144260000Y-87562500D02*
X143810000Y-87562500D01*
X136460000Y-87562500D02*
X136910000Y-87562500D01*
X142060000Y-88112500D02*
X141610000Y-88112500D01*
X142060000Y-88112500D02*
X142060000Y-87662500D01*
X144260000Y-85712500D02*
X144260000Y-87562500D01*
X136460000Y-85712500D02*
X136460000Y-87562500D01*
X144260000Y-83162500D02*
X144260000Y-83412500D01*
%TO.C,C316*%
X141580000Y-114712164D02*
X141580000Y-114927836D01*
X142300000Y-114712164D02*
X142300000Y-114927836D01*
%TO.C,C1*%
X151466500Y-107399420D02*
X151466500Y-107680580D01*
X152486500Y-107399420D02*
X152486500Y-107680580D01*
%TO.C,C9*%
X139080000Y-103502164D02*
X139080000Y-103717836D01*
X139800000Y-103502164D02*
X139800000Y-103717836D01*
%TO.C,D102*%
X163210000Y-110845000D02*
X160925000Y-110845000D01*
X160925000Y-110845000D02*
X160925000Y-112315000D01*
X160925000Y-112315000D02*
X163210000Y-112315000D01*
%TO.C,R3*%
X157542500Y-85652742D02*
X157542500Y-86127258D01*
X156497500Y-85652742D02*
X156497500Y-86127258D01*
%TO.C,R2*%
X140353641Y-98900000D02*
X140046359Y-98900000D01*
X140353641Y-99660000D02*
X140046359Y-99660000D01*
%TO.C,D1*%
X157875000Y-87645000D02*
X155590000Y-87645000D01*
X157875000Y-89115000D02*
X157875000Y-87645000D01*
X155590000Y-89115000D02*
X157875000Y-89115000D01*
%TO.C,F101*%
X154190000Y-113432779D02*
X154190000Y-113107221D01*
X155210000Y-113432779D02*
X155210000Y-113107221D01*
%TO.C,D101*%
X157700000Y-113710000D02*
X157700000Y-117610000D01*
X155700000Y-113710000D02*
X155700000Y-117610000D01*
X157700000Y-113710000D02*
X155700000Y-113710000D01*
%TO.C,C10*%
X140140000Y-103482164D02*
X140140000Y-103697836D01*
X140860000Y-103482164D02*
X140860000Y-103697836D01*
%TO.C,FB101*%
X156900378Y-112080000D02*
X157699622Y-112080000D01*
X156900378Y-113200000D02*
X157699622Y-113200000D01*
%TO.C,C11*%
X136787836Y-96580000D02*
X136572164Y-96580000D01*
X136787836Y-95860000D02*
X136572164Y-95860000D01*
%TO.C,J203*%
X134125000Y-105555000D02*
X134125000Y-105620000D01*
X134125000Y-111960000D02*
X134125000Y-112025000D01*
X129270000Y-105620000D02*
X130595000Y-105620000D01*
X130595000Y-111960000D02*
X130595000Y-112025000D01*
X130595000Y-105555000D02*
X134125000Y-105555000D01*
X130595000Y-105555000D02*
X130595000Y-105620000D01*
X130595000Y-112025000D02*
X134125000Y-112025000D01*
%TO.C,C3*%
X154150000Y-92870580D02*
X154150000Y-92589420D01*
X155170000Y-92870580D02*
X155170000Y-92589420D01*
%TO.C,C2*%
X144529420Y-90790000D02*
X144810580Y-90790000D01*
X144529420Y-89770000D02*
X144810580Y-89770000D01*
%TO.C,C7*%
X140537836Y-95650000D02*
X140322164Y-95650000D01*
X140537836Y-94930000D02*
X140322164Y-94930000D01*
%TO.C,C315*%
X144802164Y-117150000D02*
X145017836Y-117150000D01*
X144802164Y-117870000D02*
X145017836Y-117870000D01*
%TO.C,C101*%
X157511252Y-111390000D02*
X156088748Y-111390000D01*
X157511252Y-109570000D02*
X156088748Y-109570000D01*
%TO.C,U1*%
X152570000Y-104140000D02*
X153520000Y-104140000D01*
X153520000Y-104140000D02*
X153520000Y-103190000D01*
X144250000Y-104140000D02*
X143300000Y-104140000D01*
X152570000Y-93920000D02*
X153520000Y-93920000D01*
X143300000Y-94870000D02*
X141960000Y-94870000D01*
X143300000Y-93920000D02*
X143300000Y-94870000D01*
X144250000Y-93920000D02*
X143300000Y-93920000D01*
X153520000Y-93920000D02*
X153520000Y-94870000D01*
X143300000Y-104140000D02*
X143300000Y-103190000D01*
%TO.C,SW1*%
X149890000Y-86305000D02*
X149890000Y-86005000D01*
X149890000Y-83505000D02*
X149890000Y-83805000D01*
X153190000Y-86305000D02*
X149890000Y-86305000D01*
X153190000Y-86005000D02*
X153190000Y-86305000D01*
X153190000Y-83805000D02*
X153190000Y-83505000D01*
X153190000Y-83505000D02*
X149890000Y-83505000D01*
%TO.C,R101*%
X159547500Y-110602742D02*
X159547500Y-111077258D01*
X160592500Y-110602742D02*
X160592500Y-111077258D01*
%TD*%
M02*
