%TF.GenerationSoftware,KiCad,Pcbnew,(6.0.5)*%
%TF.CreationDate,2022-08-01T15:23:18+02:00*%
%TF.ProjectId,DroneHardware,44726f6e-6548-4617-9264-776172652e6b,rev?*%
%TF.SameCoordinates,Original*%
%TF.FileFunction,Copper,L3,Inr*%
%TF.FilePolarity,Positive*%
%FSLAX46Y46*%
G04 Gerber Fmt 4.6, Leading zero omitted, Abs format (unit mm)*
G04 Created by KiCad (PCBNEW (6.0.5)) date 2022-08-01 15:23:18*
%MOMM*%
%LPD*%
G01*
G04 APERTURE LIST*
%TA.AperFunction,ComponentPad*%
%ADD10R,0.850000X0.850000*%
%TD*%
%TA.AperFunction,ComponentPad*%
%ADD11O,0.850000X0.850000*%
%TD*%
%TA.AperFunction,ComponentPad*%
%ADD12O,1.200000X1.900000*%
%TD*%
%TA.AperFunction,ComponentPad*%
%ADD13C,1.450000*%
%TD*%
%TA.AperFunction,ComponentPad*%
%ADD14C,3.200000*%
%TD*%
%TA.AperFunction,ViaPad*%
%ADD15C,0.400000*%
%TD*%
%TA.AperFunction,ViaPad*%
%ADD16C,0.800000*%
%TD*%
G04 APERTURE END LIST*
D10*
%TO.N,PWM4*%
%TO.C,J208*%
X130890000Y-103460000D03*
D11*
%TO.N,+5V*%
X129890000Y-103460000D03*
%TO.N,GND*%
X128890000Y-103460000D03*
%TD*%
D10*
%TO.N,USART1_TX*%
%TO.C,J210*%
X162620000Y-92810000D03*
D11*
%TO.N,USART1_RX*%
X162620000Y-91810000D03*
%TO.N,unconnected-(J210-Pad3)*%
X162620000Y-90810000D03*
%TD*%
D10*
%TO.N,+5V*%
%TO.C,J202*%
X152600000Y-116620000D03*
D11*
%TO.N,GND*%
X151600000Y-116620000D03*
%TD*%
D12*
%TO.N,unconnected-(J201-Pad6)*%
%TO.C,J201*%
X143860000Y-84562500D03*
D13*
X137860000Y-87262500D03*
X142860000Y-87262500D03*
D12*
X136860000Y-84562500D03*
%TD*%
D10*
%TO.N,PWM3*%
%TO.C,J207*%
X130890000Y-101920000D03*
D11*
%TO.N,+5V*%
X129890000Y-101920000D03*
%TO.N,GND*%
X128890000Y-101920000D03*
%TD*%
D10*
%TO.N,USART6_TX*%
%TO.C,J209*%
X162720000Y-97490000D03*
D11*
%TO.N,USART6_RX*%
X162720000Y-96490000D03*
%TO.N,USART6_CK*%
X162720000Y-95490000D03*
%TD*%
D14*
%TO.N,*%
%TO.C,H201*%
X161380000Y-116420000D03*
%TD*%
D10*
%TO.N,PWM2*%
%TO.C,J206*%
X130890000Y-100370000D03*
D11*
%TO.N,+5V*%
X129890000Y-100370000D03*
%TO.N,GND*%
X128890000Y-100370000D03*
%TD*%
D14*
%TO.N,*%
%TO.C,H203*%
X161390000Y-85770000D03*
%TD*%
%TO.N,*%
%TO.C,H204*%
X130590000Y-85690000D03*
%TD*%
D10*
%TO.N,USART3_TX*%
%TO.C,J211*%
X159220000Y-90920000D03*
D11*
%TO.N,USART3_RX*%
X159220000Y-91920000D03*
%TO.N,unconnected-(J211-Pad3)*%
X159220000Y-92920000D03*
%TD*%
D14*
%TO.N,*%
%TO.C,H202*%
X130570000Y-116420000D03*
%TD*%
D10*
%TO.N,PWM1*%
%TO.C,J205*%
X130890000Y-98830000D03*
D11*
%TO.N,+5V*%
X129890000Y-98830000D03*
%TO.N,GND*%
X128890000Y-98830000D03*
%TD*%
D10*
%TO.N,BUCK_IN*%
%TO.C,J101*%
X151560000Y-111440000D03*
%TD*%
%TO.N,GND*%
%TO.C,J102*%
X135710000Y-117410000D03*
D11*
X136710000Y-117410000D03*
X137710000Y-117410000D03*
X138710000Y-117410000D03*
%TD*%
D15*
%TO.N,BUCK_VOUT_3V3*%
X128990000Y-106240000D03*
X156370000Y-95720000D03*
X140920000Y-95860000D03*
X143910000Y-117530000D03*
X145210000Y-107160000D03*
D16*
X153320000Y-86180000D03*
D15*
X143900000Y-89590000D03*
D16*
X162280000Y-106210000D03*
D15*
X143800000Y-92390000D03*
X153228000Y-104862000D03*
X140590000Y-101490000D03*
%TO.N,GND*%
X142880000Y-115080000D03*
X141930000Y-115810000D03*
X139560000Y-94750000D03*
X138241444Y-100411444D03*
X146940000Y-117050000D03*
X152146000Y-109030000D03*
X154168000Y-104892000D03*
X139520000Y-104680000D03*
D16*
X131180000Y-90770000D03*
D15*
X143790000Y-106130000D03*
X145440000Y-89590000D03*
D16*
X154300000Y-110480000D03*
D15*
X145520000Y-91640000D03*
X145870000Y-117500000D03*
X146940000Y-111440000D03*
X138390000Y-88730000D03*
X156720000Y-93750000D03*
X128950000Y-107520000D03*
X149070000Y-116500000D03*
X155360000Y-91890000D03*
X140480000Y-104620000D03*
X134680000Y-96920000D03*
D16*
X159060000Y-99850000D03*
D15*
X141440000Y-100750000D03*
X128940000Y-108780000D03*
D16*
X157040000Y-84200000D03*
D15*
X136210000Y-95500000D03*
X128940000Y-111310000D03*
D16*
X161580000Y-99740000D03*
X159990000Y-106100000D03*
%TO.N,+5V*%
X130280000Y-97690000D03*
D15*
X154460000Y-117590000D03*
X139080000Y-93180000D03*
D16*
X129590000Y-92540000D03*
D15*
X142270000Y-91380000D03*
%TO.N,SWDIO*%
X138210000Y-106240000D03*
X145920000Y-103150000D03*
%TO.N,SWCLK*%
X148330000Y-95200000D03*
X151090000Y-94790000D03*
%TO.N,PWM4*%
X133350000Y-92964000D03*
X141986000Y-103886000D03*
%TO.N,PWM3*%
X142748000Y-106934000D03*
X132842000Y-93980000D03*
%TO.N,USB_D-*%
X152713374Y-98053375D03*
X146830000Y-97065000D03*
%TO.N,USB_D+*%
X151583677Y-97715000D03*
X146830000Y-97715000D03*
%TO.N,PWM1*%
X131826000Y-95504000D03*
X149352000Y-107950000D03*
%TO.N,GYRO_INT_EXTI*%
X148307788Y-106666954D03*
X142890908Y-115679404D03*
%TO.N,USART3_TX*%
X151280000Y-99630000D03*
%TO.N,GYRO_MISO_PIN*%
X147160000Y-107830000D03*
X142380000Y-112750000D03*
%TO.N,GYRO_MOSI_PIN*%
X147709500Y-106705093D03*
X147800000Y-111410000D03*
%TO.N,PWM2*%
X149901500Y-107442000D03*
X132334000Y-94742000D03*
%TO.N,USART3_RX*%
X151660000Y-100330000D03*
%TD*%
%TA.AperFunction,Conductor*%
%TO.N,BUCK_VOUT_3V3*%
G36*
X146488211Y-83579693D02*
G01*
X156128202Y-83584389D01*
X156196312Y-83604424D01*
X156242779Y-83658103D01*
X156252849Y-83728381D01*
X156237259Y-83773389D01*
X156219174Y-83804714D01*
X156205473Y-83828444D01*
X156146458Y-84010072D01*
X156145768Y-84016633D01*
X156145768Y-84016635D01*
X156131486Y-84152521D01*
X156126496Y-84200000D01*
X156146458Y-84389928D01*
X156205473Y-84571556D01*
X156300960Y-84736944D01*
X156305378Y-84741851D01*
X156305379Y-84741852D01*
X156406986Y-84854698D01*
X156428747Y-84878866D01*
X156466913Y-84906595D01*
X156543657Y-84962353D01*
X156583248Y-84991118D01*
X156589276Y-84993802D01*
X156589278Y-84993803D01*
X156660743Y-85025621D01*
X156757712Y-85068794D01*
X156851113Y-85088647D01*
X156938056Y-85107128D01*
X156938061Y-85107128D01*
X156944513Y-85108500D01*
X157135487Y-85108500D01*
X157141939Y-85107128D01*
X157141944Y-85107128D01*
X157228887Y-85088647D01*
X157322288Y-85068794D01*
X157419257Y-85025621D01*
X157490722Y-84993803D01*
X157490724Y-84993802D01*
X157496752Y-84991118D01*
X157536344Y-84962353D01*
X157613087Y-84906595D01*
X157651253Y-84878866D01*
X157673014Y-84854698D01*
X157774621Y-84741852D01*
X157774622Y-84741851D01*
X157779040Y-84736944D01*
X157874527Y-84571556D01*
X157933542Y-84389928D01*
X157953504Y-84200000D01*
X157948514Y-84152521D01*
X157934232Y-84016635D01*
X157934232Y-84016633D01*
X157933542Y-84010072D01*
X157874527Y-83828444D01*
X157867962Y-83817073D01*
X157843255Y-83774279D01*
X157826517Y-83705283D01*
X157849738Y-83638192D01*
X157905545Y-83594305D01*
X157952435Y-83585279D01*
X160518294Y-83586529D01*
X160586405Y-83606564D01*
X160632872Y-83660243D01*
X160642942Y-83730521D01*
X160613417Y-83795088D01*
X160567669Y-83828425D01*
X160527127Y-83845718D01*
X160434476Y-83885237D01*
X160434472Y-83885239D01*
X160430524Y-83886923D01*
X160413565Y-83897073D01*
X160187521Y-84032357D01*
X160187517Y-84032360D01*
X160183839Y-84034561D01*
X159959472Y-84214313D01*
X159761577Y-84422851D01*
X159593814Y-84656317D01*
X159459288Y-84910392D01*
X159360489Y-85180373D01*
X159299245Y-85461264D01*
X159298909Y-85465534D01*
X159278543Y-85724317D01*
X159276689Y-85747869D01*
X159293238Y-86034883D01*
X159294063Y-86039088D01*
X159294064Y-86039096D01*
X159319804Y-86170291D01*
X159348586Y-86316995D01*
X159349973Y-86321045D01*
X159349974Y-86321050D01*
X159436777Y-86574579D01*
X159441710Y-86588986D01*
X159444557Y-86594646D01*
X159559121Y-86822431D01*
X159570885Y-86845822D01*
X159733721Y-87082750D01*
X159927206Y-87295388D01*
X159930501Y-87298143D01*
X159930502Y-87298144D01*
X160097738Y-87437974D01*
X160147759Y-87479798D01*
X160391298Y-87632571D01*
X160653318Y-87750877D01*
X160657437Y-87752097D01*
X160924857Y-87831311D01*
X160924862Y-87831312D01*
X160928970Y-87832529D01*
X160933204Y-87833177D01*
X160933209Y-87833178D01*
X161181811Y-87871219D01*
X161213153Y-87876015D01*
X161359485Y-87878314D01*
X161496317Y-87880464D01*
X161496323Y-87880464D01*
X161500608Y-87880531D01*
X161504860Y-87880016D01*
X161504868Y-87880016D01*
X161781756Y-87846508D01*
X161781761Y-87846507D01*
X161786017Y-87845992D01*
X161961267Y-87800016D01*
X162059954Y-87774126D01*
X162059955Y-87774126D01*
X162064097Y-87773039D01*
X162329704Y-87663021D01*
X162463798Y-87584663D01*
X162574219Y-87520138D01*
X162574220Y-87520137D01*
X162577922Y-87517974D01*
X162804159Y-87340582D01*
X162845285Y-87298144D01*
X163001244Y-87137206D01*
X163004227Y-87134128D01*
X163006760Y-87130680D01*
X163006764Y-87130675D01*
X163171887Y-86905886D01*
X163174425Y-86902431D01*
X163311604Y-86649779D01*
X163312373Y-86647743D01*
X163358584Y-86594516D01*
X163426724Y-86574579D01*
X163494825Y-86594646D01*
X163541267Y-86648346D01*
X163552603Y-86700620D01*
X163551501Y-90121244D01*
X163531477Y-90189358D01*
X163477806Y-90235833D01*
X163407529Y-90245915D01*
X163342958Y-90216401D01*
X163331877Y-90205525D01*
X163248074Y-90112453D01*
X163225491Y-90096045D01*
X163094663Y-90000993D01*
X163094662Y-90000992D01*
X163089321Y-89997112D01*
X163083293Y-89994428D01*
X163083291Y-89994427D01*
X162916087Y-89919983D01*
X162916086Y-89919983D01*
X162910056Y-89917298D01*
X162814086Y-89896899D01*
X162724572Y-89877872D01*
X162724568Y-89877872D01*
X162718115Y-89876500D01*
X162521885Y-89876500D01*
X162515432Y-89877872D01*
X162515428Y-89877872D01*
X162425914Y-89896899D01*
X162329944Y-89917298D01*
X162323914Y-89919983D01*
X162323913Y-89919983D01*
X162156709Y-89994427D01*
X162156707Y-89994428D01*
X162150679Y-89997112D01*
X162145338Y-90000992D01*
X162145337Y-90000993D01*
X162014510Y-90096045D01*
X161991926Y-90112453D01*
X161987505Y-90117363D01*
X161987504Y-90117364D01*
X161868113Y-90249962D01*
X161860623Y-90258280D01*
X161857322Y-90263998D01*
X161776071Y-90404729D01*
X161762508Y-90428220D01*
X161701870Y-90614845D01*
X161701180Y-90621408D01*
X161701180Y-90621409D01*
X161691106Y-90717254D01*
X161681358Y-90810000D01*
X161682048Y-90816565D01*
X161696427Y-90953365D01*
X161701870Y-91005155D01*
X161703910Y-91011433D01*
X161703910Y-91011434D01*
X161715215Y-91046228D01*
X161762508Y-91191780D01*
X161765811Y-91197502D01*
X161765812Y-91197503D01*
X161794389Y-91247000D01*
X161811127Y-91315996D01*
X161794389Y-91373000D01*
X161768398Y-91418019D01*
X161762508Y-91428220D01*
X161756257Y-91447460D01*
X161709389Y-91591705D01*
X161701870Y-91614845D01*
X161701180Y-91621408D01*
X161701180Y-91621409D01*
X161700803Y-91624995D01*
X161681358Y-91810000D01*
X161682048Y-91816565D01*
X161701134Y-91998148D01*
X161701870Y-92005155D01*
X161703911Y-92011436D01*
X161703911Y-92011437D01*
X161731167Y-92095325D01*
X161733194Y-92166292D01*
X161729316Y-92178489D01*
X161696029Y-92267282D01*
X161696027Y-92267288D01*
X161693255Y-92274684D01*
X161686500Y-92336866D01*
X161686500Y-93283134D01*
X161693255Y-93345316D01*
X161744385Y-93481705D01*
X161831739Y-93598261D01*
X161948295Y-93685615D01*
X162084684Y-93736745D01*
X162146866Y-93743500D01*
X163093134Y-93743500D01*
X163155316Y-93736745D01*
X163291705Y-93685615D01*
X163348770Y-93642847D01*
X163415276Y-93617999D01*
X163484659Y-93633052D01*
X163534889Y-93683226D01*
X163550335Y-93743714D01*
X163550188Y-94199709D01*
X163550034Y-94680993D01*
X163550030Y-94692264D01*
X163530006Y-94760378D01*
X163476335Y-94806853D01*
X163406058Y-94816935D01*
X163349525Y-94790455D01*
X163348074Y-94792453D01*
X163194663Y-94680993D01*
X163194662Y-94680992D01*
X163189321Y-94677112D01*
X163183293Y-94674428D01*
X163183291Y-94674427D01*
X163016087Y-94599983D01*
X163016086Y-94599983D01*
X163010056Y-94597298D01*
X162902606Y-94574459D01*
X162824572Y-94557872D01*
X162824568Y-94557872D01*
X162818115Y-94556500D01*
X162621885Y-94556500D01*
X162615432Y-94557872D01*
X162615428Y-94557872D01*
X162537394Y-94574459D01*
X162429944Y-94597298D01*
X162423914Y-94599983D01*
X162423913Y-94599983D01*
X162256709Y-94674427D01*
X162256707Y-94674428D01*
X162250679Y-94677112D01*
X162245338Y-94680992D01*
X162245337Y-94680993D01*
X162100954Y-94785894D01*
X162091926Y-94792453D01*
X162087505Y-94797363D01*
X162087504Y-94797364D01*
X161970598Y-94927202D01*
X161960623Y-94938280D01*
X161909724Y-95026439D01*
X161874884Y-95086785D01*
X161862508Y-95108220D01*
X161860466Y-95114505D01*
X161820333Y-95238023D01*
X161801870Y-95294845D01*
X161801180Y-95301408D01*
X161801180Y-95301409D01*
X161797137Y-95339871D01*
X161781358Y-95490000D01*
X161782048Y-95496565D01*
X161799231Y-95660043D01*
X161801870Y-95685155D01*
X161862508Y-95871780D01*
X161865811Y-95877502D01*
X161865812Y-95877503D01*
X161894389Y-95927000D01*
X161911127Y-95995996D01*
X161894389Y-96053000D01*
X161866174Y-96101871D01*
X161862508Y-96108220D01*
X161801870Y-96294845D01*
X161801180Y-96301408D01*
X161801180Y-96301409D01*
X161791418Y-96394286D01*
X161781358Y-96490000D01*
X161801870Y-96685155D01*
X161803911Y-96691436D01*
X161803911Y-96691437D01*
X161831167Y-96775325D01*
X161833194Y-96846292D01*
X161829316Y-96858489D01*
X161796029Y-96947282D01*
X161796027Y-96947288D01*
X161793255Y-96954684D01*
X161786500Y-97016866D01*
X161786500Y-97963134D01*
X161793255Y-98025316D01*
X161844385Y-98161705D01*
X161931739Y-98278261D01*
X162048295Y-98365615D01*
X162184684Y-98416745D01*
X162246866Y-98423500D01*
X163193134Y-98423500D01*
X163255316Y-98416745D01*
X163378578Y-98370536D01*
X163449386Y-98365353D01*
X163511755Y-98399274D01*
X163545884Y-98461529D01*
X163548808Y-98488557D01*
X163543386Y-115328995D01*
X163543332Y-115495316D01*
X163523308Y-115563430D01*
X163469637Y-115609905D01*
X163399360Y-115619987D01*
X163334789Y-115590473D01*
X163305366Y-115553065D01*
X163189715Y-115328995D01*
X163189715Y-115328994D01*
X163187750Y-115325188D01*
X163174488Y-115306317D01*
X163032807Y-115104727D01*
X163022441Y-115089977D01*
X162935565Y-114996487D01*
X162829661Y-114882521D01*
X162829658Y-114882519D01*
X162826740Y-114879378D01*
X162604268Y-114697287D01*
X162359142Y-114547073D01*
X162341048Y-114539130D01*
X162099830Y-114433243D01*
X162095898Y-114431517D01*
X162069963Y-114424129D01*
X161957652Y-114392136D01*
X161819406Y-114352756D01*
X161606704Y-114322485D01*
X161539036Y-114312854D01*
X161539034Y-114312854D01*
X161534784Y-114312249D01*
X161530495Y-114312227D01*
X161530488Y-114312226D01*
X161251583Y-114310765D01*
X161251576Y-114310765D01*
X161247297Y-114310743D01*
X161243053Y-114311302D01*
X161243049Y-114311302D01*
X161117660Y-114327810D01*
X160962266Y-114348268D01*
X160958126Y-114349401D01*
X160958124Y-114349401D01*
X160881311Y-114370415D01*
X160684964Y-114424129D01*
X160681016Y-114425813D01*
X160424476Y-114535237D01*
X160424472Y-114535239D01*
X160420524Y-114536923D01*
X160319396Y-114597447D01*
X160177521Y-114682357D01*
X160177517Y-114682360D01*
X160173839Y-114684561D01*
X159949472Y-114864313D01*
X159751577Y-115072851D01*
X159583814Y-115306317D01*
X159581805Y-115310112D01*
X159581804Y-115310113D01*
X159577191Y-115318826D01*
X159449288Y-115560392D01*
X159447813Y-115564423D01*
X159360680Y-115802526D01*
X159350489Y-115830373D01*
X159289245Y-116111264D01*
X159287184Y-116137452D01*
X159270857Y-116344915D01*
X159266689Y-116397869D01*
X159283238Y-116684883D01*
X159284063Y-116689088D01*
X159284064Y-116689096D01*
X159311569Y-116829286D01*
X159338586Y-116966995D01*
X159339973Y-116971045D01*
X159339974Y-116971050D01*
X159425692Y-117221409D01*
X159431710Y-117238986D01*
X159453996Y-117283297D01*
X159555440Y-117484995D01*
X159560885Y-117495822D01*
X159723721Y-117732750D01*
X159917206Y-117945388D01*
X159920501Y-117948143D01*
X159920502Y-117948144D01*
X160099575Y-118097871D01*
X160137759Y-118129798D01*
X160381298Y-118282571D01*
X160385211Y-118284338D01*
X160385217Y-118284341D01*
X160426200Y-118302845D01*
X160480055Y-118349107D01*
X160500349Y-118417141D01*
X160480639Y-118485347D01*
X160427184Y-118532070D01*
X160374425Y-118543682D01*
X154569197Y-118547150D01*
X154501065Y-118527189D01*
X154456533Y-118475859D01*
X154431146Y-118515951D01*
X154366764Y-118545876D01*
X154348072Y-118547282D01*
X142139033Y-118554576D01*
X139005162Y-118556448D01*
X138937030Y-118536487D01*
X138890505Y-118482859D01*
X138880359Y-118412591D01*
X138909813Y-118347992D01*
X138969516Y-118309573D01*
X138978890Y-118307201D01*
X138980638Y-118306829D01*
X139000056Y-118302702D01*
X139006087Y-118300017D01*
X139173291Y-118225573D01*
X139173293Y-118225572D01*
X139179321Y-118222888D01*
X139184663Y-118219007D01*
X139332730Y-118111430D01*
X139332732Y-118111428D01*
X139338074Y-118107547D01*
X139346786Y-118097871D01*
X139464958Y-117966628D01*
X139464959Y-117966627D01*
X139469377Y-117961720D01*
X139567492Y-117791780D01*
X139628130Y-117605155D01*
X139629289Y-117594133D01*
X139639968Y-117492526D01*
X145156335Y-117492526D01*
X145161358Y-117538023D01*
X145173109Y-117644459D01*
X145175153Y-117662975D01*
X145177762Y-117670106D01*
X145177763Y-117670108D01*
X145193745Y-117713780D01*
X145234085Y-117824015D01*
X145238322Y-117830321D01*
X145238324Y-117830324D01*
X145276094Y-117886531D01*
X145329730Y-117966349D01*
X145456565Y-118081760D01*
X145607268Y-118163585D01*
X145773139Y-118207101D01*
X145860586Y-118208474D01*
X145937003Y-118209675D01*
X145937006Y-118209675D01*
X145944602Y-118209794D01*
X145952006Y-118208098D01*
X145952008Y-118208098D01*
X146040323Y-118187871D01*
X146111759Y-118171510D01*
X146264958Y-118094459D01*
X146270729Y-118089530D01*
X146270732Y-118089528D01*
X146389578Y-117988023D01*
X146395355Y-117983089D01*
X146495424Y-117843830D01*
X146498255Y-117836787D01*
X146498258Y-117836782D01*
X146519150Y-117784809D01*
X146563116Y-117729064D01*
X146630241Y-117705938D01*
X146677217Y-117713780D01*
X146677268Y-117713585D01*
X146679405Y-117714146D01*
X146679409Y-117714147D01*
X146843139Y-117757101D01*
X146930586Y-117758474D01*
X147007003Y-117759675D01*
X147007006Y-117759675D01*
X147014602Y-117759794D01*
X147022006Y-117758098D01*
X147022008Y-117758098D01*
X147118824Y-117735924D01*
X147181759Y-117721510D01*
X147334958Y-117644459D01*
X147340729Y-117639530D01*
X147340732Y-117639528D01*
X147407472Y-117582526D01*
X153746335Y-117582526D01*
X153749527Y-117611434D01*
X153763271Y-117735924D01*
X153765153Y-117752975D01*
X153767762Y-117760106D01*
X153767763Y-117760108D01*
X153781448Y-117797503D01*
X153824085Y-117914015D01*
X153828322Y-117920321D01*
X153828324Y-117920324D01*
X153859252Y-117966349D01*
X153919730Y-118056349D01*
X154046565Y-118171760D01*
X154197268Y-118253585D01*
X154363139Y-118297101D01*
X154366674Y-118297157D01*
X154429869Y-118325506D01*
X154459291Y-118370620D01*
X154473848Y-118338694D01*
X154533551Y-118300275D01*
X154540985Y-118298332D01*
X154701759Y-118261510D01*
X154854958Y-118184459D01*
X154860729Y-118179530D01*
X154860732Y-118179528D01*
X154979578Y-118078023D01*
X154985355Y-118073089D01*
X155077119Y-117945388D01*
X155080992Y-117939998D01*
X155080993Y-117939997D01*
X155085424Y-117933830D01*
X155149385Y-117774720D01*
X155153554Y-117745425D01*
X155172966Y-117609031D01*
X155172966Y-117609027D01*
X155173547Y-117604947D01*
X155173704Y-117590000D01*
X155162735Y-117499357D01*
X155154015Y-117427299D01*
X155154014Y-117427296D01*
X155153102Y-117419758D01*
X155145636Y-117399998D01*
X155095171Y-117266447D01*
X155092487Y-117259344D01*
X155058432Y-117209794D01*
X154999659Y-117124278D01*
X154999658Y-117124276D01*
X154995357Y-117118019D01*
X154989686Y-117112966D01*
X154872993Y-117008996D01*
X154872990Y-117008994D01*
X154867321Y-117003943D01*
X154859325Y-116999709D01*
X154784409Y-116960043D01*
X154715769Y-116923700D01*
X154698196Y-116919286D01*
X154556822Y-116883775D01*
X154556818Y-116883775D01*
X154549451Y-116881924D01*
X154541852Y-116881884D01*
X154541850Y-116881884D01*
X154470394Y-116881510D01*
X154377969Y-116881026D01*
X154370589Y-116882798D01*
X154370587Y-116882798D01*
X154218602Y-116919286D01*
X154218598Y-116919287D01*
X154211223Y-116921058D01*
X154058839Y-116999709D01*
X153929615Y-117112439D01*
X153831010Y-117252739D01*
X153813016Y-117298891D01*
X153772256Y-117403435D01*
X153768718Y-117412509D01*
X153767726Y-117420042D01*
X153767726Y-117420043D01*
X153750205Y-117553131D01*
X153746335Y-117582526D01*
X147407472Y-117582526D01*
X147459578Y-117538023D01*
X147465355Y-117533089D01*
X147549087Y-117416565D01*
X147560992Y-117399998D01*
X147560993Y-117399997D01*
X147565424Y-117393830D01*
X147629385Y-117234720D01*
X147632214Y-117214845D01*
X147652966Y-117069031D01*
X147652966Y-117069027D01*
X147653547Y-117064947D01*
X147653704Y-117050000D01*
X147642818Y-116960043D01*
X147634015Y-116887299D01*
X147634014Y-116887296D01*
X147633102Y-116879758D01*
X147624987Y-116858280D01*
X147575171Y-116726447D01*
X147572487Y-116719344D01*
X147488669Y-116597388D01*
X147479659Y-116584278D01*
X147479658Y-116584276D01*
X147475357Y-116578019D01*
X147469686Y-116572966D01*
X147379402Y-116492526D01*
X148356335Y-116492526D01*
X148365158Y-116572439D01*
X148369684Y-116613435D01*
X148375153Y-116662975D01*
X148377762Y-116670106D01*
X148377763Y-116670108D01*
X148383170Y-116684883D01*
X148434085Y-116824015D01*
X148438322Y-116830321D01*
X148438324Y-116830324D01*
X148472998Y-116881924D01*
X148529730Y-116966349D01*
X148656565Y-117081760D01*
X148807268Y-117163585D01*
X148973139Y-117207101D01*
X149060586Y-117208474D01*
X149137003Y-117209675D01*
X149137006Y-117209675D01*
X149144602Y-117209794D01*
X149152006Y-117208098D01*
X149152008Y-117208098D01*
X149214846Y-117193706D01*
X149311759Y-117171510D01*
X149464958Y-117094459D01*
X149470729Y-117089530D01*
X149470732Y-117089528D01*
X149589578Y-116988023D01*
X149595355Y-116983089D01*
X149680932Y-116863998D01*
X149690992Y-116849998D01*
X149690993Y-116849997D01*
X149695424Y-116843830D01*
X149759385Y-116684720D01*
X149767662Y-116626565D01*
X149768596Y-116620000D01*
X150661358Y-116620000D01*
X150662048Y-116626565D01*
X150673792Y-116738295D01*
X150681870Y-116815155D01*
X150683910Y-116821433D01*
X150683910Y-116821434D01*
X150703765Y-116882540D01*
X150742508Y-117001780D01*
X150840623Y-117171720D01*
X150845041Y-117176627D01*
X150845042Y-117176628D01*
X150967504Y-117312636D01*
X150971926Y-117317547D01*
X150977268Y-117321428D01*
X150977270Y-117321430D01*
X151121050Y-117425892D01*
X151130679Y-117432888D01*
X151136707Y-117435572D01*
X151136709Y-117435573D01*
X151303913Y-117510017D01*
X151309944Y-117512702D01*
X151405858Y-117533089D01*
X151495428Y-117552128D01*
X151495432Y-117552128D01*
X151501885Y-117553500D01*
X151698115Y-117553500D01*
X151704568Y-117552128D01*
X151704572Y-117552128D01*
X151794142Y-117533089D01*
X151890056Y-117512702D01*
X151893189Y-117511307D01*
X151962977Y-117509311D01*
X151975174Y-117513189D01*
X152064684Y-117546745D01*
X152126866Y-117553500D01*
X153073134Y-117553500D01*
X153135316Y-117546745D01*
X153271705Y-117495615D01*
X153388261Y-117408261D01*
X153475615Y-117291705D01*
X153526745Y-117155316D01*
X153533500Y-117093134D01*
X153533500Y-116146866D01*
X153526745Y-116084684D01*
X153475615Y-115948295D01*
X153388261Y-115831739D01*
X153271705Y-115744385D01*
X153135316Y-115693255D01*
X153073134Y-115686500D01*
X152126866Y-115686500D01*
X152064684Y-115693255D01*
X151975179Y-115726809D01*
X151904373Y-115731992D01*
X151894807Y-115729413D01*
X151890056Y-115727298D01*
X151788446Y-115705700D01*
X151704572Y-115687872D01*
X151704568Y-115687872D01*
X151698115Y-115686500D01*
X151501885Y-115686500D01*
X151495432Y-115687872D01*
X151495428Y-115687872D01*
X151405915Y-115706899D01*
X151309944Y-115727298D01*
X151303914Y-115729983D01*
X151303913Y-115729983D01*
X151136709Y-115804427D01*
X151136707Y-115804428D01*
X151130679Y-115807112D01*
X151125338Y-115810992D01*
X151125337Y-115810993D01*
X150982600Y-115914698D01*
X150971926Y-115922453D01*
X150967505Y-115927363D01*
X150967504Y-115927364D01*
X150881183Y-116023234D01*
X150840623Y-116068280D01*
X150742508Y-116238220D01*
X150681870Y-116424845D01*
X150681180Y-116431408D01*
X150681180Y-116431409D01*
X150672010Y-116518659D01*
X150661358Y-116620000D01*
X149768596Y-116620000D01*
X149782966Y-116519031D01*
X149782966Y-116519027D01*
X149783547Y-116514947D01*
X149783704Y-116500000D01*
X149772142Y-116404459D01*
X149764015Y-116337299D01*
X149764014Y-116337296D01*
X149763102Y-116329758D01*
X149760349Y-116322471D01*
X149705171Y-116176447D01*
X149702487Y-116169344D01*
X149673302Y-116126879D01*
X149609659Y-116034278D01*
X149609658Y-116034276D01*
X149605357Y-116028019D01*
X149599686Y-116022966D01*
X149482993Y-115918996D01*
X149482990Y-115918994D01*
X149477321Y-115913943D01*
X149469325Y-115909709D01*
X149367612Y-115855855D01*
X149325769Y-115833700D01*
X149308196Y-115829286D01*
X149166822Y-115793775D01*
X149166818Y-115793775D01*
X149159451Y-115791924D01*
X149151852Y-115791884D01*
X149151850Y-115791884D01*
X149080394Y-115791510D01*
X148987969Y-115791026D01*
X148980589Y-115792798D01*
X148980587Y-115792798D01*
X148828602Y-115829286D01*
X148828598Y-115829287D01*
X148821223Y-115831058D01*
X148668839Y-115909709D01*
X148663120Y-115914698D01*
X148658193Y-115918996D01*
X148539615Y-116022439D01*
X148441010Y-116162739D01*
X148413812Y-116232497D01*
X148390052Y-116293440D01*
X148378718Y-116322509D01*
X148377726Y-116330042D01*
X148377726Y-116330043D01*
X148357556Y-116483255D01*
X148356335Y-116492526D01*
X147379402Y-116492526D01*
X147352993Y-116468996D01*
X147352990Y-116468994D01*
X147347321Y-116463943D01*
X147339325Y-116459709D01*
X147285875Y-116431409D01*
X147195769Y-116383700D01*
X147178196Y-116379286D01*
X147036822Y-116343775D01*
X147036818Y-116343775D01*
X147029451Y-116341924D01*
X147021852Y-116341884D01*
X147021850Y-116341884D01*
X146950394Y-116341510D01*
X146857969Y-116341026D01*
X146850589Y-116342798D01*
X146850587Y-116342798D01*
X146698602Y-116379286D01*
X146698598Y-116379287D01*
X146691223Y-116381058D01*
X146538839Y-116459709D01*
X146409615Y-116572439D01*
X146311010Y-116712739D01*
X146308250Y-116719819D01*
X146308248Y-116719822D01*
X146291073Y-116763874D01*
X146247693Y-116820076D01*
X146180814Y-116843903D01*
X146130068Y-116835976D01*
X146125769Y-116833700D01*
X146118403Y-116831850D01*
X146118401Y-116831849D01*
X145966822Y-116793775D01*
X145966818Y-116793775D01*
X145959451Y-116791924D01*
X145951852Y-116791884D01*
X145951850Y-116791884D01*
X145880394Y-116791510D01*
X145787969Y-116791026D01*
X145780589Y-116792798D01*
X145780587Y-116792798D01*
X145628602Y-116829286D01*
X145628598Y-116829287D01*
X145621223Y-116831058D01*
X145468839Y-116909709D01*
X145339615Y-117022439D01*
X145241010Y-117162739D01*
X145215877Y-117227202D01*
X145189147Y-117295761D01*
X145178718Y-117322509D01*
X145177726Y-117330042D01*
X145177726Y-117330043D01*
X145165819Y-117420490D01*
X145156335Y-117492526D01*
X139639968Y-117492526D01*
X139647952Y-117416565D01*
X139648642Y-117410000D01*
X139636635Y-117295761D01*
X139628820Y-117221409D01*
X139628820Y-117221408D01*
X139628130Y-117214845D01*
X139625653Y-117207220D01*
X139569534Y-117034505D01*
X139567492Y-117028220D01*
X139564155Y-117022439D01*
X139528130Y-116960043D01*
X139469377Y-116858280D01*
X139449078Y-116835735D01*
X139342496Y-116717364D01*
X139342495Y-116717363D01*
X139338074Y-116712453D01*
X139329913Y-116706523D01*
X139184663Y-116600993D01*
X139184662Y-116600992D01*
X139179321Y-116597112D01*
X139173293Y-116594428D01*
X139173291Y-116594427D01*
X139006087Y-116519983D01*
X139006086Y-116519983D01*
X139000056Y-116517298D01*
X138883512Y-116492526D01*
X138814572Y-116477872D01*
X138814568Y-116477872D01*
X138808115Y-116476500D01*
X138611885Y-116476500D01*
X138605432Y-116477872D01*
X138605428Y-116477872D01*
X138536488Y-116492526D01*
X138419944Y-116517298D01*
X138413914Y-116519983D01*
X138413913Y-116519983D01*
X138381629Y-116534357D01*
X138261248Y-116587954D01*
X138190882Y-116597388D01*
X138158753Y-116587955D01*
X138038371Y-116534357D01*
X138006087Y-116519983D01*
X138006086Y-116519983D01*
X138000056Y-116517298D01*
X137883512Y-116492526D01*
X137814572Y-116477872D01*
X137814568Y-116477872D01*
X137808115Y-116476500D01*
X137611885Y-116476500D01*
X137605432Y-116477872D01*
X137605428Y-116477872D01*
X137536488Y-116492526D01*
X137419944Y-116517298D01*
X137413914Y-116519983D01*
X137413913Y-116519983D01*
X137381629Y-116534357D01*
X137261248Y-116587954D01*
X137190882Y-116597388D01*
X137158753Y-116587955D01*
X137038371Y-116534357D01*
X137006087Y-116519983D01*
X137006086Y-116519983D01*
X137000056Y-116517298D01*
X136883512Y-116492526D01*
X136814572Y-116477872D01*
X136814568Y-116477872D01*
X136808115Y-116476500D01*
X136611885Y-116476500D01*
X136605432Y-116477872D01*
X136605428Y-116477872D01*
X136539372Y-116491913D01*
X136419944Y-116517298D01*
X136416811Y-116518693D01*
X136347023Y-116520689D01*
X136334826Y-116516811D01*
X136245316Y-116483255D01*
X136183134Y-116476500D01*
X135236866Y-116476500D01*
X135174684Y-116483255D01*
X135038295Y-116534385D01*
X134921739Y-116621739D01*
X134834385Y-116738295D01*
X134783255Y-116874684D01*
X134776500Y-116936866D01*
X134776500Y-117883134D01*
X134783255Y-117945316D01*
X134834385Y-118081705D01*
X134921739Y-118198261D01*
X135038295Y-118285615D01*
X135046703Y-118288767D01*
X135116187Y-118314816D01*
X135172952Y-118357458D01*
X135197651Y-118424020D01*
X135182443Y-118493369D01*
X135132157Y-118543487D01*
X135072034Y-118558798D01*
X131544779Y-118560905D01*
X131476648Y-118540944D01*
X131430123Y-118487316D01*
X131419977Y-118417048D01*
X131449431Y-118352449D01*
X131496484Y-118318497D01*
X131497930Y-118317898D01*
X131509704Y-118313021D01*
X131718379Y-118191081D01*
X131754219Y-118170138D01*
X131754220Y-118170137D01*
X131757922Y-118167974D01*
X131984159Y-117990582D01*
X131991421Y-117983089D01*
X132171266Y-117797503D01*
X132184227Y-117784128D01*
X132186760Y-117780680D01*
X132186764Y-117780675D01*
X132351887Y-117555886D01*
X132354425Y-117552431D01*
X132357512Y-117546745D01*
X132489554Y-117303555D01*
X132489555Y-117303553D01*
X132491604Y-117299779D01*
X132593225Y-117030848D01*
X132627342Y-116881884D01*
X132656449Y-116754797D01*
X132656450Y-116754793D01*
X132657407Y-116750613D01*
X132658507Y-116738295D01*
X132682743Y-116466726D01*
X132682743Y-116466724D01*
X132682963Y-116464260D01*
X132683427Y-116420000D01*
X132681319Y-116389079D01*
X132664165Y-116137452D01*
X132664164Y-116137446D01*
X132663873Y-116133175D01*
X132659336Y-116111264D01*
X132618629Y-115914698D01*
X132605574Y-115851658D01*
X132588175Y-115802526D01*
X141216335Y-115802526D01*
X141222223Y-115855855D01*
X141233357Y-115956703D01*
X141235153Y-115972975D01*
X141294085Y-116134015D01*
X141298322Y-116140321D01*
X141298324Y-116140324D01*
X141313387Y-116162739D01*
X141389730Y-116276349D01*
X141424021Y-116307551D01*
X141510921Y-116386624D01*
X141516565Y-116391760D01*
X141667268Y-116473585D01*
X141833139Y-116517101D01*
X141920586Y-116518474D01*
X141997003Y-116519675D01*
X141997006Y-116519675D01*
X142004602Y-116519794D01*
X142012006Y-116518098D01*
X142012008Y-116518098D01*
X142108955Y-116495894D01*
X142171759Y-116481510D01*
X142324958Y-116404459D01*
X142330731Y-116399528D01*
X142330736Y-116399525D01*
X142420955Y-116322471D01*
X142485745Y-116293440D01*
X142555945Y-116304045D01*
X142562907Y-116307551D01*
X142617696Y-116337299D01*
X142628176Y-116342989D01*
X142794047Y-116386505D01*
X142881494Y-116387878D01*
X142957911Y-116389079D01*
X142957914Y-116389079D01*
X142965510Y-116389198D01*
X142972914Y-116387502D01*
X142972916Y-116387502D01*
X143035754Y-116373110D01*
X143132667Y-116350914D01*
X143285866Y-116273863D01*
X143291637Y-116268934D01*
X143291640Y-116268932D01*
X143410486Y-116167427D01*
X143416263Y-116162493D01*
X143516332Y-116023234D01*
X143580293Y-115864124D01*
X143589060Y-115802526D01*
X143603874Y-115698435D01*
X143603874Y-115698431D01*
X143604455Y-115694351D01*
X143604534Y-115686869D01*
X143604569Y-115683537D01*
X143604569Y-115683531D01*
X143604612Y-115679404D01*
X143592201Y-115576848D01*
X143584923Y-115516705D01*
X143584923Y-115516704D01*
X143584010Y-115509162D01*
X143546676Y-115410359D01*
X143541308Y-115339567D01*
X143547635Y-115318826D01*
X143566552Y-115271768D01*
X143566552Y-115271766D01*
X143569385Y-115264720D01*
X143593547Y-115094947D01*
X143593704Y-115080000D01*
X143573102Y-114909758D01*
X143561623Y-114879378D01*
X143515171Y-114756447D01*
X143512487Y-114749344D01*
X143476709Y-114697287D01*
X143419659Y-114614278D01*
X143419658Y-114614276D01*
X143415357Y-114608019D01*
X143409686Y-114602966D01*
X143292993Y-114498996D01*
X143292990Y-114498994D01*
X143287321Y-114493943D01*
X143279325Y-114489709D01*
X143142481Y-114417254D01*
X143142482Y-114417254D01*
X143135769Y-114413700D01*
X143118196Y-114409286D01*
X142976822Y-114373775D01*
X142976818Y-114373775D01*
X142969451Y-114371924D01*
X142961852Y-114371884D01*
X142961850Y-114371884D01*
X142890394Y-114371510D01*
X142797969Y-114371026D01*
X142790589Y-114372798D01*
X142790587Y-114372798D01*
X142638602Y-114409286D01*
X142638598Y-114409287D01*
X142631223Y-114411058D01*
X142478839Y-114489709D01*
X142349615Y-114602439D01*
X142251010Y-114742739D01*
X142188718Y-114902509D01*
X142187726Y-114910042D01*
X142187726Y-114910043D01*
X142176346Y-114996487D01*
X142147624Y-115061414D01*
X142088359Y-115100506D01*
X142034714Y-115101885D01*
X142034355Y-115104727D01*
X142026821Y-115103775D01*
X142019451Y-115101924D01*
X142011852Y-115101884D01*
X142011850Y-115101884D01*
X141940394Y-115101510D01*
X141847969Y-115101026D01*
X141840589Y-115102798D01*
X141840587Y-115102798D01*
X141688602Y-115139286D01*
X141688598Y-115139287D01*
X141681223Y-115141058D01*
X141528839Y-115219709D01*
X141399615Y-115332439D01*
X141301010Y-115472739D01*
X141238718Y-115632509D01*
X141237726Y-115640042D01*
X141237726Y-115640043D01*
X141217616Y-115792798D01*
X141216335Y-115802526D01*
X132588175Y-115802526D01*
X132509607Y-115580657D01*
X132377750Y-115325188D01*
X132364488Y-115306317D01*
X132222807Y-115104727D01*
X132212441Y-115089977D01*
X132125565Y-114996487D01*
X132019661Y-114882521D01*
X132019658Y-114882519D01*
X132016740Y-114879378D01*
X131794268Y-114697287D01*
X131549142Y-114547073D01*
X131531048Y-114539130D01*
X131289830Y-114433243D01*
X131285898Y-114431517D01*
X131259963Y-114424129D01*
X131147652Y-114392136D01*
X131009406Y-114352756D01*
X130796704Y-114322485D01*
X130729036Y-114312854D01*
X130729034Y-114312854D01*
X130724784Y-114312249D01*
X130720495Y-114312227D01*
X130720488Y-114312226D01*
X130441583Y-114310765D01*
X130441576Y-114310765D01*
X130437297Y-114310743D01*
X130433053Y-114311302D01*
X130433049Y-114311302D01*
X130307660Y-114327810D01*
X130152266Y-114348268D01*
X130148126Y-114349401D01*
X130148124Y-114349401D01*
X130071311Y-114370415D01*
X129874964Y-114424129D01*
X129871016Y-114425813D01*
X129614476Y-114535237D01*
X129614472Y-114535239D01*
X129610524Y-114536923D01*
X129509396Y-114597447D01*
X129367521Y-114682357D01*
X129367517Y-114682360D01*
X129363839Y-114684561D01*
X129139472Y-114864313D01*
X128941577Y-115072851D01*
X128773814Y-115306317D01*
X128727545Y-115393703D01*
X128685463Y-115473182D01*
X128635910Y-115524026D01*
X128566736Y-115540007D01*
X128499902Y-115516053D01*
X128456629Y-115459769D01*
X128448109Y-115414270D01*
X128448081Y-115338653D01*
X128447109Y-112742526D01*
X141666335Y-112742526D01*
X141685153Y-112912975D01*
X141687762Y-112920106D01*
X141687763Y-112920108D01*
X141695688Y-112941764D01*
X141744085Y-113074015D01*
X141839730Y-113216349D01*
X141966565Y-113331760D01*
X142117268Y-113413585D01*
X142283139Y-113457101D01*
X142370586Y-113458474D01*
X142447003Y-113459675D01*
X142447006Y-113459675D01*
X142454602Y-113459794D01*
X142462006Y-113458098D01*
X142462008Y-113458098D01*
X142524846Y-113443706D01*
X142621759Y-113421510D01*
X142774958Y-113344459D01*
X142780729Y-113339530D01*
X142780732Y-113339528D01*
X142899578Y-113238023D01*
X142905355Y-113233089D01*
X143005424Y-113093830D01*
X143069385Y-112934720D01*
X143093547Y-112764947D01*
X143093704Y-112750000D01*
X143073102Y-112579758D01*
X143012487Y-112419344D01*
X142974430Y-112363971D01*
X142919659Y-112284278D01*
X142919658Y-112284276D01*
X142915357Y-112278019D01*
X142909686Y-112272966D01*
X142792993Y-112168996D01*
X142792990Y-112168994D01*
X142787321Y-112163943D01*
X142779325Y-112159709D01*
X142688293Y-112111510D01*
X142635769Y-112083700D01*
X142618196Y-112079286D01*
X142476822Y-112043775D01*
X142476818Y-112043775D01*
X142469451Y-112041924D01*
X142461852Y-112041884D01*
X142461850Y-112041884D01*
X142390394Y-112041510D01*
X142297969Y-112041026D01*
X142290589Y-112042798D01*
X142290587Y-112042798D01*
X142138602Y-112079286D01*
X142138598Y-112079287D01*
X142131223Y-112081058D01*
X141978839Y-112159709D01*
X141849615Y-112272439D01*
X141751010Y-112412739D01*
X141688718Y-112572509D01*
X141666335Y-112742526D01*
X128447109Y-112742526D01*
X128446853Y-112060313D01*
X128466830Y-111992186D01*
X128520468Y-111945673D01*
X128590738Y-111935543D01*
X128632976Y-111949536D01*
X128677268Y-111973585D01*
X128843139Y-112017101D01*
X128930586Y-112018474D01*
X129007003Y-112019675D01*
X129007006Y-112019675D01*
X129014602Y-112019794D01*
X129022006Y-112018098D01*
X129022008Y-112018098D01*
X129103088Y-111999528D01*
X129181759Y-111981510D01*
X129334958Y-111904459D01*
X129340729Y-111899530D01*
X129340732Y-111899528D01*
X129459578Y-111798023D01*
X129465355Y-111793089D01*
X129565424Y-111653830D01*
X129629385Y-111494720D01*
X129637162Y-111440076D01*
X129638237Y-111432526D01*
X146226335Y-111432526D01*
X146233979Y-111501764D01*
X146244242Y-111594720D01*
X146245153Y-111602975D01*
X146304085Y-111764015D01*
X146308322Y-111770321D01*
X146308324Y-111770324D01*
X146341132Y-111819146D01*
X146399730Y-111906349D01*
X146526565Y-112021760D01*
X146677268Y-112103585D01*
X146843139Y-112147101D01*
X146930586Y-112148474D01*
X147007003Y-112149675D01*
X147007006Y-112149675D01*
X147014602Y-112149794D01*
X147022006Y-112148098D01*
X147022008Y-112148098D01*
X147084846Y-112133706D01*
X147181759Y-112111510D01*
X147283551Y-112060314D01*
X147328167Y-112037875D01*
X147328170Y-112037873D01*
X147334958Y-112034459D01*
X147335331Y-112035202D01*
X147397246Y-112015992D01*
X147459289Y-112031246D01*
X147537268Y-112073585D01*
X147703139Y-112117101D01*
X147790586Y-112118474D01*
X147867003Y-112119675D01*
X147867006Y-112119675D01*
X147874602Y-112119794D01*
X147882006Y-112118098D01*
X147882008Y-112118098D01*
X147961193Y-112099962D01*
X148041759Y-112081510D01*
X148194958Y-112004459D01*
X148200729Y-111999530D01*
X148200732Y-111999528D01*
X148301885Y-111913134D01*
X150626500Y-111913134D01*
X150633255Y-111975316D01*
X150684385Y-112111705D01*
X150771739Y-112228261D01*
X150888295Y-112315615D01*
X151024684Y-112366745D01*
X151086866Y-112373500D01*
X152033134Y-112373500D01*
X152095316Y-112366745D01*
X152231705Y-112315615D01*
X152348261Y-112228261D01*
X152435615Y-112111705D01*
X152486745Y-111975316D01*
X152493500Y-111913134D01*
X152493500Y-110966866D01*
X152486745Y-110904684D01*
X152435615Y-110768295D01*
X152348261Y-110651739D01*
X152231705Y-110564385D01*
X152095316Y-110513255D01*
X152033134Y-110506500D01*
X151086866Y-110506500D01*
X151024684Y-110513255D01*
X150888295Y-110564385D01*
X150771739Y-110651739D01*
X150684385Y-110768295D01*
X150633255Y-110904684D01*
X150626500Y-110966866D01*
X150626500Y-111913134D01*
X148301885Y-111913134D01*
X148319578Y-111898023D01*
X148325355Y-111893089D01*
X148425424Y-111753830D01*
X148489385Y-111594720D01*
X148490455Y-111587202D01*
X148512966Y-111429031D01*
X148512966Y-111429027D01*
X148513547Y-111424947D01*
X148513704Y-111410000D01*
X148505972Y-111346109D01*
X148494015Y-111247299D01*
X148494014Y-111247296D01*
X148493102Y-111239758D01*
X148455316Y-111139758D01*
X148435171Y-111086447D01*
X148432487Y-111079344D01*
X148359458Y-110973086D01*
X148339659Y-110944278D01*
X148339658Y-110944276D01*
X148335357Y-110938019D01*
X148297943Y-110904684D01*
X148212993Y-110828996D01*
X148212990Y-110828994D01*
X148207321Y-110823943D01*
X148199325Y-110819709D01*
X148119139Y-110777253D01*
X148055769Y-110743700D01*
X148016256Y-110733775D01*
X147896822Y-110703775D01*
X147896818Y-110703775D01*
X147889451Y-110701924D01*
X147881852Y-110701884D01*
X147881850Y-110701884D01*
X147810394Y-110701510D01*
X147717969Y-110701026D01*
X147710589Y-110702798D01*
X147710587Y-110702798D01*
X147558602Y-110739286D01*
X147558598Y-110739287D01*
X147551223Y-110741058D01*
X147398839Y-110819709D01*
X147397311Y-110816749D01*
X147343932Y-110833877D01*
X147281836Y-110819271D01*
X147195769Y-110773700D01*
X147174251Y-110768295D01*
X147036822Y-110733775D01*
X147036818Y-110733775D01*
X147029451Y-110731924D01*
X147021852Y-110731884D01*
X147021850Y-110731884D01*
X146950394Y-110731510D01*
X146857969Y-110731026D01*
X146850589Y-110732798D01*
X146850587Y-110732798D01*
X146698602Y-110769286D01*
X146698598Y-110769287D01*
X146691223Y-110771058D01*
X146538839Y-110849709D01*
X146409615Y-110962439D01*
X146311010Y-111102739D01*
X146248718Y-111262509D01*
X146247726Y-111270042D01*
X146247726Y-111270043D01*
X146227333Y-111424947D01*
X146226335Y-111432526D01*
X129638237Y-111432526D01*
X129652966Y-111329031D01*
X129652966Y-111329027D01*
X129653547Y-111324947D01*
X129653704Y-111310000D01*
X129644344Y-111232654D01*
X129634015Y-111147299D01*
X129634014Y-111147296D01*
X129633102Y-111139758D01*
X129572487Y-110979344D01*
X129521175Y-110904684D01*
X129479659Y-110844278D01*
X129479658Y-110844276D01*
X129475357Y-110838019D01*
X129465230Y-110828996D01*
X129352993Y-110728996D01*
X129352990Y-110728994D01*
X129347321Y-110723943D01*
X129339325Y-110719709D01*
X129245305Y-110669928D01*
X129195769Y-110643700D01*
X129178196Y-110639286D01*
X129036822Y-110603775D01*
X129036818Y-110603775D01*
X129029451Y-110601924D01*
X129021852Y-110601884D01*
X129021850Y-110601884D01*
X128950394Y-110601510D01*
X128857969Y-110601026D01*
X128850589Y-110602798D01*
X128850587Y-110602798D01*
X128698602Y-110639286D01*
X128698598Y-110639287D01*
X128691223Y-110641058D01*
X128652800Y-110660890D01*
X128630082Y-110672615D01*
X128560374Y-110686084D01*
X128494451Y-110659729D01*
X128453241Y-110601916D01*
X128446292Y-110560696D01*
X128446262Y-110480000D01*
X153386496Y-110480000D01*
X153387186Y-110486565D01*
X153403790Y-110644539D01*
X153406458Y-110669928D01*
X153465473Y-110851556D01*
X153468776Y-110857278D01*
X153468777Y-110857279D01*
X153500682Y-110912540D01*
X153560960Y-111016944D01*
X153688747Y-111158866D01*
X153843248Y-111271118D01*
X153849276Y-111273802D01*
X153849278Y-111273803D01*
X153973323Y-111329031D01*
X154017712Y-111348794D01*
X154111112Y-111368647D01*
X154198056Y-111387128D01*
X154198061Y-111387128D01*
X154204513Y-111388500D01*
X154395487Y-111388500D01*
X154401939Y-111387128D01*
X154401944Y-111387128D01*
X154488887Y-111368647D01*
X154582288Y-111348794D01*
X154626677Y-111329031D01*
X154750722Y-111273803D01*
X154750724Y-111273802D01*
X154756752Y-111271118D01*
X154911253Y-111158866D01*
X155039040Y-111016944D01*
X155099318Y-110912540D01*
X155131223Y-110857279D01*
X155131224Y-110857278D01*
X155134527Y-110851556D01*
X155193542Y-110669928D01*
X155196211Y-110644539D01*
X155212814Y-110486565D01*
X155213504Y-110480000D01*
X155193542Y-110290072D01*
X155134527Y-110108444D01*
X155039040Y-109943056D01*
X154911253Y-109801134D01*
X154756752Y-109688882D01*
X154750724Y-109686198D01*
X154750722Y-109686197D01*
X154588319Y-109613891D01*
X154588318Y-109613891D01*
X154582288Y-109611206D01*
X154488888Y-109591353D01*
X154401944Y-109572872D01*
X154401939Y-109572872D01*
X154395487Y-109571500D01*
X154204513Y-109571500D01*
X154198061Y-109572872D01*
X154198056Y-109572872D01*
X154111112Y-109591353D01*
X154017712Y-109611206D01*
X154011682Y-109613891D01*
X154011681Y-109613891D01*
X153849278Y-109686197D01*
X153849276Y-109686198D01*
X153843248Y-109688882D01*
X153688747Y-109801134D01*
X153560960Y-109943056D01*
X153465473Y-110108444D01*
X153406458Y-110290072D01*
X153386496Y-110480000D01*
X128446262Y-110480000D01*
X128445906Y-109529799D01*
X128465883Y-109461672D01*
X128519521Y-109415159D01*
X128589791Y-109405029D01*
X128632027Y-109419022D01*
X128670592Y-109439961D01*
X128670597Y-109439963D01*
X128677268Y-109443585D01*
X128843139Y-109487101D01*
X128930586Y-109488474D01*
X129007003Y-109489675D01*
X129007006Y-109489675D01*
X129014602Y-109489794D01*
X129022006Y-109488098D01*
X129022008Y-109488098D01*
X129137389Y-109461672D01*
X129181759Y-109451510D01*
X129334958Y-109374459D01*
X129340729Y-109369530D01*
X129340732Y-109369528D01*
X129459578Y-109268023D01*
X129465355Y-109263089D01*
X129565424Y-109123830D01*
X129606147Y-109022526D01*
X151432335Y-109022526D01*
X151451153Y-109192975D01*
X151453762Y-109200106D01*
X151453763Y-109200108D01*
X151461688Y-109221764D01*
X151510085Y-109354015D01*
X151514322Y-109360321D01*
X151514324Y-109360324D01*
X151527545Y-109379998D01*
X151605730Y-109496349D01*
X151732565Y-109611760D01*
X151883268Y-109693585D01*
X152049139Y-109737101D01*
X152136586Y-109738474D01*
X152213003Y-109739675D01*
X152213006Y-109739675D01*
X152220602Y-109739794D01*
X152228006Y-109738098D01*
X152228008Y-109738098D01*
X152290846Y-109723706D01*
X152387759Y-109701510D01*
X152540958Y-109624459D01*
X152546729Y-109619530D01*
X152546732Y-109619528D01*
X152665578Y-109518023D01*
X152671355Y-109513089D01*
X152771424Y-109373830D01*
X152835385Y-109214720D01*
X152847443Y-109129998D01*
X152858966Y-109049031D01*
X152858966Y-109049027D01*
X152859547Y-109044947D01*
X152859704Y-109030000D01*
X152839102Y-108859758D01*
X152816156Y-108799031D01*
X152781171Y-108706447D01*
X152778487Y-108699344D01*
X152720870Y-108615511D01*
X152685659Y-108564278D01*
X152685658Y-108564276D01*
X152681357Y-108558019D01*
X152675686Y-108552966D01*
X152558993Y-108448996D01*
X152558990Y-108448994D01*
X152553321Y-108443943D01*
X152545325Y-108439709D01*
X152408481Y-108367254D01*
X152408482Y-108367254D01*
X152401769Y-108363700D01*
X152384196Y-108359286D01*
X152242822Y-108323775D01*
X152242818Y-108323775D01*
X152235451Y-108321924D01*
X152227852Y-108321884D01*
X152227850Y-108321884D01*
X152156394Y-108321510D01*
X152063969Y-108321026D01*
X152056589Y-108322798D01*
X152056587Y-108322798D01*
X151904602Y-108359286D01*
X151904598Y-108359287D01*
X151897223Y-108361058D01*
X151744839Y-108439709D01*
X151615615Y-108552439D01*
X151517010Y-108692739D01*
X151485864Y-108772624D01*
X151477161Y-108794947D01*
X151454718Y-108852509D01*
X151432335Y-109022526D01*
X129606147Y-109022526D01*
X129629385Y-108964720D01*
X129645355Y-108852509D01*
X129652966Y-108799031D01*
X129652966Y-108799027D01*
X129653547Y-108794947D01*
X129653704Y-108780000D01*
X129638846Y-108657220D01*
X129634015Y-108617299D01*
X129634014Y-108617296D01*
X129633102Y-108609758D01*
X129606565Y-108539528D01*
X129575171Y-108456447D01*
X129572487Y-108449344D01*
X129514202Y-108364539D01*
X129479659Y-108314278D01*
X129479658Y-108314276D01*
X129475357Y-108308019D01*
X129467995Y-108301459D01*
X129408458Y-108248414D01*
X129370902Y-108188164D01*
X129371882Y-108117174D01*
X129410446Y-108058527D01*
X129469578Y-108008023D01*
X129475355Y-108003089D01*
X129575424Y-107863830D01*
X129592028Y-107822526D01*
X146446335Y-107822526D01*
X146465153Y-107992975D01*
X146467762Y-108000106D01*
X146467763Y-108000108D01*
X146490802Y-108063064D01*
X146524085Y-108154015D01*
X146528322Y-108160321D01*
X146528324Y-108160324D01*
X146553760Y-108198176D01*
X146619730Y-108296349D01*
X146746565Y-108411760D01*
X146897268Y-108493585D01*
X147063139Y-108537101D01*
X147150586Y-108538474D01*
X147227003Y-108539675D01*
X147227006Y-108539675D01*
X147234602Y-108539794D01*
X147242006Y-108538098D01*
X147242008Y-108538098D01*
X147304846Y-108523706D01*
X147401759Y-108501510D01*
X147554958Y-108424459D01*
X147560729Y-108419530D01*
X147560732Y-108419528D01*
X147679578Y-108318023D01*
X147685355Y-108313089D01*
X147785424Y-108173830D01*
X147849385Y-108014720D01*
X147859660Y-107942526D01*
X147872966Y-107849031D01*
X147872966Y-107849027D01*
X147873547Y-107844947D01*
X147873704Y-107830000D01*
X147858543Y-107704720D01*
X147854015Y-107667299D01*
X147854014Y-107667296D01*
X147853102Y-107659758D01*
X147838011Y-107619819D01*
X147813502Y-107554959D01*
X147808134Y-107484165D01*
X147841892Y-107421708D01*
X147903239Y-107387601D01*
X147951259Y-107376603D01*
X148001070Y-107351551D01*
X148070913Y-107338812D01*
X148089657Y-107342240D01*
X148210927Y-107374055D01*
X148298374Y-107375428D01*
X148374791Y-107376629D01*
X148374794Y-107376629D01*
X148382390Y-107376748D01*
X148389794Y-107375052D01*
X148389796Y-107375052D01*
X148467309Y-107357299D01*
X148549547Y-107338464D01*
X148670922Y-107277419D01*
X148740765Y-107264681D01*
X148806409Y-107291725D01*
X148847011Y-107349966D01*
X148849680Y-107420912D01*
X148822641Y-107471544D01*
X148821615Y-107472439D01*
X148817252Y-107478647D01*
X148817251Y-107478648D01*
X148807348Y-107492739D01*
X148723010Y-107612739D01*
X148710949Y-107643675D01*
X148684402Y-107711764D01*
X148660718Y-107772509D01*
X148659726Y-107780042D01*
X148659726Y-107780043D01*
X148640631Y-107925089D01*
X148638335Y-107942526D01*
X148645566Y-108008023D01*
X148655915Y-108101760D01*
X148657153Y-108112975D01*
X148659762Y-108120106D01*
X148659763Y-108120108D01*
X148679423Y-108173830D01*
X148716085Y-108274015D01*
X148720322Y-108280321D01*
X148720324Y-108280324D01*
X148764621Y-108346244D01*
X148811730Y-108416349D01*
X148938565Y-108531760D01*
X149089268Y-108613585D01*
X149255139Y-108657101D01*
X149342586Y-108658474D01*
X149419003Y-108659675D01*
X149419006Y-108659675D01*
X149426602Y-108659794D01*
X149434006Y-108658098D01*
X149434008Y-108658098D01*
X149496846Y-108643706D01*
X149593759Y-108621510D01*
X149746958Y-108544459D01*
X149752729Y-108539530D01*
X149752732Y-108539528D01*
X149871578Y-108438023D01*
X149877355Y-108433089D01*
X149957853Y-108321066D01*
X149972992Y-108299998D01*
X149972993Y-108299997D01*
X149977424Y-108293830D01*
X149980255Y-108286787D01*
X149980258Y-108286782D01*
X150015876Y-108198176D01*
X150059842Y-108142431D01*
X150104656Y-108122351D01*
X150135856Y-108115206D01*
X150135860Y-108115205D01*
X150143259Y-108113510D01*
X150296458Y-108036459D01*
X150302229Y-108031530D01*
X150302232Y-108031528D01*
X150421078Y-107930023D01*
X150426855Y-107925089D01*
X150526924Y-107785830D01*
X150590885Y-107626720D01*
X150594757Y-107599511D01*
X150614466Y-107461031D01*
X150614466Y-107461027D01*
X150615047Y-107456947D01*
X150615204Y-107442000D01*
X150607495Y-107378298D01*
X150595515Y-107279299D01*
X150595514Y-107279296D01*
X150594602Y-107271758D01*
X150588054Y-107254427D01*
X150536671Y-107118447D01*
X150533987Y-107111344D01*
X150524111Y-107096975D01*
X150441159Y-106976278D01*
X150441158Y-106976276D01*
X150436857Y-106970019D01*
X150431186Y-106964966D01*
X150314493Y-106860996D01*
X150314490Y-106860994D01*
X150308821Y-106855943D01*
X150300825Y-106851709D01*
X150163981Y-106779254D01*
X150163982Y-106779254D01*
X150157269Y-106775700D01*
X150139696Y-106771286D01*
X149998322Y-106735775D01*
X149998318Y-106735775D01*
X149990951Y-106733924D01*
X149983352Y-106733884D01*
X149983350Y-106733884D01*
X149911894Y-106733510D01*
X149819469Y-106733026D01*
X149812089Y-106734798D01*
X149812087Y-106734798D01*
X149660102Y-106771286D01*
X149660098Y-106771287D01*
X149652723Y-106773058D01*
X149500339Y-106851709D01*
X149371115Y-106964439D01*
X149272510Y-107104739D01*
X149254847Y-107150043D01*
X149238077Y-107193055D01*
X149194696Y-107249256D01*
X149150099Y-107269803D01*
X149110609Y-107279284D01*
X149110603Y-107279286D01*
X149103223Y-107281058D01*
X148989262Y-107339877D01*
X148919557Y-107353346D01*
X148853633Y-107326991D01*
X148812424Y-107269179D01*
X148809012Y-107198264D01*
X148834312Y-107150883D01*
X148833143Y-107150043D01*
X148928780Y-107016952D01*
X148928781Y-107016951D01*
X148933212Y-107010784D01*
X148997173Y-106851674D01*
X149010717Y-106756509D01*
X149020754Y-106685985D01*
X149020754Y-106685981D01*
X149021335Y-106681901D01*
X149021492Y-106666954D01*
X149015571Y-106618023D01*
X149001803Y-106504253D01*
X149001802Y-106504250D01*
X149000890Y-106496712D01*
X148994575Y-106479998D01*
X148942959Y-106343401D01*
X148940275Y-106336298D01*
X148876932Y-106244133D01*
X148847447Y-106201232D01*
X148847446Y-106201230D01*
X148843145Y-106194973D01*
X148791581Y-106149031D01*
X148736550Y-106100000D01*
X159076496Y-106100000D01*
X159077186Y-106106565D01*
X159093211Y-106259031D01*
X159096458Y-106289928D01*
X159155473Y-106471556D01*
X159250960Y-106636944D01*
X159255378Y-106641851D01*
X159255379Y-106641852D01*
X159374325Y-106773955D01*
X159378747Y-106778866D01*
X159441605Y-106824535D01*
X159504818Y-106870462D01*
X159533248Y-106891118D01*
X159539276Y-106893802D01*
X159539278Y-106893803D01*
X159686718Y-106959447D01*
X159707712Y-106968794D01*
X159801112Y-106988647D01*
X159888056Y-107007128D01*
X159888061Y-107007128D01*
X159894513Y-107008500D01*
X160085487Y-107008500D01*
X160091939Y-107007128D01*
X160091944Y-107007128D01*
X160178888Y-106988647D01*
X160272288Y-106968794D01*
X160293282Y-106959447D01*
X160440722Y-106893803D01*
X160440724Y-106893802D01*
X160446752Y-106891118D01*
X160475183Y-106870462D01*
X160538395Y-106824535D01*
X160601253Y-106778866D01*
X160605675Y-106773955D01*
X160724621Y-106641852D01*
X160724622Y-106641851D01*
X160729040Y-106636944D01*
X160824527Y-106471556D01*
X160883542Y-106289928D01*
X160886790Y-106259031D01*
X160902814Y-106106565D01*
X160903504Y-106100000D01*
X160900355Y-106070043D01*
X160884232Y-105916635D01*
X160884232Y-105916633D01*
X160883542Y-105910072D01*
X160824527Y-105728444D01*
X160729040Y-105563056D01*
X160716381Y-105548996D01*
X160605675Y-105426045D01*
X160605674Y-105426044D01*
X160601253Y-105421134D01*
X160475371Y-105329675D01*
X160452094Y-105312763D01*
X160452093Y-105312762D01*
X160446752Y-105308882D01*
X160440724Y-105306198D01*
X160440722Y-105306197D01*
X160278319Y-105233891D01*
X160278318Y-105233891D01*
X160272288Y-105231206D01*
X160170302Y-105209528D01*
X160091944Y-105192872D01*
X160091939Y-105192872D01*
X160085487Y-105191500D01*
X159894513Y-105191500D01*
X159888061Y-105192872D01*
X159888056Y-105192872D01*
X159809698Y-105209528D01*
X159707712Y-105231206D01*
X159701682Y-105233891D01*
X159701681Y-105233891D01*
X159539278Y-105306197D01*
X159539276Y-105306198D01*
X159533248Y-105308882D01*
X159527907Y-105312762D01*
X159527906Y-105312763D01*
X159504629Y-105329675D01*
X159378747Y-105421134D01*
X159374326Y-105426044D01*
X159374325Y-105426045D01*
X159263620Y-105548996D01*
X159250960Y-105563056D01*
X159155473Y-105728444D01*
X159096458Y-105910072D01*
X159095768Y-105916633D01*
X159095768Y-105916635D01*
X159079645Y-106070043D01*
X159076496Y-106100000D01*
X148736550Y-106100000D01*
X148720781Y-106085950D01*
X148720778Y-106085948D01*
X148715109Y-106080897D01*
X148694610Y-106070043D01*
X148570269Y-106004208D01*
X148570270Y-106004208D01*
X148563557Y-106000654D01*
X148552557Y-105997891D01*
X148404610Y-105960729D01*
X148404606Y-105960729D01*
X148397239Y-105958878D01*
X148389640Y-105958838D01*
X148389638Y-105958838D01*
X148318182Y-105958464D01*
X148225757Y-105957980D01*
X148218377Y-105959752D01*
X148218375Y-105959752D01*
X148066390Y-105996240D01*
X148066386Y-105996241D01*
X148059011Y-105998012D01*
X148052269Y-106001492D01*
X148052263Y-106001494D01*
X148017484Y-106019445D01*
X147947777Y-106032914D01*
X147929000Y-106029683D01*
X147806322Y-105998868D01*
X147806318Y-105998868D01*
X147798951Y-105997017D01*
X147791352Y-105996977D01*
X147791350Y-105996977D01*
X147719894Y-105996603D01*
X147627469Y-105996119D01*
X147620089Y-105997891D01*
X147620087Y-105997891D01*
X147468102Y-106034379D01*
X147468098Y-106034380D01*
X147460723Y-106036151D01*
X147308339Y-106114802D01*
X147179115Y-106227532D01*
X147080510Y-106367832D01*
X147058330Y-106424720D01*
X147030262Y-106496712D01*
X147018218Y-106527602D01*
X147017226Y-106535135D01*
X147017226Y-106535136D01*
X146997367Y-106685985D01*
X146995835Y-106697619D01*
X146999839Y-106733884D01*
X147013621Y-106858718D01*
X147014653Y-106868068D01*
X147017262Y-106875199D01*
X147017263Y-106875201D01*
X147027650Y-106903585D01*
X147052016Y-106970166D01*
X147056260Y-106981764D01*
X147060886Y-107052609D01*
X147026477Y-107114710D01*
X146967347Y-107147584D01*
X146911223Y-107161058D01*
X146758839Y-107239709D01*
X146629615Y-107352439D01*
X146531010Y-107492739D01*
X146506751Y-107554959D01*
X146472116Y-107643794D01*
X146468718Y-107652509D01*
X146467726Y-107660042D01*
X146467726Y-107660043D01*
X146452094Y-107778785D01*
X146446335Y-107822526D01*
X129592028Y-107822526D01*
X129639385Y-107704720D01*
X129648714Y-107639173D01*
X129662966Y-107539031D01*
X129662966Y-107539027D01*
X129663547Y-107534947D01*
X129663704Y-107520000D01*
X129658700Y-107478648D01*
X129644015Y-107357299D01*
X129644014Y-107357296D01*
X129643102Y-107349758D01*
X129640262Y-107342240D01*
X129585171Y-107196447D01*
X129582487Y-107189344D01*
X129561829Y-107159286D01*
X129489659Y-107054278D01*
X129489658Y-107054276D01*
X129485357Y-107048019D01*
X129454272Y-107020323D01*
X129362993Y-106938996D01*
X129362990Y-106938994D01*
X129357321Y-106933943D01*
X129349325Y-106929709D01*
X129232905Y-106868068D01*
X129205769Y-106853700D01*
X129198404Y-106851850D01*
X129046822Y-106813775D01*
X129046818Y-106813775D01*
X129039451Y-106811924D01*
X129031852Y-106811884D01*
X129031850Y-106811884D01*
X128960394Y-106811510D01*
X128867969Y-106811026D01*
X128860589Y-106812798D01*
X128860587Y-106812798D01*
X128708602Y-106849286D01*
X128708598Y-106849287D01*
X128701223Y-106851058D01*
X128694481Y-106854538D01*
X128694475Y-106854540D01*
X128628665Y-106888507D01*
X128558958Y-106901976D01*
X128493035Y-106875620D01*
X128451825Y-106817808D01*
X128444876Y-106776588D01*
X128444672Y-106232526D01*
X137496335Y-106232526D01*
X137504579Y-106307202D01*
X137512055Y-106374912D01*
X137515153Y-106402975D01*
X137517762Y-106410106D01*
X137517763Y-106410108D01*
X137525688Y-106431764D01*
X137574085Y-106564015D01*
X137578322Y-106570321D01*
X137578324Y-106570324D01*
X137610377Y-106618023D01*
X137669730Y-106706349D01*
X137699048Y-106733026D01*
X137789322Y-106815169D01*
X137796565Y-106821760D01*
X137947268Y-106903585D01*
X138113139Y-106947101D01*
X138200586Y-106948474D01*
X138277003Y-106949675D01*
X138277006Y-106949675D01*
X138284602Y-106949794D01*
X138292006Y-106948098D01*
X138292008Y-106948098D01*
X138372298Y-106929709D01*
X138386196Y-106926526D01*
X142034335Y-106926526D01*
X142053153Y-107096975D01*
X142055762Y-107104106D01*
X142055763Y-107104108D01*
X142061954Y-107121026D01*
X142112085Y-107258015D01*
X142116322Y-107264321D01*
X142116324Y-107264324D01*
X142120006Y-107269803D01*
X142207730Y-107400349D01*
X142248991Y-107437894D01*
X142299843Y-107484165D01*
X142334565Y-107515760D01*
X142485268Y-107597585D01*
X142651139Y-107641101D01*
X142738586Y-107642474D01*
X142815003Y-107643675D01*
X142815006Y-107643675D01*
X142822602Y-107643794D01*
X142830006Y-107642098D01*
X142830008Y-107642098D01*
X142897151Y-107626720D01*
X142989759Y-107605510D01*
X143142958Y-107528459D01*
X143148729Y-107523530D01*
X143148732Y-107523528D01*
X143267578Y-107422023D01*
X143273355Y-107417089D01*
X143373424Y-107277830D01*
X143437385Y-107118720D01*
X143451869Y-107016952D01*
X143460966Y-106953031D01*
X143460966Y-106953027D01*
X143461547Y-106948947D01*
X143461658Y-106938369D01*
X143482374Y-106870462D01*
X143536514Y-106824535D01*
X143606890Y-106815169D01*
X143619624Y-106817815D01*
X143685788Y-106835173D01*
X143685792Y-106835174D01*
X143693139Y-106837101D01*
X143780586Y-106838474D01*
X143857003Y-106839675D01*
X143857006Y-106839675D01*
X143864602Y-106839794D01*
X143872006Y-106838098D01*
X143872008Y-106838098D01*
X143943343Y-106821760D01*
X144031759Y-106801510D01*
X144184958Y-106724459D01*
X144190729Y-106719530D01*
X144190732Y-106719528D01*
X144309578Y-106618023D01*
X144315355Y-106613089D01*
X144393563Y-106504253D01*
X144410992Y-106479998D01*
X144410993Y-106479997D01*
X144415424Y-106473830D01*
X144479385Y-106314720D01*
X144483847Y-106283365D01*
X144502966Y-106149031D01*
X144502966Y-106149027D01*
X144503547Y-106144947D01*
X144503704Y-106130000D01*
X144494680Y-106055429D01*
X144484015Y-105967299D01*
X144484014Y-105967296D01*
X144483102Y-105959758D01*
X144466808Y-105916635D01*
X144425171Y-105806447D01*
X144422487Y-105799344D01*
X144373759Y-105728444D01*
X144329659Y-105664278D01*
X144329658Y-105664276D01*
X144325357Y-105658019D01*
X144319686Y-105652966D01*
X144202993Y-105548996D01*
X144202990Y-105548994D01*
X144197321Y-105543943D01*
X144189325Y-105539709D01*
X144052481Y-105467254D01*
X144052482Y-105467254D01*
X144045769Y-105463700D01*
X144028196Y-105459286D01*
X143886822Y-105423775D01*
X143886818Y-105423775D01*
X143879451Y-105421924D01*
X143871852Y-105421884D01*
X143871850Y-105421884D01*
X143800394Y-105421510D01*
X143707969Y-105421026D01*
X143700589Y-105422798D01*
X143700587Y-105422798D01*
X143548602Y-105459286D01*
X143548598Y-105459287D01*
X143541223Y-105461058D01*
X143388839Y-105539709D01*
X143259615Y-105652439D01*
X143161010Y-105792739D01*
X143129864Y-105872624D01*
X143115264Y-105910072D01*
X143098718Y-105952509D01*
X143097726Y-105960042D01*
X143097726Y-105960043D01*
X143079301Y-106100000D01*
X143076335Y-106122526D01*
X143076842Y-106127119D01*
X143056497Y-106193814D01*
X143002357Y-106239742D01*
X142931981Y-106249109D01*
X142920524Y-106246790D01*
X142844822Y-106227775D01*
X142844818Y-106227775D01*
X142837451Y-106225924D01*
X142829852Y-106225884D01*
X142829850Y-106225884D01*
X142758394Y-106225510D01*
X142665969Y-106225026D01*
X142658589Y-106226798D01*
X142658587Y-106226798D01*
X142506602Y-106263286D01*
X142506598Y-106263287D01*
X142499223Y-106265058D01*
X142346839Y-106343709D01*
X142217615Y-106456439D01*
X142119010Y-106596739D01*
X142110712Y-106618023D01*
X142062210Y-106742424D01*
X142056718Y-106756509D01*
X142055726Y-106764042D01*
X142055726Y-106764043D01*
X142036089Y-106913205D01*
X142034335Y-106926526D01*
X138386196Y-106926526D01*
X138451759Y-106911510D01*
X138604958Y-106834459D01*
X138610729Y-106829530D01*
X138610732Y-106829528D01*
X138729578Y-106728023D01*
X138735355Y-106723089D01*
X138835424Y-106583830D01*
X138899385Y-106424720D01*
X138908366Y-106361616D01*
X138922966Y-106259031D01*
X138922966Y-106259027D01*
X138923547Y-106254947D01*
X138923704Y-106240000D01*
X138911702Y-106140822D01*
X138904015Y-106077299D01*
X138904014Y-106077296D01*
X138903102Y-106069758D01*
X138891719Y-106039632D01*
X138845171Y-105916447D01*
X138842487Y-105909344D01*
X138762347Y-105792739D01*
X138749659Y-105774278D01*
X138749658Y-105774276D01*
X138745357Y-105768019D01*
X138739686Y-105762966D01*
X138622993Y-105658996D01*
X138622990Y-105658994D01*
X138617321Y-105653943D01*
X138609325Y-105649709D01*
X138513743Y-105599101D01*
X138465769Y-105573700D01*
X138425201Y-105563510D01*
X138306822Y-105533775D01*
X138306818Y-105533775D01*
X138299451Y-105531924D01*
X138291852Y-105531884D01*
X138291850Y-105531884D01*
X138220394Y-105531510D01*
X138127969Y-105531026D01*
X138120589Y-105532798D01*
X138120587Y-105532798D01*
X137968602Y-105569286D01*
X137968598Y-105569287D01*
X137961223Y-105571058D01*
X137808839Y-105649709D01*
X137679615Y-105762439D01*
X137581010Y-105902739D01*
X137558779Y-105959758D01*
X137527965Y-106038793D01*
X137518718Y-106062509D01*
X137517726Y-106070042D01*
X137517726Y-106070043D01*
X137497650Y-106222540D01*
X137496335Y-106232526D01*
X128444672Y-106232526D01*
X128444088Y-104672526D01*
X138806335Y-104672526D01*
X138811802Y-104722043D01*
X138820930Y-104804720D01*
X138825153Y-104842975D01*
X138827762Y-104850106D01*
X138827763Y-104850108D01*
X138843121Y-104892076D01*
X138884085Y-105004015D01*
X138979730Y-105146349D01*
X139106565Y-105261760D01*
X139257268Y-105343585D01*
X139423139Y-105387101D01*
X139510586Y-105388474D01*
X139587003Y-105389675D01*
X139587006Y-105389675D01*
X139594602Y-105389794D01*
X139602006Y-105388098D01*
X139602008Y-105388098D01*
X139685747Y-105368919D01*
X139761759Y-105351510D01*
X139914958Y-105274459D01*
X139960069Y-105235931D01*
X140024858Y-105206900D01*
X140095058Y-105217505D01*
X140102020Y-105221011D01*
X140217268Y-105283585D01*
X140383139Y-105327101D01*
X140470586Y-105328474D01*
X140547003Y-105329675D01*
X140547006Y-105329675D01*
X140554602Y-105329794D01*
X140562006Y-105328098D01*
X140562008Y-105328098D01*
X140628963Y-105312763D01*
X140721759Y-105291510D01*
X140874958Y-105214459D01*
X140880729Y-105209530D01*
X140880732Y-105209528D01*
X140999578Y-105108023D01*
X141005355Y-105103089D01*
X141105424Y-104963830D01*
X141137304Y-104884526D01*
X153454335Y-104884526D01*
X153473153Y-105054975D01*
X153475762Y-105062106D01*
X153475763Y-105062108D01*
X153483688Y-105083764D01*
X153532085Y-105216015D01*
X153536322Y-105222321D01*
X153536324Y-105222324D01*
X153565260Y-105265384D01*
X153627730Y-105358349D01*
X153657209Y-105385173D01*
X153698559Y-105422798D01*
X153754565Y-105473760D01*
X153905268Y-105555585D01*
X154071139Y-105599101D01*
X154158586Y-105600474D01*
X154235003Y-105601675D01*
X154235006Y-105601675D01*
X154242602Y-105601794D01*
X154250006Y-105600098D01*
X154250008Y-105600098D01*
X154349749Y-105577254D01*
X154409759Y-105563510D01*
X154562958Y-105486459D01*
X154568729Y-105481530D01*
X154568732Y-105481528D01*
X154687578Y-105380023D01*
X154693355Y-105375089D01*
X154793424Y-105235830D01*
X154857385Y-105076720D01*
X154861554Y-105047425D01*
X154880966Y-104911031D01*
X154880966Y-104911027D01*
X154881547Y-104906947D01*
X154881704Y-104892000D01*
X154861102Y-104721758D01*
X154826741Y-104630822D01*
X154803171Y-104568447D01*
X154800487Y-104561344D01*
X154738659Y-104471384D01*
X154707659Y-104426278D01*
X154707658Y-104426276D01*
X154703357Y-104420019D01*
X154697686Y-104414966D01*
X154580993Y-104310996D01*
X154580990Y-104310994D01*
X154575321Y-104305943D01*
X154567325Y-104301709D01*
X154466379Y-104248261D01*
X154423769Y-104225700D01*
X154406196Y-104221286D01*
X154264822Y-104185775D01*
X154264818Y-104185775D01*
X154257451Y-104183924D01*
X154249852Y-104183884D01*
X154249850Y-104183884D01*
X154178394Y-104183510D01*
X154085969Y-104183026D01*
X154078589Y-104184798D01*
X154078587Y-104184798D01*
X153926602Y-104221286D01*
X153926598Y-104221287D01*
X153919223Y-104223058D01*
X153766839Y-104301709D01*
X153637615Y-104414439D01*
X153539010Y-104554739D01*
X153523050Y-104595675D01*
X153493087Y-104672526D01*
X153476718Y-104714509D01*
X153475726Y-104722042D01*
X153475726Y-104722043D01*
X153464842Y-104804720D01*
X153454335Y-104884526D01*
X141137304Y-104884526D01*
X141169385Y-104804720D01*
X141182224Y-104714509D01*
X141192966Y-104639031D01*
X141192966Y-104639027D01*
X141193547Y-104634947D01*
X141193704Y-104620000D01*
X141184744Y-104545962D01*
X141174015Y-104457299D01*
X141174014Y-104457296D01*
X141173102Y-104449758D01*
X141164230Y-104426278D01*
X141120896Y-104311596D01*
X141120320Y-104303994D01*
X141114519Y-104294722D01*
X141112487Y-104289344D01*
X141108188Y-104283089D01*
X141108186Y-104283085D01*
X141019659Y-104154278D01*
X141019658Y-104154276D01*
X141015357Y-104148019D01*
X140955511Y-104094698D01*
X140892993Y-104038996D01*
X140892990Y-104038994D01*
X140887321Y-104033943D01*
X140879325Y-104029709D01*
X140773684Y-103973775D01*
X140735769Y-103953700D01*
X140718196Y-103949286D01*
X140576822Y-103913775D01*
X140576818Y-103913775D01*
X140569451Y-103911924D01*
X140561852Y-103911884D01*
X140561850Y-103911884D01*
X140490394Y-103911510D01*
X140397969Y-103911026D01*
X140390589Y-103912798D01*
X140390587Y-103912798D01*
X140238602Y-103949286D01*
X140238598Y-103949287D01*
X140231223Y-103951058D01*
X140078839Y-104029709D01*
X140041046Y-104062679D01*
X139976565Y-104092387D01*
X139906258Y-104082518D01*
X139899257Y-104079084D01*
X139883461Y-104070720D01*
X139775769Y-104013700D01*
X139732036Y-104002715D01*
X139616822Y-103973775D01*
X139616818Y-103973775D01*
X139609451Y-103971924D01*
X139601852Y-103971884D01*
X139601850Y-103971884D01*
X139530394Y-103971510D01*
X139437969Y-103971026D01*
X139430589Y-103972798D01*
X139430587Y-103972798D01*
X139278602Y-104009286D01*
X139278598Y-104009287D01*
X139271223Y-104011058D01*
X139118839Y-104089709D01*
X138989615Y-104202439D01*
X138891010Y-104342739D01*
X138885271Y-104357459D01*
X138835985Y-104483871D01*
X138828718Y-104502509D01*
X138827726Y-104510042D01*
X138827726Y-104510043D01*
X138810745Y-104639031D01*
X138806335Y-104672526D01*
X128444088Y-104672526D01*
X128444014Y-104474783D01*
X128463991Y-104406655D01*
X128517629Y-104360142D01*
X128587899Y-104350012D01*
X128599922Y-104352806D01*
X128599944Y-104352702D01*
X128785428Y-104392128D01*
X128785432Y-104392128D01*
X128791885Y-104393500D01*
X128988115Y-104393500D01*
X128994568Y-104392128D01*
X128994572Y-104392128D01*
X129084085Y-104373101D01*
X129180056Y-104352702D01*
X129186532Y-104349819D01*
X129273729Y-104310996D01*
X129338752Y-104282046D01*
X129409118Y-104272612D01*
X129441247Y-104282045D01*
X129506271Y-104310996D01*
X129593469Y-104349819D01*
X129599944Y-104352702D01*
X129695914Y-104373101D01*
X129785428Y-104392128D01*
X129785432Y-104392128D01*
X129791885Y-104393500D01*
X129988115Y-104393500D01*
X129994568Y-104392128D01*
X129994572Y-104392128D01*
X130079748Y-104374023D01*
X130180056Y-104352702D01*
X130183189Y-104351307D01*
X130252977Y-104349311D01*
X130265174Y-104353189D01*
X130354684Y-104386745D01*
X130416866Y-104393500D01*
X131363134Y-104393500D01*
X131425316Y-104386745D01*
X131561705Y-104335615D01*
X131678261Y-104248261D01*
X131765615Y-104131705D01*
X131816745Y-103995316D01*
X131823500Y-103933134D01*
X131823500Y-103878526D01*
X141272335Y-103878526D01*
X141276119Y-103912798D01*
X141289577Y-104034698D01*
X141291153Y-104048975D01*
X141293762Y-104056106D01*
X141293763Y-104056108D01*
X141342985Y-104190614D01*
X141343451Y-104197743D01*
X141348614Y-104205996D01*
X141350085Y-104210015D01*
X141354324Y-104216324D01*
X141354325Y-104216325D01*
X141359382Y-104223850D01*
X141445730Y-104352349D01*
X141508480Y-104409447D01*
X141561069Y-104457299D01*
X141572565Y-104467760D01*
X141723268Y-104549585D01*
X141889139Y-104593101D01*
X141976586Y-104594474D01*
X142053003Y-104595675D01*
X142053006Y-104595675D01*
X142060602Y-104595794D01*
X142068006Y-104594098D01*
X142068008Y-104594098D01*
X142180005Y-104568447D01*
X142227759Y-104557510D01*
X142380958Y-104480459D01*
X142386729Y-104475530D01*
X142386732Y-104475528D01*
X142505578Y-104374023D01*
X142511355Y-104369089D01*
X142594313Y-104253642D01*
X142606992Y-104235998D01*
X142606993Y-104235997D01*
X142611424Y-104229830D01*
X142675385Y-104070720D01*
X142684128Y-104009286D01*
X142698966Y-103905031D01*
X142698966Y-103905027D01*
X142699547Y-103900947D01*
X142699704Y-103886000D01*
X142690502Y-103809962D01*
X142680015Y-103723299D01*
X142680014Y-103723296D01*
X142679102Y-103715758D01*
X142618487Y-103555344D01*
X142521357Y-103414019D01*
X142515686Y-103408966D01*
X142398993Y-103304996D01*
X142398990Y-103304994D01*
X142393321Y-103299943D01*
X142385325Y-103295709D01*
X142248481Y-103223254D01*
X142248482Y-103223254D01*
X142241769Y-103219700D01*
X142224196Y-103215286D01*
X142082822Y-103179775D01*
X142082818Y-103179775D01*
X142075451Y-103177924D01*
X142067852Y-103177884D01*
X142067850Y-103177884D01*
X141996394Y-103177510D01*
X141903969Y-103177026D01*
X141896589Y-103178798D01*
X141896587Y-103178798D01*
X141744602Y-103215286D01*
X141744598Y-103215287D01*
X141737223Y-103217058D01*
X141584839Y-103295709D01*
X141455615Y-103408439D01*
X141357010Y-103548739D01*
X141294718Y-103708509D01*
X141293726Y-103716042D01*
X141293726Y-103716043D01*
X141274817Y-103859675D01*
X141272335Y-103878526D01*
X131823500Y-103878526D01*
X131823500Y-103142526D01*
X145206335Y-103142526D01*
X145214368Y-103215286D01*
X145223798Y-103300698D01*
X145225153Y-103312975D01*
X145227762Y-103320106D01*
X145227763Y-103320108D01*
X145235688Y-103341764D01*
X145284085Y-103474015D01*
X145379730Y-103616349D01*
X145506565Y-103731760D01*
X145657268Y-103813585D01*
X145823139Y-103857101D01*
X145910586Y-103858474D01*
X145987003Y-103859675D01*
X145987006Y-103859675D01*
X145994602Y-103859794D01*
X146002006Y-103858098D01*
X146002008Y-103858098D01*
X146064846Y-103843706D01*
X146161759Y-103821510D01*
X146314958Y-103744459D01*
X146320729Y-103739530D01*
X146320732Y-103739528D01*
X146439578Y-103638023D01*
X146445355Y-103633089D01*
X146545424Y-103493830D01*
X146609385Y-103334720D01*
X146614227Y-103300698D01*
X146632966Y-103169031D01*
X146632966Y-103169027D01*
X146633547Y-103164947D01*
X146633704Y-103150000D01*
X146613102Y-102979758D01*
X146592292Y-102924684D01*
X146555171Y-102826447D01*
X146552487Y-102819344D01*
X146469817Y-102699058D01*
X146459659Y-102684278D01*
X146459658Y-102684276D01*
X146455357Y-102678019D01*
X146449686Y-102672966D01*
X146332993Y-102568996D01*
X146332990Y-102568994D01*
X146327321Y-102563943D01*
X146319325Y-102559709D01*
X146182481Y-102487254D01*
X146182482Y-102487254D01*
X146175769Y-102483700D01*
X146158196Y-102479286D01*
X146016822Y-102443775D01*
X146016818Y-102443775D01*
X146009451Y-102441924D01*
X146001852Y-102441884D01*
X146001850Y-102441884D01*
X145930394Y-102441510D01*
X145837969Y-102441026D01*
X145830589Y-102442798D01*
X145830587Y-102442798D01*
X145678602Y-102479286D01*
X145678598Y-102479287D01*
X145671223Y-102481058D01*
X145518839Y-102559709D01*
X145389615Y-102672439D01*
X145291010Y-102812739D01*
X145228718Y-102972509D01*
X145206335Y-103142526D01*
X131823500Y-103142526D01*
X131823500Y-102986866D01*
X131816745Y-102924684D01*
X131765615Y-102788295D01*
X131748578Y-102765563D01*
X131723732Y-102699058D01*
X131738785Y-102629676D01*
X131748574Y-102614443D01*
X131765615Y-102591705D01*
X131816745Y-102455316D01*
X131823500Y-102393134D01*
X131823500Y-101446866D01*
X131816745Y-101384684D01*
X131765615Y-101248295D01*
X131744832Y-101220564D01*
X131719985Y-101154057D01*
X131735039Y-101084675D01*
X131744832Y-101069436D01*
X131760229Y-101048891D01*
X131765615Y-101041705D01*
X131816745Y-100905316D01*
X131823500Y-100843134D01*
X131823500Y-100403970D01*
X137527779Y-100403970D01*
X137536772Y-100485425D01*
X137541997Y-100532749D01*
X137546597Y-100574419D01*
X137549206Y-100581550D01*
X137549207Y-100581552D01*
X137557132Y-100603208D01*
X137605529Y-100735459D01*
X137609766Y-100741765D01*
X137609768Y-100741768D01*
X137642208Y-100790043D01*
X137701174Y-100877793D01*
X137828009Y-100993204D01*
X137978712Y-101075029D01*
X138144583Y-101118545D01*
X138232030Y-101119918D01*
X138308447Y-101121119D01*
X138308450Y-101121119D01*
X138316046Y-101121238D01*
X138323450Y-101119542D01*
X138323452Y-101119542D01*
X138408785Y-101099998D01*
X138483203Y-101082954D01*
X138636402Y-101005903D01*
X138642173Y-101000974D01*
X138642176Y-101000972D01*
X138761022Y-100899467D01*
X138766799Y-100894533D01*
X138841884Y-100790043D01*
X138862436Y-100761442D01*
X138862437Y-100761441D01*
X138866868Y-100755274D01*
X138871993Y-100742526D01*
X140726335Y-100742526D01*
X140733444Y-100806919D01*
X140743662Y-100899467D01*
X140745153Y-100912975D01*
X140747762Y-100920106D01*
X140747763Y-100920108D01*
X140755688Y-100941764D01*
X140804085Y-101074015D01*
X140808322Y-101080321D01*
X140808324Y-101080324D01*
X140834008Y-101118545D01*
X140899730Y-101216349D01*
X141026565Y-101331760D01*
X141177268Y-101413585D01*
X141343139Y-101457101D01*
X141430586Y-101458474D01*
X141507003Y-101459675D01*
X141507006Y-101459675D01*
X141514602Y-101459794D01*
X141522006Y-101458098D01*
X141522008Y-101458098D01*
X141585881Y-101443469D01*
X141681759Y-101421510D01*
X141834958Y-101344459D01*
X141840729Y-101339530D01*
X141840732Y-101339528D01*
X141959578Y-101238023D01*
X141965355Y-101233089D01*
X142065424Y-101093830D01*
X142129385Y-100934720D01*
X142141936Y-100846531D01*
X142152966Y-100769031D01*
X142152966Y-100769027D01*
X142153547Y-100764947D01*
X142153704Y-100750000D01*
X142141225Y-100646879D01*
X142134015Y-100587299D01*
X142134014Y-100587296D01*
X142133102Y-100579758D01*
X142108527Y-100514720D01*
X142075171Y-100426447D01*
X142072487Y-100419344D01*
X142024162Y-100349031D01*
X141979659Y-100284278D01*
X141979658Y-100284276D01*
X141975357Y-100278019D01*
X141969686Y-100272966D01*
X141852993Y-100168996D01*
X141852990Y-100168994D01*
X141847321Y-100163943D01*
X141839325Y-100159709D01*
X141759188Y-100117279D01*
X141695769Y-100083700D01*
X141659262Y-100074530D01*
X141536822Y-100043775D01*
X141536818Y-100043775D01*
X141529451Y-100041924D01*
X141521852Y-100041884D01*
X141521850Y-100041884D01*
X141450394Y-100041510D01*
X141357969Y-100041026D01*
X141350589Y-100042798D01*
X141350587Y-100042798D01*
X141198602Y-100079286D01*
X141198598Y-100079287D01*
X141191223Y-100081058D01*
X141038839Y-100159709D01*
X140909615Y-100272439D01*
X140811010Y-100412739D01*
X140748718Y-100572509D01*
X140747726Y-100580042D01*
X140747726Y-100580043D01*
X140728205Y-100728323D01*
X140726335Y-100742526D01*
X138871993Y-100742526D01*
X138930829Y-100596164D01*
X138954991Y-100426391D01*
X138955148Y-100411444D01*
X138939759Y-100284278D01*
X138935459Y-100248743D01*
X138935458Y-100248740D01*
X138934546Y-100241202D01*
X138927123Y-100221556D01*
X138876615Y-100087891D01*
X138873931Y-100080788D01*
X138865119Y-100067967D01*
X138781103Y-99945722D01*
X138781102Y-99945720D01*
X138776801Y-99939463D01*
X138771130Y-99934410D01*
X138654437Y-99830440D01*
X138654434Y-99830438D01*
X138648765Y-99825387D01*
X138640769Y-99821153D01*
X138503925Y-99748698D01*
X138503926Y-99748698D01*
X138497213Y-99745144D01*
X138476734Y-99740000D01*
X138338266Y-99705219D01*
X138338262Y-99705219D01*
X138330895Y-99703368D01*
X138323296Y-99703328D01*
X138323294Y-99703328D01*
X138251838Y-99702954D01*
X138159413Y-99702470D01*
X138152033Y-99704242D01*
X138152031Y-99704242D01*
X138000046Y-99740730D01*
X138000042Y-99740731D01*
X137992667Y-99742502D01*
X137840283Y-99821153D01*
X137711059Y-99933883D01*
X137612454Y-100074183D01*
X137581859Y-100152654D01*
X137557402Y-100215384D01*
X137550162Y-100233953D01*
X137549170Y-100241486D01*
X137549170Y-100241487D01*
X137535012Y-100349031D01*
X137527779Y-100403970D01*
X131823500Y-100403970D01*
X131823500Y-99896866D01*
X131816745Y-99834684D01*
X131765615Y-99698295D01*
X131748578Y-99675563D01*
X131728764Y-99622526D01*
X150566335Y-99622526D01*
X150569787Y-99653794D01*
X150580298Y-99748996D01*
X150585153Y-99792975D01*
X150587762Y-99800106D01*
X150587763Y-99800108D01*
X150608956Y-99858019D01*
X150644085Y-99954015D01*
X150739730Y-100096349D01*
X150866565Y-100211760D01*
X150873240Y-100215384D01*
X150881279Y-100219749D01*
X150931600Y-100269831D01*
X150944866Y-100322688D01*
X150946335Y-100322526D01*
X150957347Y-100422266D01*
X150965153Y-100492975D01*
X150967762Y-100500106D01*
X150967763Y-100500108D01*
X150975688Y-100521764D01*
X151024085Y-100654015D01*
X151119730Y-100796349D01*
X151167391Y-100839717D01*
X151230850Y-100897460D01*
X151246565Y-100911760D01*
X151397268Y-100993585D01*
X151563139Y-101037101D01*
X151650586Y-101038474D01*
X151727003Y-101039675D01*
X151727006Y-101039675D01*
X151734602Y-101039794D01*
X151742006Y-101038098D01*
X151742008Y-101038098D01*
X151804846Y-101023706D01*
X151901759Y-101001510D01*
X152054958Y-100924459D01*
X152060729Y-100919530D01*
X152060732Y-100919528D01*
X152179578Y-100818023D01*
X152185355Y-100813089D01*
X152285424Y-100673830D01*
X152349385Y-100514720D01*
X152363726Y-100413955D01*
X152372966Y-100349031D01*
X152372966Y-100349027D01*
X152373547Y-100344947D01*
X152373704Y-100330000D01*
X152367490Y-100278653D01*
X152354015Y-100167299D01*
X152354014Y-100167296D01*
X152353102Y-100159758D01*
X152323442Y-100081263D01*
X152295171Y-100006447D01*
X152292487Y-99999344D01*
X152251332Y-99939463D01*
X152199659Y-99864278D01*
X152199658Y-99864276D01*
X152195357Y-99858019D01*
X152186357Y-99850000D01*
X158146496Y-99850000D01*
X158147186Y-99856565D01*
X158162193Y-99999344D01*
X158166458Y-100039928D01*
X158225473Y-100221556D01*
X158320960Y-100386944D01*
X158325378Y-100391851D01*
X158325379Y-100391852D01*
X158416431Y-100492975D01*
X158448747Y-100528866D01*
X158603248Y-100641118D01*
X158609276Y-100643802D01*
X158609278Y-100643803D01*
X158690574Y-100679998D01*
X158777712Y-100718794D01*
X158871113Y-100738647D01*
X158958056Y-100757128D01*
X158958061Y-100757128D01*
X158964513Y-100758500D01*
X159155487Y-100758500D01*
X159161939Y-100757128D01*
X159161944Y-100757128D01*
X159248888Y-100738647D01*
X159342288Y-100718794D01*
X159429426Y-100679998D01*
X159510722Y-100643803D01*
X159510724Y-100643802D01*
X159516752Y-100641118D01*
X159671253Y-100528866D01*
X159703569Y-100492975D01*
X159794621Y-100391852D01*
X159794622Y-100391851D01*
X159799040Y-100386944D01*
X159894527Y-100221556D01*
X159953542Y-100039928D01*
X159957808Y-99999344D01*
X159972814Y-99856565D01*
X159973504Y-99850000D01*
X159962206Y-99742502D01*
X159961943Y-99740000D01*
X160666496Y-99740000D01*
X160667186Y-99746565D01*
X160676448Y-99834684D01*
X160686458Y-99929928D01*
X160745473Y-100111556D01*
X160840960Y-100276944D01*
X160845378Y-100281851D01*
X160845379Y-100281852D01*
X160957633Y-100406523D01*
X160968747Y-100418866D01*
X161060357Y-100485425D01*
X161090331Y-100507202D01*
X161123248Y-100531118D01*
X161129276Y-100533802D01*
X161129278Y-100533803D01*
X161291681Y-100606109D01*
X161297712Y-100608794D01*
X161391112Y-100628647D01*
X161478056Y-100647128D01*
X161478061Y-100647128D01*
X161484513Y-100648500D01*
X161675487Y-100648500D01*
X161681939Y-100647128D01*
X161681944Y-100647128D01*
X161768887Y-100628647D01*
X161862288Y-100608794D01*
X161868319Y-100606109D01*
X162030722Y-100533803D01*
X162030724Y-100533802D01*
X162036752Y-100531118D01*
X162069670Y-100507202D01*
X162099643Y-100485425D01*
X162191253Y-100418866D01*
X162202367Y-100406523D01*
X162314621Y-100281852D01*
X162314622Y-100281851D01*
X162319040Y-100276944D01*
X162414527Y-100111556D01*
X162473542Y-99929928D01*
X162483553Y-99834684D01*
X162492814Y-99746565D01*
X162493504Y-99740000D01*
X162489564Y-99702510D01*
X162474232Y-99556635D01*
X162474232Y-99556633D01*
X162473542Y-99550072D01*
X162414527Y-99368444D01*
X162408186Y-99357460D01*
X162322341Y-99208774D01*
X162319040Y-99203056D01*
X162290298Y-99171134D01*
X162195675Y-99066045D01*
X162195674Y-99066044D01*
X162191253Y-99061134D01*
X162036752Y-98948882D01*
X162030724Y-98946198D01*
X162030722Y-98946197D01*
X161868319Y-98873891D01*
X161868318Y-98873891D01*
X161862288Y-98871206D01*
X161768888Y-98851353D01*
X161681944Y-98832872D01*
X161681939Y-98832872D01*
X161675487Y-98831500D01*
X161484513Y-98831500D01*
X161478061Y-98832872D01*
X161478056Y-98832872D01*
X161391112Y-98851353D01*
X161297712Y-98871206D01*
X161291682Y-98873891D01*
X161291681Y-98873891D01*
X161129278Y-98946197D01*
X161129276Y-98946198D01*
X161123248Y-98948882D01*
X160968747Y-99061134D01*
X160964326Y-99066044D01*
X160964325Y-99066045D01*
X160869703Y-99171134D01*
X160840960Y-99203056D01*
X160837659Y-99208774D01*
X160751815Y-99357460D01*
X160745473Y-99368444D01*
X160686458Y-99550072D01*
X160685768Y-99556633D01*
X160685768Y-99556635D01*
X160670436Y-99702510D01*
X160666496Y-99740000D01*
X159961943Y-99740000D01*
X159954232Y-99666635D01*
X159954232Y-99666633D01*
X159953542Y-99660072D01*
X159894527Y-99478444D01*
X159888093Y-99467299D01*
X159802341Y-99318774D01*
X159799040Y-99313056D01*
X159787122Y-99299819D01*
X159675675Y-99176045D01*
X159675674Y-99176044D01*
X159671253Y-99171134D01*
X159516752Y-99058882D01*
X159510724Y-99056198D01*
X159510722Y-99056197D01*
X159348319Y-98983891D01*
X159348318Y-98983891D01*
X159342288Y-98981206D01*
X159239163Y-98959286D01*
X159161944Y-98942872D01*
X159161939Y-98942872D01*
X159155487Y-98941500D01*
X158964513Y-98941500D01*
X158958061Y-98942872D01*
X158958056Y-98942872D01*
X158880837Y-98959286D01*
X158777712Y-98981206D01*
X158771682Y-98983891D01*
X158771681Y-98983891D01*
X158609278Y-99056197D01*
X158609276Y-99056198D01*
X158603248Y-99058882D01*
X158448747Y-99171134D01*
X158444326Y-99176044D01*
X158444325Y-99176045D01*
X158332879Y-99299819D01*
X158320960Y-99313056D01*
X158317659Y-99318774D01*
X158231908Y-99467299D01*
X158225473Y-99478444D01*
X158166458Y-99660072D01*
X158165768Y-99666633D01*
X158165768Y-99666635D01*
X158157794Y-99742502D01*
X158146496Y-99850000D01*
X152186357Y-99850000D01*
X152178989Y-99843435D01*
X152072992Y-99748996D01*
X152067321Y-99743943D01*
X152060611Y-99740390D01*
X152054368Y-99736051D01*
X152055092Y-99735009D01*
X152009770Y-99690841D01*
X151993761Y-99635959D01*
X151993661Y-99634134D01*
X151993704Y-99630000D01*
X151984826Y-99556635D01*
X151974015Y-99467299D01*
X151974014Y-99467296D01*
X151973102Y-99459758D01*
X151940973Y-99374729D01*
X151915171Y-99306447D01*
X151912487Y-99299344D01*
X151815357Y-99158019D01*
X151809686Y-99152966D01*
X151692993Y-99048996D01*
X151692990Y-99048994D01*
X151687321Y-99043943D01*
X151679325Y-99039709D01*
X151568832Y-98981206D01*
X151535769Y-98963700D01*
X151492227Y-98952763D01*
X151376822Y-98923775D01*
X151376818Y-98923775D01*
X151369451Y-98921924D01*
X151361852Y-98921884D01*
X151361850Y-98921884D01*
X151290394Y-98921510D01*
X151197969Y-98921026D01*
X151190589Y-98922798D01*
X151190587Y-98922798D01*
X151038602Y-98959286D01*
X151038598Y-98959287D01*
X151031223Y-98961058D01*
X150878839Y-99039709D01*
X150749615Y-99152439D01*
X150651010Y-99292739D01*
X150588718Y-99452509D01*
X150587726Y-99460042D01*
X150587726Y-99460043D01*
X150569301Y-99600000D01*
X150566335Y-99622526D01*
X131728764Y-99622526D01*
X131723732Y-99609058D01*
X131738785Y-99539676D01*
X131748574Y-99524443D01*
X131765615Y-99501705D01*
X131816745Y-99365316D01*
X131823500Y-99303134D01*
X131823500Y-98356866D01*
X131816745Y-98294684D01*
X131765615Y-98158295D01*
X131678261Y-98041739D01*
X131561705Y-97954385D01*
X131425316Y-97903255D01*
X131363134Y-97896500D01*
X131311737Y-97896500D01*
X131243616Y-97876498D01*
X131197123Y-97822842D01*
X131186427Y-97757331D01*
X131191662Y-97707526D01*
X146116335Y-97707526D01*
X146135153Y-97877975D01*
X146137762Y-97885106D01*
X146137763Y-97885108D01*
X146143679Y-97901273D01*
X146194085Y-98039015D01*
X146198322Y-98045321D01*
X146198324Y-98045324D01*
X146216523Y-98072406D01*
X146289730Y-98181349D01*
X146336653Y-98224046D01*
X146402149Y-98283642D01*
X146416565Y-98296760D01*
X146567268Y-98378585D01*
X146733139Y-98422101D01*
X146820586Y-98423474D01*
X146897003Y-98424675D01*
X146897006Y-98424675D01*
X146904602Y-98424794D01*
X146912006Y-98423098D01*
X146912008Y-98423098D01*
X147016028Y-98399274D01*
X147071759Y-98386510D01*
X147224958Y-98309459D01*
X147230729Y-98304530D01*
X147230732Y-98304528D01*
X147349578Y-98203023D01*
X147355355Y-98198089D01*
X147455424Y-98058830D01*
X147519385Y-97899720D01*
X147523554Y-97870425D01*
X147542966Y-97734031D01*
X147542966Y-97734027D01*
X147543547Y-97729947D01*
X147543704Y-97715000D01*
X147542799Y-97707526D01*
X150870012Y-97707526D01*
X150888830Y-97877975D01*
X150891439Y-97885106D01*
X150891440Y-97885108D01*
X150897356Y-97901273D01*
X150947762Y-98039015D01*
X150951999Y-98045321D01*
X150952001Y-98045324D01*
X150970200Y-98072406D01*
X151043407Y-98181349D01*
X151090330Y-98224046D01*
X151155826Y-98283642D01*
X151170242Y-98296760D01*
X151320945Y-98378585D01*
X151486816Y-98422101D01*
X151574263Y-98423474D01*
X151650680Y-98424675D01*
X151650683Y-98424675D01*
X151658279Y-98424794D01*
X151665683Y-98423098D01*
X151665685Y-98423098D01*
X151769705Y-98399274D01*
X151825436Y-98386510D01*
X151919140Y-98339382D01*
X151988984Y-98326644D01*
X152054628Y-98353688D01*
X152080335Y-98381670D01*
X152173104Y-98519724D01*
X152299939Y-98635135D01*
X152450642Y-98716960D01*
X152616513Y-98760476D01*
X152703960Y-98761849D01*
X152780377Y-98763050D01*
X152780380Y-98763050D01*
X152787976Y-98763169D01*
X152795380Y-98761473D01*
X152795382Y-98761473D01*
X152858220Y-98747081D01*
X152955133Y-98724885D01*
X153108332Y-98647834D01*
X153114103Y-98642905D01*
X153114106Y-98642903D01*
X153232952Y-98541398D01*
X153238729Y-98536464D01*
X153338798Y-98397205D01*
X153402759Y-98238095D01*
X153404758Y-98224046D01*
X153426340Y-98072406D01*
X153426340Y-98072402D01*
X153426921Y-98068322D01*
X153427078Y-98053375D01*
X153421563Y-98007801D01*
X153407389Y-97890674D01*
X153407388Y-97890671D01*
X153406476Y-97883133D01*
X153381155Y-97816121D01*
X153348545Y-97729822D01*
X153345861Y-97722719D01*
X153318862Y-97683435D01*
X153253033Y-97587653D01*
X153253032Y-97587651D01*
X153248731Y-97581394D01*
X153199476Y-97537509D01*
X153126367Y-97472371D01*
X153126364Y-97472369D01*
X153120695Y-97467318D01*
X153112699Y-97463084D01*
X152975855Y-97390629D01*
X152975856Y-97390629D01*
X152969143Y-97387075D01*
X152961778Y-97385225D01*
X152810196Y-97347150D01*
X152810192Y-97347150D01*
X152802825Y-97345299D01*
X152795226Y-97345259D01*
X152795224Y-97345259D01*
X152723768Y-97344885D01*
X152631343Y-97344401D01*
X152623963Y-97346173D01*
X152623961Y-97346173D01*
X152471976Y-97382661D01*
X152471972Y-97382662D01*
X152464597Y-97384433D01*
X152457855Y-97387913D01*
X152457849Y-97387915D01*
X152379560Y-97428323D01*
X152309853Y-97441792D01*
X152243930Y-97415436D01*
X152217394Y-97383499D01*
X152216164Y-97384344D01*
X152123336Y-97249278D01*
X152123335Y-97249276D01*
X152119034Y-97243019D01*
X152113363Y-97237966D01*
X151996670Y-97133996D01*
X151996667Y-97133994D01*
X151990998Y-97128943D01*
X151983002Y-97124709D01*
X151890670Y-97075822D01*
X151839446Y-97048700D01*
X151821873Y-97044286D01*
X151680499Y-97008775D01*
X151680495Y-97008775D01*
X151673128Y-97006924D01*
X151665529Y-97006884D01*
X151665527Y-97006884D01*
X151594071Y-97006510D01*
X151501646Y-97006026D01*
X151494266Y-97007798D01*
X151494264Y-97007798D01*
X151342279Y-97044286D01*
X151342275Y-97044287D01*
X151334900Y-97046058D01*
X151182516Y-97124709D01*
X151053292Y-97237439D01*
X150954687Y-97377739D01*
X150931691Y-97436720D01*
X150900052Y-97517871D01*
X150892395Y-97537509D01*
X150891403Y-97545042D01*
X150891403Y-97545043D01*
X150873184Y-97683435D01*
X150870012Y-97707526D01*
X147542799Y-97707526D01*
X147533378Y-97629675D01*
X147524015Y-97552299D01*
X147524014Y-97552296D01*
X147523102Y-97544758D01*
X147517688Y-97530429D01*
X147481199Y-97433862D01*
X147475831Y-97363069D01*
X147482157Y-97342329D01*
X147516553Y-97256764D01*
X147519385Y-97249720D01*
X147523554Y-97220425D01*
X147542966Y-97084031D01*
X147542966Y-97084027D01*
X147543547Y-97079947D01*
X147543704Y-97065000D01*
X147536782Y-97007798D01*
X147524015Y-96902299D01*
X147524014Y-96902296D01*
X147523102Y-96894758D01*
X147504789Y-96846292D01*
X147465171Y-96741447D01*
X147462487Y-96734344D01*
X147365357Y-96593019D01*
X147359686Y-96587966D01*
X147242993Y-96483996D01*
X147242990Y-96483994D01*
X147237321Y-96478943D01*
X147229325Y-96474709D01*
X147092481Y-96402254D01*
X147092482Y-96402254D01*
X147085769Y-96398700D01*
X147068196Y-96394286D01*
X146926822Y-96358775D01*
X146926818Y-96358775D01*
X146919451Y-96356924D01*
X146911852Y-96356884D01*
X146911850Y-96356884D01*
X146840394Y-96356510D01*
X146747969Y-96356026D01*
X146740589Y-96357798D01*
X146740587Y-96357798D01*
X146588602Y-96394286D01*
X146588598Y-96394287D01*
X146581223Y-96396058D01*
X146428839Y-96474709D01*
X146299615Y-96587439D01*
X146201010Y-96727739D01*
X146169864Y-96807624D01*
X146165704Y-96818295D01*
X146138718Y-96887509D01*
X146137726Y-96895042D01*
X146137726Y-96895043D01*
X146117387Y-97049539D01*
X146116335Y-97057526D01*
X146135153Y-97227975D01*
X146137762Y-97235106D01*
X146137763Y-97235108D01*
X146178947Y-97347649D01*
X146183573Y-97418495D01*
X146178014Y-97436720D01*
X146146375Y-97517871D01*
X146138718Y-97537509D01*
X146137726Y-97545042D01*
X146137726Y-97545043D01*
X146119507Y-97683435D01*
X146116335Y-97707526D01*
X131191662Y-97707526D01*
X131193504Y-97690000D01*
X131186893Y-97627101D01*
X131174232Y-97506635D01*
X131174232Y-97506633D01*
X131173542Y-97500072D01*
X131114527Y-97318444D01*
X131019040Y-97153056D01*
X130998009Y-97129698D01*
X130895675Y-97016045D01*
X130895674Y-97016044D01*
X130891253Y-97011134D01*
X130786391Y-96934947D01*
X130755531Y-96912526D01*
X133966335Y-96912526D01*
X133971857Y-96962540D01*
X133983625Y-97069133D01*
X133985153Y-97082975D01*
X133987762Y-97090106D01*
X133987763Y-97090108D01*
X134000425Y-97124709D01*
X134044085Y-97244015D01*
X134139730Y-97386349D01*
X134266565Y-97501760D01*
X134417268Y-97583585D01*
X134583139Y-97627101D01*
X134670586Y-97628474D01*
X134747003Y-97629675D01*
X134747006Y-97629675D01*
X134754602Y-97629794D01*
X134762006Y-97628098D01*
X134762008Y-97628098D01*
X134824846Y-97613706D01*
X134921759Y-97591510D01*
X135074958Y-97514459D01*
X135080729Y-97509530D01*
X135080732Y-97509528D01*
X135199578Y-97408023D01*
X135205355Y-97403089D01*
X135305424Y-97263830D01*
X135369385Y-97104720D01*
X135371465Y-97090108D01*
X135392966Y-96939031D01*
X135392966Y-96939027D01*
X135393547Y-96934947D01*
X135393704Y-96920000D01*
X135382073Y-96823891D01*
X135374015Y-96757299D01*
X135374014Y-96757296D01*
X135373102Y-96749758D01*
X135351065Y-96691437D01*
X135315171Y-96596447D01*
X135312487Y-96589344D01*
X135244210Y-96490000D01*
X135219659Y-96454278D01*
X135219658Y-96454276D01*
X135215357Y-96448019D01*
X135209686Y-96442966D01*
X135092993Y-96338996D01*
X135092990Y-96338994D01*
X135087321Y-96333943D01*
X135079325Y-96329709D01*
X134942481Y-96257254D01*
X134942482Y-96257254D01*
X134935769Y-96253700D01*
X134918196Y-96249286D01*
X134776822Y-96213775D01*
X134776818Y-96213775D01*
X134769451Y-96211924D01*
X134761852Y-96211884D01*
X134761850Y-96211884D01*
X134690394Y-96211510D01*
X134597969Y-96211026D01*
X134590589Y-96212798D01*
X134590587Y-96212798D01*
X134438602Y-96249286D01*
X134438598Y-96249287D01*
X134431223Y-96251058D01*
X134278839Y-96329709D01*
X134149615Y-96442439D01*
X134051010Y-96582739D01*
X134044562Y-96599278D01*
X133994477Y-96727739D01*
X133988718Y-96742509D01*
X133987726Y-96750042D01*
X133987726Y-96750043D01*
X133968485Y-96896197D01*
X133966335Y-96912526D01*
X130755531Y-96912526D01*
X130742094Y-96902763D01*
X130742093Y-96902762D01*
X130736752Y-96898882D01*
X130730724Y-96896198D01*
X130730722Y-96896197D01*
X130568319Y-96823891D01*
X130568318Y-96823891D01*
X130562288Y-96821206D01*
X130468887Y-96801353D01*
X130381944Y-96782872D01*
X130381939Y-96782872D01*
X130375487Y-96781500D01*
X130184513Y-96781500D01*
X130178061Y-96782872D01*
X130178056Y-96782872D01*
X130091113Y-96801353D01*
X129997712Y-96821206D01*
X129991682Y-96823891D01*
X129991681Y-96823891D01*
X129829278Y-96896197D01*
X129829276Y-96896198D01*
X129823248Y-96898882D01*
X129817907Y-96902762D01*
X129817906Y-96902763D01*
X129773609Y-96934947D01*
X129668747Y-97011134D01*
X129664326Y-97016044D01*
X129664325Y-97016045D01*
X129561992Y-97129698D01*
X129540960Y-97153056D01*
X129445473Y-97318444D01*
X129386458Y-97500072D01*
X129385768Y-97506633D01*
X129385768Y-97506635D01*
X129373107Y-97627101D01*
X129366496Y-97690000D01*
X129373573Y-97757329D01*
X129380105Y-97819478D01*
X129367333Y-97889317D01*
X129318831Y-97941163D01*
X129249998Y-97958558D01*
X129203548Y-97947756D01*
X129186095Y-97939986D01*
X129186089Y-97939984D01*
X129180056Y-97937298D01*
X129084086Y-97916899D01*
X128994572Y-97897872D01*
X128994568Y-97897872D01*
X128988115Y-97896500D01*
X128791885Y-97896500D01*
X128785432Y-97897872D01*
X128785428Y-97897872D01*
X128599944Y-97937298D01*
X128599689Y-97936100D01*
X128535490Y-97937935D01*
X128474692Y-97901273D01*
X128443367Y-97837561D01*
X128441521Y-97816121D01*
X128441481Y-97707526D01*
X128440653Y-95496526D01*
X131112335Y-95496526D01*
X131121744Y-95581751D01*
X131129878Y-95655425D01*
X131131153Y-95666975D01*
X131133762Y-95674106D01*
X131133763Y-95674108D01*
X131140224Y-95691764D01*
X131190085Y-95828015D01*
X131194322Y-95834321D01*
X131194324Y-95834324D01*
X131223340Y-95877503D01*
X131285730Y-95970349D01*
X131412565Y-96085760D01*
X131563268Y-96167585D01*
X131729139Y-96211101D01*
X131816586Y-96212474D01*
X131893003Y-96213675D01*
X131893006Y-96213675D01*
X131900602Y-96213794D01*
X131908006Y-96212098D01*
X131908008Y-96212098D01*
X131970846Y-96197706D01*
X132067759Y-96175510D01*
X132220958Y-96098459D01*
X132226729Y-96093530D01*
X132226732Y-96093528D01*
X132345578Y-95992023D01*
X132351355Y-95987089D01*
X132451424Y-95847830D01*
X132515385Y-95688720D01*
X132536006Y-95543830D01*
X132538966Y-95523031D01*
X132538966Y-95523027D01*
X132539547Y-95518947D01*
X132539662Y-95508011D01*
X132544386Y-95492526D01*
X135496335Y-95492526D01*
X135515153Y-95662975D01*
X135517762Y-95670106D01*
X135517763Y-95670108D01*
X135524319Y-95688023D01*
X135574085Y-95824015D01*
X135578322Y-95830321D01*
X135578324Y-95830324D01*
X135622621Y-95896244D01*
X135669730Y-95966349D01*
X135796565Y-96081760D01*
X135947268Y-96163585D01*
X136113139Y-96207101D01*
X136200586Y-96208474D01*
X136277003Y-96209675D01*
X136277006Y-96209675D01*
X136284602Y-96209794D01*
X136292006Y-96208098D01*
X136292008Y-96208098D01*
X136354846Y-96193706D01*
X136451759Y-96171510D01*
X136604958Y-96094459D01*
X136610729Y-96089530D01*
X136610732Y-96089528D01*
X136729578Y-95988023D01*
X136735355Y-95983089D01*
X136815534Y-95871510D01*
X136830992Y-95849998D01*
X136830993Y-95849997D01*
X136835424Y-95843830D01*
X136899385Y-95684720D01*
X136901465Y-95670108D01*
X136922966Y-95519031D01*
X136922966Y-95519027D01*
X136923547Y-95514947D01*
X136923704Y-95500000D01*
X136914411Y-95423205D01*
X136904015Y-95337299D01*
X136904014Y-95337296D01*
X136903102Y-95329758D01*
X136879358Y-95266919D01*
X136845171Y-95176447D01*
X136842487Y-95169344D01*
X136837948Y-95162739D01*
X136749659Y-95034278D01*
X136749658Y-95034276D01*
X136745357Y-95028019D01*
X136739686Y-95022966D01*
X136622993Y-94918996D01*
X136622990Y-94918994D01*
X136617321Y-94913943D01*
X136609325Y-94909709D01*
X136533986Y-94869819D01*
X136465769Y-94833700D01*
X136448196Y-94829286D01*
X136306822Y-94793775D01*
X136306818Y-94793775D01*
X136299451Y-94791924D01*
X136291852Y-94791884D01*
X136291850Y-94791884D01*
X136220394Y-94791510D01*
X136127969Y-94791026D01*
X136120589Y-94792798D01*
X136120587Y-94792798D01*
X135968602Y-94829286D01*
X135968598Y-94829287D01*
X135961223Y-94831058D01*
X135808839Y-94909709D01*
X135679615Y-95022439D01*
X135581010Y-95162739D01*
X135566453Y-95200076D01*
X135526945Y-95301409D01*
X135518718Y-95322509D01*
X135517726Y-95330042D01*
X135517726Y-95330043D01*
X135497532Y-95483435D01*
X135496335Y-95492526D01*
X132544386Y-95492526D01*
X132560379Y-95440104D01*
X132609041Y-95396771D01*
X132722174Y-95339871D01*
X132728958Y-95336459D01*
X132734729Y-95331530D01*
X132734732Y-95331528D01*
X132853578Y-95230023D01*
X132859355Y-95225089D01*
X132944299Y-95106879D01*
X132954992Y-95091998D01*
X132954993Y-95091997D01*
X132959424Y-95085830D01*
X133023385Y-94926720D01*
X133032491Y-94862739D01*
X133046966Y-94761031D01*
X133046966Y-94761027D01*
X133047547Y-94756947D01*
X133047662Y-94746011D01*
X133068379Y-94678104D01*
X133117041Y-94634771D01*
X133230174Y-94577871D01*
X133236958Y-94574459D01*
X133242729Y-94569530D01*
X133242732Y-94569528D01*
X133361578Y-94468023D01*
X133367355Y-94463089D01*
X133467424Y-94323830D01*
X133531385Y-94164720D01*
X133542515Y-94086517D01*
X133554966Y-93999031D01*
X133554966Y-93999027D01*
X133555547Y-93994947D01*
X133555704Y-93980000D01*
X133544228Y-93885173D01*
X133536015Y-93817301D01*
X133536015Y-93817300D01*
X133535102Y-93809758D01*
X133528848Y-93793207D01*
X133523481Y-93722414D01*
X133557240Y-93659957D01*
X133592687Y-93637355D01*
X133591759Y-93635510D01*
X133738174Y-93561871D01*
X133744958Y-93558459D01*
X133750729Y-93553530D01*
X133750732Y-93553528D01*
X133869578Y-93452023D01*
X133875355Y-93447089D01*
X133958690Y-93331118D01*
X133970992Y-93313998D01*
X133970993Y-93313997D01*
X133975424Y-93307830D01*
X134029815Y-93172526D01*
X138366335Y-93172526D01*
X138370909Y-93213955D01*
X138382014Y-93314539D01*
X138385153Y-93342975D01*
X138387762Y-93350106D01*
X138387763Y-93350108D01*
X138395688Y-93371764D01*
X138444085Y-93504015D01*
X138448322Y-93510321D01*
X138448324Y-93510324D01*
X138480670Y-93558459D01*
X138539730Y-93646349D01*
X138576964Y-93680229D01*
X138646498Y-93743500D01*
X138666565Y-93761760D01*
X138817268Y-93843585D01*
X138983139Y-93887101D01*
X139064140Y-93888373D01*
X139146999Y-93889675D01*
X139147002Y-93889675D01*
X139154602Y-93889794D01*
X139155332Y-93889627D01*
X139222295Y-93901873D01*
X139274142Y-93950374D01*
X139291537Y-94019207D01*
X139268956Y-94086517D01*
X139223418Y-94126377D01*
X139192382Y-94142396D01*
X139158839Y-94159709D01*
X139029615Y-94272439D01*
X138931010Y-94412739D01*
X138912664Y-94459794D01*
X138874425Y-94557872D01*
X138868718Y-94572509D01*
X138867726Y-94580042D01*
X138867726Y-94580043D01*
X138847421Y-94734278D01*
X138846335Y-94742526D01*
X138853437Y-94806853D01*
X138858921Y-94856523D01*
X138865153Y-94912975D01*
X138867762Y-94920106D01*
X138867763Y-94920108D01*
X138874413Y-94938280D01*
X138924085Y-95074015D01*
X138928322Y-95080321D01*
X138928324Y-95080324D01*
X138959545Y-95126785D01*
X139019730Y-95216349D01*
X139056759Y-95250043D01*
X139136558Y-95322654D01*
X139146565Y-95331760D01*
X139297268Y-95413585D01*
X139463139Y-95457101D01*
X139550586Y-95458474D01*
X139627003Y-95459675D01*
X139627006Y-95459675D01*
X139634602Y-95459794D01*
X139642006Y-95458098D01*
X139642008Y-95458098D01*
X139720573Y-95440104D01*
X139801759Y-95421510D01*
X139954958Y-95344459D01*
X139960729Y-95339530D01*
X139960732Y-95339528D01*
X140079578Y-95238023D01*
X140085355Y-95233089D01*
X140114503Y-95192526D01*
X147616335Y-95192526D01*
X147621358Y-95238023D01*
X147633109Y-95344459D01*
X147635153Y-95362975D01*
X147637762Y-95370106D01*
X147637763Y-95370108D01*
X147654378Y-95415511D01*
X147694085Y-95524015D01*
X147789730Y-95666349D01*
X147916565Y-95781760D01*
X148067268Y-95863585D01*
X148233139Y-95907101D01*
X148320586Y-95908474D01*
X148397003Y-95909675D01*
X148397006Y-95909675D01*
X148404602Y-95909794D01*
X148412006Y-95908098D01*
X148412008Y-95908098D01*
X148474846Y-95893706D01*
X148571759Y-95871510D01*
X148724958Y-95794459D01*
X148730729Y-95789530D01*
X148730732Y-95789528D01*
X148849578Y-95688023D01*
X148855355Y-95683089D01*
X148955424Y-95543830D01*
X149019385Y-95384720D01*
X149020714Y-95375384D01*
X149042966Y-95219031D01*
X149042966Y-95219027D01*
X149043547Y-95214947D01*
X149043704Y-95200000D01*
X149033358Y-95114505D01*
X149024015Y-95037299D01*
X149024014Y-95037296D01*
X149023102Y-95029758D01*
X149020337Y-95022439D01*
X148965171Y-94876447D01*
X148962487Y-94869344D01*
X148910550Y-94793775D01*
X148902819Y-94782526D01*
X150376335Y-94782526D01*
X150385191Y-94862739D01*
X150394162Y-94943998D01*
X150395153Y-94952975D01*
X150397762Y-94960106D01*
X150397763Y-94960108D01*
X150405688Y-94981764D01*
X150454085Y-95114015D01*
X150458322Y-95120321D01*
X150458324Y-95120324D01*
X150489514Y-95166739D01*
X150549730Y-95256349D01*
X150585136Y-95288566D01*
X150646562Y-95344459D01*
X150676565Y-95371760D01*
X150827268Y-95453585D01*
X150993139Y-95497101D01*
X151080586Y-95498474D01*
X151157003Y-95499675D01*
X151157006Y-95499675D01*
X151164602Y-95499794D01*
X151172006Y-95498098D01*
X151172008Y-95498098D01*
X151236029Y-95483435D01*
X151331759Y-95461510D01*
X151484958Y-95384459D01*
X151490729Y-95379530D01*
X151490732Y-95379528D01*
X151609578Y-95278023D01*
X151615355Y-95273089D01*
X151715424Y-95133830D01*
X151779385Y-94974720D01*
X151788541Y-94910388D01*
X151802966Y-94809031D01*
X151802966Y-94809027D01*
X151803547Y-94804947D01*
X151803704Y-94790000D01*
X151794924Y-94717447D01*
X151784015Y-94627299D01*
X151784014Y-94627296D01*
X151783102Y-94619758D01*
X151779562Y-94610388D01*
X151725171Y-94466447D01*
X151722487Y-94459344D01*
X151694139Y-94418098D01*
X151629659Y-94324278D01*
X151629658Y-94324276D01*
X151625357Y-94318019D01*
X151619686Y-94312966D01*
X151502993Y-94208996D01*
X151502990Y-94208994D01*
X151497321Y-94203943D01*
X151489325Y-94199709D01*
X151407203Y-94156228D01*
X151345769Y-94123700D01*
X151328196Y-94119286D01*
X151186822Y-94083775D01*
X151186818Y-94083775D01*
X151179451Y-94081924D01*
X151171852Y-94081884D01*
X151171850Y-94081884D01*
X151100394Y-94081510D01*
X151007969Y-94081026D01*
X151000589Y-94082798D01*
X151000587Y-94082798D01*
X150848602Y-94119286D01*
X150848598Y-94119287D01*
X150841223Y-94121058D01*
X150688839Y-94199709D01*
X150559615Y-94312439D01*
X150461010Y-94452739D01*
X150445392Y-94492798D01*
X150403602Y-94599983D01*
X150398718Y-94612509D01*
X150397726Y-94620042D01*
X150397726Y-94620043D01*
X150378112Y-94769031D01*
X150376335Y-94782526D01*
X148902819Y-94782526D01*
X148869659Y-94734278D01*
X148869658Y-94734276D01*
X148865357Y-94728019D01*
X148859686Y-94722966D01*
X148742993Y-94618996D01*
X148742990Y-94618994D01*
X148737321Y-94613943D01*
X148729325Y-94609709D01*
X148630585Y-94557429D01*
X148585769Y-94533700D01*
X148568196Y-94529286D01*
X148426822Y-94493775D01*
X148426818Y-94493775D01*
X148419451Y-94491924D01*
X148411852Y-94491884D01*
X148411850Y-94491884D01*
X148340394Y-94491510D01*
X148247969Y-94491026D01*
X148240589Y-94492798D01*
X148240587Y-94492798D01*
X148088602Y-94529286D01*
X148088598Y-94529287D01*
X148081223Y-94531058D01*
X147928839Y-94609709D01*
X147799615Y-94722439D01*
X147701010Y-94862739D01*
X147638718Y-95022509D01*
X147637726Y-95030042D01*
X147637726Y-95030043D01*
X147618452Y-95176447D01*
X147616335Y-95192526D01*
X140114503Y-95192526D01*
X140170567Y-95114505D01*
X140180992Y-95099998D01*
X140180993Y-95099997D01*
X140185424Y-95093830D01*
X140249385Y-94934720D01*
X140263762Y-94833700D01*
X140272966Y-94769031D01*
X140272966Y-94769027D01*
X140273547Y-94764947D01*
X140273704Y-94750000D01*
X140265353Y-94680993D01*
X140254015Y-94587299D01*
X140254014Y-94587296D01*
X140253102Y-94579758D01*
X140249237Y-94569528D01*
X140195171Y-94426447D01*
X140192487Y-94419344D01*
X140122000Y-94316785D01*
X140099659Y-94284278D01*
X140099658Y-94284276D01*
X140095357Y-94278019D01*
X140089686Y-94272966D01*
X139972993Y-94168996D01*
X139972990Y-94168994D01*
X139967321Y-94163943D01*
X139959325Y-94159709D01*
X139892900Y-94124539D01*
X139815769Y-94083700D01*
X139805251Y-94081058D01*
X139656822Y-94043775D01*
X139656818Y-94043775D01*
X139649451Y-94041924D01*
X139641852Y-94041884D01*
X139641850Y-94041884D01*
X139477969Y-94041026D01*
X139477982Y-94038614D01*
X139419582Y-94028561D01*
X139367233Y-93980601D01*
X139349123Y-93911953D01*
X139371002Y-93844412D01*
X139418461Y-93802874D01*
X139468174Y-93777871D01*
X139474958Y-93774459D01*
X139480729Y-93769530D01*
X139480732Y-93769528D01*
X139512347Y-93742526D01*
X156006335Y-93742526D01*
X156012176Y-93795429D01*
X156022594Y-93889794D01*
X156025153Y-93912975D01*
X156027762Y-93920106D01*
X156027763Y-93920108D01*
X156035688Y-93941764D01*
X156084085Y-94074015D01*
X156088322Y-94080321D01*
X156088324Y-94080324D01*
X156090593Y-94083700D01*
X156179730Y-94216349D01*
X156227094Y-94259447D01*
X156292161Y-94318653D01*
X156306565Y-94331760D01*
X156457268Y-94413585D01*
X156623139Y-94457101D01*
X156710586Y-94458474D01*
X156787003Y-94459675D01*
X156787006Y-94459675D01*
X156794602Y-94459794D01*
X156802006Y-94458098D01*
X156802008Y-94458098D01*
X156864846Y-94443706D01*
X156961759Y-94421510D01*
X157114958Y-94344459D01*
X157120729Y-94339530D01*
X157120732Y-94339528D01*
X157239578Y-94238023D01*
X157245355Y-94233089D01*
X157325289Y-94121850D01*
X157340992Y-94099998D01*
X157340993Y-94099997D01*
X157345424Y-94093830D01*
X157409385Y-93934720D01*
X157415796Y-93889675D01*
X157432966Y-93769031D01*
X157432966Y-93769027D01*
X157433547Y-93764947D01*
X157433704Y-93750000D01*
X157425261Y-93680229D01*
X157414015Y-93587299D01*
X157414014Y-93587296D01*
X157413102Y-93579758D01*
X157394300Y-93529998D01*
X157355171Y-93426447D01*
X157352487Y-93419344D01*
X157306694Y-93352715D01*
X157259659Y-93284278D01*
X157259658Y-93284276D01*
X157255357Y-93278019D01*
X157249686Y-93272966D01*
X157132993Y-93168996D01*
X157132990Y-93168994D01*
X157127321Y-93163943D01*
X157119325Y-93159709D01*
X156982481Y-93087254D01*
X156982482Y-93087254D01*
X156975769Y-93083700D01*
X156958196Y-93079286D01*
X156816822Y-93043775D01*
X156816818Y-93043775D01*
X156809451Y-93041924D01*
X156801852Y-93041884D01*
X156801850Y-93041884D01*
X156730394Y-93041510D01*
X156637969Y-93041026D01*
X156630589Y-93042798D01*
X156630587Y-93042798D01*
X156478602Y-93079286D01*
X156478598Y-93079287D01*
X156471223Y-93081058D01*
X156318839Y-93159709D01*
X156189615Y-93272439D01*
X156091010Y-93412739D01*
X156075694Y-93452023D01*
X156032866Y-93561871D01*
X156028718Y-93572509D01*
X156027726Y-93580042D01*
X156027726Y-93580043D01*
X156007604Y-93732888D01*
X156006335Y-93742526D01*
X139512347Y-93742526D01*
X139599578Y-93668023D01*
X139605355Y-93663089D01*
X139705424Y-93523830D01*
X139769385Y-93364720D01*
X139780755Y-93284829D01*
X139792966Y-93199031D01*
X139792966Y-93199027D01*
X139793547Y-93194947D01*
X139793704Y-93180000D01*
X139786617Y-93121434D01*
X139774015Y-93017299D01*
X139774014Y-93017296D01*
X139773102Y-93009758D01*
X139757374Y-92968133D01*
X139739186Y-92920000D01*
X158281358Y-92920000D01*
X158282048Y-92926565D01*
X158294368Y-93043775D01*
X158301870Y-93115155D01*
X158303910Y-93121433D01*
X158303910Y-93121434D01*
X158308028Y-93134108D01*
X158362508Y-93301780D01*
X158365811Y-93307502D01*
X158365812Y-93307503D01*
X158390410Y-93350108D01*
X158460623Y-93471720D01*
X158465041Y-93476627D01*
X158465042Y-93476628D01*
X158568096Y-93591081D01*
X158591926Y-93617547D01*
X158597268Y-93621428D01*
X158597270Y-93621430D01*
X158736263Y-93722414D01*
X158750679Y-93732888D01*
X158756707Y-93735572D01*
X158756709Y-93735573D01*
X158923913Y-93810017D01*
X158929944Y-93812702D01*
X159025915Y-93833101D01*
X159115428Y-93852128D01*
X159115432Y-93852128D01*
X159121885Y-93853500D01*
X159318115Y-93853500D01*
X159324568Y-93852128D01*
X159324572Y-93852128D01*
X159414085Y-93833101D01*
X159510056Y-93812702D01*
X159516087Y-93810017D01*
X159683291Y-93735573D01*
X159683293Y-93735572D01*
X159689321Y-93732888D01*
X159703737Y-93722414D01*
X159842730Y-93621430D01*
X159842732Y-93621428D01*
X159848074Y-93617547D01*
X159871904Y-93591081D01*
X159974958Y-93476628D01*
X159974959Y-93476627D01*
X159979377Y-93471720D01*
X160049590Y-93350108D01*
X160074188Y-93307503D01*
X160074189Y-93307502D01*
X160077492Y-93301780D01*
X160131972Y-93134108D01*
X160136090Y-93121434D01*
X160136090Y-93121433D01*
X160138130Y-93115155D01*
X160145633Y-93043775D01*
X160157952Y-92926565D01*
X160158642Y-92920000D01*
X160157952Y-92913435D01*
X160138820Y-92731409D01*
X160138820Y-92731408D01*
X160138130Y-92724845D01*
X160110708Y-92640447D01*
X160079534Y-92544505D01*
X160077492Y-92538220D01*
X160063336Y-92513700D01*
X160045611Y-92483000D01*
X160028873Y-92414004D01*
X160045611Y-92357000D01*
X160074188Y-92307503D01*
X160074189Y-92307502D01*
X160077492Y-92301780D01*
X160122675Y-92162721D01*
X160136090Y-92121434D01*
X160136090Y-92121433D01*
X160138130Y-92115155D01*
X160144820Y-92051510D01*
X160157952Y-91926565D01*
X160158642Y-91920000D01*
X160149368Y-91831764D01*
X160138820Y-91731409D01*
X160138820Y-91731408D01*
X160138130Y-91724845D01*
X160133412Y-91710324D01*
X160108833Y-91634675D01*
X160106806Y-91563708D01*
X160110684Y-91551511D01*
X160143971Y-91462718D01*
X160143973Y-91462712D01*
X160146745Y-91455316D01*
X160153500Y-91393134D01*
X160153500Y-90446866D01*
X160146745Y-90384684D01*
X160095615Y-90248295D01*
X160008261Y-90131739D01*
X159891705Y-90044385D01*
X159755316Y-89993255D01*
X159693134Y-89986500D01*
X158746866Y-89986500D01*
X158684684Y-89993255D01*
X158548295Y-90044385D01*
X158431739Y-90131739D01*
X158344385Y-90248295D01*
X158293255Y-90384684D01*
X158286500Y-90446866D01*
X158286500Y-91393134D01*
X158293255Y-91455316D01*
X158296027Y-91462712D01*
X158296029Y-91462718D01*
X158329316Y-91551511D01*
X158334499Y-91622318D01*
X158331167Y-91634675D01*
X158306588Y-91710324D01*
X158301870Y-91724845D01*
X158301180Y-91731408D01*
X158301180Y-91731409D01*
X158290632Y-91831764D01*
X158281358Y-91920000D01*
X158282048Y-91926565D01*
X158295181Y-92051510D01*
X158301870Y-92115155D01*
X158303910Y-92121433D01*
X158303910Y-92121434D01*
X158317325Y-92162721D01*
X158362508Y-92301780D01*
X158365811Y-92307502D01*
X158365812Y-92307503D01*
X158394389Y-92357000D01*
X158411127Y-92425996D01*
X158394389Y-92483000D01*
X158376665Y-92513700D01*
X158362508Y-92538220D01*
X158360466Y-92544505D01*
X158329293Y-92640447D01*
X158301870Y-92724845D01*
X158301180Y-92731408D01*
X158301180Y-92731409D01*
X158282048Y-92913435D01*
X158281358Y-92920000D01*
X139739186Y-92920000D01*
X139715171Y-92856447D01*
X139712487Y-92849344D01*
X139664436Y-92779429D01*
X139619659Y-92714278D01*
X139619658Y-92714276D01*
X139615357Y-92708019D01*
X139609686Y-92702966D01*
X139492993Y-92598996D01*
X139492990Y-92598994D01*
X139487321Y-92593943D01*
X139479325Y-92589709D01*
X139342481Y-92517254D01*
X139342482Y-92517254D01*
X139335769Y-92513700D01*
X139318196Y-92509286D01*
X139176822Y-92473775D01*
X139176818Y-92473775D01*
X139169451Y-92471924D01*
X139161852Y-92471884D01*
X139161850Y-92471884D01*
X139090394Y-92471510D01*
X138997969Y-92471026D01*
X138990589Y-92472798D01*
X138990587Y-92472798D01*
X138838602Y-92509286D01*
X138838598Y-92509287D01*
X138831223Y-92511058D01*
X138678839Y-92589709D01*
X138549615Y-92702439D01*
X138451010Y-92842739D01*
X138426630Y-92905271D01*
X138399513Y-92974822D01*
X138388718Y-93002509D01*
X138387726Y-93010042D01*
X138387726Y-93010043D01*
X138367366Y-93164698D01*
X138366335Y-93172526D01*
X134029815Y-93172526D01*
X134039385Y-93148720D01*
X134058089Y-93017299D01*
X134062966Y-92983031D01*
X134062966Y-92983027D01*
X134063547Y-92978947D01*
X134063704Y-92964000D01*
X134056597Y-92905271D01*
X134044015Y-92801299D01*
X134044014Y-92801296D01*
X134043102Y-92793758D01*
X134019543Y-92731409D01*
X133985171Y-92640447D01*
X133982487Y-92633344D01*
X133955926Y-92594698D01*
X133889659Y-92498278D01*
X133889658Y-92498276D01*
X133885357Y-92492019D01*
X133879686Y-92486966D01*
X133762993Y-92382996D01*
X133762990Y-92382994D01*
X133757321Y-92377943D01*
X133749325Y-92373709D01*
X133673325Y-92333469D01*
X133605769Y-92297700D01*
X133598404Y-92295850D01*
X133446822Y-92257775D01*
X133446818Y-92257775D01*
X133439451Y-92255924D01*
X133431852Y-92255884D01*
X133431850Y-92255884D01*
X133360394Y-92255510D01*
X133267969Y-92255026D01*
X133260589Y-92256798D01*
X133260587Y-92256798D01*
X133108602Y-92293286D01*
X133108598Y-92293287D01*
X133101223Y-92295058D01*
X132948839Y-92373709D01*
X132819615Y-92486439D01*
X132721010Y-92626739D01*
X132658718Y-92786509D01*
X132657726Y-92794042D01*
X132657726Y-92794043D01*
X132641144Y-92920000D01*
X132636335Y-92956526D01*
X132645664Y-93041026D01*
X132650768Y-93087254D01*
X132655153Y-93126975D01*
X132657762Y-93134106D01*
X132657763Y-93134108D01*
X132664268Y-93151883D01*
X132668894Y-93222729D01*
X132634484Y-93284829D01*
X132593422Y-93311010D01*
X132593223Y-93311058D01*
X132586480Y-93314538D01*
X132586478Y-93314539D01*
X132542070Y-93337460D01*
X132440839Y-93389709D01*
X132311615Y-93502439D01*
X132213010Y-93642739D01*
X132181946Y-93722414D01*
X132163771Y-93769031D01*
X132150718Y-93802509D01*
X132149726Y-93810042D01*
X132149726Y-93810043D01*
X132145787Y-93839962D01*
X132128335Y-93972526D01*
X132128764Y-93976407D01*
X132108510Y-94042809D01*
X132061020Y-94085550D01*
X132058627Y-94086785D01*
X131932839Y-94151709D01*
X131803615Y-94264439D01*
X131705010Y-94404739D01*
X131673864Y-94484624D01*
X131645841Y-94556500D01*
X131642718Y-94564509D01*
X131620335Y-94734526D01*
X131620764Y-94738407D01*
X131600510Y-94804809D01*
X131553020Y-94847550D01*
X131424839Y-94913709D01*
X131295615Y-95026439D01*
X131197010Y-95166739D01*
X131134718Y-95326509D01*
X131133726Y-95334042D01*
X131133726Y-95334043D01*
X131116722Y-95463205D01*
X131112335Y-95496526D01*
X128440653Y-95496526D01*
X128439602Y-92690379D01*
X128459579Y-92622251D01*
X128513217Y-92575738D01*
X128583487Y-92565608D01*
X128648079Y-92595077D01*
X128686485Y-92654788D01*
X128690912Y-92677161D01*
X128696458Y-92729928D01*
X128755473Y-92911556D01*
X128850960Y-93076944D01*
X128855378Y-93081851D01*
X128855379Y-93081852D01*
X128974325Y-93213955D01*
X128978747Y-93218866D01*
X129133248Y-93331118D01*
X129139276Y-93333802D01*
X129139278Y-93333803D01*
X129301681Y-93406109D01*
X129307712Y-93408794D01*
X129401112Y-93428647D01*
X129488056Y-93447128D01*
X129488061Y-93447128D01*
X129494513Y-93448500D01*
X129685487Y-93448500D01*
X129691939Y-93447128D01*
X129691944Y-93447128D01*
X129778888Y-93428647D01*
X129872288Y-93408794D01*
X129878319Y-93406109D01*
X130040722Y-93333803D01*
X130040724Y-93333802D01*
X130046752Y-93331118D01*
X130201253Y-93218866D01*
X130205675Y-93213955D01*
X130324621Y-93081852D01*
X130324622Y-93081851D01*
X130329040Y-93076944D01*
X130424527Y-92911556D01*
X130483542Y-92729928D01*
X130491440Y-92654788D01*
X130502814Y-92546565D01*
X130503504Y-92540000D01*
X130497875Y-92486439D01*
X130484232Y-92356635D01*
X130484232Y-92356633D01*
X130483542Y-92350072D01*
X130424527Y-92168444D01*
X130407121Y-92138295D01*
X130377632Y-92087220D01*
X130329040Y-92003056D01*
X130306364Y-91977871D01*
X130205675Y-91866045D01*
X130205674Y-91866044D01*
X130201253Y-91861134D01*
X130046752Y-91748882D01*
X130040724Y-91746198D01*
X130040722Y-91746197D01*
X129878319Y-91673891D01*
X129878318Y-91673891D01*
X129872288Y-91671206D01*
X129776389Y-91650822D01*
X129691944Y-91632872D01*
X129691939Y-91632872D01*
X129685487Y-91631500D01*
X129494513Y-91631500D01*
X129488061Y-91632872D01*
X129488056Y-91632872D01*
X129403611Y-91650822D01*
X129307712Y-91671206D01*
X129301682Y-91673891D01*
X129301681Y-91673891D01*
X129139278Y-91746197D01*
X129139276Y-91746198D01*
X129133248Y-91748882D01*
X128978747Y-91861134D01*
X128974326Y-91866044D01*
X128974325Y-91866045D01*
X128873637Y-91977871D01*
X128850960Y-92003056D01*
X128802368Y-92087220D01*
X128772880Y-92138295D01*
X128755473Y-92168444D01*
X128696458Y-92350072D01*
X128695768Y-92356633D01*
X128695768Y-92356635D01*
X128690800Y-92403905D01*
X128663787Y-92469562D01*
X128605565Y-92510192D01*
X128534620Y-92512895D01*
X128473476Y-92476813D01*
X128441546Y-92413402D01*
X128439490Y-92390782D01*
X128439112Y-91380076D01*
X128438883Y-90770000D01*
X130266496Y-90770000D01*
X130267186Y-90776565D01*
X130283607Y-90932798D01*
X130286458Y-90959928D01*
X130345473Y-91141556D01*
X130348776Y-91147278D01*
X130348777Y-91147279D01*
X130369284Y-91182798D01*
X130440960Y-91306944D01*
X130445378Y-91311851D01*
X130445379Y-91311852D01*
X130540972Y-91418019D01*
X130568747Y-91448866D01*
X130723248Y-91561118D01*
X130729276Y-91563802D01*
X130729278Y-91563803D01*
X130891198Y-91635894D01*
X130897712Y-91638794D01*
X130991112Y-91658647D01*
X131078056Y-91677128D01*
X131078061Y-91677128D01*
X131084513Y-91678500D01*
X131275487Y-91678500D01*
X131281939Y-91677128D01*
X131281944Y-91677128D01*
X131368887Y-91658647D01*
X131462288Y-91638794D01*
X131468802Y-91635894D01*
X131630722Y-91563803D01*
X131630724Y-91563802D01*
X131636752Y-91561118D01*
X131791253Y-91448866D01*
X131819028Y-91418019D01*
X131859990Y-91372526D01*
X141556335Y-91372526D01*
X141575153Y-91542975D01*
X141577762Y-91550106D01*
X141577763Y-91550108D01*
X141593239Y-91592398D01*
X141634085Y-91704015D01*
X141638322Y-91710321D01*
X141638324Y-91710324D01*
X141666842Y-91752763D01*
X141729730Y-91846349D01*
X141761212Y-91874995D01*
X141803457Y-91913435D01*
X141856565Y-91961760D01*
X142007268Y-92043585D01*
X142173139Y-92087101D01*
X142260586Y-92088474D01*
X142337003Y-92089675D01*
X142337006Y-92089675D01*
X142344602Y-92089794D01*
X142352006Y-92088098D01*
X142352008Y-92088098D01*
X142443244Y-92067202D01*
X142511759Y-92051510D01*
X142664958Y-91974459D01*
X142670729Y-91969530D01*
X142670732Y-91969528D01*
X142789578Y-91868023D01*
X142795355Y-91863089D01*
X142877422Y-91748882D01*
X142890992Y-91729998D01*
X142890993Y-91729997D01*
X142895424Y-91723830D01*
X142932128Y-91632526D01*
X144806335Y-91632526D01*
X144810902Y-91673891D01*
X144818885Y-91746197D01*
X144825153Y-91802975D01*
X144827762Y-91810106D01*
X144827763Y-91810108D01*
X144844894Y-91856919D01*
X144884085Y-91964015D01*
X144888322Y-91970321D01*
X144888324Y-91970324D01*
X144911730Y-92005155D01*
X144979730Y-92106349D01*
X145106565Y-92221760D01*
X145257268Y-92303585D01*
X145423139Y-92347101D01*
X145510586Y-92348474D01*
X145587003Y-92349675D01*
X145587006Y-92349675D01*
X145594602Y-92349794D01*
X145602006Y-92348098D01*
X145602008Y-92348098D01*
X145665881Y-92333469D01*
X145761759Y-92311510D01*
X145914958Y-92234459D01*
X145920729Y-92229530D01*
X145920732Y-92229528D01*
X146039578Y-92128023D01*
X146045355Y-92123089D01*
X146134817Y-91998591D01*
X146140992Y-91989998D01*
X146140993Y-91989997D01*
X146145424Y-91983830D01*
X146186147Y-91882526D01*
X154646335Y-91882526D01*
X154654544Y-91956879D01*
X154659874Y-92005155D01*
X154665153Y-92052975D01*
X154667762Y-92060106D01*
X154667763Y-92060108D01*
X154675688Y-92081764D01*
X154724085Y-92214015D01*
X154728322Y-92220321D01*
X154728324Y-92220324D01*
X154759879Y-92267282D01*
X154819730Y-92356349D01*
X154844291Y-92378698D01*
X154889682Y-92420000D01*
X154946565Y-92471760D01*
X155097268Y-92553585D01*
X155263139Y-92597101D01*
X155350586Y-92598474D01*
X155427003Y-92599675D01*
X155427006Y-92599675D01*
X155434602Y-92599794D01*
X155442006Y-92598098D01*
X155442008Y-92598098D01*
X155539636Y-92575738D01*
X155601759Y-92561510D01*
X155754958Y-92484459D01*
X155760729Y-92479530D01*
X155760732Y-92479528D01*
X155879578Y-92378023D01*
X155885355Y-92373089D01*
X155985424Y-92233830D01*
X156049385Y-92074720D01*
X156054332Y-92039962D01*
X156072966Y-91909031D01*
X156072966Y-91909027D01*
X156073547Y-91904947D01*
X156073704Y-91890000D01*
X156057096Y-91752763D01*
X156054015Y-91727299D01*
X156054014Y-91727296D01*
X156053102Y-91719758D01*
X156049538Y-91710324D01*
X155995171Y-91566447D01*
X155992487Y-91559344D01*
X155920991Y-91455316D01*
X155899659Y-91424278D01*
X155899658Y-91424276D01*
X155895357Y-91418019D01*
X155889686Y-91412966D01*
X155772993Y-91308996D01*
X155772990Y-91308994D01*
X155767321Y-91303943D01*
X155759325Y-91299709D01*
X155622481Y-91227254D01*
X155622482Y-91227254D01*
X155615769Y-91223700D01*
X155598196Y-91219286D01*
X155456822Y-91183775D01*
X155456818Y-91183775D01*
X155449451Y-91181924D01*
X155441852Y-91181884D01*
X155441850Y-91181884D01*
X155370394Y-91181510D01*
X155277969Y-91181026D01*
X155270589Y-91182798D01*
X155270587Y-91182798D01*
X155118602Y-91219286D01*
X155118598Y-91219287D01*
X155111223Y-91221058D01*
X154958839Y-91299709D01*
X154829615Y-91412439D01*
X154731010Y-91552739D01*
X154715818Y-91591705D01*
X154672030Y-91704015D01*
X154668718Y-91712509D01*
X154667726Y-91720042D01*
X154667726Y-91720043D01*
X154648505Y-91866045D01*
X154646335Y-91882526D01*
X146186147Y-91882526D01*
X146209385Y-91824720D01*
X146225666Y-91710324D01*
X146232966Y-91659031D01*
X146232966Y-91659027D01*
X146233547Y-91654947D01*
X146233704Y-91640000D01*
X146224483Y-91563803D01*
X146214015Y-91477299D01*
X146214014Y-91477296D01*
X146213102Y-91469758D01*
X146204677Y-91447460D01*
X146155171Y-91316447D01*
X146152487Y-91309344D01*
X146094202Y-91224539D01*
X146059659Y-91174278D01*
X146059658Y-91174276D01*
X146055357Y-91168019D01*
X146049686Y-91162966D01*
X145932993Y-91058996D01*
X145932990Y-91058994D01*
X145927321Y-91053943D01*
X145919325Y-91049709D01*
X145782481Y-90977254D01*
X145782482Y-90977254D01*
X145775769Y-90973700D01*
X145745934Y-90966206D01*
X145616822Y-90933775D01*
X145616818Y-90933775D01*
X145609451Y-90931924D01*
X145601852Y-90931884D01*
X145601850Y-90931884D01*
X145530394Y-90931510D01*
X145437969Y-90931026D01*
X145430589Y-90932798D01*
X145430587Y-90932798D01*
X145278602Y-90969286D01*
X145278598Y-90969287D01*
X145271223Y-90971058D01*
X145118839Y-91049709D01*
X144989615Y-91162439D01*
X144891010Y-91302739D01*
X144866737Y-91364995D01*
X144843624Y-91424278D01*
X144828718Y-91462509D01*
X144827726Y-91470042D01*
X144827726Y-91470043D01*
X144807679Y-91622318D01*
X144806335Y-91632526D01*
X142932128Y-91632526D01*
X142959385Y-91564720D01*
X142971827Y-91477299D01*
X142982966Y-91399031D01*
X142982966Y-91399027D01*
X142983547Y-91394947D01*
X142983704Y-91380000D01*
X142976013Y-91316447D01*
X142964015Y-91217299D01*
X142964014Y-91217296D01*
X142963102Y-91209758D01*
X142958472Y-91197503D01*
X142905171Y-91056447D01*
X142902487Y-91049344D01*
X142872117Y-91005155D01*
X142809659Y-90914278D01*
X142809658Y-90914276D01*
X142805357Y-90908019D01*
X142799686Y-90902966D01*
X142682993Y-90798996D01*
X142682990Y-90798994D01*
X142677321Y-90793943D01*
X142669325Y-90789709D01*
X142532481Y-90717254D01*
X142532482Y-90717254D01*
X142525769Y-90713700D01*
X142508196Y-90709286D01*
X142366822Y-90673775D01*
X142366818Y-90673775D01*
X142359451Y-90671924D01*
X142351852Y-90671884D01*
X142351850Y-90671884D01*
X142280394Y-90671510D01*
X142187969Y-90671026D01*
X142180589Y-90672798D01*
X142180587Y-90672798D01*
X142028602Y-90709286D01*
X142028598Y-90709287D01*
X142021223Y-90711058D01*
X141868839Y-90789709D01*
X141739615Y-90902439D01*
X141641010Y-91042739D01*
X141634672Y-91058996D01*
X141585352Y-91185495D01*
X141578718Y-91202509D01*
X141577726Y-91210042D01*
X141577726Y-91210043D01*
X141564323Y-91311852D01*
X141556335Y-91372526D01*
X131859990Y-91372526D01*
X131914621Y-91311852D01*
X131914622Y-91311851D01*
X131919040Y-91306944D01*
X131990716Y-91182798D01*
X132011223Y-91147279D01*
X132011224Y-91147278D01*
X132014527Y-91141556D01*
X132073542Y-90959928D01*
X132076394Y-90932798D01*
X132092814Y-90776565D01*
X132093504Y-90770000D01*
X132087123Y-90709286D01*
X132074232Y-90586635D01*
X132074232Y-90586633D01*
X132073542Y-90580072D01*
X132014527Y-90398444D01*
X131919040Y-90233056D01*
X131806953Y-90108570D01*
X131795675Y-90096045D01*
X131795674Y-90096044D01*
X131791253Y-90091134D01*
X131667185Y-90000993D01*
X131642094Y-89982763D01*
X131642093Y-89982762D01*
X131636752Y-89978882D01*
X131630724Y-89976198D01*
X131630722Y-89976197D01*
X131468319Y-89903891D01*
X131468318Y-89903891D01*
X131462288Y-89901206D01*
X131352511Y-89877872D01*
X131281944Y-89862872D01*
X131281939Y-89862872D01*
X131275487Y-89861500D01*
X131084513Y-89861500D01*
X131078061Y-89862872D01*
X131078056Y-89862872D01*
X131007489Y-89877872D01*
X130897712Y-89901206D01*
X130891682Y-89903891D01*
X130891681Y-89903891D01*
X130729278Y-89976197D01*
X130729276Y-89976198D01*
X130723248Y-89978882D01*
X130717907Y-89982762D01*
X130717906Y-89982763D01*
X130692815Y-90000993D01*
X130568747Y-90091134D01*
X130564326Y-90096044D01*
X130564325Y-90096045D01*
X130553048Y-90108570D01*
X130440960Y-90233056D01*
X130345473Y-90398444D01*
X130286458Y-90580072D01*
X130285768Y-90586633D01*
X130285768Y-90586635D01*
X130272877Y-90709286D01*
X130266496Y-90770000D01*
X128438883Y-90770000D01*
X128438438Y-89582526D01*
X144726335Y-89582526D01*
X144745153Y-89752975D01*
X144747762Y-89760106D01*
X144747763Y-89760108D01*
X144755688Y-89781764D01*
X144804085Y-89914015D01*
X144899730Y-90056349D01*
X144933691Y-90087251D01*
X144982583Y-90131739D01*
X145026565Y-90171760D01*
X145177268Y-90253585D01*
X145343139Y-90297101D01*
X145430586Y-90298474D01*
X145507003Y-90299675D01*
X145507006Y-90299675D01*
X145514602Y-90299794D01*
X145522006Y-90298098D01*
X145522008Y-90298098D01*
X145584846Y-90283706D01*
X145681759Y-90261510D01*
X145834958Y-90184459D01*
X145840729Y-90179530D01*
X145840732Y-90179528D01*
X145959578Y-90078023D01*
X145965355Y-90073089D01*
X146065424Y-89933830D01*
X146129385Y-89774720D01*
X146153547Y-89604947D01*
X146153704Y-89590000D01*
X146135527Y-89439794D01*
X146134015Y-89427299D01*
X146134014Y-89427296D01*
X146133102Y-89419758D01*
X146126848Y-89403205D01*
X146075171Y-89266447D01*
X146072487Y-89259344D01*
X145975357Y-89118019D01*
X145969686Y-89112966D01*
X145852993Y-89008996D01*
X145852990Y-89008994D01*
X145847321Y-89003943D01*
X145839325Y-88999709D01*
X145702481Y-88927254D01*
X145702482Y-88927254D01*
X145695769Y-88923700D01*
X145688404Y-88921850D01*
X145536822Y-88883775D01*
X145536818Y-88883775D01*
X145529451Y-88881924D01*
X145521852Y-88881884D01*
X145521850Y-88881884D01*
X145450394Y-88881510D01*
X145357969Y-88881026D01*
X145350589Y-88882798D01*
X145350587Y-88882798D01*
X145198602Y-88919286D01*
X145198598Y-88919287D01*
X145191223Y-88921058D01*
X145038839Y-88999709D01*
X144909615Y-89112439D01*
X144811010Y-89252739D01*
X144789991Y-89306650D01*
X144754337Y-89398098D01*
X144748718Y-89412509D01*
X144747726Y-89420042D01*
X144747726Y-89420043D01*
X144745142Y-89439675D01*
X144726335Y-89582526D01*
X128438438Y-89582526D01*
X128437334Y-86633623D01*
X128457311Y-86565497D01*
X128510949Y-86518984D01*
X128581219Y-86508854D01*
X128645811Y-86538323D01*
X128675899Y-86576964D01*
X128738092Y-86700620D01*
X128770885Y-86765822D01*
X128933721Y-87002750D01*
X129127206Y-87215388D01*
X129130501Y-87218143D01*
X129130502Y-87218144D01*
X129280108Y-87343233D01*
X129347759Y-87399798D01*
X129591298Y-87552571D01*
X129853318Y-87670877D01*
X129904349Y-87685993D01*
X130124857Y-87751311D01*
X130124862Y-87751312D01*
X130128970Y-87752529D01*
X130133204Y-87753177D01*
X130133209Y-87753178D01*
X130381811Y-87791219D01*
X130413153Y-87796015D01*
X130559485Y-87798314D01*
X130696317Y-87800464D01*
X130696323Y-87800464D01*
X130700608Y-87800531D01*
X130704860Y-87800016D01*
X130704868Y-87800016D01*
X130981756Y-87766508D01*
X130981761Y-87766507D01*
X130986017Y-87765992D01*
X131264097Y-87693039D01*
X131529704Y-87583021D01*
X131710259Y-87477513D01*
X131774219Y-87440138D01*
X131774220Y-87440137D01*
X131777922Y-87437974D01*
X132004159Y-87260582D01*
X132045285Y-87218144D01*
X132134118Y-87126475D01*
X132204227Y-87054128D01*
X132206760Y-87050680D01*
X132206764Y-87050675D01*
X132371887Y-86825886D01*
X132374425Y-86822431D01*
X132466124Y-86653543D01*
X132509554Y-86573555D01*
X132509555Y-86573553D01*
X132511604Y-86569779D01*
X132562414Y-86435314D01*
X132611707Y-86304866D01*
X132611708Y-86304862D01*
X132613225Y-86300848D01*
X132677407Y-86020613D01*
X132677890Y-86015210D01*
X132702743Y-85736726D01*
X132702743Y-85736724D01*
X132702963Y-85734260D01*
X132703427Y-85690000D01*
X132697129Y-85597615D01*
X132684165Y-85407452D01*
X132684164Y-85407446D01*
X132683873Y-85403175D01*
X132679336Y-85381264D01*
X132654724Y-85262417D01*
X132625574Y-85121658D01*
X132529607Y-84850657D01*
X132397750Y-84595188D01*
X132385164Y-84577279D01*
X132279078Y-84426335D01*
X132232441Y-84359977D01*
X132097442Y-84214701D01*
X132039661Y-84152521D01*
X132039658Y-84152519D01*
X132036740Y-84149378D01*
X131814268Y-83967287D01*
X131573491Y-83819738D01*
X131525860Y-83767090D01*
X131514253Y-83697048D01*
X131542356Y-83631851D01*
X131601247Y-83592197D01*
X131639245Y-83586305D01*
X135731553Y-83583729D01*
X135799685Y-83603688D01*
X135846212Y-83657315D01*
X135856360Y-83727582D01*
X135848499Y-83756824D01*
X135792314Y-83896237D01*
X135751772Y-84103837D01*
X135751500Y-84109399D01*
X135751500Y-84965346D01*
X135766548Y-85123066D01*
X135826092Y-85326034D01*
X135828836Y-85331361D01*
X135828836Y-85331362D01*
X135868523Y-85408418D01*
X135922942Y-85514080D01*
X136053604Y-85680420D01*
X136058135Y-85684352D01*
X136058138Y-85684355D01*
X136194802Y-85802946D01*
X136213363Y-85819052D01*
X136218549Y-85822052D01*
X136218553Y-85822055D01*
X136314957Y-85877826D01*
X136396454Y-85924973D01*
X136596271Y-85994361D01*
X136602206Y-85995222D01*
X136602208Y-85995222D01*
X136799664Y-86023852D01*
X136799667Y-86023852D01*
X136805604Y-86024713D01*
X137016899Y-86014933D01*
X137093347Y-85996509D01*
X137164258Y-85999994D01*
X137222028Y-86041263D01*
X137248315Y-86107214D01*
X137234774Y-86176907D01*
X137195139Y-86222215D01*
X137077102Y-86304866D01*
X137064093Y-86313975D01*
X136911475Y-86466593D01*
X136787677Y-86643394D01*
X136785354Y-86648376D01*
X136785351Y-86648381D01*
X136702579Y-86825886D01*
X136696461Y-86839007D01*
X136695039Y-86844315D01*
X136695038Y-86844317D01*
X136678541Y-86905886D01*
X136640599Y-87047487D01*
X136621788Y-87262500D01*
X136640599Y-87477513D01*
X136642023Y-87482826D01*
X136642023Y-87482828D01*
X136692738Y-87672097D01*
X136696461Y-87685993D01*
X136698783Y-87690974D01*
X136698784Y-87690975D01*
X136785351Y-87876619D01*
X136785354Y-87876624D01*
X136787677Y-87881606D01*
X136911475Y-88058407D01*
X137064093Y-88211025D01*
X137240894Y-88334823D01*
X137245876Y-88337146D01*
X137245881Y-88337149D01*
X137431525Y-88423716D01*
X137436507Y-88426039D01*
X137441815Y-88427461D01*
X137441817Y-88427462D01*
X137518613Y-88448039D01*
X137599133Y-88469614D01*
X137659755Y-88506566D01*
X137690776Y-88570426D01*
X137691443Y-88607767D01*
X137676335Y-88722526D01*
X137685744Y-88807750D01*
X137693929Y-88881884D01*
X137695153Y-88892975D01*
X137697762Y-88900106D01*
X137697763Y-88900108D01*
X137704781Y-88919286D01*
X137754085Y-89054015D01*
X137758322Y-89060321D01*
X137758324Y-89060324D01*
X137793699Y-89112966D01*
X137849730Y-89196349D01*
X137976565Y-89311760D01*
X138127268Y-89393585D01*
X138293139Y-89437101D01*
X138380586Y-89438474D01*
X138457003Y-89439675D01*
X138457006Y-89439675D01*
X138464602Y-89439794D01*
X138472006Y-89438098D01*
X138472008Y-89438098D01*
X138534846Y-89423706D01*
X138631759Y-89401510D01*
X138784958Y-89324459D01*
X138790729Y-89319530D01*
X138790732Y-89319528D01*
X138909578Y-89218023D01*
X138915355Y-89213089D01*
X139015424Y-89073830D01*
X139079385Y-88914720D01*
X139103547Y-88744947D01*
X139103704Y-88730000D01*
X139083102Y-88559758D01*
X139056281Y-88488776D01*
X139025171Y-88406447D01*
X139022487Y-88399344D01*
X138925357Y-88258019D01*
X138851007Y-88191775D01*
X138813454Y-88131529D01*
X138814433Y-88060539D01*
X138831615Y-88025431D01*
X138929166Y-87886114D01*
X138932323Y-87881606D01*
X138934646Y-87876624D01*
X138934649Y-87876619D01*
X139021216Y-87690975D01*
X139021217Y-87690974D01*
X139023539Y-87685993D01*
X139027263Y-87672097D01*
X139077977Y-87482828D01*
X139077977Y-87482826D01*
X139079401Y-87477513D01*
X139098212Y-87262500D01*
X139079401Y-87047487D01*
X139041459Y-86905886D01*
X139024962Y-86844317D01*
X139024961Y-86844315D01*
X139023539Y-86839007D01*
X139017421Y-86825886D01*
X138934649Y-86648381D01*
X138934646Y-86648376D01*
X138932323Y-86643394D01*
X138808525Y-86466593D01*
X138655907Y-86313975D01*
X138642899Y-86304866D01*
X138578094Y-86259490D01*
X138479106Y-86190177D01*
X138474124Y-86187854D01*
X138474119Y-86187851D01*
X138288475Y-86101284D01*
X138288474Y-86101283D01*
X138283493Y-86098961D01*
X138278185Y-86097539D01*
X138278183Y-86097538D01*
X138080328Y-86044523D01*
X138080326Y-86044523D01*
X138075013Y-86043099D01*
X137860000Y-86024288D01*
X137644987Y-86043099D01*
X137639674Y-86044523D01*
X137639672Y-86044523D01*
X137579216Y-86060722D01*
X137508239Y-86059032D01*
X137449444Y-86019238D01*
X137421496Y-85953973D01*
X137433270Y-85883960D01*
X137473705Y-85836245D01*
X137493710Y-85822055D01*
X137587611Y-85755446D01*
X137733881Y-85602650D01*
X137848620Y-85424952D01*
X137927686Y-85228763D01*
X137968228Y-85021163D01*
X137968500Y-85015601D01*
X137968500Y-84159654D01*
X137953452Y-84001934D01*
X137893908Y-83798966D01*
X137876930Y-83766001D01*
X137863521Y-83696282D01*
X137889934Y-83630381D01*
X137947783Y-83589222D01*
X137988866Y-83582309D01*
X142733328Y-83579323D01*
X142801461Y-83599282D01*
X142847988Y-83652909D01*
X142858136Y-83723176D01*
X142850273Y-83752421D01*
X142796068Y-83886923D01*
X142792314Y-83896237D01*
X142751772Y-84103837D01*
X142751500Y-84109399D01*
X142751500Y-84965346D01*
X142766548Y-85123066D01*
X142826092Y-85326034D01*
X142828836Y-85331361D01*
X142828836Y-85331362D01*
X142868523Y-85408418D01*
X142922942Y-85514080D01*
X143053604Y-85680420D01*
X143058135Y-85684352D01*
X143058138Y-85684355D01*
X143194802Y-85802946D01*
X143213363Y-85819052D01*
X143224182Y-85825311D01*
X143228508Y-85827814D01*
X143277455Y-85879241D01*
X143290828Y-85948967D01*
X143264381Y-86014854D01*
X143206511Y-86055983D01*
X143132797Y-86058582D01*
X143080335Y-86044524D01*
X143080324Y-86044522D01*
X143075013Y-86043099D01*
X142860000Y-86024288D01*
X142644987Y-86043099D01*
X142639674Y-86044523D01*
X142639672Y-86044523D01*
X142441817Y-86097538D01*
X142441815Y-86097539D01*
X142436507Y-86098961D01*
X142431526Y-86101283D01*
X142431525Y-86101284D01*
X142245881Y-86187851D01*
X142245876Y-86187854D01*
X142240894Y-86190177D01*
X142141906Y-86259490D01*
X142077102Y-86304866D01*
X142064093Y-86313975D01*
X141911475Y-86466593D01*
X141787677Y-86643394D01*
X141785354Y-86648376D01*
X141785351Y-86648381D01*
X141702579Y-86825886D01*
X141696461Y-86839007D01*
X141695039Y-86844315D01*
X141695038Y-86844317D01*
X141678541Y-86905886D01*
X141640599Y-87047487D01*
X141621788Y-87262500D01*
X141640599Y-87477513D01*
X141642023Y-87482826D01*
X141642023Y-87482828D01*
X141692738Y-87672097D01*
X141696461Y-87685993D01*
X141698783Y-87690974D01*
X141698784Y-87690975D01*
X141785351Y-87876619D01*
X141785354Y-87876624D01*
X141787677Y-87881606D01*
X141911475Y-88058407D01*
X142064093Y-88211025D01*
X142240894Y-88334823D01*
X142245876Y-88337146D01*
X142245881Y-88337149D01*
X142431525Y-88423716D01*
X142436507Y-88426039D01*
X142441815Y-88427461D01*
X142441817Y-88427462D01*
X142639672Y-88480477D01*
X142639674Y-88480477D01*
X142644987Y-88481901D01*
X142860000Y-88500712D01*
X143075013Y-88481901D01*
X143080326Y-88480477D01*
X143080328Y-88480477D01*
X143278183Y-88427462D01*
X143278185Y-88427461D01*
X143283493Y-88426039D01*
X143288475Y-88423716D01*
X143474119Y-88337149D01*
X143474124Y-88337146D01*
X143479106Y-88334823D01*
X143655907Y-88211025D01*
X143808525Y-88058407D01*
X143932323Y-87881606D01*
X143934646Y-87876624D01*
X143934649Y-87876619D01*
X144021216Y-87690975D01*
X144021217Y-87690974D01*
X144023539Y-87685993D01*
X144027263Y-87672097D01*
X144077977Y-87482828D01*
X144077977Y-87482826D01*
X144079401Y-87477513D01*
X144098212Y-87262500D01*
X144079401Y-87047487D01*
X144041459Y-86905886D01*
X144024962Y-86844317D01*
X144024961Y-86844315D01*
X144023539Y-86839007D01*
X144017421Y-86825886D01*
X143934649Y-86648381D01*
X143934646Y-86648376D01*
X143932323Y-86643394D01*
X143808525Y-86466593D01*
X143655907Y-86313975D01*
X143529905Y-86225747D01*
X143485578Y-86170291D01*
X143478269Y-86099672D01*
X143510300Y-86036311D01*
X143571501Y-86000326D01*
X143620257Y-85997839D01*
X143799664Y-86023852D01*
X143799667Y-86023852D01*
X143805604Y-86024713D01*
X144016899Y-86014933D01*
X144148077Y-85983319D01*
X144216701Y-85966781D01*
X144216703Y-85966780D01*
X144222534Y-85965375D01*
X144227992Y-85962893D01*
X144227996Y-85962892D01*
X144401596Y-85883960D01*
X144415087Y-85877826D01*
X144587611Y-85755446D01*
X144733881Y-85602650D01*
X144848620Y-85424952D01*
X144927686Y-85228763D01*
X144968228Y-85021163D01*
X144968500Y-85015601D01*
X144968500Y-84159654D01*
X144953452Y-84001934D01*
X144893908Y-83798966D01*
X144875206Y-83762654D01*
X144861797Y-83692935D01*
X144888210Y-83627035D01*
X144946058Y-83585876D01*
X144987283Y-83578962D01*
X146488211Y-83579693D01*
G37*
%TD.AperFunction*%
%TD*%
M02*
