%TF.GenerationSoftware,KiCad,Pcbnew,6.0.7-f9a2dced07~116~ubuntu22.04.1*%
%TF.CreationDate,2022-08-22T17:29:25+02:00*%
%TF.ProjectId,DroneHardware,44726f6e-6548-4617-9264-776172652e6b,rev?*%
%TF.SameCoordinates,Original*%
%TF.FileFunction,Copper,L1,Top*%
%TF.FilePolarity,Positive*%
%FSLAX46Y46*%
G04 Gerber Fmt 4.6, Leading zero omitted, Abs format (unit mm)*
G04 Created by KiCad (PCBNEW 6.0.7-f9a2dced07~116~ubuntu22.04.1) date 2022-08-22 17:29:25*
%MOMM*%
%LPD*%
G01*
G04 APERTURE LIST*
G04 Aperture macros list*
%AMRoundRect*
0 Rectangle with rounded corners*
0 $1 Rounding radius*
0 $2 $3 $4 $5 $6 $7 $8 $9 X,Y pos of 4 corners*
0 Add a 4 corners polygon primitive as box body*
4,1,4,$2,$3,$4,$5,$6,$7,$8,$9,$2,$3,0*
0 Add four circle primitives for the rounded corners*
1,1,$1+$1,$2,$3*
1,1,$1+$1,$4,$5*
1,1,$1+$1,$6,$7*
1,1,$1+$1,$8,$9*
0 Add four rect primitives between the rounded corners*
20,1,$1+$1,$2,$3,$4,$5,0*
20,1,$1+$1,$4,$5,$6,$7,0*
20,1,$1+$1,$6,$7,$8,$9,0*
20,1,$1+$1,$8,$9,$2,$3,0*%
G04 Aperture macros list end*
%TA.AperFunction,SMDPad,CuDef*%
%ADD10RoundRect,0.075000X-0.700000X-0.075000X0.700000X-0.075000X0.700000X0.075000X-0.700000X0.075000X0*%
%TD*%
%TA.AperFunction,SMDPad,CuDef*%
%ADD11RoundRect,0.075000X-0.075000X-0.700000X0.075000X-0.700000X0.075000X0.700000X-0.075000X0.700000X0*%
%TD*%
%TA.AperFunction,ComponentPad*%
%ADD12R,0.850000X0.850000*%
%TD*%
%TA.AperFunction,ComponentPad*%
%ADD13O,0.850000X0.850000*%
%TD*%
%TA.AperFunction,SMDPad,CuDef*%
%ADD14RoundRect,0.140000X0.140000X0.170000X-0.140000X0.170000X-0.140000X-0.170000X0.140000X-0.170000X0*%
%TD*%
%TA.AperFunction,SMDPad,CuDef*%
%ADD15RoundRect,0.140000X0.170000X-0.140000X0.170000X0.140000X-0.170000X0.140000X-0.170000X-0.140000X0*%
%TD*%
%TA.AperFunction,SMDPad,CuDef*%
%ADD16RoundRect,0.135000X-0.185000X0.135000X-0.185000X-0.135000X0.185000X-0.135000X0.185000X0.135000X0*%
%TD*%
%TA.AperFunction,SMDPad,CuDef*%
%ADD17RoundRect,0.135000X0.185000X-0.135000X0.185000X0.135000X-0.185000X0.135000X-0.185000X-0.135000X0*%
%TD*%
%TA.AperFunction,SMDPad,CuDef*%
%ADD18R,1.500000X2.000000*%
%TD*%
%TA.AperFunction,SMDPad,CuDef*%
%ADD19R,3.800000X2.000000*%
%TD*%
%TA.AperFunction,SMDPad,CuDef*%
%ADD20RoundRect,0.140000X-0.140000X-0.170000X0.140000X-0.170000X0.140000X0.170000X-0.140000X0.170000X0*%
%TD*%
%TA.AperFunction,SMDPad,CuDef*%
%ADD21RoundRect,0.140000X-0.170000X0.140000X-0.170000X-0.140000X0.170000X-0.140000X0.170000X0.140000X0*%
%TD*%
%TA.AperFunction,SMDPad,CuDef*%
%ADD22R,1.400000X1.200000*%
%TD*%
%TA.AperFunction,SMDPad,CuDef*%
%ADD23RoundRect,0.075000X-0.075000X0.350000X-0.075000X-0.350000X0.075000X-0.350000X0.075000X0.350000X0*%
%TD*%
%TA.AperFunction,SMDPad,CuDef*%
%ADD24RoundRect,0.075000X-0.350000X-0.075000X0.350000X-0.075000X0.350000X0.075000X-0.350000X0.075000X0*%
%TD*%
%TA.AperFunction,SMDPad,CuDef*%
%ADD25R,0.400000X1.350000*%
%TD*%
%TA.AperFunction,ComponentPad*%
%ADD26O,1.200000X1.900000*%
%TD*%
%TA.AperFunction,SMDPad,CuDef*%
%ADD27R,1.500000X1.900000*%
%TD*%
%TA.AperFunction,SMDPad,CuDef*%
%ADD28R,1.200000X1.900000*%
%TD*%
%TA.AperFunction,ComponentPad*%
%ADD29C,1.450000*%
%TD*%
%TA.AperFunction,SMDPad,CuDef*%
%ADD30RoundRect,0.225000X-0.250000X0.225000X-0.250000X-0.225000X0.250000X-0.225000X0.250000X0.225000X0*%
%TD*%
%TA.AperFunction,SMDPad,CuDef*%
%ADD31RoundRect,0.125000X-0.375000X0.125000X-0.375000X-0.125000X0.375000X-0.125000X0.375000X0.125000X0*%
%TD*%
%TA.AperFunction,SMDPad,CuDef*%
%ADD32RoundRect,0.225000X-0.575000X0.225000X-0.575000X-0.225000X0.575000X-0.225000X0.575000X0.225000X0*%
%TD*%
%TA.AperFunction,SMDPad,CuDef*%
%ADD33RoundRect,0.218750X-0.218750X-0.256250X0.218750X-0.256250X0.218750X0.256250X-0.218750X0.256250X0*%
%TD*%
%TA.AperFunction,SMDPad,CuDef*%
%ADD34RoundRect,0.200000X-0.275000X0.200000X-0.275000X-0.200000X0.275000X-0.200000X0.275000X0.200000X0*%
%TD*%
%TA.AperFunction,SMDPad,CuDef*%
%ADD35RoundRect,0.135000X0.135000X0.185000X-0.135000X0.185000X-0.135000X-0.185000X0.135000X-0.185000X0*%
%TD*%
%TA.AperFunction,SMDPad,CuDef*%
%ADD36RoundRect,0.218750X0.218750X0.256250X-0.218750X0.256250X-0.218750X-0.256250X0.218750X-0.256250X0*%
%TD*%
%TA.AperFunction,SMDPad,CuDef*%
%ADD37RoundRect,0.218750X0.256250X-0.218750X0.256250X0.218750X-0.256250X0.218750X-0.256250X-0.218750X0*%
%TD*%
%TA.AperFunction,SMDPad,CuDef*%
%ADD38R,1.200000X0.900000*%
%TD*%
%TA.AperFunction,SMDPad,CuDef*%
%ADD39RoundRect,0.218750X-0.218750X-0.381250X0.218750X-0.381250X0.218750X0.381250X-0.218750X0.381250X0*%
%TD*%
%TA.AperFunction,ComponentPad*%
%ADD40C,3.200000*%
%TD*%
%TA.AperFunction,SMDPad,CuDef*%
%ADD41R,2.400000X0.740000*%
%TD*%
%TA.AperFunction,SMDPad,CuDef*%
%ADD42RoundRect,0.225000X0.250000X-0.225000X0.250000X0.225000X-0.250000X0.225000X-0.250000X-0.225000X0*%
%TD*%
%TA.AperFunction,SMDPad,CuDef*%
%ADD43RoundRect,0.225000X-0.225000X-0.250000X0.225000X-0.250000X0.225000X0.250000X-0.225000X0.250000X0*%
%TD*%
%TA.AperFunction,SMDPad,CuDef*%
%ADD44RoundRect,0.147500X0.147500X0.172500X-0.147500X0.172500X-0.147500X-0.172500X0.147500X-0.172500X0*%
%TD*%
%TA.AperFunction,SMDPad,CuDef*%
%ADD45RoundRect,0.250000X0.325000X0.650000X-0.325000X0.650000X-0.325000X-0.650000X0.325000X-0.650000X0*%
%TD*%
%TA.AperFunction,SMDPad,CuDef*%
%ADD46R,0.900000X1.700000*%
%TD*%
%TA.AperFunction,SMDPad,CuDef*%
%ADD47RoundRect,0.250000X0.287500X0.275000X-0.287500X0.275000X-0.287500X-0.275000X0.287500X-0.275000X0*%
%TD*%
%TA.AperFunction,ViaPad*%
%ADD48C,0.800000*%
%TD*%
%TA.AperFunction,Conductor*%
%ADD49C,0.300000*%
%TD*%
%TA.AperFunction,Conductor*%
%ADD50C,0.200000*%
%TD*%
%TA.AperFunction,Conductor*%
%ADD51C,0.250000*%
%TD*%
%TA.AperFunction,Conductor*%
%ADD52C,0.600000*%
%TD*%
%TA.AperFunction,Conductor*%
%ADD53C,0.400000*%
%TD*%
G04 APERTURE END LIST*
D10*
%TO.P,U1,1,VBAT*%
%TO.N,BUCK_VOUT_3V3*%
X142735000Y-95280000D03*
%TO.P,U1,2,PC13*%
%TO.N,unconnected-(U1-Pad2)*%
X142735000Y-95780000D03*
%TO.P,U1,3,PC14*%
%TO.N,unconnected-(U1-Pad3)*%
X142735000Y-96280000D03*
%TO.P,U1,4,PC15*%
%TO.N,unconnected-(U1-Pad4)*%
X142735000Y-96780000D03*
%TO.P,U1,5,PH0*%
%TO.N,HSE_IN*%
X142735000Y-97280000D03*
%TO.P,U1,6,PH1*%
%TO.N,HSE_OUT*%
X142735000Y-97780000D03*
%TO.P,U1,7,NRST*%
%TO.N,NRST*%
X142735000Y-98280000D03*
%TO.P,U1,8,PC0*%
%TO.N,unconnected-(U1-Pad8)*%
X142735000Y-98780000D03*
%TO.P,U1,9,PC1*%
%TO.N,unconnected-(U1-Pad9)*%
X142735000Y-99280000D03*
%TO.P,U1,10,PC2*%
%TO.N,unconnected-(U1-Pad10)*%
X142735000Y-99780000D03*
%TO.P,U1,11,PC3*%
%TO.N,unconnected-(U1-Pad11)*%
X142735000Y-100280000D03*
%TO.P,U1,12,VSSA*%
%TO.N,GND*%
X142735000Y-100780000D03*
%TO.P,U1,13,VDDA*%
%TO.N,BUCK_VOUT_3V3*%
X142735000Y-101280000D03*
%TO.P,U1,14,PA0*%
%TO.N,unconnected-(U1-Pad14)*%
X142735000Y-101780000D03*
%TO.P,U1,15,PA1*%
%TO.N,unconnected-(U1-Pad15)*%
X142735000Y-102280000D03*
%TO.P,U1,16,PA2*%
%TO.N,PWM4*%
X142735000Y-102780000D03*
D11*
%TO.P,U1,17,PA3*%
%TO.N,PWM3*%
X144660000Y-104705000D03*
%TO.P,U1,18,VSS*%
%TO.N,GND*%
X145160000Y-104705000D03*
%TO.P,U1,19,VDD*%
%TO.N,BUCK_VOUT_3V3*%
X145660000Y-104705000D03*
%TO.P,U1,20,PA4*%
%TO.N,MPU6000_CS_PIN*%
X146160000Y-104705000D03*
%TO.P,U1,21,PA5*%
%TO.N,GYRO_SCK_PIN*%
X146660000Y-104705000D03*
%TO.P,U1,22,PA6*%
%TO.N,GYRO_MISO_PIN*%
X147160000Y-104705000D03*
%TO.P,U1,23,PA7*%
%TO.N,GYRO_MOSI_PIN*%
X147660000Y-104705000D03*
%TO.P,U1,24,PC4*%
%TO.N,GYRO_INT_EXTI*%
X148160000Y-104705000D03*
%TO.P,U1,25,PC5*%
%TO.N,unconnected-(U1-Pad25)*%
X148660000Y-104705000D03*
%TO.P,U1,26,PB0*%
%TO.N,PWM1*%
X149160000Y-104705000D03*
%TO.P,U1,27,PB1*%
%TO.N,PWM2*%
X149660000Y-104705000D03*
%TO.P,U1,28,PB2*%
%TO.N,unconnected-(U1-Pad28)*%
X150160000Y-104705000D03*
%TO.P,U1,29,PB10*%
%TO.N,USART3_TX*%
X150660000Y-104705000D03*
%TO.P,U1,30,PB11*%
%TO.N,USART3_RX*%
X151160000Y-104705000D03*
%TO.P,U1,31,VCAP_1*%
%TO.N,Net-(C1-Pad1)*%
X151660000Y-104705000D03*
%TO.P,U1,32,VDD*%
%TO.N,BUCK_VOUT_3V3*%
X152160000Y-104705000D03*
D10*
%TO.P,U1,33,PB12*%
%TO.N,unconnected-(U1-Pad33)*%
X154085000Y-102780000D03*
%TO.P,U1,34,PB13*%
%TO.N,unconnected-(U1-Pad34)*%
X154085000Y-102280000D03*
%TO.P,U1,35,PB14*%
%TO.N,unconnected-(U1-Pad35)*%
X154085000Y-101780000D03*
%TO.P,U1,36,PB15*%
%TO.N,unconnected-(U1-Pad36)*%
X154085000Y-101280000D03*
%TO.P,U1,37,PC6*%
%TO.N,USART6_TX*%
X154085000Y-100780000D03*
%TO.P,U1,38,PC7*%
%TO.N,USART6_RX*%
X154085000Y-100280000D03*
%TO.P,U1,39,PC8*%
%TO.N,USART6_CK*%
X154085000Y-99780000D03*
%TO.P,U1,40,PC9*%
%TO.N,unconnected-(U1-Pad40)*%
X154085000Y-99280000D03*
%TO.P,U1,41,PA8*%
%TO.N,unconnected-(U1-Pad41)*%
X154085000Y-98780000D03*
%TO.P,U1,42,PA9*%
%TO.N,USART1_TX*%
X154085000Y-98280000D03*
%TO.P,U1,43,PA10*%
%TO.N,USART1_RX*%
X154085000Y-97780000D03*
%TO.P,U1,44,PA11*%
%TO.N,USB_D-*%
X154085000Y-97280000D03*
%TO.P,U1,45,PA12*%
%TO.N,USB_D+*%
X154085000Y-96780000D03*
%TO.P,U1,46,PA13*%
%TO.N,SWDIO*%
X154085000Y-96280000D03*
%TO.P,U1,47,VCAP_2*%
%TO.N,Net-(C3-Pad1)*%
X154085000Y-95780000D03*
%TO.P,U1,48,VDD*%
%TO.N,BUCK_VOUT_3V3*%
X154085000Y-95280000D03*
D11*
%TO.P,U1,49,PA14*%
%TO.N,SWCLK*%
X152160000Y-93355000D03*
%TO.P,U1,50,PA15*%
%TO.N,unconnected-(U1-Pad50)*%
X151660000Y-93355000D03*
%TO.P,U1,51,PC10*%
%TO.N,unconnected-(U1-Pad51)*%
X151160000Y-93355000D03*
%TO.P,U1,52,PC11*%
%TO.N,unconnected-(U1-Pad52)*%
X150660000Y-93355000D03*
%TO.P,U1,53,PC12*%
%TO.N,unconnected-(U1-Pad53)*%
X150160000Y-93355000D03*
%TO.P,U1,54,PD2*%
%TO.N,unconnected-(U1-Pad54)*%
X149660000Y-93355000D03*
%TO.P,U1,55,PB3*%
%TO.N,SWO*%
X149160000Y-93355000D03*
%TO.P,U1,56,PB4*%
%TO.N,unconnected-(U1-Pad56)*%
X148660000Y-93355000D03*
%TO.P,U1,57,PB5*%
%TO.N,LED0*%
X148160000Y-93355000D03*
%TO.P,U1,58,PB6*%
%TO.N,unconnected-(U1-Pad58)*%
X147660000Y-93355000D03*
%TO.P,U1,59,PB7*%
%TO.N,unconnected-(U1-Pad59)*%
X147160000Y-93355000D03*
%TO.P,U1,60,BOOT0*%
%TO.N,BOOT0*%
X146660000Y-93355000D03*
%TO.P,U1,61,PB8*%
%TO.N,unconnected-(U1-Pad61)*%
X146160000Y-93355000D03*
%TO.P,U1,62,PB9*%
%TO.N,unconnected-(U1-Pad62)*%
X145660000Y-93355000D03*
%TO.P,U1,63,VSS*%
%TO.N,GND*%
X145160000Y-93355000D03*
%TO.P,U1,64,VDD*%
%TO.N,BUCK_VOUT_3V3*%
X144660000Y-93355000D03*
%TD*%
D12*
%TO.P,J208,1,Pin_1*%
%TO.N,PWM4*%
X130890000Y-103460000D03*
D13*
%TO.P,J208,2,Pin_2*%
%TO.N,+5V*%
X129890000Y-103460000D03*
%TO.P,J208,3,Pin_3*%
%TO.N,GND*%
X128890000Y-103460000D03*
%TD*%
D14*
%TO.P,C8,1*%
%TO.N,BUCK_VOUT_3V3*%
X145240000Y-106510000D03*
%TO.P,C8,2*%
%TO.N,GND*%
X144280000Y-106510000D03*
%TD*%
D15*
%TO.P,C5,1*%
%TO.N,BUCK_VOUT_3V3*%
X156380000Y-95250000D03*
%TO.P,C5,2*%
%TO.N,GND*%
X156380000Y-94290000D03*
%TD*%
D16*
%TO.P,R201,1*%
%TO.N,USB_CONN_D+*%
X139870000Y-90240000D03*
%TO.P,R201,2*%
%TO.N,USB_D+*%
X139870000Y-91260000D03*
%TD*%
D17*
%TO.P,R1,1*%
%TO.N,BOOT0*%
X149060000Y-89940000D03*
%TO.P,R1,2*%
%TO.N,Net-(R1-Pad2)*%
X149060000Y-88920000D03*
%TD*%
D18*
%TO.P,VR101,1,IN*%
%TO.N,BUCK_IN*%
X157660000Y-107720000D03*
%TO.P,VR101,2,GND_2*%
%TO.N,GND*%
X159960000Y-107720000D03*
%TO.P,VR101,3,OUT*%
%TO.N,BUCK_VOUT_3V3*%
X162260000Y-107720000D03*
D19*
%TO.P,VR101,4,GND_4*%
%TO.N,GND*%
X159960000Y-101420000D03*
%TD*%
D20*
%TO.P,C6,1*%
%TO.N,BUCK_VOUT_3V3*%
X144040000Y-91600000D03*
%TO.P,C6,2*%
%TO.N,GND*%
X145000000Y-91600000D03*
%TD*%
%TO.P,C12,1*%
%TO.N,Net-(C12-Pad1)*%
X136130000Y-101330000D03*
%TO.P,C12,2*%
%TO.N,GND*%
X137090000Y-101330000D03*
%TD*%
%TO.P,C4,1*%
%TO.N,BUCK_VOUT_3V3*%
X153218000Y-105402000D03*
%TO.P,C4,2*%
%TO.N,GND*%
X154178000Y-105402000D03*
%TD*%
D21*
%TO.P,C317,1*%
%TO.N,Net-(C317-Pad1)*%
X149070000Y-115030000D03*
%TO.P,C317,2*%
%TO.N,GND*%
X149070000Y-115990000D03*
%TD*%
D22*
%TO.P,Y1,1,1*%
%TO.N,HSE_IN*%
X137850000Y-97830000D03*
%TO.P,Y1,2,2*%
%TO.N,GND*%
X135650000Y-97830000D03*
%TO.P,Y1,3,3*%
%TO.N,Net-(C12-Pad1)*%
X135650000Y-99530000D03*
%TO.P,Y1,4,4*%
%TO.N,GND*%
X137850000Y-99530000D03*
%TD*%
D12*
%TO.P,J210,1,Pin_1*%
%TO.N,USART1_TX*%
X162620000Y-92810000D03*
D13*
%TO.P,J210,2,Pin_2*%
%TO.N,USART1_RX*%
X162620000Y-91810000D03*
%TO.P,J210,3,Pin_3*%
%TO.N,unconnected-(J210-Pad3)*%
X162620000Y-90810000D03*
%TD*%
D12*
%TO.P,J202,1,Pin_1*%
%TO.N,+5V*%
X152600000Y-116620000D03*
D13*
%TO.P,J202,2,Pin_2*%
%TO.N,GND*%
X151600000Y-116620000D03*
%TD*%
D23*
%TO.P,U303,1,CLKIN*%
%TO.N,GND*%
X146950000Y-112320000D03*
%TO.P,U303,2*%
%TO.N,N/C*%
X146450000Y-112320000D03*
%TO.P,U303,3*%
X145950000Y-112320000D03*
%TO.P,U303,4*%
X145450000Y-112320000D03*
%TO.P,U303,5*%
X144950000Y-112320000D03*
%TO.P,U303,6,AUX_SDA*%
%TO.N,unconnected-(U303-Pad6)*%
X144450000Y-112320000D03*
D24*
%TO.P,U303,7,AUX_SCL*%
%TO.N,unconnected-(U303-Pad7)*%
X143750000Y-113020000D03*
%TO.P,U303,8,~{CS}*%
%TO.N,MPU6000_CS_PIN*%
X143750000Y-113520000D03*
%TO.P,U303,9,AD0/MISO*%
%TO.N,GYRO_MISO_PIN*%
X143750000Y-114020000D03*
%TO.P,U303,10,REGOUT*%
%TO.N,Net-(C316-Pad1)*%
X143750000Y-114520000D03*
%TO.P,U303,11,FSYNC*%
%TO.N,GND*%
X143750000Y-115020000D03*
%TO.P,U303,12,INT*%
%TO.N,GYRO_INT_EXTI*%
X143750000Y-115520000D03*
D23*
%TO.P,U303,13,VDD*%
%TO.N,BUCK_VOUT_3V3*%
X144450000Y-116220000D03*
%TO.P,U303,14*%
%TO.N,N/C*%
X144950000Y-116220000D03*
%TO.P,U303,15*%
X145450000Y-116220000D03*
%TO.P,U303,16*%
X145950000Y-116220000D03*
%TO.P,U303,17*%
X146450000Y-116220000D03*
%TO.P,U303,18,GND*%
%TO.N,GND*%
X146950000Y-116220000D03*
D24*
%TO.P,U303,19*%
%TO.N,N/C*%
X147650000Y-115520000D03*
%TO.P,U303,20,CPOUT*%
%TO.N,Net-(C317-Pad1)*%
X147650000Y-115020000D03*
%TO.P,U303,21*%
%TO.N,N/C*%
X147650000Y-114520000D03*
%TO.P,U303,22*%
X147650000Y-114020000D03*
%TO.P,U303,23,SCL/SCLK*%
%TO.N,GYRO_SCK_PIN*%
X147650000Y-113520000D03*
%TO.P,U303,24,SDA/MOSI*%
%TO.N,GYRO_MOSI_PIN*%
X147650000Y-113020000D03*
%TD*%
D25*
%TO.P,J201,1,VBUS*%
%TO.N,+5V*%
X141660000Y-87262500D03*
%TO.P,J201,2,D-*%
%TO.N,USB_CONN_D-*%
X141010000Y-87262500D03*
%TO.P,J201,3,D+*%
%TO.N,USB_CONN_D+*%
X140360000Y-87262500D03*
%TO.P,J201,4,ID*%
%TO.N,unconnected-(J201-Pad4)*%
X139710000Y-87262500D03*
%TO.P,J201,5,GND*%
%TO.N,GND*%
X139060000Y-87262500D03*
D26*
%TO.P,J201,6,Shield*%
%TO.N,unconnected-(J201-Pad6)*%
X143860000Y-84562500D03*
D27*
X141360000Y-84562500D03*
D28*
X137460000Y-84562500D03*
D29*
X137860000Y-87262500D03*
D27*
X139360000Y-84562500D03*
D29*
X142860000Y-87262500D03*
D28*
X143260000Y-84562500D03*
D26*
X136860000Y-84562500D03*
%TD*%
D14*
%TO.P,C316,1*%
%TO.N,Net-(C316-Pad1)*%
X142000000Y-114360000D03*
%TO.P,C316,2*%
%TO.N,GND*%
X141040000Y-114360000D03*
%TD*%
D30*
%TO.P,C1,1*%
%TO.N,Net-(C1-Pad1)*%
X151976500Y-106765000D03*
%TO.P,C1,2*%
%TO.N,GND*%
X151976500Y-108315000D03*
%TD*%
D31*
%TO.P,J204,1,Pin_1*%
%TO.N,GND*%
X130840000Y-91450000D03*
%TO.P,J204,2,Pin_2*%
%TO.N,+5V*%
X130840000Y-92250000D03*
%TO.P,J204,3,Pin_3*%
%TO.N,PWM4*%
X130840000Y-93050000D03*
%TO.P,J204,4,Pin_4*%
%TO.N,PWM3*%
X130840000Y-93850000D03*
%TO.P,J204,5,Pin_5*%
%TO.N,PWM2*%
X130840000Y-94650000D03*
%TO.P,J204,6,Pin_6*%
%TO.N,PWM1*%
X130840000Y-95450000D03*
D32*
%TO.P,J204,MP*%
%TO.N,N/C*%
X128920000Y-96700000D03*
X128920000Y-90200000D03*
%TD*%
D21*
%TO.P,C9,1*%
%TO.N,+3.3VA*%
X139440000Y-103130000D03*
%TO.P,C9,2*%
%TO.N,GND*%
X139440000Y-104090000D03*
%TD*%
D33*
%TO.P,D102,1,K*%
%TO.N,Net-(D102-Pad1)*%
X161652500Y-112100000D03*
%TO.P,D102,2,A*%
%TO.N,BUCK_VOUT_3V3*%
X163227500Y-112100000D03*
%TD*%
D12*
%TO.P,J207,1,Pin_1*%
%TO.N,PWM3*%
X130890000Y-101920000D03*
D13*
%TO.P,J207,2,Pin_2*%
%TO.N,+5V*%
X129890000Y-101920000D03*
%TO.P,J207,3,Pin_3*%
%TO.N,GND*%
X128890000Y-101920000D03*
%TD*%
D34*
%TO.P,R3,1*%
%TO.N,GND*%
X157020000Y-85065000D03*
%TO.P,R3,2*%
%TO.N,Net-(D1-Pad1)*%
X157020000Y-86715000D03*
%TD*%
D35*
%TO.P,R2,1*%
%TO.N,HSE_OUT*%
X140710000Y-99280000D03*
%TO.P,R2,2*%
%TO.N,Net-(C12-Pad1)*%
X139690000Y-99280000D03*
%TD*%
D36*
%TO.P,D1,1,K*%
%TO.N,Net-(D1-Pad1)*%
X157177500Y-88380000D03*
%TO.P,D1,2,A*%
%TO.N,LED0*%
X155602500Y-88380000D03*
%TD*%
D37*
%TO.P,F101,1*%
%TO.N,Net-(D101-Pad1)*%
X154700000Y-114057500D03*
%TO.P,F101,2*%
%TO.N,Net-(F101-Pad2)*%
X154700000Y-112482500D03*
%TD*%
D38*
%TO.P,D101,1,K*%
%TO.N,Net-(D101-Pad1)*%
X156700000Y-114310000D03*
%TO.P,D101,2,A*%
%TO.N,+5V*%
X156700000Y-117610000D03*
%TD*%
D12*
%TO.P,J209,1,Pin_1*%
%TO.N,USART6_TX*%
X162720000Y-97490000D03*
D13*
%TO.P,J209,2,Pin_2*%
%TO.N,USART6_RX*%
X162720000Y-96490000D03*
%TO.P,J209,3,Pin_3*%
%TO.N,USART6_CK*%
X162720000Y-95490000D03*
%TD*%
D21*
%TO.P,C10,1*%
%TO.N,+3.3VA*%
X140500000Y-103110000D03*
%TO.P,C10,2*%
%TO.N,GND*%
X140500000Y-104070000D03*
%TD*%
D16*
%TO.P,R202,1*%
%TO.N,USB_CONN_D-*%
X141070000Y-90270000D03*
%TO.P,R202,2*%
%TO.N,USB_D-*%
X141070000Y-91290000D03*
%TD*%
D39*
%TO.P,FB101,1*%
%TO.N,Net-(F101-Pad2)*%
X156237500Y-112640000D03*
%TO.P,FB101,2*%
%TO.N,BUCK_IN*%
X158362500Y-112640000D03*
%TD*%
D14*
%TO.P,C11,1*%
%TO.N,HSE_IN*%
X137160000Y-96220000D03*
%TO.P,C11,2*%
%TO.N,GND*%
X136200000Y-96220000D03*
%TD*%
D40*
%TO.P,H201,*%
%TO.N,*%
X161380000Y-116420000D03*
%TD*%
D41*
%TO.P,J203,1,Pin_1*%
%TO.N,BUCK_VOUT_3V3*%
X130410000Y-106250000D03*
%TO.P,J203,2,Pin_2*%
%TO.N,SWDIO*%
X134310000Y-106250000D03*
%TO.P,J203,3,Pin_3*%
%TO.N,GND*%
X130410000Y-107520000D03*
%TO.P,J203,4,Pin_4*%
%TO.N,SWCLK*%
X134310000Y-107520000D03*
%TO.P,J203,5,Pin_5*%
%TO.N,GND*%
X130410000Y-108790000D03*
%TO.P,J203,6,Pin_6*%
%TO.N,SWO*%
X134310000Y-108790000D03*
%TO.P,J203,7,Pin_7*%
%TO.N,unconnected-(J203-Pad7)*%
X130410000Y-110060000D03*
%TO.P,J203,8,Pin_8*%
%TO.N,unconnected-(J203-Pad8)*%
X134310000Y-110060000D03*
%TO.P,J203,9,Pin_9*%
%TO.N,GND*%
X130410000Y-111330000D03*
%TO.P,J203,10,Pin_10*%
%TO.N,NRST*%
X134310000Y-111330000D03*
%TD*%
D12*
%TO.P,J206,1,Pin_1*%
%TO.N,PWM2*%
X130890000Y-100370000D03*
D13*
%TO.P,J206,2,Pin_2*%
%TO.N,+5V*%
X129890000Y-100370000D03*
%TO.P,J206,3,Pin_3*%
%TO.N,GND*%
X128890000Y-100370000D03*
%TD*%
D42*
%TO.P,C3,1*%
%TO.N,Net-(C3-Pad1)*%
X154660000Y-93505000D03*
%TO.P,C3,2*%
%TO.N,GND*%
X154660000Y-91955000D03*
%TD*%
D40*
%TO.P,H203,*%
%TO.N,*%
X161390000Y-85770000D03*
%TD*%
D43*
%TO.P,C2,1*%
%TO.N,BUCK_VOUT_3V3*%
X143895000Y-90280000D03*
%TO.P,C2,2*%
%TO.N,GND*%
X145445000Y-90280000D03*
%TD*%
D14*
%TO.P,C7,1*%
%TO.N,BUCK_VOUT_3V3*%
X140910000Y-95290000D03*
%TO.P,C7,2*%
%TO.N,GND*%
X139950000Y-95290000D03*
%TD*%
D40*
%TO.P,H204,*%
%TO.N,*%
X130590000Y-85690000D03*
%TD*%
D44*
%TO.P,L1,1*%
%TO.N,BUCK_VOUT_3V3*%
X140445000Y-102070000D03*
%TO.P,L1,2*%
%TO.N,+3.3VA*%
X139475000Y-102070000D03*
%TD*%
D20*
%TO.P,C315,1*%
%TO.N,BUCK_VOUT_3V3*%
X144430000Y-117510000D03*
%TO.P,C315,2*%
%TO.N,GND*%
X145390000Y-117510000D03*
%TD*%
D12*
%TO.P,J211,1,Pin_1*%
%TO.N,USART3_TX*%
X159220000Y-90920000D03*
D13*
%TO.P,J211,2,Pin_2*%
%TO.N,USART3_RX*%
X159220000Y-91920000D03*
%TO.P,J211,3,Pin_3*%
%TO.N,unconnected-(J211-Pad3)*%
X159220000Y-92920000D03*
%TD*%
D40*
%TO.P,H202,*%
%TO.N,*%
X130570000Y-116420000D03*
%TD*%
D12*
%TO.P,J205,1,Pin_1*%
%TO.N,PWM1*%
X130890000Y-98830000D03*
D13*
%TO.P,J205,2,Pin_2*%
%TO.N,+5V*%
X129890000Y-98830000D03*
%TO.P,J205,3,Pin_3*%
%TO.N,GND*%
X128890000Y-98830000D03*
%TD*%
D45*
%TO.P,C101,1*%
%TO.N,BUCK_IN*%
X158275000Y-110480000D03*
%TO.P,C101,2*%
%TO.N,GND*%
X155325000Y-110480000D03*
%TD*%
D46*
%TO.P,SW1,1,A*%
%TO.N,BUCK_VOUT_3V3*%
X153240000Y-84905000D03*
%TO.P,SW1,2,B*%
%TO.N,Net-(R1-Pad2)*%
X149840000Y-84905000D03*
%TD*%
D12*
%TO.P,J101,1,Pin_1*%
%TO.N,BUCK_IN*%
X151560000Y-111440000D03*
%TD*%
D47*
%TO.P,C102,1*%
%TO.N,BUCK_VOUT_3V3*%
X163072500Y-109990000D03*
%TO.P,C102,2*%
%TO.N,GND*%
X161647500Y-109990000D03*
%TD*%
D12*
%TO.P,J102,1,Pin_1*%
%TO.N,GND*%
X135710000Y-117410000D03*
D13*
%TO.P,J102,2,Pin_2*%
X136710000Y-117410000D03*
%TO.P,J102,3,Pin_3*%
X137710000Y-117410000D03*
%TO.P,J102,4,Pin_4*%
X138710000Y-117410000D03*
%TD*%
D34*
%TO.P,R101,1*%
%TO.N,GND*%
X159970000Y-110635000D03*
%TO.P,R101,2*%
%TO.N,Net-(D102-Pad1)*%
X159970000Y-112285000D03*
%TD*%
D48*
%TO.N,PWM1*%
X132225000Y-95525000D03*
%TO.N,PWM2*%
X133775000Y-94700000D03*
%TO.N,PWM3*%
X135075000Y-93825000D03*
%TO.N,PWM4*%
X136675000Y-93050000D03*
%TO.N,USB_D+*%
X151474498Y-98266962D03*
%TO.N,USB_D-*%
X152216962Y-97524498D03*
%TO.N,USB_D+*%
X146722929Y-97227596D03*
%TO.N,USB_D-*%
X146722929Y-96177596D03*
%TO.N,GND*%
X146150000Y-111225000D03*
%TO.N,BUCK_VOUT_3V3*%
X145350000Y-107900000D03*
%TO.N,GYRO_MOSI_PIN*%
X148025000Y-107325000D03*
%TO.N,GYRO_INT_EXTI*%
X149675000Y-109175000D03*
%TO.N,PWM1*%
X150275000Y-108250000D03*
%TO.N,PWM2*%
X150700000Y-107200000D03*
%TO.N,GYRO_MOSI_PIN*%
X147225000Y-110825000D03*
%TO.N,BUCK_VOUT_3V3*%
X128610000Y-106230000D03*
X140930000Y-96210000D03*
X143925000Y-89125000D03*
X153320000Y-86180000D03*
X143575000Y-117850000D03*
X162280000Y-106210000D03*
X140180000Y-101110000D03*
X153160000Y-106330000D03*
X157420000Y-94670000D03*
X143825000Y-92425000D03*
%TO.N,GND*%
X128600000Y-108780000D03*
X153160000Y-108250000D03*
X157280000Y-93480000D03*
X139520000Y-98110000D03*
X145800000Y-91600000D03*
X138540000Y-104120000D03*
X128610000Y-107530000D03*
X144340000Y-100680000D03*
X146175000Y-117950000D03*
X131180000Y-90770000D03*
X145450000Y-89125000D03*
X143620000Y-107550000D03*
X149075000Y-116775000D03*
X128600000Y-111340000D03*
X154300000Y-110480000D03*
X154200000Y-106360000D03*
X136250000Y-95525000D03*
X140160000Y-114400000D03*
X155825000Y-91875000D03*
X138425000Y-88700000D03*
X134700000Y-96925000D03*
X141950000Y-115480000D03*
X159060000Y-99850000D03*
X157040000Y-84200000D03*
X161580000Y-99740000D03*
X159990000Y-106100000D03*
X139060000Y-95290000D03*
X146950000Y-117275000D03*
%TO.N,+5V*%
X130280000Y-97690000D03*
X139075000Y-93175000D03*
X142270000Y-91380000D03*
X129590000Y-92540000D03*
X154480000Y-117610000D03*
%TO.N,SWDIO*%
X145990000Y-103080000D03*
X138170000Y-106250000D03*
%TO.N,SWCLK*%
X151090000Y-94790000D03*
X148370000Y-95160000D03*
%TO.N,PWM4*%
X141800000Y-103860000D03*
%TO.N,PWM3*%
X142748000Y-106934000D03*
%TO.N,GYRO_INT_EXTI*%
X142390000Y-116440000D03*
%TO.N,USART3_TX*%
X151280000Y-99630000D03*
%TO.N,GYRO_MISO_PIN*%
X147370000Y-108620000D03*
X141690000Y-112940000D03*
%TO.N,USART3_RX*%
X152180000Y-100710000D03*
%TD*%
D49*
%TO.N,PWM1*%
X130890000Y-98830000D02*
X131615000Y-98830000D01*
X131615000Y-98830000D02*
X132450000Y-97995000D01*
X132450000Y-97995000D02*
X132450000Y-95750000D01*
X132450000Y-95750000D02*
X132225000Y-95525000D01*
X130840000Y-95450000D02*
X132150000Y-95450000D01*
X132150000Y-95450000D02*
X132225000Y-95525000D01*
%TO.N,PWM2*%
X130890000Y-100370000D02*
X132980000Y-100370000D01*
X132980000Y-100370000D02*
X133275000Y-100075000D01*
X133275000Y-100075000D02*
X133275000Y-98175000D01*
X132950000Y-97850000D02*
X132950000Y-96135787D01*
X133275000Y-98175000D02*
X132950000Y-97850000D01*
X132950000Y-96135787D02*
X133775000Y-95310788D01*
X133775000Y-95310788D02*
X133775000Y-94700000D01*
X130840000Y-94650000D02*
X133725000Y-94650000D01*
X133725000Y-94650000D02*
X133775000Y-94700000D01*
%TO.N,PWM3*%
X130890000Y-101920000D02*
X133280000Y-101920000D01*
X133280000Y-101920000D02*
X133775000Y-101425000D01*
X133775000Y-97932106D02*
X133450000Y-97607107D01*
X133775000Y-101425000D02*
X133775000Y-97932106D01*
X133450000Y-97607107D02*
X133450000Y-96342893D01*
X133450000Y-96342893D02*
X135075000Y-94717894D01*
X135075000Y-94717894D02*
X135075000Y-93825000D01*
X130840000Y-93850000D02*
X135050000Y-93850000D01*
%TO.N,PWM4*%
X130890000Y-103460000D02*
X133240000Y-103460000D01*
X133240000Y-103460000D02*
X134275000Y-102425000D01*
X134275000Y-102425000D02*
X134275000Y-97725000D01*
X133950000Y-97400000D02*
X133950000Y-96550000D01*
X134275000Y-97725000D02*
X133950000Y-97400000D01*
X133950000Y-96550000D02*
X136675000Y-93825000D01*
X136675000Y-93825000D02*
X136675000Y-93050000D01*
X130840000Y-93050000D02*
X130926000Y-92964000D01*
X130926000Y-92964000D02*
X136589000Y-92964000D01*
X136589000Y-92964000D02*
X136675000Y-93050000D01*
D50*
%TO.N,USB_D-*%
X154085000Y-97280000D02*
X152461460Y-97280000D01*
X152461460Y-97280000D02*
X152216962Y-97524498D01*
%TO.N,USB_D+*%
X151474498Y-98266962D02*
X151474498Y-97277012D01*
X151474498Y-97277012D02*
X151971510Y-96780000D01*
X151971510Y-96780000D02*
X154085000Y-96780000D01*
X139870000Y-91260000D02*
X142985000Y-94375000D01*
X142985000Y-94375000D02*
X143431800Y-94375000D01*
X143431800Y-94375000D02*
X145984397Y-96927597D01*
%TO.N,USB_D-*%
X146422930Y-96477595D02*
X146722929Y-96177596D01*
%TO.N,USB_D+*%
X145984397Y-96927597D02*
X146422930Y-96927597D01*
X146422930Y-96927597D02*
X146722929Y-97227596D01*
%TO.N,USB_D-*%
X141070000Y-91290000D02*
X141070000Y-91823603D01*
X143618200Y-93925000D02*
X146170795Y-96477595D01*
X141070000Y-91823603D02*
X143171397Y-93925000D01*
X143171397Y-93925000D02*
X143618200Y-93925000D01*
X146170795Y-96477595D02*
X146422930Y-96477595D01*
D49*
%TO.N,USART3_RX*%
X151280000Y-100710000D02*
X152180000Y-100710000D01*
D51*
%TO.N,GND*%
X146950000Y-111829315D02*
X146345685Y-111225000D01*
X146345685Y-111225000D02*
X146150000Y-111225000D01*
%TO.N,PWM2*%
X150700000Y-106775000D02*
X150700000Y-107200000D01*
D49*
%TO.N,MPU6000_CS_PIN*%
X142975480Y-111674520D02*
X142975480Y-113270841D01*
X146110970Y-108514030D02*
X142975480Y-111649520D01*
X146160000Y-104705000D02*
X146160000Y-106969040D01*
X146160000Y-106969040D02*
X146160960Y-106970000D01*
X146160960Y-107160000D02*
X146110970Y-107209990D01*
X146160960Y-106970000D02*
X146160960Y-107160000D01*
X142975480Y-111649520D02*
X142975480Y-111674520D01*
X146110970Y-107209990D02*
X146110970Y-108514030D01*
%TO.N,BUCK_VOUT_3V3*%
X145240000Y-106510000D02*
X145240000Y-107790000D01*
X145240000Y-107790000D02*
X145350000Y-107900000D01*
%TO.N,GYRO_MOSI_PIN*%
X147660000Y-104705000D02*
X147660000Y-105962873D01*
X147950000Y-106252873D02*
X147950000Y-107250000D01*
X147660000Y-105962873D02*
X147950000Y-106252873D01*
X147950000Y-107250000D02*
X148025000Y-107325000D01*
D51*
%TO.N,GYRO_INT_EXTI*%
X148160000Y-104705000D02*
X148160000Y-105545685D01*
X148160000Y-105545685D02*
X148600000Y-105985685D01*
X149325000Y-107250000D02*
X149325000Y-108825000D01*
X148600000Y-105985685D02*
X148600000Y-106525000D01*
X148600000Y-106525000D02*
X149325000Y-107250000D01*
X149325000Y-108825000D02*
X149675000Y-109175000D01*
%TO.N,PWM1*%
X149875000Y-107675000D02*
X149850000Y-107700000D01*
X149875000Y-106975000D02*
X149875000Y-107675000D01*
X149160000Y-106290000D02*
X149150000Y-106300000D01*
X149150000Y-106300000D02*
X149825000Y-106975000D01*
X149160000Y-104705000D02*
X149160000Y-106290000D01*
X149825000Y-106975000D02*
X149875000Y-106975000D01*
X149850000Y-107700000D02*
X149850000Y-107825000D01*
X149850000Y-107825000D02*
X150275000Y-108250000D01*
%TO.N,PWM2*%
X149660000Y-104705000D02*
X149660000Y-105735000D01*
X149660000Y-105735000D02*
X150700000Y-106775000D01*
D49*
%TO.N,GYRO_MOSI_PIN*%
X147800000Y-111400000D02*
X147225000Y-110825000D01*
X147800000Y-112950000D02*
X147800000Y-111400000D01*
D51*
%TO.N,GND*%
X146950000Y-111829315D02*
X146950000Y-112320000D01*
D49*
%TO.N,BUCK_VOUT_3V3*%
X153218000Y-106272000D02*
X153160000Y-106330000D01*
D52*
X162260000Y-106230000D02*
X162280000Y-106210000D01*
D49*
X152654000Y-105410000D02*
X153210000Y-105410000D01*
X143895000Y-89595000D02*
X143925000Y-89565000D01*
X156840000Y-95250000D02*
X157420000Y-94670000D01*
D52*
X163072500Y-109990000D02*
X163072500Y-111945000D01*
D49*
X152160000Y-104916000D02*
X152654000Y-105410000D01*
X141859639Y-101280000D02*
X141069639Y-102070000D01*
D51*
X140490000Y-102025000D02*
X140445000Y-102070000D01*
X128630000Y-106250000D02*
X128610000Y-106230000D01*
D49*
X140910000Y-95290000D02*
X140910000Y-96190000D01*
X144040000Y-91930000D02*
X144660000Y-92550000D01*
D51*
X130410000Y-106250000D02*
X128630000Y-106250000D01*
D52*
X163072500Y-109990000D02*
X163072500Y-108532500D01*
D49*
X152160000Y-104705000D02*
X152160000Y-104916000D01*
D51*
X140490000Y-101420000D02*
X140490000Y-102025000D01*
D49*
X153210000Y-105410000D02*
X153218000Y-105402000D01*
X153218000Y-105402000D02*
X153218000Y-106272000D01*
X144660000Y-92550000D02*
X144660000Y-93355000D01*
X140920000Y-95280000D02*
X142735000Y-95280000D01*
X140910000Y-95290000D02*
X140920000Y-95280000D01*
D52*
X163072500Y-111945000D02*
X163227500Y-112100000D01*
D49*
X143895000Y-90280000D02*
X143895000Y-89595000D01*
X156350000Y-95280000D02*
X156380000Y-95250000D01*
X144430000Y-117510000D02*
X143930000Y-117510000D01*
X144040000Y-92150000D02*
X143800000Y-92390000D01*
D52*
X163072500Y-108532500D02*
X162260000Y-107720000D01*
D49*
X142735000Y-101280000D02*
X141859639Y-101280000D01*
X140910000Y-96190000D02*
X140930000Y-96210000D01*
D52*
X162260000Y-107720000D02*
X162260000Y-106230000D01*
D49*
X141069639Y-102070000D02*
X140445000Y-102070000D01*
D51*
X153240000Y-84905000D02*
X153240000Y-86100000D01*
D49*
X145660000Y-104705000D02*
X145660000Y-106090000D01*
X143925000Y-89565000D02*
X143925000Y-89125000D01*
X144040000Y-91600000D02*
X144040000Y-92150000D01*
X156380000Y-95250000D02*
X156840000Y-95250000D01*
X144040000Y-91600000D02*
X144040000Y-91930000D01*
D51*
X153240000Y-86100000D02*
X153320000Y-86180000D01*
D49*
X143930000Y-117510000D02*
X143590000Y-117850000D01*
X144450000Y-116220000D02*
X144450000Y-117490000D01*
X143590000Y-117850000D02*
X143575000Y-117850000D01*
X144450000Y-117490000D02*
X144430000Y-117510000D01*
X154085000Y-95280000D02*
X156350000Y-95280000D01*
D51*
X140180000Y-101110000D02*
X140490000Y-101420000D01*
D49*
X145660000Y-106090000D02*
X145240000Y-106510000D01*
%TO.N,GND*%
X136200000Y-95510000D02*
X136210000Y-95500000D01*
X139060000Y-88060000D02*
X138390000Y-88730000D01*
D51*
X130840000Y-91450000D02*
X130840000Y-91110000D01*
D52*
X159960000Y-100750000D02*
X159060000Y-99850000D01*
D49*
X145860000Y-117510000D02*
X145870000Y-117500000D01*
D52*
X159960000Y-101420000D02*
X159960000Y-100750000D01*
D49*
X145000000Y-91600000D02*
X145800000Y-91600000D01*
X144280000Y-106510000D02*
X144280000Y-106890000D01*
D51*
X130410000Y-111330000D02*
X128610000Y-111330000D01*
D49*
X145000000Y-91600000D02*
X145160000Y-91760000D01*
X154660000Y-91955000D02*
X155295000Y-91955000D01*
X139060000Y-87262500D02*
X139060000Y-88060000D01*
D51*
X144240000Y-100780000D02*
X144340000Y-100680000D01*
X156380000Y-94290000D02*
X156470000Y-94290000D01*
X154178000Y-106338000D02*
X154200000Y-106360000D01*
X130840000Y-91110000D02*
X131180000Y-90770000D01*
D53*
X161002500Y-110635000D02*
X161647500Y-109990000D01*
D51*
X128620000Y-107520000D02*
X128610000Y-107530000D01*
D49*
X155295000Y-91955000D02*
X155375000Y-91875000D01*
X145445000Y-90280000D02*
X145445000Y-89595000D01*
D51*
X149070000Y-116770000D02*
X149075000Y-116775000D01*
X142640000Y-115190000D02*
X142350000Y-115480000D01*
D49*
X135650000Y-97830000D02*
X135590000Y-97830000D01*
D51*
X143750000Y-115020000D02*
X142810000Y-115020000D01*
D49*
X145450000Y-89590000D02*
X145450000Y-89125000D01*
D51*
X130410000Y-107520000D02*
X128620000Y-107520000D01*
D49*
X145160000Y-105580361D02*
X144280000Y-106460361D01*
D52*
X159960000Y-101360000D02*
X161580000Y-99740000D01*
D51*
X140200000Y-114360000D02*
X140160000Y-114400000D01*
X130410000Y-108790000D02*
X128610000Y-108790000D01*
D49*
X145445000Y-89595000D02*
X145450000Y-89590000D01*
X144280000Y-106890000D02*
X143620000Y-107550000D01*
D51*
X128610000Y-111330000D02*
X128600000Y-111340000D01*
D49*
X155375000Y-91875000D02*
X155825000Y-91875000D01*
X137850000Y-99530000D02*
X138149022Y-99530000D01*
D51*
X151976500Y-108315000D02*
X153095000Y-108315000D01*
D52*
X155325000Y-110480000D02*
X154300000Y-110480000D01*
D51*
X149070000Y-115990000D02*
X149070000Y-116770000D01*
D52*
X159960000Y-108302500D02*
X161647500Y-109990000D01*
D49*
X136200000Y-97280000D02*
X135650000Y-97830000D01*
X140500000Y-104070000D02*
X139460000Y-104070000D01*
X137090000Y-100290000D02*
X137850000Y-99530000D01*
D51*
X154178000Y-105402000D02*
X154178000Y-106338000D01*
X141040000Y-114360000D02*
X140200000Y-114360000D01*
D49*
X145870000Y-117500000D02*
X146175000Y-117805000D01*
X138570000Y-104090000D02*
X138540000Y-104120000D01*
X145390000Y-117510000D02*
X145860000Y-117510000D01*
D51*
X146950000Y-116220000D02*
X146950000Y-117275000D01*
X153095000Y-108315000D02*
X153160000Y-108250000D01*
D52*
X159960000Y-107720000D02*
X159960000Y-106130000D01*
D49*
X145445000Y-89595000D02*
X145440000Y-89590000D01*
D51*
X156470000Y-94290000D02*
X157280000Y-93480000D01*
D49*
X145160000Y-104705000D02*
X145160000Y-105580361D01*
D53*
X159970000Y-110635000D02*
X161002500Y-110635000D01*
D49*
X157040000Y-85045000D02*
X157020000Y-85065000D01*
X157040000Y-84200000D02*
X157040000Y-85045000D01*
D51*
X142810000Y-115020000D02*
X142640000Y-115190000D01*
D49*
X145160000Y-91760000D02*
X145160000Y-93355000D01*
D52*
X159960000Y-107720000D02*
X159960000Y-108302500D01*
D49*
X139460000Y-104070000D02*
X139440000Y-104090000D01*
D51*
X139950000Y-95290000D02*
X139060000Y-95290000D01*
X138100000Y-99530000D02*
X137850000Y-99530000D01*
X139520000Y-98110000D02*
X138100000Y-99530000D01*
D49*
X135590000Y-97830000D02*
X134680000Y-96920000D01*
X137090000Y-101330000D02*
X137090000Y-100290000D01*
D52*
X159960000Y-101420000D02*
X159960000Y-101360000D01*
X159960000Y-106130000D02*
X159990000Y-106100000D01*
D49*
X136200000Y-96220000D02*
X136200000Y-97280000D01*
X144280000Y-106460361D02*
X144280000Y-106510000D01*
X146175000Y-117805000D02*
X146175000Y-117950000D01*
X139440000Y-104090000D02*
X138570000Y-104090000D01*
D51*
X142735000Y-100780000D02*
X144240000Y-100780000D01*
D49*
X136200000Y-96220000D02*
X136200000Y-95510000D01*
D51*
X142350000Y-115480000D02*
X141950000Y-115480000D01*
X128610000Y-108790000D02*
X128600000Y-108780000D01*
D49*
%TO.N,+3.3VA*%
X139440000Y-103130000D02*
X140480000Y-103130000D01*
X139475000Y-102070000D02*
X139475000Y-103095000D01*
X139475000Y-103095000D02*
X139440000Y-103130000D01*
X140480000Y-103130000D02*
X140500000Y-103110000D01*
%TO.N,HSE_IN*%
X142735000Y-97280000D02*
X138400000Y-97280000D01*
X138400000Y-97280000D02*
X137850000Y-97830000D01*
X137160000Y-96220000D02*
X137160000Y-97140000D01*
X137160000Y-97140000D02*
X137850000Y-97830000D01*
D52*
%TO.N,BUCK_IN*%
X158275000Y-110480000D02*
X158275000Y-112552500D01*
X158275000Y-112552500D02*
X158362500Y-112640000D01*
X157660000Y-107720000D02*
X155280000Y-107720000D01*
X155280000Y-107720000D02*
X151560000Y-111440000D01*
X157660000Y-109865000D02*
X158275000Y-110480000D01*
X157660000Y-107720000D02*
X157660000Y-109865000D01*
D49*
%TO.N,Net-(C3-Pad1)*%
X154465000Y-93505000D02*
X154660000Y-93505000D01*
X153209639Y-95780000D02*
X152960480Y-95530841D01*
X152960480Y-95009520D02*
X154465000Y-93505000D01*
X152960480Y-95530841D02*
X152960480Y-95009520D01*
X154085000Y-95780000D02*
X153209639Y-95780000D01*
%TO.N,Net-(D1-Pad1)*%
X157020000Y-88222500D02*
X157177500Y-88380000D01*
X157020000Y-86715000D02*
X157020000Y-88222500D01*
D52*
%TO.N,Net-(D101-Pad1)*%
X154700000Y-114057500D02*
X156447500Y-114057500D01*
X156447500Y-114057500D02*
X156700000Y-114310000D01*
D53*
%TO.N,+5V*%
X142270000Y-88930000D02*
X141650000Y-88310000D01*
D52*
X129890000Y-98080000D02*
X130280000Y-97690000D01*
X129890000Y-98830000D02*
X129890000Y-100370000D01*
D53*
X142270000Y-91380000D02*
X142270000Y-88930000D01*
X154480000Y-117610000D02*
X154460000Y-117590000D01*
X130840000Y-92250000D02*
X129880000Y-92250000D01*
X141650000Y-87272500D02*
X141660000Y-87262500D01*
X154870000Y-117610000D02*
X153880000Y-116620000D01*
X153880000Y-116620000D02*
X152600000Y-116620000D01*
X129880000Y-92250000D02*
X129590000Y-92540000D01*
X154870000Y-117610000D02*
X154480000Y-117610000D01*
D52*
X129890000Y-100370000D02*
X129890000Y-101920000D01*
D53*
X141650000Y-88310000D02*
X141650000Y-87272500D01*
X139075000Y-93175000D02*
X138150000Y-92250000D01*
D52*
X129890000Y-101920000D02*
X129890000Y-103460000D01*
X129890000Y-98830000D02*
X129890000Y-98080000D01*
D53*
X156700000Y-117610000D02*
X154870000Y-117610000D01*
X138150000Y-92250000D02*
X130840000Y-92250000D01*
X139080000Y-93180000D02*
X139075000Y-93175000D01*
D51*
%TO.N,Net-(C316-Pad1)*%
X142160000Y-114520000D02*
X142000000Y-114360000D01*
X143750000Y-114520000D02*
X142160000Y-114520000D01*
D52*
%TO.N,Net-(F101-Pad2)*%
X154700000Y-112482500D02*
X156080000Y-112482500D01*
X156080000Y-112482500D02*
X156237500Y-112640000D01*
D50*
%TO.N,USB_CONN_D-*%
X140859511Y-87412989D02*
X141010000Y-87262500D01*
X140320001Y-88762904D02*
X140859511Y-88223394D01*
X141070000Y-90270000D02*
X140320001Y-89520001D01*
X140859511Y-88223394D02*
X140859511Y-87412989D01*
X140320001Y-89520001D02*
X140320001Y-88762904D01*
%TO.N,USB_CONN_D+*%
X139870000Y-88576522D02*
X140209511Y-88237011D01*
X139870000Y-90240000D02*
X139870000Y-88576522D01*
X140360000Y-87276103D02*
X140360000Y-87262500D01*
X140209511Y-88237011D02*
X140209511Y-87426592D01*
X140209511Y-87426592D02*
X140360000Y-87276103D01*
D49*
%TO.N,Net-(C317-Pad1)*%
X149060000Y-115020000D02*
X149070000Y-115030000D01*
X147650000Y-115020000D02*
X149060000Y-115020000D01*
D52*
%TO.N,Net-(D102-Pad1)*%
X159970000Y-112285000D02*
X161467500Y-112285000D01*
X161467500Y-112285000D02*
X161652500Y-112100000D01*
D51*
%TO.N,SWDIO*%
X134310000Y-106250000D02*
X138170000Y-106250000D01*
X149760000Y-99310000D02*
X145990000Y-103080000D01*
X152298567Y-95540000D02*
X149880000Y-95540000D01*
X149880000Y-95540000D02*
X149760000Y-95660000D01*
X149760000Y-95660000D02*
X149760000Y-99310000D01*
X138170000Y-106250000D02*
X138200000Y-106220000D01*
X154085000Y-96280000D02*
X153038567Y-96280000D01*
X153038567Y-96280000D02*
X152298567Y-95540000D01*
%TO.N,SWCLK*%
X152160000Y-94195006D02*
X152160000Y-93355000D01*
X148020000Y-96790000D02*
X148020000Y-96000000D01*
X148020000Y-95510000D02*
X148310000Y-95220000D01*
X148020000Y-96000000D02*
X148020000Y-95510000D01*
X134310000Y-107520000D02*
X139335006Y-107520000D01*
X151090000Y-94790000D02*
X151565006Y-94790000D01*
X139335006Y-107520000D02*
X148020000Y-98835006D01*
X151565006Y-94790000D02*
X152160000Y-94195006D01*
X148020000Y-98835006D02*
X148020000Y-96800000D01*
X148020000Y-96800000D02*
X148020000Y-96790000D01*
%TO.N,SWO*%
X149160000Y-98500000D02*
X149160000Y-93355000D01*
X134310000Y-108790000D02*
X138870000Y-108790000D01*
X138870000Y-108790000D02*
X149160000Y-98500000D01*
%TO.N,NRST*%
X141304520Y-98870474D02*
X141304520Y-99985480D01*
X142735000Y-98280000D02*
X141894994Y-98280000D01*
X141894994Y-98280000D02*
X141304520Y-98870474D01*
X132909022Y-105555489D02*
X131934511Y-106530000D01*
X134545583Y-105555489D02*
X132909022Y-105555489D01*
X140970000Y-100320000D02*
X139781072Y-100320000D01*
X131934511Y-106530000D02*
X131934511Y-110684511D01*
X131934511Y-110684511D02*
X132580000Y-111330000D01*
X141304520Y-99985480D02*
X140970000Y-100320000D01*
X139781072Y-100320000D02*
X134545583Y-105555489D01*
X132580000Y-111330000D02*
X134310000Y-111330000D01*
D49*
%TO.N,Net-(C1-Pad1)*%
X151660000Y-106448500D02*
X151976500Y-106765000D01*
X151660000Y-104705000D02*
X151660000Y-106448500D01*
%TO.N,BOOT0*%
X149060000Y-89940000D02*
X146660000Y-92340000D01*
X146660000Y-92340000D02*
X146660000Y-93355000D01*
%TO.N,HSE_OUT*%
X140710000Y-97830000D02*
X140710000Y-99280000D01*
X140760000Y-97780000D02*
X140710000Y-97830000D01*
X142735000Y-97780000D02*
X140760000Y-97780000D01*
%TO.N,Net-(C12-Pad1)*%
X137440480Y-101989520D02*
X139690000Y-99740000D01*
X139690000Y-99740000D02*
X139690000Y-99280000D01*
X135650000Y-99530000D02*
X135650000Y-100850000D01*
X136130000Y-101330000D02*
X136130000Y-101372285D01*
X136130000Y-101372285D02*
X136747235Y-101989520D01*
X135650000Y-100850000D02*
X136130000Y-101330000D01*
X136747235Y-101989520D02*
X137440480Y-101989520D01*
D51*
%TO.N,PWM4*%
X142735000Y-102925000D02*
X141800000Y-103860000D01*
X142735000Y-102780000D02*
X142735000Y-102925000D01*
D49*
%TO.N,PWM3*%
X144215000Y-104705000D02*
X144660000Y-104705000D01*
X143510000Y-105410000D02*
X144215000Y-104705000D01*
X142748000Y-106934000D02*
X142748000Y-106394873D01*
X143510000Y-105632873D02*
X143510000Y-105410000D01*
X142748000Y-106394873D02*
X143510000Y-105632873D01*
%TO.N,USART6_TX*%
X156800000Y-100780000D02*
X160090000Y-97490000D01*
X154085000Y-100780000D02*
X156800000Y-100780000D01*
X160090000Y-97490000D02*
X162720000Y-97490000D01*
%TO.N,USART6_RX*%
X161640481Y-96490000D02*
X162720000Y-96490000D01*
X156593572Y-100280000D02*
X159883093Y-96990480D01*
X161140000Y-96990481D02*
X161640481Y-96490000D01*
X154085000Y-100280000D02*
X156593572Y-100280000D01*
X159883093Y-96990480D02*
X161140000Y-96990481D01*
%TO.N,USART6_CK*%
X154085000Y-99780000D02*
X156387144Y-99780000D01*
X160840000Y-96490961D02*
X161840961Y-95490000D01*
X159676183Y-96490961D02*
X160840000Y-96490961D01*
X156387144Y-99780000D02*
X159676183Y-96490961D01*
X161840961Y-95490000D02*
X162720000Y-95490000D01*
%TO.N,USART1_TX*%
X161777406Y-92810000D02*
X162620000Y-92810000D01*
X160809519Y-93777887D02*
X161777406Y-92810000D01*
X160809519Y-94106909D02*
X160809519Y-93777887D01*
X154085000Y-98280000D02*
X156636427Y-98280000D01*
X156636427Y-98280000D02*
X160809519Y-94106909D01*
%TO.N,LED0*%
X148160000Y-92479639D02*
X151069639Y-89570000D01*
X151069639Y-89570000D02*
X155330000Y-89570000D01*
X155602500Y-89297500D02*
X155602500Y-88380000D01*
X155330000Y-89570000D02*
X155602500Y-89297500D01*
X148160000Y-93355000D02*
X148160000Y-92479639D01*
D51*
%TO.N,GYRO_INT_EXTI*%
X143310000Y-115520000D02*
X142390000Y-116440000D01*
X143750000Y-115520000D02*
X143310000Y-115520000D01*
%TO.N,Net-(R1-Pad2)*%
X149840000Y-84905000D02*
X149840000Y-88140000D01*
X149840000Y-88140000D02*
X149060000Y-88920000D01*
D49*
%TO.N,USART1_RX*%
X160310000Y-93570978D02*
X160310000Y-93900000D01*
X162620000Y-91810000D02*
X162070978Y-91810000D01*
X156430000Y-97780000D02*
X154085000Y-97780000D01*
X160310000Y-93900000D02*
X156430000Y-97780000D01*
X162070978Y-91810000D02*
X160310000Y-93570978D01*
%TO.N,USART3_TX*%
X150660000Y-100250000D02*
X151280000Y-99630000D01*
X150660000Y-104705000D02*
X150660000Y-100250000D01*
%TO.N,MPU6000_CS_PIN*%
X143224639Y-113520000D02*
X142975480Y-113270841D01*
X143750000Y-113520000D02*
X143224639Y-113520000D01*
%TO.N,GYRO_SCK_PIN*%
X147650000Y-113520000D02*
X148175361Y-113520000D01*
X146610489Y-109010489D02*
X148549511Y-110949511D01*
X146660480Y-107340000D02*
X146610489Y-107389991D01*
X146610489Y-107389991D02*
X146610489Y-109010489D01*
X146660480Y-105857387D02*
X146660480Y-107340000D01*
X146660000Y-105856907D02*
X146660480Y-105857387D01*
X148549511Y-110949511D02*
X148549511Y-113145850D01*
X148549511Y-113145850D02*
X148175361Y-113520000D01*
X146660000Y-104705000D02*
X146660000Y-105856907D01*
D51*
%TO.N,GYRO_MISO_PIN*%
X143750000Y-114020000D02*
X142770000Y-114020000D01*
D49*
X147160000Y-104705000D02*
X147160000Y-108410000D01*
X147160000Y-108410000D02*
X147370000Y-108620000D01*
D51*
X142770000Y-114020000D02*
X141690000Y-112940000D01*
D49*
%TO.N,GYRO_MOSI_PIN*%
X147730000Y-113020000D02*
X147800000Y-112950000D01*
X147650000Y-113020000D02*
X147730000Y-113020000D01*
%TO.N,USART3_RX*%
X151160000Y-100830000D02*
X151280000Y-100710000D01*
X151160000Y-104705000D02*
X151160000Y-100830000D01*
D51*
%TO.N,unconnected-(J201-Pad6)*%
X142920000Y-84882500D02*
X143320000Y-84482500D01*
X141420000Y-84482500D02*
X139420000Y-84482500D01*
X143320000Y-84482500D02*
X141420000Y-84482500D01*
X137920000Y-84882500D02*
X137520000Y-84482500D01*
X137520000Y-84482500D02*
X139420000Y-84482500D01*
X137920000Y-87182500D02*
X137920000Y-84882500D01*
X142920000Y-87182500D02*
X142920000Y-84882500D01*
%TD*%
M02*
