%TF.GenerationSoftware,KiCad,Pcbnew,(6.0.5)*%
%TF.CreationDate,2022-07-23T17:35:02+02:00*%
%TF.ProjectId,DroneHardware,44726f6e-6548-4617-9264-776172652e6b,rev?*%
%TF.SameCoordinates,Original*%
%TF.FileFunction,Copper,L4,Bot*%
%TF.FilePolarity,Positive*%
%FSLAX46Y46*%
G04 Gerber Fmt 4.6, Leading zero omitted, Abs format (unit mm)*
G04 Created by KiCad (PCBNEW (6.0.5)) date 2022-07-23 17:35:02*
%MOMM*%
%LPD*%
G01*
G04 APERTURE LIST*
%TA.AperFunction,ComponentPad*%
%ADD10R,0.850000X0.850000*%
%TD*%
%TA.AperFunction,ComponentPad*%
%ADD11O,0.850000X0.850000*%
%TD*%
%TA.AperFunction,ComponentPad*%
%ADD12O,1.200000X1.900000*%
%TD*%
%TA.AperFunction,ComponentPad*%
%ADD13C,1.450000*%
%TD*%
%TA.AperFunction,ComponentPad*%
%ADD14C,3.200000*%
%TD*%
%TA.AperFunction,ViaPad*%
%ADD15C,0.400000*%
%TD*%
%TA.AperFunction,ViaPad*%
%ADD16C,0.800000*%
%TD*%
%TA.AperFunction,Conductor*%
%ADD17C,0.400000*%
%TD*%
%TA.AperFunction,Conductor*%
%ADD18C,0.600000*%
%TD*%
%TA.AperFunction,Conductor*%
%ADD19C,0.250000*%
%TD*%
%TA.AperFunction,Conductor*%
%ADD20C,0.300000*%
%TD*%
%TA.AperFunction,Conductor*%
%ADD21C,0.200000*%
%TD*%
G04 APERTURE END LIST*
D10*
%TO.P,J208,1,Pin_1*%
%TO.N,PWM4*%
X130890000Y-103460000D03*
D11*
%TO.P,J208,2,Pin_2*%
%TO.N,+5V*%
X129890000Y-103460000D03*
%TO.P,J208,3,Pin_3*%
%TO.N,GND*%
X128890000Y-103460000D03*
%TD*%
D10*
%TO.P,J210,1,Pin_1*%
%TO.N,USART1_TX*%
X162620000Y-92810000D03*
D11*
%TO.P,J210,2,Pin_2*%
%TO.N,USART1_RX*%
X162620000Y-91810000D03*
%TO.P,J210,3,Pin_3*%
%TO.N,unconnected-(J210-Pad3)*%
X162620000Y-90810000D03*
%TD*%
D10*
%TO.P,J202,1,Pin_1*%
%TO.N,+5V*%
X152600000Y-116620000D03*
D11*
%TO.P,J202,2,Pin_2*%
%TO.N,GND*%
X151600000Y-116620000D03*
%TD*%
D12*
%TO.P,J201,6,Shield*%
%TO.N,unconnected-(J201-Pad6)*%
X143860000Y-84562500D03*
D13*
X137860000Y-87262500D03*
X142860000Y-87262500D03*
D12*
X136860000Y-84562500D03*
%TD*%
D10*
%TO.P,J207,1,Pin_1*%
%TO.N,PWM3*%
X130890000Y-101920000D03*
D11*
%TO.P,J207,2,Pin_2*%
%TO.N,+5V*%
X129890000Y-101920000D03*
%TO.P,J207,3,Pin_3*%
%TO.N,GND*%
X128890000Y-101920000D03*
%TD*%
D10*
%TO.P,J209,1,Pin_1*%
%TO.N,USART6_TX*%
X162720000Y-97490000D03*
D11*
%TO.P,J209,2,Pin_2*%
%TO.N,USART6_RX*%
X162720000Y-96490000D03*
%TO.P,J209,3,Pin_3*%
%TO.N,USART6_CK*%
X162720000Y-95490000D03*
%TD*%
D14*
%TO.P,H201,*%
%TO.N,*%
X161380000Y-116420000D03*
%TD*%
D10*
%TO.P,J206,1,Pin_1*%
%TO.N,PWM2*%
X130890000Y-100370000D03*
D11*
%TO.P,J206,2,Pin_2*%
%TO.N,+5V*%
X129890000Y-100370000D03*
%TO.P,J206,3,Pin_3*%
%TO.N,GND*%
X128890000Y-100370000D03*
%TD*%
D14*
%TO.P,H203,*%
%TO.N,*%
X161390000Y-85770000D03*
%TD*%
%TO.P,H204,*%
%TO.N,*%
X130590000Y-85690000D03*
%TD*%
D10*
%TO.P,J211,1,Pin_1*%
%TO.N,USART3_TX*%
X159220000Y-90920000D03*
D11*
%TO.P,J211,2,Pin_2*%
%TO.N,USART3_RX*%
X159220000Y-91920000D03*
%TO.P,J211,3,Pin_3*%
%TO.N,unconnected-(J211-Pad3)*%
X159220000Y-92920000D03*
%TD*%
D14*
%TO.P,H202,*%
%TO.N,*%
X130570000Y-116420000D03*
%TD*%
D10*
%TO.P,J205,1,Pin_1*%
%TO.N,PWM1*%
X130890000Y-98830000D03*
D11*
%TO.P,J205,2,Pin_2*%
%TO.N,+5V*%
X129890000Y-98830000D03*
%TO.P,J205,3,Pin_3*%
%TO.N,GND*%
X128890000Y-98830000D03*
%TD*%
D15*
%TO.N,BUCK_VOUT_3V3*%
X128990000Y-106240000D03*
X156370000Y-95720000D03*
X140920000Y-95860000D03*
X143910000Y-117530000D03*
X145210000Y-107160000D03*
D16*
X153320000Y-86180000D03*
D15*
X143900000Y-89590000D03*
D16*
X162280000Y-106210000D03*
D15*
X143800000Y-92390000D03*
X153228000Y-104862000D03*
X140590000Y-101490000D03*
%TO.N,GND*%
X142880000Y-115080000D03*
X141930000Y-115810000D03*
X139560000Y-94750000D03*
X138241444Y-100411444D03*
X146940000Y-117050000D03*
X152146000Y-109030000D03*
X154168000Y-104892000D03*
X139520000Y-104680000D03*
D16*
X131180000Y-90770000D03*
D15*
X143790000Y-106130000D03*
X145440000Y-89590000D03*
D16*
X154300000Y-110480000D03*
D15*
X145520000Y-91640000D03*
X145870000Y-117500000D03*
X146940000Y-111440000D03*
X138390000Y-88730000D03*
X156720000Y-93750000D03*
X128950000Y-107520000D03*
X149070000Y-116500000D03*
X155360000Y-91890000D03*
X140480000Y-104620000D03*
X134680000Y-96920000D03*
X161640000Y-109920000D03*
D16*
X159060000Y-99850000D03*
D15*
X141440000Y-100750000D03*
X128940000Y-108780000D03*
D16*
X157040000Y-84200000D03*
D15*
X136210000Y-95500000D03*
X128940000Y-111310000D03*
D16*
X161580000Y-99740000D03*
X159990000Y-106100000D03*
%TO.N,+5V*%
X130280000Y-97690000D03*
D15*
X154460000Y-117590000D03*
X139080000Y-93180000D03*
D16*
X129590000Y-92540000D03*
D15*
X142270000Y-91380000D03*
%TO.N,SWDIO*%
X138210000Y-106240000D03*
X145920000Y-103150000D03*
%TO.N,SWCLK*%
X148330000Y-95200000D03*
X151090000Y-94790000D03*
%TO.N,PWM4*%
X133350000Y-92964000D03*
X141986000Y-103886000D03*
%TO.N,PWM3*%
X142748000Y-106934000D03*
X132842000Y-93980000D03*
%TO.N,USB_D-*%
X152713374Y-98053375D03*
X146830000Y-97065000D03*
%TO.N,USB_D+*%
X151583677Y-97715000D03*
X146830000Y-97715000D03*
%TO.N,PWM1*%
X131826000Y-95504000D03*
X149352000Y-107950000D03*
%TO.N,GYRO_INT_EXTI*%
X148307788Y-106666954D03*
X142890908Y-115679404D03*
%TO.N,USART3_TX*%
X151280000Y-99630000D03*
%TO.N,GYRO_MISO_PIN*%
X147160000Y-107830000D03*
X142380000Y-112750000D03*
%TO.N,GYRO_MOSI_PIN*%
X147709500Y-106705093D03*
X147800000Y-111410000D03*
%TO.N,PWM2*%
X149901500Y-107442000D03*
X132334000Y-94742000D03*
%TO.N,USART3_RX*%
X151660000Y-100330000D03*
%TD*%
D17*
%TO.N,+5V*%
X145730000Y-98490000D02*
X140970000Y-93730000D01*
X140970000Y-93730000D02*
X140970000Y-92680000D01*
X155099511Y-104975673D02*
X148613838Y-98490000D01*
X148613838Y-98490000D02*
X145730000Y-98490000D01*
X155099511Y-116950489D02*
X155099511Y-104975673D01*
D18*
X130280000Y-97690000D02*
X130280000Y-93230000D01*
D17*
X154460000Y-117590000D02*
X155099511Y-116950489D01*
X140970000Y-92680000D02*
X139580000Y-92680000D01*
X139580000Y-92680000D02*
X139080000Y-93180000D01*
D18*
X130280000Y-93230000D02*
X129590000Y-92540000D01*
D17*
X140970000Y-92680000D02*
X142270000Y-91380000D01*
D19*
%TO.N,SWDIO*%
X139650000Y-106090000D02*
X141734614Y-106090000D01*
X144574614Y-103250000D02*
X145600000Y-103250000D01*
X139520000Y-106220000D02*
X139650000Y-106090000D01*
X138210000Y-106220000D02*
X139520000Y-106220000D01*
X141734614Y-106090000D02*
X144574614Y-103250000D01*
X145820000Y-103250000D02*
X145910000Y-103160000D01*
X145600000Y-103250000D02*
X145820000Y-103250000D01*
%TO.N,SWCLK*%
X148370000Y-95160000D02*
X148740000Y-94790000D01*
X148740000Y-94790000D02*
X151090000Y-94790000D01*
D20*
%TO.N,PWM4*%
X141986000Y-103886000D02*
X141986000Y-103891127D01*
X133391511Y-103082489D02*
X133391511Y-93513511D01*
X135636000Y-105410000D02*
X133350000Y-103124000D01*
X141986000Y-103891127D02*
X140467127Y-105410000D01*
X133391511Y-93513511D02*
X133350000Y-93472000D01*
X140467127Y-105410000D02*
X135636000Y-105410000D01*
X133350000Y-93472000D02*
X133350000Y-92964000D01*
X133350000Y-103124000D02*
X133391511Y-103082489D01*
%TO.N,PWM3*%
X136723428Y-113720572D02*
X137165873Y-113720572D01*
X142748000Y-108138445D02*
X142748000Y-106934000D01*
X132842000Y-109839144D02*
X136723428Y-113720572D01*
X137165873Y-113720572D02*
X142748000Y-108138445D01*
X132883511Y-100542489D02*
X132842000Y-100584000D01*
X132883511Y-94021511D02*
X132883511Y-100542489D01*
X132842000Y-93980000D02*
X132883511Y-94021511D01*
X132842000Y-100584000D02*
X132842000Y-109839144D01*
D21*
%TO.N,USB_D-*%
X152713374Y-97953374D02*
X152713374Y-98053375D01*
X152600000Y-97840000D02*
X152713374Y-97953374D01*
X151924999Y-97164999D02*
X152600000Y-97840000D01*
X146830000Y-97065000D02*
X146930000Y-97165000D01*
X151483678Y-97164999D02*
X151924999Y-97164999D01*
X146930000Y-97165000D02*
X151483678Y-97164999D01*
%TO.N,USB_D+*%
X146830000Y-97715000D02*
X146930000Y-97615000D01*
X146930000Y-97615000D02*
X151483678Y-97615001D01*
X151483678Y-97615001D02*
X151583677Y-97715000D01*
D20*
%TO.N,PWM1*%
X149352000Y-106934039D02*
X149352000Y-107950000D01*
X137414000Y-115824000D02*
X147120557Y-106117443D01*
X131826000Y-95504000D02*
X131826000Y-110236000D01*
X147120557Y-106117443D02*
X148535404Y-106117443D01*
X148535404Y-106117443D02*
X149352000Y-106934039D01*
X131826000Y-110236000D02*
X137414000Y-115824000D01*
%TO.N,GYRO_INT_EXTI*%
X148799520Y-111187607D02*
X144307723Y-115679404D01*
X148799520Y-107158686D02*
X148799520Y-111187607D01*
X144307723Y-115679404D02*
X142890908Y-115679404D01*
X148307788Y-106666954D02*
X148799520Y-107158686D01*
%TO.N,USART3_TX*%
X155820489Y-95723387D02*
X155820489Y-93872384D01*
X158772873Y-90920000D02*
X159220000Y-90920000D01*
X155820489Y-93872384D02*
X158772873Y-90920000D01*
X151913876Y-99630000D02*
X155820489Y-95723387D01*
X151280000Y-99630000D02*
X151913876Y-99630000D01*
%TO.N,GYRO_MISO_PIN*%
X142400000Y-112500000D02*
X142380000Y-112520000D01*
X147160000Y-107790000D02*
X142450000Y-112500000D01*
X142380000Y-112520000D02*
X142380000Y-112750000D01*
X142450000Y-112500000D02*
X142400000Y-112500000D01*
%TO.N,GYRO_MOSI_PIN*%
X147659520Y-106710480D02*
X147659520Y-107439520D01*
X147659520Y-107439520D02*
X148300000Y-108080000D01*
X147664907Y-106705093D02*
X147659520Y-106710480D01*
X148300000Y-110850000D02*
X147800000Y-111350000D01*
X148300000Y-108080000D02*
X148300000Y-110850000D01*
X147709500Y-106705093D02*
X147664907Y-106705093D01*
%TO.N,PWM2*%
X132375511Y-96478489D02*
X132334000Y-96520000D01*
X137469572Y-115062000D02*
X137568786Y-114962786D01*
X137358428Y-115062000D02*
X137469572Y-115062000D01*
X145974950Y-105617923D02*
X148797923Y-105617923D01*
X132334000Y-96520000D02*
X132334000Y-110037572D01*
X148797923Y-105617923D02*
X149901500Y-106721500D01*
X149901500Y-106721500D02*
X149901500Y-107442000D01*
X132334000Y-110037572D02*
X134211214Y-111914786D01*
X132334000Y-94742000D02*
X132375511Y-94783511D01*
X137568786Y-114024087D02*
X145974950Y-105617923D01*
X132375511Y-94783511D02*
X132375511Y-96478489D01*
X137568786Y-114962786D02*
X137568786Y-114024087D01*
X134211214Y-111914786D02*
X137358428Y-115062000D01*
%TO.N,USART3_RX*%
X151660000Y-100330000D02*
X152537127Y-100330000D01*
X158445489Y-92484511D02*
X159010000Y-91920000D01*
X152537127Y-100330000D02*
X158445489Y-94421638D01*
X159010000Y-91920000D02*
X159220000Y-91920000D01*
X158445489Y-94421638D02*
X158445489Y-92484511D01*
%TD*%
M02*
