%TF.GenerationSoftware,KiCad,Pcbnew,(6.0.5)*%
%TF.CreationDate,2022-08-02T12:09:01+02:00*%
%TF.ProjectId,DroneHardware,44726f6e-6548-4617-9264-776172652e6b,rev?*%
%TF.SameCoordinates,Original*%
%TF.FileFunction,Soldermask,Top*%
%TF.FilePolarity,Negative*%
%FSLAX46Y46*%
G04 Gerber Fmt 4.6, Leading zero omitted, Abs format (unit mm)*
G04 Created by KiCad (PCBNEW (6.0.5)) date 2022-08-02 12:09:01*
%MOMM*%
%LPD*%
G01*
G04 APERTURE LIST*
G04 Aperture macros list*
%AMRoundRect*
0 Rectangle with rounded corners*
0 $1 Rounding radius*
0 $2 $3 $4 $5 $6 $7 $8 $9 X,Y pos of 4 corners*
0 Add a 4 corners polygon primitive as box body*
4,1,4,$2,$3,$4,$5,$6,$7,$8,$9,$2,$3,0*
0 Add four circle primitives for the rounded corners*
1,1,$1+$1,$2,$3*
1,1,$1+$1,$4,$5*
1,1,$1+$1,$6,$7*
1,1,$1+$1,$8,$9*
0 Add four rect primitives between the rounded corners*
20,1,$1+$1,$2,$3,$4,$5,0*
20,1,$1+$1,$4,$5,$6,$7,0*
20,1,$1+$1,$6,$7,$8,$9,0*
20,1,$1+$1,$8,$9,$2,$3,0*%
G04 Aperture macros list end*
%ADD10R,0.850000X0.850000*%
%ADD11O,0.850000X0.850000*%
%ADD12RoundRect,0.140000X0.140000X0.170000X-0.140000X0.170000X-0.140000X-0.170000X0.140000X-0.170000X0*%
%ADD13RoundRect,0.140000X0.170000X-0.140000X0.170000X0.140000X-0.170000X0.140000X-0.170000X-0.140000X0*%
%ADD14RoundRect,0.135000X-0.185000X0.135000X-0.185000X-0.135000X0.185000X-0.135000X0.185000X0.135000X0*%
%ADD15RoundRect,0.135000X0.185000X-0.135000X0.185000X0.135000X-0.185000X0.135000X-0.185000X-0.135000X0*%
%ADD16R,1.500000X2.000000*%
%ADD17R,3.800000X2.000000*%
%ADD18RoundRect,0.140000X-0.140000X-0.170000X0.140000X-0.170000X0.140000X0.170000X-0.140000X0.170000X0*%
%ADD19RoundRect,0.140000X-0.170000X0.140000X-0.170000X-0.140000X0.170000X-0.140000X0.170000X0.140000X0*%
%ADD20R,1.400000X1.200000*%
%ADD21RoundRect,0.075000X-0.075000X0.350000X-0.075000X-0.350000X0.075000X-0.350000X0.075000X0.350000X0*%
%ADD22RoundRect,0.075000X-0.350000X-0.075000X0.350000X-0.075000X0.350000X0.075000X-0.350000X0.075000X0*%
%ADD23R,0.400000X1.350000*%
%ADD24O,1.200000X1.900000*%
%ADD25R,1.500000X1.900000*%
%ADD26R,1.200000X1.900000*%
%ADD27C,1.450000*%
%ADD28RoundRect,0.225000X-0.250000X0.225000X-0.250000X-0.225000X0.250000X-0.225000X0.250000X0.225000X0*%
%ADD29RoundRect,0.125000X-0.375000X0.125000X-0.375000X-0.125000X0.375000X-0.125000X0.375000X0.125000X0*%
%ADD30RoundRect,0.225000X-0.575000X0.225000X-0.575000X-0.225000X0.575000X-0.225000X0.575000X0.225000X0*%
%ADD31RoundRect,0.218750X-0.218750X-0.256250X0.218750X-0.256250X0.218750X0.256250X-0.218750X0.256250X0*%
%ADD32RoundRect,0.200000X-0.275000X0.200000X-0.275000X-0.200000X0.275000X-0.200000X0.275000X0.200000X0*%
%ADD33RoundRect,0.135000X0.135000X0.185000X-0.135000X0.185000X-0.135000X-0.185000X0.135000X-0.185000X0*%
%ADD34RoundRect,0.218750X0.218750X0.256250X-0.218750X0.256250X-0.218750X-0.256250X0.218750X-0.256250X0*%
%ADD35RoundRect,0.218750X0.256250X-0.218750X0.256250X0.218750X-0.256250X0.218750X-0.256250X-0.218750X0*%
%ADD36R,1.200000X0.900000*%
%ADD37RoundRect,0.218750X-0.218750X-0.381250X0.218750X-0.381250X0.218750X0.381250X-0.218750X0.381250X0*%
%ADD38C,3.200000*%
%ADD39R,2.400000X0.740000*%
%ADD40RoundRect,0.225000X0.250000X-0.225000X0.250000X0.225000X-0.250000X0.225000X-0.250000X-0.225000X0*%
%ADD41RoundRect,0.225000X-0.225000X-0.250000X0.225000X-0.250000X0.225000X0.250000X-0.225000X0.250000X0*%
%ADD42RoundRect,0.147500X0.147500X0.172500X-0.147500X0.172500X-0.147500X-0.172500X0.147500X-0.172500X0*%
%ADD43RoundRect,0.250000X0.325000X0.650000X-0.325000X0.650000X-0.325000X-0.650000X0.325000X-0.650000X0*%
%ADD44RoundRect,0.075000X-0.700000X-0.075000X0.700000X-0.075000X0.700000X0.075000X-0.700000X0.075000X0*%
%ADD45RoundRect,0.075000X-0.075000X-0.700000X0.075000X-0.700000X0.075000X0.700000X-0.075000X0.700000X0*%
%ADD46R,0.900000X1.700000*%
%ADD47RoundRect,0.250000X0.287500X0.275000X-0.287500X0.275000X-0.287500X-0.275000X0.287500X-0.275000X0*%
G04 APERTURE END LIST*
D10*
%TO.C,J208*%
X130890000Y-103460000D03*
D11*
X129890000Y-103460000D03*
X128890000Y-103460000D03*
%TD*%
D12*
%TO.C,C8*%
X145240000Y-106510000D03*
X144280000Y-106510000D03*
%TD*%
D13*
%TO.C,C5*%
X156380000Y-95250000D03*
X156380000Y-94290000D03*
%TD*%
D14*
%TO.C,R201*%
X139870000Y-90240000D03*
X139870000Y-91260000D03*
%TD*%
D15*
%TO.C,R1*%
X149060000Y-89940000D03*
X149060000Y-88920000D03*
%TD*%
D16*
%TO.C,VR101*%
X157660000Y-107720000D03*
X159960000Y-107720000D03*
X162260000Y-107720000D03*
D17*
X159960000Y-101420000D03*
%TD*%
D18*
%TO.C,C6*%
X144040000Y-91600000D03*
X145000000Y-91600000D03*
%TD*%
%TO.C,C12*%
X136130000Y-101330000D03*
X137090000Y-101330000D03*
%TD*%
%TO.C,C4*%
X153218000Y-105402000D03*
X154178000Y-105402000D03*
%TD*%
D19*
%TO.C,C317*%
X149070000Y-115030000D03*
X149070000Y-115990000D03*
%TD*%
D20*
%TO.C,Y1*%
X137850000Y-97830000D03*
X135650000Y-97830000D03*
X135650000Y-99530000D03*
X137850000Y-99530000D03*
%TD*%
D10*
%TO.C,J210*%
X162620000Y-92810000D03*
D11*
X162620000Y-91810000D03*
X162620000Y-90810000D03*
%TD*%
D10*
%TO.C,J202*%
X152600000Y-116620000D03*
D11*
X151600000Y-116620000D03*
%TD*%
D21*
%TO.C,U303*%
X146950000Y-112320000D03*
X146450000Y-112320000D03*
X145950000Y-112320000D03*
X145450000Y-112320000D03*
X144950000Y-112320000D03*
X144450000Y-112320000D03*
D22*
X143750000Y-113020000D03*
X143750000Y-113520000D03*
X143750000Y-114020000D03*
X143750000Y-114520000D03*
X143750000Y-115020000D03*
X143750000Y-115520000D03*
D21*
X144450000Y-116220000D03*
X144950000Y-116220000D03*
X145450000Y-116220000D03*
X145950000Y-116220000D03*
X146450000Y-116220000D03*
X146950000Y-116220000D03*
D22*
X147650000Y-115520000D03*
X147650000Y-115020000D03*
X147650000Y-114520000D03*
X147650000Y-114020000D03*
X147650000Y-113520000D03*
X147650000Y-113020000D03*
%TD*%
D23*
%TO.C,J201*%
X141660000Y-87262500D03*
X141010000Y-87262500D03*
X140360000Y-87262500D03*
X139710000Y-87262500D03*
X139060000Y-87262500D03*
D24*
X143860000Y-84562500D03*
D25*
X141360000Y-84562500D03*
D26*
X137460000Y-84562500D03*
D27*
X137860000Y-87262500D03*
D25*
X139360000Y-84562500D03*
D27*
X142860000Y-87262500D03*
D26*
X143260000Y-84562500D03*
D24*
X136860000Y-84562500D03*
%TD*%
D19*
%TO.C,C316*%
X141940000Y-114340000D03*
X141940000Y-115300000D03*
%TD*%
D28*
%TO.C,C1*%
X151976500Y-106765000D03*
X151976500Y-108315000D03*
%TD*%
D29*
%TO.C,J204*%
X130840000Y-91450000D03*
X130840000Y-92250000D03*
X130840000Y-93050000D03*
X130840000Y-93850000D03*
X130840000Y-94650000D03*
X130840000Y-95450000D03*
D30*
X128920000Y-96700000D03*
X128920000Y-90200000D03*
%TD*%
D19*
%TO.C,C9*%
X139440000Y-103130000D03*
X139440000Y-104090000D03*
%TD*%
D31*
%TO.C,D102*%
X161652500Y-112100000D03*
X163227500Y-112100000D03*
%TD*%
D10*
%TO.C,J207*%
X130890000Y-101920000D03*
D11*
X129890000Y-101920000D03*
X128890000Y-101920000D03*
%TD*%
D32*
%TO.C,R3*%
X157020000Y-85065000D03*
X157020000Y-86715000D03*
%TD*%
D33*
%TO.C,R2*%
X140710000Y-99280000D03*
X139690000Y-99280000D03*
%TD*%
D34*
%TO.C,D1*%
X157177500Y-88380000D03*
X155602500Y-88380000D03*
%TD*%
D35*
%TO.C,F101*%
X154700000Y-114057500D03*
X154700000Y-112482500D03*
%TD*%
D36*
%TO.C,D101*%
X156700000Y-114310000D03*
X156700000Y-117610000D03*
%TD*%
D10*
%TO.C,J209*%
X162720000Y-97490000D03*
D11*
X162720000Y-96490000D03*
X162720000Y-95490000D03*
%TD*%
D19*
%TO.C,C10*%
X140500000Y-103110000D03*
X140500000Y-104070000D03*
%TD*%
D14*
%TO.C,R202*%
X141070000Y-90270000D03*
X141070000Y-91290000D03*
%TD*%
D37*
%TO.C,FB101*%
X156237500Y-112640000D03*
X158362500Y-112640000D03*
%TD*%
D12*
%TO.C,C11*%
X137160000Y-96220000D03*
X136200000Y-96220000D03*
%TD*%
D38*
%TO.C,H201*%
X161380000Y-116420000D03*
%TD*%
D39*
%TO.C,J203*%
X130410000Y-106250000D03*
X134310000Y-106250000D03*
X130410000Y-107520000D03*
X134310000Y-107520000D03*
X130410000Y-108790000D03*
X134310000Y-108790000D03*
X130410000Y-110060000D03*
X134310000Y-110060000D03*
X130410000Y-111330000D03*
X134310000Y-111330000D03*
%TD*%
D10*
%TO.C,J206*%
X130890000Y-100370000D03*
D11*
X129890000Y-100370000D03*
X128890000Y-100370000D03*
%TD*%
D40*
%TO.C,C3*%
X154660000Y-93505000D03*
X154660000Y-91955000D03*
%TD*%
D38*
%TO.C,H203*%
X161390000Y-85770000D03*
%TD*%
D41*
%TO.C,C2*%
X143895000Y-90280000D03*
X145445000Y-90280000D03*
%TD*%
D12*
%TO.C,C7*%
X140910000Y-95290000D03*
X139950000Y-95290000D03*
%TD*%
D38*
%TO.C,H204*%
X130590000Y-85690000D03*
%TD*%
D42*
%TO.C,L1*%
X140445000Y-102070000D03*
X139475000Y-102070000D03*
%TD*%
D18*
%TO.C,C315*%
X144430000Y-117510000D03*
X145390000Y-117510000D03*
%TD*%
D10*
%TO.C,J211*%
X159220000Y-90920000D03*
D11*
X159220000Y-91920000D03*
X159220000Y-92920000D03*
%TD*%
D38*
%TO.C,H202*%
X130570000Y-116420000D03*
%TD*%
D10*
%TO.C,J205*%
X130890000Y-98830000D03*
D11*
X129890000Y-98830000D03*
X128890000Y-98830000D03*
%TD*%
D43*
%TO.C,C101*%
X158275000Y-110480000D03*
X155325000Y-110480000D03*
%TD*%
D44*
%TO.C,U1*%
X142735000Y-95280000D03*
X142735000Y-95780000D03*
X142735000Y-96280000D03*
X142735000Y-96780000D03*
X142735000Y-97280000D03*
X142735000Y-97780000D03*
X142735000Y-98280000D03*
X142735000Y-98780000D03*
X142735000Y-99280000D03*
X142735000Y-99780000D03*
X142735000Y-100280000D03*
X142735000Y-100780000D03*
X142735000Y-101280000D03*
X142735000Y-101780000D03*
X142735000Y-102280000D03*
X142735000Y-102780000D03*
D45*
X144660000Y-104705000D03*
X145160000Y-104705000D03*
X145660000Y-104705000D03*
X146160000Y-104705000D03*
X146660000Y-104705000D03*
X147160000Y-104705000D03*
X147660000Y-104705000D03*
X148160000Y-104705000D03*
X148660000Y-104705000D03*
X149160000Y-104705000D03*
X149660000Y-104705000D03*
X150160000Y-104705000D03*
X150660000Y-104705000D03*
X151160000Y-104705000D03*
X151660000Y-104705000D03*
X152160000Y-104705000D03*
D44*
X154085000Y-102780000D03*
X154085000Y-102280000D03*
X154085000Y-101780000D03*
X154085000Y-101280000D03*
X154085000Y-100780000D03*
X154085000Y-100280000D03*
X154085000Y-99780000D03*
X154085000Y-99280000D03*
X154085000Y-98780000D03*
X154085000Y-98280000D03*
X154085000Y-97780000D03*
X154085000Y-97280000D03*
X154085000Y-96780000D03*
X154085000Y-96280000D03*
X154085000Y-95780000D03*
X154085000Y-95280000D03*
D45*
X152160000Y-93355000D03*
X151660000Y-93355000D03*
X151160000Y-93355000D03*
X150660000Y-93355000D03*
X150160000Y-93355000D03*
X149660000Y-93355000D03*
X149160000Y-93355000D03*
X148660000Y-93355000D03*
X148160000Y-93355000D03*
X147660000Y-93355000D03*
X147160000Y-93355000D03*
X146660000Y-93355000D03*
X146160000Y-93355000D03*
X145660000Y-93355000D03*
X145160000Y-93355000D03*
X144660000Y-93355000D03*
%TD*%
D46*
%TO.C,SW1*%
X153240000Y-84905000D03*
X149840000Y-84905000D03*
%TD*%
D10*
%TO.C,J101*%
X151560000Y-111440000D03*
%TD*%
D47*
%TO.C,C102*%
X163072500Y-109990000D03*
X161647500Y-109990000D03*
%TD*%
D10*
%TO.C,J102*%
X135710000Y-117410000D03*
D11*
X136710000Y-117410000D03*
X137710000Y-117410000D03*
X138710000Y-117410000D03*
%TD*%
D32*
%TO.C,R101*%
X159970000Y-110635000D03*
X159970000Y-112285000D03*
%TD*%
M02*
