%TF.GenerationSoftware,KiCad,Pcbnew,(6.0.5)*%
%TF.CreationDate,2022-07-12T20:22:36+02:00*%
%TF.ProjectId,DroneHardware,44726f6e-6548-4617-9264-776172652e6b,rev?*%
%TF.SameCoordinates,Original*%
%TF.FileFunction,Copper,L2,Inr*%
%TF.FilePolarity,Positive*%
%FSLAX46Y46*%
G04 Gerber Fmt 4.6, Leading zero omitted, Abs format (unit mm)*
G04 Created by KiCad (PCBNEW (6.0.5)) date 2022-07-12 20:22:36*
%MOMM*%
%LPD*%
G01*
G04 APERTURE LIST*
%TA.AperFunction,ComponentPad*%
%ADD10O,0.850000X0.850000*%
%TD*%
%TA.AperFunction,ComponentPad*%
%ADD11R,0.850000X0.850000*%
%TD*%
%TA.AperFunction,ComponentPad*%
%ADD12O,1.200000X1.900000*%
%TD*%
%TA.AperFunction,ComponentPad*%
%ADD13C,1.450000*%
%TD*%
%TA.AperFunction,ComponentPad*%
%ADD14C,3.200000*%
%TD*%
%TA.AperFunction,ViaPad*%
%ADD15C,0.400000*%
%TD*%
%TA.AperFunction,ViaPad*%
%ADD16C,0.800000*%
%TD*%
G04 APERTURE END LIST*
D10*
%TO.N,GND*%
%TO.C,J202*%
X151600000Y-116620000D03*
D11*
%TO.N,+5V*%
X152600000Y-116620000D03*
%TD*%
D12*
%TO.N,unconnected-(J201-Pad6)*%
%TO.C,J201*%
X136860000Y-84562500D03*
D13*
X142860000Y-87262500D03*
X137860000Y-87262500D03*
D12*
X143860000Y-84562500D03*
%TD*%
D14*
%TO.N,*%
%TO.C,H201*%
X161380000Y-116420000D03*
%TD*%
%TO.N,*%
%TO.C,H203*%
X161390000Y-85770000D03*
%TD*%
%TO.N,*%
%TO.C,H204*%
X130590000Y-85690000D03*
%TD*%
%TO.N,*%
%TO.C,H202*%
X130570000Y-116420000D03*
%TD*%
D15*
%TO.N,GND*%
X138390000Y-88730000D03*
%TO.N,PWM4*%
X133350000Y-92964000D03*
X141986000Y-103886000D03*
%TO.N,PWM3*%
X142748000Y-106934000D03*
X132842000Y-93980000D03*
%TO.N,PWM2*%
X149901500Y-107442000D03*
X132334000Y-94742000D03*
%TO.N,PWM1*%
X149352000Y-107950000D03*
X131826000Y-95504000D03*
%TO.N,GND*%
X154168000Y-104892000D03*
%TO.N,+5V*%
X139080000Y-93180000D03*
%TO.N,SWDIO*%
X145920000Y-103150000D03*
%TO.N,SWCLK*%
X148330000Y-95200000D03*
X151090000Y-94790000D03*
D16*
%TO.N,GND*%
X131180000Y-90770000D03*
D15*
%TO.N,BUCK_VOUT_3V3*%
X128990000Y-106240000D03*
X156370000Y-95720000D03*
X140920000Y-95860000D03*
X143910000Y-117530000D03*
X145210000Y-107160000D03*
D16*
X153320000Y-86180000D03*
D15*
X143900000Y-89590000D03*
D16*
X162280000Y-106210000D03*
D15*
X143800000Y-92390000D03*
X153228000Y-104862000D03*
X140590000Y-101490000D03*
%TO.N,GND*%
X142880000Y-115080000D03*
X141930000Y-115810000D03*
X139560000Y-94750000D03*
X138241444Y-100411444D03*
X146940000Y-117050000D03*
X152146000Y-109030000D03*
X139520000Y-104680000D03*
X143790000Y-106130000D03*
X145440000Y-89590000D03*
D16*
X154300000Y-110480000D03*
D15*
X145520000Y-91640000D03*
X145870000Y-117500000D03*
X146940000Y-111440000D03*
X156720000Y-93750000D03*
X128950000Y-107520000D03*
X149070000Y-116500000D03*
X155360000Y-91890000D03*
X140480000Y-104620000D03*
X134680000Y-96920000D03*
X161640000Y-109920000D03*
D16*
X159060000Y-99850000D03*
D15*
X141440000Y-100750000D03*
X128940000Y-108780000D03*
D16*
X157040000Y-84200000D03*
D15*
X136210000Y-95500000D03*
X128940000Y-111310000D03*
D16*
X161580000Y-99740000D03*
X159990000Y-106100000D03*
D15*
%TO.N,+5V*%
X154460000Y-117590000D03*
X142270000Y-91380000D03*
%TO.N,SWDIO*%
X138210000Y-106240000D03*
%TO.N,USB_D-*%
X152713374Y-98053375D03*
X146830000Y-97065000D03*
%TO.N,USB_D+*%
X151583677Y-97715000D03*
X146830000Y-97715000D03*
%TO.N,GYRO_INT_EXTI*%
X148307788Y-106666954D03*
X142890908Y-115679404D03*
%TO.N,GYRO_MISO_PIN*%
X147160000Y-107830000D03*
X142380000Y-112750000D03*
%TO.N,GYRO_MOSI_PIN*%
X147709500Y-106705093D03*
X147800000Y-111410000D03*
%TD*%
%TA.AperFunction,Conductor*%
%TO.N,GND*%
G36*
X160518294Y-83586529D02*
G01*
X160586405Y-83606564D01*
X160632872Y-83660243D01*
X160642942Y-83730521D01*
X160613417Y-83795088D01*
X160567669Y-83828425D01*
X160527127Y-83845718D01*
X160434476Y-83885237D01*
X160434472Y-83885239D01*
X160430524Y-83886923D01*
X160413565Y-83897073D01*
X160187521Y-84032357D01*
X160187517Y-84032360D01*
X160183839Y-84034561D01*
X159959472Y-84214313D01*
X159761577Y-84422851D01*
X159593814Y-84656317D01*
X159459288Y-84910392D01*
X159360489Y-85180373D01*
X159299245Y-85461264D01*
X159298909Y-85465534D01*
X159278543Y-85724317D01*
X159276689Y-85747869D01*
X159293238Y-86034883D01*
X159294063Y-86039088D01*
X159294064Y-86039096D01*
X159319804Y-86170291D01*
X159348586Y-86316995D01*
X159349973Y-86321045D01*
X159349974Y-86321050D01*
X159436777Y-86574578D01*
X159441710Y-86588986D01*
X159471583Y-86648381D01*
X159559121Y-86822431D01*
X159570885Y-86845822D01*
X159733721Y-87082750D01*
X159927206Y-87295388D01*
X159930501Y-87298143D01*
X159930502Y-87298144D01*
X160097738Y-87437974D01*
X160147759Y-87479798D01*
X160391298Y-87632571D01*
X160653318Y-87750877D01*
X160657437Y-87752097D01*
X160924857Y-87831311D01*
X160924862Y-87831312D01*
X160928970Y-87832529D01*
X160933204Y-87833177D01*
X160933209Y-87833178D01*
X161181811Y-87871219D01*
X161213153Y-87876015D01*
X161359485Y-87878314D01*
X161496317Y-87880464D01*
X161496323Y-87880464D01*
X161500608Y-87880531D01*
X161504860Y-87880016D01*
X161504868Y-87880016D01*
X161781756Y-87846508D01*
X161781761Y-87846507D01*
X161786017Y-87845992D01*
X161961267Y-87800016D01*
X162059954Y-87774126D01*
X162059955Y-87774126D01*
X162064097Y-87773039D01*
X162329704Y-87663021D01*
X162463798Y-87584663D01*
X162574219Y-87520138D01*
X162574220Y-87520137D01*
X162577922Y-87517974D01*
X162804159Y-87340582D01*
X162845285Y-87298144D01*
X163001244Y-87137206D01*
X163004227Y-87134128D01*
X163006760Y-87130680D01*
X163006764Y-87130675D01*
X163171887Y-86905886D01*
X163174425Y-86902431D01*
X163208862Y-86839007D01*
X163309555Y-86653553D01*
X163309556Y-86653552D01*
X163311604Y-86649779D01*
X163312373Y-86647744D01*
X163358579Y-86594518D01*
X163426718Y-86574578D01*
X163494821Y-86594643D01*
X163541265Y-86648341D01*
X163552603Y-86700619D01*
X163549425Y-96569794D01*
X163543386Y-115328995D01*
X163543332Y-115495316D01*
X163523308Y-115563430D01*
X163469637Y-115609905D01*
X163399360Y-115619987D01*
X163334789Y-115590473D01*
X163305366Y-115553065D01*
X163189715Y-115328995D01*
X163189715Y-115328994D01*
X163187750Y-115325188D01*
X163174488Y-115306317D01*
X163097553Y-115196851D01*
X163022441Y-115089977D01*
X162946904Y-115008690D01*
X162829661Y-114882521D01*
X162829658Y-114882519D01*
X162826740Y-114879378D01*
X162604268Y-114697287D01*
X162359142Y-114547073D01*
X162341048Y-114539130D01*
X162099830Y-114433243D01*
X162095898Y-114431517D01*
X162069963Y-114424129D01*
X161823534Y-114353932D01*
X161823535Y-114353932D01*
X161819406Y-114352756D01*
X161606704Y-114322485D01*
X161539036Y-114312854D01*
X161539034Y-114312854D01*
X161534784Y-114312249D01*
X161530495Y-114312227D01*
X161530488Y-114312226D01*
X161251583Y-114310765D01*
X161251576Y-114310765D01*
X161247297Y-114310743D01*
X161243053Y-114311302D01*
X161243049Y-114311302D01*
X161117660Y-114327810D01*
X160962266Y-114348268D01*
X160958126Y-114349401D01*
X160958124Y-114349401D01*
X160881311Y-114370415D01*
X160684964Y-114424129D01*
X160681016Y-114425813D01*
X160424476Y-114535237D01*
X160424472Y-114535239D01*
X160420524Y-114536923D01*
X160295960Y-114611473D01*
X160177521Y-114682357D01*
X160177517Y-114682360D01*
X160173839Y-114684561D01*
X159949472Y-114864313D01*
X159848771Y-114970430D01*
X159807479Y-115013943D01*
X159751577Y-115072851D01*
X159583814Y-115306317D01*
X159581805Y-115310112D01*
X159581804Y-115310113D01*
X159575678Y-115321683D01*
X159449288Y-115560392D01*
X159447813Y-115564423D01*
X159357422Y-115811429D01*
X159350489Y-115830373D01*
X159289245Y-116111264D01*
X159288909Y-116115534D01*
X159269444Y-116362868D01*
X159266689Y-116397869D01*
X159283238Y-116684883D01*
X159284063Y-116689088D01*
X159284064Y-116689096D01*
X159303642Y-116788883D01*
X159338586Y-116966995D01*
X159339973Y-116971045D01*
X159339974Y-116971050D01*
X159418137Y-117199344D01*
X159431710Y-117238986D01*
X159472987Y-117321056D01*
X159526422Y-117427299D01*
X159560885Y-117495822D01*
X159691195Y-117685425D01*
X159716171Y-117721764D01*
X159723721Y-117732750D01*
X159917206Y-117945388D01*
X159920501Y-117948143D01*
X159920502Y-117948144D01*
X160131374Y-118124459D01*
X160137759Y-118129798D01*
X160381298Y-118282571D01*
X160385211Y-118284338D01*
X160385217Y-118284341D01*
X160426200Y-118302845D01*
X160480055Y-118349107D01*
X160500349Y-118417141D01*
X160480639Y-118485347D01*
X160427184Y-118532070D01*
X160374425Y-118543682D01*
X154569197Y-118547150D01*
X154501065Y-118527189D01*
X154456533Y-118475859D01*
X154431146Y-118515951D01*
X154366764Y-118545876D01*
X154348072Y-118547282D01*
X143927554Y-118553507D01*
X131544779Y-118560905D01*
X131476648Y-118540944D01*
X131430123Y-118487316D01*
X131419977Y-118417048D01*
X131449431Y-118352449D01*
X131496484Y-118318497D01*
X131497930Y-118317898D01*
X131509704Y-118313021D01*
X131642925Y-118235173D01*
X131754219Y-118170138D01*
X131754220Y-118170137D01*
X131757922Y-118167974D01*
X131984159Y-117990582D01*
X132025285Y-117948144D01*
X132181244Y-117787206D01*
X132184227Y-117784128D01*
X132186760Y-117780680D01*
X132186764Y-117780675D01*
X132351887Y-117555886D01*
X132354425Y-117552431D01*
X132357512Y-117546745D01*
X132370662Y-117522526D01*
X143196335Y-117522526D01*
X143215153Y-117692975D01*
X143217762Y-117700106D01*
X143217763Y-117700108D01*
X143230115Y-117733861D01*
X143274085Y-117854015D01*
X143278322Y-117860321D01*
X143278324Y-117860324D01*
X143318643Y-117920324D01*
X143369730Y-117996349D01*
X143394452Y-118018844D01*
X143459489Y-118078023D01*
X143496565Y-118111760D01*
X143647268Y-118193585D01*
X143813139Y-118237101D01*
X143900586Y-118238474D01*
X143977003Y-118239675D01*
X143977006Y-118239675D01*
X143984602Y-118239794D01*
X143992006Y-118238098D01*
X143992008Y-118238098D01*
X144054846Y-118223706D01*
X144151759Y-118201510D01*
X144304958Y-118124459D01*
X144310729Y-118119530D01*
X144310732Y-118119528D01*
X144429578Y-118018023D01*
X144435355Y-118013089D01*
X144535424Y-117873830D01*
X144599385Y-117714720D01*
X144617135Y-117590000D01*
X144618199Y-117582526D01*
X153746335Y-117582526D01*
X153755744Y-117667751D01*
X153763271Y-117735924D01*
X153765153Y-117752975D01*
X153767762Y-117760106D01*
X153767763Y-117760108D01*
X153775290Y-117780675D01*
X153824085Y-117914015D01*
X153828322Y-117920321D01*
X153828324Y-117920324D01*
X153845167Y-117945388D01*
X153919730Y-118056349D01*
X154046565Y-118171760D01*
X154197268Y-118253585D01*
X154363139Y-118297101D01*
X154366674Y-118297157D01*
X154429869Y-118325506D01*
X154459291Y-118370620D01*
X154473848Y-118338694D01*
X154533551Y-118300275D01*
X154540985Y-118298332D01*
X154701759Y-118261510D01*
X154854958Y-118184459D01*
X154860729Y-118179530D01*
X154860732Y-118179528D01*
X154979578Y-118078023D01*
X154985355Y-118073089D01*
X155085424Y-117933830D01*
X155149385Y-117774720D01*
X155153554Y-117745425D01*
X155172966Y-117609031D01*
X155172966Y-117609027D01*
X155173547Y-117604947D01*
X155173704Y-117590000D01*
X155164843Y-117516779D01*
X155154015Y-117427299D01*
X155154014Y-117427296D01*
X155153102Y-117419758D01*
X155107431Y-117298891D01*
X155095171Y-117266447D01*
X155092487Y-117259344D01*
X155035432Y-117176328D01*
X154999659Y-117124278D01*
X154999658Y-117124276D01*
X154995357Y-117118019D01*
X154989686Y-117112966D01*
X154872993Y-117008996D01*
X154872990Y-117008994D01*
X154867321Y-117003943D01*
X154859325Y-116999709D01*
X154789593Y-116962788D01*
X154715769Y-116923700D01*
X154698196Y-116919286D01*
X154556822Y-116883775D01*
X154556818Y-116883775D01*
X154549451Y-116881924D01*
X154541852Y-116881884D01*
X154541850Y-116881884D01*
X154470394Y-116881510D01*
X154377969Y-116881026D01*
X154370589Y-116882798D01*
X154370587Y-116882798D01*
X154218602Y-116919286D01*
X154218598Y-116919287D01*
X154211223Y-116921058D01*
X154058839Y-116999709D01*
X153929615Y-117112439D01*
X153831010Y-117252739D01*
X153813016Y-117298891D01*
X153773174Y-117401081D01*
X153768718Y-117412509D01*
X153767726Y-117420042D01*
X153767726Y-117420043D01*
X153750205Y-117553131D01*
X153746335Y-117582526D01*
X144618199Y-117582526D01*
X144622966Y-117549031D01*
X144622966Y-117549027D01*
X144623547Y-117544947D01*
X144623704Y-117530000D01*
X144612224Y-117435137D01*
X144604015Y-117367299D01*
X144604014Y-117367296D01*
X144603102Y-117359758D01*
X144580103Y-117298891D01*
X144545171Y-117206447D01*
X144542487Y-117199344D01*
X144482404Y-117111922D01*
X144449659Y-117064278D01*
X144449658Y-117064276D01*
X144445357Y-117058019D01*
X144439686Y-117052966D01*
X144322993Y-116948996D01*
X144322990Y-116948994D01*
X144317321Y-116943943D01*
X144309325Y-116939709D01*
X144219435Y-116892115D01*
X144205997Y-116885000D01*
X150705090Y-116885000D01*
X150740927Y-116995296D01*
X150746267Y-117007291D01*
X150837730Y-117165709D01*
X150845446Y-117176328D01*
X150967843Y-117312265D01*
X150977606Y-117321056D01*
X151125588Y-117428571D01*
X151136960Y-117435137D01*
X151304068Y-117509538D01*
X151316556Y-117513595D01*
X151328280Y-117516088D01*
X151342341Y-117515015D01*
X151346000Y-117505059D01*
X151346000Y-117093134D01*
X151666500Y-117093134D01*
X151673255Y-117155316D01*
X151724385Y-117291705D01*
X151811739Y-117408261D01*
X151817518Y-117412592D01*
X151851121Y-117474130D01*
X151854000Y-117500913D01*
X151854000Y-117501739D01*
X151857973Y-117515270D01*
X151868468Y-117516779D01*
X151883448Y-117513595D01*
X151891258Y-117511057D01*
X151962226Y-117509030D01*
X151974424Y-117512908D01*
X152064684Y-117546745D01*
X152126866Y-117553500D01*
X153073134Y-117553500D01*
X153135316Y-117546745D01*
X153271705Y-117495615D01*
X153388261Y-117408261D01*
X153475615Y-117291705D01*
X153526745Y-117155316D01*
X153533500Y-117093134D01*
X153533500Y-116146866D01*
X153526745Y-116084684D01*
X153475615Y-115948295D01*
X153388261Y-115831739D01*
X153271705Y-115744385D01*
X153135316Y-115693255D01*
X153073134Y-115686500D01*
X152126866Y-115686500D01*
X152064684Y-115693255D01*
X151984750Y-115723221D01*
X151974424Y-115727092D01*
X151903616Y-115732275D01*
X151891258Y-115728943D01*
X151883448Y-115726405D01*
X151871720Y-115723912D01*
X151857659Y-115724985D01*
X151854000Y-115734941D01*
X151854000Y-115739087D01*
X151833998Y-115807208D01*
X151818025Y-115827028D01*
X151811739Y-115831739D01*
X151724385Y-115948295D01*
X151673255Y-116084684D01*
X151666500Y-116146866D01*
X151666500Y-117093134D01*
X151346000Y-117093134D01*
X151346000Y-116892115D01*
X151341525Y-116876876D01*
X151340135Y-116875671D01*
X151332452Y-116874000D01*
X150719631Y-116874000D01*
X150706100Y-116877973D01*
X150705090Y-116885000D01*
X144205997Y-116885000D01*
X144165769Y-116863700D01*
X144148196Y-116859286D01*
X144006822Y-116823775D01*
X144006818Y-116823775D01*
X143999451Y-116821924D01*
X143991852Y-116821884D01*
X143991850Y-116821884D01*
X143920394Y-116821510D01*
X143827969Y-116821026D01*
X143820589Y-116822798D01*
X143820587Y-116822798D01*
X143668602Y-116859286D01*
X143668598Y-116859287D01*
X143661223Y-116861058D01*
X143508839Y-116939709D01*
X143379615Y-117052439D01*
X143281010Y-117192739D01*
X143254806Y-117259949D01*
X143234409Y-117312265D01*
X143218718Y-117352509D01*
X143217726Y-117360042D01*
X143217726Y-117360043D01*
X143197511Y-117513595D01*
X143196335Y-117522526D01*
X132370662Y-117522526D01*
X132489554Y-117303555D01*
X132489555Y-117303553D01*
X132491604Y-117299779D01*
X132564281Y-117107447D01*
X132591707Y-117034866D01*
X132591708Y-117034862D01*
X132593225Y-117030848D01*
X132624999Y-116892115D01*
X132656449Y-116754797D01*
X132656450Y-116754793D01*
X132657407Y-116750613D01*
X132681710Y-116478306D01*
X132682743Y-116466726D01*
X132682743Y-116466724D01*
X132682963Y-116464260D01*
X132683427Y-116420000D01*
X132681319Y-116389079D01*
X132664165Y-116137452D01*
X132664164Y-116137446D01*
X132663873Y-116133175D01*
X132659336Y-116111264D01*
X132609614Y-115871168D01*
X132605574Y-115851658D01*
X132541929Y-115671930D01*
X142177243Y-115671930D01*
X142183705Y-115730462D01*
X142194736Y-115830373D01*
X142196061Y-115842379D01*
X142198670Y-115849510D01*
X142198671Y-115849512D01*
X142206596Y-115871168D01*
X142254993Y-116003419D01*
X142259230Y-116009725D01*
X142259232Y-116009728D01*
X142302617Y-116074291D01*
X142350638Y-116145753D01*
X142477473Y-116261164D01*
X142628176Y-116342989D01*
X142794047Y-116386505D01*
X142881494Y-116387878D01*
X142957911Y-116389079D01*
X142957914Y-116389079D01*
X142965510Y-116389198D01*
X142972914Y-116387502D01*
X142972916Y-116387502D01*
X143066798Y-116366000D01*
X143080473Y-116362868D01*
X150706712Y-116362868D01*
X150713083Y-116366000D01*
X151327885Y-116366000D01*
X151343124Y-116361525D01*
X151344329Y-116360135D01*
X151346000Y-116352452D01*
X151346000Y-115738261D01*
X151342027Y-115724730D01*
X151331532Y-115723221D01*
X151316556Y-115726405D01*
X151304068Y-115730462D01*
X151136961Y-115804863D01*
X151125589Y-115811429D01*
X150977606Y-115918944D01*
X150967843Y-115927735D01*
X150845446Y-116063672D01*
X150837730Y-116074291D01*
X150746267Y-116232709D01*
X150740927Y-116244704D01*
X150707115Y-116348768D01*
X150706712Y-116362868D01*
X143080473Y-116362868D01*
X143132667Y-116350914D01*
X143285866Y-116273863D01*
X143291637Y-116268934D01*
X143291640Y-116268932D01*
X143410486Y-116167427D01*
X143416263Y-116162493D01*
X143516332Y-116023234D01*
X143580293Y-115864124D01*
X143599532Y-115728943D01*
X143603874Y-115698435D01*
X143603874Y-115698431D01*
X143604455Y-115694351D01*
X143604534Y-115686869D01*
X143604569Y-115683537D01*
X143604569Y-115683531D01*
X143604612Y-115679404D01*
X143592201Y-115576848D01*
X143584923Y-115516703D01*
X143584922Y-115516700D01*
X143584010Y-115509162D01*
X143570415Y-115473182D01*
X143526079Y-115355851D01*
X143523395Y-115348748D01*
X143426265Y-115207423D01*
X143420594Y-115202370D01*
X143303901Y-115098400D01*
X143303898Y-115098398D01*
X143298229Y-115093347D01*
X143290233Y-115089113D01*
X143153389Y-115016658D01*
X143153390Y-115016658D01*
X143146677Y-115013104D01*
X143129104Y-115008690D01*
X142987730Y-114973179D01*
X142987726Y-114973179D01*
X142980359Y-114971328D01*
X142972760Y-114971288D01*
X142972758Y-114971288D01*
X142901302Y-114970914D01*
X142808877Y-114970430D01*
X142801497Y-114972202D01*
X142801495Y-114972202D01*
X142649510Y-115008690D01*
X142649506Y-115008691D01*
X142642131Y-115010462D01*
X142489747Y-115089113D01*
X142360523Y-115201843D01*
X142261918Y-115342143D01*
X142199626Y-115501913D01*
X142198634Y-115509446D01*
X142198634Y-115509447D01*
X142185409Y-115609905D01*
X142177243Y-115671930D01*
X132541929Y-115671930D01*
X132509607Y-115580657D01*
X132377750Y-115325188D01*
X132364488Y-115306317D01*
X132287553Y-115196851D01*
X132212441Y-115089977D01*
X132136904Y-115008690D01*
X132019661Y-114882521D01*
X132019658Y-114882519D01*
X132016740Y-114879378D01*
X131794268Y-114697287D01*
X131549142Y-114547073D01*
X131531048Y-114539130D01*
X131289830Y-114433243D01*
X131285898Y-114431517D01*
X131259963Y-114424129D01*
X131013534Y-114353932D01*
X131013535Y-114353932D01*
X131009406Y-114352756D01*
X130796704Y-114322485D01*
X130729036Y-114312854D01*
X130729034Y-114312854D01*
X130724784Y-114312249D01*
X130720495Y-114312227D01*
X130720488Y-114312226D01*
X130441583Y-114310765D01*
X130441576Y-114310765D01*
X130437297Y-114310743D01*
X130433053Y-114311302D01*
X130433049Y-114311302D01*
X130307660Y-114327810D01*
X130152266Y-114348268D01*
X130148126Y-114349401D01*
X130148124Y-114349401D01*
X130071311Y-114370415D01*
X129874964Y-114424129D01*
X129871016Y-114425813D01*
X129614476Y-114535237D01*
X129614472Y-114535239D01*
X129610524Y-114536923D01*
X129485960Y-114611473D01*
X129367521Y-114682357D01*
X129367517Y-114682360D01*
X129363839Y-114684561D01*
X129139472Y-114864313D01*
X129038771Y-114970430D01*
X128997479Y-115013943D01*
X128941577Y-115072851D01*
X128773814Y-115306317D01*
X128747587Y-115355851D01*
X128685463Y-115473182D01*
X128635910Y-115524026D01*
X128566736Y-115540007D01*
X128499902Y-115516053D01*
X128456629Y-115459769D01*
X128448109Y-115414270D01*
X128448085Y-115349223D01*
X128447109Y-112742526D01*
X141666335Y-112742526D01*
X141685153Y-112912975D01*
X141687762Y-112920106D01*
X141687763Y-112920108D01*
X141695688Y-112941764D01*
X141744085Y-113074015D01*
X141839730Y-113216349D01*
X141966565Y-113331760D01*
X142117268Y-113413585D01*
X142283139Y-113457101D01*
X142370586Y-113458474D01*
X142447003Y-113459675D01*
X142447006Y-113459675D01*
X142454602Y-113459794D01*
X142462006Y-113458098D01*
X142462008Y-113458098D01*
X142524846Y-113443706D01*
X142621759Y-113421510D01*
X142774958Y-113344459D01*
X142780729Y-113339530D01*
X142780732Y-113339528D01*
X142899578Y-113238023D01*
X142905355Y-113233089D01*
X143005424Y-113093830D01*
X143069385Y-112934720D01*
X143093547Y-112764947D01*
X143093704Y-112750000D01*
X143073102Y-112579758D01*
X143012487Y-112419344D01*
X142915357Y-112278019D01*
X142909686Y-112272966D01*
X142792993Y-112168996D01*
X142792990Y-112168994D01*
X142787321Y-112163943D01*
X142779325Y-112159709D01*
X142642481Y-112087254D01*
X142642482Y-112087254D01*
X142635769Y-112083700D01*
X142618196Y-112079286D01*
X142476822Y-112043775D01*
X142476818Y-112043775D01*
X142469451Y-112041924D01*
X142461852Y-112041884D01*
X142461850Y-112041884D01*
X142390394Y-112041510D01*
X142297969Y-112041026D01*
X142290589Y-112042798D01*
X142290587Y-112042798D01*
X142138602Y-112079286D01*
X142138598Y-112079287D01*
X142131223Y-112081058D01*
X141978839Y-112159709D01*
X141849615Y-112272439D01*
X141751010Y-112412739D01*
X141688718Y-112572509D01*
X141666335Y-112742526D01*
X128447109Y-112742526D01*
X128446607Y-111402526D01*
X147086335Y-111402526D01*
X147105153Y-111572975D01*
X147107762Y-111580106D01*
X147107763Y-111580108D01*
X147115688Y-111601764D01*
X147164085Y-111734015D01*
X147259730Y-111876349D01*
X147386565Y-111991760D01*
X147537268Y-112073585D01*
X147703139Y-112117101D01*
X147790586Y-112118474D01*
X147867003Y-112119675D01*
X147867006Y-112119675D01*
X147874602Y-112119794D01*
X147882006Y-112118098D01*
X147882008Y-112118098D01*
X147944846Y-112103706D01*
X148041759Y-112081510D01*
X148194958Y-112004459D01*
X148200729Y-111999530D01*
X148200732Y-111999528D01*
X148319578Y-111898023D01*
X148325355Y-111893089D01*
X148425424Y-111753830D01*
X148489385Y-111594720D01*
X148513547Y-111424947D01*
X148513704Y-111410000D01*
X148493102Y-111239758D01*
X148432487Y-111079344D01*
X148335357Y-110938019D01*
X148329686Y-110932966D01*
X148212993Y-110828996D01*
X148212990Y-110828994D01*
X148207321Y-110823943D01*
X148199325Y-110819709D01*
X148062481Y-110747254D01*
X148062482Y-110747254D01*
X148055769Y-110743700D01*
X148038196Y-110739286D01*
X147896822Y-110703775D01*
X147896818Y-110703775D01*
X147889451Y-110701924D01*
X147881852Y-110701884D01*
X147881850Y-110701884D01*
X147810394Y-110701510D01*
X147717969Y-110701026D01*
X147710589Y-110702798D01*
X147710587Y-110702798D01*
X147558602Y-110739286D01*
X147558598Y-110739287D01*
X147551223Y-110741058D01*
X147398839Y-110819709D01*
X147269615Y-110932439D01*
X147171010Y-111072739D01*
X147108718Y-111232509D01*
X147086335Y-111402526D01*
X128446607Y-111402526D01*
X128444945Y-106962128D01*
X128464922Y-106894002D01*
X128518560Y-106847489D01*
X128588830Y-106837359D01*
X128631066Y-106851352D01*
X128727268Y-106903585D01*
X128893139Y-106947101D01*
X128980586Y-106948474D01*
X129057003Y-106949675D01*
X129057006Y-106949675D01*
X129064602Y-106949794D01*
X129072006Y-106948098D01*
X129072008Y-106948098D01*
X129151490Y-106929894D01*
X129231759Y-106911510D01*
X129384958Y-106834459D01*
X129390729Y-106829530D01*
X129390732Y-106829528D01*
X129509578Y-106728023D01*
X129515355Y-106723089D01*
X129601402Y-106603344D01*
X129610992Y-106589998D01*
X129610993Y-106589997D01*
X129615424Y-106583830D01*
X129679385Y-106424720D01*
X129689593Y-106352996D01*
X129702966Y-106259031D01*
X129702966Y-106259027D01*
X129703547Y-106254947D01*
X129703704Y-106240000D01*
X129702800Y-106232526D01*
X137496335Y-106232526D01*
X137500311Y-106268539D01*
X137512055Y-106374912D01*
X137515153Y-106402975D01*
X137517762Y-106410106D01*
X137517763Y-106410108D01*
X137533743Y-106453775D01*
X137574085Y-106564015D01*
X137578322Y-106570321D01*
X137578324Y-106570324D01*
X137596308Y-106597086D01*
X137669730Y-106706349D01*
X137699048Y-106733026D01*
X137790810Y-106816523D01*
X137796565Y-106821760D01*
X137947268Y-106903585D01*
X138113139Y-106947101D01*
X138200586Y-106948474D01*
X138277003Y-106949675D01*
X138277006Y-106949675D01*
X138284602Y-106949794D01*
X138292006Y-106948098D01*
X138292008Y-106948098D01*
X138371490Y-106929894D01*
X138386196Y-106926526D01*
X142034335Y-106926526D01*
X142042142Y-106997237D01*
X142051146Y-107078794D01*
X142053153Y-107096975D01*
X142055762Y-107104106D01*
X142055763Y-107104108D01*
X142061954Y-107121026D01*
X142112085Y-107258015D01*
X142116322Y-107264321D01*
X142116324Y-107264324D01*
X142158435Y-107326991D01*
X142207730Y-107400349D01*
X142248991Y-107437894D01*
X142328233Y-107509998D01*
X142334565Y-107515760D01*
X142485268Y-107597585D01*
X142651139Y-107641101D01*
X142738586Y-107642474D01*
X142815003Y-107643675D01*
X142815006Y-107643675D01*
X142822602Y-107643794D01*
X142830006Y-107642098D01*
X142830008Y-107642098D01*
X142926304Y-107620043D01*
X142989759Y-107605510D01*
X143142958Y-107528459D01*
X143148729Y-107523530D01*
X143148732Y-107523528D01*
X143267578Y-107422023D01*
X143273355Y-107417089D01*
X143373424Y-107277830D01*
X143423795Y-107152526D01*
X144496335Y-107152526D01*
X144500810Y-107193055D01*
X144510910Y-107284539D01*
X144515153Y-107322975D01*
X144517762Y-107330106D01*
X144517763Y-107330108D01*
X144533889Y-107374174D01*
X144574085Y-107484015D01*
X144578322Y-107490321D01*
X144578324Y-107490324D01*
X144587400Y-107503830D01*
X144669730Y-107626349D01*
X144796565Y-107741760D01*
X144947268Y-107823585D01*
X145113139Y-107867101D01*
X145200586Y-107868474D01*
X145277003Y-107869675D01*
X145277006Y-107869675D01*
X145284602Y-107869794D01*
X145292006Y-107868098D01*
X145292008Y-107868098D01*
X145375258Y-107849031D01*
X145451759Y-107831510D01*
X145469622Y-107822526D01*
X146446335Y-107822526D01*
X146465153Y-107992975D01*
X146467762Y-108000106D01*
X146467763Y-108000108D01*
X146475688Y-108021764D01*
X146524085Y-108154015D01*
X146619730Y-108296349D01*
X146746565Y-108411760D01*
X146897268Y-108493585D01*
X147063139Y-108537101D01*
X147150586Y-108538474D01*
X147227003Y-108539675D01*
X147227006Y-108539675D01*
X147234602Y-108539794D01*
X147242006Y-108538098D01*
X147242008Y-108538098D01*
X147304846Y-108523706D01*
X147401759Y-108501510D01*
X147554958Y-108424459D01*
X147560729Y-108419530D01*
X147560732Y-108419528D01*
X147679578Y-108318023D01*
X147685355Y-108313089D01*
X147785424Y-108173830D01*
X147849385Y-108014720D01*
X147859660Y-107942526D01*
X147872966Y-107849031D01*
X147872966Y-107849027D01*
X147873547Y-107844947D01*
X147873704Y-107830000D01*
X147853102Y-107659758D01*
X147846804Y-107643089D01*
X147813502Y-107554959D01*
X147808134Y-107484165D01*
X147841892Y-107421708D01*
X147903239Y-107387601D01*
X147951259Y-107376603D01*
X148001070Y-107351551D01*
X148070913Y-107338812D01*
X148089657Y-107342240D01*
X148210927Y-107374055D01*
X148298374Y-107375428D01*
X148374791Y-107376629D01*
X148374794Y-107376629D01*
X148382390Y-107376748D01*
X148389794Y-107375052D01*
X148389796Y-107375052D01*
X148461397Y-107358653D01*
X148549547Y-107338464D01*
X148670922Y-107277419D01*
X148740765Y-107264681D01*
X148806409Y-107291725D01*
X148847011Y-107349966D01*
X148849680Y-107420912D01*
X148822641Y-107471544D01*
X148821615Y-107472439D01*
X148817252Y-107478647D01*
X148817251Y-107478648D01*
X148809045Y-107490324D01*
X148723010Y-107612739D01*
X148707504Y-107652509D01*
X148671294Y-107745384D01*
X148660718Y-107772509D01*
X148659726Y-107780042D01*
X148659726Y-107780043D01*
X148640631Y-107925089D01*
X148638335Y-107942526D01*
X148657153Y-108112975D01*
X148659762Y-108120106D01*
X148659763Y-108120108D01*
X148679423Y-108173830D01*
X148716085Y-108274015D01*
X148720322Y-108280321D01*
X148720324Y-108280324D01*
X148742342Y-108313089D01*
X148811730Y-108416349D01*
X148938565Y-108531760D01*
X149089268Y-108613585D01*
X149255139Y-108657101D01*
X149342586Y-108658474D01*
X149419003Y-108659675D01*
X149419006Y-108659675D01*
X149426602Y-108659794D01*
X149434006Y-108658098D01*
X149434008Y-108658098D01*
X149496846Y-108643706D01*
X149593759Y-108621510D01*
X149746958Y-108544459D01*
X149752729Y-108539530D01*
X149752732Y-108539528D01*
X149871578Y-108438023D01*
X149877355Y-108433089D01*
X149963585Y-108313089D01*
X149972992Y-108299998D01*
X149972993Y-108299997D01*
X149977424Y-108293830D01*
X149980255Y-108286787D01*
X149980258Y-108286782D01*
X150015876Y-108198176D01*
X150059842Y-108142431D01*
X150104656Y-108122351D01*
X150135856Y-108115206D01*
X150135860Y-108115205D01*
X150143259Y-108113510D01*
X150296458Y-108036459D01*
X150302229Y-108031530D01*
X150302232Y-108031528D01*
X150421078Y-107930023D01*
X150426855Y-107925089D01*
X150526924Y-107785830D01*
X150590885Y-107626720D01*
X150594757Y-107599511D01*
X150614466Y-107461031D01*
X150614466Y-107461027D01*
X150615047Y-107456947D01*
X150615204Y-107442000D01*
X150607495Y-107378298D01*
X150595515Y-107279299D01*
X150595514Y-107279296D01*
X150594602Y-107271758D01*
X150588054Y-107254427D01*
X150536671Y-107118447D01*
X150533987Y-107111344D01*
X150524111Y-107096975D01*
X150441159Y-106976278D01*
X150441158Y-106976276D01*
X150436857Y-106970019D01*
X150431186Y-106964966D01*
X150314493Y-106860996D01*
X150314490Y-106860994D01*
X150308821Y-106855943D01*
X150300825Y-106851709D01*
X150163981Y-106779254D01*
X150163982Y-106779254D01*
X150157269Y-106775700D01*
X150139696Y-106771286D01*
X149998322Y-106735775D01*
X149998318Y-106735775D01*
X149990951Y-106733924D01*
X149983352Y-106733884D01*
X149983350Y-106733884D01*
X149911894Y-106733510D01*
X149819469Y-106733026D01*
X149812089Y-106734798D01*
X149812087Y-106734798D01*
X149660102Y-106771286D01*
X149660098Y-106771287D01*
X149652723Y-106773058D01*
X149500339Y-106851709D01*
X149371115Y-106964439D01*
X149272510Y-107104739D01*
X149251243Y-107159286D01*
X149238077Y-107193055D01*
X149194696Y-107249256D01*
X149150099Y-107269803D01*
X149110609Y-107279284D01*
X149110603Y-107279286D01*
X149103223Y-107281058D01*
X148989262Y-107339877D01*
X148919557Y-107353346D01*
X148853633Y-107326991D01*
X148812424Y-107269179D01*
X148809012Y-107198264D01*
X148834312Y-107150883D01*
X148833143Y-107150043D01*
X148928780Y-107016952D01*
X148928781Y-107016951D01*
X148933212Y-107010784D01*
X148997173Y-106851674D01*
X149011380Y-106751852D01*
X149020754Y-106685985D01*
X149020754Y-106685981D01*
X149021335Y-106681901D01*
X149021492Y-106666954D01*
X149011433Y-106583830D01*
X149001803Y-106504253D01*
X149001802Y-106504250D01*
X149000890Y-106496712D01*
X148988021Y-106462653D01*
X148942959Y-106343401D01*
X148940275Y-106336298D01*
X148935974Y-106330040D01*
X148853473Y-106210000D01*
X161366496Y-106210000D01*
X161367186Y-106216565D01*
X161383085Y-106367832D01*
X161386458Y-106399928D01*
X161445473Y-106581556D01*
X161448776Y-106587278D01*
X161448777Y-106587279D01*
X161462153Y-106610447D01*
X161540960Y-106746944D01*
X161545378Y-106751851D01*
X161545379Y-106751852D01*
X161615153Y-106829344D01*
X161668747Y-106888866D01*
X161730973Y-106934076D01*
X161808005Y-106990043D01*
X161823248Y-107001118D01*
X161829276Y-107003802D01*
X161829278Y-107003803D01*
X161938899Y-107052609D01*
X161997712Y-107078794D01*
X162090529Y-107098523D01*
X162178056Y-107117128D01*
X162178061Y-107117128D01*
X162184513Y-107118500D01*
X162375487Y-107118500D01*
X162381939Y-107117128D01*
X162381944Y-107117128D01*
X162469471Y-107098523D01*
X162562288Y-107078794D01*
X162621101Y-107052609D01*
X162730722Y-107003803D01*
X162730724Y-107003802D01*
X162736752Y-107001118D01*
X162751996Y-106990043D01*
X162829027Y-106934076D01*
X162891253Y-106888866D01*
X162944847Y-106829344D01*
X163014621Y-106751852D01*
X163014622Y-106751851D01*
X163019040Y-106746944D01*
X163097847Y-106610447D01*
X163111223Y-106587279D01*
X163111224Y-106587278D01*
X163114527Y-106581556D01*
X163173542Y-106399928D01*
X163176916Y-106367832D01*
X163192814Y-106216565D01*
X163193504Y-106210000D01*
X163184023Y-106119791D01*
X163174232Y-106026635D01*
X163174232Y-106026633D01*
X163173542Y-106020072D01*
X163114527Y-105838444D01*
X163019040Y-105673056D01*
X163006381Y-105658996D01*
X162895675Y-105536045D01*
X162895674Y-105536044D01*
X162891253Y-105531134D01*
X162781685Y-105451528D01*
X162742094Y-105422763D01*
X162742093Y-105422762D01*
X162736752Y-105418882D01*
X162730724Y-105416198D01*
X162730722Y-105416197D01*
X162568319Y-105343891D01*
X162568318Y-105343891D01*
X162562288Y-105341206D01*
X162468887Y-105321353D01*
X162381944Y-105302872D01*
X162381939Y-105302872D01*
X162375487Y-105301500D01*
X162184513Y-105301500D01*
X162178061Y-105302872D01*
X162178056Y-105302872D01*
X162091113Y-105321353D01*
X161997712Y-105341206D01*
X161991682Y-105343891D01*
X161991681Y-105343891D01*
X161829278Y-105416197D01*
X161829276Y-105416198D01*
X161823248Y-105418882D01*
X161817907Y-105422762D01*
X161817906Y-105422763D01*
X161778315Y-105451528D01*
X161668747Y-105531134D01*
X161664326Y-105536044D01*
X161664325Y-105536045D01*
X161553620Y-105658996D01*
X161540960Y-105673056D01*
X161445473Y-105838444D01*
X161386458Y-106020072D01*
X161385768Y-106026633D01*
X161385768Y-106026635D01*
X161375977Y-106119791D01*
X161366496Y-106210000D01*
X148853473Y-106210000D01*
X148847447Y-106201232D01*
X148847446Y-106201230D01*
X148843145Y-106194973D01*
X148758763Y-106119791D01*
X148720781Y-106085950D01*
X148720778Y-106085948D01*
X148715109Y-106080897D01*
X148694610Y-106070043D01*
X148570269Y-106004208D01*
X148570270Y-106004208D01*
X148563557Y-106000654D01*
X148552557Y-105997891D01*
X148404610Y-105960729D01*
X148404606Y-105960729D01*
X148397239Y-105958878D01*
X148389640Y-105958838D01*
X148389638Y-105958838D01*
X148318182Y-105958464D01*
X148225757Y-105957980D01*
X148218377Y-105959752D01*
X148218375Y-105959752D01*
X148066390Y-105996240D01*
X148066386Y-105996241D01*
X148059011Y-105998012D01*
X148052269Y-106001492D01*
X148052263Y-106001494D01*
X148017484Y-106019445D01*
X147947777Y-106032914D01*
X147929000Y-106029683D01*
X147806322Y-105998868D01*
X147806318Y-105998868D01*
X147798951Y-105997017D01*
X147791352Y-105996977D01*
X147791350Y-105996977D01*
X147719894Y-105996603D01*
X147627469Y-105996119D01*
X147620089Y-105997891D01*
X147620087Y-105997891D01*
X147468102Y-106034379D01*
X147468098Y-106034380D01*
X147460723Y-106036151D01*
X147308339Y-106114802D01*
X147179115Y-106227532D01*
X147080510Y-106367832D01*
X147058330Y-106424720D01*
X147030262Y-106496712D01*
X147018218Y-106527602D01*
X147017226Y-106535135D01*
X147017226Y-106535136D01*
X146997099Y-106688019D01*
X146995835Y-106697619D01*
X147004164Y-106773058D01*
X147013621Y-106858718D01*
X147014653Y-106868068D01*
X147053942Y-106975429D01*
X147056260Y-106981764D01*
X147060886Y-107052609D01*
X147026477Y-107114710D01*
X146967347Y-107147584D01*
X146911223Y-107161058D01*
X146758839Y-107239709D01*
X146629615Y-107352439D01*
X146531010Y-107492739D01*
X146515753Y-107531871D01*
X146472116Y-107643794D01*
X146468718Y-107652509D01*
X146467726Y-107660042D01*
X146467726Y-107660043D01*
X146452094Y-107778785D01*
X146446335Y-107822526D01*
X145469622Y-107822526D01*
X145604958Y-107754459D01*
X145610729Y-107749530D01*
X145610732Y-107749528D01*
X145729578Y-107648023D01*
X145735355Y-107643089D01*
X145835424Y-107503830D01*
X145899385Y-107344720D01*
X145909769Y-107271758D01*
X145922966Y-107179031D01*
X145922966Y-107179027D01*
X145923547Y-107174947D01*
X145923621Y-107167857D01*
X145923661Y-107164133D01*
X145923661Y-107164127D01*
X145923704Y-107160000D01*
X145906393Y-107016952D01*
X145904015Y-106997299D01*
X145904014Y-106997296D01*
X145903102Y-106989758D01*
X145900082Y-106981764D01*
X145845171Y-106836447D01*
X145842487Y-106829344D01*
X145806195Y-106776539D01*
X145749659Y-106694278D01*
X145749658Y-106694276D01*
X145745357Y-106688019D01*
X145739686Y-106682966D01*
X145622993Y-106578996D01*
X145622990Y-106578994D01*
X145617321Y-106573943D01*
X145609325Y-106569709D01*
X145472481Y-106497254D01*
X145472482Y-106497254D01*
X145465769Y-106493700D01*
X145448196Y-106489286D01*
X145306822Y-106453775D01*
X145306818Y-106453775D01*
X145299451Y-106451924D01*
X145291852Y-106451884D01*
X145291850Y-106451884D01*
X145220394Y-106451510D01*
X145127969Y-106451026D01*
X145120589Y-106452798D01*
X145120587Y-106452798D01*
X144968602Y-106489286D01*
X144968598Y-106489287D01*
X144961223Y-106491058D01*
X144808839Y-106569709D01*
X144679615Y-106682439D01*
X144581010Y-106822739D01*
X144566281Y-106860518D01*
X144523588Y-106970019D01*
X144518718Y-106982509D01*
X144517726Y-106990042D01*
X144517726Y-106990043D01*
X144500786Y-107118720D01*
X144496335Y-107152526D01*
X143423795Y-107152526D01*
X143437385Y-107118720D01*
X143451869Y-107016952D01*
X143460966Y-106953031D01*
X143460966Y-106953027D01*
X143461547Y-106948947D01*
X143461704Y-106934000D01*
X143451828Y-106852388D01*
X143442015Y-106771299D01*
X143442014Y-106771296D01*
X143441102Y-106763758D01*
X143429490Y-106733026D01*
X143383171Y-106610447D01*
X143380487Y-106603344D01*
X143353457Y-106564015D01*
X143287659Y-106468278D01*
X143287658Y-106468276D01*
X143283357Y-106462019D01*
X143277686Y-106456966D01*
X143160993Y-106352996D01*
X143160990Y-106352994D01*
X143155321Y-106347943D01*
X143147325Y-106343709D01*
X143010481Y-106271254D01*
X143010482Y-106271254D01*
X143003769Y-106267700D01*
X142986196Y-106263286D01*
X142844822Y-106227775D01*
X142844818Y-106227775D01*
X142837451Y-106225924D01*
X142829852Y-106225884D01*
X142829850Y-106225884D01*
X142758394Y-106225510D01*
X142665969Y-106225026D01*
X142658589Y-106226798D01*
X142658587Y-106226798D01*
X142506602Y-106263286D01*
X142506598Y-106263287D01*
X142499223Y-106265058D01*
X142346839Y-106343709D01*
X142217615Y-106456439D01*
X142119010Y-106596739D01*
X142093235Y-106662848D01*
X142062677Y-106741226D01*
X142056718Y-106756509D01*
X142055726Y-106764042D01*
X142055726Y-106764043D01*
X142036089Y-106913205D01*
X142034335Y-106926526D01*
X138386196Y-106926526D01*
X138451759Y-106911510D01*
X138604958Y-106834459D01*
X138610729Y-106829530D01*
X138610732Y-106829528D01*
X138729578Y-106728023D01*
X138735355Y-106723089D01*
X138821402Y-106603344D01*
X138830992Y-106589998D01*
X138830993Y-106589997D01*
X138835424Y-106583830D01*
X138899385Y-106424720D01*
X138909593Y-106352996D01*
X138922966Y-106259031D01*
X138922966Y-106259027D01*
X138923547Y-106254947D01*
X138923704Y-106240000D01*
X138908132Y-106111321D01*
X138904015Y-106077299D01*
X138904014Y-106077296D01*
X138903102Y-106069758D01*
X138891719Y-106039632D01*
X138845171Y-105916447D01*
X138842487Y-105909344D01*
X138793759Y-105838444D01*
X138749659Y-105774278D01*
X138749658Y-105774276D01*
X138745357Y-105768019D01*
X138739686Y-105762966D01*
X138622993Y-105658996D01*
X138622990Y-105658994D01*
X138617321Y-105653943D01*
X138609325Y-105649709D01*
X138472481Y-105577254D01*
X138472482Y-105577254D01*
X138465769Y-105573700D01*
X138448196Y-105569286D01*
X138306822Y-105533775D01*
X138306818Y-105533775D01*
X138299451Y-105531924D01*
X138291852Y-105531884D01*
X138291850Y-105531884D01*
X138220394Y-105531510D01*
X138127969Y-105531026D01*
X138120589Y-105532798D01*
X138120587Y-105532798D01*
X137968602Y-105569286D01*
X137968598Y-105569287D01*
X137961223Y-105571058D01*
X137808839Y-105649709D01*
X137679615Y-105762439D01*
X137581010Y-105902739D01*
X137558401Y-105960729D01*
X137527965Y-106038793D01*
X137518718Y-106062509D01*
X137517726Y-106070042D01*
X137517726Y-106070043D01*
X137497650Y-106222540D01*
X137496335Y-106232526D01*
X129702800Y-106232526D01*
X129688132Y-106111321D01*
X129684015Y-106077299D01*
X129684014Y-106077296D01*
X129683102Y-106069758D01*
X129671719Y-106039632D01*
X129625171Y-105916447D01*
X129622487Y-105909344D01*
X129573759Y-105838444D01*
X129529659Y-105774278D01*
X129529658Y-105774276D01*
X129525357Y-105768019D01*
X129519686Y-105762966D01*
X129402993Y-105658996D01*
X129402990Y-105658994D01*
X129397321Y-105653943D01*
X129389325Y-105649709D01*
X129252481Y-105577254D01*
X129252482Y-105577254D01*
X129245769Y-105573700D01*
X129228196Y-105569286D01*
X129086822Y-105533775D01*
X129086818Y-105533775D01*
X129079451Y-105531924D01*
X129071852Y-105531884D01*
X129071850Y-105531884D01*
X129000394Y-105531510D01*
X128907969Y-105531026D01*
X128900589Y-105532798D01*
X128900587Y-105532798D01*
X128748602Y-105569286D01*
X128748598Y-105569287D01*
X128741223Y-105571058D01*
X128734481Y-105574538D01*
X128734475Y-105574540D01*
X128628193Y-105629396D01*
X128558486Y-105642865D01*
X128492563Y-105616509D01*
X128451353Y-105558697D01*
X128444404Y-105517477D01*
X128444156Y-104854526D01*
X152514335Y-104854526D01*
X152533153Y-105024975D01*
X152535762Y-105032106D01*
X152535763Y-105032108D01*
X152543688Y-105053764D01*
X152592085Y-105186015D01*
X152687730Y-105328349D01*
X152751148Y-105386055D01*
X152791490Y-105422763D01*
X152814565Y-105443760D01*
X152965268Y-105525585D01*
X153131139Y-105569101D01*
X153218586Y-105570474D01*
X153295003Y-105571675D01*
X153295006Y-105571675D01*
X153302602Y-105571794D01*
X153310006Y-105570098D01*
X153310008Y-105570098D01*
X153372846Y-105555706D01*
X153469759Y-105533510D01*
X153622958Y-105456459D01*
X153628729Y-105451530D01*
X153628732Y-105451528D01*
X153747578Y-105350023D01*
X153753355Y-105345089D01*
X153853424Y-105205830D01*
X153917385Y-105046720D01*
X153941547Y-104876947D01*
X153941704Y-104862000D01*
X153921102Y-104691758D01*
X153884841Y-104595794D01*
X153863171Y-104538447D01*
X153860487Y-104531344D01*
X153763357Y-104390019D01*
X153757686Y-104384966D01*
X153640993Y-104280996D01*
X153640990Y-104280994D01*
X153635321Y-104275943D01*
X153627325Y-104271709D01*
X153510805Y-104210015D01*
X153483769Y-104195700D01*
X153466196Y-104191286D01*
X153324822Y-104155775D01*
X153324818Y-104155775D01*
X153317451Y-104153924D01*
X153309852Y-104153884D01*
X153309850Y-104153884D01*
X153238394Y-104153510D01*
X153145969Y-104153026D01*
X153138589Y-104154798D01*
X153138587Y-104154798D01*
X152986602Y-104191286D01*
X152986598Y-104191287D01*
X152979223Y-104193058D01*
X152826839Y-104271709D01*
X152697615Y-104384439D01*
X152599010Y-104524739D01*
X152536718Y-104684509D01*
X152514335Y-104854526D01*
X128444156Y-104854526D01*
X128443790Y-103878526D01*
X141272335Y-103878526D01*
X141291153Y-104048975D01*
X141293762Y-104056106D01*
X141293763Y-104056108D01*
X141301688Y-104077764D01*
X141350085Y-104210015D01*
X141445730Y-104352349D01*
X141572565Y-104467760D01*
X141723268Y-104549585D01*
X141889139Y-104593101D01*
X141976586Y-104594474D01*
X142053003Y-104595675D01*
X142053006Y-104595675D01*
X142060602Y-104595794D01*
X142068006Y-104594098D01*
X142068008Y-104594098D01*
X142130846Y-104579706D01*
X142227759Y-104557510D01*
X142380958Y-104480459D01*
X142386729Y-104475530D01*
X142386732Y-104475528D01*
X142505578Y-104374023D01*
X142511355Y-104369089D01*
X142611424Y-104229830D01*
X142675385Y-104070720D01*
X142699547Y-103900947D01*
X142699704Y-103886000D01*
X142690502Y-103809962D01*
X142680015Y-103723299D01*
X142680014Y-103723296D01*
X142679102Y-103715758D01*
X142618487Y-103555344D01*
X142521357Y-103414019D01*
X142515686Y-103408966D01*
X142398993Y-103304996D01*
X142398990Y-103304994D01*
X142393321Y-103299943D01*
X142385325Y-103295709D01*
X142248481Y-103223254D01*
X142248482Y-103223254D01*
X142241769Y-103219700D01*
X142224196Y-103215286D01*
X142082822Y-103179775D01*
X142082818Y-103179775D01*
X142075451Y-103177924D01*
X142067852Y-103177884D01*
X142067850Y-103177884D01*
X141996394Y-103177510D01*
X141903969Y-103177026D01*
X141896589Y-103178798D01*
X141896587Y-103178798D01*
X141744602Y-103215286D01*
X141744598Y-103215287D01*
X141737223Y-103217058D01*
X141584839Y-103295709D01*
X141455615Y-103408439D01*
X141357010Y-103548739D01*
X141294718Y-103708509D01*
X141293726Y-103716042D01*
X141293726Y-103716043D01*
X141274817Y-103859675D01*
X141272335Y-103878526D01*
X128443790Y-103878526D01*
X128443514Y-103142526D01*
X145206335Y-103142526D01*
X145214368Y-103215286D01*
X145223798Y-103300698D01*
X145225153Y-103312975D01*
X145227762Y-103320106D01*
X145227763Y-103320108D01*
X145235688Y-103341764D01*
X145284085Y-103474015D01*
X145379730Y-103616349D01*
X145506565Y-103731760D01*
X145657268Y-103813585D01*
X145823139Y-103857101D01*
X145910586Y-103858474D01*
X145987003Y-103859675D01*
X145987006Y-103859675D01*
X145994602Y-103859794D01*
X146002006Y-103858098D01*
X146002008Y-103858098D01*
X146064846Y-103843706D01*
X146161759Y-103821510D01*
X146314958Y-103744459D01*
X146320729Y-103739530D01*
X146320732Y-103739528D01*
X146439578Y-103638023D01*
X146445355Y-103633089D01*
X146545424Y-103493830D01*
X146609385Y-103334720D01*
X146614227Y-103300698D01*
X146632966Y-103169031D01*
X146632966Y-103169027D01*
X146633547Y-103164947D01*
X146633704Y-103150000D01*
X146613102Y-102979758D01*
X146552487Y-102819344D01*
X146455357Y-102678019D01*
X146449686Y-102672966D01*
X146332993Y-102568996D01*
X146332990Y-102568994D01*
X146327321Y-102563943D01*
X146319325Y-102559709D01*
X146182481Y-102487254D01*
X146182482Y-102487254D01*
X146175769Y-102483700D01*
X146158196Y-102479286D01*
X146016822Y-102443775D01*
X146016818Y-102443775D01*
X146009451Y-102441924D01*
X146001852Y-102441884D01*
X146001850Y-102441884D01*
X145930394Y-102441510D01*
X145837969Y-102441026D01*
X145830589Y-102442798D01*
X145830587Y-102442798D01*
X145678602Y-102479286D01*
X145678598Y-102479287D01*
X145671223Y-102481058D01*
X145518839Y-102559709D01*
X145389615Y-102672439D01*
X145291010Y-102812739D01*
X145228718Y-102972509D01*
X145206335Y-103142526D01*
X128443514Y-103142526D01*
X128442893Y-101482526D01*
X139876335Y-101482526D01*
X139895153Y-101652975D01*
X139897762Y-101660106D01*
X139897763Y-101660108D01*
X139905688Y-101681764D01*
X139954085Y-101814015D01*
X140049730Y-101956349D01*
X140176565Y-102071760D01*
X140327268Y-102153585D01*
X140493139Y-102197101D01*
X140580586Y-102198474D01*
X140657003Y-102199675D01*
X140657006Y-102199675D01*
X140664602Y-102199794D01*
X140672006Y-102198098D01*
X140672008Y-102198098D01*
X140734846Y-102183706D01*
X140831759Y-102161510D01*
X140984958Y-102084459D01*
X140990729Y-102079530D01*
X140990732Y-102079528D01*
X141109578Y-101978023D01*
X141115355Y-101973089D01*
X141215424Y-101833830D01*
X141279385Y-101674720D01*
X141303547Y-101504947D01*
X141303704Y-101490000D01*
X141283102Y-101319758D01*
X141222487Y-101159344D01*
X141125357Y-101018019D01*
X141119686Y-101012966D01*
X141002993Y-100908996D01*
X141002990Y-100908994D01*
X140997321Y-100903943D01*
X140989325Y-100899709D01*
X140852481Y-100827254D01*
X140852482Y-100827254D01*
X140845769Y-100823700D01*
X140828196Y-100819286D01*
X140686822Y-100783775D01*
X140686818Y-100783775D01*
X140679451Y-100781924D01*
X140671852Y-100781884D01*
X140671850Y-100781884D01*
X140600394Y-100781510D01*
X140507969Y-100781026D01*
X140500589Y-100782798D01*
X140500587Y-100782798D01*
X140348602Y-100819286D01*
X140348598Y-100819287D01*
X140341223Y-100821058D01*
X140188839Y-100899709D01*
X140059615Y-101012439D01*
X139961010Y-101152739D01*
X139898718Y-101312509D01*
X139876335Y-101482526D01*
X128442893Y-101482526D01*
X128441480Y-97707526D01*
X146116335Y-97707526D01*
X146135153Y-97877975D01*
X146137762Y-97885106D01*
X146137763Y-97885108D01*
X146145688Y-97906764D01*
X146194085Y-98039015D01*
X146198322Y-98045321D01*
X146198324Y-98045324D01*
X146216523Y-98072406D01*
X146289730Y-98181349D01*
X146416565Y-98296760D01*
X146567268Y-98378585D01*
X146733139Y-98422101D01*
X146820586Y-98423474D01*
X146897003Y-98424675D01*
X146897006Y-98424675D01*
X146904602Y-98424794D01*
X146912006Y-98423098D01*
X146912008Y-98423098D01*
X146998131Y-98403373D01*
X147071759Y-98386510D01*
X147224958Y-98309459D01*
X147230729Y-98304530D01*
X147230732Y-98304528D01*
X147349578Y-98203023D01*
X147355355Y-98198089D01*
X147455424Y-98058830D01*
X147519385Y-97899720D01*
X147543547Y-97729947D01*
X147543704Y-97715000D01*
X147542800Y-97707526D01*
X150870012Y-97707526D01*
X150888830Y-97877975D01*
X150891439Y-97885106D01*
X150891440Y-97885108D01*
X150899365Y-97906764D01*
X150947762Y-98039015D01*
X150951999Y-98045321D01*
X150952001Y-98045324D01*
X150970200Y-98072406D01*
X151043407Y-98181349D01*
X151170242Y-98296760D01*
X151320945Y-98378585D01*
X151486816Y-98422101D01*
X151574263Y-98423474D01*
X151650680Y-98424675D01*
X151650683Y-98424675D01*
X151658279Y-98424794D01*
X151665683Y-98423098D01*
X151665685Y-98423098D01*
X151751808Y-98403373D01*
X151825436Y-98386510D01*
X151919140Y-98339382D01*
X151988984Y-98326644D01*
X152054628Y-98353688D01*
X152080335Y-98381670D01*
X152173104Y-98519724D01*
X152299939Y-98635135D01*
X152450642Y-98716960D01*
X152616513Y-98760476D01*
X152703960Y-98761849D01*
X152780377Y-98763050D01*
X152780380Y-98763050D01*
X152787976Y-98763169D01*
X152795380Y-98761473D01*
X152795382Y-98761473D01*
X152858220Y-98747081D01*
X152955133Y-98724885D01*
X153108332Y-98647834D01*
X153114103Y-98642905D01*
X153114106Y-98642903D01*
X153232952Y-98541398D01*
X153238729Y-98536464D01*
X153338798Y-98397205D01*
X153402759Y-98238095D01*
X153403829Y-98230577D01*
X153426340Y-98072406D01*
X153426340Y-98072402D01*
X153426921Y-98068322D01*
X153427078Y-98053375D01*
X153409336Y-97906764D01*
X153407389Y-97890674D01*
X153407388Y-97890671D01*
X153406476Y-97883133D01*
X153345861Y-97722719D01*
X153248731Y-97581394D01*
X153199476Y-97537509D01*
X153126367Y-97472371D01*
X153126364Y-97472369D01*
X153120695Y-97467318D01*
X153112699Y-97463084D01*
X152975855Y-97390629D01*
X152975856Y-97390629D01*
X152969143Y-97387075D01*
X152961778Y-97385225D01*
X152810196Y-97347150D01*
X152810192Y-97347150D01*
X152802825Y-97345299D01*
X152795226Y-97345259D01*
X152795224Y-97345259D01*
X152723768Y-97344885D01*
X152631343Y-97344401D01*
X152623963Y-97346173D01*
X152623961Y-97346173D01*
X152471976Y-97382661D01*
X152471972Y-97382662D01*
X152464597Y-97384433D01*
X152457855Y-97387913D01*
X152457849Y-97387915D01*
X152379560Y-97428323D01*
X152309853Y-97441792D01*
X152243930Y-97415436D01*
X152217394Y-97383499D01*
X152216164Y-97384344D01*
X152123336Y-97249278D01*
X152123335Y-97249276D01*
X152119034Y-97243019D01*
X152113363Y-97237966D01*
X151996670Y-97133996D01*
X151996667Y-97133994D01*
X151990998Y-97128943D01*
X151983002Y-97124709D01*
X151846158Y-97052254D01*
X151846159Y-97052254D01*
X151839446Y-97048700D01*
X151821873Y-97044286D01*
X151680499Y-97008775D01*
X151680495Y-97008775D01*
X151673128Y-97006924D01*
X151665529Y-97006884D01*
X151665527Y-97006884D01*
X151594071Y-97006510D01*
X151501646Y-97006026D01*
X151494266Y-97007798D01*
X151494264Y-97007798D01*
X151342279Y-97044286D01*
X151342275Y-97044287D01*
X151334900Y-97046058D01*
X151182516Y-97124709D01*
X151053292Y-97237439D01*
X150954687Y-97377739D01*
X150892395Y-97537509D01*
X150870012Y-97707526D01*
X147542800Y-97707526D01*
X147523102Y-97544758D01*
X147508676Y-97506580D01*
X147481199Y-97433862D01*
X147475831Y-97363069D01*
X147482157Y-97342329D01*
X147516553Y-97256764D01*
X147519385Y-97249720D01*
X147535855Y-97133996D01*
X147542966Y-97084031D01*
X147542966Y-97084027D01*
X147543547Y-97079947D01*
X147543704Y-97065000D01*
X147523102Y-96894758D01*
X147462487Y-96734344D01*
X147365357Y-96593019D01*
X147359686Y-96587966D01*
X147242993Y-96483996D01*
X147242990Y-96483994D01*
X147237321Y-96478943D01*
X147229325Y-96474709D01*
X147139409Y-96427101D01*
X147085769Y-96398700D01*
X147068196Y-96394286D01*
X146926822Y-96358775D01*
X146926818Y-96358775D01*
X146919451Y-96356924D01*
X146911852Y-96356884D01*
X146911850Y-96356884D01*
X146840394Y-96356510D01*
X146747969Y-96356026D01*
X146740589Y-96357798D01*
X146740587Y-96357798D01*
X146588602Y-96394286D01*
X146588598Y-96394287D01*
X146581223Y-96396058D01*
X146428839Y-96474709D01*
X146299615Y-96587439D01*
X146201010Y-96727739D01*
X146138718Y-96887509D01*
X146137726Y-96895042D01*
X146137726Y-96895043D01*
X146117387Y-97049539D01*
X146116335Y-97057526D01*
X146135153Y-97227975D01*
X146137762Y-97235106D01*
X146137763Y-97235108D01*
X146178947Y-97347649D01*
X146183573Y-97418495D01*
X146178014Y-97436720D01*
X146150777Y-97506580D01*
X146138718Y-97537509D01*
X146116335Y-97707526D01*
X128441480Y-97707526D01*
X128440652Y-95496526D01*
X131112335Y-95496526D01*
X131131153Y-95666975D01*
X131133762Y-95674106D01*
X131133763Y-95674108D01*
X131141688Y-95695764D01*
X131190085Y-95828015D01*
X131194322Y-95834321D01*
X131194324Y-95834324D01*
X131227017Y-95882975D01*
X131285730Y-95970349D01*
X131412565Y-96085760D01*
X131563268Y-96167585D01*
X131729139Y-96211101D01*
X131816586Y-96212474D01*
X131893003Y-96213675D01*
X131893006Y-96213675D01*
X131900602Y-96213794D01*
X131908006Y-96212098D01*
X131908008Y-96212098D01*
X131998122Y-96191459D01*
X132067759Y-96175510D01*
X132220958Y-96098459D01*
X132226729Y-96093530D01*
X132226732Y-96093528D01*
X132345578Y-95992023D01*
X132351355Y-95987089D01*
X132442706Y-95859962D01*
X132446992Y-95853998D01*
X132446993Y-95853997D01*
X132448050Y-95852526D01*
X140206335Y-95852526D01*
X140212658Y-95909794D01*
X140221736Y-95992023D01*
X140225153Y-96022975D01*
X140227762Y-96030106D01*
X140227763Y-96030108D01*
X140240104Y-96063830D01*
X140284085Y-96184015D01*
X140288322Y-96190321D01*
X140288324Y-96190324D01*
X140332621Y-96256244D01*
X140379730Y-96326349D01*
X140414292Y-96357798D01*
X140493415Y-96429794D01*
X140506565Y-96441760D01*
X140657268Y-96523585D01*
X140823139Y-96567101D01*
X140910586Y-96568474D01*
X140987003Y-96569675D01*
X140987006Y-96569675D01*
X140994602Y-96569794D01*
X141002006Y-96568098D01*
X141002008Y-96568098D01*
X141064846Y-96553706D01*
X141161759Y-96531510D01*
X141314958Y-96454459D01*
X141320729Y-96449530D01*
X141320732Y-96449528D01*
X141439578Y-96348023D01*
X141445355Y-96343089D01*
X141545424Y-96203830D01*
X141609385Y-96044720D01*
X141619242Y-95975459D01*
X141632966Y-95879031D01*
X141632966Y-95879027D01*
X141633547Y-95874947D01*
X141633704Y-95860000D01*
X141626185Y-95797871D01*
X141614015Y-95697299D01*
X141614014Y-95697296D01*
X141613102Y-95689758D01*
X141607189Y-95674108D01*
X141555171Y-95536447D01*
X141552487Y-95529344D01*
X141480076Y-95423985D01*
X141459659Y-95394278D01*
X141459658Y-95394276D01*
X141455357Y-95388019D01*
X141449431Y-95382739D01*
X141332993Y-95278996D01*
X141332990Y-95278994D01*
X141327321Y-95273943D01*
X141319325Y-95269709D01*
X141215897Y-95214947D01*
X141175769Y-95193700D01*
X141171095Y-95192526D01*
X147616335Y-95192526D01*
X147621846Y-95242439D01*
X147632226Y-95336459D01*
X147635153Y-95362975D01*
X147637762Y-95370106D01*
X147637763Y-95370108D01*
X147653646Y-95413510D01*
X147694085Y-95524015D01*
X147698322Y-95530321D01*
X147698324Y-95530324D01*
X147711545Y-95549998D01*
X147789730Y-95666349D01*
X147916565Y-95781760D01*
X148067268Y-95863585D01*
X148233139Y-95907101D01*
X148320586Y-95908474D01*
X148397003Y-95909675D01*
X148397006Y-95909675D01*
X148404602Y-95909794D01*
X148412006Y-95908098D01*
X148412008Y-95908098D01*
X148490556Y-95890108D01*
X148571759Y-95871510D01*
X148724958Y-95794459D01*
X148730729Y-95789530D01*
X148730732Y-95789528D01*
X148820889Y-95712526D01*
X155656335Y-95712526D01*
X155663979Y-95781760D01*
X155674267Y-95874947D01*
X155675153Y-95882975D01*
X155677762Y-95890106D01*
X155677763Y-95890108D01*
X155684924Y-95909675D01*
X155734085Y-96044015D01*
X155738322Y-96050321D01*
X155738324Y-96050324D01*
X155770670Y-96098459D01*
X155829730Y-96186349D01*
X155956565Y-96301760D01*
X156107268Y-96383585D01*
X156273139Y-96427101D01*
X156360586Y-96428474D01*
X156437003Y-96429675D01*
X156437006Y-96429675D01*
X156444602Y-96429794D01*
X156452006Y-96428098D01*
X156452008Y-96428098D01*
X156514846Y-96413706D01*
X156611759Y-96391510D01*
X156764958Y-96314459D01*
X156770729Y-96309530D01*
X156770732Y-96309528D01*
X156889578Y-96208023D01*
X156895355Y-96203089D01*
X156977061Y-96089384D01*
X156990992Y-96069998D01*
X156990993Y-96069997D01*
X156995424Y-96063830D01*
X157059385Y-95904720D01*
X157063870Y-95873205D01*
X157082966Y-95739031D01*
X157082966Y-95739027D01*
X157083547Y-95734947D01*
X157083704Y-95720000D01*
X157076448Y-95660043D01*
X157064015Y-95557299D01*
X157064014Y-95557296D01*
X157063102Y-95549758D01*
X157058073Y-95536447D01*
X157005171Y-95396447D01*
X157002487Y-95389344D01*
X156905357Y-95248019D01*
X156899686Y-95242966D01*
X156782993Y-95138996D01*
X156782990Y-95138994D01*
X156777321Y-95133943D01*
X156769325Y-95129709D01*
X156632481Y-95057254D01*
X156632482Y-95057254D01*
X156625769Y-95053700D01*
X156560474Y-95037299D01*
X156466822Y-95013775D01*
X156466818Y-95013775D01*
X156459451Y-95011924D01*
X156451852Y-95011884D01*
X156451850Y-95011884D01*
X156380394Y-95011510D01*
X156287969Y-95011026D01*
X156280589Y-95012798D01*
X156280587Y-95012798D01*
X156128602Y-95049286D01*
X156128598Y-95049287D01*
X156121223Y-95051058D01*
X155968839Y-95129709D01*
X155839615Y-95242439D01*
X155741010Y-95382739D01*
X155735539Y-95396771D01*
X155683469Y-95530324D01*
X155678718Y-95542509D01*
X155677726Y-95550042D01*
X155677726Y-95550043D01*
X155658340Y-95697299D01*
X155656335Y-95712526D01*
X148820889Y-95712526D01*
X148849578Y-95688023D01*
X148855355Y-95683089D01*
X148928470Y-95581340D01*
X148950992Y-95549998D01*
X148950993Y-95549997D01*
X148955424Y-95543830D01*
X149019385Y-95384720D01*
X149020714Y-95375384D01*
X149042966Y-95219031D01*
X149042966Y-95219027D01*
X149043547Y-95214947D01*
X149043704Y-95200000D01*
X149036322Y-95138996D01*
X149024015Y-95037299D01*
X149024014Y-95037296D01*
X149023102Y-95029758D01*
X149016694Y-95012798D01*
X148965171Y-94876447D01*
X148962487Y-94869344D01*
X148908008Y-94790076D01*
X148902819Y-94782526D01*
X150376335Y-94782526D01*
X150385191Y-94862739D01*
X150391369Y-94918698D01*
X150395153Y-94952975D01*
X150397762Y-94960106D01*
X150397763Y-94960108D01*
X150418008Y-95015429D01*
X150454085Y-95114015D01*
X150458322Y-95120321D01*
X150458324Y-95120324D01*
X150471545Y-95139998D01*
X150549730Y-95256349D01*
X150574619Y-95278996D01*
X150635115Y-95334043D01*
X150676565Y-95371760D01*
X150827268Y-95453585D01*
X150993139Y-95497101D01*
X151080586Y-95498474D01*
X151157003Y-95499675D01*
X151157006Y-95499675D01*
X151164602Y-95499794D01*
X151172006Y-95498098D01*
X151172008Y-95498098D01*
X151234846Y-95483706D01*
X151331759Y-95461510D01*
X151484958Y-95384459D01*
X151490729Y-95379530D01*
X151490732Y-95379528D01*
X151609578Y-95278023D01*
X151615355Y-95273089D01*
X151715424Y-95133830D01*
X151779385Y-94974720D01*
X151788068Y-94913709D01*
X151802966Y-94809031D01*
X151802966Y-94809027D01*
X151803547Y-94804947D01*
X151803704Y-94790000D01*
X151788212Y-94661985D01*
X151784015Y-94627299D01*
X151784014Y-94627296D01*
X151783102Y-94619758D01*
X151779562Y-94610388D01*
X151725171Y-94466447D01*
X151722487Y-94459344D01*
X151625357Y-94318019D01*
X151619686Y-94312966D01*
X151502993Y-94208996D01*
X151502990Y-94208994D01*
X151497321Y-94203943D01*
X151489325Y-94199709D01*
X151408091Y-94156698D01*
X151345769Y-94123700D01*
X151328196Y-94119286D01*
X151186822Y-94083775D01*
X151186818Y-94083775D01*
X151179451Y-94081924D01*
X151171852Y-94081884D01*
X151171850Y-94081884D01*
X151100394Y-94081510D01*
X151007969Y-94081026D01*
X151000589Y-94082798D01*
X151000587Y-94082798D01*
X150848602Y-94119286D01*
X150848598Y-94119287D01*
X150841223Y-94121058D01*
X150688839Y-94199709D01*
X150559615Y-94312439D01*
X150461010Y-94452739D01*
X150445392Y-94492798D01*
X150415476Y-94569528D01*
X150398718Y-94612509D01*
X150397726Y-94620042D01*
X150397726Y-94620043D01*
X150379165Y-94761031D01*
X150376335Y-94782526D01*
X148902819Y-94782526D01*
X148869659Y-94734278D01*
X148869658Y-94734276D01*
X148865357Y-94728019D01*
X148859686Y-94722966D01*
X148742993Y-94618996D01*
X148742990Y-94618994D01*
X148737321Y-94613943D01*
X148729325Y-94609709D01*
X148592481Y-94537254D01*
X148592482Y-94537254D01*
X148585769Y-94533700D01*
X148568196Y-94529286D01*
X148426822Y-94493775D01*
X148426818Y-94493775D01*
X148419451Y-94491924D01*
X148411852Y-94491884D01*
X148411850Y-94491884D01*
X148340394Y-94491510D01*
X148247969Y-94491026D01*
X148240589Y-94492798D01*
X148240587Y-94492798D01*
X148088602Y-94529286D01*
X148088598Y-94529287D01*
X148081223Y-94531058D01*
X147928839Y-94609709D01*
X147799615Y-94722439D01*
X147701010Y-94862739D01*
X147678996Y-94919202D01*
X147642861Y-95011884D01*
X147638718Y-95022509D01*
X147637726Y-95030042D01*
X147637726Y-95030043D01*
X147618798Y-95173819D01*
X147616335Y-95192526D01*
X141171095Y-95192526D01*
X141141113Y-95184995D01*
X141016822Y-95153775D01*
X141016818Y-95153775D01*
X141009451Y-95151924D01*
X141001852Y-95151884D01*
X141001850Y-95151884D01*
X140930394Y-95151510D01*
X140837969Y-95151026D01*
X140830589Y-95152798D01*
X140830587Y-95152798D01*
X140678602Y-95189286D01*
X140678598Y-95189287D01*
X140671223Y-95191058D01*
X140518839Y-95269709D01*
X140389615Y-95382439D01*
X140291010Y-95522739D01*
X140282787Y-95543830D01*
X140235019Y-95666349D01*
X140228718Y-95682509D01*
X140227726Y-95690042D01*
X140227726Y-95690043D01*
X140207881Y-95840785D01*
X140206335Y-95852526D01*
X132448050Y-95852526D01*
X132451424Y-95847830D01*
X132515385Y-95688720D01*
X132534089Y-95557299D01*
X132538966Y-95523031D01*
X132538966Y-95523027D01*
X132539547Y-95518947D01*
X132539662Y-95508011D01*
X132560379Y-95440104D01*
X132609041Y-95396771D01*
X132722174Y-95339871D01*
X132728958Y-95336459D01*
X132734729Y-95331530D01*
X132734732Y-95331528D01*
X132853578Y-95230023D01*
X132859355Y-95225089D01*
X132959424Y-95085830D01*
X133023385Y-94926720D01*
X133032491Y-94862739D01*
X133046966Y-94761031D01*
X133046966Y-94761027D01*
X133047547Y-94756947D01*
X133047662Y-94746011D01*
X133068379Y-94678104D01*
X133117041Y-94634771D01*
X133230174Y-94577871D01*
X133236958Y-94574459D01*
X133242729Y-94569530D01*
X133242732Y-94569528D01*
X133361578Y-94468023D01*
X133367355Y-94463089D01*
X133467424Y-94323830D01*
X133531385Y-94164720D01*
X133537851Y-94119286D01*
X133554966Y-93999031D01*
X133554966Y-93999027D01*
X133555547Y-93994947D01*
X133555704Y-93980000D01*
X133535102Y-93809758D01*
X133528848Y-93793207D01*
X133523481Y-93722414D01*
X133557240Y-93659957D01*
X133592687Y-93637355D01*
X133591759Y-93635510D01*
X133738174Y-93561871D01*
X133744958Y-93558459D01*
X133750729Y-93553530D01*
X133750732Y-93553528D01*
X133869578Y-93452023D01*
X133875355Y-93447089D01*
X133975424Y-93307830D01*
X134029815Y-93172526D01*
X138366335Y-93172526D01*
X138371878Y-93222729D01*
X138382014Y-93314539D01*
X138385153Y-93342975D01*
X138387762Y-93350106D01*
X138387763Y-93350108D01*
X138395688Y-93371764D01*
X138444085Y-93504015D01*
X138448322Y-93510321D01*
X138448324Y-93510324D01*
X138480670Y-93558459D01*
X138539730Y-93646349D01*
X138666565Y-93761760D01*
X138817268Y-93843585D01*
X138983139Y-93887101D01*
X139070586Y-93888474D01*
X139147003Y-93889675D01*
X139147006Y-93889675D01*
X139154602Y-93889794D01*
X139162006Y-93888098D01*
X139162008Y-93888098D01*
X139224846Y-93873706D01*
X139321759Y-93851510D01*
X139474958Y-93774459D01*
X139480729Y-93769530D01*
X139480732Y-93769528D01*
X139599578Y-93668023D01*
X139605355Y-93663089D01*
X139705424Y-93523830D01*
X139769385Y-93364720D01*
X139793547Y-93194947D01*
X139793704Y-93180000D01*
X139787287Y-93126975D01*
X139774015Y-93017299D01*
X139774014Y-93017296D01*
X139773102Y-93009758D01*
X139763543Y-92984459D01*
X139715171Y-92856447D01*
X139712487Y-92849344D01*
X139637336Y-92739998D01*
X139619659Y-92714278D01*
X139619658Y-92714276D01*
X139615357Y-92708019D01*
X139609686Y-92702966D01*
X139492993Y-92598996D01*
X139492990Y-92598994D01*
X139487321Y-92593943D01*
X139479325Y-92589709D01*
X139342481Y-92517254D01*
X139342482Y-92517254D01*
X139335769Y-92513700D01*
X139318196Y-92509286D01*
X139176822Y-92473775D01*
X139176818Y-92473775D01*
X139169451Y-92471924D01*
X139161852Y-92471884D01*
X139161850Y-92471884D01*
X139090394Y-92471510D01*
X138997969Y-92471026D01*
X138990589Y-92472798D01*
X138990587Y-92472798D01*
X138838602Y-92509286D01*
X138838598Y-92509287D01*
X138831223Y-92511058D01*
X138678839Y-92589709D01*
X138549615Y-92702439D01*
X138451010Y-92842739D01*
X138419864Y-92922624D01*
X138399294Y-92975384D01*
X138388718Y-93002509D01*
X138387726Y-93010042D01*
X138387726Y-93010043D01*
X138368542Y-93155764D01*
X138366335Y-93172526D01*
X134029815Y-93172526D01*
X134039385Y-93148720D01*
X134046365Y-93099675D01*
X134062966Y-92983031D01*
X134062966Y-92983027D01*
X134063547Y-92978947D01*
X134063621Y-92971857D01*
X134063661Y-92968133D01*
X134063661Y-92968127D01*
X134063704Y-92964000D01*
X134059258Y-92927262D01*
X134044015Y-92801299D01*
X134044014Y-92801296D01*
X134043102Y-92793758D01*
X134010274Y-92706879D01*
X133985171Y-92640447D01*
X133982487Y-92633344D01*
X133955926Y-92594698D01*
X133889659Y-92498278D01*
X133889658Y-92498276D01*
X133885357Y-92492019D01*
X133879686Y-92486966D01*
X133762993Y-92382996D01*
X133762990Y-92382994D01*
X133762465Y-92382526D01*
X143086335Y-92382526D01*
X143095744Y-92467750D01*
X143100910Y-92514539D01*
X143105153Y-92552975D01*
X143107762Y-92560106D01*
X143107763Y-92560108D01*
X143115688Y-92581764D01*
X143164085Y-92714015D01*
X143259730Y-92856349D01*
X143323147Y-92914054D01*
X143361547Y-92948995D01*
X143386565Y-92971760D01*
X143537268Y-93053585D01*
X143703139Y-93097101D01*
X143790586Y-93098474D01*
X143867003Y-93099675D01*
X143867006Y-93099675D01*
X143874602Y-93099794D01*
X143882006Y-93098098D01*
X143882008Y-93098098D01*
X143944846Y-93083706D01*
X144041759Y-93061510D01*
X144194958Y-92984459D01*
X144200729Y-92979530D01*
X144200732Y-92979528D01*
X144319578Y-92878023D01*
X144325355Y-92873089D01*
X144425424Y-92733830D01*
X144489385Y-92574720D01*
X144502660Y-92481447D01*
X144512966Y-92409031D01*
X144512966Y-92409027D01*
X144513547Y-92404947D01*
X144513704Y-92390000D01*
X144502534Y-92297700D01*
X144494015Y-92227299D01*
X144494014Y-92227296D01*
X144493102Y-92219758D01*
X144432487Y-92059344D01*
X144367910Y-91965384D01*
X144339659Y-91924278D01*
X144339658Y-91924276D01*
X144335357Y-91918019D01*
X144329686Y-91912966D01*
X144212993Y-91808996D01*
X144212990Y-91808994D01*
X144207321Y-91803943D01*
X144199325Y-91799709D01*
X144062481Y-91727254D01*
X144062482Y-91727254D01*
X144055769Y-91723700D01*
X144038196Y-91719286D01*
X143896822Y-91683775D01*
X143896818Y-91683775D01*
X143889451Y-91681924D01*
X143881852Y-91681884D01*
X143881850Y-91681884D01*
X143810394Y-91681510D01*
X143717969Y-91681026D01*
X143710589Y-91682798D01*
X143710587Y-91682798D01*
X143558602Y-91719286D01*
X143558598Y-91719287D01*
X143551223Y-91721058D01*
X143398839Y-91799709D01*
X143269615Y-91912439D01*
X143171010Y-92052739D01*
X143108718Y-92212509D01*
X143107726Y-92220042D01*
X143107726Y-92220043D01*
X143087496Y-92373709D01*
X143086335Y-92382526D01*
X133762465Y-92382526D01*
X133757321Y-92377943D01*
X133749325Y-92373709D01*
X133612481Y-92301254D01*
X133612482Y-92301254D01*
X133605769Y-92297700D01*
X133588196Y-92293286D01*
X133446822Y-92257775D01*
X133446818Y-92257775D01*
X133439451Y-92255924D01*
X133431852Y-92255884D01*
X133431850Y-92255884D01*
X133360394Y-92255510D01*
X133267969Y-92255026D01*
X133260589Y-92256798D01*
X133260587Y-92256798D01*
X133108602Y-92293286D01*
X133108598Y-92293287D01*
X133101223Y-92295058D01*
X132948839Y-92373709D01*
X132819615Y-92486439D01*
X132721010Y-92626739D01*
X132693442Y-92697447D01*
X132682004Y-92726785D01*
X132658718Y-92786509D01*
X132657726Y-92794042D01*
X132657726Y-92794043D01*
X132647320Y-92873089D01*
X132636335Y-92956526D01*
X132645744Y-93041751D01*
X132647051Y-93053585D01*
X132655153Y-93126975D01*
X132657762Y-93134106D01*
X132657763Y-93134108D01*
X132664268Y-93151883D01*
X132668894Y-93222729D01*
X132634484Y-93284829D01*
X132593422Y-93311010D01*
X132593223Y-93311058D01*
X132586480Y-93314538D01*
X132586478Y-93314539D01*
X132531385Y-93342975D01*
X132440839Y-93389709D01*
X132311615Y-93502439D01*
X132213010Y-93642739D01*
X132150718Y-93802509D01*
X132149726Y-93810042D01*
X132149726Y-93810043D01*
X132145787Y-93839962D01*
X132128335Y-93972526D01*
X132128764Y-93976407D01*
X132108510Y-94042809D01*
X132061020Y-94085550D01*
X131932839Y-94151709D01*
X131803615Y-94264439D01*
X131705010Y-94404739D01*
X131642718Y-94564509D01*
X131620335Y-94734526D01*
X131620764Y-94738407D01*
X131600510Y-94804809D01*
X131553020Y-94847550D01*
X131424839Y-94913709D01*
X131295615Y-95026439D01*
X131197010Y-95166739D01*
X131169442Y-95237447D01*
X131153243Y-95278996D01*
X131134718Y-95326509D01*
X131133726Y-95334042D01*
X131133726Y-95334043D01*
X131116722Y-95463205D01*
X131112335Y-95496526D01*
X128440652Y-95496526D01*
X128439108Y-91372526D01*
X141556335Y-91372526D01*
X141575153Y-91542975D01*
X141577762Y-91550106D01*
X141577763Y-91550108D01*
X141585688Y-91571764D01*
X141634085Y-91704015D01*
X141638322Y-91710321D01*
X141638324Y-91710324D01*
X141649701Y-91727254D01*
X141729730Y-91846349D01*
X141856565Y-91961760D01*
X142007268Y-92043585D01*
X142173139Y-92087101D01*
X142260586Y-92088474D01*
X142337003Y-92089675D01*
X142337006Y-92089675D01*
X142344602Y-92089794D01*
X142352006Y-92088098D01*
X142352008Y-92088098D01*
X142414846Y-92073706D01*
X142511759Y-92051510D01*
X142664958Y-91974459D01*
X142670729Y-91969530D01*
X142670732Y-91969528D01*
X142789578Y-91868023D01*
X142795355Y-91863089D01*
X142895424Y-91723830D01*
X142959385Y-91564720D01*
X142983547Y-91394947D01*
X142983704Y-91380000D01*
X142963102Y-91209758D01*
X142902487Y-91049344D01*
X142805357Y-90908019D01*
X142799686Y-90902966D01*
X142682993Y-90798996D01*
X142682990Y-90798994D01*
X142677321Y-90793943D01*
X142669325Y-90789709D01*
X142532481Y-90717254D01*
X142532482Y-90717254D01*
X142525769Y-90713700D01*
X142508196Y-90709286D01*
X142366822Y-90673775D01*
X142366818Y-90673775D01*
X142359451Y-90671924D01*
X142351852Y-90671884D01*
X142351850Y-90671884D01*
X142280394Y-90671510D01*
X142187969Y-90671026D01*
X142180589Y-90672798D01*
X142180587Y-90672798D01*
X142028602Y-90709286D01*
X142028598Y-90709287D01*
X142021223Y-90711058D01*
X141868839Y-90789709D01*
X141739615Y-90902439D01*
X141641010Y-91042739D01*
X141578718Y-91202509D01*
X141556335Y-91372526D01*
X128439108Y-91372526D01*
X128438438Y-89582526D01*
X143186335Y-89582526D01*
X143205153Y-89752975D01*
X143207762Y-89760106D01*
X143207763Y-89760108D01*
X143215688Y-89781764D01*
X143264085Y-89914015D01*
X143359730Y-90056349D01*
X143486565Y-90171760D01*
X143637268Y-90253585D01*
X143803139Y-90297101D01*
X143890586Y-90298474D01*
X143967003Y-90299675D01*
X143967006Y-90299675D01*
X143974602Y-90299794D01*
X143982006Y-90298098D01*
X143982008Y-90298098D01*
X144044846Y-90283706D01*
X144141759Y-90261510D01*
X144294958Y-90184459D01*
X144300729Y-90179530D01*
X144300732Y-90179528D01*
X144419578Y-90078023D01*
X144425355Y-90073089D01*
X144525424Y-89933830D01*
X144589385Y-89774720D01*
X144613547Y-89604947D01*
X144613704Y-89590000D01*
X144593102Y-89419758D01*
X144532487Y-89259344D01*
X144435357Y-89118019D01*
X144429686Y-89112966D01*
X144312993Y-89008996D01*
X144312990Y-89008994D01*
X144307321Y-89003943D01*
X144299325Y-88999709D01*
X144162481Y-88927254D01*
X144162482Y-88927254D01*
X144155769Y-88923700D01*
X144138196Y-88919286D01*
X143996822Y-88883775D01*
X143996818Y-88883775D01*
X143989451Y-88881924D01*
X143981852Y-88881884D01*
X143981850Y-88881884D01*
X143910394Y-88881510D01*
X143817969Y-88881026D01*
X143810589Y-88882798D01*
X143810587Y-88882798D01*
X143658602Y-88919286D01*
X143658598Y-88919287D01*
X143651223Y-88921058D01*
X143498839Y-88999709D01*
X143369615Y-89112439D01*
X143271010Y-89252739D01*
X143208718Y-89412509D01*
X143186335Y-89582526D01*
X128438438Y-89582526D01*
X128437334Y-86633624D01*
X128457311Y-86565497D01*
X128510949Y-86518984D01*
X128581219Y-86508854D01*
X128645811Y-86538323D01*
X128675899Y-86576964D01*
X128738091Y-86700619D01*
X128770885Y-86765822D01*
X128933721Y-87002750D01*
X128936608Y-87005923D01*
X128936609Y-87005924D01*
X128974428Y-87047487D01*
X129127206Y-87215388D01*
X129130501Y-87218143D01*
X129130502Y-87218144D01*
X129280108Y-87343233D01*
X129347759Y-87399798D01*
X129591298Y-87552571D01*
X129853318Y-87670877D01*
X129904349Y-87685993D01*
X130124857Y-87751311D01*
X130124862Y-87751312D01*
X130128970Y-87752529D01*
X130133204Y-87753177D01*
X130133209Y-87753178D01*
X130381811Y-87791219D01*
X130413153Y-87796015D01*
X130559485Y-87798314D01*
X130696317Y-87800464D01*
X130696323Y-87800464D01*
X130700608Y-87800531D01*
X130704860Y-87800016D01*
X130704868Y-87800016D01*
X130981756Y-87766508D01*
X130981761Y-87766507D01*
X130986017Y-87765992D01*
X131264097Y-87693039D01*
X131529704Y-87583021D01*
X131710259Y-87477513D01*
X131774219Y-87440138D01*
X131774220Y-87440137D01*
X131777922Y-87437974D01*
X132004159Y-87260582D01*
X132045285Y-87218144D01*
X132172248Y-87087128D01*
X132204227Y-87054128D01*
X132206760Y-87050680D01*
X132206764Y-87050675D01*
X132371887Y-86825886D01*
X132374425Y-86822431D01*
X132431700Y-86716944D01*
X132509554Y-86573555D01*
X132509555Y-86573553D01*
X132511604Y-86569779D01*
X132562414Y-86435314D01*
X132611707Y-86304866D01*
X132611708Y-86304862D01*
X132613225Y-86300848D01*
X132677407Y-86020613D01*
X132677890Y-86015210D01*
X132702743Y-85736726D01*
X132702743Y-85736724D01*
X132702963Y-85734260D01*
X132703427Y-85690000D01*
X132701014Y-85654609D01*
X132684165Y-85407452D01*
X132684164Y-85407446D01*
X132683873Y-85403175D01*
X132679336Y-85381264D01*
X132654724Y-85262417D01*
X132625574Y-85121658D01*
X132529607Y-84850657D01*
X132397750Y-84595188D01*
X132384488Y-84576317D01*
X132279078Y-84426335D01*
X132232441Y-84359977D01*
X132097442Y-84214701D01*
X132039661Y-84152521D01*
X132039658Y-84152519D01*
X132036740Y-84149378D01*
X131814268Y-83967287D01*
X131573491Y-83819738D01*
X131525860Y-83767090D01*
X131514253Y-83697048D01*
X131542356Y-83631851D01*
X131601247Y-83592197D01*
X131639245Y-83586305D01*
X135731553Y-83583729D01*
X135799685Y-83603688D01*
X135846212Y-83657315D01*
X135856360Y-83727582D01*
X135848499Y-83756824D01*
X135792314Y-83896237D01*
X135751772Y-84103837D01*
X135751500Y-84109399D01*
X135751500Y-84965346D01*
X135766548Y-85123066D01*
X135826092Y-85326034D01*
X135828836Y-85331361D01*
X135828836Y-85331362D01*
X135918804Y-85506045D01*
X135922942Y-85514080D01*
X136053604Y-85680420D01*
X136058135Y-85684352D01*
X136058138Y-85684355D01*
X136194543Y-85802721D01*
X136213363Y-85819052D01*
X136218549Y-85822052D01*
X136218553Y-85822055D01*
X136314957Y-85877826D01*
X136396454Y-85924973D01*
X136596271Y-85994361D01*
X136602206Y-85995222D01*
X136602208Y-85995222D01*
X136799664Y-86023852D01*
X136799667Y-86023852D01*
X136805604Y-86024713D01*
X137016899Y-86014933D01*
X137093347Y-85996509D01*
X137164258Y-85999994D01*
X137222028Y-86041263D01*
X137248315Y-86107214D01*
X137234774Y-86176907D01*
X137195139Y-86222215D01*
X137077102Y-86304866D01*
X137064093Y-86313975D01*
X136911475Y-86466593D01*
X136787677Y-86643394D01*
X136785354Y-86648376D01*
X136785351Y-86648381D01*
X136702579Y-86825886D01*
X136696461Y-86839007D01*
X136695039Y-86844315D01*
X136695038Y-86844317D01*
X136653534Y-86999213D01*
X136640599Y-87047487D01*
X136621788Y-87262500D01*
X136640599Y-87477513D01*
X136642023Y-87482826D01*
X136642023Y-87482828D01*
X136692738Y-87672097D01*
X136696461Y-87685993D01*
X136698783Y-87690974D01*
X136698784Y-87690975D01*
X136785351Y-87876619D01*
X136785354Y-87876624D01*
X136787677Y-87881606D01*
X136911475Y-88058407D01*
X137064093Y-88211025D01*
X137240894Y-88334823D01*
X137245876Y-88337146D01*
X137245881Y-88337149D01*
X137431525Y-88423716D01*
X137436507Y-88426039D01*
X137441815Y-88427461D01*
X137441817Y-88427462D01*
X137639672Y-88480477D01*
X137639674Y-88480477D01*
X137644987Y-88481901D01*
X137860000Y-88500712D01*
X138075013Y-88481901D01*
X138080326Y-88480477D01*
X138080328Y-88480477D01*
X138278183Y-88427462D01*
X138278185Y-88427461D01*
X138283493Y-88426039D01*
X138288475Y-88423716D01*
X138474119Y-88337149D01*
X138474124Y-88337146D01*
X138479106Y-88334823D01*
X138655907Y-88211025D01*
X138808525Y-88058407D01*
X138932323Y-87881606D01*
X138934646Y-87876624D01*
X138934649Y-87876619D01*
X139021216Y-87690975D01*
X139021217Y-87690974D01*
X139023539Y-87685993D01*
X139027263Y-87672097D01*
X139077977Y-87482828D01*
X139077977Y-87482826D01*
X139079401Y-87477513D01*
X139098212Y-87262500D01*
X139079401Y-87047487D01*
X139066466Y-86999213D01*
X139024962Y-86844317D01*
X139024961Y-86844315D01*
X139023539Y-86839007D01*
X139017421Y-86825886D01*
X138934649Y-86648381D01*
X138934646Y-86648376D01*
X138932323Y-86643394D01*
X138808525Y-86466593D01*
X138655907Y-86313975D01*
X138642899Y-86304866D01*
X138578094Y-86259490D01*
X138479106Y-86190177D01*
X138474124Y-86187854D01*
X138474119Y-86187851D01*
X138288475Y-86101284D01*
X138288474Y-86101283D01*
X138283493Y-86098961D01*
X138278185Y-86097539D01*
X138278183Y-86097538D01*
X138080328Y-86044523D01*
X138080326Y-86044523D01*
X138075013Y-86043099D01*
X137860000Y-86024288D01*
X137644987Y-86043099D01*
X137639674Y-86044523D01*
X137639672Y-86044523D01*
X137579216Y-86060722D01*
X137508239Y-86059032D01*
X137449444Y-86019238D01*
X137421496Y-85953973D01*
X137433270Y-85883960D01*
X137473705Y-85836245D01*
X137493710Y-85822055D01*
X137587611Y-85755446D01*
X137733881Y-85602650D01*
X137848620Y-85424952D01*
X137927686Y-85228763D01*
X137968228Y-85021163D01*
X137968500Y-85015601D01*
X137968500Y-84159654D01*
X137953452Y-84001934D01*
X137893908Y-83798966D01*
X137876930Y-83766001D01*
X137863521Y-83696282D01*
X137889934Y-83630381D01*
X137947783Y-83589222D01*
X137988866Y-83582309D01*
X142733328Y-83579323D01*
X142801461Y-83599282D01*
X142847988Y-83652909D01*
X142858136Y-83723176D01*
X142850273Y-83752421D01*
X142796068Y-83886923D01*
X142792314Y-83896237D01*
X142751772Y-84103837D01*
X142751500Y-84109399D01*
X142751500Y-84965346D01*
X142766548Y-85123066D01*
X142826092Y-85326034D01*
X142828836Y-85331361D01*
X142828836Y-85331362D01*
X142918804Y-85506045D01*
X142922942Y-85514080D01*
X143053604Y-85680420D01*
X143058135Y-85684352D01*
X143058138Y-85684355D01*
X143194543Y-85802721D01*
X143213363Y-85819052D01*
X143224182Y-85825311D01*
X143228508Y-85827814D01*
X143277455Y-85879241D01*
X143290828Y-85948967D01*
X143264381Y-86014854D01*
X143206511Y-86055983D01*
X143132797Y-86058582D01*
X143080335Y-86044524D01*
X143080324Y-86044522D01*
X143075013Y-86043099D01*
X142860000Y-86024288D01*
X142644987Y-86043099D01*
X142639674Y-86044523D01*
X142639672Y-86044523D01*
X142441817Y-86097538D01*
X142441815Y-86097539D01*
X142436507Y-86098961D01*
X142431526Y-86101283D01*
X142431525Y-86101284D01*
X142245881Y-86187851D01*
X142245876Y-86187854D01*
X142240894Y-86190177D01*
X142141906Y-86259490D01*
X142077102Y-86304866D01*
X142064093Y-86313975D01*
X141911475Y-86466593D01*
X141787677Y-86643394D01*
X141785354Y-86648376D01*
X141785351Y-86648381D01*
X141702579Y-86825886D01*
X141696461Y-86839007D01*
X141695039Y-86844315D01*
X141695038Y-86844317D01*
X141653534Y-86999213D01*
X141640599Y-87047487D01*
X141621788Y-87262500D01*
X141640599Y-87477513D01*
X141642023Y-87482826D01*
X141642023Y-87482828D01*
X141692738Y-87672097D01*
X141696461Y-87685993D01*
X141698783Y-87690974D01*
X141698784Y-87690975D01*
X141785351Y-87876619D01*
X141785354Y-87876624D01*
X141787677Y-87881606D01*
X141911475Y-88058407D01*
X142064093Y-88211025D01*
X142240894Y-88334823D01*
X142245876Y-88337146D01*
X142245881Y-88337149D01*
X142431525Y-88423716D01*
X142436507Y-88426039D01*
X142441815Y-88427461D01*
X142441817Y-88427462D01*
X142639672Y-88480477D01*
X142639674Y-88480477D01*
X142644987Y-88481901D01*
X142860000Y-88500712D01*
X143075013Y-88481901D01*
X143080326Y-88480477D01*
X143080328Y-88480477D01*
X143278183Y-88427462D01*
X143278185Y-88427461D01*
X143283493Y-88426039D01*
X143288475Y-88423716D01*
X143474119Y-88337149D01*
X143474124Y-88337146D01*
X143479106Y-88334823D01*
X143655907Y-88211025D01*
X143808525Y-88058407D01*
X143932323Y-87881606D01*
X143934646Y-87876624D01*
X143934649Y-87876619D01*
X144021216Y-87690975D01*
X144021217Y-87690974D01*
X144023539Y-87685993D01*
X144027263Y-87672097D01*
X144077977Y-87482828D01*
X144077977Y-87482826D01*
X144079401Y-87477513D01*
X144098212Y-87262500D01*
X144079401Y-87047487D01*
X144066466Y-86999213D01*
X144024962Y-86844317D01*
X144024961Y-86844315D01*
X144023539Y-86839007D01*
X144017421Y-86825886D01*
X143934649Y-86648381D01*
X143934646Y-86648376D01*
X143932323Y-86643394D01*
X143808525Y-86466593D01*
X143655907Y-86313975D01*
X143529905Y-86225747D01*
X143493339Y-86180000D01*
X152406496Y-86180000D01*
X152407186Y-86186565D01*
X152420895Y-86316995D01*
X152426458Y-86369928D01*
X152485473Y-86551556D01*
X152488776Y-86557278D01*
X152488777Y-86557279D01*
X152507083Y-86588986D01*
X152580960Y-86716944D01*
X152708747Y-86858866D01*
X152863248Y-86971118D01*
X152869276Y-86973802D01*
X152869278Y-86973803D01*
X153031681Y-87046109D01*
X153037712Y-87048794D01*
X153131113Y-87068647D01*
X153218056Y-87087128D01*
X153218061Y-87087128D01*
X153224513Y-87088500D01*
X153415487Y-87088500D01*
X153421939Y-87087128D01*
X153421944Y-87087128D01*
X153508888Y-87068647D01*
X153602288Y-87048794D01*
X153608319Y-87046109D01*
X153770722Y-86973803D01*
X153770724Y-86973802D01*
X153776752Y-86971118D01*
X153931253Y-86858866D01*
X154059040Y-86716944D01*
X154132917Y-86588986D01*
X154151223Y-86557279D01*
X154151224Y-86557278D01*
X154154527Y-86551556D01*
X154213542Y-86369928D01*
X154219106Y-86316995D01*
X154232814Y-86186565D01*
X154233504Y-86180000D01*
X154220743Y-86058582D01*
X154214232Y-85996635D01*
X154214232Y-85996633D01*
X154213542Y-85990072D01*
X154154527Y-85808444D01*
X154059040Y-85643056D01*
X153931253Y-85501134D01*
X153776752Y-85388882D01*
X153770724Y-85386198D01*
X153770722Y-85386197D01*
X153608319Y-85313891D01*
X153608318Y-85313891D01*
X153602288Y-85311206D01*
X153508888Y-85291353D01*
X153421944Y-85272872D01*
X153421939Y-85272872D01*
X153415487Y-85271500D01*
X153224513Y-85271500D01*
X153218061Y-85272872D01*
X153218056Y-85272872D01*
X153131112Y-85291353D01*
X153037712Y-85311206D01*
X153031682Y-85313891D01*
X153031681Y-85313891D01*
X152869278Y-85386197D01*
X152869276Y-85386198D01*
X152863248Y-85388882D01*
X152708747Y-85501134D01*
X152580960Y-85643056D01*
X152485473Y-85808444D01*
X152426458Y-85990072D01*
X152425768Y-85996633D01*
X152425768Y-85996635D01*
X152419257Y-86058582D01*
X152406496Y-86180000D01*
X143493339Y-86180000D01*
X143485578Y-86170291D01*
X143478269Y-86099672D01*
X143510300Y-86036311D01*
X143571501Y-86000326D01*
X143620257Y-85997839D01*
X143799664Y-86023852D01*
X143799667Y-86023852D01*
X143805604Y-86024713D01*
X144016899Y-86014933D01*
X144148077Y-85983319D01*
X144216701Y-85966781D01*
X144216703Y-85966780D01*
X144222534Y-85965375D01*
X144227992Y-85962893D01*
X144227996Y-85962892D01*
X144401596Y-85883960D01*
X144415087Y-85877826D01*
X144587611Y-85755446D01*
X144733881Y-85602650D01*
X144848620Y-85424952D01*
X144927686Y-85228763D01*
X144968228Y-85021163D01*
X144968500Y-85015601D01*
X144968500Y-84159654D01*
X144953452Y-84001934D01*
X144893908Y-83798966D01*
X144875206Y-83762654D01*
X144861797Y-83692935D01*
X144888210Y-83627035D01*
X144946058Y-83585876D01*
X144987283Y-83578962D01*
X160518294Y-83586529D01*
G37*
%TD.AperFunction*%
%TD*%
M02*
